#N canvas 827 239 527 327 12;
#N canvas 0 50 450 300 addittive 1;
#X obj 80 230 sine~;
#X obj 10 120 inlet;
#X obj 140 230 sine~;
#X obj 200 230 sine~;
#X obj 260 230 sine~;
#X obj 320 230 sine~;
#X obj 380 230 sine~;
#X obj 440 230 sine~;
#X obj 500 230 sine~;
#X obj 80 430 outlet~;
#X obj 80 30 inlet;
#X obj 80 70 unpack f f f f f f f f;
#X obj 80 160 *;
#X obj 80 120 t b f;
#X obj 140 120 t b f;
#X obj 200 120 t b f;
#X obj 260 160 *;
#X obj 260 120 t b f;
#X obj 320 160 *;
#X obj 320 120 t b f;
#X obj 380 120 t b f;
#X obj 440 160 *;
#X obj 440 120 t b f;
#X obj 500 160 *;
#X obj 500 120 t b f;
#X obj 140 160 *;
#X obj 200 160 *;
#X obj 570 230 inlet;
#X obj 570 270 unpack f f f f f f f f, f 20;
#X obj 80 330 *~;
#X obj 140 330 *~;
#X obj 200 330 *~;
#X obj 260 330 *~;
#X obj 320 330 *~;
#X obj 380 330 *~;
#X obj 440 330 *~;
#X obj 500 330 *~;
#X obj 380 160 *;
#X obj 80 390 /~ 8;
#X obj 620 160 inlet~;
#X obj 680 160 inlet~;
#X connect 0 0 29 0 empty;
#X connect 1 0 12 0 empty;
#X connect 1 0 16 0 empty;
#X connect 1 0 18 0 empty;
#X connect 1 0 21 0 empty;
#X connect 1 0 23 0 empty;
#X connect 1 0 25 0 empty;
#X connect 1 0 26 0 empty;
#X connect 1 0 37 0 empty;
#X connect 2 0 30 0 empty;
#X connect 3 0 31 0 empty;
#X connect 4 0 32 0 empty;
#X connect 5 0 33 0 empty;
#X connect 6 0 34 0 empty;
#X connect 7 0 35 0 empty;
#X connect 8 0 36 0 empty;
#X connect 10 0 11 0 empty;
#X connect 11 0 13 0 empty;
#X connect 11 1 14 0 empty;
#X connect 11 2 15 0 empty;
#X connect 11 3 17 0 empty;
#X connect 11 4 19 0 empty;
#X connect 11 5 20 0 empty;
#X connect 11 6 22 0 empty;
#X connect 11 7 24 0 empty;
#X connect 12 0 0 0 empty;
#X connect 13 0 12 0 empty;
#X connect 13 1 12 1 empty;
#X connect 14 0 25 0 empty;
#X connect 14 1 25 1 empty;
#X connect 15 0 26 0 empty;
#X connect 15 1 26 1 empty;
#X connect 16 0 4 0 empty;
#X connect 17 0 16 0 empty;
#X connect 17 1 16 1 empty;
#X connect 18 0 5 0 empty;
#X connect 19 0 18 0 empty;
#X connect 19 1 18 1 empty;
#X connect 20 0 37 0 empty;
#X connect 20 1 37 1 empty;
#X connect 21 0 7 0 empty;
#X connect 22 0 21 0 empty;
#X connect 22 1 21 1 empty;
#X connect 23 0 8 0 empty;
#X connect 24 0 23 0 empty;
#X connect 24 1 23 1 empty;
#X connect 25 0 2 0 empty;
#X connect 26 0 3 0 empty;
#X connect 27 0 28 0 empty;
#X connect 28 0 29 1 empty;
#X connect 28 1 30 1 empty;
#X connect 28 2 31 1 empty;
#X connect 28 3 32 1 empty;
#X connect 28 4 33 1 empty;
#X connect 28 5 34 1 empty;
#X connect 28 6 35 1 empty;
#X connect 28 7 36 1 empty;
#X connect 29 0 38 0 empty;
#X connect 30 0 38 0 empty;
#X connect 31 0 38 0 empty;
#X connect 32 0 38 0 empty;
#X connect 33 0 38 0 empty;
#X connect 34 0 38 0 empty;
#X connect 35 0 38 0 empty;
#X connect 36 0 38 0 empty;
#X connect 37 0 6 0 empty;
#X connect 38 0 9 0 empty;
#X connect 39 0 0 1 empty;
#X connect 39 0 2 1 empty;
#X connect 39 0 3 1 empty;
#X connect 39 0 4 1 empty;
#X connect 39 0 5 1 empty;
#X connect 39 0 6 1 empty;
#X connect 39 0 7 1 empty;
#X connect 39 0 8 1 empty;
#X connect 40 0 0 2 empty;
#X connect 40 0 2 2 empty;
#X connect 40 0 3 2 empty;
#X connect 40 0 4 2 empty;
#X connect 40 0 5 2 empty;
#X connect 40 0 6 2 empty;
#X connect 40 0 7 2 empty;
#X connect 40 0 8 2 empty;
#X restore 310 400 pd addittive;
#X f 11;
#X obj 217 243 hot 8;
#X obj 210 90 vsl 17 128 0 32 0 0 empty empty empty 0 -9 0 10 #191919 #ffffff #ffffff 0 1;
#X obj 230 90 vsl 17 128 0 32 0 0 empty empty empty 0 -9 0 10 #191919 #ffffff #ffffff 0 1;
#X obj 250 90 vsl 17 128 0 32 0 0 empty empty empty 0 -9 0 10 #191919 #ffffff #ffffff 0 1;
#X obj 270 90 vsl 17 128 0 32 0 0 empty empty empty 0 -9 0 10 #191919 #ffffff #ffffff 0 1;
#X obj 290 90 vsl 17 128 0 32 0 0 empty empty empty 0 -9 0 10 #191919 #ffffff #ffffff 0 1;
#X obj 310 90 vsl 17 128 0 32 0 0 empty empty empty 0 -9 0 10 #191919 #ffffff #ffffff 0 1;
#X obj 330 90 vsl 17 128 0 32 0 0 empty empty empty 0 -9 0 10 #191919 #ffffff #ffffff 0 1;
#X obj 350 90 vsl 17 128 0 32 0 0 empty empty empty 0 -9 0 10 #191919 #ffffff #ffffff 0 1;
#X obj 220 280 pack f f f f f f f f;
#X obj 527 293 hot 8;
#X obj 520 140 vsl 17 128 0 4 0 0 empty empty empty 0 -9 0 10 #191919 #ffffff #ffffff 0 1;
#X obj 540 140 vsl 17 128 0 4 0 0 empty empty empty 0 -9 0 10 #191919 #ffffff #ffffff 0 1;
#X obj 560 140 vsl 17 128 0 4 0 0 empty empty empty 0 -9 0 10 #191919 #ffffff #ffffff 0 1;
#X obj 580 140 vsl 17 128 0 4 0 0 empty empty empty 0 -9 0 10 #191919 #ffffff #ffffff 0 1;
#X obj 600 140 vsl 17 128 0 4 0 0 empty empty empty 0 -9 0 10 #191919 #ffffff #ffffff 0 1;
#X obj 620 140 vsl 17 128 0 4 0 0 empty empty empty 0 -9 0 10 #191919 #ffffff #ffffff 0 1;
#X obj 640 140 vsl 17 128 0 4 0 0 empty empty empty 0 -9 0 10 #191919 #ffffff #ffffff 0 1;
#X obj 660 140 vsl 17 128 0 4 0 0 empty empty empty 0 -9 0 10 #191919 #ffffff #ffffff 0 1;
#X obj 530 330 pack f f f f f f f f;
#X obj 30 110 nbx 12 40 -1e+37 1e+37 0 1 empty empty empty 0 -8 0 10 #191919 #ffffff #ffffff 172.4 256;
#X obj 40 170 vsl 17 128 0 20000 0 0 empty empty empty 0 -9 0 10 #191919 #ffffff #ffffff 0 1;
#X obj 250 530 dac~;
#X obj 310 450 oscope~ 399 130 8 3 128 -1 1 0 0 0 0 255 255 255 25 25 25 87 87 87 0 empty;
#X obj 100 50 nbx 4 18 -1e+37 1e+37 0 1 empty empty empty 0 -8 0 10 #191919 #ffffff #ffffff 1 256;
#X obj 150 50 nbx 4 18 -1e+37 1e+37 0 1 empty empty empty 0 -8 0 10 #191919 #ffffff #ffffff 3 256;
#X obj 200 50 nbx 4 18 -1e+37 1e+37 0 1 empty empty empty 0 -8 0 10 #191919 #ffffff #ffffff 5 256;
#X obj 250 50 nbx 4 18 -1e+37 1e+37 0 1 empty empty empty 0 -8 0 10 #191919 #ffffff #ffffff 7 256;
#X obj 300 50 nbx 4 18 -1e+37 1e+37 0 1 empty empty empty 0 -8 0 10 #191919 #ffffff #ffffff 9 256;
#X obj 350 50 nbx 4 18 -1e+37 1e+37 0 1 empty empty empty 0 -8 0 10 #191919 #ffffff #ffffff 11 256;
#X obj 400 50 nbx 4 18 -1e+37 1e+37 0 1 empty empty empty 0 -8 0 10 #191919 #ffffff #ffffff 13 256;
#X obj 450 50 nbx 4 18 -1e+37 1e+37 0 1 empty empty empty 0 -8 0 10 #191919 #ffffff #ffffff 15 256;
#X obj 250 490 *~;
#X obj 220 430 tgl 25 0 empty empty empty 17 7 0 10 #191919 #ffffff #ffffff 0 0.1;
#X obj 380 110 nbx 4 18 -1e+37 1e+37 0 1 empty empty empty 0 -8 0 10 #191919 #ffffff #ffffff 1.5 256;
#X obj 440 110 nbx 4 18 -1e+37 1e+37 0 1 empty empty empty 0 -8 0 10 #191919 #ffffff #ffffff 0.9 256;
#X obj 490 110 nbx 4 18 -1e+37 1e+37 0 1 empty empty empty 0 -8 0 10 #191919 #ffffff #ffffff 0.5 256;
#X obj 540 110 nbx 4 18 -1e+37 1e+37 0 1 empty empty empty 0 -8 0 10 #191919 #ffffff #ffffff 0.3 256;
#X obj 594 110 nbx 4 18 -1e+37 1e+37 0 1 empty empty empty 0 -8 0 10 #191919 #ffffff #ffffff 0.2 256;
#X obj 643 110 nbx 4 18 -1e+37 1e+37 0 1 empty empty empty 0 -8 0 10 #191919 #ffffff #ffffff 0.13 256;
#X obj 696 110 nbx 4 18 -1e+37 1e+37 0 1 empty empty empty 0 -8 0 10 #191919 #ffffff #ffffff 0.2 256;
#X obj 749 110 nbx 4 18 -1e+37 1e+37 0 1 empty empty empty 0 -8 0 10 #191919 #ffffff #ffffff 0.43 256;
#X obj 730 330 sig~;
#X obj 730 280 tgl 25 0 empty empty empty 17 7 0 10 #191919 #ffffff #ffffff 0 1;
#X connect 0 0 24 0 empty;
#X connect 0 0 33 0 empty;
#X connect 1 0 10 0 empty;
#X connect 1 1 10 1 empty;
#X connect 1 2 10 2 empty;
#X connect 1 3 10 3 empty;
#X connect 1 4 10 4 empty;
#X connect 1 5 10 5 empty;
#X connect 1 6 10 6 empty;
#X connect 1 7 10 7 empty;
#X connect 2 0 1 0 empty;
#X connect 3 0 1 1 empty;
#X connect 4 0 1 2 empty;
#X connect 5 0 1 3 empty;
#X connect 6 0 1 4 empty;
#X connect 7 0 1 5 empty;
#X connect 8 0 1 6 empty;
#X connect 9 0 1 7 empty;
#X connect 10 0 0 1 empty;
#X connect 11 0 20 0 empty;
#X connect 11 1 20 1 empty;
#X connect 11 2 20 2 empty;
#X connect 11 3 20 3 empty;
#X connect 11 4 20 4 empty;
#X connect 11 5 20 5 empty;
#X connect 11 6 20 6 empty;
#X connect 11 7 20 7 empty;
#X connect 12 0 11 0 empty;
#X connect 13 0 11 1 empty;
#X connect 14 0 11 2 empty;
#X connect 15 0 11 3 empty;
#X connect 16 0 11 4 empty;
#X connect 17 0 11 5 empty;
#X connect 18 0 11 6 empty;
#X connect 19 0 11 7 empty;
#X connect 20 0 0 2 empty;
#X connect 21 0 22 0 empty;
#X connect 22 0 0 0 empty;
#X connect 25 0 2 0 empty;
#X connect 26 0 3 0 empty;
#X connect 27 0 4 0 empty;
#X connect 28 0 5 0 empty;
#X connect 29 0 6 0 empty;
#X connect 30 0 7 0 empty;
#X connect 31 0 8 0 empty;
#X connect 32 0 9 0 empty;
#X connect 33 0 23 0 empty;
#X connect 33 0 23 1 empty;
#X connect 34 0 33 1 empty;
#X connect 35 0 12 0 empty;
#X connect 36 0 13 0 empty;
#X connect 37 0 14 0 empty;
#X connect 38 0 15 0 empty;
#X connect 39 0 16 0 empty;
#X connect 40 0 17 0 empty;
#X connect 41 0 18 0 empty;
#X connect 42 0 19 0 empty;
#X connect 43 0 0 3 empty;
#X connect 44 0 43 0 empty;
