#N canvas 827 239 527 327 12;
#X obj 146 376 spectrograph~ 1024 0 1 300 140 100;
#X obj 146 171 bl.saw~;
#X obj 146 105 nbx 15 47 -1e+37 1e+37 0 1 empty empty empty 0 -8 0 10 #e3dfd9 #5a5a5a #5a5a5a 5124.53 256;
#X obj 146 322 clip~ -1 1;
#X obj 146 285 *~;
#X obj 170 224 nbx 14 47 -1e+37 1e+37 0 1 empty empty empty 0 -8 0 10 #e3dfd9 #5a5a5a #5a5a5a 1269 256;
#X obj 461 437 dac~;
#X obj 461 374 *~;
#X obj 472 297 nbx 8 45 -1e+37 1e+37 0 1 empty empty empty 0 -8 0 10 #e3dfd9 #5a5a5a #5a5a5a 0 256;
#X obj 472 197 tgl 69 0 empty empty empty 17 7 0 10 #e3dfd9 #5a5a5a #5a5a5a 0 0.01;
#X obj 146 41 hsl 177 49 2 22000 1 1 empty empty empty -2 -8 0 10 #e3dfd9 #5a5a5a #5a5a5a 14844 1;
#X connect 1 0 4 0 empty;
#X connect 2 0 1 0 empty;
#X connect 3 0 0 0 empty;
#X connect 3 0 7 0 empty;
#X connect 4 0 3 0 empty;
#X connect 5 0 4 1 empty;
#X connect 7 0 6 0 empty;
#X connect 7 0 6 1 empty;
#X connect 8 0 7 1 empty;
#X connect 9 0 8 0 empty;
#X connect 10 0 2 0 empty;
