#N canvas 827 239 527 327 12;
#X obj 311 400 spectrograph~ 1024 0 1 300 140 100;
#X obj 28 67 nbx 15 47 -1e+37 1e+37 0 1 empty empty empty 0 -8 0 10 #e3dfd9 #5a5a5a #5a5a5a 5005.8 256;
#X obj 248 360 clip~ -1 1;
#X obj 248 327 *~;
#X obj 410 265 nbx 14 47 -1e+37 1e+37 0 1 empty empty empty 0 -8 0 10 #e3dfd9 #5a5a5a #5a5a5a 1269 256;
#X obj 248 493 dac~;
#X obj 248 445 *~;
#X obj 265 400 tgl 32 0 empty empty empty 17 7 0 10 #e3dfd9 #5a5a5a #5a5a5a 0 0.01;
#X obj 28 13 hsl 177 49 2 22000 1 1 empty empty empty -2 -8 0 10 #e3dfd9 #5a5a5a #5a5a5a 14844 1;
#X obj 39 162 nbx 4 20 0 32 0 1 empty empty gain-i 0 -4 0 10 #191919 #ffffff #ffffff 1.7 256;
#X obj 173 219 nbx 4 20 -1 0 0 1 empty empty clip\ [ 0 -4 0 10 #191919 #ffffff #ffffff -0.5 256;
#X obj 188 257 nbx 4 20 0 1 0 1 empty empty clip\ ] 0 -4 0 10 #191919 #ffffff #ffffff 0.5 256;
#X obj 259 165 nbx 4 20 0 32 0 1 empty empty gain-f 0 -4 0 10 #191919 #ffffff #ffffff 1.1 256;
#X obj 28 286 svfilter~, f 10;
#X obj 248 286 svfilter~;
#X obj 28 193 *~;
#X obj 248 194 *~;
#X obj 28 127 bl.saw~;
#X obj 159 286 clip~;
#X obj 53 219 hsl 100 20 220 22000 1 1 empty empty filter1-cf 50 10 0 14 #191919 #ffffff #ffffff 8526 1;
#X obj 271 219 hsl 100 20 220 22000 1 1 empty empty filter2-cf 50 10 0 14 #191919 #ffffff #ffffff 7003 1;
#X obj 53 247 nbx 5 15 -1e+37 1e+37 0 0 empty empty empty 0 -8 0 10 #e3dfd9 #5a5a5a #5a5a5a 0 256;
#X obj 334 247 nbx 4 18 0 1 0 1 empty empty empty 0 -8 0 10 #e3dfd9 #5a5a5a #5a5a5a 0 256;
#X obj 122 247 nbx 4 18 0 1 0 1 empty empty empty 0 -8 0 10 #e3dfd9 #5a5a5a #5a5a5a 0 256;
#X obj 271 247 nbx 5 15 -1e+37 1e+37 0 0 empty empty empty 0 -8 0 10 #e3dfd9 #5a5a5a #5a5a5a 0 256;
#X connect 1 0 17 0 empty;
#X connect 2 0 0 0 32.................J....7C...fB....+....PA....;
#X connect 2 0 6 0 32.................g.........PH.........DD....;
#X connect 3 0 2 0 empty;
#X connect 4 0 3 1 32.................H....n1+++OB....p8++++.....;
#X connect 6 0 5 0 32.................N.........fC.........vA....;
#X connect 6 0 5 1 32.................N....HA...fC....R....vA....;
#X connect 7 0 6 1 32.................G....r+++++A....6++++6.....;
#X connect 8 0 1 0 empty;
#X connect 9 0 15 1 empty;
#X connect 10 0 18 1 empty;
#X connect 11 0 18 2 empty;
#X connect 12 0 16 1 empty;
#X connect 13 0 18 0 48.................M....7E...PC....eA...P9++++f....j++++OH...P6++++;
#X connect 14 0 3 0 empty;
#X connect 15 0 13 0 empty;
#X connect 16 0 14 0 empty;
#X connect 17 0 15 0 empty;
#X connect 18 0 16 0 48.................P....XD....D....FA...j3+++eV....I9+++mE...Pj++++;
#X connect 19 0 21 0 empty;
#X connect 20 0 24 0 empty;
#X connect 21 0 13 1 empty;
#X connect 22 0 14 2 32.................K....n8++++B....Z++++WA....;
#X connect 23 0 13 2 32.................K....X8++++B....V++++WA....;
#X connect 24 0 14 1 empty;
