#N canvas 827 239 527 327 12;
#X obj 146 266 spectrograph~;
#X msg 49 200 log \$1;
#X obj 49 114 tgl 62 1 empty empty empty 17 7 0 10 #e3dfd9 #5a5a5a #5a5a5a 0 1;
#X obj 146 123 bl.saw~;
#X obj 146 57 nbx 8 45 -1e+37 1e+37 0 1 empty empty empty 0 -8 0 10 #e3dfd9 #5a5a5a #5a5a5a 0 256;
#X obj 146 212 clip~ -1 1;
#X obj 146 175 *~;
#X obj 212 116 nbx 8 45 -1e+37 1e+37 0 1 empty empty empty 0 -8 0 10 #e3dfd9 #5a5a5a #5a5a5a 0 256;
#X obj 469 315 dac~;
#X obj 469 252 *~;
#X obj 480 175 nbx 8 45 -1e+37 1e+37 0 1 empty empty empty 0 -8 0 10 #e3dfd9 #5a5a5a #5a5a5a 0.01 256;
#X connect 1 0 0 0 empty;
#X connect 2 0 1 0 empty;
#X connect 3 0 6 0 empty;
#X connect 4 0 3 0 empty;
#X connect 5 0 0 0 empty;
#X connect 5 0 9 0 empty;
#X connect 6 0 5 0 empty;
#X connect 7 0 6 1 empty;
#X connect 9 0 8 0 empty;
#X connect 9 0 8 1 empty;
#X connect 10 0 9 1 empty;
