#N canvas 827 239 527 327 12;
#N canvas 0 50 450 250 (subpatch) 0;
#X text 0 0 plugdatainfo <?xml version="1.0" encoding="UTF-8"?> <plugdatainfo/>;
#X coords 0 1 100 -1 1 1 1;
#X restore 0 0 graph;
#X obj 67 146 function 582 175 empty empty -0.786585 1 25 25 25 247 168 184 0 0 0 0 -0.0182927 0.0609755 -0.0853659 0.0365854 0.329268 0.0731707 -0.406011 0 0 0 0 0 0 0 0 0 0 0 0 0 -0.109756 0 0 0.432927 0.731707 0.113821 -0.390244 0.00231844 0.0379924 0.278169 0.463415 0.231707 -0.786585 0.207317 0.00813007 0.0203252 -0.152439 0.126016 0.182927 0.146341 0.847561 0.115854 0.323171 0.213414 -0.603658 0.097561 0.189025 0.134146 -0.00609756 0.317073 0.865854 0.294242 -0.437726 0.535026 0.817073 0.638211 0 0 0 0 0 0 0 0 0 0 0 0 0 0 -0.109756 0 0 0 0 0 0 0 0 0 0 0 0 0 0 0 0 0 0 0 0 0.148375 0.756097 0.052845 -0.268293 0.0934958 0.414634 0.128049 -0.176829 0.0589433 -0.280488 0.154471 -0.25 0.0487804 0.365854 0.0772362 -0.280488 0.130081 0.00609756 0 0.719512 0.0213413 0.0304878 0.0396342 -0.304878 0.0731707 0.278963 0.0101628 -0.247967 0.227642 -0.182927 0.0030489 0.202744 0.155488 -0.134146 0.00914669 0.126524 0.0701218 -0.0487805 0.0182929 0.0503048;
#N canvas 0 50 450 250 (subpatch) 0;
#X array arr1 128 float 0;
#X coords 0 1 127 -1 582 164 1;
#X restore 78 368 graph;
#X obj 67 48 array get arr1;
#X listbox 67 110 80 0 0 0 - - - 0;
#X obj 421 47 pointer;
#X obj 67 15 nbx 4 18 -1e+37 1e+37 0 0 empty empty empty 0 -8 0 10 #191919 #ffffff #ffffff 0 256;
#X obj 165 15 nbx 4 18 -1e+37 1e+37 0 0 empty empty empty 0 -8 0 10 #191919 #ffffff #ffffff 0 256;
#X connect 3 0 4 0;
#X connect 4 0 1 0;
#X connect 6 0 3 0;
#X connect 7 0 3 1;
