#N canvas 827 239 527 327 12;
#N canvas 0 50 450 300 sub1 1;
#X obj 150 110 v counter;
#X obj 150 230 array define;
#X msg 150 180 rename arr-\$1;
#X obj 150 50 bng 25 250 50 1 empty empty empty 17 7 0 10 #191919 #ffffff #ffffff;
#X obj 180 140 + 1;
#X obj 305 110 v counter;
#X obj 305 230 array define;
#X msg 305 180 rename arr-\$1;
#X obj 305 50 bng 25 250 50 1 empty empty empty 17 7 0 10 #191919 #ffffff #ffffff;
#X obj 335 140 + 1;
#X connect 0 0 2 0 empty;
#X connect 0 0 4 0 32.................E....3A...PA....d....n.....;
#X connect 2 0 1 0 empty;
#X connect 3 0 0 0 empty;
#X connect 4 0 0 0 48.................J....fB...fB....n....T7++++3++++E++++O9++++y++++;
#X connect 5 0 7 0 empty;
#X connect 5 0 9 0 32.................E....3A...PA....d....n.....;
#X connect 7 0 6 0 empty;
#X connect 8 0 5 0 empty;
#X connect 9 0 5 0 48.................J....fB...fB....n....T7++++3++++E++++O9++++y++++;
#X restore 120 200 pd sub1;
