#N canvas 827 239 739 529 12;
#X obj 29 234 / 100;
#N canvas 0 50 450 471 scales 0;
#X text 239 18 hexatonic blues;
#X text 269 48 9-tone blues;
#X text 249 78 harmonic minor;
#X text 249 108 melodic minor;
#X text 249 138 ukrainian dorian;
#X text 249 168 aeolian;
#X text 249 198 dorian;
#X text 249 228 ionian;
#X text 249 258 locrian;
#X text 249 288 lydian;
#X text 249 318 mixolydian;
#X text 249 348 phrygian;
#X text 239 378 whole tone;
#X text 299 408 chromatic;
#X obj 19 9 inlet;
#X obj 109 439 outlet;
#X msg 129 19 0 3 5 6 7 10 12;
#X msg 129 49 0 2 3 4 5 6 7 9 10 12;
#X msg 129 79 0 2 3 5 7 8 11 12;
#X msg 129 109 0 2 3 5 7 9 11 12;
#X msg 129 139 0 2 3 6 7 9 11 12;
#X msg 129 169 0 2 3 5 7 8 10 12;
#X msg 129 199 0 2 3 5 7 9 10 12;
#X msg 129 229 0 2 4 5 7 9 11 12;
#X msg 129 259 0 1 3 5 6 8 10 12;
#X msg 129 289 0 2 4 6 7 9 11 12;
#X msg 129 319 0 2 4 5 7 9 10 12;
#X msg 129 349 0 1 3 5 7 8 10 12;
#X msg 129 379 0 2 4 6 8 10 12;
#X msg 129 409 0 1 2 3 4 5 6 7 8 9 10 11 12;
#X obj 19 339 scala;
#X obj 19 379 op / 100;
#X obj 19 299 bng 25 250 50 0 empty empty empty 17 7 0 10 #191919 #d4d4d4 #d4d4d4;
#X text 19 268 scala files;
#X connect 16 0 15 0 32.................F....D1+++uA....g8+++CY....;
#X connect 17 0 15 0 32.................F....D1+++uA....g8+++KW....;
#X connect 18 0 15 0 32.................F....D1+++uA....g8+++SU....;
#X connect 19 0 15 0 32.................G....D1++++A....g8+++aS....;
#X connect 20 0 15 0 32.................D....D1+++OA....g8+++iQ....;
#X connect 21 0 15 0 32.................F....D1+++uA....g8+++qO....;
#X connect 22 0 15 0 32.................E....D1+++eA....g8+++yM....;
#X connect 23 0 15 0 32.................E....D1+++eA....g8+++6K....;
#X connect 24 0 15 0 32.................F....D1+++uA....g8+++CJ....;
#X connect 25 0 15 0 32.................F....D1+++uA....g8+++KH....;
#X connect 26 0 15 0 32.................E....D1+++eA....g8+++SF....;
#X connect 27 0 15 0 32.................F....D1+++uA....g8+++aD....;
#X connect 28 0 15 0 32.................E....D1+++eA....g8+++iB....;
#X connect 29 0 15 0 32.................F....D1+++uA....g8+++q.....;
#X connect 30 0 31 0;
#X connect 31 0 15 0 32.................I.....E...PB....PA...PA....;
#X connect 32 0 30 0;
#X restore 127 94 pd scales;
#X msg 77 34 0 2 3 5 7 8 10 12;
#X msg 107 64 0 2 4 5 7 9 11 12;
#X obj 29 119 nbx 4 18 -1e+37 1e+37 0 0 empty empty empty 0 -8 0 10 #191919 #d4d4d4 #d4d4d4 0 256;
#X obj 29 154 * 100;
#X obj 29 274 nbx 4 18 -1e+37 1e+37 0 0 empty empty empty 0 -8 0 10 #191919 #d4d4d4 #d4d4d4 0 256;
#X obj 29 194 autotune2;
#N canvas 0 50 530 360 listp 0;
#X obj 338 99 v counter;
#X obj 368 129 + 1;
#X obj 399 309 array define -k;
#A resize 8;
#A 0 0 2 3 5 7 8 10 12;
#X msg 319 259 resize \$1;
#X obj 319 229 list length;
#X obj 133 269 array set;
#X obj 338 159 t f f;
#X obj 9 269 array get;
#X obj 9 9 loadbang;
#X obj 119 99 t b l l;
#X obj 9 39 t b b;
#X obj 161 229 t s s;
#X obj 119 9 inlet;
#X obj 9 329 outlet;
#X msg 399 229 rename amarr-\$1;
#X msg 161 199 symbol amarr-\$1;
#X obj 9 299 op * 100;
#X text 229 18 store and output the input list \, and output it on load;
#X obj 79 299 print scale;
#X connect 0 0 1 0 32.................E....3A...PA....d....n.....;
#X connect 0 0 6 0;
#X connect 1 0 0 0 48.................J....fB...fB....n....T7++++3++++E++++O9++++y++++;
#X connect 3 0 2 0;
#X connect 4 0 3 0;
#X connect 6 0 15 0;
#X connect 6 1 14 0;
#X connect 7 0 16 0;
#X connect 7 0 18 0;
#X connect 8 0 10 0;
#X connect 9 0 7 0;
#X connect 9 1 5 0;
#X connect 9 2 4 0;
#X connect 10 0 7 0;
#X connect 10 1 0 0 32.................M....DS...PC....wD...3A....;
#X connect 11 0 7 2;
#X connect 11 1 5 2;
#X connect 12 0 9 0;
#X connect 14 0 2 0;
#X connect 15 0 11 0;
#X connect 16 0 13 0;
#X restore 77 144 pd listp;
#X obj 119 279 nbx 4 18 -1e+37 1e+37 0 0 empty empty empty 0 -8 0 10 #191919 #d4d4d4 #d4d4d4 0 256;
#X obj 189 199 nbx 4 18 -1e+37 1e+37 0 0 empty empty empty 0 -8 0 10 #191919 #d4d4d4 #d4d4d4 0 256;
#X obj 119 239 | 3;
#X obj 39 409 array define full;
#X obj 39 379 array define sd;
#X obj 39 349 list store;
#X obj 439 449 nbx 4 18 -1e+37 1e+37 0 0 empty empty empty 0 -8 0 10 #191919 #d4d4d4 #d4d4d4 0 256;
#X obj 209 339 nbx 4 18 -1e+37 1e+37 0 0 empty empty empty 0 -8 0 10 #191919 #d4d4d4 #d4d4d4 0 256;
#X obj 439 409 mod 12;
#X obj 329 449 nbx 4 18 -1e+37 1e+37 0 0 empty empty empty 0 -8 0 10 #191919 #d4d4d4 #d4d4d4 0 256;
#X obj 209 379 moses 0;
#X obj 209 449 nbx 4 18 -1e+37 1e+37 0 0 empty empty empty 0 -8 0 10 #191919 #d4d4d4 #d4d4d4 0 256;
#X obj 209 419 expr int($f1/12-1);
#X obj 329 419 expr int($f1/12);
#N canvas 0 50 450 300 scale 0;
#X obj 119 79 struct scale float index float semi;
#X restore 39 439 pd scale;
#N canvas 0 50 640 500 quantize 0;
#X obj 29 129 inlet;
#X obj 43 381 -;
#X obj 29 409 +;
#X obj 29 167 t f b f;
#N canvas 1042 459 424 442 find-index 0;
#X obj 549 139 array get \$0-scale, f 9;
#X msg 541 263 1e+20;
#X obj 547 292 f;
#X obj 500 292 min;
#X obj 500 326 change;
#X obj 500 361 t f b;
#X obj 570 326 f;
#X obj 556 208 t f b;
#X obj 500 239 -;
#X obj 500 263 abs;
#X obj 469 89 t b f b;
#X msg 658 129 reset;
#X msg 437 258 set -1;
#X obj 556 181 else/iterate;
#X obj 658 244 else/count;
#X obj 571 388 nbx 4 18 -1e+37 1e+37 0 0 empty empty empty 0 -8 0 10 #191919 #d4d4d4 #d4d4d4 0 256;
#X obj 469 19 nbx 12 27 -1e+37 1e+37 0 0 empty empty empty 0 -8 0 10 #191919 #d4d4d4 #d4d4d4 0 256;
#X obj 469 59 * 100;
#X obj 99 36 inlet;
#X obj 95 380 outlet;
#X connect 0 0 13 0;
#X connect 1 0 3 1;
#X connect 2 0 3 1;
#X connect 3 0 4 0;
#X connect 4 0 5 0;
#X connect 5 0 2 0;
#X connect 5 1 6 0;
#X connect 6 0 15 0;
#X connect 7 0 8 0;
#X connect 7 1 14 0;
#X connect 8 0 9 0;
#X connect 9 0 3 0;
#X connect 10 0 0 0;
#X connect 10 1 8 1;
#X connect 10 2 11 0;
#X connect 10 2 1 0;
#X connect 10 2 12 0;
#X connect 11 0 14 0;
#X connect 12 0 4 0;
#X connect 13 0 7 0;
#X connect 14 0 6 1;
#X connect 16 0 17 0;
#X connect 17 0 10 0;
#X restore 81 270 pd find-index;
#X obj 289 9 inlet;
#X obj 29 439 outlet;
#X obj 383 80 v counter;
#X obj 413 110 + 1;
#X obj 444 280 array define -k;
#A resize 8;
#A 0 0 2 3 5 7 8 10 12;
#X msg 364 240 resize \$1;
#X obj 364 210 list length;
#X obj 290 240 array set;
#X obj 383 140 t f f;
#X obj 214 240 array get;
#X obj 214 10 loadbang;
#X obj 214 40 t b b;
#X msg 444 210 rename amarr-\$1;
#X msg 330 180 symbol amarr-\$1;
#X obj 214 279 print scale;
#X obj 43 312 f;
#X obj 119 209 array max;
#X obj 289 79 t b b l l;
#X obj 43 351 tabread;
#X msg 299 299 set \$1;
#X obj 66 240 wrap2 0 12;
#X connect 0 0 3 0;
#X connect 1 0 2 1;
#X connect 2 0 6 0;
#X connect 3 0 2 0;
#X connect 3 1 20 0;
#X connect 3 2 25 0;
#X connect 4 0 20 1;
#X connect 5 0 22 0;
#X connect 7 0 8 0 32.................E....3A...PA....d....n.....;
#X connect 7 0 13 0;
#X connect 8 0 7 0 48.................J....fB...fB....n....T7++++3++++E++++O9++++y++++;
#X connect 10 0 9 0;
#X connect 11 0 10 0;
#X connect 13 0 18 0;
#X connect 13 1 17 0;
#X connect 14 0 19 0;
#X connect 15 0 16 0;
#X connect 16 0 14 0;
#X connect 16 1 7 0 32.................J....nI...fB....ZB...PA....;
#X connect 17 0 9 0;
#X connect 18 0 21 2;
#X connect 18 0 14 2;
#X connect 18 0 12 2;
#X connect 18 0 24 0;
#X connect 20 0 23 0;
#X connect 21 0 25 2;
#X connect 22 0 21 0;
#X connect 22 1 14 0;
#X connect 22 2 12 0;
#X connect 22 3 11 0;
#X connect 23 0 1 0;
#X connect 24 0 23 0;
#X connect 25 0 1 1;
#X connect 25 0 4 0;
#X restore 299 279 pd quantize;
#X obj 279 29 list 0 0.0535714 0.107143 0.160714 0.214286 0.267857 0.321429 1.01786 1.07143 1.125 1.17857 1.23214 1.28571 1.33929 2.03571 2.08929 2.14286 2.19643 2.25 2.30357 3 3.05357 3.10714 3.16071 3.21429 3.26786 3.32143 4.01786 4.07143 4.125 4.17857 4.23214 4.28571 4.33929 5.03571 5.08929 5.14286 5.19643 5.25 5.30357 6 6.05357 6.10714 6.16071 6.21429 6.26786 6.32143 7.01786 7.07143 7.125 7.17857 7.23214 7.28571 7.33929 8.03571 8.08929 8.14286 8.19643 8.25 8.30357 9 9.05357 9.10714 9.16071 9.21429 9.26786 9.32143 10.0179 10.0714 10.125 10.1786 10.2321 10.2857 10.3393 11.0357 11.0893 11.1429 11.1964 11.25 11.3036 12;
#X obj 549 329 tabread test1;
#X obj 549 209 nbx 4 18 -1e+37 1e+37 0 1 empty empty empty 0 -8 0 10 #191919 #d4d4d4 #d4d4d4 4 256;
#X obj 549 359 nbx 18 34 -1e+37 1e+37 0 0 empty empty empty 0 -8 0 10 #191919 #d4d4d4 #d4d4d4 0 256;
#X obj 549 239 / 12;
#X obj 549 269 * 81;
#X obj 279 199 array define -k test1;
#A resize 81;
#A 0 0 0.0535714 0.107143 0.160714 0.214286 0.267857 0.321429 1.01786 1.07143 1.125 1.17857 1.23214 1.28571 1.33929 2.03571 2.08929 2.14286 2.19643 2.25 2.30357 3 3.05357 3.10714 3.16071 3.21429 3.26786 3.32143 4.01786 4.07143 4.125 4.17857 4.23214 4.28571 4.33929 5.03571 5.08929 5.14286 5.19643 5.25 5.30357 6 6.05357 6.10714 6.16071 6.21429 6.26786 6.32143 7.01786 7.07143 7.125 7.17857 7.23214 7.28571 7.33929 8.03571 8.08929 8.14286 8.19643 8.25 8.30357 9 9.05357 9.10714 9.16071 9.21429 9.26786 9.32143 10.0179 10.0714 10.125 10.1786 10.2321 10.2857 10.3393 11.0357 11.0893 11.1429 11.1964 11.25 11.3036 12;
#X obj 549 299 + 0.499;
#X obj 239 239 & 3;
#X obj 239 279 nbx 4 18 -1e+37 1e+37 0 0 empty empty empty 0 -8 0 10 #191919 #d4d4d4 #d4d4d4 0 256;
#X obj 179 279 nbx 4 18 -1e+37 1e+37 0 0 empty empty empty 0 -8 0 10 #191919 #d4d4d4 #d4d4d4 0 256;
#X obj 179 239 mod 4;
#X text 439 298 loop it instead;
#X connect 0 0 6 0;
#X connect 1 0 8 0;
#X connect 2 0 8 0;
#X connect 3 0 8 0;
#X connect 4 0 5 0;
#X connect 5 0 7 0;
#X connect 7 0 0 0;
#X connect 8 0 7 1;
#X connect 10 0 11 0;
#X connect 10 0 33 0;
#X connect 10 0 36 0;
#X connect 11 0 9 0;
#X connect 16 0 17 0;
#X connect 16 0 19 0;
#X connect 17 0 15 0;
#X connect 19 0 21 0;
#X connect 19 1 22 0;
#X connect 21 0 20 0;
#X connect 22 0 18 0;
#X connect 26 0 28 0;
#X connect 27 0 29 0;
#X connect 29 0 30 0;
#X connect 30 0 32 0;
#X connect 32 0 26 0;
#X connect 33 0 34 0;
#X connect 36 0 35 0;
