#N canvas 827 239 527 327 12;
#N canvas 0 50 450 250 (subpatch) 0;
#X text 0 0 plugdatainfo <?xml version="1.0" encoding="UTF-8"?> <plugdatainfo/>;
#X coords 0 1 100 -1 1 1 1;
#X restore 0 0 graph;
#X obj 109 262 autotune2;
#X obj 158 214 op * 100;
#X obj 109 386 nbx 14 47 -1e+37 1e+37 0 0 empty empty empty 0 -8 0 10 #191919 #ffffff #ffffff 0 256;
#X obj 109 65 nbx 14 47 -1e+37 1e+37 0 0 empty empty empty 0 -8 0 10 #191919 #ffffff #ffffff 0 256;
#X obj 109 183 * 100;
#X obj 109 321 / 100;
#X msg 158 153 0 1 2 3 4 5 6 7 8 9 10 11, f 22;
#X text 285 80 -0.004 for example (we seem to have init issues again), f 44;
#X connect 1 0 6 0;
#X connect 2 0 1 1;
#X connect 4 0 5 0;
#X connect 5 0 1 0;
#X connect 6 0 3 0;
#X connect 7 0 2 0;
