#N canvas 827 239 527 327 12;
#X obj 29 292 autotune2;
#X obj 77 247 op * 100;
#X obj 29 416 nbx 25 44 -1e+37 1e+37 0 0 empty empty empty 0 -8 0 10 #191919 #ffffff #ffffff 0 256;
#X obj 29 148 nbx 14 47 -1e+37 1e+37 0 0 empty empty empty 0 -8 0 10 #191919 #ffffff #ffffff 0 256;
#X obj 29 213 * 100;
#X obj 29 351 / 100;
#X msg 77 213 0 1 2 3 4 5 6 7 8 9 10 11, f 22;
#X obj 538 158 op * 100;
#X obj 311 552 nbx 26 45 -1e+37 1e+37 0 0 empty empty empty 0 -8 0 10 #191919 #ffffff #ffffff 0 256;
#X obj 311 121 nbx 14 47 -1e+37 1e+37 0 0 empty empty empty 0 -8 0 10 #191919 #ffffff #ffffff 0 256;
#X obj 311 177 * 100;
#X obj 311 522 / 100;
#X msg 538 114 0 1 2 3 4 5 6 7 8 9 10 11, f 22;
#X obj 538 198 t b l l;
#X obj 567 237 list length;
#X obj 373 375 v i_\$0;
#X obj 373 446 -;
#X obj 355 486 +;
#X obj 355 319 t f b f;
#N canvas 1042 459 424 442 find-index 1;
#X obj 200 29 inlet;
#X msg 327 219 1e+20;
#X obj 316 388 min;
#X obj 393 423 change;
#X obj 393 462 t f b;
#X obj 405 505 f;
#X obj 200 241 t f b;
#X obj 405 541 v i_\$0;
#X obj 291 307 -;
#X obj 291 338 abs;
#X obj 200 71 t b f b;
#X msg 458 219 reset;
#X msg 393 219 set -1;
#X obj 200 208 iterate;
#X obj 458 304 count;
#X obj 200 171 array get scale, f 14;
#X connect 0 0 10 0 empty;
#X connect 1 0 2 1 empty;
#X connect 2 0 3 0 32.................H....zD....B....MA...7.....;
#X connect 3 0 4 0 empty;
#X connect 4 0 2 1 48.................K.....9++++B....f++++W4++++u++++U9++++6++++n++++;
#X connect 4 1 5 0 empty;
#X connect 5 0 7 0 empty;
#X connect 6 0 8 0 32.................b....rE....G....aA...vD....;
#X connect 6 1 14 0 32.................N....PV...fC....jE...LG....;
#X connect 8 0 9 0 empty;
#X connect 9 0 2 0 32.................k....jF...PI....oA...zB....;
#X connect 10 0 15 0 empty;
#X connect 10 1 8 1 32.................IA...zC...PR....8....7L....;
#X connect 10 2 11 0 32.................V....LU...fE....SE...HD....;
#X connect 10 2 1 0 32.................v....HK....L....xB....H....;
#X connect 10 2 12 0 32.................g....PO...PH....zC...HD....;
#X connect 11 0 14 0 empty;
#X connect 12 0 3 0 empty;
#X connect 13 0 6 0 empty;
#X connect 14 0 5 1 32.................9B...j6+++uu....49++++L....;
#X connect 15 0 13 0 empty;
#X restore 470 456 pd find-index;
#X obj 311 206 route float bypass;
#X obj 355 246 == 0;
#X obj 311 279 router 2 1;
#X obj 470 372 wrap2 0 1200;
#X obj 567 270 array size scale;
#X obj 571 372 array define scale;
#X obj 538 336 array max scale;
#X obj 553 302 array set scale;
#X obj 373 411 tabread scale;
#X obj 29 44 loadbang;
#X obj 29 74 t b b;
#X msg 29 114 -0.3;
#X obj 311 33 loadbang;
#X obj 311 58 t b b;
#X msg 311 91 -0.3;
#X connect 0 0 5 0 empty;
#X connect 1 0 0 1 empty;
#X connect 3 0 4 0 empty;
#X connect 4 0 0 0 empty;
#X connect 5 0 2 0 empty;
#X connect 6 0 1 0 empty;
#X connect 7 0 13 0 empty;
#X connect 9 0 10 0 empty;
#X connect 10 0 20 0 empty;
#X connect 11 0 8 0 empty;
#X connect 12 0 7 0 empty;
#X connect 13 0 26 0 empty;
#X connect 13 1 27 0 empty;
#X connect 13 2 14 0 empty;
#X connect 14 0 24 0 empty;
#X connect 15 0 28 0 empty;
#X connect 16 0 17 1 32.................J....n++++uB....5++++SA....;
#X connect 17 0 11 0 32.................H....T8+++OB....U++++CA....;
#X connect 18 0 17 0 32.................iA........vX.........TL....;
#X connect 18 1 15 0 32.................R....P....fD....D....PB....;
#X connect 18 2 23 0 32.................X....fH....F....HB...7C....;
#X connect 20 0 22 0 empty;
#X connect 20 1 21 0 32.................J....3++++uB....9++++SA....;
#X connect 21 0 22 1 empty;
#X connect 22 0 11 0 empty;
#X connect 22 1 18 0 empty;
#X connect 23 0 19 0 empty;
#X connect 23 0 16 1 32.................u....r5++++K....q9+++iF....;
#X connect 26 0 23 2 empty;
#X connect 28 0 16 0 empty;
#X connect 29 0 30 0 empty;
#X connect 30 0 31 0 empty;
#X connect 30 1 6 0 32.................M....DB...PC....g....bG....;
#X connect 31 0 3 0 empty;
#X connect 32 0 33 0 empty;
#X connect 33 0 34 0 empty;
#X connect 33 1 12 0 32.................F....XP...fA....FD...HD....;
#X connect 34 0 9 0 empty;
