#N canvas 827 239 739 529 12;
#X obj 29 234 / 100;
#N canvas 0 50 450 471 scales 0;
#X text 239 18 hexatonic blues;
#X text 269 48 9-tone blues;
#X text 249 78 harmonic minor;
#X text 249 108 melodic minor;
#X text 249 138 ukrainian dorian;
#X text 249 168 aeolian;
#X text 249 198 dorian;
#X text 249 228 ionian;
#X text 249 258 locrian;
#X text 249 288 lydian;
#X text 249 318 mixolydian;
#X text 249 348 phrygian;
#X text 239 378 whole tone;
#X text 299 408 chromatic;
#X obj 19 9 inlet;
#X obj 109 439 outlet;
#X msg 129 19 0 3 5 6 7 10 12;
#X msg 129 49 0 2 3 4 5 6 7 9 10 12;
#X msg 129 79 0 2 3 5 7 8 11 12;
#X msg 129 109 0 2 3 5 7 9 11 12;
#X msg 129 139 0 2 3 6 7 9 11 12;
#X msg 129 169 0 2 3 5 7 8 10 12;
#X msg 129 199 0 2 3 5 7 9 10 12;
#X msg 129 229 0 2 4 5 7 9 11 12;
#X msg 129 259 0 1 3 5 6 8 10 12;
#X msg 129 289 0 2 4 6 7 9 11 12;
#X msg 129 319 0 2 4 5 7 9 10 12;
#X msg 129 349 0 1 3 5 7 8 10 12;
#X msg 129 379 0 2 4 6 8 10 12;
#X msg 129 409 0 1 2 3 4 5 6 7 8 9 10 11 12;
#X obj 19 339 scala;
#X obj 19 379 op / 100;
#X obj 19 299 bng 25 250 50 0 empty empty empty 17 7 0 10 #191919 #d4d4d4 #d4d4d4;
#X text 19 268 scala files;
#X connect 16 0 15 0 32.................F....D1+++uA....g8+++CY....;
#X connect 17 0 15 0 32.................F....D1+++uA....g8+++KW....;
#X connect 18 0 15 0 32.................F....D1+++uA....g8+++SU....;
#X connect 19 0 15 0 32.................G....D1++++A....g8+++aS....;
#X connect 20 0 15 0 32.................D....D1+++OA....g8+++iQ....;
#X connect 21 0 15 0 32.................F....D1+++uA....g8+++qO....;
#X connect 22 0 15 0 32.................E....D1+++eA....g8+++yM....;
#X connect 23 0 15 0 32.................E....D1+++eA....g8+++6K....;
#X connect 24 0 15 0 32.................F....D1+++uA....g8+++CJ....;
#X connect 25 0 15 0 32.................F....D1+++uA....g8+++KH....;
#X connect 26 0 15 0 32.................E....D1+++eA....g8+++SF....;
#X connect 27 0 15 0 32.................F....D1+++uA....g8+++aD....;
#X connect 28 0 15 0 32.................E....D1+++eA....g8+++iB....;
#X connect 29 0 15 0 32.................F....D1+++uA....g8+++q.....;
#X connect 30 0 31 0;
#X connect 31 0 15 0 32.................I.....E...PB....PA...PA....;
#X connect 32 0 30 0;
#X restore 127 94 pd scales;
#X msg 77 34 0 2 3 5 7 8 10 12;
#X msg 107 64 0 2 4 5 7 9 11 12;
#X obj 29 119 nbx 4 18 -1e+37 1e+37 0 0 empty empty empty 0 -8 0 10 #191919 #d4d4d4 #d4d4d4 0 256;
#X obj 29 154 * 100;
#X obj 29 274 nbx 4 18 -1e+37 1e+37 0 0 empty empty empty 0 -8 0 10 #191919 #d4d4d4 #d4d4d4 0 256;
#X obj 29 194 autotune2;
#N canvas 0 50 530 360 listp 0;
#X obj 338 99 v counter;
#X obj 368 129 + 1;
#X obj 399 309 array define -k;
#A resize 8;
#A 0 0 2 3 5 7 8 10 12;
#X msg 319 259 resize \$1;
#X obj 319 229 list length;
#X obj 133 269 array set;
#X obj 338 159 t f f;
#X obj 9 269 array get;
#X obj 9 9 loadbang;
#X obj 119 99 t b l l;
#X obj 9 39 t b b;
#X obj 161 229 t s s;
#X obj 119 9 inlet;
#X obj 9 329 outlet;
#X msg 399 229 rename amarr-\$1;
#X msg 161 199 symbol amarr-\$1;
#X obj 9 299 op * 100;
#X text 229 18 store and output the input list \, and output it on load;
#X obj 79 299 print scale;
#X connect 0 0 1 0 32.................E....3A...PA....d....n.....;
#X connect 0 0 6 0;
#X connect 1 0 0 0 48.................J....fB...fB....n....T7++++3++++E++++O9++++y++++;
#X connect 3 0 2 0;
#X connect 4 0 3 0;
#X connect 6 0 15 0;
#X connect 6 1 14 0;
#X connect 7 0 16 0;
#X connect 7 0 18 0;
#X connect 8 0 10 0;
#X connect 9 0 7 0;
#X connect 9 1 5 0;
#X connect 9 2 4 0;
#X connect 10 0 7 0;
#X connect 10 1 0 0 32.................M....DS...PC....wD...3A....;
#X connect 11 0 7 2;
#X connect 11 1 5 2;
#X connect 12 0 9 0;
#X connect 14 0 2 0;
#X connect 15 0 11 0;
#X connect 16 0 13 0;
#X restore 77 144 pd listp;
#X obj 119 279 nbx 4 18 -1e+37 1e+37 0 0 empty empty empty 0 -8 0 10 #191919 #d4d4d4 #d4d4d4 0 256;
#X obj 189 199 nbx 4 18 -1e+37 1e+37 0 0 empty empty empty 0 -8 0 10 #191919 #d4d4d4 #d4d4d4 0 256;
#X obj 119 239 | 3;
#X obj 439 449 nbx 4 18 -1e+37 1e+37 0 0 empty empty empty 0 -8 0 10 #191919 #d4d4d4 #d4d4d4 0 256;
#X obj 209 339 nbx 4 18 -1e+37 1e+37 0 0 empty empty empty 0 -8 0 10 #191919 #d4d4d4 #d4d4d4 0 256;
#X obj 439 409 mod 12;
#X obj 329 449 nbx 4 18 -1e+37 1e+37 0 0 empty empty empty 0 -8 0 10 #191919 #d4d4d4 #d4d4d4 0 256;
#X obj 209 379 moses 0;
#X obj 209 449 nbx 4 18 -1e+37 1e+37 0 0 empty empty empty 0 -8 0 10 #191919 #d4d4d4 #d4d4d4 0 256;
#X obj 209 419 expr int($f1/12-1);
#X obj 329 419 expr int($f1/12);
#N canvas 0 50 640 500 quantize 0;
#X obj 29 129 inlet;
#X obj 49 339 -;
#X obj 29 389 +;
#X obj 102 109 inlet;
#X obj 29 419 outlet;
#X obj 519 89 v counter;
#X obj 549 119 + 1;
#X obj 519 349 array define -k;
#A resize 12;
#A 0 0 1 2 3 4 5 6 7 8 9 10 12;
#X msg 439 309 resize \$1;
#X obj 439 279 list length;
#X obj 369 279 array set;
#X obj 519 49 loadbang;
#X msg 519 159 symbol amarr-\$1;
#X obj 102 189 array max;
#X obj 49 219 wrap2 0 12;
#X obj 49 259 t f f;
#X obj 29 167 t f f;
#N canvas 1042 459 424 442 find-quantized 0;
#X obj 89 16 inlet;
#X obj 89 399 outlet;
#X obj 299 19 inlet;
#X obj 199 189 tabread;
#X msg 299 149 set \$1;
#X obj 89 369 f;
#X obj 119 229 -;
#X obj 199 89 array size;
#X obj 249 149 + 1;
#X obj 199 149 f;
#X obj 199 119 until;
#X obj 119 259 abs;
#X obj 119 299 min;
#X obj 119 329 change;
#X msg 169 259 1e+20;
#X obj 89 49 t b b f b;
#X msg 169 119 0;
#X obj 331 222 print;
#X obj 189 39 nbx 4 18 -1e+37 1e+37 0 0 empty empty empty 0 -8 0 10 #191919 #d4d4d4 #d4d4d4 0 256;
#X connect 0 0 15 0;
#X connect 2 0 4 0;
#X connect 2 0 7 1;
#X connect 3 0 6 0;
#X connect 3 0 17 0;
#X connect 4 0 3 0;
#X connect 5 0 1 0;
#X connect 6 0 11 0;
#X connect 7 0 10 0;
#X connect 8 0 9 1;
#X connect 9 0 8 0;
#X connect 9 0 3 0;
#X connect 10 0 9 0;
#X connect 11 0 12 0;
#X connect 12 0 13 0;
#X connect 13 0 5 1;
#X connect 13 0 12 1 48.................F....DC...fA....w....j7++++B....I++++u....vy++++;
#X connect 14 0 12 1;
#X connect 15 0 5 0;
#X connect 15 1 7 0;
#X connect 15 2 6 1;
#X connect 15 3 14 0;
#X connect 15 3 16 0;
#X connect 16 0 9 1;
#X connect 18 0 15 0;
#X restore 49 299 pd find-quantized;
#X obj 102 139 t b l l;
#X msg 519 309 rename \$1;
#X connect 0 0 16 0;
#X connect 1 0 2 1;
#X connect 2 0 4 0;
#X connect 3 0 18 0;
#X connect 5 0 6 0 32.................E....3A...PA....d....n.....;
#X connect 5 0 12 0;
#X connect 6 0 5 0 48.................J....fB...fB....n....T7++++3++++E++++O9++++y++++;
#X connect 8 0 7 0;
#X connect 9 0 8 0;
#X connect 11 0 5 0;
#X connect 12 0 13 2;
#X connect 12 0 10 2;
#X connect 12 0 17 1;
#X connect 12 0 19 0;
#X connect 13 0 14 2;
#X connect 14 0 15 0;
#X connect 15 0 17 0;
#X connect 15 1 1 1;
#X connect 16 0 2 0;
#X connect 16 1 14 0;
#X connect 17 0 1 0;
#X connect 18 0 13 0;
#X connect 18 1 10 0;
#X connect 18 2 9 0;
#X connect 19 0 7 0;
#X restore 239 69 pd quantize;
#X obj 759 559 list 0 0.0535714 0.107143 0.160714 0.214286 0.267857 0.321429 1.01786 1.07143 1.125 1.17857 1.23214 1.28571 1.33929 2.03571 2.08929 2.14286 2.19643 2.25 2.30357 3 3.05357 3.10714 3.16071 3.21429 3.26786 3.32143 4.01786 4.07143 4.125 4.17857 4.23214 4.28571 4.33929 5.03571 5.08929 5.14286 5.19643 5.25 5.30357 6 6.05357 6.10714 6.16071 6.21429 6.26786 6.32143 7.01786 7.07143 7.125 7.17857 7.23214 7.28571 7.33929 8.03571 8.08929 8.14286 8.19643 8.25 8.30357 9 9.05357 9.10714 9.16071 9.21429 9.26786 9.32143 10.0179 10.0714 10.125 10.1786 10.2321 10.2857 10.3393 11.0357 11.0893 11.1429 11.1964 11.25 11.3036 12;
#X obj 919 849 tabread test1;
#X obj 919 729 nbx 4 18 -1e+37 1e+37 0 1 empty empty empty 0 -8 0 10 #191919 #d4d4d4 #d4d4d4 4 256;
#X obj 919 879 nbx 18 34 -1e+37 1e+37 0 0 empty empty empty 0 -8 0 10 #191919 #d4d4d4 #d4d4d4 0 256;
#X obj 919 759 / 12;
#X obj 919 789 * 81;
#X obj 759 729 array define -k test1;
#A resize 81;
#A 0 0 0.0535714 0.107143 0.160714 0.214286 0.267857 0.321429 1.01786 1.07143 1.125 1.17857 1.23214 1.28571 1.33929 2.03571 2.08929 2.14286 2.19643 2.25 2.30357 3 3.05357 3.10714 3.16071 3.21429 3.26786 3.32143 4.01786 4.07143 4.125 4.17857 4.23214 4.28571 4.33929 5.03571 5.08929 5.14286 5.19643 5.25 5.30357 6 6.05357 6.10714 6.16071 6.21429 6.26786 6.32143 7.01786 7.07143 7.125 7.17857 7.23214 7.28571 7.33929 8.03571 8.08929 8.14286 8.19643 8.25 8.30357 9 9.05357 9.10714 9.16071 9.21429 9.26786 9.32143 10.0179 10.0714 10.125 10.1786 10.2321 10.2857 10.3393 11.0357 11.0893 11.1429 11.1964 11.25 11.3036 12;
#X obj 919 819 + 0.499;
#X obj 239 239 & 3;
#X obj 239 279 nbx 4 18 -1e+37 1e+37 0 0 empty empty empty 0 -8 0 10 #191919 #d4d4d4 #d4d4d4 0 256;
#X obj 179 279 nbx 4 18 -1e+37 1e+37 0 0 empty empty empty 0 -8 0 10 #191919 #d4d4d4 #d4d4d4 0 256;
#X obj 179 239 mod 4;
#X msg 299 39 0 1 2 3 4 5 6 7 8 9 10 12;
#X obj 239 39 nbx 4 21 -1e+37 1e+37 0 0 empty empty empty 0 -8 0 10 #191919 #d4d4d4 #d4d4d4 0 256;
#X obj 239 99 nbx 4 21 -1e+37 1e+37 0 0 empty empty empty 0 -8 0 10 #191919 #d4d4d4 #d4d4d4 0 256;
#X obj 39 689 wrap2 0 12;
#X obj 39 549 nbx 8 21 -1e+37 1e+37 0 0 empty empty empty 0 -8 0 10 #191919 #d4d4d4 #d4d4d4 0 256;
#X obj 39 789 nbx 20 41 -1e+37 1e+37 0 0 empty empty empty 0 -8 0 10 #191919 #d4d4d4 #d4d4d4 0 256;
#X obj 409 619 nbx 4 18 -1e+37 1e+37 0 0 empty empty empty 0 -8 0 10 #191919 #d4d4d4 #d4d4d4 0 256;
#X obj 249 789 nbx 24 41 -1e+37 1e+37 0 0 empty empty empty 0 -8 0 10 #191919 #d4d4d4 #d4d4d4 0 256;
#X obj 219 629 moses 0;
#X obj 259 689 expr $f1 - (int($f1 / $f2)*$f2);
#X obj 279 549 expr fmod($f1 \, $f2) + $f2;
#X obj 156 548 nbx 4 18 -1e+37 1e+37 0 0 empty empty empty 0 -8 0 10 #191919 #d4d4d4 #d4d4d4 0 256;
#X obj 219 659 expr fmod(fmod($f1 \, $f2) + $f2 \, $f2);
#X obj 479 679 expr fmod(fmod($f1 \, -$f2) + $f2 \, $f2);
#X obj 628 602 nbx 4 18 -1e+37 1e+37 0 0 empty empty empty 0 -8 0 10 #191919 #d4d4d4 #d4d4d4 0 256;
#X obj 489 789 nbx 17 45 -1e+37 1e+37 0 0 empty empty empty 0 -8 0 10 #191919 #d4d4d4 #d4d4d4 0 256;
#X obj 219 1079 expr fmod(fmod($f1 \, -$f2) + $f2 \, $f2);
#X obj 368 942 nbx 4 18 -1e+37 1e+37 0 0 empty empty empty 0 -8 0 10 #191919 #d4d4d4 #d4d4d4 0 256;
#X obj 9 1079 wrap2 0 12;
#X obj 9 949 nbx 8 21 -1e+37 1e+37 0 0 empty empty empty 0 -8 0 10 #191919 #d4d4d4 #d4d4d4 0 256;
#X obj 9 1129 nbx 20 41 -1e+37 1e+37 0 0 empty empty empty 0 -8 0 10 #191919 #d4d4d4 #d4d4d4 0 256;
#X obj 219 1129 nbx 20 41 -1e+37 1e+37 0 0 empty empty empty 0 -8 0 10 #191919 #d4d4d4 #d4d4d4 0 256;
#X text 469 1078 <- can you simplify this?;
#X obj 218 939 list store;
#X obj 279 1404 list tosymbol;
#X obj 279 1564 print;
#X obj 279 1374 fudiformat;
#X obj 279 1474 list fromsymbol;
#X msg 279 1344 0 1 2 3 4 5 6 7 8 9 10 11 12;
#X obj 279 1504 fudiparse;
#X msg 99 1434 symbol list\\\ 0\\\ 1\\\ 2\\\ 3\\\ 4\\\ 5\\\ 6\\\ 7\\\ 8\\\ 9\\\ 10\\\ 11\\\ 12\\\;;
#X obj 99 1344 bng 25 250 50 0 empty empty empty 17 7 0 10 #191919 #d4d4d4 #d4d4d4;
#X msg 129 1394 set symbol \$1;
#X text 169 1298 store list (no array);
#N canvas 0 50 802 500 quantize 1;
#X obj 209 19 inlet;
#X obj 289 399 -;
#X obj 269 439 +;
#X obj 497 31 inlet;
#X obj 269 469 outlet;
#X obj 627 121 loadbang;
#X obj 289 319 t f f;
#X obj 269 197 t f f;
#X obj 497 91 list tosymbol;
#X obj 497 61 fudiformat;
#X obj 497 201 list fromsymbol;
#X obj 497 231 fudiparse;
#X msg 517 171 symbol list\\\ 0\\\ 1\\\ 2\\\ 3\\\ 4\\\ 5\\\ 6\\\ 7\\\ 8\\\ 9\\\ 10\\\ 12\\\;;
#X msg 517 121 set symbol \$1;
#N canvas 1042 459 424 460 find-nearest 0;
#X obj 49 16 inlet;
#X obj 49 429 outlet;
#X obj 159 19 inlet;
#X obj 49 399 f;
#X obj 269 199 -;
#X obj 269 229 abs;
#X obj 269 269 min;
#X obj 269 299 change;
#X obj 49 49 t b b f b;
#X obj 89 179 until;
#X obj 129 289 list store;
#X obj 89 218 f;
#X obj 139 219 + 1;
#X msg 149 179 0;
#X msg 89 249 get \$1;
#X obj 119 139 t b l b;
#X obj 119 109 list store;
#X obj 339 299 t b f;
#X obj 129 359 f;
#X msg 209 269 set -1;
#X obj 129 319 t f f;
#X msg 309 229 1e+16;
#X connect 0 0 8 0;
#X connect 2 0 16 1;
#X connect 3 0 1 0;
#X connect 4 0 5 0;
#X connect 5 0 6 0;
#X connect 6 0 7 0;
#X connect 7 0 17 0;
#X connect 8 0 3 0;
#X connect 8 1 16 0 32.................e....LG...vG....yA...fB....;
#X connect 8 2 4 1 32.................S....fQ...vD....XD...HH....;
#X connect 8 3 21 0 32.................H....TR....B....kD....J....;
#X connect 9 0 11 0;
#X connect 10 0 20 0;
#X connect 10 1 9 1;
#X connect 11 0 14 0;
#X connect 11 0 12 0;
#X connect 12 0 11 1;
#X connect 13 0 11 1;
#X connect 14 0 10 0;
#X connect 15 0 9 0;
#X connect 15 1 10 1;
#X connect 15 2 13 0;
#X connect 15 2 19 0;
#X connect 16 0 15 0;
#X connect 17 0 18 0;
#X connect 17 1 6 1;
#X connect 18 0 3 1;
#X connect 19 0 7 0;
#X connect 20 0 4 0;
#X connect 20 1 18 1;
#X connect 21 0 6 1;
#X restore 289 359 pd find-nearest;
#N canvas 0 50 325 375 list-max 0;
#X obj 239 339 outlet;
#X obj 79 19 inlet;
#X obj 59 109 until;
#X obj 119 259 list store;
#X obj 29 168 f;
#X obj 79 169 + 1;
#X msg 199 109 0;
#X msg 29 219 get \$1;
#X obj 189 299 max;
#X obj 239 299 f;
#X obj 79 59 t b l b;
#X connect 1 0 10 0;
#X connect 2 0 4 0;
#X connect 3 0 8 0;
#X connect 3 1 2 1;
#X connect 4 0 7 0;
#X connect 4 0 5 0;
#X connect 5 0 4 1;
#X connect 6 0 4 1;
#X connect 6 0 8 1;
#X connect 7 0 3 0;
#X connect 8 0 9 0;
#X connect 9 0 0 0;
#X connect 9 0 8 1;
#X connect 10 0 2 0;
#X connect 10 1 3 1;
#X connect 10 2 6 0;
#X restore 497 261 pd list-max;
#X obj 9 199 nbx 4 18 -1e+37 1e+37 0 0 empty empty empty 0 -8 0 10 #191919 #d4d4d4 #d4d4d4 0 256;
#X obj 269 159 spigot;
#X obj 9 159 spigot;
#X obj 209 49 route index;
#X text 637 60 store the list;
#X text 329 158 quantize to nearest;
#X text 69 158 quantize by index;
#X obj 209 79 tgl 25 1 empty empty empty 17 7 0 10 #191919 #d4d4d4 #d4d4d4 1 1;
#X obj 294 131 == 0;
#X obj 129 469 list store;
#X obj 159 259 list length;
#X msg 129 439 get \$1;
#X obj 129 499 nbx 4 18 -1e+37 1e+37 0 0 empty empty empty 0 -8 0 10 #191919 #d4d4d4 #d4d4d4 0 256;
#X obj 159 319 nbx 4 18 -1e+37 1e+37 0 0 empty empty empty 0 -8 0 10 #191919 #d4d4d4 #d4d4d4 0 256;
#X obj 289 259 wrap;
#X obj 289 289 * 12;
#X obj 289 229 / 12;
#X obj 129 379 wrap;
#X obj 129 409 * 12;
#X obj 129 349 / 12;
#X obj 5 548 +;
#X obj 2 592 nbx 4 18 -1e+37 1e+37 0 0 empty empty empty 0 -8 0 10 #191919 #d4d4d4 #d4d4d4 0 256;
#X obj 159 289 - 1;
#X obj 29 379 wrap;
#X obj 29 409 * 12;
#X obj 29 349 / 12;
#X obj 9 239 t f f f;
#X obj 9 479 -;
#X obj 34 442 nbx 4 18 -1e+37 1e+37 0 0 empty empty empty 0 -8 0 10 #191919 #d4d4d4 #d4d4d4 0 256;
#X connect 0 0 19 0;
#X connect 1 0 2 1;
#X connect 2 0 4 0;
#X connect 3 0 9 0;
#X connect 5 0 12 0;
#X connect 6 0 14 0;
#X connect 6 1 1 1;
#X connect 7 0 2 0;
#X connect 7 1 32 0;
#X connect 8 0 13 0;
#X connect 8 0 10 0;
#X connect 9 0 8 0;
#X connect 10 0 11 0;
#X connect 11 0 14 1;
#X connect 11 0 15 0;
#X connect 11 0 25 1;
#X connect 11 0 26 0;
#X connect 12 0 10 0;
#X connect 13 0 12 0;
#X connect 14 0 1 0;
#X connect 15 0 32 1;
#X connect 15 0 31 1;
#X connect 15 0 41 1;
#X connect 15 0 40 1;
#X connect 16 0 42 0;
#X connect 17 0 7 0;
#X connect 18 0 16 0;
#X connect 19 0 23 0;
#X connect 19 1 18 0;
#X connect 19 1 17 0;
#X connect 23 0 24 0;
#X connect 23 0 18 1;
#X connect 24 0 17 1;
#X connect 25 0 28 0;
#X connect 26 0 38 0;
#X connect 27 0 25 0;
#X connect 28 0 36 1;
#X connect 29 0 34 1;
#X connect 29 0 35 1;
#X connect 30 0 31 0;
#X connect 31 0 6 0;
#X connect 32 0 30 0;
#X connect 33 0 34 0;
#X connect 34 0 27 0;
#X connect 35 0 33 0;
#X connect 36 0 37 0;
#X connect 38 0 29 0;
#X connect 39 0 40 0;
#X connect 40 0 44 0;
#X connect 41 0 39 0;
#X connect 42 0 43 0;
#X connect 42 1 41 0;
#X connect 42 2 35 0;
#X connect 43 0 36 0;
#X connect 44 0 43 1;
#X restore 429 209 pd quantize;
#X msg 489 179 0 1 2 3 4 5 6 7 8 9 10 12;
#X obj 429 179 nbx 4 21 -1e+37 1e+37 0 0 empty empty empty 0 -8 0 10 #191919 #d4d4d4 #d4d4d4 0 256;
#X obj 429 239 nbx 19 31 -1e+37 1e+37 0 0 empty empty empty 0 -8 0 10 #191919 #d4d4d4 #d4d4d4 0 256;
#X connect 0 0 6 0;
#X connect 1 0 8 0;
#X connect 2 0 8 0;
#X connect 3 0 8 0;
#X connect 4 0 5 0;
#X connect 5 0 7 0;
#X connect 7 0 0 0;
#X connect 8 0 7 1;
#X connect 10 0 11 0;
#X connect 10 0 29 0;
#X connect 10 0 32 0;
#X connect 11 0 9 0;
#X connect 13 0 14 0;
#X connect 13 0 16 0;
#X connect 14 0 12 0;
#X connect 16 0 18 0;
#X connect 16 1 19 0;
#X connect 18 0 17 0;
#X connect 19 0 15 0;
#X connect 20 0 35 0;
#X connect 22 0 24 0;
#X connect 23 0 25 0;
#X connect 25 0 26 0;
#X connect 26 0 28 0;
#X connect 28 0 22 0;
#X connect 29 0 30 0;
#X connect 32 0 31 0;
#X connect 33 0 20 1;
#X connect 34 0 20 0;
#X connect 36 0 38 0;
#X connect 37 0 36 0;
#X connect 37 0 41 0;
#X connect 37 0 46 0;
#X connect 39 0 42 1;
#X connect 39 0 45 1;
#X connect 41 0 45 0;
#X connect 41 1 42 0;
#X connect 42 0 40 0;
#X connect 44 0 36 0;
#X connect 44 0 41 0;
#X connect 44 0 46 0;
#X connect 45 0 40 0;
#X connect 46 0 48 0;
#X connect 47 0 46 1;
#X connect 49 0 54 0;
#X connect 50 0 49 1;
#X connect 50 0 51 2;
#X connect 51 0 53 0;
#X connect 52 0 51 0;
#X connect 52 0 49 0;
#X connect 57 0 65 0;
#X connect 57 0 60 0;
#X connect 59 0 57 0;
#X connect 60 0 62 0;
#X connect 61 0 59 0;
#X connect 62 0 58 0;
#X connect 63 0 60 0;
#X connect 64 0 63 0;
#X connect 65 0 63 0;
#X connect 67 0 70 0;
#X connect 68 0 67 1;
#X connect 69 0 67 0;
