#N canvas 827 239 527 327 12;
#X obj 109 262 autotune2;
#X obj 158 214 op * 100;
#X obj 109 386 nbx 25 44 -1e+37 1e+37 0 0 empty empty empty 0 -8 0 10 #191919 #ffffff #ffffff 0 256;
#X obj 109 65 nbx 14 47 -1e+37 1e+37 0 1 empty empty empty 0 -8 0 10 #191919 #ffffff #ffffff -0.006 256;
#X obj 109 183 * 100;
#X obj 109 321 / 100;
#X msg 158 153 0 1 2 3 4 5 6 7 8 9 10 11, f 22;
#X obj 638 122 op * 100;
#X obj 361 556 nbx 26 45 -1e+37 1e+37 0 0 empty empty empty 0 -8 0 10 #191919 #ffffff #ffffff 0 256;
#X obj 361 46 nbx 14 47 -1e+37 1e+37 0 1 empty empty empty 0 -8 0 10 #191919 #ffffff #ffffff -0.3 256;
#X obj 361 110 * 100;
#X obj 361 522 / 100;
#X msg 638 77 0 1 2 3 4 5 6 7 8 9 10 11, f 22;
#X obj 683 352 array define \$0-scale;
#X obj 638 316 array max \$0-scale;
#X obj 638 163 t b l l;
#X obj 653 278 array set \$0-scale;
#X obj 668 204 list length;
#X obj 668 241 array size \$0-scale;
#X obj 423 325 v i_\$0;
#X obj 423 361 tabread \$0-scale;
#X obj 423 446 -;
#X obj 405 486 +;
#X obj 405 269 t f b f;
#N canvas 1042 459 424 442 find-index 1;
#X obj 135 35 inlet;
#X obj 196 134 array get \$0-scale, f 9;
#X msg 181 263 1e+20;
#X obj 187 292 f;
#X obj 140 292 min;
#X obj 140 326 change;
#X obj 140 361 t f b;
#X obj 210 326 f;
#X obj 196 208 t f b;
#X obj 210 361 v i_\$0;
#X obj 140 239 -;
#X obj 140 263 abs;
#X obj 135 71 t b f b;
#X msg 298 129 reset;
#X msg 77 258 set -1;
#X obj 196 181 iterate;
#X obj 298 244 count;
#X connect 0 0 12 0 empty;
#X connect 1 0 15 0 empty;
#X connect 2 0 4 1 empty;
#X connect 3 0 4 1 empty;
#X connect 4 0 5 0 empty;
#X connect 5 0 6 0 empty;
#X connect 6 0 3 0 empty;
#X connect 6 1 7 0 empty;
#X connect 7 0 9 0 empty;
#X connect 8 0 10 0 empty;
#X connect 8 1 16 0 empty;
#X connect 10 0 11 0 empty;
#X connect 11 0 4 0 empty;
#X connect 12 0 1 0 empty;
#X connect 12 1 10 1 empty;
#X connect 12 2 13 0 empty;
#X connect 12 2 2 0 empty;
#X connect 12 2 14 0 empty;
#X connect 13 0 16 0 empty;
#X connect 14 0 5 0 empty;
#X connect 15 0 8 0 empty;
#X connect 16 0 7 1 empty;
#X restore 570 420 pd find-index;
#X obj 361 156 route float bypass;
#X obj 405 196 == 0;
#X obj 361 229 router 2 1;
#X obj 570 352 wrap2 0 1200;
#X connect 0 0 5 0 empty;
#X connect 1 0 0 1 empty;
#X connect 3 0 4 0 empty;
#X connect 4 0 0 0 empty;
#X connect 5 0 2 0 empty;
#X connect 6 0 1 0 empty;
#X connect 7 0 15 0 empty;
#X connect 9 0 10 0 empty;
#X connect 10 0 25 0 empty;
#X connect 11 0 8 0 empty;
#X connect 12 0 7 0 empty;
#X connect 14 0 28 2 empty;
#X connect 15 0 14 0 empty;
#X connect 15 1 16 0 empty;
#X connect 15 2 17 0 empty;
#X connect 17 0 18 0 empty;
#X connect 19 0 20 0 empty;
#X connect 20 0 21 0 empty;
#X connect 21 0 22 1 32.................J....n++++uB....5++++SA....;
#X connect 22 0 11 0 32.................H....T8+++OB....U++++CA....;
#X connect 23 0 22 0 32.................iA........vX.........TL....;
#X connect 23 1 19 0 32.................R....P....fD....D....PB....;
#X connect 23 2 28 0 32.................X....fH....F....HB...7C....;
#X connect 25 0 27 0 empty;
#X connect 25 1 26 0 32.................J....3++++uB....9++++SA....;
#X connect 26 0 27 1 empty;
#X connect 27 0 11 0 empty;
#X connect 27 1 23 0 empty;
#X connect 28 0 24 0 empty;
#X connect 28 0 21 1 32.................a....j2++++F....48+++qD....;
