#N canvas 827 239 527 327 12;
#X obj 289 409 vu 153 120 empty empty -1 -8 0 10 #191919 #ffffff 1 0;
#X msg 289 219 1e+15;
#X obj 289 269 sig~;
#X obj 289 369 vu~;
#X obj 379 319 wrap2~ -1 1;
#X msg 348 219 -1e+15;
#X connect 1 0 2 0 empty;
#X connect 2 0 3 0 empty;
#X connect 3 0 0 0 empty;
#X connect 3 1 0 1 empty;
#X connect 5 0 2 0 empty;
