#N canvas 827 239 527 327 12;
#X obj 159 9 nbx 4 18 -1e+37 1e+37 0 0 empty empty empty 0 -8 0 10 #191919 #d4d4d4 #d4d4d4 0 256;
#X obj 159 179 pack f f f f f f f f;
#X obj 399 99 & 1;
#X obj 349 99 & 2;
#X obj 299 99 & 4;
#X obj 249 99 & 8;
#X obj 199 99 & 16;
#X obj 149 99 & 32;
#X obj 99 99 & 64;
#X obj 49 99 & 128;
#X listbox 159 209 19 0 0 0 empty - - 16;
#X obj 399 129 != 0;
#X obj 349 129 != 0;
#X obj 299 129 != 0;
#X obj 249 129 != 0;
#X obj 199 129 != 0;
#X obj 149 129 != 0;
#X obj 49 129 != 0;
#X obj 99 129 != 0;
#X obj 159 39 t f f f f f f f f;
#X msg 109 259 \$1;
#X msg 149 259 \$2;
#X msg 189 259 \$3;
#X msg 229 259 \$4;
#X msg 269 259 \$5;
#X msg 309 259 \$6;
#X msg 349 259 \$7;
#X msg 389 259 \$8;
#X obj 109 289 tgl 25 0 empty empty empty 17 7 0 10 #191919 #d4d4d4 #d4d4d4 0 1;
#X obj 149 289 tgl 25 0 empty empty empty 17 7 0 10 #191919 #d4d4d4 #d4d4d4 0 1;
#X obj 189 289 tgl 25 0 empty empty empty 17 7 0 10 #191919 #d4d4d4 #d4d4d4 0 1;
#X obj 229 289 tgl 25 0 empty empty empty 17 7 0 10 #191919 #d4d4d4 #d4d4d4 0 1;
#X obj 269 289 tgl 25 0 empty empty empty 17 7 0 10 #191919 #d4d4d4 #d4d4d4 0 1;
#X obj 309 289 tgl 25 0 empty empty empty 17 7 0 10 #191919 #d4d4d4 #d4d4d4 0 1;
#X obj 349 289 tgl 25 0 empty empty empty 17 7 0 10 #191919 #d4d4d4 #d4d4d4 0 1;
#X obj 389 289 tgl 25 0 empty empty empty 17 7 0 10 #191919 #d4d4d4 #d4d4d4 0 1;
#X connect 0 0 19 0;
#X connect 1 0 10 0;
#X connect 2 0 11 0;
#X connect 3 0 12 0;
#X connect 4 0 13 0;
#X connect 5 0 14 0;
#X connect 6 0 15 0;
#X connect 7 0 16 0;
#X connect 8 0 18 0;
#X connect 9 0 17 0;
#X connect 10 0 24 0;
#X connect 10 0 25 0;
#X connect 10 0 26 0;
#X connect 10 0 27 0;
#X connect 10 0 23 0;
#X connect 10 0 22 0;
#X connect 10 0 21 0;
#X connect 10 0 20 0;
#X connect 11 0 1 7;
#X connect 12 0 1 6;
#X connect 13 0 1 5;
#X connect 14 0 1 4;
#X connect 15 0 1 3;
#X connect 16 0 1 2;
#X connect 17 0 1 0;
#X connect 18 0 1 1;
#X connect 19 0 9 0;
#X connect 19 1 8 0;
#X connect 19 2 7 0;
#X connect 19 3 6 0;
#X connect 19 4 5 0;
#X connect 19 5 4 0;
#X connect 19 6 3 0;
#X connect 19 7 2 0;
#X connect 20 0 28 0;
#X connect 21 0 29 0;
#X connect 22 0 30 0;
#X connect 23 0 31 0;
#X connect 24 0 32 0;
#X connect 25 0 33 0;
#X connect 26 0 34 0;
#X connect 27 0 35 0;
