#N canvas 827 239 527 327 12;
#X obj 179 39 nbx 4 18 -1e+37 1e+37 0 0 empty empty empty 0 -8 0 10 #191919 #d4d4d4 #d4d4d4 0 256;
#X obj 179 219 pack f f f f f f f f;
#X obj 419 139 & 1;
#X obj 369 139 & 2;
#X obj 319 139 & 4;
#X obj 269 139 & 8;
#X obj 219 139 & 16;
#X obj 169 139 & 32;
#X obj 119 139 & 64;
#X obj 69 139 & 128;
#X listbox 179 259 19 0 0 0 empty - - 16;
#X obj 419 169 != 0;
#X obj 369 169 != 0;
#X obj 319 169 != 0;
#X obj 269 169 != 0;
#X obj 219 169 != 0;
#X obj 169 169 != 0;
#X obj 69 169 != 0;
#X obj 119 169 != 0;
#X obj 179 79 t f f f f f f f f;
#X connect 0 0 19 0;
#X connect 1 0 10 0;
#X connect 2 0 11 0;
#X connect 3 0 12 0;
#X connect 4 0 13 0;
#X connect 5 0 14 0;
#X connect 6 0 15 0;
#X connect 7 0 16 0;
#X connect 8 0 18 0;
#X connect 9 0 17 0;
#X connect 11 0 1 7;
#X connect 12 0 1 6;
#X connect 13 0 1 5;
#X connect 14 0 1 4;
#X connect 15 0 1 3;
#X connect 16 0 1 2;
#X connect 17 0 1 0;
#X connect 18 0 1 1;
#X connect 19 0 9 0;
#X connect 19 1 8 0;
#X connect 19 2 7 0;
#X connect 19 3 6 0;
#X connect 19 4 5 0;
#X connect 19 5 4 0;
#X connect 19 6 3 0;
#X connect 19 7 2 0;
