#N canvas 827 239 527 327 12;
#X obj 80 47 cnv 15 14 73 cs cr empty 20 12 0 14 #f40053 #ffffff 0;
#X obj 259 49 nbx 4 18 -1e+37 1e+37 0 0 empty empty empty 0 -8 0 10 #191919 #ffffff #ffffff 0 256;
#X obj 219 219 s cr;
#X obj 219 149 -;
#X msg 219 179 delta 0 \$1;
#X obj 259 119 * -1;
#X obj 219 119 t f f;
#X msg 299 179 vis_size 14 \$1;
#X obj 259 79 moses 1;
#X obj 399 59 loadbang;
#X msg 399 179 pos 80 47;
#X msg 419 139 set pos 80 \$1;
#X obj 419 109 !- 120;
#X text 409 18 keep the position \; in case of saving;
#X connect 1 0 8 0 empty;
#X connect 3 0 4 0 empty;
#X connect 4 0 2 0 empty;
#X connect 5 0 7 0 empty;
#X connect 5 0 12 0 empty;
#X connect 6 0 3 1 empty;
#X connect 6 1 3 0 empty;
#X connect 7 0 2 0 empty;
#X connect 8 0 6 0 empty;
#X connect 8 0 5 0 empty;
#X connect 8 1 7 0 empty;
#X connect 9 0 10 0 empty;
#X connect 10 0 2 0 empty;
#X connect 11 0 10 0 empty;
#X connect 12 0 11 0 empty;
