#N canvas 827 239 527 327 12;
#X obj 80 57 cnv 15 14 63 cs cr empty 20 12 0 14 #f40053 #ffffff 0;
#X obj 409 19 nbx 4 18 -1e+37 1e+37 0 1 empty empty empty 0 -8 0 10 #191919 #ffffff #ffffff -63 256;
#X obj 279 259 s cr;
#X obj 279 189 -;
#X msg 279 219 delta 0 \$1;
#X obj 319 159 * -1;
#X obj 279 159 t f f;
#X msg 359 199 vis_size 14 \$1;
#X obj 319 122 moses 1;
#X msg 429 229 pos 80 120;
#X msg 438 85 0;
#X obj 409 49 t f b b;
#X connect 1 0 11 0 empty;
#X connect 3 0 4 0 empty;
#X connect 4 0 2 0 empty;
#X connect 5 0 7 0 empty;
#X connect 6 0 3 1 empty;
#X connect 6 1 3 0 empty;
#X connect 7 0 2 0 empty;
#X connect 8 0 6 0 empty;
#X connect 8 0 5 0 empty;
#X connect 8 1 7 0 empty;
#X connect 9 0 2 0 empty;
#X connect 10 0 8 0 empty;
#X connect 11 0 8 0 empty;
#X connect 11 1 9 0 empty;
#X connect 11 2 10 0 empty;
