#N canvas 827 239 527 327 12;
#X obj 79 109 cnv 15 27 35 cs cr empty 20 12 0 14 #f40053 #ffffff 0;
#X obj 189 169 pack;
#X obj 149 79 nbx 4 18 -1e+37 1e+37 0 0 empty empty empty 0 -8 0 10 #191919 #ffffff #ffffff 0 256;
#X obj 229 19 nbx 4 18 -1e+37 1e+37 0 0 empty empty empty 0 -8 0 10 #191919 #ffffff #ffffff 0 256;
#X obj 209 129 t b f;
#X msg 189 199 vis_size \$1 \$2;
#X obj 189 239 s cr;
#X obj 299 109 -;
#X obj 290 76 t f f;
#X obj 299 139 nbx 4 18 -1e+37 1e+37 0 0 empty empty empty 0 -8 0 10 #191919 #ffffff #ffffff 0 256;
#X obj 324 171 * -1;
#X msg 319 199 delta 0 \$1;
#X obj 239 49 moses 0;
#X obj 209 79 * -1;
#X connect 1 0 5 0 empty;
#X connect 2 0 1 0 empty;
#X connect 3 0 12 0 empty;
#X connect 4 0 1 0 empty;
#X connect 4 1 1 1 empty;
#X connect 5 0 6 0 empty;
#X connect 7 0 9 0 empty;
#X connect 8 0 7 1 empty;
#X connect 8 1 7 0 empty;
#X connect 9 0 10 0 empty;
#X connect 10 0 11 0 empty;
#X connect 11 0 6 0 empty;
#X connect 12 0 13 0 empty;
#X connect 12 1 8 0 empty;
#X connect 12 1 4 0 empty;
#X connect 13 0 4 0 empty;
