#N canvas 827 239 527 327 12;
#X obj 18 139 bl.saw~;
#X obj 502 139 saw~;
#X obj 49 215 spectrograph~ -log;
#X obj 18 368 oscope~ 464 160 1 3 298 -1 1 0 0 0 0 255 255 255 25 25 25 57 57 57 0 empty;
#X obj 18 55 hsl 156 36 220 22000 1 1 empty empty empty -2 -8 0 10 #191919 #ffffff #ffffff 142 1;
#X obj 18 100 nbx 9 20 -1e+37 1e+37 0 0 empty empty empty 0 -8 0 10 #191919 #ffffff #ffffff 0 256;
#X obj 502 55 hsl 156 36 220 22000 1 1 empty empty empty -2 -8 0 10 #191919 #ffffff #ffffff 8147 1;
#X obj 502 100 nbx 9 20 -1e+37 1e+37 0 0 empty empty empty 0 -8 0 10 #191919 #ffffff #ffffff 0 256;
#X obj 533 215 spectrograph~ -log;
#X obj 502 368 oscope~ 464 160 2 3 256 -1 1 0 0 0 0 255 255 255 25 25 25 57 57 57 0 empty;
#X connect 0 0 3 0 empty;
#X connect 0 0 2 0 empty;
#X connect 1 0 8 0 empty;
#X connect 1 0 9 0 empty;
#X connect 4 0 5 0 empty;
#X connect 5 0 0 0 empty;
#X connect 6 0 7 0 empty;
#X connect 7 0 1 0 empty;
