#N canvas 827 239 527 327 12;
#X obj 49 215 spectrograph~ -log;
#X obj 18 368 oscope~ 464 160 2 3 256 -1 1 0 0 0 0 255 255 255 25 25 25 57 57 57 0 empty;
#X obj 18 55 hsl 156 36 220 22000 1 1 empty empty empty -2 -8 0 10 #191919 #ffffff #ffffff 8353 1;
#X obj 18 100 nbx 9 20 -1e+37 1e+37 0 0 empty empty empty 0 -8 0 10 #191919 #ffffff #ffffff 0 256;
#X obj 502 55 hsl 156 36 220 22000 1 1 empty empty empty -2 -8 0 10 #191919 #ffffff #ffffff 8353 1;
#X obj 502 100 nbx 9 20 -1e+37 1e+37 0 0 empty empty empty 0 -8 0 10 #191919 #ffffff #ffffff 0 256;
#X obj 533 215 spectrograph~ -log;
#X obj 502 368 oscope~ 464 160 2 3 256 -1 1 0 0 0 0 255 255 255 25 25 25 57 57 57 0 empty;
#X obj 502 139 square~;
#X obj 18 139 bl.square~;
#X obj 18 11 hsl 879 36 220 22000 1 1 empty empty empty -2 -8 0 10 #191919 #ffffff #ffffff 8353 1;
#X connect 2 0 3 0 empty;
#X connect 3 0 9 0 empty;
#X connect 4 0 5 0 empty;
#X connect 5 0 8 0 empty;
#X connect 8 0 6 0 empty;
#X connect 8 0 7 0 empty;
#X connect 9 0 1 0 empty;
#X connect 9 0 0 0 empty;
#X connect 10 0 2 0 empty;
#X connect 10 0 4 0 empty;
