#N canvas 827 239 527 327 12;
#N canvas 0 50 450 250 (subpatch) 0;
#X text 0 0 plugdatainfo <?xml version="1.0" encoding="UTF-8"?> <plugdatainfo/>;
#X coords 0 1 100 -1 1 1 1;
#X restore 0 0 graph;
#X obj 205 258 * 2;
#X obj 358 392 /~ 6;
#X obj 358 489 dac~;
#X obj 292 258 * 4;
#X obj 379 258 * 8;
#X obj 466 258 * 16;
#X obj 553 258 * 32;
#X obj 135 303 sine~;
#X obj 205 303 sine~;
#X obj 292 303 sine~;
#X obj 379 303 sine~;
#X obj 466 303 sine~;
#X obj 553 303 sine~;
#X obj 135 206 nbx 4 18 -1e+37 1e+37 0 1 empty empty empty 0 -8 0 10 #e4e4e4 #5a5a5a #5a5a5a 880 256;
#X obj 358 444 bp~, f 5;
#X obj 424 394 nbx 4 18 -1e+37 1e+37 0 1 empty empty empty 0 -8 0 10 #e4e4e4 #5a5a5a #5a5a5a 349.228 256;
#X obj 484 398 nbx 4 18 -1e+37 1e+37 0 1 empty empty empty 0 -8 0 10 #e4e4e4 #5a5a5a #5a5a5a 1 256;
#X obj 135 157 mtof;
#X obj 446 26 keyboard 17 80 4 2 0 0 empty empty;
#X obj 446 115 keyboard 17 80 4 2 0 0 empty empty;
#X obj 495 359 mtof;
#X connect 1 0 9 0;
#X connect 2 0 15 0;
#X connect 4 0 10 0;
#X connect 5 0 11 0;
#X connect 6 0 12 0;
#X connect 7 0 13 0;
#X connect 8 0 2 0;
#X connect 9 0 2 0;
#X connect 10 0 2 0;
#X connect 11 0 2 0;
#X connect 12 0 2 0;
#X connect 13 0 2 0;
#X connect 14 0 8 0;
#X connect 14 0 1 0;
#X connect 14 0 4 0;
#X connect 14 0 5 0;
#X connect 14 0 6 0;
#X connect 14 0 7 0;
#X connect 15 0 3 0;
#X connect 15 0 3 1;
#X connect 16 0 15 1;
#X connect 17 0 15 2;
#X connect 18 0 14 0;
#X connect 19 0 18 0;
#X connect 20 0 21 0;
#X connect 21 0 16 0;
