#N canvas 827 239 527 327 12;
#N canvas 0 50 450 250 (subpatch) 0;
#X text 0 0 plugdatainfo <?xml version="1.0" encoding="UTF-8"?> <plugdatainfo/>;
#X coords 0 1 100 -1 1 1 1;
#X restore 0 0 graph;
#X obj 205 209 * 2;
#X obj 363 343 /~ 6;
#X obj 360 448 dac~;
#X obj 292 209 * 4;
#X obj 379 209 * 8;
#X obj 466 209 * 16;
#X obj 553 209 * 32;
#X obj 135 254 sine~;
#X obj 205 254 sine~;
#X obj 292 254 sine~;
#X obj 379 254 sine~;
#X obj 466 254 sine~;
#X obj 553 254 sine~;
#X obj 135 115 nbx 4 18 -1e+37 1e+37 0 1 empty empty empty 0 -8 0 10 #e4e4e4 #5a5a5a #5a5a5a 118 256;
#X obj 363 403 bp~, f 5;
#X obj 426 343 nbx 4 18 -1e+37 1e+37 0 1 empty empty empty 0 -8 0 10 #e4e4e4 #5a5a5a #5a5a5a 333 256;
#X obj 489 345 nbx 4 18 -1e+37 1e+37 0 1 empty empty empty 0 -8 0 10 #e4e4e4 #5a5a5a #5a5a5a 1 256;
#X connect 1 0 9 0;
#X connect 2 0 15 0;
#X connect 4 0 10 0;
#X connect 5 0 11 0;
#X connect 6 0 12 0;
#X connect 7 0 13 0;
#X connect 8 0 2 0;
#X connect 9 0 2 0;
#X connect 10 0 2 0;
#X connect 11 0 2 0;
#X connect 12 0 2 0;
#X connect 13 0 2 0;
#X connect 14 0 8 0;
#X connect 14 0 1 0;
#X connect 14 0 4 0;
#X connect 14 0 5 0;
#X connect 14 0 6 0;
#X connect 14 0 7 0;
#X connect 15 0 3 0;
#X connect 15 0 3 1;
#X connect 16 0 15 1;
#X connect 17 0 15 2;
