#N canvas 827 239 527 327 12;
#N canvas 0 50 450 250 (subpatch) 0;
#X text 0 0 plugdatainfo <?xml version="1.0" encoding="UTF-8"?> <plugdatainfo/>;
#X coords 0 1 100 -1 1 1 1;
#X restore 0 0 graph;
#X obj 135 47 notein;
#X obj 135 106 mtof;
#X obj 205 209 * 2;
#X obj 360 366 /~ 6;
#X obj 360 448 dac~;
#X obj 292 209 * 4;
#X obj 379 209 * 8;
#X obj 466 209 * 16;
#X obj 553 209 * 32;
#X obj 135 254 sine~;
#X obj 205 254 sine~;
#X obj 292 254 sine~;
#X obj 379 254 sine~;
#X obj 466 254 sine~;
#X obj 553 254 sine~;
#X text 229 66 drop the midi \, and put a bandpass on this and you've got an hsb;
#N canvas 0 50 450 300 mix6 1;
#N canvas 0 50 450 250 (subpatch) 0;
#X text 0 0 plugdatainfo <?xml version="1.0" encoding="UTF-8"?> <plugdatainfo/>;
#X coords 0 1 100 -1 1 1 1;
#X restore 0 0 graph;
#X obj 265 303 +~;
#X obj 431 303 +~;
#X obj 605 303 +~;
#X obj 345 348 +~;
#X obj 492 381 +~;
#X obj 189 240 inlet~;
#X obj 242 240 inlet~;
#X obj 356 230 inlet~;
#X obj 409 230 inlet~;
#X obj 549 230 inlet~;
#X obj 602 230 inlet~;
#X obj 476 445 outlet~;
#X connect 1 0 4 0;
#X connect 2 0 4 1;
#X connect 3 0 5 1;
#X connect 4 0 5 0;
#X connect 5 0 12 0;
#X connect 6 0 1 0;
#X connect 7 0 1 1;
#X connect 8 0 2 0;
#X connect 9 0 2 1;
#X connect 10 0 3 0;
#X connect 11 0 3 1;
#X restore 352 319 pd mix6;
#X connect 1 0 2 0;
#X connect 2 0 9 0;
#X connect 2 0 8 0;
#X connect 2 0 7 0;
#X connect 2 0 6 0;
#X connect 2 0 3 0;
#X connect 2 0 10 0;
#X connect 3 0 11 0;
#X connect 4 0 5 0;
#X connect 4 0 5 1;
#X connect 6 0 12 0;
#X connect 7 0 13 0;
#X connect 8 0 14 0;
#X connect 9 0 15 0;
#X connect 10 0 17 0;
#X connect 11 0 17 1;
#X connect 12 0 17 2;
#X connect 13 0 17 3;
#X connect 14 0 17 4;
#X connect 15 0 17 5;
#X connect 17 0 4 0;
