#N canvas 827 239 527 327 12;
#X obj 199 79 button 61 61 25 25 25 255 255 255 0;
#X obj 199 239 bng 25 250 50 0 empty empty empty 17 7 0 10 #191919 #ffffff #ffffff;
#X obj 169 209 bng 25 250 50 0 empty empty empty 17 7 0 10 #191919 #ffffff #ffffff;
#X obj 199 209 pipe f 2000;
#X msg 221 179 clear;
#X obj 199 149 select 1 0;
#X obj 339 79 button 61 61 25 25 25 255 255 255 0;
#X obj 339 149 select 0 1;
#X obj 339 199 tgl 25 0 empty empty empty 17 7 0 10 #191919 #ffffff #ffffff 0 1;
#X obj 369 199 tgl 25 0 empty empty empty 17 7 0 10 #191919 #ffffff #ffffff 0 1;
#X connect 0 0 5 0 empty;
#X connect 3 0 1 0 empty;
#X connect 4 0 3 0 empty;
#X connect 5 0 3 0 empty;
#X connect 5 0 2 0 empty;
#X connect 5 1 4 0 empty;
#X connect 6 0 7 0 empty;
#X connect 7 0 8 0 empty;
#X connect 7 1 8 0 empty;
#X connect 7 1 9 0 empty;
