#N canvas 827 239 527 327 12;
#N canvas 0 50 450 250 (subpatch) 0;
#X text 0 0 plugdatainfo <?xml version="1.0" encoding="UTF-8"?> <plugdatainfo><InfoObj ID="16.D....H..........B....." Updated="0" Segmented="1" Path="32.................p....X6+++uJ....19+++6D...."/><InfoObj ID="16.E....D..........B....." Updated="0" Segmented="1" Path="32.................b....v5+++OG....r9+++6D...."/><InfoObj ID="16.C...............A....." Updated="0" Segmented="1" Path="32.................CA...jF...vP....oA...3D...."/><InfoObj ID="16.K....b..........B....." Updated="0" Segmented="1" Path="32.................V....v5+++uE....r9+++6D...."/><InfoObj ID="16.I....X..........A....." Updated="0" Segmented="1" Path="32.................9....jF...fO....oA...3D...."/><InfoObj ID="16.J....f..........B....." Updated="0" Segmented="1" Path="32.................t....X6+++uK....19+++6D...."/></plugdatainfo>;
#X coords 0 1 100 -1 1 1 1;
#X restore 0 0 graph;
#X obj 216 102 sig~;
#X obj 279 102 f;
#X obj 321 102 f;
#X obj 321 200 dac~;
#X obj 247 200 sig~;
#X obj 195 200 sig~;
#X obj 32 102 sig~;
#X obj 95 102 f;
#X obj 137 102 f;
#X obj 137 200 dac~;
#X obj 63 200 sig~;
#X obj 11 200 sig~;
#X text 216 71 connect audio first, f 16;
#X text 32 71 connect audio last, f 16;
#X connect 1 0 4 0;
#X connect 2 0 6 0;
#X connect 3 0 5 0;
#X connect 7 0 10 0;
#X connect 8 0 12 0;
#X connect 9 0 11 0;
