#N canvas 827 239 527 327 12;
#X obj 119 329 bng 25 250 50 0 empty empty empty 17 7 0 10 #191919 #1489ff #86c7ff;
#X obj 149 329 bng 25 250 50 0 empty empty empty 17 7 0 10 #191919 #1489ff #86c7ff;
#X obj 179 329 bng 25 250 50 0 empty empty empty 17 7 0 10 #191919 #1489ff #86c7ff;
#X obj 209 329 bng 25 250 50 0 empty empty empty 17 7 0 10 #191919 #1489ff #86c7ff;
#X obj 239 329 bng 25 250 50 0 empty empty empty 17 7 0 10 #191919 #1489ff #86c7ff;
#X obj 269 329 bng 25 250 50 0 empty empty empty 17 7 0 10 #191919 #1489ff #86c7ff;
#X obj 119 49 bng 25 250 50 0 empty empty empty 17 7 0 10 #191919 #1489ff #86c7ff;
#X obj 149 139 del;
#X obj 159 49 nbx 4 18 -1e+37 1e+37 0 1 empty empty empty 0 -8 0 10 #191919 #86c7ff #86c7ff 99 256;
#X obj 179 179 del;
#X obj 209 219 del;
#X obj 239 259 del;
#X obj 269 299 del;
#X obj 319 339 del;
#X connect 6 0 0 0 empty;
#X connect 6 0 7 0 empty;
#X connect 7 0 1 0 empty;
#X connect 7 0 9 0 empty;
#X connect 8 0 7 1 empty;
#X connect 8 0 9 1 empty;
#X connect 8 0 10 1 empty;
#X connect 8 0 11 1 empty;
#X connect 8 0 12 1 empty;
#X connect 8 0 13 1 empty;
#X connect 9 0 2 0 empty;
#X connect 9 0 10 0 empty;
#X connect 10 0 3 0 empty;
#X connect 10 0 11 0 empty;
#X connect 11 0 4 0 empty;
#X connect 11 0 12 0 empty;
#X connect 12 0 5 0 empty;
#X connect 12 0 13 0 empty;
#X connect 13 0 6 0 empty;
