#N canvas 827 239 527 327 12;
#N canvas 0 50 450 250 (subpatch) 0;
#X text 0 0 plugdatainfo <?xml version="1.0" encoding="UTF-8"?> <plugdatainfo><InfoObj ID="16.I....b..........B....." Updated="0" Segmented="1" Path="32......D..........M....HB...PC....h....jA...."/><InfoObj ID="16.F....j....P.....B....." Updated="0" Segmented="1" Path="32......D..........N....DC...fC....w....rA...."/><InfoObj ID="16.F....b..........B....." Updated="0" Segmented="1" Path="32......D..........k.........PI.........jD...."/><InfoObj ID="16.G....f................" Updated="0" Segmented="1" Path="32......D..........H..........B.........7....."/><InfoObj ID="16......X..........B....." Updated="0" Segmented="1" Path="32......D..........2.........vM.........vF...."/><InfoObj ID="16.A....X..........C....." Updated="0" Segmented="1" Path="32......D..........WA...jD...vU....IA...vF...."/><InfoObj ID="16.B....X..........D....." Updated="0" Segmented="1" Path="32......D..........FA...DI...fQ....QB...vF...."/><InfoObj ID="16.C....X..........E....." Updated="0" Segmented="1" Path="32......D..........4....rM...PN....aC...vF...."/><InfoObj ID="16.D....X..........F....." Updated="0" Segmented="1" Path="32......D..........j....PR....I....jD...vF...."/><InfoObj ID="16.E....X..........G....." Updated="0" Segmented="1" Path="32......D..........U....zV...PE....sE...vF...."/></plugdatainfo>;
#X coords 0 1 100 -1 1 1 1;
#X restore 0 0 graph;
#X obj 86 315 bng 70 250 50 0 empty empty empty 17 7 0 10 #191919 #ed3b4b #ffffff;
#X obj 175 315 bng 70 250 50 0 empty empty empty 17 7 0 10 #191919 #ff6e1d #ffffff;
#X obj 264 315 bng 70 250 50 0 empty empty empty 17 7 0 10 #191919 #fbcd26 #ffffff;
#X obj 354 315 bng 70 250 50 0 empty empty empty 17 7 0 10 #191919 #53af65 #ffffff;
#X obj 444 315 bng 70 250 50 0 empty empty empty 17 7 0 10 #191919 #2d8ce3 #ffffff;
#X obj 534 315 bng 70 250 50 0 empty empty empty 17 7 0 10 #191919 #6a47b9 #ffffff;
#X obj 86 186 router 6;
#X obj 86 92 metro 1 120 permin;
#X obj 86 56 loadbang;
#X obj 120 138 count 6;
#X connect 7 0 1 0;
#X connect 7 1 2 0;
#X connect 7 2 3 0;
#X connect 7 3 4 0;
#X connect 7 4 5 0;
#X connect 7 5 6 0;
#X connect 8 0 7 0;
#X connect 8 0 10 0;
#X connect 9 0 8 0;
#X connect 10 0 7 1;
