#N canvas 827 239 527 327 12;
#N canvas 0 50 450 250 (subpatch) 0;
#X text 0 0 plugdatainfo <?xml version="1.0" encoding="UTF-8"?> <plugdatainfo><InfoObj ID="16.H....X..........B....." Updated="0" Segmented="1" Path="32......D..........M....HB...PC....h....jA...."/><InfoObj ID="16.F....j....P.....B....." Updated="0" Segmented="1" Path="32......D..........N....DC...fC....w....rA...."/><InfoObj ID="16.F....b..........B....." Updated="0" Segmented="1" Path="32......D..........k.........PI.........jD...."/><InfoObj ID="16.F....b................" Updated="0" Segmented="1" Path="32......D..........H..........B.........7....."/><InfoObj ID="16......X..........B....." Updated="0" Segmented="1" Path="32......D..........2.........vM.........vF...."/><InfoObj ID="16.A....X..........C....." Updated="0" Segmented="1" Path="32......D..........WA...jD...vU....IA...vF...."/><InfoObj ID="16.B....X..........D....." Updated="0" Segmented="1" Path="32......D..........FA...DI...fQ....QB...vF...."/><InfoObj ID="16.C....X..........E....." Updated="0" Segmented="1" Path="32......D..........4....rM...PN....aC...vF...."/><InfoObj ID="16.D....X..........F....." Updated="0" Segmented="1" Path="32......D..........j....PR....I....jD...vF...."/><InfoObj ID="16.E....X..........G....." Updated="0" Segmented="1" Path="32......D..........U....zV...PE....sE...vF...."/><InfoObj ID="16.L....HA.........O....." Updated="0" Segmented="1" Path="32......D..........j....Dm....I....wI...3E...."/><InfoObj ID="16.M....HA.........P....." Updated="0" Segmented="1" Path="32......D..........Z....Xp...fF....lJ...3E...."/><InfoObj ID="16.N....HA.........Q....." Updated="0" Segmented="1" Path="32......D..........V....rs...fE....aK...3E...."/><InfoObj ID="16.J....HA.........L....." Updated="0" Segmented="1" Path="32......D..........j....bg....I....WH...3E...."/><InfoObj ID="16.K....HA.........N....." Updated="0" Segmented="1" Path="32......D..........j....ri....I....6H...3E...."/><InfoObj ID="16.E....HA.........I....." Updated="0" Segmented="1" Path="32......D..........x....bW...fL....2E...3E...."/><InfoObj ID="16.Q....HA.........J....." Updated="0" Segmented="1" Path="32......D..........q....vZ...vJ....rF...3E...."/><InfoObj ID="16.P....HA.........K....." Updated="0" Segmented="1" Path="32......D..........n....Hd....J....hG...3E...."/><InfoObj ID="16.D....HA.........H....." Updated="0" Segmented="1" Path="32......D..........4....DT...PN....AE...3E...."/><InfoObj ID="16.C....HA.........G....." Updated="0" Segmented="1" Path="32......D..........+....vP...vO....LD...3E...."/><InfoObj ID="16.B....HA.........F....." Updated="0" Segmented="1" Path="32......D..........EA...XM...PQ....VC...3E...."/><InfoObj ID="16.A....HA.........E....." Updated="0" Segmented="1" Path="32......D..........LA...DJ....S....gB...3E...."/><InfoObj ID="16......HA.........D....." Updated="0" Segmented="1" Path="32......D..........SA...rF...vT....qA...3E...."/><InfoObj ID="16.H....HA.........C....." Updated="0" Segmented="1" Path="32......D..........YA...XC...PV....1....3E...."/><InfoObj ID="16.I....HA.........B....." Updated="0" Segmented="1" Path="32......D..........v..........L.........3E...."/><InfoObj ID="16.O....HA.........Q....." Updated="0" Segmented="1" Path="32......D..........K....Lx...vB....iL...3E...."/><InfoObj ID="16.N....HA.........P....." Updated="0" Segmented="1" Path="32......D..........P....zt....D....sK...3E...."/><InfoObj ID="16.M....HA.........O....." Updated="0" Segmented="1" Path="32......D..........W....fq...vE....3J...3E...."/><InfoObj ID="16.L....HA.........N....." Updated="0" Segmented="1" Path="32......D..........c....Hn...PG....BJ...3E...."/><InfoObj ID="16.K....HA.........M....." Updated="0" Segmented="1" Path="32......D..........g....zj...PH....MI...3E...."/><InfoObj ID="16.S....X..........B....." Updated="0" Segmented="1" Path="32......D..........M....HB...PC....h....jA...."/><InfoObj ID="16.R....X..........B....." Updated="0" Segmented="1" Path="32......D..........m.........vI.........vD...."/><InfoObj ID="16.R....LA...P.....B....." Updated="0" Segmented="1" Path="32......D..........P....TN....D....kC...3A...."/></plugdatainfo>;
#X coords 0 1 100 -1 1 1 1;
#X restore 0 0 graph;
#X obj 162 271 bng 70 250 50 0 empty empty empty 17 7 0 10 #191919 #ed3b4b #ffffff;
#X obj 233 271 bng 70 250 50 0 empty empty empty 17 7 0 10 #191919 #ff6e1d #ffffff;
#X obj 304 271 bng 70 250 50 0 empty empty empty 17 7 0 10 #191919 #fbcd26 #ffffff;
#X obj 375 271 bng 70 250 50 0 empty empty empty 17 7 0 10 #191919 #53af65 #ffffff;
#X obj 446 271 bng 70 250 50 0 empty empty empty 17 7 0 10 #191919 #2d8ce3 #ffffff;
#X obj 517 271 bng 70 250 50 0 empty empty empty 17 7 0 10 #191919 #6a47b9 #ffffff;
#X obj 20 59 metro 1 120 permin;
#X obj 20 23 loadbang;
#X obj 91 271 bng 70 250 50 0 empty empty empty 17 7 0 10 #191919 #f5a9b8 #ffffff;
#X obj 20 271 bng 70 250 50 0 empty empty empty 17 7 0 10 #191919 #5bcefa #ffffff;
#X obj 730 271 bng 70 250 50 0 empty empty empty 17 7 0 10 #191919 #ed3b4b #ffffff;
#X obj 801 271 bng 70 250 50 0 empty empty empty 17 7 0 10 #191919 #ff6e1d #ffffff;
#X obj 872 271 bng 70 250 50 0 empty empty empty 17 7 0 10 #191919 #fbcd26 #ffffff;
#X obj 943 271 bng 70 250 50 0 empty empty empty 17 7 0 10 #191919 #53af65 #ffffff;
#X obj 1014 271 bng 70 250 50 0 empty empty empty 17 7 0 10 #191919 #2d8ce3 #ffffff;
#X obj 1086 271 bng 70 250 50 0 empty empty empty 17 7 0 10 #191919 #6a47b9 #ffffff;
#X obj 659 271 bng 70 250 50 0 empty empty empty 17 7 0 10 #191919 #f5a9b8 #ffffff;
#X obj 588 271 bng 70 250 50 0 empty empty empty 17 7 0 10 #191919 #5bcefa #ffffff;
#X obj 20 156 router 16;
#X obj 54 105 count 15;
#X connect 7 0 19 0;
#X connect 7 0 20 0;
#X connect 8 0 7 0;
#X connect 19 0 10 0;
#X connect 19 1 9 0;
#X connect 19 2 1 0;
#X connect 19 3 2 0;
#X connect 19 4 3 0;
#X connect 19 5 4 0;
#X connect 19 6 5 0;
#X connect 19 7 6 0;
#X connect 19 8 18 0;
#X connect 19 9 17 0;
#X connect 19 10 11 0;
#X connect 19 11 12 0;
#X connect 19 12 13 0;
#X connect 19 13 14 0;
#X connect 19 14 15 0;
#X connect 19 15 16 0;
#X connect 20 0 19 1;
