#N canvas 827 239 527 327 12;
#N canvas 0 50 450 250 (subpatch) 0;
#X text 0 0 plugdatainfo <?xml version="1.0" encoding="UTF-8"?> <plugdatainfo><InfoObj ID="16.H....X..........B....." Updated="0" Segmented="1" Path="32......D..........M....HB...PC....h....jA...."/><InfoObj ID="16.F....j....P.....B....." Updated="0" Segmented="1" Path="32......D..........N....DC...fC....w....rA...."/><InfoObj ID="16.F....b..........B....." Updated="0" Segmented="1" Path="32......D..........k.........PI.........jD...."/><InfoObj ID="16.F....b................" Updated="0" Segmented="1" Path="32......D..........H..........B.........7....."/><InfoObj ID="16......X..........B....." Updated="0" Segmented="1" Path="32......D..........2.........vM.........vF...."/><InfoObj ID="16.A....X..........C....." Updated="0" Segmented="1" Path="32......D..........WA...jD...vU....IA...vF...."/><InfoObj ID="16.B....X..........D....." Updated="0" Segmented="1" Path="32......D..........FA...DI...fQ....QB...vF...."/><InfoObj ID="16.C....X..........E....." Updated="0" Segmented="1" Path="32......D..........4....rM...PN....aC...vF...."/><InfoObj ID="16.D....X..........F....." Updated="0" Segmented="1" Path="32......D..........j....PR....I....jD...vF...."/><InfoObj ID="16.E....X..........G....." Updated="0" Segmented="1" Path="32......D..........U....zV...PE....sE...vF...."/><InfoObj ID="16.L....HA.........O....." Updated="0" Segmented="1" Path="32......D..........j....Dm....I....wI...3E...."/><InfoObj ID="16.M....HA.........P....." Updated="0" Segmented="1" Path="32......D..........Z....Xp...fF....lJ...3E...."/><InfoObj ID="16.N....HA.........Q....." Updated="0" Segmented="1" Path="32......D..........V....rs...fE....aK...3E...."/><InfoObj ID="16.I....DA.........L....." Updated="0" Segmented="0" Path="32......D..........j....bg....I....WH...3E...."/><InfoObj ID="16.K....HA.........N....." Updated="0" Segmented="1" Path="32......D..........j....ri....I....6H...3E...."/><InfoObj ID="16.E....DA.........I....." Updated="0" Segmented="0" Path="32......D..........x....bW...fL....2E...3E...."/><InfoObj ID="16.P....DA.........J....." Updated="0" Segmented="0" Path="32......D..........q....vZ...vJ....rF...3E...."/><InfoObj ID="16.O....DA.........K....." Updated="0" Segmented="0" Path="32......D..........n....Hd....J....hG...3E...."/><InfoObj ID="16.D....DA.........H....." Updated="0" Segmented="0" Path="32......D..........4....DT...PN....AE...3E...."/><InfoObj ID="16.C....DA.........G....." Updated="0" Segmented="0" Path="32......D..........+....vP...vO....LD...3E...."/><InfoObj ID="16.B....DA.........F....." Updated="0" Segmented="0" Path="32......D..........EA...XM...PQ....VC...3E...."/><InfoObj ID="16.A....DA.........E....." Updated="0" Segmented="0" Path="32......D..........LA...DJ....S....gB...3E...."/><InfoObj ID="16......DA.........D....." Updated="0" Segmented="0" Path="32......D..........SA...rF...vT....qA...3E...."/><InfoObj ID="16.G....DA.........C....." Updated="0" Segmented="0" Path="32......D..........YA...XC...PV....1....3E...."/><InfoObj ID="16.H....DA.........B....." Updated="0" Segmented="0" Path="32......D..........v..........L.........3E...."/><InfoObj ID="16.N....DA.........Q....." Updated="0" Segmented="0" Path="32......D..........K....Lx...vB....iL...3E...."/><InfoObj ID="16.M....DA.........P....." Updated="0" Segmented="0" Path="32......D..........P....zt....D....sK...3E...."/><InfoObj ID="16.L....DA.........O....." Updated="0" Segmented="0" Path="32......D..........W....fq...vE....3J...3E...."/><InfoObj ID="16.K....DA.........N....." Updated="0" Segmented="0" Path="32......D..........c....Hn...PG....BJ...3E...."/><InfoObj ID="16.J....DA.........M....." Updated="0" Segmented="0" Path="32......D..........g....zj...PH....MI...3E...."/><InfoObj ID="16.R....X..........B....." Updated="0" Segmented="1" Path="32......D..........M....HB...PC....h....jA...."/><InfoObj ID="16.Q....X..........B....." Updated="0" Segmented="1" Path="32......D..........m.........vI.........vD...."/><InfoObj ID="16.Q....HA...P.....B....." Updated="0" Segmented="1" Path="32......D..........P....TN....D....kC...3A...."/><InfoObj ID="16.k....nB...P.....A....." Updated="0" Segmented="1" Path="48......D..........D....35+++OA....t9+++CB...fm++++f....34++++W...."/><InfoObj ID="16.k....rB...P.....A....." Updated="0" Segmented="1" Path="48......D..........D....35+++OA....t9+++eA...fm++++W....34+++OQ...."/><InfoObj ID="16.k....fB...P.....A....." Updated="0" Segmented="1" Path="32......D..........B....b8+++u.....W+++++E...."/><InfoObj ID="16.k....bB...P.....A....." Updated="0" Segmented="1" Path="32......D..........B....b8+++u.....W++++SD...."/><InfoObj ID="16.k....XB...P.....A....." Updated="0" Segmented="1" Path="32......D..........D....b8+++OA....W++++mB...."/><InfoObj ID="16.k....vB...P.....A....." Updated="0" Segmented="1" Path="48......D..........A....35+++e.....t9+++6....fm++++N....34+++eJ...."/><InfoObj ID="16.k....jB...P.....A....." Updated="0" Segmented="1" Path="32......D..........G....b8++++A....W++++y....."/></plugdatainfo>;
#X coords 0 1 100 -1 1 1 1;
#X restore 0 0 graph;
#X obj 167 336 bng 70 250 50 0 empty empty empty 17 7 0 10 #191919 #ed3b4b #ffffff;
#X obj 238 336 bng 70 250 50 0 empty empty empty 17 7 0 10 #191919 #ff6e1d #ffffff;
#X obj 309 336 bng 70 250 50 0 empty empty empty 17 7 0 10 #191919 #fbcd26 #ffffff;
#X obj 380 336 bng 70 250 50 0 empty empty empty 17 7 0 10 #191919 #53af65 #ffffff;
#X obj 451 336 bng 70 250 50 0 empty empty empty 17 7 0 10 #191919 #2d8ce3 #ffffff;
#X obj 522 336 bng 70 250 50 0 empty empty empty 17 7 0 10 #191919 #6a47b9 #ffffff;
#X obj 413 181 metro 1 120 permin;
#X obj 96 336 bng 70 250 50 0 empty empty empty 17 7 0 10 #191919 #f5a9b8 #ffffff;
#X obj 25 336 bng 70 250 50 0 empty empty empty 17 7 0 10 #191919 #5bcefa #ffffff;
#X obj 735 336 bng 70 250 50 0 empty empty empty 17 7 0 10 #191919 #ed3b4b #ffffff;
#X obj 806 336 bng 70 250 50 0 empty empty empty 17 7 0 10 #191919 #ff6e1d #ffffff;
#X obj 877 336 bng 70 250 50 0 empty empty empty 17 7 0 10 #191919 #fbcd26 #ffffff;
#X obj 948 336 bng 70 250 50 0 empty empty empty 17 7 0 10 #191919 #53af65 #ffffff;
#X obj 1019 336 bng 70 250 50 0 empty empty empty 17 7 0 10 #191919 #2d8ce3 #ffffff;
#X obj 1091 336 bng 70 250 50 0 empty empty empty 17 7 0 10 #191919 #6a47b9 #ffffff;
#X obj 664 336 bng 70 250 50 0 empty empty empty 17 7 0 10 #191919 #f5a9b8 #ffffff;
#X obj 593 336 bng 70 250 50 0 empty empty empty 17 7 0 10 #191919 #5bcefa #ffffff;
#X obj 413 278 router 16;
#X obj 447 227 count 15;
#X obj 25 468 tgl 70 0 empty empty empty 17 7 0 10 #191919 #5bcefa #ffffff 0 1;
#X obj 96 468 tgl 70 0 empty empty empty 17 7 0 10 #191919 #f5a9b8 #ffffff 0 1;
#X obj 167 468 tgl 70 0 empty empty empty 17 7 0 10 #191919 #ed3b4b #ffffff 0 1;
#X obj 238 468 tgl 70 0 empty empty empty 17 7 0 10 #191919 #ff6e1d #ffffff 0 1;
#X obj 309 468 tgl 70 0 empty empty empty 17 7 0 10 #191919 #fbcd26 #ffffff 0 1;
#X obj 380 468 tgl 70 0 empty empty empty 17 7 0 10 #191919 #53af65 #ffffff 0 1;
#X obj 451 468 tgl 70 0 empty empty empty 17 7 0 10 #191919 #2d8ce3 #ffffff 0 1;
#X obj 522 468 tgl 70 0 empty empty empty 17 7 0 10 #191919 #6a47b9 #ffffff 0 1;
#X obj 593 468 tgl 70 0 empty empty empty 17 7 0 10 #191919 #5bcefa #ffffff 0 1;
#X obj 664 468 tgl 70 0 empty empty empty 17 7 0 10 #191919 #f5a9b8 #ffffff 0 1;
#X obj 735 468 tgl 70 0 empty empty empty 17 7 0 10 #191919 #ed3b4b #ffffff 0 1;
#X obj 806 468 tgl 70 0 empty empty empty 17 7 0 10 #191919 #ff6e1d #ffffff 0 1;
#X obj 877 468 tgl 70 0 empty empty empty 17 7 0 10 #191919 #fbcd26 #ffffff 0 1;
#X obj 948 468 tgl 70 0 empty empty empty 17 7 0 10 #191919 #53af65 #ffffff 0 1;
#X obj 1019 468 tgl 70 0 empty empty empty 17 7 0 10 #191919 #2d8ce3 #ffffff 0 1;
#X obj 1090 468 tgl 70 0 empty empty empty 17 7 0 10 #191919 #6a47b9 #ffffff 0 1;
#X obj 288 95 tgl 70 0 empty empty empty 17 7 0 10 #191919 #ffacab #ffffff 0 1;
#X msg 586 181 tempo \$1 \$2, f 13;
#X obj 586 144 pack;
#X msg 645 82 msec, f 7;
#X msg 645 55 sec, f 6;
#X msg 645 28 min, f 6;
#X msg 645 111 samp, f 7;
#X msg 702 28 permin, f 9;
#X msg 702 55 persec, f 9;
#X msg 702 82 permsec, f 10;
#X msg 859 144 persamp, f 10;
#X obj 512 66 nbx 9 36 -1e+37 1e+37 0 0 empty empty empty 0 -8 0 10 #191919 #ffffff #ffffff 0 256;
#X text 785 73 need 3 different metros, f 20;
#X connect 1 0 21 0;
#X connect 1 0 22 0;
#X connect 2 0 22 0;
#X connect 2 0 23 0;
#X connect 3 0 23 0;
#X connect 3 0 24 0;
#X connect 4 0 24 0;
#X connect 4 0 25 0;
#X connect 5 0 25 0;
#X connect 5 0 26 0;
#X connect 6 0 26 0;
#X connect 6 0 27 0;
#X connect 7 0 18 0;
#X connect 7 0 19 0;
#X connect 8 0 20 0;
#X connect 8 0 21 0;
#X connect 9 0 20 0;
#X connect 9 0 35 0;
#X connect 10 0 29 0;
#X connect 10 0 30 0;
#X connect 11 0 30 0;
#X connect 11 0 31 0;
#X connect 12 0 31 0;
#X connect 12 0 32 0;
#X connect 13 0 32 0;
#X connect 13 0 33 0;
#X connect 14 0 33 0;
#X connect 14 0 34 0;
#X connect 15 0 34 0;
#X connect 15 0 35 0;
#X connect 16 0 28 0;
#X connect 16 0 29 0;
#X connect 17 0 27 0;
#X connect 17 0 28 0;
#X connect 18 0 9 0;
#X connect 18 1 8 0;
#X connect 18 2 1 0;
#X connect 18 3 2 0;
#X connect 18 4 3 0;
#X connect 18 5 4 0;
#X connect 18 6 5 0;
#X connect 18 7 6 0;
#X connect 18 8 17 0;
#X connect 18 9 16 0;
#X connect 18 10 10 0;
#X connect 18 11 11 0;
#X connect 18 12 12 0;
#X connect 18 13 13 0;
#X connect 18 14 14 0;
#X connect 18 15 15 0;
#X connect 19 0 18 1;
#X connect 36 0 7 0;
#X connect 38 0 37 0;
#X connect 39 0 38 1;
#X connect 40 0 38 1;
#X connect 41 0 38 1;
#X connect 42 0 38 1;
#X connect 43 0 38 1;
#X connect 44 0 38 1;
#X connect 45 0 38 1;
#X connect 47 0 38 0;
