#N canvas 827 239 527 327 12;
#X obj 129 19 bng 25 250 50 0 empty empty empty 17 7 0 10 #191919 #ffffff #ffffff;
#X obj 249 49 bng 25 250 50 0 empty empty empty 17 7 0 10 #191919 #ffffff #ffffff;
#X obj 59 219 bng 25 250 50 0 empty empty empty 17 7 0 10 #191919 #ffffff #ffffff;
#X obj 179 229 bng 25 250 50 0 empty empty empty 17 7 0 10 #191919 #ffffff #ffffff;
#X obj 279 169 bng 25 250 50 0 empty empty empty 17 7 0 10 #191919 #ffffff #ffffff;
#X obj 29 89 bng 25 250 50 0 empty empty empty 17 7 0 10 #191919 #ffffff #ffffff;
#X connect 0 0 1 0 empty;
#X connect 0 0 5 0 empty;
#X connect 0 0 2 0 empty;
#X connect 0 0 3 0 empty;
#X connect 0 0 4 0 empty;
#X connect 1 0 5 0 empty;
#X connect 1 0 2 0 empty;
#X connect 1 0 3 0 empty;
#X connect 1 0 4 0 empty;
#X connect 1 0 0 0 empty;
#X connect 2 0 5 0 empty;
#X connect 2 0 3 0 empty;
#X connect 2 0 4 0 empty;
#X connect 2 0 1 0 empty;
#X connect 2 0 0 0 empty;
#X connect 3 0 5 0 empty;
#X connect 3 0 2 0 empty;
#X connect 3 0 4 0 empty;
#X connect 3 0 1 0 empty;
#X connect 3 0 0 0 empty;
#X connect 4 0 5 0 empty;
#X connect 4 0 2 0 empty;
#X connect 4 0 3 0 empty;
#X connect 4 0 0 0 empty;
#X connect 4 0 1 0 empty;
#X connect 5 0 2 0 empty;
#X connect 5 0 4 0 empty;
#X connect 5 0 3 0 empty;
#X connect 5 0 1 0 empty;
#X connect 5 0 0 0 empty;
