#N canvas 827 239 527 327 12;
#X obj 191 18 tgl 53 0 empty empty empty 17 7 0 10 #191919 #ffffff #ffffff 0 1;
#X obj 191 102 bng 33 250 50 0 empty empty empty 17 7 0 10 #191919 #ffffff #ffffff;
#X obj 191 190 nbx 18 62 -1e+37 1e+37 0 0 empty empty empty 0 -8 0 10 #191919 #ffffff #ffffff 0 256;
#X obj 191 259 select 0;
#X obj 237 347 dac~;
#X obj 337 260 osc~ 880;
#X msg 128 118 max \$1;
#X obj 191 287 bng 40 7000 5000 0 empty empty empty 17 7 0 10 #191919 #ffffff #ffffff;
#X obj 237 287 decay~ 10000;
#X obj 237 315 *~;
#X obj 337 287 *~ 0.2;
#X obj 84 190 vsl 83 143 0 1200 0 0 empty empty empty 0 -9 0 10 #191919 #ffffff #ffffff 0 1;
#X msg 96 156 range 0 \$1;
#X msg 34 29 5;
#X msg 34 59 10;
#X msg 34 89 15;
#X msg 34 119 20;
#X msg 34 179 30;
#X obj 81 29 nbx 4 18 0 120 0 0 empty empty empty 0 -8 0 10 #191919 #ffffff #ffffff 0 256;
#X obj 191 76 metro 1 1 sec;
#X msg 34 149 25;
#X msg 34 209 35;
#X msg 34 239 40;
#X obj 81 59 * 60;
#X obj 81 89 t f f f f;
#X obj 191 157 count 1200 0;
#X connect 0 0 19 0 empty;
#X connect 1 0 25 0 empty;
#X connect 2 0 3 0 empty;
#X connect 3 0 7 0 empty;
#X connect 5 0 10 0 empty;
#X connect 6 0 25 0 32.................G....DD...vA....AA...nA....;
#X connect 7 0 8 0 48.................C....7A...v.....e....b8+++uK....W++++6B...P1++++;
#X connect 8 0 9 0 32.................D....jE....A....YA...f.....;
#X connect 9 0 4 0 empty;
#X connect 9 0 4 1 32.................F....HA...fA....R....v.....;
#X connect 10 0 9 1 32.................D....f5+++OA....n9+++i.....;
#X connect 12 0 11 0 32.................J....H++++uB....x++++6.....;
#X connect 13 0 23 0 32.................E....nE...PA....ZA...PA....;
#X connect 14 0 23 0 48.................E....3A...PA....d....b9++++L....m++++OC...P6++++;
#X connect 15 0 23 0 48.................E....3A...PA....d....j7++++L....I++++OC...vy++++;
#X connect 16 0 23 0 48.................F....3A...fA....d....r5++++L....q9+++OC...Pr++++;
#X connect 17 0 23 0 48.................E....3A...PA....d....71++++L....u8+++OC...Pc++++;
#X connect 18 0 23 0 empty;
#X connect 19 0 1 0 empty;
#X connect 20 0 23 0 48.................C....3A...v.....d....z3++++L....M9+++OC...vj++++;
#X connect 21 0 23 0 48.................D....3A....A....d....D0++++L....Q8+++OC...vU++++;
#X connect 22 0 23 0 48.................F....3A...fA....d....Ly++++L....y7+++OC...PN++++;
#X connect 23 0 24 0 empty;
#X connect 24 0 11 0 empty;
#X connect 24 1 12 0 empty;
#X connect 24 2 25 0 32.................p....DE...fJ....QA...bC....;
#X connect 24 3 6 0 empty;
#X connect 25 0 2 0 empty;
#X connect 25 0 11 0 32.................I....L4+++eB....S9+++2.....;
