#N canvas 827 239 527 327 12;
#X obj 379 99 metro;
#X msg 379 59 tempo 1 persec;
#X obj 319 29 tgl 53 0 empty empty empty 17 7 0 10 #191919 #ffffff #ffffff 0 1;
#X obj 379 129 bng 33 250 50 0 empty empty empty 17 7 0 10 #191919 #ffffff #ffffff;
#X obj 379 179 count;
#X obj 379 219 nbx 26 62 -1e+37 1e+37 0 0 empty empty empty 0 -8 0 10 #191919 #ffffff #ffffff 0 256;
#X obj 209 69 expr $f1*60;
#X msg 209 139 reset \$1;
#X msg 79 139 down;
#X obj 379 309 select 0;
#X obj 159 469 dac~;
#X obj 159 359 osc~ 880;
#X msg 139 139 min 0;
#X msg 289 139 max \$1;
#X msg 209 29 25;
#X obj 379 349 bng 128 250 50 0 empty empty empty 17 7 0 10 #191919 #ffffff #ffffff;
#X obj 209 99 t f f;
#X obj 239 359 decay~ 10000;
#X obj 159 429 *~;
#X obj 159 389 *~ 0.2;
#X connect 0 0 3 0 empty;
#X connect 1 0 0 0 empty;
#X connect 2 0 0 0 32.................I....vC...PB....7....HA....;
#X connect 3 0 4 0 empty;
#X connect 4 0 5 0 empty;
#X connect 5 0 9 0 empty;
#X connect 6 0 16 0 empty;
#X connect 7 0 4 0 32.................J....nJ...fB....pB...PA....;
#X connect 8 0 4 0 32.................J....vR...fB....rD...PA....;
#X connect 9 0 15 0 empty;
#X connect 11 0 19 0 empty;
#X connect 12 0 4 0 32.................J.....O...fB....vC...PA....;
#X connect 13 0 4 0 32.................J....nE...fB....ZA...PA....;
#X connect 14 0 6 0 empty;
#X connect 15 0 17 0 48.................J....P8+++uB....T++++S3+++ec++++D9+++W2+++Oi++++;
#X connect 16 0 7 0 empty;
#X connect 16 1 13 0 32.................J....TD...fB....EA...PA....;
#X connect 17 0 18 1 32.................n....v6+++OJ....79+++KC....;
#X connect 18 0 10 0 empty;
#X connect 18 0 10 1 32.................J....HA...fB....R....PA....;
#X connect 19 0 18 0 empty;
