#N canvas 827 239 455 455 12;
#X obj 209 85 tgl 53 0 empty empty empty 17 7 0 10 #191919 #ffffff #ffffff 0 1;
#X obj 136 198 nbx 18 62 -1e+37 1e+37 0 0 empty empty empty 0 -8 0 10 #191919 #ffffff #ffffff 0 256;
#X obj 136 265 select 0;
#X obj 136 396 dac~;
#X msg 147 143 max \$1;
#X obj 136 291 bng 40 7000 5000 0 empty empty empty 17 7 0 10 #191919 #ffacab #ffffff;
#X obj 136 364 *~;
#X obj 230 336 *~ 0.2;
#X msg 94 42 5;
#X msg 94 72 10;
#X msg 94 102 15;
#X msg 94 132 20;
#X msg 94 192 30;
#X obj 136 42 nbx 4 18 0 120 0 0 empty empty empty 0 -8 0 10 #191919 #ffffff #ffffff 0 256;
#X obj 209 143 metro 1 1 sec;
#X msg 94 162 25;
#X msg 94 222 35;
#X msg 94 252 40;
#X obj 136 65 * 60;
#X obj 136 172 count 1200 0;
#X obj 136 116 t f f;
#X obj 136 91 nbx 4 18 -1e+37 1e+37 0 0 empty empty empty 0 -8 0 10 #191919 #ffffff #ffffff 0 256;
#X obj 136 336 decay~ 5000;
#X obj 230 311 osc~ 880;
#X connect 0 0 14 0 empty;
#X connect 1 0 2 0 empty;
#X connect 2 0 5 0 empty;
#X connect 4 0 19 0 32.................E....X++++eA....1++++m.....;
#X connect 5 0 22 0 empty;
#X connect 6 0 3 0 empty;
#X connect 6 0 3 1 32.................F....HA...fA....R....v.....;
#X connect 7 0 6 1 32.................D....X5+++OA....l9+++i.....;
#X connect 8 0 13 0 48.................D....fA....A....X....f9++++K....n+++++B...P6++++;
#X connect 9 0 13 0 48.................E....fA...PA....X....n7++++K....J+++++B...vy++++;
#X connect 10 0 13 0 48.................D....fA....A....X....v5++++K....r9++++B...Pr++++;
#X connect 11 0 13 0 48.................E....fA...PA....X....33++++K....N9++++B...vj++++;
#X connect 12 0 13 0 48.................D....fA....A....X....H0++++K....R8++++B...vU++++;
#X connect 13 0 18 0 empty;
#X connect 14 0 19 0 32.................E....f6+++eA....39+++m.....;
#X connect 15 0 13 0 48.................D....fA....A....X.....2++++K....v8++++B...Pc++++;
#X connect 16 0 13 0 48.................E....fA...PA....X....Py++++K....z7++++B...PN++++;
#X connect 17 0 13 0 48.................F....fA...fA....X....Xw++++K....V7++++B...vF++++;
#X connect 18 0 21 0 empty;
#X connect 19 0 1 0 empty;
#X connect 20 0 19 0 empty;
#X connect 20 1 4 0 empty;
#X connect 21 0 20 0 empty;
#X connect 22 0 6 0 empty;
#X connect 23 0 7 0 empty;
