#N canvas 827 239 527 327 12;
#X obj 389 29 tgl 53 0 empty empty empty 17 7 0 10 #191919 #ffffff #ffffff 0 1;
#X obj 389 129 bng 33 250 50 0 empty empty empty 17 7 0 10 #191919 #ffffff #ffffff;
#X obj 389 179 count;
#X obj 389 219 nbx 26 62 -1e+37 1e+37 0 0 empty empty empty 0 -8 0 10 #191919 #ffffff #ffffff 0 256;
#X obj 209 69 expr $f1*60;
#X msg 209 139 reset \$1;
#X msg 459 139 down;
#X obj 389 309 select 0;
#X obj 159 469 dac~;
#X obj 159 359 osc~ 880;
#X msg 519 139 min 0;
#X msg 289 139 max \$1;
#X obj 389 349 bng 128 250 50 0 empty empty empty 17 7 0 10 #191919 #ffffff #ffffff;
#X obj 209 99 t f f;
#X obj 239 359 decay~ 10000;
#X obj 159 429 *~;
#X obj 159 389 *~ 0.2;
#X obj 309 219 vsl 56 115 0 60 0 0 empty empty empty 0 -9 0 10 #191919 #ffffff #ffffff 0 1;
#X msg 119 139 range 0 \$1;
#X msg 19 29 5;
#X msg 49 29 10;
#X msg 89 29 15;
#X msg 129 29 20;
#X msg 209 29 30;
#X obj 329 29 nbx 4 18 0 120 0 1 empty empty empty 0 -8 0 10 #191919 #ffffff #ffffff 0 256;
#X obj 519 99 loadbang;
#X obj 389 99 metro 1 1 sec;
#X msg 169 29 25;
#X msg 249 29 35;
#X msg 289 29 40;
#X connect 0 0 26 0 empty;
#X connect 1 0 2 0 empty;
#X connect 2 0 3 0 empty;
#X connect 2 0 17 0 32.................J....D6+++uB....w9+++SA....;
#X connect 3 0 7 0 empty;
#X connect 4 0 13 0 empty;
#X connect 5 0 2 0 32.................J....nJ...fB....pB...PA....;
#X connect 6 0 2 0 32.................J....vR...fB....rD...PA....;
#X connect 7 0 12 0 empty;
#X connect 9 0 16 0 empty;
#X connect 10 0 2 0 32.................J.....O...fB....vC...PA....;
#X connect 11 0 2 0 32.................J....nE...fB....ZA...PA....;
#X connect 12 0 14 0 48.................J....P8+++uB....T++++S3+++ec++++D9+++W2+++Oi++++;
#X connect 13 0 5 0 empty;
#X connect 13 0 18 0 32.................J....b5+++uB....m9+++SA....;
#X connect 13 1 11 0 32.................J....TD...fB....EA...PA....;
#X connect 14 0 15 1 32.................n....v6+++OJ....79+++KC....;
#X connect 15 0 8 0 empty;
#X connect 15 0 8 1 32.................J....HA...fB....R....PA....;
#X connect 16 0 15 0 empty;
#X connect 18 0 17 0 32.................v....3K....L....9B...vC....;
#X connect 19 0 4 0 32.................J....3K...fB....9B...PA....;
#X connect 20 0 4 0 32.................J.....J...fB....fB...PA....;
#X connect 21 0 4 0 32.................J....fG...fB....3A...PA....;
#X connect 22 0 4 0 32.................J.....E...fB....PA...PA....;
#X connect 23 0 4 0 32.................J.........fB.........PA....;
#X connect 24 0 4 0 32.................M....j3+++eC....I9+++aA....;
#X connect 25 0 10 0 empty;
#X connect 25 0 6 0 32.................J....T7+++uB....E++++SA....;
#X connect 26 0 1 0 empty;
#X connect 27 0 4 0 32.................J....fB...fB....n....PA....;
#X connect 28 0 4 0 32.................J....j8+++uB....Y++++SA....;
#X connect 29 0 4 0 32.................J....D6+++uB....w9+++SA....;
