#N canvas 827 239 527 327 12;
#X obj 244 9 tgl 53 0 empty empty empty 17 7 0 10 #191919 #ffffff #ffffff 0 1;
#X obj 244 109 bng 33 250 50 0 empty empty empty 17 7 0 10 #191919 #ffffff #ffffff;
#X obj 244 159 count;
#X obj 244 199 nbx 18 62 -1e+37 1e+37 0 0 empty empty empty 0 -8 0 10 #191919 #ffffff #ffffff 0 256;
#X msg 103 119 reset \$1;
#X msg 314 119 down;
#X obj 244 268 select 0;
#X obj 164 486 dac~;
#X obj 164 386 osc~ 880;
#X msg 374 119 min 0;
#X msg 174 119 max \$1;
#X obj 244 296 bng 108 250 50 0 empty empty empty 17 7 0 10 #191919 #ffffff #ffffff;
#X obj 244 416 decay~ 10000;
#X obj 164 446 *~;
#X obj 164 416 *~ 0.2;
#X obj 89 199 vsl 83 143 0 0 0 0 empty empty empty 0 -9 0 10 #191919 #ffffff #ffffff 0 1;
#X msg 89 159 range 0 \$1;
#X msg 19 9 5;
#X msg 19 39 10;
#X msg 19 69 15;
#X msg 19 99 20;
#X msg 19 159 30;
#X obj 19 249 nbx 4 18 0 120 0 1 empty empty empty 0 -8 0 10 #191919 #ffffff #ffffff 0 256;
#X obj 374 79 loadbang;
#X obj 244 79 metro 1 1 sec;
#X msg 19 129 25;
#X msg 19 189 35;
#X msg 19 219 40;
#X obj 89 49 * 60;
#X obj 89 79 t f f f;
#X connect 0 0 24 0 empty;
#X connect 1 0 2 0 empty;
#X connect 2 0 3 0 empty;
#X connect 2 0 15 0 32.................J....D6+++uB....w9+++SA....;
#X connect 3 0 6 0 empty;
#X connect 4 0 2 0 32.................J....nJ...fB....pB...PA....;
#X connect 5 0 2 0 32.................J....vR...fB....rD...PA....;
#X connect 6 0 11 0 empty;
#X connect 8 0 14 0 empty;
#X connect 9 0 2 0 32.................J.....O...fB....vC...PA....;
#X connect 10 0 2 0 32.................J....nE...fB....ZA...PA....;
#X connect 11 0 12 0 empty;
#X connect 12 0 13 1 32.................E....v6+++eA....79+++q.....;
#X connect 13 0 7 0 empty;
#X connect 13 0 7 1 32.................I....HA...PB....R....3A....;
#X connect 14 0 13 0 empty;
#X connect 16 0 15 0 32.................J....nE...fB....ZA...PA....;
#X connect 17 0 28 0 32.................E....nE...PA....ZA...PA....;
#X connect 18 0 28 0 48.................E....zB...PA....s....j9+++uV....o++++qE...v8++++;
#X connect 19 0 28 0 48.................E....zB...PA....s....v7+++uV....L++++qE...P1++++;
#X connect 20 0 28 0 48.................F....zB...fA....s....z5+++uV....s9+++qE...vt++++;
#X connect 21 0 28 0 48.................E....zB...PA....s....D2+++uV....w8+++qE...ve++++;
#X connect 22 0 28 0 48.................E....zB...PA....s....jw+++uV....Y7+++qE...vI++++;
#X connect 23 0 9 0 empty;
#X connect 23 0 5 0 32.................J....T7+++uB....E++++SA....;
#X connect 24 0 1 0 empty;
#X connect 25 0 28 0 48.................C....zB...v.....s....73+++uV....O9+++qE...Pm++++;
#X connect 26 0 28 0 48.................D....zB....A....s....L0+++uV....S8+++qE...PX++++;
#X connect 27 0 28 0 48.................F....zB...fA....s....Py+++uV....z7+++qE...vP++++;
#X connect 28 0 29 0 empty;
#X connect 29 0 16 0 empty;
#X connect 29 1 4 0 empty;
#X connect 29 2 10 0 32.................J....bD...fB....GA...PA....;
