#N canvas 827 239 527 327 12;
#X obj 136 381 note 0 85 JetBrains\ Mono empty 0 0 102 255 0 25 25 25 1 0 :^ _ ^:;
#X obj 136 49 keyname;
#X obj 136 79 tgl 25 0 empty empty empty 17 7 0 10 #191919 #ffffff #ffffff 0 1;
#X obj 136 119 select 1;
#X msg 169 265 set :> _ <:;
#X msg 136 229 set :^ _ ^:;
#X obj 256 319 colors -rgb;
#X msg 256 285 hsl \$1 100 50;
#X msg 256 349 color \$1 \$2 \$3;
#X obj 256 219 metro;
#X obj 256 249 count 0 360;
#X msg 279 179 1;
#X msg 313 179 30;
#X obj 209 179 loadbang;
#N canvas 0 50 450 250 (subpatch) 1;
#X obj 175 391 note 0 85 JetBrains\ Mono empty 0 0 255 204 0 25 25 25 1 0 :^ _ ^:;
#X obj 175 59 keyname;
#X obj 175 89 tgl 25 0 empty empty empty 17 7 0 10 #191919 #ffffff #ffffff 0 1;
#X obj 175 129 select 1;
#X msg 208 275 set :> _ <:;
#X msg 175 239 set :^ _ ^:;
#X obj 295 329 colors -rgb;
#X msg 295 295 hsl \$1 100 50;
#X msg 295 359 color \$1 \$2 \$3;
#X obj 295 229 metro;
#X obj 295 259 count 0 360;
#X msg 318 189 1;
#X msg 352 189 30;
#X obj 248 189 loadbang;
#X connect 1 0 2 0 empty;
#X connect 2 0 3 0 empty;
#X connect 3 0 5 0 empty;
#X connect 3 0 11 0 empty;
#X connect 3 1 4 0 empty;
#X connect 3 1 12 0 empty;
#X connect 4 0 0 0 empty;
#X connect 5 0 0 0 empty;
#X connect 6 0 8 0 empty;
#X connect 7 0 6 0 empty;
#X connect 8 0 0 0 empty;
#X connect 9 0 10 0 empty;
#X connect 10 0 7 0 empty;
#X connect 11 0 9 1 empty;
#X connect 12 0 9 1 empty;
#X connect 13 0 9 0 empty;
#X coords 0 1 100 -1 279 90 1 176 392;
#X restore 399 49 graph;
#X connect 1 0 2 0 empty;
#X connect 2 0 3 0 empty;
#X connect 3 0 5 0 empty;
#X connect 3 0 11 0 empty;
#X connect 3 1 4 0 empty;
#X connect 3 1 12 0 empty;
#X connect 4 0 0 0 empty;
#X connect 5 0 0 0 empty;
#X connect 6 0 8 0 empty;
#X connect 7 0 6 0 empty;
#X connect 8 0 0 0 empty;
#X connect 9 0 10 0 empty;
#X connect 10 0 7 0 empty;
#X connect 11 0 9 1 empty;
#X connect 12 0 9 1 empty;
#X connect 13 0 9 0 empty;
