#N canvas 827 239 527 327 12;
#N canvas 0 50 450 250 (subpatch) 0;
#X text 0 0 plugdatainfo <?xml version="1.0" encoding="UTF-8"?> <plugdatainfo/>;
#X coords 0 1 100 -1 1 1 1;
#X restore 0 0 graph;
#X obj 454 41 adc~;
#X obj 388 451 dac~;
#X obj 648 187 nbx 4 18 -1e+37 1e+37 0 1 empty empty empty 0 -8 0 10 #191919 #ffffff #ffffff 4 256;
#X obj 613 157 nbx 4 18 -1e+37 1e+37 0 1 empty empty empty 0 -8 0 10 #191919 #ffffff #ffffff 82 256;
#X obj 580 123 nbx 4 18 -1e+37 1e+37 0 1 empty empty empty 0 -8 0 10 #191919 #ffffff #ffffff 2017 256;
#X obj 523 291 clone f-transpose 16;
#X obj 388 291 clone f-transpose 16;
#X obj 388 359 /~ 16;
#X obj 544 363 /~ 16;
#X connect 1 0 7 0;
#X connect 1 1 6 0;
#X connect 3 0 6 3;
#X connect 3 0 7 3;
#X connect 4 0 6 2;
#X connect 4 0 7 2;
#X connect 5 0 6 1;
#X connect 5 0 7 1;
#X connect 6 0 9 0;
#X connect 7 0 8 0;
#X connect 8 0 2 0;
#X connect 9 0 2 1;
