#N canvas 827 239 527 327 12;
#N canvas 0 50 450 250 (subpatch) 0;
#X text 0 0 plugdatainfo <?xml version="1.0" encoding="UTF-8"?> <plugdatainfo/>;
#X coords 0 1 100 -1 1 1 1;
#X restore 0 0 graph;
#X obj 206 309 s pd-test;
#X msg 184 158 msg 10 10 hello, f 16;
#X msg 214 203 obj 10 50 print;
#X msg 226 246 connect 0 0 1 0, f 16;
#N canvas 0 50 450 300 test 1;
#N canvas 0 50 450 250 (subpatch) 0;
#X text 0 0 plugdatainfo <?xml version="1.0" encoding="UTF-8"?> <plugdatainfo/>;
#X coords 0 1 100 -1 1 1 1;
#X restore 0 0 graph;
#X restore 373 309 pd test;
#X text 336 88 why did this change when i only typed "listbox 10 10 9 0 0 0 - - - 0" in there, f 31;
#X msg 150 88 listbox 10 10 9 0 0 0 - - - 0 9 0 0 0 empty - - 0, f 25;
#X connect 2 0 1 0;
#X connect 3 0 1 0;
#X connect 4 0 1 0;
#X connect 7 0 1 0;
