#N canvas 827 239 527 327 12;
#X obj 99 119 datetime;
#X obj 99 79 bng 25 250 50 0 empty empty empty 17 7 0 10 #191919 #ffffff #ffffff;
#X symbolatom 99 419 29 0 0 0 - - - 16;
#X obj 249 159 unpack f f f;
#X obj 99 159 unpack f f f;
#X obj 249 199 - 2000;
#X obj 99 339 pack s s s f s s;
#X obj 99 199 makefilename %02d;
#X obj 119 229 makefilename %02d;
#X obj 139 259 makefilename %02d;
#X obj 269 229 makefilename %02d;
#X obj 289 259 makefilename %02d;
#X msg 99 379 symbol \$4\$5\$6-\$1\$2\$3;
#X connect 0 0 4 0 empty;
#X connect 0 1 3 0 empty;
#X connect 1 0 0 0 empty;
#X connect 3 0 5 0 empty;
#X connect 3 1 10 0 empty;
#X connect 3 2 11 0 empty;
#X connect 4 0 7 0 empty;
#X connect 4 1 8 0 empty;
#X connect 4 2 9 0 empty;
#X connect 5 0 6 3 empty;
#X connect 6 0 12 0 empty;
#X connect 7 0 6 0 empty;
#X connect 8 0 6 1 empty;
#X connect 9 0 6 2 empty;
#X connect 10 0 6 4 empty;
#X connect 11 0 6 5 empty;
#X connect 12 0 2 0 empty;
