#N canvas 827 239 527 327 12;
#X obj 359 279 print;
#X msg 239 29 a;
#X msg 219 169 b;
#X msg 259 169 c;
#X msg 239 249 d;
#X obj 229 129 t b b;
#X obj 299 279 print;
#X obj 264 208 t b a;
#X obj 279 79 t b a;
#X obj 195 275 print;
#X connect 1 0 8 0;
#X connect 2 0 9 0;
#X connect 3 0 7 0;
#X connect 4 0 9 0;
#X connect 5 0 2 0;
#X connect 5 1 3 0;
#X connect 7 0 4 0;
#X connect 7 1 6 0;
#X connect 8 0 5 0;
#X connect 8 1 0 0;
