#N canvas 519 102 450 300 12;
#N canvas 109 245 450 300 hi 1;
#X obj 53 95 s pd-hi;
#X msg 45 40 vis 0;
#X obj 204 85 bng 20 250 50 0 empty empty empty 0 -10 0 12 #fcfcfc #000000 #000000;
#N canvas 0 50 450 250 (subpatch) 0;
#X array oo 10 float 2;
#X coords 0 1 10 -1 200 140 1;
#X restore 33 150 graph;
#X connect 1 0 0 0 empty;
#X restore 149 94 pd hi;
#X obj 53 95 s pd-hi;
#X msg 15 25 vis 1;
#X msg 71 33 arraydialog oo 10 2 8;
#X text 219 28 workn't in pulgdata;
#X connect 2 0 1 0 empty;
#X connect 3 0 1 0 empty;
