#N canvas 827 239 527 327 12;
#N canvas 0 50 450 250 (subpatch) 0;
#X text 0 0 plugdatainfo <?xml version="1.0" encoding="UTF-8"?> <plugdatainfo><InfoObj ID="16.E....X..........A....." Updated="0" Segmented="1" Path="32.................P....L9+++OD....i++++yA...."/><InfoObj ID="16.E....3..........A....." Updated="0" Segmented="1" Path="32.................JA...L9+++uR....i++++WE...."/><InfoObj ID="16.E....7..........A....." Updated="0" Segmented="1" Path="32.................p....L9+++uJ....i++++iC...."/><InfoObj ID="16.E....v..........A....." Updated="0" Segmented="1" Path="32..................B...L9+++Of....i++++yH...."/><InfoObj ID="16.E....z..........A....." Updated="0" Segmented="1" Path="32.................gA...L9+++eX....i++++CG...."/><InfoObj ID="16.E....f..........A....." Updated="0" Segmented="1" Path="32.................nA...zB....Z....s.....G...."/><InfoObj ID="16.E....j..........A....." Updated="0" Segmented="1" Path="32.................LA...zB....S....s....PE...."/><InfoObj ID="16.E.....A.........A....." Updated="0" Segmented="1" Path="32.................+A...zB...ve....s....vH...."/><InfoObj ID="16.E....n..........A....." Updated="0" Segmented="1" Path="32.................w....zB...PL....s....jC...."/><InfoObj ID="16.E....r..........A....." Updated="0" Segmented="1" Path="32.................Q....zB...PD....s....vA...."/></plugdatainfo>;
#X coords 0 1 100 -1 1 1 1;
#X restore 0 0 graph;
#X text 39 238 🏳️‍⚧️🏴‍☠️;
#X text 39 263 🦊 🦋;
#X text 39 311 ❤️🧡💛💚💙💜;
#X text 39 288 🌺🪷🌸🌼🌷🥀🌹🌻💐;
#X obj 411 35 cnv 280 279 282 empty disp 🌼 -12 134 0 286 #000000 #ffacab 0;
#X obj 64 187 s disp;
#X msg 94 139 label 🦋, f 8;
#X text 19 357 😀 😃 😄 😁 😆 😅 😂 🤣 🥲 🥹 ☺️ 😊 😇 🙂 🙃 😉 😌 😍 🥰 😘 😗 😙 😚 😋 😛 😝 😜 🤪 🤨 🧐 🤓 😎 🥸 🤩 🥳 😏 😒 😞 😔 😟 😕 🙁 ☹️ 😣 😖 😫 😩 🥺 😢 😭 😮‍💨 😤 😠 😡 🤬 🤯 😳 🥵 🥶 😱 😨 😰 😥 😓 🫣 🤗 🫡 🤔 🫢 🤭 🤫 🤥 😶 😶‍🌫️ 😐 😑 😬 🫠 🙄 😯 😦 😧 😮 😲 🥱 😴 🤤 😪 😵 😵‍💫 🫥 🤐 🥴 🤢 🤮 🤧 😷 🤒 🤕 🤑 🤠 😈 👿 👹 👺 🤡 💩 👻 💀 ☠️ 👽 👾 🤖 🎃 😺 😸 😹 😻 😼 😽 🙀 😿 😾 👋 🤚 🖐 ✋ 🖖 👌 🤌 🤏 ✌️ 🤞 🫰 🤟 🤘 🤙 🫵 🫱 🫲 🫳 🫴 👈 👉 👆 🖕 👇 ☝️ 👍 👎 ✊ 👊 🤛 🤜 👏 🫶 🙌 👐 🤲 🤝 🙏 ✍️ 💅 🤳 💪 🦾 🦵 🦿 🦶 👣 👂 🦻 👃 🫀 🫁 🧠 🦷 🦴 👀 👁 👅 👄 🫦 💋 🩸 👶 👧 🧒 👦 👩 🧑 👨 👩‍🦱 🧑‍🦱 👨‍🦱 👩‍🦰 🧑‍🦰 👨‍🦰 👱‍♀️ 👱 👱‍♂️ 👩‍🦳 🧑‍🦳 👨‍🦳 👩‍🦲 🧑‍🦲 👨‍🦲 🧔‍♀️ 🧔 🧔‍♂️ 👵 🧓 👴 👲 👳‍♀️ 👳 👳‍♂️ 🧕 👮‍♀️ 👮 👮‍♂️ 👷‍♀️ 👷 👷‍♂️ 💂‍♀️ 💂 💂‍♂️ 🕵️‍♀️ 🕵️ 🕵️‍♂️ 👩‍⚕️ 🧑‍⚕️ 👨‍⚕️ 👩‍🌾 🧑‍🌾 👨‍🌾 👩‍🍳 🧑‍🍳 👨‍🍳 👩‍🎓 🧑‍🎓 👨‍🎓 👩‍🎤 🧑‍🎤 👨‍🎤 👩‍🏫 🧑‍🏫 👨‍🏫 👩‍🏭 🧑‍🏭 👨‍🏭 👩‍💻 🧑‍💻 👨‍💻 👩‍💼 🧑‍💼 👨‍💼 👩‍🔧 🧑‍🔧 👨‍🔧 👩‍🔬 🧑‍🔬 👨‍🔬 👩‍🎨 🧑‍🎨 👨‍🎨 👩‍🚒 🧑‍🚒 👨‍🚒 👩‍✈️ 🧑‍✈️ 👨‍✈️ 👩‍🚀 🧑‍🚀 👨‍🚀 👩‍⚖️ 🧑‍⚖️ 👨‍⚖️ 👰‍♀️ 👰 👰‍♂️ 🤵‍♀️ 🤵 🤵‍♂️ 👸 🫅 🤴 🥷 🦸‍♀️ 🦸 🦸‍♂️ 🦹‍♀️ 🦹 🦹‍♂️ 🤶 🧑‍🎄 🎅 🧙‍♀️ 🧙 🧙‍♂️ 🧝‍♀️ 🧝 🧝‍♂️ 🧛‍♀️ 🧛 🧛‍♂️ 🧟‍♀️ 🧟 🧟‍♂️ 🧞‍♀️ 🧞 🧞‍♂️ 🧜‍♀️ 🧜 🧜‍♂️ 🧚‍♀️ 🧚 🧚‍♂️ 🧌 👼 🤰 🫄 🫃 🤱 👩‍🍼 🧑‍🍼 👨‍🍼 🙇‍♀️ 🙇 🙇‍♂️ 💁‍♀️ 💁 💁‍♂️ 🙅‍♀️ 🙅 🙅‍♂️ 🙆‍♀️ 🙆 🙆‍♂️ 🙋‍♀️ 🙋 🙋‍♂️ 🧏‍♀️ 🧏 🧏‍♂️ 🤦‍♀️ 🤦 🤦‍♂️ 🤷‍♀️ 🤷 🤷‍♂️ 🙎‍♀️ 🙎 🙎‍♂️ 🙍‍♀️ 🙍 🙍‍♂️ 💇‍♀️ 💇 💇‍♂️ 💆‍♀️ 💆 💆‍♂️ 🧖‍♀️ 🧖 🧖‍♂️ 💅 🤳 💃 🕺 👯‍♀️ 👯 👯‍♂️ 🕴 👩‍🦽 🧑‍🦽 👨‍🦽 👩‍🦼 🧑‍🦼 👨‍🦼 🚶‍♀️ 🚶 🚶‍♂️ 👩‍🦯 🧑‍🦯 👨‍🦯 🧎‍♀️ 🧎 🧎‍♂️ 🏃‍♀️ 🏃 🏃‍♂️ 🧍‍♀️ 🧍 🧍‍♂️ 👭 🧑‍🤝‍🧑 👬 👫 👩‍❤️‍👩 💑 👨‍❤️‍👨 👩‍❤️‍👨 👩‍❤️‍💋‍👩 💏 👨‍❤️‍💋‍👨 👩‍❤️‍💋‍👨 👪 👨‍👩‍👦 👨‍👩‍👧 👨‍👩‍👧‍👦 👨‍👩‍👦‍👦 👨‍👩‍👧‍👧 👨‍👨‍👦 👨‍👨‍👧 👨‍👨‍👧‍👦 👨‍👨‍👦‍👦 👨‍👨‍👧‍👧 👩‍👩‍👦 👩‍👩‍👧 👩‍👩‍👧‍👦 👩‍👩‍👦‍👦 👩‍👩‍👧‍👧 👨‍👦 👨‍👦‍👦 👨‍👧 👨‍👧‍👦 👨‍👧‍👧 👩‍👦 👩‍👦‍👦 👩‍👧 👩‍👧‍👦 👩‍👧‍👧 🗣 👤 👥 🫂 🧳 🌂 ☂️ 🧵 🪡 🪢 🧶 👓 🕶 🥽 🥼 🦺 👔 👕 👖 🧣 🧤 🧥 🧦 👗 👘 🥻 🩴 🩱 🩲 🩳 👙 👚 👛 👜 👝 🎒 👞 👟 🥾 🥿 👠 👡 🩰 👢 👑 👒 🎩 🎓 🧢 ⛑ 🪖 💄 💍 💼 🐶 🐱 🐭 🐹 🐰 🦊 🐻 🐼 🐻‍❄️ 🐨 🐯 🦁 🐮 🐷 🐽 🐸 🐵 🙈 🙉 🙊 🐒 🐔 🐧 🐦 🐤 🐣 🐥 🦆 🦅 🦉 🦇 🐺 🐗 🐴 🦄 🐝 🪱 🐛 🦋 🐌 🐞 🐜 🪰 🪲 🪳 🦟 🦗 🕷 🕸 🦂 🐢 🐍 🦎 🦖 🦕 🐙 🦑 🦐 🦞 🦀 🪸 🐡 🐠 🐟 🐬 🐳 🐋 🦈 🐊 🐅 🐆 🦓 🦍 🦧 🦣 🐘 🦛 🦏 🐪 🐫 🦒 🦘 🦬 🐃 🐂 🐄 🐎 🐖 🐏 🐑 🦙 🐐 🦌 🐕 🐩 🦮 🐕‍🦺 🐈 🐈‍⬛ 🪶 🐓 🦃 🦤 🦚 🦜 🦢 🦩 🕊 🐇 🦝 🦨 🦡 🦫 🦦 🦥 🐁 🐀 🐿 🦔 🐾 🐉 🐲 🌵 🎄 🌲 🌳 🌴 🪹 🪺 🪵 🌱 🌿 ☘️ 🍀 🎍 🪴 🎋 🍃 🍂 🍁 🍄 🐚 🪨 🌾 💐 🌷 🪷 🌹 🥀 🌺 🌸 🌼 🌻 🌞 🌝 🌛 🌜 🌚 🌕 🌖 🌗 🌘 🌑 🌒 🌓 🌔 🌙 🌎 🌍 🌏 🪐 💫 ⭐️ 🌟 ✨ ⚡️ ☄️ 💥 🔥 🌪 🌈 ☀️ 🌤 ⛅️ 🌥 ☁️ 🌦 🌧 ⛈ 🌩 🌨 ❄️ ☃️ ⛄️ 🌬 💨 💧 💦 🫧 ☔️ ☂️ 🌊 🌫 🍏 🍎 🍐 🍊 🍋 🍌 🍉 🍇 🍓 🫐 🍈 🍒 🍑 🥭 🍍 🥥 🥝 🍅 🍆 🥑 🥦 🥬 🥒 🌶 🫑 🌽 🥕 🫒 🧄 🧅 🥔 🍠 🫘 🥐 🥯 🍞 🥖 🥨 🧀 🥚 🍳 🧈 🥞 🧇 🥓 🥩 🍗 🍖 🦴 🌭 🍔 🍟 🍕 🫓 🥪 🥙 🧆 🌮 🌯 🫔 🥗 🥘 🫕 🥫 🍝 🍜 🍲 🍛 🍣 🍱 🥟 🦪 🍤 🍙 🍚 🍘 🍥 🥠 🥮 🍢 🍡 🍧 🍨 🍦 🥧 🧁 🍰 🎂 🍮 🍭 🍬 🍫 🍿 🍩 🍪 🌰 🥜 🍯 🥛 🍼 🫖 ☕️ 🍵 🧃 🥤 🧋 🫙 🍶 🍺 🍻 🥂 🍷 🫗 🥃 🍸 🍹 🧉 🍾 🧊 🥄 🍴 🍽 🥣 🥡 🥢 🧂 ⚽️ 🏀 🏈 ⚾️ 🥎 🎾 🏐 🏉 🥏 🎱 🪀 🏓 🏸 🏒 🏑 🥍 🏏 🪃 🥅 ⛳️ 🪁 🏹 🎣 🤿 🥊 🥋 🎽 🛹 🛼 🛷 ⛸ 🥌 🎿 ⛷ 🏂 🪂 🏋️‍♀️ 🏋️ 🏋️‍♂️ 🤼‍♀️ 🤼 🤼‍♂️ 🤸‍♀️ 🤸 🤸‍♂️ ⛹️‍♀️ ⛹️ ⛹️‍♂️ 🤺 🤾‍♀️ 🤾 🤾‍♂️ 🏌️‍♀️ 🏌️ 🏌️‍♂️ 🏇 🧘‍♀️ 🧘 🧘‍♂️ 🏄‍♀️ 🏄 🏄‍♂️ 🏊‍♀️ 🏊 🏊‍♂️ 🤽‍♀️ 🤽 🤽‍♂️ 🚣‍♀️ 🚣 🚣‍♂️ 🧗‍♀️ 🧗 🧗‍♂️ 🚵‍♀️ 🚵 🚵‍♂️ 🚴‍♀️ 🚴 🚴‍♂️ 🏆 🥇 🥈 🥉 🏅 🎖 🏵 🎗 🎫 🎟 🎪 🤹 🤹‍♂️ 🤹‍♀️ 🎭 🩰 🎨 🎬 🎤 🎧 🎼 🎹 🥁 🪘 🎷 🎺 🪗 🎸 🪕 🎻 🎲 ♟ 🎯 🎳 🎮 🎰 🧩 🚗 🚕 🚙 🚌 🚎 🏎 🚓 🚑 🚒 🚐 🛻 🚚 🚛 🚜 🦯 🦽 🦼 🛴 🚲 🛵 🏍 🛺 🚨 🚔 🚍 🚘 🚖 🛞 🚡 🚠 🚟 🚃 🚋 🚞 🚝 🚄 🚅 🚈 🚂 🚆 🚇 🚊 🚉 ✈️ 🛫 🛬 🛩 💺 🛰 🚀 🛸 🚁 🛶 ⛵️ 🚤 🛥 🛳 ⛴ 🚢 ⚓️ 🛟 🪝 ⛽️ 🚧 🚦 🚥 🚏 🗺 🗿 🗽 🗼 🏰 🏯 🏟 🎡 🎢 🛝 🎠 ⛲️ ⛱ 🏖 🏝 🏜 🌋 ⛰ 🏔 🗻 🏕 ⛺️ 🛖 🏠 🏡 🏘 🏚 🏗 🏭 🏢 🏬 🏣 🏤 🏥 🏦 🏨 🏪 🏫 🏩 💒 🏛 ⛪️ 🕌 🕍 🛕 🕋 ⛩ 🛤 🛣 🗾 🎑 🏞 🌅 🌄 🌠 🎇 🎆 🌇 🌆 🏙 🌃 🌌 🌉 🌁 ⌚️ 📱 📲 💻 ⌨️ 🖥 🖨 🖱 🖲 🕹 🗜 💽 💾 💿 📀 📼 📷 📸 📹 🎥 📽 🎞 📞 ☎️ 📟 📠 📺 📻 🎙 🎚 🎛 🧭 ⏱ ⏲ ⏰ 🕰 ⌛️ ⏳ 📡 🔋 🪫 🔌 💡 🔦 🕯 🪔 🧯 🛢 💸 💵 💴 💶 💷 🪙 💰 💳 💎 ⚖️ 🪜 🧰 🪛 🔧 🔨 ⚒ 🛠 ⛏ 🪚 🔩 ⚙️ 🪤 🧱 ⛓ 🧲 🔫 💣 🧨 🪓 🔪 🗡 ⚔️ 🛡 🚬 ⚰️ 🪦 ⚱️ 🏺 🔮 📿 🧿 🪬 💈 ⚗️ 🔭 🔬 🕳 🩹 🩺 🩻 🩼 💊 💉 🩸 🧬 🦠 🧫 🧪 🌡 🧹 🪠 🧺 🧻 🚽 🚰 🚿 🛁 🛀 🧼 🪥 🪒 🧽 🪣 🧴 🛎 🔑 🗝 🚪 🪑 🛋 🛏 🛌 🧸 🪆 🖼 🪞 🪟 🛍 🛒 🎁 🎈 🎏 🎀 🪄 🪅 🎊 🎉 🪩 🎎 🏮 🎐 🧧 ✉️ 📩 📨 📧 💌 📥 📤 📦 🏷 🪧 📪 📫 📬 📭 📮 📯 📜 📃 📄 📑 🧾 📊 📈 📉 🗒 🗓 📆 📅 🗑 🪪 📇 🗃 🗳 🗄 📋 📁 📂 🗂 🗞 📰 📓 📔 📒 📕 📗 📘 📙 📚 📖 🔖 🧷 🔗 📎 🖇 📐 📏 🧮 📌 📍 ✂️ 🖊 🖋 ✒️ 🖌 🖍 📝 ✏️ 🔍 🔎 🔏 🔐 🔒 🔓 ❤️ 🧡 💛 💚 💙 💜 🖤 🤍 🤎 ❤️‍🔥 ❤️‍🩹 💔 ❣️ 💕 💞 💓 💗 💖 💘 💝 💟 ☮️ ✝️ ☪️ 🕉 ☸️ ✡️ 🔯 🕎 ☯️ ☦️ 🛐 ⛎ ♈️ ♉️ ♊️ ♋️ ♌️ ♍️ ♎️ ♏️ ♐️ ♑️ ♒️ ♓️ 🆔 ⚛️ 🉑 ☢️ ☣️ 📴 📳 🈶 🈚️ 🈸 🈺 🈷️ ✴️ 🆚 💮 🉐 ㊙️ ㊗️ 🈴 🈵 🈹 🈲 🅰️ 🅱️ 🆎 🆑 🅾️ 🆘 ❌ ⭕️ 🛑 ⛔️ 📛 🚫 💯 💢 ♨️ 🚷 🚯 🚳 🚱 🔞 📵 🚭 ❗️ ❕ ❓ ❔ ‼️ ⁉️ 🔅 🔆 〽️ ⚠️ 🚸 🔱 ⚜️ 🔰 ♻️ ✅ 🈯️ 💹 ❇️ ✳️ ❎ 🌐 💠 Ⓜ️ 🌀 💤 🏧 🚾 ♿️ 🅿️ 🛗 🈳 🈂️ 🛂 🛃 🛄 🛅 🚹 🚺 🚼 ⚧ 🚻 🚮 🎦 📶 🈁 🔣 ℹ️ 🔤 🔡 🔠 🆖 🆗 🆙 🆒 🆕 🆓 0️⃣ 1️⃣ 2️⃣ 3️⃣ 4️⃣ 5️⃣ 6️⃣ 7️⃣ 8️⃣ 9️⃣ 🔟 🔢 #️⃣ *️⃣ ⏏️ ▶️ ⏸ ⏯ ⏹ ⏺ ⏭ ⏮ ⏩ ⏪ ⏫ ⏬ ◀️ 🔼 🔽 ➡️ ⬅️ ⬆️ ⬇️ ↗️ ↘️ ↙️ ↖️ ↕️ ↔️ ↪️ ↩️ ⤴️ ⤵️ 🔀 🔁 🔂 🔄 🔃 🎵 🎶 ➕ ➖ ➗ ✖️ 🟰 ♾ 💲 💱 ™️ ©️ ®️ 〰️ ➰ ➿ 🔚 🔙 🔛 🔝 🔜 ✔️ ☑️ 🔘 🔴 🟠 🟡 🟢 🔵 🟣 ⚫️ ⚪️ 🟤 🔺 🔻 🔸 🔹 🔶 🔷 🔳 🔲 ▪️ ▫️ ◾️ ◽️ ◼️ ◻️ 🟥 🟧 🟨 🟩 🟦 🟪 ⬛️ ⬜️ 🟫 🔈 🔇 🔉 🔊 🔔 🔕 📣 📢 👁‍🗨 💬 💭 🗯 ♠️ ♣️ ♥️ ♦️ 🃏 🎴 🀄️ 🕐 🕑 🕒 🕓 🕔 🕕 🕖 🕗 🕘 🕙 🕚 🕛 🕜 🕝 🕞 🕟 🕠 🕡 🕢 🕣 🕤 🕥 🕦 🕧 ✢ ✣ ✤ ✥ ✦ ✧ ★ ☆ ✯ ✡︎ ✩ ✪ ✫ ✬ ✭ ✮ ✶ ✷ ✵ ✸ ✹ → ⇒ ⟹ ⇨ ⇾ ➾ ⇢ ☛ ☞ ➔ ➜ ➙ ➛ ➝ ➞ ♠︎ ♣︎ ♥︎ ♦︎ ♤ ♧ ♡ ♢ ♚ ♛ ♜ ♝ ♞ ♟ ♔ ♕ ♖ ♗ ♘ ♙ ⚀ ⚁ ⚂ ⚃ ⚄ ⚅ 🂠 ⚈ ⚉ ⚆ ⚇ 🏳️ 🏴 🏁 🚩 🏳️‍🌈 🏳️‍⚧️ 🏴‍☠️;
#X msg 19 55 label 🪷, f 8;
#X msg 19 83 label 🌸, f 8;
#X msg 19 110 label 🌼, f 8;
#X msg 19 139 label 🌷, f 8;
#X msg 94 27 label 🥀, f 8;
#X msg 94 55 label 🌹, f 8;
#X msg 94 82 label 🌻, f 8;
#X msg 94 111 label 💐, f 8;
#X msg 19 27 label 🌺, f 8;
#X symbolatom 282 189 9 0 0 0 - - - 0;
#N canvas 976 148 390 482 label 1;
#X obj 102 80 vsl 15 128 0 255 0 0 empty empty empty 0 -9 0 10 #0800fc #fcfcfc #000000 0 1;
#X obj 109 225 t b f;
#X obj 81 80 vsl 15 128 0 255 0 0 empty empty empty 0 -9 0 10 #00fc00 #000000 #000000 0 1;
#X obj 80 341 pack s s s;
#X obj 61 80 vsl 15 128 0 255 0 0 empty empty empty 0 -9 0 10 #fc0000 #000000 #000000 0 1;
#X obj 81 250 t b f;
#X obj 147 257 makefilename %02x;
#X obj 113 284 makefilename %02x;
#X obj 74 311 makefilename %02x;
#X text 66 56 label;
#X obj 80 406 outlet;
#X msg 80 370 symbol #\$1\$2\$3;
#X obj 161 185 loadbang;
#X msg 161 217 0;
#N canvas 0 50 450 250 (subpatch) 0;
#X text 0 0 plugdatainfo <?xml version="1.0" encoding="UTF-8"?> <plugdatainfo/>;
#X coords 0 1 100 -1 1 1 1;
#X restore 0 0 graph;
#X connect 0 0 1 0;
#X connect 1 0 2 0;
#X connect 1 1 6 0;
#X connect 2 0 5 0;
#X connect 3 0 11 0;
#X connect 4 0 8 0;
#X connect 5 0 4 0;
#X connect 5 1 7 0;
#X connect 6 0 3 2;
#X connect 7 0 3 1;
#X connect 8 0 3 0;
#X connect 11 0 10 0;
#X connect 12 0 13 0;
#X connect 13 0 6 0;
#X connect 13 0 7 0;
#X coords 0 -1 1 1 80 170 2 50 50;
#X restore 282 7 pd label;
#X symbolatom 180 188 9 0 0 0 - - - 0;
#N canvas 968 124 390 482 label 1;
#X obj 102 80 vsl 15 128 0 255 0 0 empty empty empty 0 -9 0 10 #0800fc #fcfcfc #000000 0 1;
#X obj 109 225 t b f;
#X obj 81 80 vsl 15 128 0 255 0 0 empty empty empty 0 -9 0 10 #00fc00 #000000 #000000 0 1;
#X obj 61 80 vsl 15 128 0 255 0 0 empty empty empty 0 -9 0 10 #fc0000 #000000 #000000 0 1;
#X obj 81 250 t b f;
#X obj 221 257 makefilename %02x;
#X obj 141 284 makefilename %02x;
#X obj 61 321 makefilename %02x;
#X obj 61 416 outlet;
#X text 52 56 background;
#X msg 61 380 symbol #\$1\$2\$3;
#X obj 176 59 loadbang;
#X obj 176 176 route set;
#X obj 61 351 pack symbol symbol symbol;
#X obj 277 71 cnv 15 100 60 empty empty empty 20 12 0 14 #e0e0e0 #404040 0;
#X msg 176 91 set 225;
#N canvas 0 50 450 250 (subpatch) 0;
#X text 0 0 plugdatainfo <?xml version="1.0" encoding="UTF-8"?> <plugdatainfo/>;
#X coords 0 1 100 -1 1 1 1;
#X restore 0 0 graph;
#X connect 0 0 1 0;
#X connect 1 0 2 0;
#X connect 1 1 5 0;
#X connect 2 0 4 0;
#X connect 3 0 7 0;
#X connect 4 0 3 0;
#X connect 4 1 6 0;
#X connect 5 0 13 2;
#X connect 6 0 13 1;
#X connect 7 0 13 0;
#X connect 10 0 8 0;
#X connect 11 0 15 0;
#X connect 12 0 5 0;
#X connect 12 0 6 0;
#X connect 13 0 10 0;
#X connect 15 0 3 0;
#X connect 15 0 2 0;
#X connect 15 0 0 0;
#X connect 15 0 12 0;
#X coords 0 -1 1 1 80 170 2 50 50;
#X restore 180 7 pd label;
#X obj 282 219 t b s;
#X obj 180 257 pack symbol symbol symbol;
#X msg 180 286 color \$1 \$2 \$3;
#X obj 180 318 s disp;
#X connect 7 0 6 0;
#X connect 9 0 6 0;
#X connect 10 0 6 0;
#X connect 11 0 6 0;
#X connect 12 0 6 0;
#X connect 13 0 6 0;
#X connect 14 0 6 0;
#X connect 15 0 6 0;
#X connect 16 0 6 0;
#X connect 17 0 6 0;
#X connect 18 0 22 0;
#X connect 19 0 18 0;
#X connect 20 0 23 0;
#X connect 21 0 20 0;
#X connect 22 0 23 0;
#X connect 22 1 23 2;
#X connect 23 0 24 0;
#X connect 24 0 25 0;
