#N canvas 827 239 527 327 12;
#X msg 154 193 hsl \$1 100 50;
#X obj 19 299 note 683 72 Source\ Code\ Pro empty 0 196 0 255 0 25 25 25 1 0 chaotic;
#X obj 154 221 colors -rgb;
#X msg 154 248 color \$1 \$2 \$3;
#X obj 19 59 tgl 25 0 empty empty empty 17 7 0 10 #191919 #ffffff #ffffff 0 1;
#X obj 19 164 rand.i 0 1;
#X obj 86 164 rand.i 0 1;
#X msg 19 193 bold \$1;
#X msg 86 193 italic \$1;
#X obj 263 223 text get -s text t;
#X msg 263 253 set \$1;
#X obj 154 9 loadbang;
#X obj 263 192 nbx 7 23 -1e+37 1e+37 0 0 empty empty empty 0 -8 0 10 #191919 #ffffff #ffffff 0 256;
#X obj 154 164 rand.i 0 360;
#X obj 263 163 count 0 16979;
#X msg 363 163 read empty.txt;
#X obj 346 193 text define empty;
#X obj 154 34 t b b b;
#X obj 154 136 metro;
#X obj 177 109 nbx 4 18 0 1e+37 0 1 empty empty empty 0 -8 0 10 #191919 #ffffff #ffffff 3 256;
#X obj 263 136 metro;
#X obj 286 109 nbx 4 18 0 1e+37 0 1 empty empty empty 0 -8 0 10 #191919 #ffffff #ffffff 488 256;
#X obj 86 135 metro;
#X obj 109 108 nbx 4 18 0 1e+37 0 1 empty empty empty 0 -8 0 10 #191919 #ffffff #ffffff 3 256;
#X obj 19 135 metro;
#X obj 42 108 nbx 4 18 0 1e+37 0 1 empty empty empty 0 -8 0 10 #191919 #ffffff #ffffff 3 256;
#X connect 0 0 2 0 empty;
#X connect 2 0 3 0 empty;
#X connect 3 0 1 0 32.................J....n2+++uB....58++++A....;
#X connect 4 0 24 0 empty;
#X connect 4 0 22 0 32.................R....LD...fD....CA...LC....;
#X connect 4 0 18 0 32.................M....bH...PC....GB...PC....;
#X connect 4 0 20 0 48.................H....vL....B....LC...f....P8....H....TO....M....;
#X connect 5 0 7 0 empty;
#X connect 6 0 8 0 empty;
#X connect 7 0 1 0 empty;
#X connect 8 0 1 0 32.................M....36+++eC....99+++aE....;
#X connect 9 0 10 0 empty;
#X connect 10 0 1 0 32.................P....vv+++OD....L7+++qA....;
#X connect 11 0 17 0 empty;
#X connect 12 0 9 0 empty;
#X connect 13 0 0 0 empty;
#X connect 14 0 12 0 empty;
#X connect 15 0 16 0 32.................E....f7+++eA....H++++q.....;
#X connect 16 0 9 3 empty;
#X connect 17 0 4 0 32.................C....n2++++.....58+++W.....;
#X connect 17 1 16 0 32.................N....LK...fC....yB...vG....;
#X connect 17 2 15 0 32.................I....TK...PB....0B...3E....;
#X connect 18 0 13 0 empty;
#X connect 19 0 18 1 empty;
#X connect 20 0 14 0 empty;
#X connect 21 0 20 1 empty;
#X connect 22 0 6 0 empty;
#X connect 23 0 22 1 empty;
#X connect 24 0 5 0 empty;
#X connect 25 0 24 1 empty;
