#N canvas 827 239 527 327 12;
#X obj 39 179 nbx 14 16 -1e+37 1e+37 0 0 empty empty empty 0 -8 0 10 #191919 #d4d4d4 #d4d4d4 0 256;
#X obj 99 99 function 71 36 empty empty -1 1 25 25 25 212 212 212 1 0 0 0 -1 196.97 -0.16129 469.697 -1 333.333 1;
#N canvas 0 50 450 300 fun 0;
#X obj 49 19 inlet;
#X obj 179 249 outlet;
#X obj 179 199 function 71 36 empty empty -1 1 25 25 25 212 212 212 1 0 0 0 -1 196.97 -0.16129 469.697 -1 333.333 1;
#X obj 249 119 list prepend set, f 14;
#X obj 248 146 list trim, f 8;
#X obj 249 39 inlet;
#X msg 109 129 0 \, 1 109;
#X obj 49 49 route float bang;
#X msg 49 79 set 0 \, addcomma \, add2 1 \$1;
#X obj 109 159 line;
#X connect 0 0 7 0;
#X connect 2 0 1 0;
#X connect 3 0 4 0;
#X connect 4 0 2 0;
#X connect 5 0 3 0;
#X connect 6 0 9 0;
#X connect 7 0 8 0;
#X connect 7 1 6 0;
#X connect 8 0 6 0;
#X connect 9 0 2 0;
#X restore 39 149 pd fun;
#X obj 49 109 nbx 4 18 -1e+37 1e+37 0 1 empty empty empty 0 -8 0 10 #191919 #d4d4d4 #d4d4d4 109 256;
#X obj 17 100 bng 25 250 50 0 empty empty empty 17 7 0 10 #191919 #d4d4d4 #d4d4d4;
#X obj 39 209 print;
#X obj 329 179 nbx 14 16 -1e+37 1e+37 0 0 empty empty empty 0 -8 0 10 #191919 #d4d4d4 #d4d4d4 0 256;
#X obj 389 99 function 71 36 empty empty -1 1 25 25 25 212 212 212 1 0 0 0 -1 484.848 1 515.151 -1;
#N canvas 0 50 450 380 fun 0;
#X obj 109 9 inlet;
#X obj 139 349 outlet;
#X obj 139 299 function 71 36 empty empty -1 1 25 25 25 212 212 212 1 0 0 0 -1 484.848 1 515.151 -1;
#X obj 329 219 list prepend set, f 14;
#X obj 328 246 list trim, f 8;
#X obj 329 129 inlet;
#X obj 39 159 metro 1 1000 msec;
#X obj 159 89 tgl 25 0 empty empty empty 17 7 0 10 #191919 #d4d4d4 #d4d4d4 0 1;
#X msg 39 119 tempo \$1 msec;
#X obj 199 219 + 1;
#X obj 139 219 f;
#X obj 239 219 select 1000;
#X obj 139 259 / 1000;
#X obj 39 89 / 1000;
#X obj 159 119 t f b;
#X msg 179 159 0;
#X obj 109 39 route float bang;
#X text 282 48 top that \, [line]!;
#X connect 0 0 16 0;
#X connect 2 0 1 0;
#X connect 3 0 4 0;
#X connect 4 0 2 0;
#X connect 5 0 3 0;
#X connect 6 0 10 0;
#X connect 7 0 14 0;
#X connect 8 0 6 0;
#X connect 9 0 10 1;
#X connect 10 0 9 0;
#X connect 10 0 12 0;
#X connect 10 0 11 0;
#X connect 11 0 7 0;
#X connect 12 0 2 0;
#X connect 13 0 8 0;
#X connect 14 0 6 0;
#X connect 14 1 15 0;
#X connect 15 0 10 1;
#X connect 16 0 13 0;
#X connect 16 1 7 0;
#X restore 329 149 pd fun;
#X obj 339 109 nbx 4 18 -1e+37 1e+37 0 1 empty empty empty 0 -8 0 10 #191919 #d4d4d4 #d4d4d4 64 256;
#X obj 307 100 bng 25 250 50 0 empty empty empty 17 7 0 10 #191919 #d4d4d4 #d4d4d4;
#X obj 329 209 print;
#X text 49 18 using line;
#X text 359 18 using metro;
#X text 9 48 loses resolution on faster durations;
#X text 347 56 does not (i think);
#X connect 0 0 5 0;
#X connect 1 0 2 1;
#X connect 2 0 0 0;
#X connect 3 0 2 0;
#X connect 4 0 2 0;
#X connect 6 0 11 0;
#X connect 7 0 8 1;
#X connect 8 0 6 0;
#X connect 9 0 8 0;
#X connect 10 0 8 0;
