#N canvas 827 239 527 327 12;
#X obj 139 99 function 71 36 empty empty -1 1 25 25 25 212 212 212 1 0 0 0 0 158.861 0.741935 343.139 0;
#X obj 139 49 nbx 6 18 1 1e+37 0 1 empty empty empty 0 -8 0 10 #191919 #d4d4d4 #d4d4d4 502 256;
#X obj 136 144 envgen~, f 9;
#N canvas 0 50 450 300 dur 0;
#X obj 159 39 inlet;
#X obj 159 179 outlet;
#X msg 159 109 duration \$1 \, bang;
#X connect 0 0 2 0;
#X connect 2 0 1 0;
#X restore 139 73 pd dur;
#X obj 259 99 function 71 36 empty empty -1 1 25 25 25 212 212 212 1 0 0 0 0 143.671 0.741935 310.329 -1;
#X obj 259 49 nbx 6 18 1 1e+37 0 1 empty empty empty 0 -8 0 10 #191919 #d4d4d4 #d4d4d4 454 256;
#X obj 256 144 envgen~, f 9;
#N canvas 0 50 450 300 dur 0;
#X obj 159 39 inlet;
#X obj 159 179 outlet;
#X msg 159 109 duration \$1 \, bang;
#X connect 0 0 2 0;
#X connect 2 0 1 0;
#X restore 259 73 pd dur;
#X obj 136 174 s2f~;
#X obj 256 174 s2f~;
#X obj 139 259 nbx 14 16 -1e+37 1e+37 0 0 empty empty empty 0 -8 0 10 #191919 #d4d4d4 #d4d4d4 0 256;
#X obj 106 114 bng 21 250 50 0 empty empty empty 17 7 0 10 #191919 #d4d4d4 #d4d4d4;
#X obj 226 114 bng 21 250 50 0 empty empty empty 17 7 0 10 #191919 #d4d4d4 #d4d4d4;
#X obj 251 202 spigot;
#X obj 140 206 spigot;
#X connect 0 0 2 1 32.................E....TB...PA....k....j.....;
#X connect 1 0 3 0;
#X connect 2 0 8 0;
#X connect 2 1 14 1;
#X connect 3 0 0 0;
#X connect 4 0 6 1 32.................E....TB...PA....k....j.....;
#X connect 5 0 7 0;
#X connect 6 0 9 0;
#X connect 6 1 13 1;
#X connect 7 0 4 0;
#X connect 8 0 14 0;
#X connect 9 0 13 0;
#X connect 11 0 2 0;
#X connect 12 0 6 0;
#X connect 13 0 10 0;
#X connect 14 0 10 0;
