#N canvas 827 239 541 419 12;
#X obj 39 179 nbx 14 16 -1e+37 1e+37 0 0 empty empty empty 0 -8 0 10 #191919 #d4d4d4 #d4d4d4 0 256;
#X obj 99 99 function 71 36 empty empty -1 1 25 25 25 212 212 212 1 0 0 0 1 500 -0.16129 500 -1;
#N canvas 0 50 450 300 fun 0;
#X obj 49 19 inlet;
#X obj 179 249 outlet;
#X obj 179 199 function 71 36 empty empty -1 1 25 25 25 212 212 212 1 0 0 0 1 500 -0.16129 500 -1;
#X obj 249 119 list prepend set, f 14;
#X obj 248 146 list trim, f 8;
#X obj 249 39 inlet;
#X msg 109 129 0 \, 1 76;
#X obj 49 49 route float bang;
#X msg 49 79 set 0 \, addcomma \, add2 1 \$1;
#X obj 109 159 line;
#X connect 0 0 7 0;
#X connect 2 0 1 0;
#X connect 3 0 4 0;
#X connect 4 0 2 0;
#X connect 5 0 3 0;
#X connect 6 0 9 0;
#X connect 7 0 8 0;
#X connect 7 1 6 0;
#X connect 8 0 6 0;
#X connect 9 0 2 0;
#X restore 39 149 pd fun;
#X obj 49 109 nbx 4 18 -1e+37 1e+37 0 1 empty empty empty 0 -8 0 10 #191919 #d4d4d4 #d4d4d4 76 256;
#X obj 17 100 bng 25 250 50 0 empty empty empty 17 7 0 10 #191919 #d4d4d4 #d4d4d4;
#X obj 39 209 print;
#X obj 329 179 nbx 14 16 -1e+37 1e+37 0 0 empty empty empty 0 -8 0 10 #191919 #d4d4d4 #d4d4d4 0 256;
#X obj 389 99 function 71 36 empty empty -1 1 25 25 25 212 212 212 1 0 0 0 1 500 -0.0967742 500 -1;
#N canvas 0 50 450 420 fun 0;
#X obj 119 9 inlet;
#X obj 119 379 outlet;
#X obj 119 329 function 71 36 empty empty -1 1 25 25 25 212 212 212 1 0 0 0 1 500 -0.0967742 500 -1;
#X obj 309 259 list prepend set, f 14;
#X obj 309 289 list trim, f 8;
#X obj 309 9 inlet;
#X obj 119 179 metro 1 1000 msec;
#X msg 119 99 tempo \$1 msec;
#X obj 179 229 + 1;
#X obj 119 229 f;
#X obj 29 289 select 1000;
#X obj 119 289 / 1000;
#X obj 119 69 / 1000;
#X obj 239 129 t f b;
#X msg 251 179 0;
#X obj 119 39 route float bang;
#X text 349 48 top that \, [line]!;
#X msg 29 129 0;
#X msg 239 99 1;
#X obj 399 9 inlet;
#X connect 0 0 15 0;
#X connect 2 0 1 0;
#X connect 3 0 4 0;
#X connect 4 0 2 0;
#X connect 5 0 3 0;
#X connect 6 0 9 0;
#X connect 7 0 6 0;
#X connect 8 0 9 1;
#X connect 9 0 8 0;
#X connect 9 0 11 0;
#X connect 9 0 10 0;
#X connect 10 0 17 0 float;
#X connect 11 0 2 0;
#X connect 12 0 7 0;
#X connect 13 0 6 0;
#X connect 13 1 14 0;
#X connect 14 0 9 1;
#X connect 15 0 12 0;
#X connect 15 1 18 0;
#X connect 17 0 6 0;
#X connect 18 0 13 0;
#X connect 19 0 12 1;
#X connect 19 0 11 1;
#X connect 19 0 10 1;
#X restore 329 149 pd fun;
#X obj 339 109 nbx 4 18 -1e+37 1e+37 0 1 empty empty empty 0 -8 0 10 #191919 #d4d4d4 #d4d4d4 76 256;
#X obj 307 100 bng 25 250 50 0 empty empty empty 17 7 0 10 #191919 #d4d4d4 #d4d4d4;
#X obj 329 209 print;
#X text 49 18 using line;
#X text 359 18 using metro;
#X text 9 48 loses resolution on faster durations;
#X text 347 56 does not (i think);
#X obj 190 282 osc~;
#X obj 190 322 *~;
#X obj 190 252 * 800;
#X obj 249 269 tgl 32 0 empty empty empty 17 7 0 10 #191919 #d4d4d4 #d4d4d4 0 0.05;
#X obj 719 309 function 71 36 empty empty -1 1 25 25 25 212 212 212 1 0 0 0 0 53.2424 1 98.8788 -1 98.8788 0.419355;
#X obj 719 239 nbx 6 18 1 1e+37 0 1 empty empty empty 0 -8 0 10 #191919 #d4d4d4 #d4d4d4 251 256;
#X obj 716 354 envgen~, f 9;
#N canvas 0 50 450 300 dur 0;
#X obj 159 39 inlet;
#X obj 159 179 outlet;
#X msg 159 109 duration \$1 \, bang;
#X connect 0 0 2 0;
#X connect 2 0 1 0;
#X restore 719 263 pd dur;
#X obj 614 255 function 71 36 empty empty -1 1 25 25 25 212 212 212 1 0 0 0 0 212.121 1 393.939 -1 393.939 0.419355;
#X obj 600 229 nbx 7 18 1 1e+37 0 1 empty empty empty 0 -8 0 10 #191919 #d4d4d4 #d4d4d4 251 256;
#N canvas 0 50 450 420 env 0;
#X obj 119 9 inlet;
#X obj 119 379 outlet;
#X obj 119 329 function 71 36 empty empty -1 1 25 25 25 212 212 212 1 0 0 0 0 212.121 1 393.939 -1 393.939 0.419355;
#X obj 309 259 list prepend set, f 14;
#X obj 309 289 list trim, f 8;
#X obj 119 179 metro 1 1000 msec;
#X msg 119 99 tempo \$1 msec;
#X obj 179 229 + 1;
#X obj 119 229 f;
#X obj 29 289 select 1000;
#X obj 119 289 / 1000;
#X obj 119 69 / 1000;
#X obj 239 129 t f b;
#X msg 251 179 0;
#X msg 29 129 0;
#X msg 239 99 1;
#X obj 359 39 inlet;
#X obj 119 39 route float bang list;
#X connect 0 0 17 0;
#X connect 2 0 1 0;
#X connect 3 0 4 0;
#X connect 4 0 2 0;
#X connect 5 0 8 0;
#X connect 6 0 5 0;
#X connect 7 0 8 1;
#X connect 8 0 7 0;
#X connect 8 0 10 0;
#X connect 8 0 9 0;
#X connect 9 0 14 0 float;
#X connect 10 0 2 0;
#X connect 11 0 6 0;
#X connect 12 0 5 0;
#X connect 12 1 13 0;
#X connect 13 0 8 1;
#X connect 14 0 5 0;
#X connect 15 0 12 0;
#X connect 16 0 11 1;
#X connect 16 0 10 1;
#X connect 16 0 9 1;
#X connect 17 0 11 0;
#X connect 17 1 15 0;
#X connect 17 2 3 0;
#X restore 600 299 pd env;
#X obj 689 169 bng 25 250 50 0 empty empty empty 17 7 0 10 #191919 #d4d4d4 #d4d4d4;
#X connect 0 0 5 0;
#X connect 0 0 18 0;
#X connect 1 0 2 1;
#X connect 2 0 0 0;
#X connect 3 0 2 0;
#X connect 4 0 2 0;
#X connect 6 0 11 0;
#X connect 6 0 18 0;
#X connect 7 0 8 1;
#X connect 8 0 6 0;
#X connect 9 0 8 0;
#X connect 10 0 8 0;
#X connect 16 0 17 0;
#X connect 18 0 16 0;
#X connect 19 0 17 1;
#X connect 20 0 22 1 32.................E....TB...PA....k....j.....;
#X connect 21 0 23 0;
#X connect 23 0 20 0;
#X connect 24 0 26 0;
#X connect 24 0 20 0;
#X connect 25 0 26 0;
#X connect 27 0 26 0;
#X connect 27 0 22 0;
