#N canvas 827 239 541 419 12;
#X obj 39 179 nbx 14 16 -1e+37 1e+37 0 0 empty empty empty 0 -8 0 10 #191919 #d4d4d4 #d4d4d4 0 256;
#X obj 99 99 function 71 36 empty empty -1 1 25 25 25 212 212 212 1 0 0 0 1 500 -0.16129 500 -1;
#N canvas 0 50 450 300 fun 0;
#X obj 49 19 inlet;
#X obj 179 249 outlet;
#X obj 179 199 function 71 36 empty empty -1 1 25 25 25 212 212 212 1 0 0 0 1 500 -0.16129 500 -1;
#X obj 249 119 list prepend set, f 14;
#X obj 248 146 list trim, f 8;
#X obj 249 39 inlet;
#X msg 109 129 0 \, 1 76;
#X obj 49 49 route float bang;
#X msg 49 79 set 0 \, addcomma \, add2 1 \$1;
#X obj 109 159 line 0 1;
#X obj 359 39 inlet;
#X connect 0 0 7 0;
#X connect 2 0 1 0;
#X connect 3 0 4 0;
#X connect 4 0 2 0;
#X connect 5 0 3 0;
#X connect 6 0 9 0;
#X connect 7 0 8 0;
#X connect 7 1 6 0;
#X connect 8 0 6 0;
#X connect 9 0 2 0;
#X connect 10 0 9 2;
#X restore 39 149 pd fun;
#X obj 49 109 nbx 4 18 -1e+37 1e+37 0 1 empty empty empty 0 -8 0 10 #191919 #d4d4d4 #d4d4d4 76 256;
#X obj 17 100 bng 25 250 50 0 empty empty empty 17 7 0 10 #191919 #d4d4d4 #d4d4d4;
#X obj 39 209 print;
#X obj 329 179 nbx 14 16 -1e+37 1e+37 0 0 empty empty empty 0 -8 0 10 #191919 #d4d4d4 #d4d4d4 0 256;
#X obj 389 99 function 71 36 empty empty -1 1 25 25 25 212 212 212 1 0 0 0 1 500 -0.0967742 500 -1;
#N canvas 0 50 450 420 fun 0;
#X obj 119 9 inlet;
#X obj 119 379 outlet;
#X obj 119 329 function 71 36 empty empty -1 1 25 25 25 212 212 212 1 0 0 0 1 500 -0.0967742 500 -1;
#X obj 309 259 list prepend set, f 14;
#X obj 309 289 list trim, f 8;
#X obj 309 9 inlet;
#X obj 119 179 metro 1 1000 msec;
#X msg 119 99 tempo \$1 msec;
#X obj 179 229 + 1;
#X obj 119 229 f;
#X obj 29 289 select 1000;
#X obj 119 289 / 1000;
#X obj 119 69 / 1000;
#X obj 239 129 t f b;
#X msg 251 179 0;
#X obj 119 39 route float bang;
#X text 349 48 top that \, [line]!;
#X msg 29 129 0;
#X msg 239 99 1;
#X obj 399 9 inlet;
#X connect 0 0 15 0;
#X connect 2 0 1 0;
#X connect 3 0 4 0;
#X connect 4 0 2 0;
#X connect 5 0 3 0;
#X connect 6 0 9 0;
#X connect 7 0 6 0;
#X connect 8 0 9 1;
#X connect 9 0 8 0;
#X connect 9 0 11 0;
#X connect 9 0 10 0;
#X connect 10 0 17 0 float;
#X connect 11 0 2 0;
#X connect 12 0 7 0;
#X connect 13 0 6 0;
#X connect 13 1 14 0;
#X connect 14 0 9 1;
#X connect 15 0 12 0;
#X connect 15 1 18 0;
#X connect 17 0 6 0;
#X connect 18 0 13 0;
#X connect 19 0 12 1;
#X connect 19 0 11 1;
#X connect 19 0 10 1;
#X restore 329 149 pd fun;
#X obj 339 109 nbx 4 18 -1e+37 1e+37 0 1 empty empty empty 0 -8 0 10 #191919 #d4d4d4 #d4d4d4 76 256;
#X obj 307 100 bng 25 250 50 0 empty empty empty 17 7 0 10 #191919 #d4d4d4 #d4d4d4;
#X obj 329 209 print;
#X text 49 18 using line;
#X text 359 18 using metro;
#X text 9 48 loses resolution on faster durations;
#X text 347 56 does not (i think);
#X obj 190 282 osc~;
#X obj 190 322 *~;
#X obj 190 252 * 800;
#X obj 249 269 tgl 32 0 empty empty empty 17 7 0 10 #191919 #d4d4d4 #d4d4d4 0 0.05;
#X obj 679 219 function 71 36 empty empty -1 1 25 25 25 212 212 212 1 0 0 0 0 53.2424 1 98.8788 -1 98.8788 0.419355;
#X obj 679 149 nbx 6 18 1 1e+37 0 1 empty empty empty 0 -8 0 10 #191919 #d4d4d4 #d4d4d4 251 256;
#X obj 676 264 envgen~, f 9;
#N canvas 0 50 450 300 dur 0;
#X obj 159 39 inlet;
#X obj 159 179 outlet;
#X msg 159 109 duration \$1 \, bang;
#X connect 0 0 2 0;
#X connect 2 0 1 0;
#X restore 679 173 pd dur;
#X obj 574 165 function 71 36 empty empty -1 1 25 25 25 212 212 212 1 0 0 0 0 212.121 1 393.939 -1 393.939 0.419355;
#X obj 560 139 nbx 7 18 1 1e+37 0 1 empty empty empty 0 -8 0 10 #191919 #d4d4d4 #d4d4d4 251 256;
#N canvas 0 50 450 420 env 0;
#X obj 119 9 inlet;
#X obj 119 379 outlet;
#X obj 119 329 function 71 36 empty empty -1 1 25 25 25 212 212 212 1 0 0 0 0 212.121 1 393.939 -1 393.939 0.419355;
#X obj 309 259 list prepend set, f 14;
#X obj 309 289 list trim, f 8;
#X obj 119 179 metro 1 1000 msec;
#X msg 119 99 tempo \$1 msec;
#X obj 179 229 + 1;
#X obj 119 229 f;
#X obj 29 289 select 1000;
#X obj 119 289 / 1000;
#X obj 119 69 / 1000;
#X obj 239 129 t f b;
#X msg 251 179 0;
#X msg 29 129 0;
#X msg 239 99 1;
#X obj 359 39 inlet;
#X obj 119 39 route float bang list;
#X connect 0 0 17 0;
#X connect 2 0 1 0;
#X connect 3 0 4 0;
#X connect 4 0 2 0;
#X connect 5 0 8 0;
#X connect 6 0 5 0;
#X connect 7 0 8 1;
#X connect 8 0 7 0;
#X connect 8 0 10 0;
#X connect 8 0 9 0;
#X connect 9 0 14 0 float;
#X connect 10 0 2 0;
#X connect 11 0 6 0;
#X connect 12 0 5 0;
#X connect 12 1 13 0;
#X connect 13 0 8 1;
#X connect 14 0 5 0;
#X connect 15 0 12 0;
#X connect 16 0 11 1;
#X connect 16 0 10 1;
#X connect 16 0 9 1;
#X connect 17 0 11 0;
#X connect 17 1 15 0;
#X connect 17 2 3 0;
#X restore 560 219 pd env;
#X obj 649 79 bng 25 250 50 0 empty empty empty 17 7 0 10 #191919 #d4d4d4 #d4d4d4;
#X obj 699 489 function 71 36 empty empty -1 1 25 25 25 212 212 212 1 0 0 0 0 242.424 -0.741935 424.242 -1 333.333 0;
#X obj 685 463 nbx 7 18 1 1e+37 0 1 empty empty empty 0 -8 0 10 #191919 #d4d4d4 #d4d4d4 1269 256;
#N canvas 0 50 450 420 env 0;
#X obj 119 9 inlet;
#X obj 119 379 outlet;
#X obj 119 329 function 71 36 empty empty -1 1 25 25 25 212 212 212 1 0 0 0 0 242.424 -0.741935 424.242 -1 333.333 0;
#X obj 309 259 list prepend set, f 14;
#X obj 309 289 list trim, f 8;
#X obj 119 179 metro 1 1000 msec;
#X msg 119 99 tempo \$1 msec;
#X obj 179 229 + 1;
#X obj 119 229 f;
#X obj 29 289 select 1000;
#X obj 119 289 / 1000;
#X obj 119 69 / 1000;
#X obj 239 129 t f b;
#X msg 251 179 0;
#X msg 29 129 0;
#X msg 239 99 1;
#X obj 379 29 inlet;
#X obj 119 39 route float bang list;
#X connect 0 0 17 0;
#X connect 2 0 1 0;
#X connect 3 0 4 0;
#X connect 4 0 2 0;
#X connect 5 0 8 0;
#X connect 6 0 5 0;
#X connect 7 0 8 1;
#X connect 8 0 7 0;
#X connect 8 0 10 0;
#X connect 8 0 9 0;
#X connect 9 0 14 0 float;
#X connect 10 0 2 0;
#X connect 11 0 6 0;
#X connect 12 0 5 0;
#X connect 12 1 13 0;
#X connect 13 0 8 1;
#X connect 14 0 5 0;
#X connect 15 0 12 0;
#X connect 16 0 11 1;
#X connect 16 0 10 1;
#X connect 16 0 9 1;
#X connect 17 0 11 0;
#X connect 17 1 15 0;
#X connect 17 2 3 0;
#X restore 685 533 pd env;
#N canvas 0 0 450 250 (subpatch) 0;
#X array array1 1000 float 2;
#X coords 0 1 1000 -1 200 140 1;
#X restore 829 519 graph;
#X obj 708 637 f;
#X obj 749 639 + 1;
#X obj 678 690 tabwrite array1;
#X obj 599 449 bng 25 250 50 0 empty empty empty 17 7 0 10 #191919 #d4d4d4 #d4d4d4;
#X msg 619 579 0;
#X obj 689 579 t f b;
#X obj 599 489 t b b;
#X msg 9 459 0 \, 1 1000;
#X obj 389 529 + 1;
#X obj 329 529 f;
#X obj 239 489 select 1000;
#X obj 329 569 / 1000;
#X obj 449 429 t f b;
#X msg 461 479 0;
#X msg 329 429 0;
#X msg 449 399 1;
#X obj 330 616 print;
#X obj 329 479 metro 1 1 msec;
#X obj 429 669 count;
#X obj 429 699 nbx 4 18 -1e+37 1e+37 0 0 empty empty empty 0 -8 0 10 #191919 #d4d4d4 #d4d4d4 0 256;
#X obj 429 619 b;
#X msg 459 619 0;
#X obj 9 569 print;
#X obj 59 619 count;
#X obj 59 649 nbx 4 18 -1e+37 1e+37 0 0 empty empty empty 0 -8 0 10 #191919 #d4d4d4 #d4d4d4 0 256;
#X obj 59 569 b;
#X msg 89 569 0;
#X obj 9 509 line 0 0.3;
#X text 139 548 oh lmao;
#X text 139 568 line can very much top that;
#X text 779 198 <-- let's redo this -->;
#N canvas 0 50 450 300 fun 0;
#X obj 79 9 inlet;
#X obj 179 259 outlet;
#X obj 179 209 function 71 36 empty empty -1 1 25 25 25 212 212 212 1 0 0 0 0 257.576 1 742.424 0;
#X obj 249 129 list prepend set, f 14;
#X obj 249 169 list trim, f 8;
#X msg 79 129 0 \, 1 251;
#X msg 49 89 set 0 \, addcomma \, add2 1 \$1;
#X obj 79 169 line 0 1;
#X obj 349 9 inlet;
#X obj 79 49 route float bang list;
#X connect 0 0 9 0;
#X connect 2 0 1 0;
#X connect 3 0 4 0;
#X connect 4 0 2 0;
#X connect 5 0 7 0;
#X connect 6 0 5 0;
#X connect 7 0 2 0;
#X connect 8 0 7 2;
#X connect 9 0 6 0;
#X connect 9 1 5 0;
#X connect 9 2 3 0;
#X restore 959 199 pd fun;
#X obj 1112 184 function 71 36 empty empty -1 1 25 25 25 212 212 212 1 0 0 0 0 64.6515 1 186.348 0;
#X obj 1112 124 nbx 6 18 1 1e+37 0 1 empty empty empty 0 -8 0 10 #191919 #d4d4d4 #d4d4d4 251 256;
#X obj 1109 229 envgen~, f 9;
#N canvas 0 50 450 300 dur 0;
#X obj 159 39 inlet;
#X obj 159 179 outlet;
#X msg 159 109 duration \$1 \, bang;
#X connect 0 0 2 0;
#X connect 2 0 1 0;
#X restore 1112 148 pd dur;
#X obj 979 149 function 71 36 empty empty -1 1 25 25 25 212 212 212 1 0 0 0 0 257.576 1 742.424 0;
#X obj 959 119 nbx 7 18 1 1e+37 0 1 empty empty empty 0 -8 0 10 #191919 #d4d4d4 #d4d4d4 251 256;
#X obj 909 129 bng 25 250 50 0 empty empty empty 17 7 0 10 #191919 #d4d4d4 #d4d4d4;
#X obj 1109 259 oscope~ 130 130 2 3 256 -1 1 0 0 0 0 212 212 212 25 25 25 96 96 96 0 empty;
#X obj 1054 150 nbx 4 18 -1e+37 1e+37 0 0 empty empty empty 0 -8 0 10 #191919 #d4d4d4 #d4d4d4 0 256;
#X obj 959 259 oscope~ 130 130 2 3 256 -1 1 0 0 0 0 212 212 212 25 25 25 96 96 96 0 empty;
#X obj 959 229 vline~;
#X text 879 228 hey \, sexy ->;
#X connect 0 0 5 0;
#X connect 0 0 18 0;
#X connect 1 0 2 1;
#X connect 2 0 0 0;
#X connect 3 0 2 0;
#X connect 4 0 2 0;
#X connect 6 0 11 0;
#X connect 6 0 18 0;
#X connect 7 0 8 1;
#X connect 8 0 6 0;
#X connect 9 0 8 0;
#X connect 10 0 8 0;
#X connect 16 0 17 0;
#X connect 18 0 16 0;
#X connect 19 0 17 1;
#X connect 20 0 22 1 32.................E....TB...PA....k....j.....;
#X connect 21 0 23 0;
#X connect 23 0 20 0;
#X connect 24 0 26 0;
#X connect 24 0 20 0;
#X connect 25 0 26 0;
#X connect 27 0 26 0;
#X connect 27 0 22 0;
#X connect 28 0 30 0;
#X connect 29 0 30 0;
#X connect 30 0 37 0;
#X connect 32 0 33 0;
#X connect 32 0 34 1;
#X connect 33 0 32 1;
#X connect 35 0 38 0;
#X connect 36 0 32 1;
#X connect 37 0 34 0;
#X connect 37 1 32 0;
#X connect 38 0 30 0;
#X connect 38 1 36 0;
#X connect 39 0 59 0;
#X connect 40 0 41 1;
#X connect 41 0 40 0;
#X connect 41 0 43 0;
#X connect 41 0 42 0;
#X connect 42 0 46 0 float;
#X connect 43 0 48 0;
#X connect 43 0 52 0;
#X connect 44 0 49 0;
#X connect 44 1 45 0;
#X connect 45 0 41 1;
#X connect 46 0 49 0;
#X connect 47 0 44 0;
#X connect 49 0 41 0;
#X connect 50 0 51 0;
#X connect 52 0 50 0;
#X connect 53 0 50 0;
#X connect 55 0 56 0;
#X connect 57 0 55 0;
#X connect 58 0 55 0;
#X connect 59 0 54 0;
#X connect 59 0 57 0;
#X connect 63 0 74 0;
#X connect 64 0 66 1 32.................E....TB...PA....k....j.....;
#X connect 65 0 67 0;
#X connect 66 0 71 0;
#X connect 67 0 64 0;
#X connect 68 0 63 0;
#X connect 69 0 63 0;
#X connect 70 0 63 0;
#X connect 70 0 66 0;
#X connect 72 0 63 1;
#X connect 74 0 73 0;
