#N canvas 827 239 527 327 12;
#N canvas 0 50 450 250 (subpatch) 0;
#X text 0 0 plugdatainfo <?xml version="1.0" encoding="UTF-8"?> <plugdatainfo/>;
#X coords 0 1 100 -1 1 1 1;
#X restore 0 0 graph;
#X obj 143 528 +~;
#X obj 143 71 inlet~;
#X obj 143 579 outlet~;
#X obj 143 473 *~;
#X obj 143 247 delay~ 65536 44100;
#X obj 186 473 *~;
#X obj 186 281 delay~ 65536 44100;
#X text 464 216 i, f 4;
#X obj 256 71 inlet~;
#X text 437 70 x, f 4;
#X text 316 70 w, f 4;
#X text 578 70 s, f 3;
#X text 444 263 d, f 4;
#X obj 256 197 +~;
#X obj 250 400 clip~ 0 1;
#X obj 250 365 /~;
#X obj 166 436 -~;
#X obj 384 71 inlet~;
#X obj 529 71 inlet~;
#X obj 529 143 /~ 12;
#X obj 423 217 -~;
#X obj 494 178 pow~;
#X obj 475 143 nbx 4 18 -1e+37 1e+37 0 1 empty empty empty 0 -8 0 10 #191919 #ffffff #ffffff 2 256;
#X obj 423 178 nbx 4 18 -1e+37 1e+37 0 1 empty empty empty 0 -8 0 10 #191919 #ffffff #ffffff 1 256;
#X obj 166 400 nbx 4 18 -1e+37 1e+37 0 1 empty empty empty 0 -8 0 10 #191919 #ffffff #ffffff 1 256;
#N canvas 0 50 450 300 delay-\$0 0;
#N canvas 0 50 450 250 (subpatch) 0;
#X text 0 0 plugdatainfo <?xml version="1.0" encoding="UTF-8"?> <plugdatainfo/>;
#X coords 0 1 100 -1 1 1 1;
#X restore 0 0 graph;
#X obj 461 43 inlet~;
#X obj 424 400 outlet~;
#X obj 786 233 block~ 1;
#X obj 547 164 +~;
#X obj 536 233 +~;
#X obj 536 280 %~;
#X obj 703 43 inlet~;
#X text 759 42 w, f 5;
#X obj 558 92 delread~ feedback-\$0 0;
#X obj 536 359 delwrite~ feedback-\$0 1;
#X connect 1 0 4 0;
#X connect 4 0 5 1;
#X connect 5 0 6 0;
#X connect 6 0 2 0;
#X connect 6 0 10 0;
#X connect 7 0 5 0;
#X connect 7 0 6 1;
#X connect 9 0 4 1;
#X restore 348 264 pd delay-\$0;
#X text 409 327 this is the faust ef.transpose standard function (i think). the left inlet is input signal \, w is the window size in samples \, x is the crossfading duration (samples) and s is the shift in semitones., f 64;
#X obj 529 109 *~;
#X obj 635 36 loadbang;
#X obj 635 71 float \$1;
#X connect 1 0 3 0;
#X connect 2 0 5 0;
#X connect 2 0 7 0;
#X connect 4 0 1 0;
#X connect 5 0 4 0;
#X connect 6 0 1 0;
#X connect 7 0 6 0;
#X connect 9 0 14 0;
#X connect 9 0 26 1;
#X connect 14 0 5 1;
#X connect 15 0 6 1;
#X connect 15 0 17 1;
#X connect 16 0 15 0;
#X connect 17 0 4 1;
#X connect 18 0 16 1;
#X connect 19 0 28 0;
#X connect 20 0 22 1;
#X connect 21 0 26 0;
#X connect 22 0 21 1;
#X connect 23 0 22 0;
#X connect 24 0 21 0;
#X connect 25 0 17 0;
#X connect 26 0 16 0;
#X connect 26 0 7 1;
#X connect 26 0 14 1;
#X connect 28 0 20 0;
#X connect 29 0 30 0;
#X connect 30 0 28 1;
