#N canvas 827 239 527 327 12;
#X obj 89 77 * 44100;
#X text 169 44 frequency in bins, f 16;
#X text 159 144 frequency in Hz, f 14;
#X obj 89 45 nbx 7 18 -1e+37 1e+37 0 0 empty empty empty 0 -8 0 10 #191919 #ffffff #ffffff 0 256;
#X obj 89 145 nbx 6 18 -1e+37 1e+37 0 0 empty empty empty 0 -8 0 10 #191919 #ffffff #ffffff 0 256;
#N canvas 0 50 450 300 fabulous-fourier-transorm 1;
#X obj 69 229 tabwrite~ mag;
#X obj 189 229 tabwrite~ phase;
#N canvas 0 50 450 250 (subpatch) 0;
#X array mag 1024 float 0;
#X coords 0 256 1023 -256 573 153 1;
#X restore 19 259 graph;
#N canvas 0 50 450 250 (subpatch) 0;
#X array phase 1024 float 0;
#X coords 0 1.57 1023 -1.57 573 153 1;
#X restore 19 439 graph;
#X obj 301 154 tgl 25 0 empty empty empty 17 7 0 10 #e3dfd9 #5a5a5a #5a5a5a 0 1;
#X obj 301 188 metro 250;
#X obj 69 69 expr~ if(abs($v1) < 0.01 \, 0 \, $v1) \; if(abs($v2) < 0.01 \, 0 \, $v2);
#X obj 69 129 expr~ sqrt(pow($v1 \, 2)+pow($v2 \, 2));
#X obj 69 19 inlet~;
#X obj 239 19 inlet~;
#X obj 139 169 expr~ atan2($v2 \, $v1);
#X obj 389 149 expr~ atan($v1);
#X obj 389 119 /~;
#X text 499 148 why are you offset?!;
#X connect 4 0 5 0 empty;
#X connect 5 0 0 0 empty;
#X connect 5 0 1 0 empty;
#X connect 6 0 7 0 empty;
#X connect 6 0 10 0 empty;
#X connect 6 1 7 1 empty;
#X connect 6 1 10 1 empty;
#X connect 7 0 0 0 empty;
#X connect 8 0 6 0 empty;
#X connect 9 0 6 1 empty;
#X connect 10 0 1 0 empty;
#X connect 12 0 11 0 empty;
#X restore 69 289 pd fabulous-fourier-transorm;
#X obj 89 115 / 1024;
#X obj 89 209 osc~;
#X msg 149 179 0;
#X msg 179 179 0.25;
#X msg 229 179 0.5;
#X msg 269 179 0.75;
#X obj 309 109 block~ 1024;
#X obj 89 249 rfft~;
#X obj 319 179 nbx 4 18 -1e+37 1e+37 0 0 empty empty empty 0 -8 0 10 #e3dfd9 #5a5a5a #5a5a5a 0 256;
#X connect 0 0 6 0 empty;
#X connect 3 0 0 0 empty;
#X connect 4 0 7 0 empty;
#X connect 6 0 4 0 empty;
#X connect 7 0 13 0 empty;
#X connect 8 0 7 1 empty;
#X connect 9 0 7 1 empty;
#X connect 10 0 7 1 empty;
#X connect 11 0 7 1 empty;
#X connect 13 0 5 0 empty;
#X connect 13 1 5 1 empty;
#X connect 14 0 7 1 empty;
