#N canvas 827 239 527 327 12;
#X obj 29 77 * 44100;
#X text 109 44 frequency in bins, f 16;
#X text 99 144 frequency in Hz, f 14;
#X obj 29 45 nbx 7 18 -1e+37 1e+37 0 0 empty empty empty 0 -8 0 10 #191919 #ffffff #ffffff 0 256;
#X obj 29 145 nbx 6 18 -1e+37 1e+37 0 1 empty empty empty 0 -8 0 10 #191919 #ffffff #ffffff 1658.06 256;
#N canvas 0 50 450 300 fabulous-fourier-transorm 1;
#X obj 89 9 inlet~;
#X obj 37 199 outlet~;
#X obj 379 79 block~ 1024;
#X obj 37 169 /~ 1024;
#N canvas 0 50 450 250 (subpatch) 0;
#X array mag 1024 float 0;
#X coords 0 256 1023 -256 573 153 1;
#X restore 19 259 graph;
#N canvas 0 50 450 250 (subpatch) 0;
#X array phase 1024 float 0;
#X coords 0 2 1023 -2 573 153 1;
#X restore 19 439 graph;
#X obj 89 69 expr~ if(abs($v1) < 0.01 \, 0 \, $v1) \; if(abs($v2) < 0.01 \, 0 \, $v2);
#X obj 89 39 rfft~;
#X obj 37 129 rifft~;
#X obj 99 139 expr~ sqrt(pow($v1 \, 2)+pow($v2 \, 2));
#X obj 349 128 /~;
#X obj 349 158 expr~ atan($v1);
#X obj 99 197 tabsend~ mag;
#X obj 349 197 tabsend~ phase;
#X connect 0 0 7 0 empty;
#X connect 3 0 1 0 empty;
#X connect 6 0 8 0 empty;
#X connect 6 0 9 0 empty;
#X connect 6 0 10 1 empty;
#X connect 6 1 10 0 empty;
#X connect 6 1 8 1 empty;
#X connect 6 1 9 1 empty;
#X connect 7 0 6 0 empty;
#X connect 7 1 6 1 empty;
#X connect 8 0 3 0 empty;
#X connect 9 0 12 0 empty;
#X connect 10 0 11 0 empty;
#X connect 11 0 13 0 empty;
#X restore 29 239 pd fabulous-fourier-transorm;
#X obj 29 299 dac~;
#X obj 29 115 / 1024;
#X obj 29 209 osc~;
#X msg 89 179 0;
#X msg 119 179 0.25;
#X msg 169 179 0.5;
#X msg 209 179 0.75;
#X connect 0 0 7 0 empty;
#X connect 3 0 0 0 empty;
#X connect 4 0 8 0 empty;
#X connect 5 0 6 0 empty;
#X connect 5 0 6 1 empty;
#X connect 7 0 4 0 empty;
#X connect 8 0 5 0 empty;
#X connect 9 0 8 1 empty;
#X connect 10 0 8 1 empty;
#X connect 11 0 8 1 empty;
#X connect 12 0 8 1 empty;
