#N canvas 827 239 527 327 12;
#X obj 149 73 * 44100;
#X obj 149 109 / 128;
#X text 229 40 frequency in bins, f 16;
#N canvas 0 50 450 300 fff 1;
#X obj 49 119 rfft~;
#X obj 49 299 rifft~;
#X obj 469 49 block~ 128;
#X obj 49 369 /~ 128;
#X obj 49 49 inlet~;
#X obj 49 469 outlet~;
#X connect 0 0 1 0 empty;
#X connect 0 1 1 1 empty;
#X connect 1 0 3 0 empty;
#X connect 3 0 5 0 empty;
#X connect 4 0 0 0 empty;
#X restore 149 349 pd fff;
#X text 219 144 frequency in Hz, f 14;
#X obj 149 409 dac~;
#X obj 149 41 nbx 7 18 -1e+37 1e+37 0 0 empty empty empty 0 -8 0 10 #191919 #ffffff #ffffff 0 256;
#X obj 149 145 nbx 6 18 -1e+37 1e+37 0 0 empty empty empty 0 -8 0 10 #191919 #ffffff #ffffff 0 256;
#X obj 149 299 plaits~;
#N canvas 0 50 450 250 (subpatch) 1;
#X obj 199 69 nbx 4 18 0 15 0 1 empty empty empty 0 -8 0 10 #191919 #ffffff #ffffff 0 256;
#X obj 199 89 nbx 4 18 0 1 0 1 empty empty empty 0 -8 0 10 #191919 #ffffff #ffffff 0.6 256;
#X obj 199 109 nbx 4 18 0 1 0 1 empty empty empty 0 -8 0 10 #191919 #ffffff #ffffff 0 256;
#X obj 199 129 nbx 4 18 0 1 0 1 empty empty empty 0 -8 0 10 #191919 #ffffff #ffffff 0.63 256;
#X msg 209 239 harmonics \$1;
#X msg 229 269 timbre \$1;
#X msg 249 299 morph \$1;
#X obj 211 354 outlet;
#X msg 179 209 model \$1;
#X obj 139 9 inlet;
#X obj 179 9 inlet;
#X obj 219 9 inlet;
#X obj 259 9 inlet;
#X connect 0 0 8 0 empty;
#X connect 1 0 4 0 empty;
#X connect 2 0 5 0 empty;
#X connect 3 0 6 0 empty;
#X connect 4 0 7 0 empty;
#X connect 5 0 7 0 empty;
#X connect 6 0 7 0 empty;
#X connect 8 0 7 0 empty;
#X connect 9 0 0 0 empty;
#X connect 10 0 1 0 empty;
#X connect 11 0 2 0 empty;
#X connect 12 0 3 0 empty;
#X coords 0 1 100 -1 51 83 1 197 67;
#X restore 177 188 graph;
#N canvas 0 50 450 250 (subpatch) 1;
#X msg 79 169 decay \$1;
#X obj 120 95 nbx 4 18 0 1 0 1 empty empty empty 0 -8 0 10 #191919 #ffffff #ffffff 0.51 256;
#X msg 19 129 trigger \$1;
#X obj 120 69 tgl 25 1 empty empty empty 17 7 0 10 #191919 #ffffff #ffffff 1 1;
#X obj 99 19 inlet;
#X obj 159 19 inlet;
#X obj 19 229 outlet;
#X connect 0 0 6 0 empty;
#X connect 1 0 0 0 empty;
#X connect 2 0 6 0 empty;
#X connect 3 0 2 0 empty;
#X connect 4 0 3 0 empty;
#X connect 5 0 1 0 empty;
#X coords 0 1 100 -1 49 48 1 119 67;
#X restore 236 221 graph;
#X obj 129 249 bng 25 250 50 0 empty empty empty 17 7 0 10 #191919 #ffffff #ffffff;
#X connect 0 0 1 0 empty;
#X connect 1 0 7 0 empty;
#X connect 3 0 5 0 empty;
#X connect 3 0 5 1 empty;
#X connect 6 0 0 0 empty;
#X connect 7 0 8 0 empty;
#X connect 8 0 3 0 empty;
#X connect 8 1 3 0 empty;
#X connect 9 0 8 0 empty;
#X connect 10 0 8 0 empty;
#X connect 11 0 8 0 empty;
