#N canvas 827 239 527 327 12;
#X obj 149 77 * 44100;
#X obj 149 205 osc~;
#X obj 149 115 / 128;
#X text 229 44 frequency in bins, f 16;
#X msg 214 173 0.25;
#X msg 186 173 0;
#X obj 469 309 oscope~ 130 130 2 3 44 -1 1 0 0 0 0 255 0 94 25 25 25 25 25 25 0 empty;
#X obj 149 309 spectrograph~ -log;
#X text 219 144 frequency in Hz, f 14;
#X obj 149 45 nbx 7 18 -1e+37 1e+37 0 0 empty empty empty 0 -8 0 10 #191919 #ffffff #ffffff 0 256;
#X obj 149 145 nbx 6 18 -1e+37 1e+37 0 0 empty empty empty 0 -8 0 10 #191919 #ffffff #ffffff 0 256;
#X obj 309 199 bng 25 250 50 0 empty empty empty 17 7 0 10 #191919 #ffffff #ffffff;
#N canvas 0 50 450 300 fabulous-fourier-transorm 1;
#X obj 49 119 rfft~;
#X obj 49 299 rifft~;
#X obj 569 49 block~ 128;
#X obj 49 349 /~ 128;
#X obj 49 49 inlet~;
#X obj 49 409 outlet~;
#X obj 109 219 expr~ sqrt(pow($v1 \, 2)+pow($v2 \, 2));
#X obj 109 269 print~ mag;
#X obj 349 269 print~ phase;
#X obj 349 219 expr~ atan($v2/$v1);
#X obj 260 130 t b b;
#X obj 259 89 bng 25 250 50 0 empty empty empty 17 7 0 10 #191919 #ffffff #ffffff;
#X obj 277 390 fexpr~;
#X connect 0 0 1 0 empty;
#X connect 0 0 6 0 empty;
#X connect 0 0 9 0 empty;
#X connect 0 1 1 1 empty;
#X connect 0 1 6 1 empty;
#X connect 0 1 9 1 empty;
#X connect 1 0 3 0 empty;
#X connect 3 0 5 0 empty;
#X connect 4 0 0 0 empty;
#X connect 6 0 7 0 empty;
#X connect 9 0 8 0 empty;
#X connect 10 0 8 0 empty;
#X connect 10 1 7 0 empty;
#X connect 11 0 10 0 empty;
#X restore 149 239 pd fabulous-fourier-transorm;
#X connect 0 0 2 0 empty;
#X connect 1 0 12 0 empty;
#X connect 2 0 10 0 empty;
#X connect 4 0 1 1 32.................F....D8+++uA....Q++++y.....;
#X connect 5 0 1 1 32.................F....z9+++uA....s++++y.....;
#X connect 9 0 0 0 empty;
#X connect 10 0 1 0 empty;
#X connect 12 0 7 0 empty;
#X connect 12 0 6 0 32.................n.....T....J.....E...HC....;
