#N canvas 827 239 527 327 12;
#X obj 149 77 * 44100;
#X text 229 44 frequency in bins, f 16;
#X text 219 144 frequency in Hz, f 14;
#X obj 149 45 nbx 7 18 -1e+37 1e+37 0 0 empty empty empty 0 -8 0 10 #191919 #ffffff #ffffff 0 256;
#X obj 149 145 nbx 6 18 -1e+37 1e+37 0 0 empty empty empty 0 -8 0 10 #191919 #ffffff #ffffff 0 256;
#N canvas 0 50 450 300 fabulous-fourier-transorm 1;
#X obj 69 9 inlet~;
#X obj 17 199 outlet~;
#X obj 359 79 block~ 1024;
#X obj 17 169 /~ 1024;
#X obj 69 227 tabwrite~ mag;
#X obj 189 227 tabwrite~ phase;
#N canvas 0 50 450 250 (subpatch) 0;
#X array mag 1024 float 0;
#X coords 0 256 1023 -256 573 153 1;
#X restore 19 259 graph;
#N canvas 0 50 450 250 (subpatch) 0;
#X array phase 1024 float 0;
#X coords 0 2 1023 -2 573 153 1;
#X restore 19 439 graph;
#X obj 301 154 tgl 25 0 empty empty empty 17 7 0 10 #e3dfd9 #5a5a5a #5a5a5a 0 1;
#X obj 301 188 metro 250;
#X obj 69 69 expr~ if(abs($v1) < 0.01 \, 0 \, $v1) \; if(abs($v2) < 0.01 \, 0 \, $v2);
#X obj 69 39 rfft~;
#X obj 17 129 rifft~;
#X obj 69 129 expr~ sqrt(pow($v1 \, 2)+pow($v2 \, 2));
#X obj 189 158 /~;
#X obj 189 188 expr~ atan($v1);
#X connect 0 0 11 0 empty;
#X connect 3 0 1 0 empty;
#X connect 8 0 9 0 empty;
#X connect 9 0 4 0 empty;
#X connect 9 0 5 0 empty;
#X connect 10 0 12 0 empty;
#X connect 10 0 13 0 empty;
#X connect 10 0 14 1 empty;
#X connect 10 1 14 0 empty;
#X connect 10 1 12 1 empty;
#X connect 10 1 13 1 empty;
#X connect 11 0 10 0 empty;
#X connect 11 1 10 1 empty;
#X connect 12 0 3 0 empty;
#X connect 13 0 4 0 empty;
#X connect 14 0 15 0 empty;
#X connect 15 0 5 0 empty;
#X restore 149 239 pd fabulous-fourier-transorm;
#X obj 149 299 dac~;
#X obj 59 189 plaits~;
#N canvas 0 50 450 250 (subpatch) 1;
#X obj 199 69 nbx 4 18 0 15 0 1 empty empty empty 0 -8 0 10 #191919 #ffffff #ffffff 1 256;
#X obj 199 89 nbx 4 18 0 1 0 1 empty empty empty 0 -8 0 10 #191919 #ffffff #ffffff -0 256;
#X obj 199 109 nbx 4 18 0 1 0 1 empty empty empty 0 -8 0 10 #191919 #ffffff #ffffff 0 256;
#X obj 199 129 nbx 4 18 0 1 0 1 empty empty empty 0 -8 0 10 #191919 #ffffff #ffffff 0 256;
#X msg 209 239 harmonics \$1;
#X msg 229 269 timbre \$1;
#X msg 249 299 morph \$1;
#X obj 211 354 outlet;
#X msg 179 209 model \$1;
#X obj 139 9 inlet;
#X obj 179 9 inlet;
#X obj 219 9 inlet;
#X obj 259 9 inlet;
#X connect 0 0 8 0 empty;
#X connect 1 0 4 0 empty;
#X connect 2 0 5 0 empty;
#X connect 3 0 6 0 empty;
#X connect 4 0 7 0 empty;
#X connect 5 0 7 0 empty;
#X connect 6 0 7 0 empty;
#X connect 8 0 7 0 empty;
#X connect 9 0 0 0 empty;
#X connect 10 0 1 0 empty;
#X connect 11 0 2 0 empty;
#X connect 12 0 3 0 empty;
#X coords 0 1 100 -1 51 83 1 197 67;
#X restore 59 89 graph;
#X obj 149 115 / 1024;
#X obj 149 209 osc~;
#X msg 209 179 0;
#X msg 239 179 0.25;
#X msg 289 179 0.5;
#X msg 329 179 0.75;
#X connect 0 0 9 0 empty;
#X connect 3 0 0 0 empty;
#X connect 4 0 10 0 empty;
#X connect 5 0 6 0 empty;
#X connect 5 0 6 1 empty;
#X connect 8 0 7 0 empty;
#X connect 9 0 4 0 empty;
#X connect 10 0 5 0 empty;
#X connect 11 0 10 1 empty;
#X connect 12 0 10 1 empty;
#X connect 13 0 10 1 empty;
#X connect 14 0 10 1 empty;
