#N canvas 827 239 527 327 12;
#X obj 149 77 * 44100;
#X obj 339 199 osc~;
#X obj 149 115 / 128;
#X text 229 44 frequency in bins, f 16;
#X msg 384 173 0.25;
#X msg 356 173 0;
#N canvas 0 50 450 300 fff 1;
#X obj 49 119 rfft~;
#X obj 49 299 rifft~;
#X obj 469 49 block~ 128;
#X obj 49 369 /~ 128;
#X obj 49 49 inlet~;
#X obj 49 469 outlet~;
#X obj 120 299 outlet~;
#X obj 181 299 outlet~;
#X obj 199 240 print~ real;
#X obj 279 240 print~ imaginary;
#X obj 199 49 inlet;
#X connect 0 0 1 0 empty;
#X connect 0 0 6 0 empty;
#X connect 0 0 8 0 empty;
#X connect 0 1 1 1 empty;
#X connect 0 1 7 0 empty;
#X connect 0 1 9 0 empty;
#X connect 1 0 3 0 empty;
#X connect 3 0 5 0 empty;
#X connect 4 0 0 0 empty;
#X connect 10 0 8 0 empty;
#X connect 10 0 9 0 empty;
#X restore 149 239 pd fff;
#X obj 469 309 oscope~ 130 130 2 3 44 -1 1 0 0 0 0 255 0 94 25 25 25 25 25 25 0 empty;
#X obj 149 309 spectrograph~ -log;
#X text 219 144 frequency in Hz, f 14;
#X obj 89 309 dac~;
#X obj 149 45 nbx 7 18 -1e+37 1e+37 0 0 empty empty empty 0 -8 0 10 #191919 #ffffff #ffffff 0 256;
#X obj 149 145 nbx 6 18 -1e+37 1e+37 0 0 empty empty empty 0 -8 0 10 #191919 #ffffff #ffffff 0 256;
#X obj 606 309 oscope~ 130 130 2 3 44 -1 1 0 0 0 0 255 0 94 25 25 25 25 25 25 0 empty;
#X obj 743 309 oscope~ 130 130 2 3 44 -1 1 0 0 0 0 255 0 94 25 25 25 25 25 25 0 empty;
#X obj 229 204 bng 25 250 50 0 empty empty empty 17 7 0 10 #191919 #ffffff #ffffff;
#X obj 149 189 plaits~;
#X connect 0 0 2 0 empty;
#X connect 2 0 12 0 empty;
#X connect 4 0 1 1 32.................B....T9+++u.....k++++a.....;
#X connect 5 0 1 1 empty;
#X connect 6 0 8 0 empty;
#X connect 6 0 7 0 32.................n.....T....J.....E...HC....;
#X connect 6 1 13 0 32.................d....ra...fG....6F...HC....;
#X connect 6 2 14 0 32.................T....Ti....E....0H...XD....;
#X connect 11 0 0 0 empty;
#X connect 12 0 16 0 empty;
#X connect 15 0 6 1 32.................E....37+++eA....N++++q.....;
#X connect 16 0 6 0 empty;
#X connect 16 1 6 0 empty;
