#N canvas 827 239 527 327 12;
#N canvas 0 50 930 500 seq0 0;
#X obj 832 247 nbx 4 20 -256 256 0 1 empty empty mult 28 -4 0 10 #191919 #ffacab #ffffff -3 256;
#X obj 44 149 tgl 30 1 empty empty empty 17 7 0 10 #191919 #5bcefa #ffffff 1 1;
#X obj 94 149 tgl 30 1 empty empty empty 17 7 0 10 #191919 #f5a9b8 #ffffff 0 1;
#X obj 144 149 tgl 30 1 empty empty empty 17 7 0 10 #191919 #ed3b4b #ffffff 0 1;
#X obj 194 149 tgl 30 1 empty empty empty 17 7 0 10 #191919 #ff6e1d #ffffff 0 1;
#X obj 244 149 tgl 30 1 empty empty empty 17 7 0 10 #191919 #fbcd26 #ffffff 1 1;
#X obj 294 149 tgl 30 1 empty empty empty 17 7 0 10 #191919 #53af65 #ffffff 0 1;
#X obj 344 149 tgl 30 1 empty empty empty 17 7 0 10 #191919 #2d8ce3 #ffffff 1 1;
#X obj 394 149 tgl 30 1 empty empty empty 17 7 0 10 #191919 #6a47b9 #ffffff 1 1;
#X obj 444 149 tgl 30 1 empty empty empty 17 7 0 10 #191919 #5bcefa #ffffff 1 1;
#X obj 494 149 tgl 30 1 empty empty empty 17 7 0 10 #191919 #f5a9b8 #ffffff 0 1;
#X obj 544 149 tgl 30 1 empty empty empty 17 7 0 10 #191919 #ed3b4b #ffffff 1 1;
#X obj 594 149 tgl 30 1 empty empty empty 17 7 0 10 #191919 #ff6e1d #ffffff 0 1;
#X obj 644 149 tgl 30 1 empty empty empty 17 7 0 10 #191919 #fbcd26 #ffffff 1 1;
#X obj 694 149 tgl 30 1 empty empty empty 17 7 0 10 #191919 #53af65 #ffffff 0 1;
#X obj 744 149 tgl 30 1 empty empty empty 17 7 0 10 #191919 #2d8ce3 #ffffff 1 1;
#X obj 794 149 tgl 30 1 empty empty empty 17 7 0 10 #191919 #6a47b9 #ffffff 0 1;
#X obj 32 247 nbx 4 20 -256 256 0 1 empty empty empty 0 -8 0 10 #191919 #5bcefa #ffffff -2 256;
#X obj 82 247 nbx 4 20 -256 256 0 1 empty empty empty 0 -8 0 10 #191919 #f5a9b8 #ffffff 0 256;
#X obj 132 247 nbx 4 20 -256 256 0 1 empty empty empty 0 -8 0 10 #191919 #ed3b4b #ffffff 0 256;
#X obj 182 247 nbx 4 20 -256 256 0 1 empty empty empty 0 -8 0 10 #191919 #ff6e1d #ffffff 0 256;
#X obj 232 247 nbx 4 20 -256 256 0 1 empty empty empty 0 -8 0 10 #191919 #fbcd26 #ffffff -1 256;
#X obj 282 247 nbx 4 20 -256 256 0 1 empty empty empty 0 -8 0 10 #191919 #53af65 #ffffff 0 256;
#X obj 332 247 nbx 4 20 -256 256 0 1 empty empty empty 0 -8 0 10 #191919 #2d8ce3 #ffffff 3 256;
#X obj 382 247 nbx 4 20 -256 256 0 1 empty empty empty 0 -8 0 10 #191919 #6a47b9 #ffffff -3 256;
#X obj 432 247 nbx 4 20 -256 256 0 1 empty empty empty 0 -8 0 10 #191919 #5bcefa #ffffff 0 256;
#X obj 482 247 nbx 4 20 -256 256 0 1 empty empty empty 0 -8 0 10 #191919 #f5a9b8 #ffffff 0 256;
#X obj 532 247 nbx 4 20 -256 256 0 1 empty empty empty 0 -8 0 10 #191919 #ed3b4b #ffffff 0 256;
#X obj 582 247 nbx 4 20 -256 256 0 1 empty empty empty 0 -8 0 10 #191919 #ff6e1d #ffffff 0 256;
#X obj 632 247 nbx 4 20 -256 256 0 1 empty empty empty 0 -8 0 10 #191919 #fbcd26 #ffffff 4 256;
#X obj 682 247 nbx 4 20 -256 256 0 1 empty empty empty 0 -8 0 10 #191919 #53af65 #ffffff 0 256;
#X obj 732 247 nbx 4 20 -256 256 0 1 empty empty empty 0 -8 0 10 #191919 #2d8ce3 #ffffff 0 256;
#X obj 782 247 nbx 4 20 -256 256 0 1 empty empty empty 0 -8 0 10 #191919 #6a47b9 #ffffff 0 256;
#X obj 119 211 bng 30 50 10 0 empty empty empty 17 7 0 10 #191919 #ed3b4b #ffffff;
#X obj 169 211 bng 30 50 10 0 empty empty empty 17 7 0 10 #191919 #ff6e1d #ffffff;
#X obj 219 211 bng 30 50 10 0 empty empty empty 17 7 0 10 #191919 #fbcd26 #ffffff;
#X obj 269 211 bng 30 50 10 0 empty empty empty 17 7 0 10 #191919 #53af65 #ffffff;
#X obj 319 211 bng 30 50 10 0 empty empty empty 17 7 0 10 #191919 #2d8ce3 #ffffff;
#X obj 369 211 bng 30 50 10 0 empty empty empty 17 7 0 10 #191919 #6a47b9 #ffffff;
#X obj 69 211 bng 30 50 10 0 empty empty empty 17 7 0 10 #191919 #f5a9b8 #ffffff;
#X obj 19 211 bng 30 50 10 0 empty empty empty 17 7 0 10 #191919 #5bcefa #ffffff;
#X obj 519 211 bng 30 50 10 0 empty empty empty 17 7 0 10 #191919 #ed3b4b #ffffff;
#X obj 569 211 bng 30 50 10 0 empty empty empty 17 7 0 10 #191919 #ff6e1d #ffffff;
#X obj 619 211 bng 30 50 10 0 empty empty empty 17 7 0 10 #191919 #fbcd26 #ffffff;
#X obj 669 211 bng 30 50 10 0 empty empty empty 17 7 0 10 #191919 #53af65 #ffffff;
#X obj 719 211 bng 30 50 10 0 empty empty empty 17 7 0 10 #191919 #2d8ce3 #ffffff;
#X obj 769 211 bng 30 50 10 0 empty empty empty 17 7 0 10 #191919 #6a47b9 #ffffff;
#X obj 469 211 bng 30 50 10 0 empty empty empty 17 7 0 10 #191919 #f5a9b8 #ffffff;
#X obj 419 211 bng 30 50 10 0 empty empty empty 17 7 0 10 #191919 #5bcefa #ffffff;
#X obj 578 409 nbx 7 20 0 20000 0 1 empty empty empty 0 -4 0 10 #191919 #0acafa #ffffff 5020 256;
#X obj 654 409 nbx 4 20 0 1 0 1 empty empty Q 38 16 0 10 #191919 #0acafa #ffffff 0.42 256;
#X obj 829 409 nbx 4 20 0 1 0 1 empty empty Q 38 16 0 10 #191919 #0acafa #ffffff 0.42 256;
#X obj 729 306 nbx 5 20 -5 5 0 1 empty empty empty 0 -4 0 10 #191919 #0acafa #ffffff -1 256;
#X obj 788 306 nbx 5 20 -5 5 0 1 empty empty empty 0 -4 0 10 #191919 #0acafa #ffffff 1 256;
#X obj 825 336 nbx 4 20 -96 24 0 1 empty empty empty 0 -4 0 10 #191919 #0acafa #ffffff 0 256;
#X obj 540 437 svfilter~;
#X obj 715 437 svfilter~;
#X obj 48 391 nbx 4 18 0 256 0 1 empty empty max -43 9 0 10 #191919 #ffacab #ffffff 36 256;
#X obj 187 324 tgl 33 1 empty empty empty -4 -6 0 12 #191919 #ffacab #ffffff 1 1;
#X obj 78 415 fold;
#X obj 19 415 wrap2;
#X obj 137 415 clip;
#X obj 33 369 nbx 5 18 -256 0 0 1 empty empty min -26 9 0 10 #191919 #ffacab #ffffff -36 256;
#X obj 107 391 nbx 4 18 0 256 0 1 empty empty empty 0 -8 0 10 #191919 #ffacab #ffffff 36 256;
#X obj 92 369 nbx 5 18 -256 0 0 1 empty empty empty 0 -8 0 10 #191919 #ffacab #ffffff -36 256;
#X obj 166 391 nbx 4 18 0 256 0 1 empty empty empty 0 -8 0 10 #191919 #ffacab #ffffff 36 256;
#X obj 151 369 nbx 5 18 -256 0 0 1 empty empty empty 0 -8 0 10 #191919 #ffacab #ffffff -36 256;
#X obj 19 337 router 3;
#X obj 54 312 hradio 20 1 1 3 empty empty limit\ mode 22 25 0 10 #191919 #ffacab #ffffff 0;
#X obj 273 394 nbx 3 18 0 12 0 1 empty empty root 26 -4 0 10 #191919 #ffacab #ffffff 4.5 256;
#X obj 262 447 +;
#X obj 321 394 nbx 3 18 -16 16 0 1 empty empty oct 28 -4 0 10 #191919 #ffacab #ffffff 0 256;
#X obj 715 336 clip~;
#X obj 443 12 tgl 31 1 empty empty empty 17 7 0 10 #191919 #ffacab #ffffff 1 1;
#X obj 199 27 nbx 4 18 0 15 0 1 empty empty empty 0 -6 0 12 #191919 #ffacab #ffffff 0 256;
#X msg 506 49 tempo \$1 permin, f 16;
#X obj 485 19 nbx 5 18 0.001 64000 0 1 empty empty bpm 35 -4 0 10 #191919 #ffacab #ffffff 49 256;
#X obj 443 50 metro 1, f 8;
#X obj 146 77 count;
#X msg 161 50 up, f 4;
#X msg 146 27 down;
#X msg 323 50 alt \$1;
#X obj 323 22 tgl 25 1 empty empty empty 0 -7 0 12 #191919 #ffacab #ffffff 0 1;
#X obj 261 27 nbx 4 18 0 15 0 1 empty empty empty 0 -6 0 12 #191919 #ffacab #ffffff 15 256;
#X msg 261 50 max \$1, f 8;
#X msg 199 50 min \$1, f 8;
#X msg 374 50 reset \$1;
#X obj 374 27 nbx 4 18 0 15 0 1 empty empty empty 0 -8 0 10 #191919 #ffacab #ffffff 0 256;
#X obj 578 386 expr ldexp($f1 \, $f2);
#X obj 581 363 hsl 79 20 0.01 22000 1 0 empty empty cutoff 55 14 0 10 #191919 #0acafa #ffffff 0 1;
#X obj 756 363 hsl 78 20 0.01 22000 1 0 empty empty cutoff 55 14 0 10 #191919 #0acafa #ffffff 0 1;
#X obj 753 409 nbx 7 20 0 20000 0 1 empty empty empty 0 -4 0 10 #191919 #0acafa #ffffff 2323 256;
#X obj 753 386 expr ldexp($f1 \, $f2);
#X obj 667 363 nbx 3 20 0 32 0 1 empty empty empty 0 -4 0 10 #191919 #0acafa #ffffff 0 256;
#X obj 841 363 nbx 3 20 0 32 0 1 empty empty empty 0 -4 0 10 #191919 #0acafa #ffffff 0 256;
#X obj 554 306 nbx 5 20 -5 5 0 1 empty empty empty 0 -4 0 10 #191919 #0acafa #ffffff -1 256;
#X obj 613 306 nbx 5 20 -5 5 0 1 empty empty empty 0 -4 0 10 #191919 #0acafa #ffffff 1 256;
#X obj 540 336 clip~;
#X obj 262 418 +;
#X obj 368 394 nbx 3 18 1 100 0 1 empty empty edo 25 -4 0 10 #191919 #ffacab #ffffff 12 256;
#N canvas 0 50 598 481 semi2freq 0;
#X obj 219 134 inlet;
#X obj 273 134 inlet;
#X obj 257 423 outlet;
#X obj 257 387 * 261.626, f 10;
#X obj 257 344 pow;
#X msg 257 305 2;
#X text 32 133 semitone (0 being the root note);
#X text 316 133 in n-tone equal temperament;
#X obj 257 226 /;
#X obj 273 177 t b f;
#X text 334 386 multiply by middle c to get the frequency;
#X obj 257 267 t b f, f 6;
#X text 301 343 ratio;
#X text 62 48 multiplying 440 (a4) by 2^(1/12) will give us the frequency of a#4 (466.16) \; and so multiplying any frequency by 2^(x/n) will give you the transposition \; of that frequency by x semitones in n-tone equal temperament;
#X connect 0 0 8 0;
#X connect 1 0 9 0;
#X connect 3 0 2 0;
#X connect 4 0 3 0;
#X connect 5 0 4 0;
#X connect 8 0 11 0;
#X connect 9 0 8 0;
#X connect 9 1 8 1;
#X connect 11 0 5 0;
#X connect 11 1 4 1;
#X restore 302 447 pd semi2freq;
#X f 13;
#X obj 403 436 plaits~;
#N canvas 0 50 450 471 scales 0;
#X text 239 18 hexatonic blues;
#X text 269 48 9-tone blues;
#X text 249 78 harmonic minor;
#X text 249 108 melodic minor;
#X text 249 138 ukrainian dorian;
#X text 249 168 aeolian;
#X text 249 198 dorian;
#X text 249 228 ionian;
#X text 249 258 locrian;
#X text 249 288 lydian;
#X text 249 318 mixolydian;
#X text 249 348 phrygian;
#X text 239 378 whole tone;
#X text 299 408 chromatic;
#X obj 19 9 inlet;
#X obj 109 439 outlet;
#X msg 129 19 0 3 5 6 7 10 12;
#X msg 129 49 0 2 3 4 5 6 7 9 10 12;
#X msg 129 79 0 2 3 5 7 8 11 12;
#X msg 129 109 0 2 3 5 7 9 11 12;
#X msg 129 139 0 2 3 6 7 9 11 12;
#X msg 129 169 0 2 3 5 7 8 10 12;
#X msg 129 199 0 2 3 5 7 9 10 12;
#X msg 129 229 0 2 4 5 7 9 11 12;
#X msg 129 259 0 1 3 5 6 8 10 12;
#X msg 129 289 0 2 4 6 7 9 11 12;
#X msg 129 319 0 2 4 5 7 9 10 12;
#X msg 129 349 0 1 3 5 7 8 10 12;
#X msg 129 379 0 2 4 6 8 10 12;
#X msg 129 409 0 1 2 3 4 5 6 7 8 9 10 11 12;
#X obj 19 339 scala;
#X obj 19 299 bng 25 250 50 0 empty empty empty 17 7 0 10 #191919 #d4d4d4 #d4d4d4;
#X text 19 268 scala files;
#X obj 19 379 op / 100;
#X connect 16 0 15 0 32.................F....D1+++uA....g8+++CY....;
#X connect 17 0 15 0 32.................F....D1+++uA....g8+++KW....;
#X connect 18 0 15 0 32.................F....D1+++uA....g8+++SU....;
#X connect 19 0 15 0 32.................G....D1++++A....g8+++aS....;
#X connect 20 0 15 0 32.................D....D1+++OA....g8+++iQ....;
#X connect 21 0 15 0 32.................F....D1+++uA....g8+++qO....;
#X connect 22 0 15 0 32.................E....D1+++eA....g8+++yM....;
#X connect 23 0 15 0 32.................E....D1+++eA....g8+++6K....;
#X connect 24 0 15 0 32.................F....D1+++uA....g8+++CJ....;
#X connect 25 0 15 0 32.................F....D1+++uA....g8+++KH....;
#X connect 26 0 15 0 32.................E....D1+++eA....g8+++SF....;
#X connect 27 0 15 0 32.................F....D1+++uA....g8+++aD....;
#X connect 28 0 15 0 32.................E....D1+++eA....g8+++iB....;
#X connect 29 0 15 0 32.................F....D1+++uA....g8+++q.....;
#X connect 30 0 33 0;
#X connect 31 0 30 0;
#X connect 33 0 15 0;
#X restore 304 355 pd scales;
#X msg 273 309 0 2 3 5 7 8 10 12;
#X msg 287 332 0 2 4 5 7 9 11 12;
#X text 381 309 m;
#X text 393 333 M;
#X obj 8 249 bng 15 250 50 0 empty empty empty 17 7 0 10 #191919 #ffffff #ffffff;
#N canvas 0 50 450 348 * 0;
#X obj 79 49 inlet;
#X obj 319 49 inlet;
#X obj 79 89 route bang float;
#X obj 79 189 *;
#X obj 79 149 f;
#X obj 79 309 outlet;
#X text 29 18 multiply 2 numbers \, but only output product when we get a bang;
#X obj 79 269 +;
#X text 139 268 add the step value from the shared sequence;
#X obj 139 229 r m-0;
#X connect 0 0 2 0;
#X connect 1 0 3 1;
#X connect 2 0 4 0;
#X connect 2 1 4 1;
#X connect 3 0 7 0;
#X connect 4 0 3 0;
#X connect 7 0 5 0;
#X connect 9 0 7 1;
#X restore 19 274 pd *;
#N canvas 0 50 450 348 * 0;
#X obj 79 49 inlet;
#X obj 210 49 inlet;
#X obj 79 89 route bang float;
#X obj 199 179 *;
#X obj 79 149 f;
#X obj 199 309 outlet;
#X obj 199 269 +;
#X obj 309 229 r m-1;
#X connect 0 0 2 0;
#X connect 1 0 3 1;
#X connect 2 0 4 0;
#X connect 2 1 4 1;
#X connect 3 0 6 0;
#X connect 4 0 3 0;
#X connect 6 0 5 0;
#X connect 7 0 6 1;
#X restore 69 274 pd *;
#N canvas 0 50 450 348 * 0;
#X obj 79 49 inlet;
#X obj 210 49 inlet;
#X obj 79 89 route bang float;
#X obj 199 179 *;
#X obj 79 149 f;
#X obj 199 289 outlet;
#X obj 199 249 +;
#X obj 259 209 r m-2;
#X connect 0 0 2 0;
#X connect 1 0 3 1;
#X connect 2 0 4 0;
#X connect 2 1 4 1;
#X connect 3 0 6 0;
#X connect 4 0 3 0;
#X connect 6 0 5 0;
#X connect 7 0 6 1;
#X restore 119 274 pd *;
#N canvas 0 50 450 348 * 0;
#X obj 79 49 inlet;
#X obj 210 49 inlet;
#X obj 79 89 route bang float;
#X obj 199 179 *;
#X obj 79 149 f;
#X obj 199 309 outlet;
#X obj 199 269 +;
#X obj 249 229 r m-3;
#X connect 0 0 2 0;
#X connect 1 0 3 1;
#X connect 2 0 4 0;
#X connect 2 1 4 1;
#X connect 3 0 6 0;
#X connect 4 0 3 0;
#X connect 6 0 5 0;
#X connect 7 0 6 1;
#X restore 169 274 pd *;
#N canvas 0 50 450 348 * 0;
#X obj 79 49 inlet;
#X obj 210 49 inlet;
#X obj 79 89 route bang float;
#X obj 199 179 *;
#X obj 79 149 f;
#X obj 199 309 outlet;
#X obj 199 259 +;
#X obj 279 209 r m-4;
#X connect 0 0 2 0;
#X connect 1 0 3 1;
#X connect 2 0 4 0;
#X connect 2 1 4 1;
#X connect 3 0 6 0;
#X connect 4 0 3 0;
#X connect 6 0 5 0;
#X connect 7 0 6 1;
#X restore 219 274 pd *;
#N canvas 0 50 450 348 * 0;
#X obj 79 49 inlet;
#X obj 210 49 inlet;
#X obj 79 89 route bang float;
#X obj 199 179 *;
#X obj 79 149 f;
#X obj 199 299 outlet;
#X obj 199 259 +;
#X obj 259 219 r m-5;
#X connect 0 0 2 0;
#X connect 1 0 3 1;
#X connect 2 0 4 0;
#X connect 2 1 4 1;
#X connect 3 0 6 0;
#X connect 4 0 3 0;
#X connect 6 0 5 0;
#X connect 7 0 6 1;
#X restore 269 274 pd *;
#N canvas 0 50 450 348 * 0;
#X obj 79 49 inlet;
#X obj 210 49 inlet;
#X obj 79 89 route bang float;
#X obj 199 179 *;
#X obj 79 149 f;
#X obj 199 309 outlet;
#X obj 199 269 +;
#X obj 249 229 r m-6;
#X connect 0 0 2 0;
#X connect 1 0 3 1;
#X connect 2 0 4 0;
#X connect 2 1 4 1;
#X connect 3 0 6 0;
#X connect 4 0 3 0;
#X connect 6 0 5 0;
#X connect 7 0 6 1;
#X restore 319 274 pd *;
#N canvas 0 50 450 348 * 0;
#X obj 79 49 inlet;
#X obj 210 49 inlet;
#X obj 79 89 route bang float;
#X obj 199 179 *;
#X obj 79 149 f;
#X obj 199 309 outlet;
#X text 29 18 multiply 2 numbers \, but only output product when we get a bang;
#X obj 199 259 +;
#X obj 249 219 r m-7;
#X connect 0 0 2 0;
#X connect 1 0 3 1;
#X connect 2 0 4 0;
#X connect 2 1 4 1;
#X connect 3 0 7 0;
#X connect 4 0 3 0;
#X connect 7 0 5 0;
#X connect 8 0 7 1;
#X restore 369 274 pd *;
#N canvas 0 50 450 348 * 0;
#X obj 79 49 inlet;
#X obj 210 49 inlet;
#X obj 79 89 route bang float;
#X obj 199 179 *;
#X obj 79 149 f;
#X obj 199 319 outlet;
#X text 29 18 multiply 2 numbers \, but only output product when we get a bang;
#X obj 199 269 +;
#X obj 239 229 r m-8;
#X connect 0 0 2 0;
#X connect 1 0 3 1;
#X connect 2 0 4 0;
#X connect 2 1 4 1;
#X connect 3 0 7 0;
#X connect 4 0 3 0;
#X connect 7 0 5 0;
#X connect 8 0 7 1;
#X restore 419 274 pd *;
#N canvas 0 50 450 348 * 0;
#X obj 79 49 inlet;
#X obj 210 49 inlet;
#X obj 79 89 route bang float;
#X obj 199 179 *;
#X obj 79 149 f;
#X obj 199 309 outlet;
#X obj 199 269 +;
#X obj 249 219 r m-9;
#X connect 0 0 2 0;
#X connect 1 0 3 1;
#X connect 2 0 4 0;
#X connect 2 1 4 1;
#X connect 3 0 6 0;
#X connect 4 0 3 0;
#X connect 6 0 5 0;
#X connect 7 0 6 1;
#X restore 469 274 pd *;
#N canvas 0 50 450 348 * 0;
#X obj 79 49 inlet;
#X obj 210 49 inlet;
#X obj 79 89 route bang float;
#X obj 199 179 *;
#X obj 79 149 f;
#X obj 199 309 outlet;
#X obj 199 269 +;
#X obj 259 229 r m-10;
#X connect 0 0 2 0;
#X connect 1 0 3 1;
#X connect 2 0 4 0;
#X connect 2 1 4 1;
#X connect 3 0 6 0;
#X connect 4 0 3 0;
#X connect 6 0 5 0;
#X connect 7 0 6 1;
#X restore 519 274 pd *;
#N canvas 0 50 450 348 * 0;
#X obj 79 49 inlet;
#X obj 210 49 inlet;
#X obj 79 89 route bang float;
#X obj 199 179 *;
#X obj 79 149 f;
#X obj 199 319 outlet;
#X obj 199 279 +;
#X obj 239 239 r m-11;
#X connect 0 0 2 0;
#X connect 1 0 3 1;
#X connect 2 0 4 0;
#X connect 2 1 4 1;
#X connect 3 0 6 0;
#X connect 4 0 3 0;
#X connect 6 0 5 0;
#X connect 7 0 6 1;
#X restore 569 274 pd *;
#N canvas 0 50 450 348 * 0;
#X obj 79 49 inlet;
#X obj 210 49 inlet;
#X obj 79 89 route bang float;
#X obj 199 179 *;
#X obj 79 149 f;
#X obj 199 319 outlet;
#X obj 199 269 +;
#X obj 249 229 r m-12;
#X connect 0 0 2 0;
#X connect 1 0 3 1;
#X connect 2 0 4 0;
#X connect 2 1 4 1;
#X connect 3 0 6 0;
#X connect 4 0 3 0;
#X connect 6 0 5 0;
#X connect 7 0 6 1;
#X restore 619 274 pd *;
#N canvas 0 50 450 348 * 0;
#X obj 79 49 inlet;
#X obj 210 49 inlet;
#X obj 79 89 route bang float;
#X obj 199 179 *;
#X obj 79 149 f;
#X obj 199 319 outlet;
#X obj 199 279 +;
#X obj 239 229 r m-13;
#X connect 0 0 2 0;
#X connect 1 0 3 1;
#X connect 2 0 4 0;
#X connect 2 1 4 1;
#X connect 3 0 6 0;
#X connect 4 0 3 0;
#X connect 6 0 5 0;
#X connect 7 0 6 1;
#X restore 669 274 pd *;
#N canvas 0 50 450 348 * 0;
#X obj 79 49 inlet;
#X obj 210 49 inlet;
#X obj 79 89 route bang float;
#X obj 199 179 *;
#X obj 79 149 f;
#X obj 199 309 outlet;
#X obj 199 259 +;
#X obj 239 219 r m-14;
#X connect 0 0 2 0;
#X connect 1 0 3 1;
#X connect 2 0 4 0;
#X connect 2 1 4 1;
#X connect 3 0 6 0;
#X connect 4 0 3 0;
#X connect 6 0 5 0;
#X connect 7 0 6 1;
#X restore 719 274 pd *;
#N canvas 0 50 450 348 * 0;
#X obj 79 49 inlet;
#X obj 210 49 inlet;
#X obj 79 89 route bang float;
#X obj 199 179 *;
#X obj 79 149 f;
#X obj 199 309 outlet;
#X obj 199 259 +;
#X obj 249 219 r m-15;
#X connect 0 0 2 0;
#X connect 1 0 3 1;
#X connect 2 0 4 0;
#X connect 2 1 4 1;
#X connect 3 0 6 0;
#X connect 4 0 3 0;
#X connect 6 0 5 0;
#X connect 7 0 6 1;
#X restore 769 274 pd *;
#X obj 627 76 nbx 3 18 1 60000 0 1 empty empty 🧿 -24 9 0 20 #191919 #ffacab #00b5c8 306.122 256;
#N canvas 0 50 450 300 (subpatch) 0;
#X obj 169 9 inlet;
#X obj 69 159 outlet;
#X obj 69 129 delay;
#X obj 0 0 bng 30 50 10 0 empty empty empty 17 7 0 10 #191919 #5bcefa #ffffff;
#X obj 9 159 outlet;
#X obj 69 9 inlet;
#X connect 0 0 2 1;
#X connect 2 0 1 0;
#X connect 3 0 2 0;
#X connect 3 0 4 0;
#X connect 5 0 3 0;
#X coords 0 0 1 1 31 31 2 0 0;
#X restore 21 113 pd;
#N canvas 0 50 450 300 (subpatch) 0;
#X obj 0 0 bng 30 50 10 0 empty empty empty 17 7 0 10 #191919 #f5a9b8 #ffffff;
#X obj 229 9 inlet;
#X obj 69 189 outlet;
#X obj 69 149 delay;
#X obj 9 189 outlet;
#X obj 79 9 inlet;
#X connect 0 0 4 0;
#X connect 0 0 3 0;
#X connect 1 0 3 1;
#X connect 3 0 2 0;
#X connect 5 0 0 0;
#X coords 0 0 1 1 31 31 2 0 0;
#X restore 71 113 pd;
#N canvas 0 50 450 300 (subpatch) 0;
#X obj 0 0 bng 30 50 10 0 empty empty empty 17 7 0 10 #191919 #ed3b4b #ffffff;
#X obj 219 9 inlet;
#X obj 69 189 outlet;
#X obj 69 149 delay;
#X obj 9 189 outlet;
#X obj 69 9 inlet;
#X connect 0 0 4 0;
#X connect 0 0 3 0;
#X connect 1 0 3 1;
#X connect 3 0 2 0;
#X connect 5 0 0 0;
#X coords 0 0 1 1 31 31 2 0 0;
#X restore 121 113 pd;
#N canvas 0 50 450 300 (subpatch) 0;
#X obj 0 0 bng 30 50 10 0 empty empty empty 17 7 0 10 #191919 #ff6e1d #ffffff;
#X obj 239 9 inlet;
#X obj 69 199 outlet;
#X obj 69 159 delay;
#X obj 9 199 outlet;
#X obj 89 9 inlet;
#X connect 0 0 3 0;
#X connect 0 0 4 0;
#X connect 1 0 3 1;
#X connect 3 0 2 0;
#X connect 5 0 0 0;
#X coords 0 0 1 1 31 31 2 0 0;
#X restore 171 113 pd;
#N canvas 0 50 450 300 (subpatch) 0;
#X obj 0 0 bng 30 50 10 0 empty empty empty 17 7 0 10 #191919 #fbcd26 #ffffff;
#X obj 219 9 inlet;
#X obj 79 189 outlet;
#X obj 79 149 delay;
#X obj 19 189 outlet;
#X obj 89 9 inlet;
#X connect 0 0 4 0;
#X connect 0 0 3 0;
#X connect 1 0 3 1;
#X connect 3 0 2 0;
#X connect 5 0 0 0;
#X coords 0 0 1 1 31 31 2 0 0;
#X restore 221 113 pd;
#N canvas 0 50 450 300 (subpatch) 0;
#X obj 0 0 bng 30 50 10 0 empty empty empty 17 7 0 10 #191919 #53af65 #ffffff;
#X obj 229 9 inlet;
#X obj 79 189 outlet;
#X obj 79 149 delay;
#X obj 19 189 outlet;
#X obj 79 9 inlet;
#X connect 0 0 4 0;
#X connect 0 0 3 0;
#X connect 1 0 3 1;
#X connect 3 0 2 0;
#X connect 5 0 0 0;
#X coords 0 0 1 1 31 31 2 0 0;
#X restore 271 113 pd;
#N canvas 0 50 450 300 (subpatch) 0;
#X obj 0 0 bng 30 50 10 0 empty empty empty 17 7 0 10 #191919 #2d8ce3 #ffffff;
#X obj 229 9 inlet;
#X obj 69 189 outlet;
#X obj 69 149 delay;
#X obj 9 189 outlet;
#X obj 89 9 inlet;
#X connect 0 0 4 0;
#X connect 0 0 3 0;
#X connect 1 0 3 1;
#X connect 3 0 2 0;
#X connect 5 0 0 0;
#X coords 0 0 1 1 31 31 2 0 0;
#X restore 321 113 pd;
#N canvas 0 50 450 300 (subpatch) 0;
#X obj 0 0 bng 30 50 10 0 empty empty empty 17 7 0 10 #191919 #6a47b9 #ffffff;
#X obj 219 9 inlet;
#X obj 79 189 outlet;
#X obj 79 149 delay;
#X obj 19 189 outlet;
#X obj 89 9 inlet;
#X connect 0 0 4 0;
#X connect 0 0 3 0;
#X connect 1 0 3 1;
#X connect 3 0 2 0;
#X connect 5 0 0 0;
#X coords 0 0 1 1 31 31 2 0 0;
#X restore 371 113 pd;
#N canvas 0 50 450 300 (subpatch) 0;
#X obj 229 9 inlet;
#X obj 69 189 outlet;
#X obj 69 149 delay;
#X obj 0 0 bng 30 50 10 0 empty empty empty 17 7 0 10 #191919 #5bcefa #ffffff;
#X obj 9 189 outlet;
#X obj 79 9 inlet;
#X connect 0 0 2 1;
#X connect 2 0 1 0;
#X connect 3 0 2 0;
#X connect 3 0 4 0;
#X connect 5 0 3 0;
#X coords 0 0 1 1 31 31 2 0 0;
#X restore 421 113 pd;
#N canvas 0 50 450 300 (subpatch) 0;
#X obj 0 0 bng 30 50 10 0 empty empty empty 17 7 0 10 #191919 #f5a9b8 #ffffff;
#X obj 219 9 inlet;
#X obj 69 189 outlet;
#X obj 69 159 delay;
#X obj 9 189 outlet;
#X obj 79 9 inlet;
#X connect 0 0 4 0;
#X connect 0 0 3 0;
#X connect 1 0 3 1;
#X connect 3 0 2 0;
#X connect 5 0 0 0;
#X coords 0 0 1 1 31 31 2 0 0;
#X restore 471 113 pd;
#N canvas 0 50 450 300 (subpatch) 0;
#X obj 0 0 bng 30 50 10 0 empty empty empty 17 7 0 10 #191919 #ed3b4b #ffffff;
#X obj 229 9 inlet;
#X obj 69 189 outlet;
#X obj 69 149 delay;
#X obj 9 189 outlet;
#X obj 79 9 inlet;
#X connect 0 0 4 0;
#X connect 0 0 3 0;
#X connect 1 0 3 1;
#X connect 3 0 2 0;
#X connect 5 0 0 0;
#X coords 0 0 1 1 31 31 2 0 0;
#X restore 521 113 pd;
#N canvas 0 50 450 300 (subpatch) 0;
#X obj 0 0 bng 30 50 10 0 empty empty empty 17 7 0 10 #191919 #ff6e1d #ffffff;
#X obj 229 19 inlet;
#X obj 69 199 outlet;
#X obj 69 159 delay;
#X obj 9 199 outlet;
#X obj 89 19 inlet;
#X connect 0 0 3 0;
#X connect 0 0 4 0;
#X connect 1 0 3 1;
#X connect 3 0 2 0;
#X connect 5 0 0 0;
#X coords 0 0 1 1 31 31 2 0 0;
#X restore 571 113 pd;
#N canvas 0 50 450 300 (subpatch) 0;
#X obj 0 0 bng 30 50 10 0 empty empty empty 17 7 0 10 #191919 #fbcd26 #ffffff;
#X obj 269 9 inlet;
#X obj 79 189 outlet;
#X obj 79 149 delay;
#X obj 19 189 outlet;
#X obj 89 9 inlet;
#X connect 0 0 4 0;
#X connect 0 0 3 0;
#X connect 1 0 3 1;
#X connect 3 0 2 0;
#X connect 5 0 0 0;
#X coords 0 0 1 1 31 31 2 0 0;
#X restore 621 113 pd;
#N canvas 0 50 450 300 (subpatch) 0;
#X obj 0 0 bng 30 50 10 0 empty empty empty 17 7 0 10 #191919 #53af65 #ffffff;
#X obj 229 9 inlet;
#X obj 79 189 outlet;
#X obj 79 149 delay;
#X obj 19 189 outlet;
#X obj 79 9 inlet;
#X connect 0 0 4 0;
#X connect 0 0 3 0;
#X connect 1 0 3 1;
#X connect 3 0 2 0;
#X connect 5 0 0 0;
#X coords 0 0 1 1 31 31 2 0 0;
#X restore 671 113 pd;
#N canvas 0 50 450 300 (subpatch) 0;
#X obj 0 0 bng 30 50 10 0 empty empty empty 17 7 0 10 #191919 #2d8ce3 #ffffff;
#X obj 239 9 inlet;
#X obj 69 189 outlet;
#X obj 69 149 delay;
#X obj 9 189 outlet;
#X obj 89 9 inlet;
#X connect 0 0 4 0;
#X connect 0 0 3 0;
#X connect 1 0 3 1;
#X connect 3 0 2 0;
#X connect 5 0 0 0;
#X coords 0 0 1 1 31 31 2 0 0;
#X restore 721 113 pd;
#N canvas 0 50 450 300 (subpatch) 0;
#X obj 0 0 bng 30 50 10 0 empty empty empty 17 7 0 10 #191919 #6a47b9 #ffffff;
#X obj 229 9 inlet;
#X obj 79 189 outlet;
#X obj 79 149 delay;
#X obj 19 189 outlet;
#X obj 79 9 inlet;
#X connect 0 0 4 0;
#X connect 0 0 3 0;
#X connect 1 0 3 1;
#X connect 3 0 2 0;
#X connect 5 0 0 0;
#X coords 0 0 1 1 31 31 2 0 0;
#X restore 771 113 pd;
#X obj 321 418 * 12;
#X obj 159 449 nbx 4 18 0 60000 0 1 empty empty empty 0 -8 0 10 #191919 #ffacab #ffffff 0 256;
#X obj 418 306 nbx 4 18 0 23 0 1 empty empty empty 0 -8 0 10 #191919 #ffffff #ffffff 22 256;
#X obj 427 328 nbx 4 18 0 1 0 1 empty empty empty 0 -8 0 10 #191919 #ffffff #ffffff 0 256;
#X obj 437 350 nbx 4 18 0 1 0 1 empty empty empty 0 -8 0 10 #191919 #ffffff #ffffff 0 256;
#X obj 447 372 nbx 4 18 0 1 0 1 empty empty empty 0 -8 0 10 #191919 #ffffff #ffffff 0.147 256;
#X obj 484 350 nbx 4 18 0 1 0 1 empty empty empty 0 -8 0 10 #191919 #ffffff #ffffff 0.51 256;
#X obj 501 372 tgl 25 1 empty empty empty 17 7 0 10 #191919 #ffffff #ffffff 1 1;
#N canvas 0 50 450 300 methods 0;
#X msg 59 129 harmonics \$1;
#X msg 109 99 timbre \$1;
#X msg 159 129 morph \$1;
#X obj 19 269 outlet;
#X msg 19 99 model \$1;
#X obj 19 19 inlet;
#X obj 59 19 inlet;
#X obj 109 19 inlet;
#X obj 159 19 inlet;
#X msg 249 149 decay \$1;
#X msg 329 149 trigger \$1;
#X obj 329 19 inlet;
#X obj 249 19 inlet;
#X connect 0 0 3 0;
#X connect 1 0 3 0;
#X connect 2 0 3 0;
#X connect 4 0 3 0;
#X connect 5 0 4 0;
#X connect 6 0 0 0;
#X connect 7 0 1 0;
#X connect 8 0 2 0;
#X connect 9 0 3 0;
#X connect 10 0 3 0;
#X connect 11 0 10 0;
#X connect 12 0 9 0;
#X restore 418 404 pd methods;
#N canvas 0 50 450 300 + 0;
#X obj 149 39 inlet;
#X obj 149 169 +;
#X obj 199 39 inlet;
#X obj 199 99 t b f;
#X obj 149 239 outlet;
#X connect 0 0 1 0;
#X connect 1 0 4 0;
#X connect 2 0 3 0;
#X connect 3 0 1 0;
#X connect 3 1 1 1;
#X restore 216 448 pd +;
#N canvas 0 50 450 250 (subpatch) 0;
#X obj 109 79 key;
#X obj 19 289 spigot;
#X obj 1 1 tgl 19 1 empty empty empty 17 7 0 10 #191919 #ffffff #ffffff 0 1;
#X obj 19 359 outlet;
#X obj 109 119 select 81 87 69 82 84 89 85 73 65 83 68 70 71 72 74 75;
#X msg 109 179 0;
#X msg 128 209 1;
#X msg 148 179 2;
#X msg 167 209 3;
#X msg 187 179 4;
#X msg 206 209 5;
#X msg 226 179 6;
#X msg 245 209 7;
#X msg 265 179 8;
#X msg 285 209 9;
#X msg 304 179 10;
#X msg 324 209 11;
#X msg 343 179 12;
#X msg 363 209 13;
#X msg 382 179 14;
#X msg 402 209 15;
#X obj 109 29 inlet;
#X connect 0 0 4 0;
#X connect 1 0 3 0;
#X connect 2 0 1 1;
#X connect 4 0 5 0;
#X connect 4 1 6 0;
#X connect 4 2 7 0;
#X connect 4 3 8 0;
#X connect 4 4 9 0;
#X connect 4 5 10 0;
#X connect 4 6 11 0;
#X connect 4 7 12 0;
#X connect 4 8 13 0;
#X connect 4 9 14 0;
#X connect 4 10 15 0;
#X connect 4 11 16 0;
#X connect 4 12 17 0;
#X connect 4 13 18 0;
#X connect 4 14 19 0;
#X connect 4 15 20 0;
#X connect 5 0 1 0;
#X connect 6 0 1 0;
#X connect 7 0 1 0;
#X connect 8 0 1 0;
#X connect 9 0 1 0;
#X connect 10 0 1 0;
#X connect 11 0 1 0;
#X connect 12 0 1 0;
#X connect 13 0 1 0;
#X connect 14 0 1 0;
#X connect 15 0 1 0;
#X connect 16 0 1 0;
#X connect 17 0 1 0;
#X connect 18 0 1 0;
#X connect 19 0 1 0;
#X connect 20 0 1 0;
#X connect 21 0 2 0;
#X coords 0 1 100 -1 21 21 1 0 0;
#X restore 258 76 graph;
#X obj 198 82 nbx 4 18 -1e+37 1e+37 0 0 empty empty empty 0 -8 0 10 #191919 #ffffff #ffffff 0 256;
#N canvas 0 50 450 250 (subpatch) 0;
#X obj 0 0 tgl 21 1 empty empty empty 17 7 0 10 #191919 #ffffff #ffffff 1 1;
#X obj 49 9 inlet~;
#X obj 49 109 outlet~;
#X obj 49 59 *~ 0;
#X obj 129 9 inlet;
#X connect 0 0 3 1;
#X connect 1 0 3 0;
#X connect 3 0 2 0;
#X connect 4 0 0 0;
#X coords 0 1 100 -1 21 21 1 0 0;
#X restore 793 438 graph;
#X obj 544 19 nbx 4 18 0.0001 128 0 1 empty empty mult 28 -4 0 10 #191919 #ffacab #ffffff 4 256;
#X obj 59 9 inlet;
#X obj 849 470 outlet;
#X obj 792 470 outlet~;
#X obj 9 9 inlet~;
#X obj 650 336 nbx 4 20 -96 24 0 1 empty empty empty 0 -4 0 10 #191919 #0acafa #ffffff -9 256;
#N canvas 0 50 450 250 (subpatch) 0;
#X obj 0 0 tgl 21 1 empty empty empty 17 7 0 10 #191919 #ffffff #ffffff 1 1;
#X obj 49 9 inlet~;
#X obj 49 109 outlet~;
#X obj 49 59 *~ 0;
#X obj 129 9 inlet;
#X connect 0 0 3 1;
#X connect 1 0 3 0;
#X connect 3 0 2 0;
#X connect 4 0 0 0;
#X coords 0 1 100 -1 21 21 1 0 0;
#X restore 497 437 graph;
#N canvas 0 50 450 250 (subpatch) 0;
#X obj 0 0 tgl 21 1 empty empty empty 17 7 0 10 #191919 #ffffff #ffffff 1 1;
#X obj 49 9 inlet~;
#X obj 49 109 outlet~;
#X obj 49 59 *~ 0;
#X obj 129 9 inlet;
#X connect 0 0 3 1;
#X connect 1 0 3 0;
#X connect 3 0 2 0;
#X connect 4 0 0 0;
#X coords 0 1 100 -1 21 21 1 0 0;
#X restore 472 437 graph;
#N canvas 0 50 802 500 quantize 0;
#X obj 29 19 inlet;
#X obj 109 379 -;
#X obj 89 409 +;
#X obj 469 59 inlet;
#X obj 29 469 outlet;
#X obj 569 169 loadbang;
#X obj 109 319 t f f;
#X obj 89 197 t f f;
#N canvas 1042 459 424 460 find-nearest 0;
#X obj 49 16 inlet;
#X obj 49 429 outlet;
#X obj 159 19 inlet;
#X obj 49 399 f;
#X obj 269 199 -;
#X obj 269 229 abs;
#X obj 269 269 min;
#X obj 269 299 change;
#X obj 49 49 t b b f b;
#X obj 89 179 until;
#X obj 129 289 list store;
#X obj 89 218 f;
#X obj 139 219 + 1;
#X msg 149 179 0;
#X msg 89 249 get \$1;
#X obj 119 139 t b l b;
#X obj 119 109 list store;
#X obj 339 299 t b f;
#X obj 129 359 f;
#X msg 209 269 set -1;
#X obj 129 319 t f f;
#X msg 309 229 1e+16;
#X connect 0 0 8 0;
#X connect 2 0 16 1;
#X connect 3 0 1 0;
#X connect 4 0 5 0;
#X connect 5 0 6 0;
#X connect 6 0 7 0;
#X connect 7 0 17 0;
#X connect 8 0 3 0;
#X connect 8 1 16 0 32.................e....LG...vG....yA...fB....;
#X connect 8 2 4 1 32.................S....fQ...vD....XD...HH....;
#X connect 8 3 21 0 32.................H....TR....B....kD....J....;
#X connect 9 0 11 0;
#X connect 10 0 20 0;
#X connect 10 1 9 1;
#X connect 11 0 14 0;
#X connect 11 0 12 0;
#X connect 12 0 11 1;
#X connect 13 0 11 1;
#X connect 14 0 10 0;
#X connect 15 0 9 0;
#X connect 15 1 10 1;
#X connect 15 2 13 0;
#X connect 15 2 19 0;
#X connect 16 0 15 0;
#X connect 17 0 18 0;
#X connect 17 1 6 1;
#X connect 18 0 3 1;
#X connect 19 0 7 0;
#X connect 20 0 4 0;
#X connect 20 1 18 1;
#X connect 21 0 6 1;
#X restore 109 349 pd find-nearest;
#N canvas 0 50 325 375 list-max 0;
#X obj 239 339 outlet;
#X obj 79 19 inlet;
#X obj 59 109 until;
#X obj 119 259 list store;
#X obj 29 168 f;
#X obj 79 169 + 1;
#X msg 199 109 0;
#X msg 29 219 get \$1;
#X obj 189 299 max;
#X obj 239 299 f;
#X obj 79 59 t b l b;
#X connect 1 0 10 0;
#X connect 2 0 4 0;
#X connect 3 0 8 0;
#X connect 3 1 2 1;
#X connect 4 0 7 0;
#X connect 4 0 5 0;
#X connect 5 0 4 1;
#X connect 6 0 4 1;
#X connect 6 0 8 1;
#X connect 7 0 3 0;
#X connect 8 0 9 0;
#X connect 9 0 0 0;
#X connect 9 0 8 1;
#X connect 10 0 2 0;
#X connect 10 1 3 1;
#X connect 10 2 6 0;
#X restore 467 351 pd list-max;
#X obj 89 169 spigot;
#X obj 279 169 spigot;
#X text 659 168 store the list;
#X text 149 168 quantize to nearest;
#X text 339 168 quantize by index;
#X obj 304 89 tgl 25 1 empty empty empty 17 7 0 10 #191919 #d4d4d4 #d4d4d4 1 1;
#X obj 269 129 == 0;
#X obj 109 259 wrap;
#X obj 109 289 * 12;
#X obj 109 229 / 12;
#N canvas 0 50 450 450 index 0;
#X obj 229 319 list store;
#X obj 269 69 list length;
#X obj 229 179 wrap;
#X obj 229 209 * 12;
#X obj 229 149 / 12;
#X obj 269 99 - 1;
#X obj 79 219 *;
#X obj 79 19 inlet;
#X obj 219 19 inlet;
#X obj 369 19 inlet;
#X obj 79 409 outlet;
#X obj 79 379 +;
#X obj 79 79 t f f;
#X msg 229 289 get \$1;
#X obj 229 249 expr rint($f1);
#X obj 79 169 div;
#X obj 79 49 int, f 5;
#X connect 0 0 11 1;
#X connect 1 0 5 0;
#X connect 2 0 3 0;
#X connect 3 0 14 0;
#X connect 4 0 2 0;
#X connect 5 0 3 1;
#X connect 5 0 4 1;
#X connect 5 0 15 1;
#X connect 6 0 11 0;
#X connect 7 0 16 0;
#X connect 8 0 6 1;
#X connect 9 0 1 0;
#X connect 9 0 0 1;
#X connect 11 0 10 0;
#X connect 12 0 15 0;
#X connect 12 1 4 0;
#X connect 13 0 0 0;
#X connect 14 0 13 0;
#X connect 15 0 6 0;
#X connect 16 0 12 0;
#X restore 279 439 pd index;
#X obj 304 49 route ndx;
#X obj 499 279 print scale;
#X obj 304 19 inlet;
#X obj 29 109 spigot;
#X obj 89 109 spigot;
#X obj 119 39 tgl 25 1 empty empty empty 17 7 0 10 #191919 #d4d4d4 #d4d4d4 1 1;
#X obj 69 79 == 0;
#X obj 499 139 list prepend set;
#X obj 499 169 list trim;
#X msg 469 239 0 2 3 5 7 8 10 12;
#X obj 469 89 t b l;
#X connect 0 0 24 0;
#X connect 0 0 25 0;
#X connect 1 0 2 1;
#X connect 2 0 4 0;
#X connect 3 0 31 0;
#X connect 5 0 30 0;
#X connect 6 0 8 0;
#X connect 6 1 1 1;
#X connect 7 0 2 0;
#X connect 7 1 19 0;
#X connect 8 0 1 0;
#X connect 9 0 19 1;
#X connect 9 0 18 1;
#X connect 9 0 20 1;
#X connect 10 0 7 0;
#X connect 11 0 20 0;
#X connect 15 0 16 0;
#X connect 15 0 11 1;
#X connect 16 0 10 1;
#X connect 17 0 18 0;
#X connect 18 0 6 0;
#X connect 19 0 17 0;
#X connect 20 0 4 0;
#X connect 21 0 15 0;
#X connect 21 1 26 0;
#X connect 23 0 21 0;
#X connect 24 0 4 0;
#X connect 25 0 10 0;
#X connect 25 0 11 0;
#X connect 26 0 27 0;
#X connect 26 0 25 1;
#X connect 27 0 24 1;
#X connect 28 0 29 0;
#X connect 29 0 30 0;
#X connect 30 0 20 2;
#X connect 30 0 8 1;
#X connect 30 0 9 0;
#X connect 30 0 22 0;
#X connect 31 0 30 0;
#X connect 31 1 28 0;
#X restore 216 371 pd quantize;
#X obj 224 309 tgl 25 1 empty empty empty 17 7 0 10 #191919 #ffacab #d4d4d4 1 1;
#X msg 224 337 ndx \$1;
#N canvas 0 50 450 300 glide 0;
#X obj 119 49 inlet;
#X obj 279 49 inlet;
#X obj 119 219 outlet;
#X obj 179 109 pack f f;
#X obj 179 149 line 0 1;
#X obj 349 49 inlet;
#X connect 0 0 3 0;
#X connect 1 0 3 1;
#X connect 3 0 4 0;
#X connect 4 0 2 0;
#X connect 5 0 4 2;
#X restore 89 449 pd glide;
#X obj 595 336 dbtoa;
#X obj 770 336 dbtoa;
#X obj 286 79 select 0 1 2 3 4 5 6 7 8 9 10 11 12 13 14 15;
#X obj 19 184 spigot;
#X obj 69 184 spigot;
#X obj 119 184 spigot;
#X obj 169 184 spigot;
#X obj 219 184 spigot;
#X obj 269 184 spigot;
#X obj 319 184 spigot;
#X obj 369 184 spigot;
#X obj 419 184 spigot;
#X obj 469 184 spigot;
#X obj 519 184 spigot;
#X obj 569 184 spigot;
#X obj 619 184 spigot;
#X obj 669 184 spigot;
#X obj 719 184 spigot;
#X obj 769 184 spigot;
#X obj 482 468 *~ 1;
#N canvas 0 50 450 300 * 0;
#X obj 109 29 inlet;
#X obj 219 39 inlet;
#X obj 179 89 t b f;
#X obj 189 199 outlet;
#X obj 149 139 * 4;
#X connect 0 0 4 0;
#X connect 1 0 2 0;
#X connect 2 0 4 0;
#X connect 2 1 4 1;
#X connect 4 0 3 0;
#X restore 600 19 pd *;
#N canvas 0 50 450 300 2msec 0;
#X obj 159 39 inlet;
#X obj 179 169 /;
#X obj 158 237 outlet;
#X obj 159 79 t b f;
#X msg 129 129 60000;
#X connect 0 0 3 0;
#X connect 1 0 2 0;
#X connect 3 0 4 0;
#X connect 3 1 1 1;
#X connect 4 0 1 0;
#X restore 627 49 pd 2msec;
#X obj 540 363 *~ 1;
#X obj 715 363 *~ 1;
#X obj 799 49 rev3~;
#X obj 847 212 rand.i -3 3;
#X connect 0 0 108 0 32.................C....HM++++.....Ry+++a.....;
#X connect 0 0 109 0 32.................C....PP++++.....Dz+++a.....;
#X connect 0 0 110 0 32.................C....XS++++.....1z+++a.....;
#X connect 0 0 112 0 32.................C....nY++++.....Z1+++a.....;
#X connect 0 0 113 0 32.................C....vb++++.....L2+++a.....;
#X connect 0 0 114 0 32.................C....3e++++.....92+++a.....;
#X connect 0 0 115 0 32.................C.....i++++.....v3+++a.....;
#X connect 0 0 116 0 32.................C....Hl++++.....h4+++a.....;
#X connect 0 0 117 0 32.................C....Po++++.....T5+++a.....;
#X connect 0 0 118 0 32.................C....Xr++++.....F6+++a.....;
#X connect 0 0 119 0 32.................C....fu++++.....36+++a.....;
#X connect 0 0 120 0 32.................C....nx++++.....p7+++a.....;
#X connect 0 0 121 0 32.................C....v0++++.....b8+++a.....;
#X connect 0 0 122 0 32.................C....33++++.....N9+++a.....;
#X connect 0 0 123 0 32.................C.....7++++......++++a.....;
#X connect 0 0 111 0 32.................C....fV++++.....n0+++a.....;
#X connect 1 0 169 1;
#X connect 2 0 170 1;
#X connect 3 0 171 1;
#X connect 4 0 172 1;
#X connect 5 0 173 1;
#X connect 6 0 174 1;
#X connect 7 0 175 1;
#X connect 8 0 176 1;
#X connect 9 0 177 1;
#X connect 10 0 178 1;
#X connect 11 0 179 1;
#X connect 12 0 180 1;
#X connect 13 0 181 1;
#X connect 14 0 182 1;
#X connect 15 0 183 1;
#X connect 16 0 184 1;
#X connect 17 0 108 1;
#X connect 18 0 109 1;
#X connect 19 0 110 1;
#X connect 20 0 111 1;
#X connect 21 0 112 1;
#X connect 22 0 113 1;
#X connect 23 0 114 1;
#X connect 24 0 115 1;
#X connect 25 0 116 1;
#X connect 26 0 117 1;
#X connect 27 0 118 1;
#X connect 28 0 119 1;
#X connect 29 0 120 1;
#X connect 30 0 121 1;
#X connect 31 0 122 1;
#X connect 32 0 123 1;
#X connect 33 0 110 0;
#X connect 33 0 107 0 32.................D....z3+++OA....M9+++m.....;
#X connect 34 0 111 0;
#X connect 34 0 107 0 32.................D....r0+++OA....a8+++m.....;
#X connect 35 0 112 0;
#X connect 35 0 107 0 32.................D....jx+++OA....o7+++m.....;
#X connect 36 0 113 0;
#X connect 36 0 107 0 32.................D....bu+++OA....26+++m.....;
#X connect 37 0 114 0;
#X connect 37 0 107 0 32.................D....Tr+++OA....E6+++m.....;
#X connect 38 0 115 0;
#X connect 38 0 107 0 32.................D....Lo+++OA....S5+++m.....;
#X connect 39 0 109 0;
#X connect 39 0 107 0 32.................D....76+++OA....+9+++m.....;
#X connect 40 0 108 0;
#X connect 40 0 107 0 32.................D....D++++OA....w++++m.....;
#X connect 41 0 118 0;
#X connect 41 0 107 0 32.................D....ze+++OA....82+++m.....;
#X connect 42 0 119 0;
#X connect 42 0 107 0 32.................D....rb+++OA....K2+++m.....;
#X connect 43 0 120 0;
#X connect 43 0 107 0 32.................D....jY+++OA....Y1+++m.....;
#X connect 44 0 121 0;
#X connect 44 0 107 0 32.................D....bV+++OA....m0+++m.....;
#X connect 45 0 122 0;
#X connect 45 0 107 0 32.................D....TS+++OA....0z+++m.....;
#X connect 46 0 123 0;
#X connect 46 0 107 0 32.................D....LP+++OA....Cz+++m.....;
#X connect 47 0 117 0;
#X connect 47 0 107 0 32.................D....7h+++OA....u3+++m.....;
#X connect 48 0 116 0;
#X connect 48 0 107 0 32.................D....Dl+++OA....g4+++m.....;
#X connect 49 0 55 1 32.................D....L++++OA....y++++i.....;
#X connect 50 0 55 2 32.................D....76+++OA....+9+++i.....;
#X connect 51 0 56 2 32.................D....76+++OA....+9+++i.....;
#X connect 52 0 72 1;
#X connect 53 0 72 2 32.................D....D8+++OA....Q++++q.....;
#X connect 54 0 167 0 48.................C....D+++++.....w++++q9+++ux++++p++++q7+++e6++++;
#X connect 55 0 72 0 48.................G....7I...vA....eB...L3++++q....C9++++J....h++++;
#X connect 56 0 153 0 48.................G....7C...vA....+....n9+++OR....p++++iD...f6++++;
#X connect 57 0 60 2;
#X connect 58 0 162 1 32.................G....jC...vA....4....3.....;
#X connect 59 0 165 0 32.................G....z....vA....M....3.....;
#X connect 60 0 165 0 32.................G....XD...vA....FA...3.....;
#X connect 61 0 165 0 32.................G....T8++++A....U++++6.....;
#X connect 62 0 60 1;
#X connect 63 0 59 2;
#X connect 64 0 59 1;
#X connect 65 0 61 2;
#X connect 66 0 61 1;
#X connect 67 0 60 0;
#X connect 67 1 59 0 32.................H....fB....B....n....nC....;
#X connect 67 2 61 0 32.................E....7D...PA....OA...nC....;
#X connect 68 0 67 1;
#X connect 69 0 98 1;
#X connect 70 0 100 0 48.................C....nA...v.....Z....n9+++eJ....p++++mB...P6++++;
#X connect 71 0 141 0;
#X connect 72 0 189 0;
#X connect 73 0 77 0;
#X connect 74 0 85 0;
#X connect 75 0 77 0 48.................D....D++++OA....w++++q9+++uv++++p++++K7+++u6++++;
#X connect 76 0 186 0 48.................G....PF...vA....jA...v9++++b....r++++OG...v6++++;
#X connect 77 0 78 0 32.................D....Tq+++OA....05+++e.....;
#X connect 78 0 152 0 48.................E....TB...PA....k....39+++OM....t++++SC...f7++++;
#X connect 79 0 78 0 32.................D....LB....A....i....b.....;
#X connect 80 0 78 0;
#X connect 81 0 78 0 32.................D....fG....A....3A...b.....;
#X connect 82 0 81 0;
#X connect 83 0 84 0;
#X connect 84 0 78 0 32.................D....XK....A....1B...b.....;
#X connect 85 0 78 0 32.................D....PO....A....zC...b.....;
#X connect 86 0 78 0 32.................D....TD....A....EA...b.....;
#X connect 87 0 86 0;
#X connect 88 0 49 0;
#X connect 89 0 88 0;
#X connect 90 0 92 0;
#X connect 91 0 56 1 32.................D....L++++OA....y++++i.....;
#X connect 92 0 91 0;
#X connect 93 0 88 1 32.................B....n....f.....J....P.....;
#X connect 94 0 92 1 32.................B....7....f.....O....L.....;
#X connect 95 0 97 1;
#X connect 96 0 97 2 32.................E....77+++eA....O++++q.....;
#X connect 97 0 188 0;
#X connect 98 0 70 0;
#X connect 99 0 100 1;
#X connect 99 0 141 1 32.................D....n8+++OA....Z++++a.....;
#X connect 100 0 101 0 48.................C....PE...v.....TA...v8+++eY....b++++WF...f3++++;
#X connect 101 0 161 0 48.................H....DC....B....w....r9++++O....q+++++C...f6++++;
#X connect 101 1 160 0 48.................E....7A...PA....e....f9+++OR....n++++iD...f6++++;
#X connect 102 0 162 2 48.................E....D++++eA....w++++i++++u3++++3++++K9+++e+++++;
#X connect 103 0 162 2;
#X connect 104 0 162 2 32.................H....L++++OB....y++++OA....;
#X connect 107 0 101 0 32.................o....7X...PJ....OF...HK....;
#X connect 108 0 67 0;
#X connect 109 0 67 0 32.................G....77++++A....O++++aB....;
#X connect 110 0 67 0 32.................G....z4++++A....c9+++aB....;
#X connect 111 0 67 0 32.................G....r1++++A....q8+++aB....;
#X connect 112 0 67 0 32.................G....jy++++A....47+++aB....;
#X connect 113 0 67 0 32.................G....bv++++A....G7+++aB....;
#X connect 114 0 67 0 32.................G....Ts++++A....U6+++aB....;
#X connect 115 0 67 0 32.................G....Lp++++A....i5+++aB....;
#X connect 116 0 67 0 32.................G....Dm++++A....w4+++aB....;
#X connect 117 0 67 0 32.................G....7i++++A....+3+++aB....;
#X connect 118 0 67 0 32.................G....zf++++A....M3+++aB....;
#X connect 119 0 67 0 32.................G....rc++++A....a2+++aB....;
#X connect 120 0 67 0 32.................G....jZ++++A....o1+++aB....;
#X connect 121 0 67 0 32.................G....bW++++A....20+++aB....;
#X connect 122 0 67 0 32.................G....TT++++A....E0+++aB....;
#X connect 123 0 67 0 32.................G....LQ++++A....Sz+++uB....;
#X connect 124 0 125 1 32.................L....Xf+++OC....F3+++aA....;
#X connect 124 0 126 1 32.................L....fi+++OC....33+++WA....;
#X connect 124 0 127 1 32.................L....nl+++OC....p4+++WA....;
#X connect 124 0 128 1 32.................L....vo+++OC....b5+++WA....;
#X connect 124 0 129 1 32.................L....3r+++OC....N6+++aA....;
#X connect 124 0 130 1 32.................L.....v+++OC.....7+++WA....;
#X connect 124 0 131 1 32.................L....Hy+++OC....x7+++WA....;
#X connect 124 0 132 1 32.................L....P1+++OC....j8+++WA....;
#X connect 124 0 133 1 32.................L....X4+++OC....V9+++WA....;
#X connect 124 0 134 1 32.................L....f7+++OC....H++++SA....;
#X connect 124 0 136 1 32.................L....vB....C....r....PA....;
#X connect 124 0 138 1 32.................L.....I....C....PB...PA....;
#X connect 124 0 139 1 32.................L....HL....C....BC...PA....;
#X connect 124 0 140 1 32.................L....PO....C....zC...PA....;
#X connect 124 0 137 1 32.................L....3E....C....dA...TA....;
#X connect 124 0 135 1 32.................L.....5+++OC....f9+++SA....;
#X connect 125 0 169 0;
#X connect 126 0 170 0;
#X connect 127 0 171 0;
#X connect 128 0 172 0;
#X connect 129 0 173 0;
#X connect 130 0 174 0;
#X connect 131 0 175 0;
#X connect 132 0 176 0;
#X connect 133 0 177 0;
#X connect 134 0 178 0;
#X connect 135 0 179 0;
#X connect 136 0 180 0;
#X connect 137 0 181 0;
#X connect 138 0 182 0;
#X connect 139 0 183 0;
#X connect 140 0 184 0;
#X connect 140 1 191 0;
#X connect 141 0 70 1 32.................D....L8+++OA....S++++m.....;
#X connect 142 0 165 1 48.................C....79++++.....u++++y9+++u2++++r++++68++++6++++;
#X connect 143 0 149 0;
#X connect 144 0 149 1 32.................0....b....PM....G....nC....;
#X connect 145 0 149 2 32.................e....3....vG....N....PB....;
#X connect 146 0 149 3 32.................E....LA...PA....S....z.....;
#X connect 147 0 149 4;
#X connect 148 0 149 5;
#X connect 149 0 101 0 32.................F....P++++uA....z++++y.....;
#X connect 150 0 98 0 48.................C....7A...v.....e....v7+++uK....L++++6B...vy++++;
#X connect 151 0 152 0 48.................C....D+++++.....w++++69++++w++++t++++e7+++u7++++;
#X connect 152 0 168 0 48.................C....fD...v.....HA...n9+++OV....p++++iE....6++++;
#X connect 153 0 157 0;
#X connect 154 0 186 1 48.................D....XB....A....l....j9+++OS....o++++yD...v6++++;
#X connect 159 0 166 0 48.................C....D+++++.....w++++q9+++ux++++p++++q7+++e6++++;
#X connect 160 0 185 0;
#X connect 161 0 185 0;
#X connect 162 0 150 0;
#X connect 163 0 164 0;
#X connect 164 0 162 1 32.................D....PA....A....T....3.....;
#X connect 165 0 162 0 48.................D....7F....A....uA...n4++++e....Z9++++G...vm++++;
#X connect 166 0 188 1 32.................C....T8++++.....U++++e.....;
#X connect 167 0 189 1 32.................C....L8++++.....S++++a.....;
#X connect 168 0 125 0 32.................G....H2++++A....x8+++GA....;
#X connect 168 1 126 0 32.................G....L4++++A....S9+++CA....;
#X connect 168 2 127 0 32.................G....L6++++A....y9+++CA....;
#X connect 168 3 128 0 32.................G....P8++++A....T++++CA....;
#X connect 168 4 129 0 32.................G....P+++++A....z++++GA....;
#X connect 168 5 130 0 32.................G....TA...vA....U.....A....;
#X connect 168 6 131 0 32.................G....TC...vA....0.....A....;
#X connect 168 7 132 0 32.................G....XE...vA....VA....A....;
#X connect 168 8 133 0 32.................G....XG...vA....1A....A....;
#X connect 168 9 134 0 32.................G....XI...vA....VB...7.....;
#X connect 168 10 135 0 32.................G....bK...vA....2B...7.....;
#X connect 168 11 136 0 32.................G....bM...vA....WC...7.....;
#X connect 168 12 137 0 32.................G....fO...vA....3C....A....;
#X connect 168 13 138 0 32.................G....fQ...vA....XD...7.....;
#X connect 168 14 139 0 32.................G....jS...vA....4D...7.....;
#X connect 168 15 140 0 32.................G....jU...vA....YE...7.....;
#X connect 169 0 40 0;
#X connect 170 0 39 0;
#X connect 171 0 33 0;
#X connect 172 0 34 0;
#X connect 173 0 35 0;
#X connect 174 0 36 0;
#X connect 175 0 37 0;
#X connect 176 0 38 0;
#X connect 177 0 48 0;
#X connect 178 0 47 0;
#X connect 179 0 41 0;
#X connect 180 0 42 0;
#X connect 181 0 43 0;
#X connect 182 0 44 0;
#X connect 183 0 45 0;
#X connect 184 0 46 0;
#X connect 185 0 97 0 48.................E....jB...PA....o....P1+++uN....j8+++qC...PZ++++;
#X connect 186 0 75 0 32.................G....z6++++A....89+++q.....;
#X connect 186 0 187 0 32.................E....rA...PA....a....n.....;
#X connect 187 0 124 0;
#X connect 188 0 55 0;
#X connect 189 0 56 0;
#X connect 191 0 0 0;
#X restore 19 19 pd seq0;
#X obj 89 289 dac~;
#X obj 209 159 spectrograph~ 1024 1 1 300 140 24;
#X msg 379 119 rate \$1;
#X msg 449 119 db \$1;
#X obj 449 79 tgl 25 1 empty empty empty 17 7 0 10 #191919 #d4d4d4 #d4d4d4 1 1;
#X obj 379 89 nbx 4 18 -1e+37 1e+37 0 1 empty empty empty 0 -8 0 10 #191919 #d4d4d4 #d4d4d4 24 256;
#X obj 89 249 *~ 1;
#X obj 149 59 nbx 8 21 -1e+37 1e+37 0 1 empty empty empty 0 -8 0 10 #191919 #d4d4d4 #d4d4d4 1191.3 256;
#X obj 239 69 nbx 8 21 -1e+37 1e+37 0 1 empty empty empty 0 -8 0 10 #191919 #d4d4d4 #d4d4d4 0.0006 256;
#X obj 152 29 hsl 128 17 0 20000 0 0 empty empty empty -2 -8 0 10 #191919 #d4d4d4 #d4d4d4 0 1;
#X obj 19 79 *~;
#X obj 89 19 nbx 4 18 -1e+37 1e+37 0 1 empty empty empty 0 -8 0 10 #191919 #d4d4d4 #d4d4d4 1 256;
#X obj -111 189 highpass~;
#X obj -191 189 lowpass~;
#X obj 29 159 bandpass~ -bw;
#X obj -33 112 osc~;
#X obj -101 29 nbx 11 31 -1e+37 1e+37 0 1 empty empty empty 0 -8 0 10 #191919 #d4d4d4 #d4d4d4 663 256;
#X connect 0 0 11 0;
#X connect 3 0 2 0;
#X connect 4 0 2 0;
#X connect 5 0 4 0;
#X connect 6 0 3 0;
#X connect 7 0 2 0;
#X connect 7 0 1 0;
#X connect 7 0 1 1;
#X connect 8 0 15 1;
#X connect 9 0 15 2;
#X connect 10 0 8 0;
#X connect 12 0 11 1;
#X connect 15 0 7 0;
#X connect 16 0 15 0;
#X connect 17 0 16 0;
