#N canvas 827 239 527 327 12;
#N canvas 0 50 450 250 (subpatch) 1;
#X msg 180 151 hsl \$1 100 50;
#X obj 30 381 note 683 72 Source\ Code\ Pro empty 3 255 0 136 0 25 25 25 0 0 slaps;
#X obj 180 191 colors -rgb;
#X msg 180 228 color \$1 \$2 \$3;
#X obj 30 121 rand.i 0 1;
#X obj 100 121 rand.i 0 1;
#X msg 30 151 bold \$1;
#X msg 100 151 italic \$1;
#X obj 290 211 text get -s text t;
#X msg 290 241 set \$1;
#X obj 373 35 loadbang;
#X obj 290 160 nbx 7 23 -1e+37 1e+37 0 0 empty empty empty 0 -8 0 10 #191919 #ffffff #ffffff 0 256;
#X obj 180 121 rand.i 0 360;
#X obj 180 81 metro 0 0.0125 sec;
#X obj 373 181 text define -k text;
#A set may \; you \; find \; peace \; live \; well \; have \; grace \; and \; courage \; dance \; in \; the \; darkness \; make \; music \; that \; slaps \; have \; fun \; and \; be \; gay \;;
#X obj 290 121 count 0 22;
#X connect 0 0 2 0 empty;
#X connect 2 0 3 0 empty;
#X connect 3 0 1 0 32.................r....r1+++OK....q8+++WH....;
#X connect 4 0 6 0 empty;
#X connect 5 0 7 0 empty;
#X connect 6 0 1 0 empty;
#X connect 7 0 1 0 32.................oA...r6+++eZ....69+++KM....;
#X connect 8 0 9 0 empty;
#X connect 9 0 1 0 32.................s....zu+++eK....86+++iG....;
#X connect 10 0 14 0 empty;
#X connect 10 0 13 0 empty;
#X connect 11 0 8 0 empty;
#X connect 12 0 0 0 empty;
#X connect 13 0 4 0 32.................F....r1+++uA....q8+++SA....;
#X connect 13 0 5 0 32.................F....D6+++uA....w9+++SA....;
#X connect 13 0 12 0 32.................J.........fB.........PA....;
#X connect 13 0 15 0 32.................J....3F...fB....tA...PA....;
#X connect 14 0 8 3 empty;
#X connect 15 0 11 0 empty;
#X coords 0 1 100 -1 296 84 1 23 383;
#X restore 199 159 graph;
