#N canvas 827 239 527 327 12;
#N canvas 0 50 450 250 (subpatch) 0;
#X text 0 0 plugdatainfo <?xml version="1.0" encoding="UTF-8"?> <plugdatainfo/>;
#X coords 0 1 100 -1 1 1 1;
#X restore 0 0 graph;
#X obj 146 27 inlet;
#X obj 78 27 inlet;
#X obj 120 406 outlet;
#X obj 131 181 mod;
#X obj 120 362 nbx 4 18 -1e+37 1e+37 0 0 empty empty empty 0 -8 0 10 #191919 #ffffff #ffffff 0 256;
#X obj 78 75 nbx 4 18 -1e+37 1e+37 0 0 empty empty empty 0 -8 0 10 #191919 #ffffff #ffffff 0 256;
#X obj 146 75 nbx 4 18 -1e+37 1e+37 0 0 empty empty empty 0 -8 0 10 #191919 #ffffff #ffffff 0 256;
#X obj 78 181 wrap;
#X obj 120 261 +;
#X obj 78 114 abs;
#X obj 196 246 wrap;
#X obj 196 201 abs;
#X obj 196 155 nbx 14 23 -1e+37 1e+37 0 0 empty empty empty 0 -8 0 10 #191919 #ffffff #ffffff 0 256;
#X obj 196 291 nbx 13 22 -1e+37 1e+37 0 0 empty empty empty 0 -8 0 10 #191919 #ffffff #ffffff 0 256;
#X obj 345 259 wrap2;
#X obj 374 174 nbx 4 18 -1e+37 1e+37 0 0 empty empty empty 0 -8 0 10 #191919 #ffffff #ffffff 0 256;
#X obj 359 226 * -1;
#X obj 345 54 nbx 4 18 -1e+37 1e+37 0 0 empty empty empty 0 -8 0 10 #191919 #ffffff #ffffff 0 256;
#X obj 345 295 nbx 4 18 -1e+37 1e+37 0 0 empty empty empty 0 -8 0 10 #191919 #ffffff #ffffff 0 256;
#X obj 453 259 wrap2;
#X obj 482 174 nbx 4 18 -1e+37 1e+37 0 0 empty empty empty 0 -8 0 10 #191919 #ffffff #ffffff 0 256;
#X obj 453 54 nbx 4 18 -1e+37 1e+37 0 0 empty empty empty 0 -8 0 10 #191919 #ffffff #ffffff 0 256;
#X obj 453 295 nbx 4 18 -1e+37 1e+37 0 0 empty empty empty 0 -8 0 10 #191919 #ffffff #ffffff 0 256;
#X obj 509 259 fold;
#X obj 518 293 nbx 4 18 -1e+37 1e+37 0 0 empty empty empty 0 -8 0 10 #191919 #ffffff #ffffff 0 256;
#X obj 563 212 nbx 4 18 -1e+37 1e+37 0 0 empty empty empty 0 -8 0 10 #191919 #ffffff #ffffff 0 256;
#X obj 548 174 nbx 4 18 -1e+37 1e+37 0 0 empty empty empty 0 -8 0 10 #191919 #ffffff #ffffff 0 256;
#X obj 534 103 nbx 4 18 -1e+37 1e+37 0 0 empty empty empty 0 -8 0 10 #191919 #ffffff #ffffff 0 256;
#X obj 569 259 clip;
#X connect 1 0 7 0;
#X connect 2 0 6 0;
#X connect 4 0 9 1;
#X connect 5 0 3 0;
#X connect 6 0 10 0;
#X connect 7 0 4 1;
#X connect 8 0 9 0;
#X connect 9 0 5 0;
#X connect 10 0 8 0;
#X connect 10 0 4 0;
#X connect 11 0 14 0;
#X connect 12 0 11 0;
#X connect 13 0 12 0;
#X connect 15 0 19 0;
#X connect 16 0 15 2;
#X connect 16 0 17 0;
#X connect 17 0 15 1;
#X connect 18 0 15 0;
#X connect 20 0 23 0;
#X connect 21 0 20 2;
#X connect 22 0 20 0;
#X connect 24 0 25 0;
#X connect 26 0 24 2;
#X connect 27 0 24 1;
#X connect 28 0 24 0;
