#N canvas 827 239 527 327 12;
#N canvas 0 50 450 250 (subpatch) 0;
#X text 0 0 plugdatainfo <?xml version="1.0" encoding="UTF-8"?> <plugdatainfo/>;
#X coords 0 1 100 -1 1 1 1;
#X restore 0 0 graph;
#X obj 60 38 function 200 100 empty empty 0 1 228 228 228 90 90 90 0 0 0 0 0 1000 0;
#X obj 209 198 list length;
#X obj 209 235 nbx 4 18 -1e+37 1e+37 0 0 empty empty empty 0 -8 0 10 #e4e4e4 #5a5a5a #5a5a5a 0 256;
#X obj 209 264 - 1;
#X obj 209 294 nbx 4 18 -1e+37 1e+37 0 0 empty empty empty 0 -8 0 10 #e4e4e4 #5a5a5a #5a5a5a 0 256;
#X obj 209 323 / 2;
#X obj 209 354 nbx 4 18 -1e+37 1e+37 0 0 empty empty empty 0 -8 0 10 #e4e4e4 #5a5a5a #5a5a5a 0 256;
#X obj 209 391 loop;
#N canvas 0 50 450 250 (subpatch) 0;
#X array arr1 1000 float 0;
#X coords 0 1 999 0 200 140 1;
#X restore 431 862 graph;
#X obj 60 288 pick;
#X listbox 60 151 61 0 0 0 - - - 0;
#X obj 69 452 function 200 100 empty empty 0 1 228 228 228 90 90 90 0 0 0 0 0 1000 0;
#X obj 69 586 function~;
#X obj 77 631 poke~;
#X obj 112 763 array size arr1;
#X text 345 294 lol, f 4;
#X obj 171 878 function 200 100 empty empty 0 1 228 228 228 90 90 90 0 0 0 0 0 298.969 0.638298 0 0.0212766 185.567 0 216.495 0.797872 298.969 0;
#X text 77 671 and at the end of the day \, you look at yourself and think: "i was an idiot this morning!", f 66;
#X text 345 518 lmao! no! we won't audio-rate it, f 26;
#X obj 77 995 tabwrite arr1;
#X obj 77 716 bng 25 250 50 0 empty empty empty 17 7 0 10 #e4e4e4 #5a5a5a #5a5a5a;
#X obj 77 803 loop;
#X obj 77 843 /;
#X connect 1 0 11 0;
#X connect 2 0 3 0;
#X connect 3 0 4 0;
#X connect 4 0 5 0;
#X connect 5 0 6 0;
#X connect 6 0 7 0;
#X connect 7 0 8 0;
#X connect 11 0 2 0;
#X connect 11 0 10 0;
#X connect 12 0 13 0;
#X connect 13 0 14 0;
#X connect 15 0 22 1;
#X connect 15 0 23 1;
#X connect 17 0 20 0;
#X connect 21 0 22 0;
#X connect 21 0 15 0;
#X connect 22 0 20 1;
#X connect 22 0 23 0;
#X connect 23 0 17 0;
