#N canvas 827 239 527 327 12;
#N canvas 0 50 450 250 (subpatch) 0;
#X text 0 0 plugdatainfo <?xml version="1.0" encoding="UTF-8"?> <plugdatainfo/>;
#X coords 0 1 100 -1 1 1 1;
#X restore 0 0 graph;
#X listbox 88 225 91 0 0 0 - - - 0;
#X listbox 87 352 91 0 0 0 - - - 0;
#X listbox 119 325 91 0 0 0 - - - 0;
#X listbox 151 294 91 0 0 0 - - - 0;
#X obj 88 388 merge 3;
#X listbox 88 426 91 0 0 0 - - - 0;
#X obj 88 460 function 642 156 empty empty 0 1 25 25 25 255 255 255 0 0 0 0 0 0.224843 1 0.283019 0 0.0974843 0.466667 0.394654 0;
#X obj 88 58 function 642 156 empty empty 0 1 25 25 25 255 255 255 0 0 0 0 0 0.224843 1 0.283019 0 0.0974843 0.466667 0.394654 0;
#X msg 89 26 0 1 0;
#X obj 88 254 unmerge 2 2;
#X text 151 26 reset function, f 14;
#X connect 1 0 10 0;
#X connect 2 0 5 0;
#X connect 3 0 5 1;
#X connect 4 0 5 2;
#X connect 5 0 6 0;
#X connect 6 0 7 0;
#X connect 8 0 1 0;
#X connect 9 0 8 0;
#X connect 10 0 2 0;
#X connect 10 1 3 0;
#X connect 10 2 4 0;
