#N canvas 827 239 527 327 12;
#N canvas 0 50 450 250 (subpatch) 0;
#X text 0 0 plugdatainfo <?xml version="1.0" encoding="UTF-8"?> <plugdatainfo/>;
#X coords 0 1 100 -1 1 1 1;
#X restore 0 0 graph;
#X obj 96 101 function 200 100 empty empty 0 1 228 228 228 90 90 90 0 0 0 0 0 391.753 0.617021 329.897 0.382979 278.351 0;
#X obj 96 223 list length;
#X obj 246 260 nbx 4 18 -1e+37 1e+37 0 0 empty empty empty 0 -8 0 10 #e4e4e4 #5a5a5a #5a5a5a 0 256;
#X obj 251 297 - 1;
#X obj 251 326 nbx 4 18 -1e+37 1e+37 0 0 empty empty empty 0 -8 0 10 #e4e4e4 #5a5a5a #5a5a5a 0 256;
#X obj 251 353 / 2;
#X obj 251 382 nbx 4 18 -1e+37 1e+37 0 0 empty empty empty 0 -8 0 10 #e4e4e4 #5a5a5a #5a5a5a 0 256;
#X connect 1 0 2 0;
#X connect 2 0 3 0;
#X connect 3 0 4 0;
#X connect 4 0 5 0;
#X connect 5 0 6 0;
#X connect 6 0 7 0;
