#N canvas 827 239 527 327 12;
#X obj 304 144 bng 51 250 50 0 empty empty empty 17 7 0 10 #191919 #ffffff #5a5a5a;
#N canvas 0 50 450 250 (subpatch) 1;
#X obj 163 317 function 200 100 empty empty 0 1 25 25 25 255 172 171 0 0 0 0 0 1000 0;
#X obj 163 247 loop;
#X obj 163 287 /;
#X obj 163 177 t b b;
#X msg 83 218 set \$1;
#X obj 240 118 inlet;
#X obj 163 118 inlet;
#X obj 195 214 array size;
#X obj 83 434 tabwrite;
#X connect 0 0 8 0 32.................H....D6+++OB....w9+++WA....;
#X connect 1 0 2 0 empty;
#X connect 1 0 8 1 32.................O.....L...vC.....C...bJ....;
#X connect 2 0 0 0 empty;
#X connect 3 0 1 0 empty;
#X connect 3 1 7 0 32.................I....DA...PB....Q....DA....;
#X connect 4 0 8 0 empty;
#X connect 5 0 7 1 empty;
#X connect 5 0 4 0 32.................T....P1+++OE....j8+++CE....;
#X connect 6 0 3 0 empty;
#X connect 7 0 1 1 32.................G....79++++A....u++++2.....;
#X connect 7 0 2 1 32.................q....v9++++J....r++++WC....;
#X coords 0 1 100 -1 204 104 1 161 315;
#X restore 304 204 graph;
#X msg 414 164 symbol arr-0;
#N canvas 0 50 450 250 (subpatch) 0;
#X array arr-0 100 float 0;
#X coords 0 1 99 -1 200 140 1;
#X restore 304 334 graph;
#X obj 84 224 osc~ 55;
#X obj 84 354 dac~;
#X obj 84 314 *~;
#X obj 154 224 vsl 48 81 0 1 0 0 empty empty empty 0 -9 0 10 #191919 #ffffff #ffffff 0 1;
#X obj 414 54 bng 51 250 50 1 empty empty empty 17 7 0 10 #191919 #ffffff #ffffff;
#X msg 154 184 0.2;
#X connect 0 0 1 0 empty;
#X connect 2 0 1 1 32.................J....TD...fB....EA...PA....;
#X connect 4 0 6 0 empty;
#X connect 6 0 5 0 empty;
#X connect 6 0 5 1 32.................K....HA...vB....R....PA....;
#X connect 7 0 6 1 32.................D....X7+++OA....F++++q.....;
#X connect 8 0 2 0 empty;
#X connect 8 0 9 0 32.................X....zu+++OF....86+++CE....;
#X connect 9 0 7 0 empty;
