#N canvas 827 239 527 327 12;
#X obj 245 109 bng 51 250 50 0 empty empty empty 17 7 0 10 #191919 #ffffff #5a5a5a;
#X msg 185 59 symbol arr-0;
#N canvas 0 50 450 250 (subpatch) 0;
#X array arr-0 10000 float 0;
#X coords 0 1 9999 -1 200 140 1;
#X restore 469 270 graph;
#X obj 34 224 osc~ 55;
#X obj 34 354 dac~;
#X obj 34 314 *~;
#X obj 104 224 vsl 48 81 0 1 0 0 empty empty empty 0 -9 0 10 #191919 #ffffff #ffffff 0 1;
#X msg 101 189 0.2;
#X obj 34 184 nbx 4 18 -1e+37 1e+37 0 0 empty empty empty 0 -8 0 10 #191919 #ffffff #ffffff 0 256;
#X obj 245 309 function 200 100 empty empty -1 1 25 25 25 255 172 171 0 0 0 0 0 1000 0;
#X obj 245 239 loop;
#X obj 245 279 /;
#X obj 245 169 t b b;
#X msg 185 239 set \$1;
#X obj 277 206 array size;
#X obj 185 426 tabwrite;
#X connect 0 0 12 0 empty;
#X connect 1 0 13 0 empty;
#X connect 1 0 14 1 48.................O....jH...vC....IB...7B...Ph....u....jH...ve....;
#X connect 3 0 5 0 empty;
#X connect 5 0 4 0 empty;
#X connect 5 0 4 1 32.................K....HA...vB....R....PA....;
#X connect 6 0 5 1 32.................D....X7+++OA....F++++q.....;
#X connect 7 0 6 0 empty;
#X connect 8 0 3 0 empty;
#X connect 9 0 15 0 32.................H....D6+++OB....w9+++WA....;
#X connect 10 0 11 0 empty;
#X connect 10 0 15 1 32.................O.....L...vC.....C...bJ....;
#X connect 11 0 9 0 empty;
#X connect 12 0 10 0 empty;
#X connect 12 1 14 0 32.................I....DA...PB....Q....DA....;
#X connect 13 0 15 0 empty;
#X connect 14 0 10 1 32.................G....79++++A....u++++2.....;
#X connect 14 0 11 1 32.................q....v9++++J....r++++WC....;
