#N canvas 827 239 527 439 12;
#N canvas 0 50 450 300 gate 0;
#X obj 79 39 inlet;
#X obj 293 39 inlet;
#X obj 159 219 outlet~;
#X obj 159 129 timed.gate~;
#X obj 289 79 / 2;
#X connect 0 0 3 0;
#X connect 1 0 4 0;
#X connect 3 0 2 0;
#X connect 4 0 3 1;
#X restore 69 189 pd gate;
#N canvas 0 50 450 300 gate 0;
#X obj 149 39 inlet;
#X obj 239 39 inlet;
#X obj 149 249 outlet;
#X msg 219 199 1;
#X obj 149 89 t b b;
#X obj 149 159 delay;
#X msg 149 199 0;
#X obj 279 119 * 0.5;
#X obj 309 39 inlet;
#X obj 309 69 t b f;
#X connect 0 0 4 0;
#X connect 1 0 7 0;
#X connect 3 0 2 0;
#X connect 4 0 5 0;
#X connect 4 1 3 0;
#X connect 5 0 6 0;
#X connect 6 0 2 0;
#X connect 7 0 5 1;
#X connect 8 0 9 0;
#X connect 9 0 7 0;
#X connect 9 1 7 1;
#X restore 209 189 pd gate;
#X obj 209 129 nbx 4 18 -1e+37 1e+37 0 1 empty empty empty 0 -8 0 10 #191919 #d4d4d4 #d4d4d4 371 256;
#X obj 69 129 bng 25 250 50 0 empty empty empty 17 7 0 10 #191919 #d4d4d4 #d4d4d4;
#X obj 69 259 oscope~ 130 130 32 3 256 -1 1 0 0 0 0 212 212 212 25 25 25 96 96 96 0 empty;
#X obj 209 259 oscope~ 130 130 32 3 256 -1 1 0 0 0 0 212 212 212 25 25 25 96 96 96 0 empty;
#X obj 209 219 sig~;
#X obj 69 99 metro;
#X obj 99 59 nbx 4 18 -1e+37 1e+37 0 1 empty empty empty 0 -8 0 10 #191919 #d4d4d4 #d4d4d4 371 256;
#X obj 69 59 tgl 25 0 empty empty empty 17 7 0 10 #191919 #d4d4d4 #d4d4d4 0 1;
#X obj 299 155 nbx 4 18 -1e+37 1e+37 0 1 empty empty empty 0 -8 0 10 #191919 #d4d4d4 #d4d4d4 0.89 256;
#X text 349 158 pulse width;
#X connect 0 0 4 0;
#X connect 1 0 6 0;
#X connect 2 0 0 1;
#X connect 2 0 1 1;
#X connect 3 0 0 0;
#X connect 3 0 1 0;
#X connect 6 0 5 0;
#X connect 7 0 3 0;
#X connect 8 0 7 1;
#X connect 9 0 7 0;
#X connect 10 0 1 2;
