#N canvas 827 239 527 327 12;
#X obj 139 89 nbx 4 18 -1e+37 1e+37 0 1 empty empty empty 0 -8 0 10 #e4e4e4 #4d4d4d #4d4d4d 0 256;
#X obj 189 89 nbx 4 18 -1e+37 1e+37 0 1 empty empty empty 0 -8 0 10 #e4e4e4 #4d4d4d #4d4d4d 1 256;
#X obj 243 89 nbx 4 18 -1e+37 1e+37 0 1 empty empty empty 0 -8 0 10 #e4e4e4 #4d4d4d #4d4d4d 100 256;
#X obj 297 89 nbx 4 18 -1e+37 1e+37 0 1 empty empty empty 0 -8 0 10 #e4e4e4 #4d4d4d #4d4d4d -1 256;
#X obj 301 169 nbx 4 18 -1e+37 1e+37 0 1 empty empty empty 0 -8 0 10 #e4e4e4 #4d4d4d #4d4d4d 111 256;
#X obj 355 169 nbx 4 18 -1e+37 1e+37 0 1 empty empty empty 0 -8 0 10 #e4e4e4 #4d4d4d #4d4d4d 108 256;
#X obj 359 219 nbx 4 18 -1e+37 1e+37 0 1 empty empty empty 0 -8 0 10 #e4e4e4 #4d4d4d #4d4d4d 31 256;
#X obj 413 219 nbx 4 18 -1e+37 1e+37 0 1 empty empty empty 0 -8 0 10 #e4e4e4 #4d4d4d #4d4d4d 29 256;
#X text 349 88 xyrange;
#X text 418 168 size;
#X text 469 218 viewport-pos;
#X obj 139 399 s pd-g;
#N canvas 0 50 450 300 g 1;
#X obj 59 59 bng 25 250 50 0 empty empty empty 17 7 0 10 #e40060 #1c174d #4d4d4d;
#X obj 83 90 bng 25 250 50 0 empty empty empty 17 7 0 10 #64e400 #4d4d4d #4d4d4d;
#X obj 116 130 bng 25 250 50 0 empty empty empty 17 7 0 10 #071ae4 #4d4d4d #4d4d4d;
#X obj 59 59 bng 25 250 50 0 empty empty empty 17 7 0 10 #e40060 #1c174d #4d4d4d;
#X obj 83 90 bng 25 250 50 0 empty empty empty 17 7 0 10 #64e400 #4d4d4d #4d4d4d;
#X obj 116 130 bng 25 250 50 0 empty empty empty 17 7 0 10 #071ae4 #4d4d4d #4d4d4d;
#X coords 0 0 1 1 200 140 2 0 0;
#X restore 439 39 pd g;
#X msg 389 269 0;
#X msg 419 269 1;
#X msg 449 269 2;
#X text 479 268 gop;
#X text 299 298 (switching to 0 works \, going back you'll need to \; do something that'll refresh everything (create bng);
#X obj 329 449 nbx 4 18 -1e+37 1e+37 0 0 empty empty empty 0 -8 0 10 #e4e4e4 #4d4d4d #4d4d4d 0 256;
#X obj 389 449 nbx 4 18 -1e+37 1e+37 0 0 empty empty empty 0 -8 0 10 #e4e4e4 #4d4d4d #4d4d4d 0 256;
#X msg 139 369 donecanvasdialog \$10 \$11 \$9 \$1 \$2 \$3 \$4 \$5 \$6 \$7 \$8 \$12;
#X obj 139 289 pack2 f f f f f f f f 2 f f f;
#X obj 589 229 nbx 4 18 -1e+37 1e+37 0 0 empty empty empty 0 -8 0 10 #e4e4e4 #4d4d4d #4d4d4d 0 256;
#X connect 0 0 21 0 empty;
#X connect 1 0 21 1 empty;
#X connect 2 0 21 2 empty;
#X connect 3 0 21 3 empty;
#X connect 4 0 21 4 empty;
#X connect 5 0 21 5 empty;
#X connect 6 0 21 6 empty;
#X connect 7 0 21 7 empty;
#X connect 13 0 21 8 empty;
#X connect 14 0 21 8 empty;
#X connect 15 0 21 8 empty;
#X connect 18 0 21 9 empty;
#X connect 19 0 21 10 empty;
#X connect 20 0 11 0 empty;
#X connect 21 0 20 0 empty;
#X connect 22 0 21 11 empty;
