#N canvas 827 239 466 348 12;
#X obj 9 29 nbx 4 18 -1e+37 1e+37 0 1 empty empty empty 0 -8 0 10 #e4e4e4 #4d4d4d #4d4d4d 0 256;
#X obj 59 29 nbx 4 18 -1e+37 1e+37 0 1 empty empty empty 0 -8 0 10 #e4e4e4 #4d4d4d #4d4d4d 1 256;
#X obj 113 29 nbx 4 18 -1e+37 1e+37 0 1 empty empty empty 0 -8 0 10 #e4e4e4 #4d4d4d #4d4d4d 100 256;
#X obj 167 29 nbx 4 18 -1e+37 1e+37 0 1 empty empty empty 0 -8 0 10 #e4e4e4 #4d4d4d #4d4d4d -1 256;
#X obj 171 109 nbx 4 18 -1e+37 1e+37 0 1 empty empty empty 0 -8 0 10 #e4e4e4 #4d4d4d #4d4d4d 85 256;
#X obj 225 109 nbx 4 18 -1e+37 1e+37 0 1 empty empty empty 0 -8 0 10 #e4e4e4 #4d4d4d #4d4d4d 83 256;
#X obj 229 159 nbx 4 18 -1e+37 1e+37 0 1 empty empty empty 0 -8 0 10 #e4e4e4 #4d4d4d #4d4d4d 49 256;
#X obj 283 159 nbx 4 18 -1e+37 1e+37 0 1 empty empty empty 0 -8 0 10 #e4e4e4 #4d4d4d #4d4d4d 68 256;
#X text 219 28 xyrange;
#X text 288 108 size;
#X text 339 158 viewport-pos;
#X obj 9 319 s pd-g;
#N canvas 0 50 450 300 g 1;
#X obj 59 59 bng 25 250 50 0 empty empty empty 17 7 0 10 #e40060 #1c174d #4d4d4d;
#X obj 83 90 bng 25 250 50 0 empty empty empty 17 7 0 10 #64e400 #4d4d4d #4d4d4d;
#X obj 116 130 bng 25 250 50 0 empty empty empty 17 7 0 10 #071ae4 #4d4d4d #4d4d4d;
#X obj 59 59 bng 25 250 50 0 empty empty empty 17 7 0 10 #e40060 #1c174d #4d4d4d;
#X obj 83 90 bng 25 250 50 0 empty empty empty 17 7 0 10 #64e400 #4d4d4d #4d4d4d;
#X obj 116 130 bng 25 250 50 0 empty empty empty 17 7 0 10 #071ae4 #4d4d4d #4d4d4d;
#X coords 0 1 100 -1 85 83 2 49 68;
#X restore 299 19 pd g;
#X msg 9 289 donecanvasdialog 1 -1 \$9 \$1 \$2 \$3 \$4 \$5 \$6 \$7 \$8;
#X msg 259 209 0;
#X msg 289 209 1;
#X msg 319 209 2;
#X obj 9 229 pack2 f f f f f f f f 2;
#X text 349 208 gop;
#X text 169 238 (switching to 0 works \, going back you'll need to \; do something that'll refresh everything (create bng);
#X connect 0 0 17 0 empty;
#X connect 1 0 17 1 empty;
#X connect 2 0 17 2 empty;
#X connect 3 0 17 3 empty;
#X connect 4 0 17 4 empty;
#X connect 5 0 17 5 empty;
#X connect 6 0 17 6 empty;
#X connect 7 0 17 7 empty;
#X connect 13 0 11 0 empty;
#X connect 14 0 17 8 empty;
#X connect 15 0 17 8 empty;
#X connect 16 0 17 8 empty;
#X connect 17 0 13 0 empty;
#X coords 0 1 100 -1 100 175 0;
