#N canvas 827 239 527 327 12;
#X obj 109 169 s pd-hi;
#X msg 109 139 coords 0 100 100 0 \$2 \$1 1;
#X obj 109 109 pack2;
#X obj 109 69 nbx 4 18 -1e+37 1e+37 0 0 empty empty empty 0 -8 0 10 #e4e4e4 #4d4d4d #4d4d4d 0 256;
#X obj 163 69 nbx 4 18 -1e+37 1e+37 0 0 empty empty empty 0 -8 0 10 #e4e4e4 #4d4d4d #4d4d4d 0 256;
#X connect 1 0 0 0 empty;
#X connect 2 0 1 0 empty;
#X connect 3 0 2 0 empty;
#X connect 4 0 2 1 empty;
