#N canvas 827 239 466 348 12;
#X msg 19 249 graph hi 0 1 100 -1 100 100 200 0;
#X obj 249 209 s pd-hi;
#X obj 249 139 nbx 4 18 -1e+37 1e+37 0 0 empty empty empty 0 -8 0 10 #e4e4e4 #4d4d4d #4d4d4d 0 256;
#X obj 19 289 s this;
#X obj 79 289 namecanvas this;
#X obj 19 209 loadbang;
#X msg 249 179 coords 0 100 100 0 100 \$1 1, f 26;
#X connect 0 0 3 0 empty;
#X connect 2 0 6 0 empty;
#X connect 5 0 0 0 empty;
#X connect 6 0 1 0 empty;
#X coords 0 1 100 -1 100 175 0;
