#N canvas 827 239 466 348 12;
#X obj 19 389 s this;
#X obj 79 389 namecanvas this;
#X obj 59 99 nbx 4 18 -1e+37 1e+37 0 1 empty empty empty 0 -8 0 10 #e4e4e4 #4d4d4d #4d4d4d 0 256;
#X obj 109 99 nbx 4 18 -1e+37 1e+37 0 1 empty empty empty 0 -8 0 10 #e4e4e4 #4d4d4d #4d4d4d 1 256;
#X obj 163 99 nbx 4 18 -1e+37 1e+37 0 1 empty empty empty 0 -8 0 10 #e4e4e4 #4d4d4d #4d4d4d 100 256;
#X obj 217 99 nbx 4 18 -1e+37 1e+37 0 1 empty empty empty 0 -8 0 10 #e4e4e4 #4d4d4d #4d4d4d -1 256;
#X obj 171 129 nbx 4 18 -1e+37 1e+37 0 1 empty empty empty 0 -8 0 10 #e4e4e4 #4d4d4d #4d4d4d 85 256;
#X obj 225 129 nbx 4 18 -1e+37 1e+37 0 1 empty empty empty 0 -8 0 10 #e4e4e4 #4d4d4d #4d4d4d 83 256;
#X obj 229 159 nbx 4 18 -1e+37 1e+37 0 1 empty empty empty 0 -8 0 10 #e4e4e4 #4d4d4d #4d4d4d 49 256;
#X obj 283 159 nbx 4 18 -1e+37 1e+37 0 1 empty empty empty 0 -8 0 10 #e4e4e4 #4d4d4d #4d4d4d 68 256;
#X msg 89 229 donecanvasdialog 1 -1 1 \$1 \$2 \$3 \$4 \$5 \$6 \$7 \$8;
#X text 269 98 xyrange;
#X text 288 128 size;
#X text 339 158 viewport-pos;
#X obj 89 199 pack2 f f f f f f f f f;
#X obj 89 259 s pd-g;
#X msg 39 429 obj 59 59 bng 25 250 50 0 empty empty empty 17 7 0 10 #e40060 #1c174d #4d4d4d \, obj 83 90 bng 25 250 50 0 empty empty empty 17 7 0 10 #64e400 #4d4d4d #4d4d4d \, obj 116 130 bng 25 250 50 0 empty empty empty 17 7 0 10 #071ae4 #4d4d4d #4d4d4d, f 60;
#X msg 19 349 graph g 0 1 100 -1 100 100 200 0;
#N canvas 0 50 450 300 g 1;
#X obj 59 59 bng 25 250 50 0 empty empty empty 17 7 0 10 #e40060 #1c174d #4d4d4d;
#X obj 83 90 bng 25 250 50 0 empty empty empty 17 7 0 10 #64e400 #4d4d4d #4d4d4d;
#X obj 116 130 bng 25 250 50 0 empty empty empty 17 7 0 10 #071ae4 #4d4d4d #4d4d4d;
#X obj 59 59 bng 25 250 50 0 empty empty empty 17 7 0 10 #e40060 #1c174d #4d4d4d;
#X obj 83 90 bng 25 250 50 0 empty empty empty 17 7 0 10 #64e400 #4d4d4d #4d4d4d;
#X obj 116 130 bng 25 250 50 0 empty empty empty 17 7 0 10 #071ae4 #4d4d4d #4d4d4d;
#X coords 0 1 100 -1 85 83 1 49 68;
#X restore 359 39 pd g;
#X connect 2 0 14 0 empty;
#X connect 3 0 14 1 empty;
#X connect 4 0 14 2 empty;
#X connect 5 0 14 3 empty;
#X connect 6 0 14 4 empty;
#X connect 7 0 14 5 empty;
#X connect 8 0 14 6 empty;
#X connect 9 0 14 7 empty;
#X connect 10 0 15 0 empty;
#X connect 14 0 10 0 empty;
#X connect 16 0 15 0 empty;
#X connect 17 0 0 0 empty;
#X coords 0 1 100 -1 100 175 0;
