#N canvas 827 239 527 327 12;
#X obj 40 90 nbx 11 73 -1e+37 1e+37 0 0 empty empty empty 0 -8 0 10 #191919 #ffffff #ffffff 0 256;
#X obj 40 230 nbx 11 73 -1e+37 1e+37 0 0 empty empty empty 0 -8 0 10 #191919 #ffffff #ffffff 0 256;
#X obj 200 90 bng 81 250 50 0 empty empty empty 17 7 0 10 #191919 #ffffff #ffffff;
#X obj 200 230 bng 81 250 50 0 empty empty empty 17 7 0 10 #191919 #ffffff #ffffff;
#X obj 310 230 tgl 81 0 empty empty empty 17 7 0 10 #191919 #ffffff #ffffff 0 1;
#X obj 310 90 tgl 81 0 empty empty empty 17 7 0 10 #191919 #ffffff #ffffff 0 1;
#X obj 420 90 vsl 41 81 0 127 0 0 empty empty empty 0 -9 0 10 #191919 #ffffff #ffffff 0 1;
#X listbox 490 230 14 0 0 0 - - - 36;
#X obj 490 150 pack;
#X obj 420 230 vsl 41 81 0 127 0 0 empty empty empty 0 -9 0 10 #191919 #ffffff #ffffff 0 1;
#X obj 490 80 nbx 4 18 -1e+37 1e+37 0 0 empty empty empty 0 -8 0 10 #191919 #ffffff #ffffff 0 256;
#X obj 550 80 nbx 4 18 -1e+37 1e+37 0 0 empty empty empty 0 -8 0 10 #191919 #ffffff #ffffff 0 256;
#X obj 550 110 t b f;
#X symbolatom 40 420 18 0 0 0 - - - 36;
#X msg 70 380 symbol hello;
#X obj 40 470 print;
#X obj 210 380 hradio 35 1 0 3 empty empty empty 0 -8 0 10 #191919 #ffffff #ffffff 0;
#X obj 210 450 hradio 34 1 0 3 empty empty empty 0 -8 0 10 #191919 #ffffff #ffffff 0;
#X obj 40 380 bng 25 250 50 0 empty empty empty 17 7 0 10 #191919 #ffffff #ffffff;
#X obj 458 395 cnv 1 100 60 empty empty 👻 95 25 0 92 #ffacab #191919 0;
#X obj 350 370 function 86 48 empty empty 0 1 25 25 25 255 255 255 0 0 0 0 0 1000 0;
#X obj 350 440 function 86 48 empty empty 0 1 25 25 25 255 255 255 0 0 0 0 0 1000 0;
#X text 200 349 hey \, i'm clickin here!;
#X connect 0 0 1 0 empty;
#X connect 2 0 3 0 empty;
#X connect 5 0 4 0 empty;
#X connect 6 0 9 0 empty;
#X connect 8 0 7 0 empty;
#X connect 10 0 8 0 empty;
#X connect 11 0 12 0 empty;
#X connect 12 0 8 0 empty;
#X connect 12 1 8 1 empty;
#X connect 13 0 15 0 empty;
#X connect 14 0 13 0 empty;
#X connect 16 0 17 0 empty;
#X connect 18 0 13 0 empty;
#X connect 20 0 21 0 empty;
