#N canvas 827 239 530 500 12;
#X obj 19 79 key;
#X obj 189 139 keyup;
#X obj 109 149 select 97;
#X obj 189 169 select 97;
#X obj 19 269 spigot;
#X msg 109 179 1;
#X msg 189 199 0;
#X obj 109 229 change;
#X obj 109 269 select 1 0;
#X obj 229 59 spigot;
#X obj 254 29 tgl 25 0 empty empty empty 17 7 0 10 #191919 #ffffff #ffffff 0 1;
#X obj 219 29 key;
#X text 289 28 open the toggle and then press any key \, then close it;
#X msg 109 299 set;
#X msg 149 349 54 32 54;
#X msg 19 299 add2 \$1;
#X obj 149 409 print;
#X text 279 198 negative sign and . are allowed;
#X obj 149 379 fudiparse;
#X obj 19 199 moses 58;
#X text 269 128 this key becomes a "modifier" \; so when it's held \, we accept numbers and accumulate them \; until that key is released then we output the numbers;
#X obj 229 89 nbx 4 18 -1e+37 1e+37 0 1 empty empty empty 0 -8 0 10 #191919 #ffffff #ffffff 0 256;
#X connect 0 0 2 0 empty;
#X connect 0 0 19 0 empty;
#X connect 1 0 3 0 empty;
#X connect 2 0 5 0 empty;
#X connect 3 0 6 0 empty;
#X connect 4 0 15 0 empty;
#X connect 5 0 7 0 empty;
#X connect 6 0 7 0 empty;
#X connect 7 0 4 1 empty;
#X connect 7 0 8 0 empty;
#X connect 8 0 13 0 empty;
#X connect 8 1 14 0 empty;
#X connect 9 0 21 0 empty;
#X connect 10 0 9 1 empty;
#X connect 11 0 9 0 empty;
#X connect 13 0 14 0 empty;
#X connect 14 0 18 0 empty;
#X connect 15 0 14 0 empty;
#X connect 18 0 16 0 empty;
#X connect 19 0 4 0 empty;
#X connect 21 0 2 1 empty;
#X connect 21 0 3 1 empty;
