#N canvas 827 239 530 500 12;
#X obj 109 39 key;
#X obj 309 79 keyup;
#X obj 229 119 select 97;
#X obj 309 119 select 97;
#X obj 119 249 spigot;
#X msg 229 149 1;
#X msg 309 149 0;
#X msg 119 409;
#X msg 119 299 add2 \$1;
#X obj 229 199 change;
#X obj 229 249 select 1 0;
#X msg 139 349 set;
#X obj 109 79 t f f;
#X obj 249 289 t b b;
#X obj 119 449 print;
#N canvas 0 50 450 300 get-num 1;
#X obj 69 19 inlet;
#X obj 69 69 select 48 49 50 51 52 53 54 55 56 57;
#X msg 69 149 0;
#X msg 99 149 1;
#X msg 159 149 3;
#X msg 129 149 2;
#X msg 189 149 4;
#X msg 219 149 5;
#X msg 249 149 6;
#X msg 279 149 7;
#X msg 309 149 8;
#X msg 339 149 9;
#X obj 69 249 outlet;
#X connect 0 0 1 0 empty;
#X connect 1 0 2 0 empty;
#X connect 1 1 3 0 empty;
#X connect 1 2 5 0 empty;
#X connect 1 3 4 0 empty;
#X connect 1 4 6 0 empty;
#X connect 1 5 7 0 empty;
#X connect 1 6 8 0 empty;
#X connect 1 7 9 0 empty;
#X connect 1 8 10 0 empty;
#X connect 1 9 11 0 empty;
#X connect 2 0 12 0 empty;
#X connect 3 0 12 0 empty;
#X connect 4 0 12 0 empty;
#X connect 5 0 12 0 empty;
#X connect 6 0 12 0 empty;
#X connect 7 0 12 0 empty;
#X connect 8 0 12 0 empty;
#X connect 9 0 12 0 empty;
#X connect 10 0 12 0 empty;
#X connect 11 0 12 0 empty;
#X restore 119 159 pd get-num;
#X connect 0 0 12 0 empty;
#X connect 1 0 3 0 empty;
#X connect 2 0 5 0 empty;
#X connect 3 0 6 0 empty;
#X connect 4 0 8 0 empty;
#X connect 5 0 9 0 empty;
#X connect 6 0 9 0 empty;
#X connect 7 0 14 0 empty;
#X connect 8 0 7 0 empty;
#X connect 9 0 4 1 empty;
#X connect 9 0 10 0 empty;
#X connect 10 1 13 0 empty;
#X connect 11 0 7 0 empty;
#X connect 12 0 2 0 empty;
#X connect 12 1 15 0 empty;
#X connect 13 0 11 0 empty;
#X connect 13 1 7 0 empty;
#X connect 15 0 4 0 empty;
