#N canvas 827 239 530 500 12;
#X obj 19 49 key;
#X obj 189 119 keyup;
#X obj 89 139 select 97;
#X obj 189 149 select 97;
#X obj 19 259 spigot;
#X msg 89 169 1;
#X msg 189 179 0;
#X obj 109 219 change;
#X obj 109 259 select 1 0;
#X obj 19 89 t f f;
#N canvas 0 50 450 300 get-num 1;
#X obj 69 19 inlet;
#X msg 99 149 1;
#X msg 159 149 3;
#X msg 129 149 2;
#X msg 189 149 4;
#X msg 219 149 5;
#X msg 249 149 6;
#X msg 279 149 7;
#X msg 309 149 8;
#X msg 339 149 9;
#X obj 69 249 outlet;
#X obj 69 69 select 48 49 50 51 52 53 54 55 56 57 45 46;
#X msg 69 149 0;
#X msg 379 149 symbol -;
#X msg 459 149 symbol .;
#X connect 0 0 11 0 empty;
#X connect 1 0 10 0 empty;
#X connect 2 0 10 0 empty;
#X connect 3 0 10 0 empty;
#X connect 4 0 10 0 empty;
#X connect 5 0 10 0 empty;
#X connect 6 0 10 0 empty;
#X connect 7 0 10 0 empty;
#X connect 8 0 10 0 empty;
#X connect 9 0 10 0 empty;
#X connect 11 0 12 0 empty;
#X connect 11 1 1 0 empty;
#X connect 11 2 3 0 empty;
#X connect 11 3 2 0 empty;
#X connect 11 4 4 0 empty;
#X connect 11 5 5 0 empty;
#X connect 11 6 6 0 empty;
#X connect 11 7 7 0 empty;
#X connect 11 8 8 0 empty;
#X connect 11 9 9 0 empty;
#X connect 11 10 13 0 empty;
#X connect 11 11 14 0 empty;
#X connect 12 0 10 0 empty;
#X connect 13 0 10 0 empty;
#X connect 14 0 10 0 empty;
#X restore 19 219 pd get-num;
#X obj 229 69 spigot;
#X obj 254 39 tgl 25 0 empty empty empty 17 7 0 10 #191919 #ffffff #ffffff 0 1;
#X obj 219 39 key;
#X text 269 148 this key becomes a "modifier" \; so when it's held \, we accept numbers and accumulate them \; until that key is released then we output the numbers;
#X text 289 58 open the toggle and then press any key \, then close it;
#X msg 109 289 set;
#X msg 139 339 - . 8;
#X msg 19 299 add2 \$1;
#X obj 139 429 print;
#X obj -21045 -20683 unite;
#X obj 139 369 unite empty;
#X obj 139 399 f;
#X text 279 208 negative sign and . are allowed;
#X connect 0 0 9 0 empty;
#X connect 1 0 3 0 empty;
#X connect 2 0 5 0 empty;
#X connect 3 0 6 0 empty;
#X connect 4 0 18 0 empty;
#X connect 5 0 7 0 empty;
#X connect 6 0 7 0 empty;
#X connect 7 0 4 1 empty;
#X connect 7 0 8 0 empty;
#X connect 8 0 16 0 empty;
#X connect 8 1 17 0 empty;
#X connect 9 0 10 0 empty;
#X connect 9 1 2 0 empty;
#X connect 10 0 4 0 empty;
#X connect 11 0 2 1 empty;
#X connect 11 0 3 1 empty;
#X connect 12 0 11 1 empty;
#X connect 13 0 11 0 empty;
#X connect 16 0 17 0 empty;
#X connect 17 0 21 0 empty;
#X connect 18 0 17 0 empty;
#X connect 21 0 22 0 empty;
#X connect 22 0 19 0 empty;
