#N canvas 827 239 527 327 12;
#X obj 249 89 key;
#X obj 359 119 keyup;
#X obj 279 159 select 97;
#X obj 359 159 select 97;
#X obj 249 229 spigot;
#X msg 279 189 1;
#X msg 359 189 0;
#X obj 249 119 t f f;
#X msg 159 229 set;
#X msg 159 349 97 49 50 51 49;
#X msg 229 279 add2 \$1;
#X text 469 172 when key is pressed;
#X text 358 267 open the thing;
#X text 280 314 sdd to message;
#X connect 0 0 7 0 empty;
#X connect 1 0 3 0 empty;
#X connect 2 0 5 0 empty;
#X connect 2 0 8 0 empty;
#X connect 3 0 6 0 empty;
#X connect 4 0 10 0 empty;
#X connect 5 0 4 1 empty;
#X connect 6 0 4 1 empty;
#X connect 7 0 4 0 empty;
#X connect 7 1 2 0 empty;
#X connect 8 0 9 0 empty;
#X connect 10 0 9 0 empty;
