#N canvas 827 239 530 500 12;
#X obj 19 49 key;
#X obj 189 119 keyup;
#X obj 89 139 select 97;
#X obj 189 149 select 97;
#X obj 19 259 spigot;
#X msg 89 169 1;
#X msg 189 179 0;
#X obj 109 219 change;
#X obj 109 259 select 1 0;
#X obj 19 89 t f f;
#N canvas 0 50 450 300 get-num 1;
#X obj 69 59 inlet;
#X obj 69 249 outlet;
#X obj 99 149 expr $i1 > 44 && $i1 < 58;
#X obj 69 199 spigot;
#X obj 69 99 t f f;
#X connect 0 0 4 0 empty;
#X connect 2 0 3 1 empty;
#X connect 3 0 1 0 empty;
#X connect 4 0 3 0 empty;
#X connect 4 1 2 0 empty;
#X restore 19 219 pd get-num;
#X obj 229 69 spigot;
#X obj 254 39 tgl 25 0 empty empty empty 17 7 0 10 #191919 #ffffff #ffffff 0 1;
#X obj 219 39 key;
#X text 269 148 this key becomes a "modifier" \; so when it's held \, we accept numbers and accumulate them \; until that key is released then we output the numbers;
#X text 289 58 open the toggle and then press any key \, then close it;
#X msg 109 289 set;
#X msg 139 339 46 50;
#X msg 19 299 add2 \$1;
#X obj 139 409 print;
#X text 279 208 negative sign and . are allowed;
#X obj 139 369 fudiparse;
#X connect 0 0 9 0 empty;
#X connect 1 0 3 0 empty;
#X connect 2 0 5 0 empty;
#X connect 3 0 6 0 empty;
#X connect 4 0 18 0 empty;
#X connect 5 0 7 0 empty;
#X connect 6 0 7 0 empty;
#X connect 7 0 4 1 empty;
#X connect 7 0 8 0 empty;
#X connect 8 0 16 0 empty;
#X connect 8 1 17 0 empty;
#X connect 9 0 10 0 empty;
#X connect 9 1 2 0 empty;
#X connect 10 0 4 0 empty;
#X connect 11 0 2 1 empty;
#X connect 11 0 3 1 empty;
#X connect 12 0 11 1 empty;
#X connect 13 0 11 0 empty;
#X connect 16 0 17 0 empty;
#X connect 17 0 21 0 empty;
#X connect 18 0 17 0 empty;
#X connect 21 0 19 0 empty;
