#N canvas 827 239 530 500 12;
#X obj 19 49 key;
#X obj 189 119 keyup;
#X obj 89 139 select 97;
#X obj 189 149 select 97;
#X obj 19 259 spigot;
#X msg 89 169 1;
#X msg 189 179 0;
#X msg 179 389 0;
#X msg 19 299 add2 \$1;
#X obj 109 219 change;
#X obj 109 259 select 1 0;
#X msg 109 299 set;
#X obj 19 89 t f f;
#X obj 179 429 print;
#N canvas 0 50 450 300 get-num 1;
#X obj 69 19 inlet;
#X obj 69 69 select 48 49 50 51 52 53 54 55 56 57;
#X msg 69 149 0;
#X msg 99 149 1;
#X msg 159 149 3;
#X msg 129 149 2;
#X msg 189 149 4;
#X msg 219 149 5;
#X msg 249 149 6;
#X msg 279 149 7;
#X msg 309 149 8;
#X msg 339 149 9;
#X obj 69 249 outlet;
#X connect 0 0 1 0 empty;
#X connect 1 0 2 0 empty;
#X connect 1 1 3 0 empty;
#X connect 1 2 5 0 empty;
#X connect 1 3 4 0 empty;
#X connect 1 4 6 0 empty;
#X connect 1 5 7 0 empty;
#X connect 1 6 8 0 empty;
#X connect 1 7 9 0 empty;
#X connect 1 8 10 0 empty;
#X connect 1 9 11 0 empty;
#X connect 2 0 12 0 empty;
#X connect 3 0 12 0 empty;
#X connect 4 0 12 0 empty;
#X connect 5 0 12 0 empty;
#X connect 6 0 12 0 empty;
#X connect 7 0 12 0 empty;
#X connect 8 0 12 0 empty;
#X connect 9 0 12 0 empty;
#X connect 10 0 12 0 empty;
#X connect 11 0 12 0 empty;
#X restore 19 219 pd get-num;
#X obj 229 69 spigot;
#X obj 254 39 tgl 25 0 empty empty empty 17 7 0 10 #191919 #ffffff #ffffff 0 1;
#X obj 219 39 key;
#X text 269 148 this key becomes a "modifier" \; so when it's held \, we accept numbers and accumulate them \; until that key is released then we output the numbers;
#X text 289 58 open the toggle and then press any key \, then close it;
#X msg 339 269 1;
#X msg 379 269 3;
#X msg 410 267 2;
#X msg 389 379 set \$2\$1;
#X msg 369 419;
#X obj 369 309 pack f s;
#X obj 489 389 symbol;
#X obj 369 339 t b l;
#X msg 509 269 symbol;
#X msg 519 319 set;
#X connect 0 0 12 0 empty;
#X connect 1 0 3 0 empty;
#X connect 2 0 5 0 empty;
#X connect 3 0 6 0 empty;
#X connect 4 0 8 0 empty;
#X connect 5 0 9 0 empty;
#X connect 6 0 9 0 empty;
#X connect 7 0 13 0 empty;
#X connect 8 0 7 0 empty;
#X connect 9 0 4 1 empty;
#X connect 9 0 10 0 empty;
#X connect 10 0 11 0 empty;
#X connect 10 1 7 0 empty;
#X connect 11 0 7 0 empty;
#X connect 12 0 14 0 empty;
#X connect 12 1 2 0 empty;
#X connect 14 0 4 0 empty;
#X connect 15 0 2 1 empty;
#X connect 15 0 3 1 empty;
#X connect 16 0 15 1 empty;
#X connect 17 0 15 0 empty;
#X connect 20 0 25 0 empty;
#X connect 21 0 25 0 empty;
#X connect 22 0 25 0 empty;
#X connect 23 0 24 0 empty;
#X connect 24 0 26 0 empty;
#X connect 25 0 27 0 empty;
#X connect 26 0 25 1 empty;
#X connect 27 0 24 0 empty;
#X connect 27 1 23 0 empty;
#X connect 28 0 25 1 empty;
#X connect 28 0 29 0 empty;
#X connect 29 0 24 0 empty;
