#N canvas 827 239 527 327 12;
#X obj 294 427 hv.vline~;
#X obj 50 70 inlet;
#X obj 330 70 inlet;
#X obj 430 70 inlet;
#X obj 530 70 inlet;
#X obj 680 70 inlet;
#X obj 50 100 tgl 25 0 empty empty empty 17 7 0 10 #191919 #ffffff #ffffff 0 1;
#X msg 90 330 0;
#X obj 294 487 outlet~;
#X msg 680 270 set 0 \$1;
#X msg 330 270 set 1 \$1;
#X msg 430 270 set \$3 \$2 \$1;
#X obj 430 170 t b f;
#X obj 530 170 t b f;
#X msg 680 330 0 250;
#X msg 430 330 0.5 100 0;
#X msg 330 330 1 0;
#X obj 50 280 t b b b;
#X obj 330 120 * 1000;
#X obj 430 120 * 1000;
#X obj 50 150 select 1 0;
#X text 760 529 tomara <3;
#X text 330 39 attack time;
#X text 430 39 decay time;
#X text 530 39 sustain level (0-1);
#X text 680 39 release time;
#X text 790 39 (times are in seconds);
#X text 50 39 gate;
#X text 80 119 (env can also be triggered with 2 bangs);
#X obj 430 220 pack 0 100 0.5;
#X text 180 269 go to 1 in attack time -->;
#X text 187 330 default attack time 0 -->;
#X text 10 329 jump to 0 -->;
#X text 530 219 <-- (keep correct defaults \; if only one changes);
#X text 520 259 <-- got to sustain level in \; decay time but only after \; attack stage is done;
#X text 510 319 <-- default sustain 0.5 \; default decay 100ms \; after default attack of 0;
#X text 740 329 <-- default release 250ms;
#X text 750 269 <-- and go to 0 in release time;
#X text 90 59 triggers attack then decay to sustain \; when gate is high (non-0);
#X text 80 99 and triggers release when gate is low (0);
#X obj 680 120 * 1000;
#X connect 0 0 8 0 empty;
#X connect 1 0 6 0 empty;
#X connect 2 0 18 0 empty;
#X connect 3 0 19 0 empty;
#X connect 4 0 13 0 empty;
#X connect 5 0 40 0 empty;
#X connect 6 0 20 0 empty;
#X connect 7 0 0 0 empty;
#X connect 9 0 14 0 empty;
#X connect 10 0 16 0 empty;
#X connect 11 0 15 0 empty;
#X connect 12 0 29 0 empty;
#X connect 12 1 29 1 empty;
#X connect 13 0 29 0 empty;
#X connect 13 1 29 2 empty;
#X connect 14 0 0 0 empty;
#X connect 15 0 0 0 empty;
#X connect 16 0 0 0 empty;
#X connect 17 0 15 0 empty;
#X connect 17 1 16 0 empty;
#X connect 17 2 7 0 empty;
#X connect 18 0 10 0 empty;
#X connect 18 0 29 0 empty;
#X connect 19 0 12 0 empty;
#X connect 20 0 17 0 empty;
#X connect 20 1 14 0 empty;
#X connect 29 0 11 0 empty;
#X connect 40 0 9 0 empty;
