#N canvas 827 239 527 327 12;
#X obj 300 370 hv.vline~;
#X obj 240 80 inlet;
#X obj 330 80 inlet;
#X obj 390 80 inlet;
#X obj 450 80 inlet;
#X obj 510 80 inlet;
#X obj 240 110 tgl 25 0 empty empty empty 17 7 0 10 #191919 #ffffff #ffffff 0 1;
#X obj 240 150 bng 25 250 50 0 empty empty empty 17 7 0 10 #191919 #ffffff #ffffff;
#X msg 300 300 0 \, 1 \$1 \, \$3 \$2 \$1;
#X obj 330 210 pack f f f;
#X obj 390 150 t b f;
#X obj 450 150 t b f;
#X msg 450 300 0 \$1;
#X msg 330 250 set 0 \, \$1 \, \$3 \$2 \$1;
#X obj 300 430 outlet~;
#X msg 510 250 set 0 \$1;
#X connect 0 0 14 0 empty;
#X connect 1 0 6 0 empty;
#X connect 2 0 9 0 empty;
#X connect 3 0 10 0 empty;
#X connect 4 0 11 0 empty;
#X connect 5 0 15 0 empty;
#X connect 6 0 7 0 empty;
#X connect 7 0 8 0 empty;
#X connect 8 0 0 0 empty;
#X connect 9 0 13 0 empty;
#X connect 10 0 9 0 empty;
#X connect 10 1 9 1 empty;
#X connect 11 0 9 0 empty;
#X connect 11 1 9 2 empty;
#X connect 12 0 0 0 empty;
#X connect 13 0 8 0 empty;
#X connect 15 0 12 0 empty;
