#N canvas 827 239 527 327 12;
#X obj 334 427 hv.vline~;
#X obj 120 70 inlet;
#X obj 370 70 inlet;
#X obj 470 70 inlet;
#X obj 570 70 inlet;
#X obj 720 70 inlet;
#X obj 120 100 tgl 25 0 empty empty empty 17 7 0 10 #191919 #ffffff #ffffff 0 1;
#X obj 120 140 bng 25 250 50 0 empty empty empty 17 7 0 10 #191919 #ffffff #ffffff;
#X msg 160 330 0;
#X obj 334 487 outlet~;
#X msg 720 280 set 0 \$1;
#X msg 370 280 set 1 \$1;
#X msg 470 280 set \$3 \$2 \$1;
#X obj 470 230 pack f f f;
#X obj 420 170 t b f;
#X obj 470 170 t b f;
#X msg 720 330 0 250;
#X msg 470 330 0.5 100 0;
#X msg 370 330 1 0;
#X obj 120 280 t b b b;
#X obj 370 120 * 1000;
#X obj 470 120 * 1000;
#X obj 570 120 * 1000;
#X msg 720 120 * 1000;
#X text 90 329 jump to 0;
#X text 240 329 go to 1 in attack time;
#X text 480 349 got to sustain level in decay time \; but only after attack stage is done;
#X text 780 329 and go to 0 in release time;
#X connect 0 0 9 0 empty;
#X connect 1 0 6 0 empty;
#X connect 2 0 20 0 empty;
#X connect 3 0 21 0 empty;
#X connect 4 0 22 0 empty;
#X connect 5 0 23 0 empty;
#X connect 6 0 7 0 empty;
#X connect 7 0 19 0 empty;
#X connect 8 0 0 0 empty;
#X connect 10 0 16 0 empty;
#X connect 11 0 18 0 empty;
#X connect 12 0 17 0 empty;
#X connect 13 0 12 0 empty;
#X connect 14 0 13 0 empty;
#X connect 14 1 13 2 empty;
#X connect 15 0 13 0 empty;
#X connect 15 1 13 1 empty;
#X connect 17 0 0 0 empty;
#X connect 18 0 0 0 empty;
#X connect 19 0 17 0 empty;
#X connect 19 1 18 0 empty;
#X connect 19 2 8 0 empty;
#X connect 20 0 11 0 empty;
#X connect 20 0 14 0 empty;
#X connect 21 0 15 0 empty;
#X connect 22 0 13 0 empty;
#X connect 23 0 10 0 empty;
