#N canvas 827 239 527 327 12;
#X obj 330 430 hv.vline~;
#X obj 50 70 inlet;
#X obj 330 70 inlet;
#X obj 430 70 inlet;
#X obj 530 70 inlet;
#X obj 680 70 inlet;
#X obj 50 100 tgl 25 0 empty empty empty 17 7 0 10 #191919 #ffffff #ffffff 0 1;
#X msg 104 350 0;
#X obj 330 470 outlet~;
#X msg 680 200 set 0 \$1;
#X msg 330 170 set 1 \$1;
#X obj 530 120 t b f;
#X msg 680 310 0 3100;
#X msg 330 350 1 180;
#X obj 75 227 t b b b;
#X obj 330 120 * 1000;
#X obj 430 120 * 1000;
#X text 760 529 tomara <3;
#X text 330 39 attack time;
#X text 430 39 decay time;
#X text 530 39 sustain level (0-1);
#X text 680 39 release time;
#X text 790 39 (times are in seconds);
#X text 50 39 gate;
#X text 80 119 (env can also be triggered with 2 bangs);
#X text 180 169 go to 1 in attack time -->;
#X text 187 350 default attack time 0 -->;
#X text 20 349 jump to 0 -->;
#X text 520 169 <-- (keep correct defaults \; if only one changes);
#X text 740 309 <-- default release 250ms;
#X text 750 199 <-- and go to 0 in release time;
#X text 90 59 triggers attack then decay to sustain \; when gate is high (non-0);
#X text 80 99 and triggers release when gate is low (0);
#X obj 680 120 * 1000;
#X obj 430 170 pack 100 0.5;
#X msg 430 220 set \$2 \$1;
#X msg 430 320 0.39 400;
#X obj 390 270 delay;
#X obj 390 360 spigot;
#X text 500 219 <-- got to sustain level in \; decay time;
#X text 490 319 <-- default sustain 0.5 \; default decay 100ms;
#X text 441 358 <-- we don't wanna trigger this if gate is low;
#X obj 40 160 select 0;
#X connect 0 0 8 0 empty;
#X connect 1 0 6 0 empty;
#X connect 2 0 15 0 empty;
#X connect 3 0 16 0 empty;
#X connect 4 0 11 0 empty;
#X connect 5 0 33 0 empty;
#X connect 6 0 38 1 empty;
#X connect 6 0 42 0 empty;
#X connect 7 0 0 0 empty;
#X connect 9 0 12 0 empty;
#X connect 10 0 13 0 empty;
#X connect 11 0 34 0 empty;
#X connect 11 1 34 1 empty;
#X connect 12 0 0 0 empty;
#X connect 13 0 0 0 empty;
#X connect 14 0 37 0 empty;
#X connect 14 1 13 0 empty;
#X connect 14 2 7 0 empty;
#X connect 15 0 10 0 empty;
#X connect 15 0 37 1 empty;
#X connect 16 0 34 0 empty;
#X connect 33 0 9 0 empty;
#X connect 34 0 35 0 empty;
#X connect 35 0 36 0 empty;
#X connect 36 0 38 0 empty;
#X connect 37 0 36 0 empty;
#X connect 38 0 0 0 empty;
#X connect 42 0 12 0 empty;
#X connect 42 1 14 0 empty;
