#N canvas 827 239 527 327 12;
#X obj 334 427 hv.vline~;
#X obj 50 70 inlet;
#X obj 370 70 inlet;
#X obj 470 70 inlet;
#X obj 570 70 inlet;
#X obj 720 70 inlet;
#X obj 50 100 tgl 25 0 empty empty empty 17 7 0 10 #191919 #ffffff #ffffff 0 1;
#X msg 90 330 0;
#X obj 334 487 outlet~;
#X msg 720 280 set 0 \$1;
#X msg 370 280 set 1 \$1;
#X msg 470 280 set \$3 \$2 \$1;
#X obj 470 230 pack f f f;
#X obj 470 170 t b f;
#X obj 570 170 t b f;
#X msg 720 330 0 250;
#X msg 470 330 0.5 100 0;
#X msg 370 330 1 0;
#X obj 50 280 t b b b;
#X obj 370 120 * 1000;
#X obj 470 120 * 1000;
#X obj 570 120 * 1000;
#X msg 720 120 * 1000;
#X text 20 329 jump to 0;
#X text 240 329 go to 1 in attack time;
#X text 480 339 got to sustain level in decay time \; but only after attack stage is done;
#X text 780 329 and go to 0 in release time;
#X obj 50 150 select 1 0;
#X text 800 529 tomara <3;
#X text 370 39 attack time;
#X text 470 39 decay time;
#X text 570 39 sustain level (0-1);
#X text 720 39 release time;
#X text 830 39 (times are in seconds);
#X text 50 39 gate;
#X text 90 59 trigger attack then decay to sustain \; when gate is high (non-0);
#X text 90 99 and trigger release when gate is low (0);
#X text 90 119 (env can also be triggered with 2 bangs);
#X connect 0 0 8 0 empty;
#X connect 1 0 6 0 empty;
#X connect 2 0 19 0 empty;
#X connect 3 0 20 0 empty;
#X connect 4 0 21 0 empty;
#X connect 5 0 22 0 empty;
#X connect 6 0 27 0 empty;
#X connect 7 0 0 0 empty;
#X connect 9 0 15 0 empty;
#X connect 10 0 17 0 empty;
#X connect 11 0 16 0 empty;
#X connect 12 0 11 0 empty;
#X connect 13 0 12 0 empty;
#X connect 13 1 12 1 empty;
#X connect 14 0 12 0 empty;
#X connect 14 1 12 2 empty;
#X connect 15 0 0 0 empty;
#X connect 16 0 0 0 empty;
#X connect 17 0 0 0 empty;
#X connect 18 0 16 0 empty;
#X connect 18 1 17 0 empty;
#X connect 18 2 7 0 empty;
#X connect 19 0 10 0 empty;
#X connect 19 0 12 0 empty;
#X connect 20 0 13 0 empty;
#X connect 21 0 14 0 empty;
#X connect 22 0 9 0 empty;
#X connect 27 0 18 0 empty;
#X connect 27 1 15 0 empty;
