#N canvas 827 239 527 327 12;
#X obj 199 239 knob 54 -128 24 0 -128 hello empty #191919 #606060 #ff00ee 1 0 0 0 1 270 0 0 0;
#X obj 199 295 nbx 5 14 -128 24 0 0 hello empty empty 0 -8 0 10 #191919 #d4d4d4 #d4d4d4 0 256;
#X obj 199 59 r hello;
#X msg 279 285 set \$1;
#X obj 199 179 colors;
#X msg 199 149 hsl \$1 100 50;
#X obj 199 89 + 128;
#X obj 199 119 * 2;
#X msg 199 209 fgcolor \$1;
#X msg 119 285 set \$1;
#X connect 0 0 9 0;
#X connect 1 0 3 0;
#X connect 2 0 6 0;
#X connect 3 0 0 0;
#X connect 4 0 8 0;
#X connect 5 0 4 0;
#X connect 6 0 7 0;
#X connect 7 0 5 0;
#X connect 8 0 0 0;
#X connect 9 0 1 0;
