#N canvas 827 239 527 327 12;
#X obj 189 137 knob 50 -128 24 0 -128 hello empty #191919 #606060 #00ffc6 1 0 0 0 1 270 0 0 0;
#X obj 189 239 nbx 5 14 -1e+37 1e+37 0 0 hello empty empty 0 -8 0 10 #191919 #d4d4d4 #d4d4d4 0 256;
#X obj 59 39 r hello;
#X obj 199 49 print;
#X msg 249 279 set \$1;
#X obj 59 199 colors;
#X msg 59 169 hsl \$1 100 50;
#X obj 59 109 + 128;
#X obj 59 139 * 2;
#X msg 59 229 fgcolor \$1;
#X msg 289 199 set \$1;
#X obj 319 89 knob 50 -128 24 0 -128 hello empty #191919 #606060 #00ff96 1 0 0 0 1 270 0 0 0;
#X connect 0 0 10 0;
#X connect 1 0 4 0;
#X connect 2 0 3 0;
#X connect 2 0 7 0;
#X connect 4 0 0 0;
#X connect 5 0 9 0;
#X connect 6 0 5 0;
#X connect 7 0 8 0;
#X connect 8 0 6 0;
#X connect 9 0 0 0;
#X connect 10 0 1 0;
