#N canvas 827 239 527 327 12;
#X obj 490 140 nbx 4 18 -1e+37 1e+37 0 0 empty empty empty 0 -8 0 10 #191919 #ffffff #ffffff 0 256;
#X obj 440 270 pol2car;
#X obj 240 220 cnv 12 11 11 dot-pos dot O 14 3 0 14 #ffacab #ffffff 0;
#X obj 440 370 s dot;
#X obj 440 300 pack f f;
#X obj 440 140 nbx 4 18 -1e+37 1e+37 0 1 empty empty empty 0 -8 0 10 #191919 #ffffff #ffffff 14.9117 256;
#X obj 460 210 * 6.283;
#X obj 460 180 + 0.75;
#X obj 460 240 t b f;
#X msg 440 330 label_pos \$1 \$2;
#X obj 440 110 lfo 0.1;
#X obj 503 84 lfo 0.1;
#X obj 503 111 expr $f1/127;
#X obj 503 59 nbx 4 18 -1e+37 1e+37 0 0 empty empty empty 0 -8 0 10 #191919 #ffffff #ffffff 0 256;
#X obj 440 83 nbx 4 18 -1e+37 1e+37 0 0 empty empty empty 0 -8 0 10 #191919 #ffffff #ffffff 0 256;
#X connect 0 0 7 0 empty;
#X connect 1 0 4 0 empty;
#X connect 1 1 4 1 empty;
#X connect 4 0 9 0 empty;
#X connect 5 0 1 0 empty;
#X connect 6 0 8 0 empty;
#X connect 7 0 6 0 empty;
#X connect 8 0 1 0 empty;
#X connect 8 1 1 1 empty;
#X connect 9 0 3 0 empty;
#X connect 10 0 5 0 empty;
#X connect 11 0 12 0 empty;
#X connect 12 0 0 0 empty;
#X connect 13 0 11 0 empty;
#X connect 14 0 10 0 empty;
