#N canvas 827 239 527 327 12;
#X obj 510 110 nbx 4 18 -1e+37 1e+37 0 0 empty empty empty 0 -8 0 10 #191919 #ffffff #ffffff 0 256;
#X obj 460 240 pol2car;
#X obj 240 220 cnv 12 11 11 dot-pos dot O -28 72 0 14 #ffacab #ffffff 0;
#X obj 460 340 s dot;
#X obj 460 270 pack f f;
#X obj 460 110 nbx 4 18 -1e+37 1e+37 0 1 empty empty empty 0 -8 0 10 #191919 #ffffff #ffffff 78 256;
#X obj 480 180 * 6.283;
#X obj 480 150 + 0.75;
#X obj 480 210 t b f;
#X msg 460 300 label_pos \$1 \$2;
#X connect 0 0 7 0 empty;
#X connect 1 0 4 0 empty;
#X connect 1 1 4 1 empty;
#X connect 4 0 9 0 empty;
#X connect 5 0 1 0 empty;
#X connect 6 0 8 0 empty;
#X connect 7 0 6 0 empty;
#X connect 8 0 1 0 empty;
#X connect 8 1 1 1 empty;
#X connect 9 0 3 0 empty;
