#N canvas 827 239 527 327 12;
#N canvas 0 50 450 250 (subpatch) 0;
#X text 0 0 plugdatainfo <?xml version="1.0" encoding="UTF-8"?> <plugdatainfo/>;
#X coords 0 1 100 -1 1 1 1;
#X restore 0 0 graph;
#X obj 299 76 loadbang;
#X obj 299 376 print;
#X floatatom 299 262 7 0 0 0 - - - 12;
#X msg 299 177 1729, f 6;
#X connect 1 0 4 0;
#X connect 3 0 2 0;
#X connect 4 0 3 0;
