#N canvas 827 239 527 327 12;
#N canvas 0 50 450 250 (subpatch) 0;
#X text 0 0 plugdatainfo <?xml version="1.0" encoding="UTF-8"?> <plugdatainfo/>;
#X coords 0 1 100 -1 1 1 1;
#X restore 0 0 graph;
#X obj 319 124 loadbang;
#X msg 319 188 42 105 420 1729, f 16;
#X listbox 319 272 16 0 0 0 - - - 0;
#X obj 319 350 print;
#X connect 1 0 2 0;
#X connect 2 0 3 0;
#X connect 3 0 4 0;
