#N canvas 827 239 527 327 12;
#N canvas 0 50 450 250 (subpatch) 0;
#X text 0 0 plugdatainfo <?xml version="1.0" encoding="UTF-8"?> <plugdatainfo/>;
#X coords 0 1 100 -1 1 1 1;
#X restore 0 0 graph;
#X obj 326 63 loadbang;
#X obj 326 410 print;
#X obj 326 176 vradio 50 1 0 4 empty empty empty 0 -8 0 10 #191919 #ffacab #ffffff 0;
#X msg 326 115 2, f 5;
#X connect 1 0 4 0;
#X connect 3 0 2 0;
#X connect 4 0 3 0;
