#N canvas 827 239 527 327 12;
#N canvas 0 50 450 250 (subpatch) 0;
#X text 0 0 plugdatainfo <?xml version="1.0" encoding="UTF-8"?> <plugdatainfo/>;
#X coords 0 1 100 -1 1 1 1;
#X restore 0 0 graph;
#X obj 173 118 loadbang;
#X obj 173 357 print;
#X symbolatom 173 280 51 0 0 0 - - - 0;
#X msg 173 202 symbol playing-trumpet-is-just-like-blowing-a-raspberry, f 50;
#X connect 1 0 4 0;
#X connect 3 0 2 0;
#X connect 4 0 3 0;
