#N canvas 827 239 527 327 12;
#X obj 270 220 metro;
#X obj 270 50 tgl 25 0 empty empty empty 17 7 0 10 #191919 #ffffff #ffffff 0 1;
#X obj 293 90 nbx 4 18 0 1000 0 1 empty empty empty 0 -8 0 10 #191919 #ffffff #ffffff 32 256;
#X obj 293 127 int;
#X obj 520 49 nbx 4 18 0 1 0 1 empty empty empty 0 -8 0 10 #191919 #ffffff #ffffff 0.52 256;
#X obj 520 75 * 100;
#X obj 520 134 / 100;
#X obj 520 104 int;
#X obj 439 199 *;
#X obj 439 229 int;
#X obj 270 310 tgl 25 0 empty empty empty 17 7 0 10 #191919 #ffffff #ffffff 0 1;
#X obj 270 354 sig~;
#X obj 74 402 oscope~ 326 130 6 3 77 -1 1 0 0 0 0 255 255 255 25 25 25 87 87 87 0 empty;
#X obj 477 408 timer, f 6;
#X obj 477 497 nbx 10 26 -1e+37 1e+37 0 0 empty empty empty 0 -8 0 10 #191919 #ffffff #ffffff 0 256;
#X obj 520 161 t b f;
#X obj 558 440 change;
#X obj 558 467 print;
#X msg 293 188 tempo \$1 persec;
#X obj 414 161 expr 1000/$f1;
#X obj 301 264 delay;
#X connect 0 0 10 0 empty;
#X connect 0 0 20 0 32.................L....7A....C....e....fA....;
#X connect 0 0 13 0 empty;
#X connect 1 0 0 0 empty;
#X connect 2 0 3 0 empty;
#X connect 3 0 18 0 empty;
#X connect 3 0 19 0 32.................G....jG...vA....4A...3.....;
#X connect 4 0 5 0 empty;
#X connect 5 0 7 0 empty;
#X connect 6 0 15 0 empty;
#X connect 7 0 6 0 empty;
#X connect 8 0 9 0 empty;
#X connect 9 0 20 1 32.................H....r3+++OB....K9++++.....;
#X connect 10 0 11 0 empty;
#X connect 11 0 12 0 32.................N....zy+++uC....87+++yA....;
#X connect 13 0 14 0 empty;
#X connect 13 0 16 0 32.................F....DE...fA....QA...v.....;
#X connect 15 0 8 0 32.................H.....6+++OB....v9+++KA....;
#X connect 15 1 8 1 32.................L....75+++OC....u9+++KA....;
#X connect 16 0 17 0 empty;
#X connect 18 0 0 0 empty;
#X connect 19 0 8 0 32.................I....jA...PB....Y....HA....;
#X connect 20 0 10 0 32.................M....H9+++eC....h++++qA....;
#X connect 20 0 13 1 empty;
