#N canvas 827 239 527 327 12;
#X msg 199 39 0 1 2 3 4 5;
#N canvas 0 50 450 300 store 1;
#X obj 10 10 loadbang;
#X msg 10 60 0 1 2 3 4 5;
#X obj 10 90 outlet;
#X connect 0 0 1 0 empty;
#X connect 1 0 2 0 empty;
#X restore 49 209 pd store;
#X obj 248 299 s pd-store;
#X obj 248 269 route list;
#X msg 265 179 \; pd-store obj 10 10 loadbang;
#X obj 248 239 list prepend msg 10 60;
#X obj 199 79 t b b b l b b;
#X msg 282 119 \; pd-store clear;
#X msg 232 329 \; pd-store obj 10 90 outlet;
#X msg 217 389 \; pd-store connect 0 0 1 0;
#X msg 199 459 \; pd-store connect 1 0 2 0;
#X obj 49 299 outlet;
#X connect 0 0 6 0 empty;
#X connect 3 0 2 0 empty;
#X connect 5 0 3 0 empty;
#X connect 6 1 9 0 empty;
#X connect 6 1 10 0 empty;
#X connect 6 2 8 0 empty;
#X connect 6 3 5 0 empty;
#X connect 6 4 4 0 empty;
#X connect 6 5 7 0 empty;
