#N canvas 827 239 527 327 12;
#N canvas 0 50 450 250 (subpatch) 0;
#X text 0 0 plugdatainfo <?xml version="1.0" encoding="UTF-8"?> <plugdatainfo/>;
#X coords 0 1 100 -1 1 1 1;
#X restore 0 0 graph;
#N canvas 0 50 450 300 sub1 1;
#N canvas 0 50 450 250 (subpatch) 0;
#X text 0 0 plugdatainfo <?xml version="1.0" encoding="UTF-8"?> <plugdatainfo/>;
#X coords 0 1 100 -1 1 1 1;
#X restore 0 0 graph;
#X obj 270 244 local-s hi 1;
#X obj 270 173 inlet;
#X obj 270 316 local-r hi 1;
#X obj 270 404 outlet;
#X connect 2 0 1 0;
#X connect 3 0 4 0;
#X restore 244 291 pd sub1;
#X obj 244 226 nbx 4 18 -1e+37 1e+37 0 0 empty empty empty 0 -8 0 10 #191919 #ffffff #ffffff 0 256;
#X obj 244 366 nbx 4 18 -1e+37 1e+37 0 0 empty empty empty 0 -8 0 10 #191919 #ffffff #ffffff 0 256;
#X obj 354 373 nbx 4 18 -1e+37 1e+37 0 0 empty empty empty 0 -8 0 10 #191919 #ffffff #ffffff 0 256;
#X obj 354 226 nbx 4 18 -1e+37 1e+37 0 0 empty empty empty 0 -8 0 10 #191919 #ffffff #ffffff 0 256;
#X obj 449 226 nbx 4 18 -1e+37 1e+37 0 0 empty empty empty 0 -8 0 10 #191919 #ffffff #ffffff 0 256;
#X obj 449 366 nbx 4 18 -1e+37 1e+37 0 0 empty empty empty 0 -8 0 10 #191919 #ffffff #ffffff 0 256;
#N canvas 0 50 450 300 sub2 1;
#N canvas 0 50 450 250 (subpatch) 0;
#X text 0 0 plugdatainfo <?xml version="1.0" encoding="UTF-8"?> <plugdatainfo/>;
#X coords 0 1 100 -1 1 1 1;
#X restore 0 0 graph;
#X obj 270 244 local-s hi 1;
#X obj 270 173 inlet;
#X obj 270 316 local-r hi 1;
#X obj 270 404 outlet;
#X connect 2 0 1 0;
#X connect 3 0 4 0;
#X restore 354 291 pd sub2;
#N canvas 0 50 450 300 sub4245 1;
#N canvas 0 50 450 250 (subpatch) 0;
#X text 0 0 plugdatainfo <?xml version="1.0" encoding="UTF-8"?> <plugdatainfo/>;
#X coords 0 1 100 -1 1 1 1;
#X restore 0 0 graph;
#X obj 270 173 inlet;
#X obj 270 404 outlet;
#N canvas 0 50 450 300 sub-sub 1;
#N canvas 0 50 450 250 (subpatch) 0;
#X text 0 0 plugdatainfo <?xml version="1.0" encoding="UTF-8"?> <plugdatainfo/>;
#X coords 0 1 100 -1 1 1 1;
#X restore 0 0 graph;
#X obj 290 347 outlet;
#X obj 290 282 local-r hiello 2;
#X connect 2 0 1 0;
#X restore 270 314 pd sub-sub;
#X obj 270 244 local-s hiello 1;
#X connect 1 0 4 0;
#X connect 3 0 2 0;
#X restore 449 291 pd sub4245;
#X connect 1 0 3 0;
#X connect 2 0 1 0;
#X connect 5 0 8 0;
#X connect 6 0 9 0;
#X connect 8 0 4 0;
#X connect 9 0 7 0;
