#N canvas 827 239 527 327 12;
#N canvas 0 50 450 250 (subpatch) 0;
#X text 0 0 plugdatainfo <?xml version="1.0" encoding="UTF-8"?> <plugdatainfo/>;
#X coords 0 1 100 -1 1 1 1;
#X restore 0 0 graph;
#X obj 234 61 loadbang;
#X obj 234 399 outlet;
#X obj 309 399 print;
#X obj 234 237 pack s s;
#X obj 234 173 canvas.name 1;
#X msg 234 292 \$1-\$2, f 8;
#X obj 358 173 symbol \$1;
#X obj 234 106 t b b;
#X connect 1 0 8 0;
#X connect 4 0 6 0;
#X connect 5 0 4 0;
#X connect 6 0 2 0;
#X connect 6 0 3 0;
#X connect 7 0 4 1;
#X connect 8 0 5 0;
#X connect 8 1 7 0;
