#N canvas 827 239 527 327 12;
#N canvas 0 50 450 250 (subpatch) 0;
#X text 0 0 plugdatainfo <?xml version="1.0" encoding="UTF-8"?> <plugdatainfo/>;
#X coords 0 1 100 -1 1 1 1;
#X restore 0 0 graph;
#X obj 302 73 loadbang;
#X obj 302 411 outlet;
#X obj 302 249 pack s s;
#X obj 426 185 symbol \$1;
#X obj 302 118 t b b;
#X text 214 35 can you make this do the sending and receiving?, f 39;
#X obj 302 185 canvas.name \$2;
#X msg 302 304 symbol \$1-\$2, f 14;
#X connect 1 0 5 0;
#X connect 3 0 8 0;
#X connect 4 0 3 1;
#X connect 5 0 7 0;
#X connect 5 1 4 0;
#X connect 7 0 3 0;
#X connect 8 0 2 0;
