#N canvas 827 239 654 327 12;
#X text 249 8 control rate = sample rate / block size;
#X obj 249 99 / 64, f 5;
#X msg 249 69 44100, f 8;
#X obj 249 129 nbx 13 31 -1e+37 1e+37 0 0 empty empty empty 0 -8 0 10 #191919 #d4d4d4 #d4d4d4 0 256;
#X obj 39 119 metro 1 1 persec;
#X obj 249 199 nbx 13 22 -1e+37 1e+37 0 0 empty empty empty 0 -8 0 10 #191919 #d4d4d4 #d4d4d4 0 256;
#X obj 249 169 !/ 1000;
#X text 249 228 duration of block in ms;
#X msg 79 79 tempo \$1 persec;
#X obj 79 39 nbx 12 31 -1e+37 1e+37 0 1 empty empty empty 0 -8 0 10 #191919 #d4d4d4 #d4d4d4 2659 256;
#X obj 39 59 tgl 25 1 empty empty empty 17 7 0 10 #191919 #d4d4d4 #d4d4d4 1 1;
#X obj 39 219 router;
#X obj 63 182 tgl 25 0 empty empty empty 17 7 0 10 #191919 #d4d4d4 #d4d4d4 0 1;
#X obj 39 149 t b b;
#X obj 39 259 timer;
#X obj 39 289 nbx 14 21 -1e+37 1e+37 0 0 empty empty empty 0 -8 0 10 #191919 #d4d4d4 #d4d4d4 0 256;
#X obj 499 29 bang~;
#X obj 499 129 router;
#X obj 523 92 tgl 25 0 empty empty empty 17 7 0 10 #191919 #d4d4d4 #d4d4d4 0 1;
#X obj 499 59 t b b;
#X obj 499 169 timer;
#X obj 499 199 nbx 14 21 -1e+37 1e+37 0 0 empty empty empty 0 -8 0 10 #191919 #d4d4d4 #d4d4d4 0 256;
#X text 429 198 or ---->;
#X text 181 289 <--- oh look! we're going faster than control rate?!;
#X obj 249 39 loadbang;
#X text 381 137 Hz;
#X text 89 18 metro rate;
#X connect 1 0 3 0;
#X connect 2 0 1 0;
#X connect 3 0 6 0;
#X connect 4 0 13 0;
#X connect 6 0 5 0;
#X connect 8 0 4 0;
#X connect 9 0 8 0;
#X connect 10 0 4 0;
#X connect 11 0 14 0;
#X connect 11 1 14 1;
#X connect 12 0 11 1;
#X connect 13 0 11 0;
#X connect 13 1 12 0;
#X connect 14 0 15 0;
#X connect 16 0 19 0;
#X connect 17 0 20 0;
#X connect 17 1 20 1;
#X connect 18 0 17 1;
#X connect 19 0 17 0;
#X connect 19 1 18 0;
#X connect 20 0 21 0;
#X connect 24 0 2 0;
