#N canvas 827 239 527 327 12;
#N canvas 0 50 450 250 (subpatch) 0;
#X text 0 0 plugdatainfo <?xml version="1.0" encoding="UTF-8"?> <plugdatainfo/>;
#X coords 0 1 100 -1 1 1 1;
#X restore 0 0 graph;
#X obj 338 45 adc~;
#X obj 338 461 dac~;
#N canvas 0 50 450 300 transpose 1;
#N canvas 0 50 450 250 (subpatch) 0;
#X text 0 0 plugdatainfo <?xml version="1.0" encoding="UTF-8"?> <plugdatainfo/>;
#X coords 0 1 100 -1 1 1 1;
#X restore 0 0 graph;
#X obj 128 529 +~;
#X obj 128 72 inlet~;
#X obj 128 580 outlet~;
#X obj 128 474 *~;
#X obj 128 248 delay~ 65536 44100;
#X obj 171 474 *~;
#X obj 184 285 delay~ 65536 44100;
#X text 770 188 i, f 4;
#X obj 401 72 inlet~;
#X text 610 71 x, f 4;
#X text 461 71 w, f 4;
#X text 838 71 s, f 3;
#X text 782 409 d, f 4;
#X obj 241 198 +~;
#X obj 235 401 clip~ 0 1;
#X obj 235 366 /~;
#X obj 151 437 -~;
#X obj 151 365 numbox~ 4 16 100 #191919 #ffffff 10 0 0 1;
#X obj 557 72 inlet~;
#X obj 792 72 inlet~;
#X obj 789 110 /~ 12;
#X obj 723 189 -~;
#X obj 754 145 pow~;
#X obj 717 95 numbox~ 4 16 100 #191919 #ffffff 10 0 0 2;
#X obj 683 141 numbox~ 4 16 100 #191919 #ffffff 10 0 0 1;
#X obj 500 479 delwrite~;
#N canvas 0 50 450 300 delay 1;
#N canvas 0 50 450 250 (subpatch) 0;
#X text 0 0 plugdatainfo <?xml version="1.0" encoding="UTF-8"?> <plugdatainfo/>;
#X coords 0 1 100 -1 1 1 1;
#X restore 0 0 graph;
#X obj 482 45 inlet~;
#X obj 451 387 outlet~;
#X obj 808 251 block~ 1;
#X obj 584 102 delread~ feedback-1 0;
#X obj 525 341 delwrite~ feedback-1 1;
#X obj 547 164 +~;
#X obj 536 233 +~;
#X obj 536 280 %~;
#X obj 685 153 inlet~;
#X connect 1 0 6 0;
#X connect 4 0 6 1;
#X connect 6 0 7 1;
#X connect 7 0 8 0;
#X connect 8 0 5 0;
#X connect 8 0 2 0;
#X connect 9 0 7 0;
#X connect 9 0 8 1;
#X restore 703 410 pd delay;
#X connect 1 0 3 0;
#X connect 2 0 5 0;
#X connect 2 0 7 0;
#X connect 4 0 1 0;
#X connect 5 0 4 0;
#X connect 6 0 1 0;
#X connect 7 0 6 0;
#X connect 9 0 14 0;
#X connect 9 0 27 1;
#X connect 14 0 5 1;
#X connect 15 0 6 1;
#X connect 15 0 17 1;
#X connect 16 0 15 0;
#X connect 17 0 4 1;
#X connect 18 0 17 0;
#X connect 19 0 16 1;
#X connect 20 0 21 0;
#X connect 21 0 23 1;
#X connect 22 0 27 0;
#X connect 23 0 22 1;
#X connect 24 0 23 0;
#X connect 25 0 22 0;
#X connect 27 0 16 0;
#X connect 27 0 7 1;
#X connect 27 0 14 1;
#X restore 338 297 pd transpose;
#X obj 635 155 numbox~ 4 16 100 #191919 #ffffff 10 0 0 1374;
#X obj 703 155 numbox~ 4 16 100 #191919 #ffffff 10 0 0 1066;
#X obj 771 155 numbox~ 4 16 100 #191919 #ffffff 10 0 0 7;
#X connect 1 1 3 0;
#X connect 3 0 2 1;
#X connect 3 0 2 0;
#X connect 4 0 3 1;
#X connect 5 0 3 2;
#X connect 6 0 3 3;
