#N canvas 827 239 527 327 12;
#N canvas 0 50 450 250 (subpatch) 0;
#X text 0 0 plugdatainfo <?xml version="1.0" encoding="UTF-8"?> <plugdatainfo/>;
#X coords 0 1 100 -1 1 1 1;
#X restore 0 0 graph;
#X obj 454 41 adc~;
#X obj 444 376 dac~;
#N canvas 0 50 450 300 transpose 0;
#N canvas 0 50 450 250 (subpatch) 0;
#X text 0 0 plugdatainfo <?xml version="1.0" encoding="UTF-8"?> <plugdatainfo/>;
#X coords 0 1 100 -1 1 1 1;
#X restore 0 0 graph;
#X obj 128 529 +~;
#X obj 128 72 inlet~;
#X obj 128 580 outlet~;
#X obj 128 474 *~;
#X obj 128 248 delay~ 65536 44100;
#X obj 171 474 *~;
#X obj 184 285 delay~ 65536 44100;
#X text 493 174 i, f 4;
#X obj 241 72 inlet~;
#X text 422 71 x, f 4;
#X text 301 71 w, f 4;
#X text 599 62 s, f 3;
#X text 493 221 d, f 4;
#X obj 241 198 +~;
#X obj 235 401 clip~ 0 1;
#X obj 235 366 /~;
#X obj 151 437 -~;
#X obj 151 365 numbox~ 4 16 100 #191919 #ffffff 10 0 0 1;
#X obj 369 72 inlet~;
#X obj 550 63 inlet~;
#X obj 550 101 /~ 12;
#X obj 444 175 -~;
#X obj 515 136 pow~;
#X obj 478 86 numbox~ 4 16 100 #191919 #ffffff 10 0 0 2;
#X obj 444 132 numbox~ 4 16 100 #191919 #ffffff 10 0 0 1;
#N canvas 0 50 450 300 delay 0;
#N canvas 0 50 450 250 (subpatch) 0;
#X text 0 0 plugdatainfo <?xml version="1.0" encoding="UTF-8"?> <plugdatainfo/>;
#X coords 0 1 100 -1 1 1 1;
#X restore 0 0 graph;
#X obj 461 43 inlet~;
#X obj 424 400 outlet~;
#X obj 786 233 block~ 1;
#X obj 547 164 +~;
#X obj 536 233 +~;
#X obj 536 280 %~;
#X obj 703 43 inlet~;
#X text 759 42 w, f 5;
#X obj 536 359 delwrite~ feedback 1;
#X obj 558 92 delread~ feedback 0;
#X text 707 91 < - how to avoide these being multiply defined when duplicating the transpose object?, f 43;
#X connect 1 0 4 0;
#X connect 4 0 5 1;
#X connect 5 0 6 0;
#X connect 6 0 2 0;
#X connect 6 0 9 0;
#X connect 7 0 5 0;
#X connect 7 0 6 1;
#X connect 10 0 4 1;
#X restore 422 222 pd delay;
#X connect 1 0 3 0;
#X connect 2 0 5 0;
#X connect 2 0 7 0;
#X connect 4 0 1 0;
#X connect 5 0 4 0;
#X connect 6 0 1 0;
#X connect 7 0 6 0;
#X connect 9 0 14 0;
#X connect 9 0 26 1;
#X connect 14 0 5 1;
#X connect 15 0 6 1;
#X connect 15 0 17 1;
#X connect 16 0 15 0;
#X connect 17 0 4 1;
#X connect 18 0 17 0;
#X connect 19 0 16 1;
#X connect 20 0 21 0;
#X connect 21 0 23 1;
#X connect 22 0 26 0;
#X connect 23 0 22 1;
#X connect 24 0 23 0;
#X connect 25 0 22 0;
#X connect 26 0 16 0;
#X connect 26 0 7 1;
#X connect 26 0 14 1;
#X restore 473 308 pd transpose;
#X obj 539 263 nbx 4 18 -1e+37 1e+37 0 1 empty empty empty 0 -8 0 10 #191919 #ffffff #ffffff 27 256;
#X obj 517 234 nbx 4 18 -1e+37 1e+37 0 1 empty empty empty 0 -8 0 10 #191919 #ffffff #ffffff 87 256;
#X obj 495 205 nbx 4 18 -1e+37 1e+37 0 1 empty empty empty 0 -8 0 10 #191919 #ffffff #ffffff 1374 256;
#X connect 1 1 3 0;
#X connect 3 0 2 1;
#X connect 3 0 2 0;
#X connect 4 0 3 3;
#X connect 5 0 3 2;
#X connect 6 0 3 1;
