#N canvas 827 239 527 327 12;
#X obj 126 248 messbox 159 139 25 25 25 255 255 255 1 8;
#X msg 35 146 set <3;
#X msg 126 196 dim \$1 \$2;
#X obj 126 163 pack;
#X obj 126 86 nbx 4 18 -1e+37 1e+37 0 0 empty empty empty 0 -8 0 10 #191919 #ffffff #ffffff 0 256;
#X obj 179 86 nbx 4 18 -1e+37 1e+37 0 0 empty empty empty 0 -8 0 10 #191919 #ffffff #ffffff 0 256;
#X obj 179 117 t b f;
#X msg 338 166 \$1 \$2 \$3 \$4 \$5 \$6 \$7 \$6 \$5 \$4 \$3 \$2 \$1 \$0 \$1 \$2 \$3 \$5, f 49;
#X msg 338 118 adddollar \$1;
#X obj 338 78 nbx 4 18 -1e+37 1e+37 0 0 empty empty empty 0 -8 0 10 #191919 #ffffff #ffffff 0 256;
#X msg 338 272 stab \; stab \; stab \; stab \;, f 6;
#X msg 338 218 add stab;
#X msg 471 218 add2 stab;
#X msg 471 272 stab stab stab stab stab;
#X connect 1 0 0 0 empty;
#X connect 2 0 0 0 empty;
#X connect 3 0 2 0 empty;
#X connect 4 0 3 0 empty;
#X connect 5 0 6 0 empty;
#X connect 6 0 3 0 empty;
#X connect 6 1 3 1 empty;
#X connect 8 0 7 0 empty;
#X connect 9 0 8 0 empty;
#X connect 11 0 10 0 empty;
#X connect 12 0 13 0 empty;
