#N canvas 827 239 527 327 12;
#N canvas 0 50 450 250 (subpatch) 0;
#X text 0 0 plugdatainfo <?xml version="1.0" encoding="UTF-8"?> <plugdatainfo/>;
#X coords 0 1 100 -1 1 1 1;
#X restore 0 0 graph;
#X obj 338 45 adc~;
#X obj 374 432 dac~;
#N canvas 0 50 450 300 transpose 0;
#N canvas 0 50 450 250 (subpatch) 0;
#X text 0 0 plugdatainfo <?xml version="1.0" encoding="UTF-8"?> <plugdatainfo/>;
#X coords 0 1 100 -1 1 1 1;
#X restore 0 0 graph;
#X obj 128 529 +~;
#X obj 128 72 inlet~;
#X obj 128 580 outlet~;
#X obj 128 474 *~;
#X obj 128 248 delay~ 65536 44100;
#X obj 171 474 *~;
#X obj 184 285 delay~ 65536 44100;
#X text 770 188 i, f 4;
#X obj 723 275 +~;
#X obj 712 320 +~;
#X obj 401 72 inlet~;
#X text 610 71 x, f 4;
#X text 461 71 w, f 4;
#X text 838 71 s, f 3;
#X obj 734 229 receive~ x;
#X obj 703 468 send~ x;
#X text 792 409 d, f 4;
#X obj 703 370 %~;
#X obj 241 198 +~;
#X obj 703 410 delay~ 2 2;
#X obj 235 401 clip~ 0 1;
#X obj 235 366 /~;
#X obj 151 437 -~;
#X obj 151 365 numbox~ 4 16 100 #191919 #ffffff 10 0 0 1;
#X obj 557 72 inlet~;
#X obj 792 72 inlet~;
#X obj 789 110 /~ 12;
#X obj 723 189 -~;
#X obj 754 145 pow~;
#X obj 717 95 numbox~ 4 16 100 #191919 #ffffff 10 0 0 2;
#X obj 683 141 numbox~ 4 16 100 #191919 #ffffff 10 0 0 1;
#X obj 754 370 numbox~ 4 16 100 #191919 #ffffff 10 0 0 1;
#X connect 1 0 3 0;
#X connect 2 0 5 0;
#X connect 2 0 7 0;
#X connect 4 0 1 0;
#X connect 5 0 4 0;
#X connect 6 0 1 0;
#X connect 7 0 6 0;
#X connect 9 0 10 1;
#X connect 10 0 18 0;
#X connect 11 0 10 0;
#X connect 11 0 18 1;
#X connect 11 0 19 0;
#X connect 15 0 9 1;
#X connect 18 0 20 0;
#X connect 19 0 5 1;
#X connect 20 0 16 0;
#X connect 20 0 19 1;
#X connect 20 0 7 1;
#X connect 20 0 22 0;
#X connect 21 0 6 1;
#X connect 21 0 23 1;
#X connect 22 0 21 0;
#X connect 23 0 4 1;
#X connect 24 0 23 0;
#X connect 25 0 22 1;
#X connect 26 0 27 0;
#X connect 27 0 29 1;
#X connect 28 0 9 0;
#X connect 29 0 28 1;
#X connect 30 0 29 0;
#X connect 31 0 28 0;
#X connect 32 0 20 1;
#X restore 327 228 pd transpose;
#X obj 356 155 numbox~ 4 16 100 #191919 #ffffff 10 0 0 190;
#X obj 424 155 numbox~ 4 16 100 #191919 #ffffff 10 0 0 278;
#X obj 492 155 numbox~ 4 16 100 #191919 #ffffff 10 0 0 46;
#N canvas 0 50 450 300 transpose 1;
#N canvas 0 50 450 250 (subpatch) 0;
#X text 0 0 plugdatainfo <?xml version="1.0" encoding="UTF-8"?> <plugdatainfo/>;
#X coords 0 1 100 -1 1 1 1;
#X restore 0 0 graph;
#X obj 128 529 +~;
#X obj 128 72 inlet~;
#X obj 128 580 outlet~;
#X obj 128 474 *~;
#X obj 128 248 delay~ 65536 44100;
#X obj 171 474 *~;
#X obj 184 285 delay~ 65536 44100;
#X text 770 188 i, f 4;
#X obj 723 275 +~;
#X obj 712 320 +~;
#X obj 401 72 inlet~;
#X text 610 71 x, f 4;
#X text 461 71 w, f 4;
#X text 838 71 s, f 3;
#X obj 734 229 receive~ x;
#X obj 703 468 send~ x;
#X text 844 409 d, f 4;
#X obj 703 370 %~;
#X obj 241 198 +~;
#X obj 235 401 clip~ 0 1;
#X obj 235 366 /~;
#X obj 151 437 -~;
#X obj 151 365 numbox~ 4 16 100 #191919 #ffffff 10 0 0 1;
#X obj 557 72 inlet~;
#X obj 792 72 inlet~;
#X obj 789 110 /~ 12;
#X obj 723 189 -~;
#X obj 754 145 pow~;
#X obj 717 95 numbox~ 4 16 100 #191919 #ffffff 10 0 0 2;
#X obj 683 141 numbox~ 4 16 100 #191919 #ffffff 10 0 0 1;
#X obj 754 370 numbox~ 4 16 100 #191919 #ffffff 10 0 0 1;
#X obj 691 410 delay~ 44100 22050;
#X connect 1 0 3 0;
#X connect 2 0 5 0;
#X connect 2 0 7 0;
#X connect 4 0 1 0;
#X connect 5 0 4 0;
#X connect 6 0 1 0;
#X connect 7 0 6 0;
#X connect 9 0 10 1;
#X connect 10 0 18 0;
#X connect 11 0 10 0;
#X connect 11 0 18 1;
#X connect 11 0 19 0;
#X connect 15 0 9 1;
#X connect 18 0 32 0;
#X connect 19 0 5 1;
#X connect 20 0 6 1;
#X connect 20 0 22 1;
#X connect 21 0 20 0;
#X connect 22 0 4 1;
#X connect 23 0 22 0;
#X connect 24 0 21 1;
#X connect 25 0 26 0;
#X connect 26 0 28 1;
#X connect 27 0 9 0;
#X connect 28 0 27 1;
#X connect 29 0 28 0;
#X connect 30 0 27 0;
#X connect 31 0 32 1;
#X connect 32 0 16 0;
#X connect 32 0 19 1;
#X connect 32 0 7 1;
#X connect 32 0 21 0;
#X restore 606 228 pd transpose;
#X obj 635 155 numbox~ 4 16 100 #191919 #ffffff 10 0 0 190;
#X obj 703 155 numbox~ 4 16 100 #191919 #ffffff 10 0 0 278;
#X obj 771 155 numbox~ 4 16 100 #191919 #ffffff 10 0 0 46;
#X connect 1 0 3 0;
#X connect 1 1 7 0;
#X connect 3 0 2 0;
#X connect 4 0 3 1;
#X connect 5 0 3 2;
#X connect 6 0 3 3;
#X connect 7 0 2 1;
#X connect 8 0 7 1;
#X connect 9 0 7 2;
#X connect 10 0 7 3;
