#N canvas 827 239 527 327 12;
#N canvas 0 50 450 250 (subpatch) 0;
#X text 0 0 plugdatainfo <?xml version="1.0" encoding="UTF-8"?> <plugdatainfo/>;
#X coords 0 1 100 -1 1 1 1;
#X restore 0 0 graph;
#N canvas 0 50 450 250 (subpatch) 0;
#X array arr1 10 float 2;
#X coords 0 1 10 -1 498 165 1;
#X restore 53 163 graph;
#X obj 613 187 array get arr1;
#X obj 613 106 bng 47 250 50 0 empty empty empty 17 7 0 10 #191919 #ffffff #ffffff;
#X obj 613 307 print;
#X obj 613 229 insert amp;
#X connect 2 0 5 0;
#X connect 3 0 2 0;
#X connect 5 0 4 0;
