#N canvas 827 239 527 327 12;
#N canvas 0 50 450 250 (subpatch) 0;
#X text 0 0 plugdatainfo <?xml version="1.0" encoding="UTF-8"?> <plugdatainfo/>;
#X coords 0 1 100 -1 1 1 1;
#X restore 0 0 graph;
#X msg 30 155 listbox 10 10 9 0 0 0 - - - 0 9 0 0 0 empty - - 0, f 25;
#X obj 30 246 s pd-dark-magic.pd;
#X msg 264 155 listbox 10 10 9 0 0 0 - - - 0 9 0 0 0 empty - - 0, f 25;
#X obj 264 255 s pd-more-dm.pd;
#X text 30 122 send to another patch, f 19;
#X text 264 95 send to itself (this works but it doesn't redraw unless we switch windows) (so no cool \, animated \, self-building patches yet), f 35;
#X connect 1 0 2 0;
#X connect 3 0 4 0;
