#N canvas 379 38 958 649 12;
#X msg 17 179 cut;
#X msg 303 201 mouseup 10 10 1;
#N canvas 0 288 450 300 hi 1;
#X restore 44 280 pd hi;
#X obj 55 245 s pd-hi;
#X msg 206 105 obj 10 10 metro;
#X msg 329 105 obj 100 10 metro;
#X msg 206 145 obj 10 100 metro;
#X msg 329 145 obj 100 100 metro;
#X obj 235 10 bng 25 250 50 0 empty empty empty 17 7 0 10 #191919 #ffffff #ffffff;
#X obj 17 56 t b b b;
#X obj 18 11 bng 25 250 50 0 empty empty empty 17 7 0 10 #191919 #ffffff #ffffff;
#X msg 408 56 clear;
#X obj 235 49 t b b;
#X msg 40 91 mouse 100 100 0 1;
#X msg 62 122 mouse 10 10 0 1;
#X connect 0 0 3 0;
#X connect 1 0 3 0;
#X connect 4 0 3 0;
#X connect 5 0 3 0;
#X connect 6 0 3 0;
#X connect 7 0 3 0;
#X connect 8 0 12 0;
#X connect 9 0 0 0;
#X connect 9 1 13 0;
#X connect 9 2 14 0;
#X connect 10 0 9 0;
#X connect 11 0 3 0;
#X connect 12 0 4 0;
#X connect 12 0 5 0;
#X connect 12 0 6 0;
#X connect 12 0 7 0;
#X connect 12 1 11 0;
#X connect 13 0 3 0;
#X connect 14 0 3 0;
