#N canvas 827 239 527 327 12;
#X obj 100 140 pol2car;
#X obj 484 202 cnv 12 11 11 empty dot empty 20 12 0 14 #ffacab #ffffff 0;
#X obj 100 350 s dot;
#X msg 100 310 pos \$1 \$2;
#X obj 100 280 pack f f;
#X obj 100 60 nbx 4 18 -1e+37 1e+37 0 0 empty empty empty 0 -8 0 10 #191919 #ffffff #ffffff 0 256;
#X obj 153 60 nbx 5 20 -1e+37 1e+37 0 0 empty empty empty 0 -8 0 10 #191919 #ffffff #ffffff 0 256;
#X obj 130 210 +;
#X obj 90 210 +;
#X obj 50 170 nbx 4 18 -1e+37 1e+37 0 0 empty empty empty 0 -8 0 10 #191919 #ffffff #ffffff 0 256;
#X obj 160 170 nbx 4 18 -1e+37 1e+37 0 0 empty empty empty 0 -8 0 10 #191919 #ffffff #ffffff 0 256;
#X obj 140 90 t b f;
#X connect 0 0 8 0 empty;
#X connect 0 1 7 0 empty;
#X connect 3 0 2 0 empty;
#X connect 4 0 3 0 empty;
#X connect 5 0 0 0 empty;
#X connect 6 0 11 0 empty;
#X connect 7 0 4 1 empty;
#X connect 8 0 4 0 empty;
#X connect 9 0 8 1 empty;
#X connect 10 0 7 1 empty;
#X connect 11 0 0 0 empty;
#X connect 11 1 0 1 empty;
