#N canvas 827 239 531 433 12;
#X obj 53 136 tgl 31 1 empty empty empty 17 7 0 10 #191919 #ffacab #ffffff 1 1;
#X obj 189 119 * 4;
#X msg 189 145 tempo \$1 permin, f 16;
#X obj 189 26 nbx 5 18 0.001 64000 0 1 empty empty bpm 30 -6 0 12 #191919 #ffacab #ffffff 35 256;
#X obj 189 190 metro 1, f 8;
#X obj 208 77 t b f;
#X obj 208 53 nbx 4 18 1 128 0 1 empty empty empty 0 -8 0 10 #191919 #ffffff #ffffff 4 256;
#X obj 319 116 * 4;
#X msg 319 142 tempo \$1 permin, f 16;
#X obj 319 26 nbx 5 18 0.001 64000 0 1 empty empty bpm 30 -6 0 12 #191919 #ffacab #ffffff 35 256;
#X obj 319 187 metro 1, f 8;
#X obj 336 76 t b f;
#X obj 336 51 nbx 4 18 1 128 0 1 empty empty empty 0 -8 0 10 #191919 #ffffff #ffffff 3 256;
#X obj 189 365 timer;
#X obj 189 395 nbx 12 27 -1e+37 1e+37 0 0 empty empty empty 0 -8 0 10 #191919 #d4d4d4 #d4d4d4 0 256;
#X obj 89 315 bng 25 250 50 0 empty empty empty 17 7 0 10 #191919 #d4d4d4 #d4d4d4;
#X obj 319 220 count 2;
#X obj 189 223 count 3;
#X obj 81 11 nbx 4 18 -1e+37 1e+37 0 0 empty empty empty 0 -8 0 10 #191919 #d4d4d4 #d4d4d4 0 256;
#X obj 319 255 nbx 4 18 -1e+37 1e+37 0 0 empty empty empty 0 -8 0 10 #191919 #d4d4d4 #d4d4d4 0 256;
#X obj 189 255 nbx 4 18 -1e+37 1e+37 0 0 empty empty empty 0 -8 0 10 #191919 #d4d4d4 #d4d4d4 0 256;
#X obj 319 315 bng 25 250 50 0 empty empty empty 17 7 0 10 #191919 #d4d4d4 #d4d4d4;
#X msg 434 225 reset 0;
#X obj 89 285 select 0 1 2 3;
#X obj 319 285 select 0 1 2;
#X obj 351 315 bng 25 250 50 0 empty empty empty 17 7 0 10 #191919 #d4d4d4 #d4d4d4;
#X obj 383 315 bng 25 250 50 0 empty empty empty 17 7 0 10 #191919 #d4d4d4 #d4d4d4;
#X obj 121 315 bng 25 250 50 0 empty empty empty 17 7 0 10 #191919 #d4d4d4 #d4d4d4;
#X obj 153 315 bng 25 250 50 0 empty empty empty 17 7 0 10 #191919 #d4d4d4 #d4d4d4;
#X obj 185 315 bng 25 250 50 0 empty empty empty 17 7 0 10 #191919 #d4d4d4 #d4d4d4;
#X connect 0 0 4 0;
#X connect 0 0 10 0;
#X connect 1 0 2 0;
#X connect 2 0 4 0;
#X connect 3 0 1 0;
#X connect 4 0 17 0;
#X connect 5 0 1 0;
#X connect 5 1 1 1;
#X connect 6 0 5 0;
#X connect 7 0 8 0;
#X connect 8 0 10 0;
#X connect 9 0 7 0;
#X connect 10 0 16 0;
#X connect 11 0 7 0;
#X connect 11 1 7 1;
#X connect 12 0 11 0;
#X connect 13 0 14 0;
#X connect 16 0 19 0;
#X connect 17 0 20 0;
#X connect 18 0 3 0;
#X connect 18 0 9 0;
#X connect 19 0 24 0;
#X connect 20 0 23 0;
#X connect 22 0 16 0;
#X connect 22 0 17 0;
#X connect 23 0 15 0;
#X connect 23 1 27 0;
#X connect 23 2 28 0;
#X connect 23 3 29 0;
#X connect 24 0 21 0;
#X connect 24 1 25 0;
#X connect 24 2 26 0;
