#N canvas 827 239 527 327 12;
#X obj 99 9 knob 50 0 1 0 0 empty empty #191919 #626262 #ffffff 1 0 0 0 1 270 0 0;
#X obj 99 179 * -1;
#X obj 39 209 nbx 4 18 -1e+37 1e+37 0 0 empty empty empty 0 -8 0 10 #191919 #ffffff #ffffff 0 256;
#X obj 99 69 * 2;
#X obj 99 99 - 1;
#X obj 99 209 nbx 4 18 -1e+37 1e+37 0 0 empty empty empty 0 -8 0 10 #191919 #ffffff #ffffff 0 256;
#X obj 39 249 +;
#X obj 39 289 nbx 17 21 -1e+37 1e+37 0 0 empty empty empty 0 -8 0 10 #191919 #ffffff #ffffff 0 256;
#X obj 89 139 t f f;
#X text 129 138 that's cute af;
#X connect 0 0 3 0 empty;
#X connect 1 0 5 0 empty;
#X connect 2 0 6 0 empty;
#X connect 3 0 4 0 empty;
#X connect 4 0 8 0 empty;
#X connect 5 0 6 1 empty;
#X connect 6 0 7 0 empty;
#X connect 8 0 1 0 empty;
#X connect 8 1 2 0 empty;
