#N canvas 827 239 527 327 12;
#N canvas 0 50 450 250 (subpatch) 0;
#X text 0 0 plugdatainfo <?xml version="1.0" encoding="UTF-8"?> <plugdatainfo/>;
#X coords 0 1 100 -1 1 1 1;
#X restore 0 0 graph;
#X obj 130 302 pack f f f f;
#X obj 130 178 nbx 4 18 -1e+37 1e+37 0 1 empty empty empty 0 -8 0 10 #191919 #ffffff #ffffff 8 256;
#X obj 164 205 nbx 4 18 -1e+37 1e+37 0 1 empty empty empty 0 -8 0 10 #191919 #ffffff #ffffff 11 256;
#X obj 193 225 nbx 4 18 -1e+37 1e+37 0 1 empty empty empty 0 -8 0 10 #191919 #ffffff #ffffff 15 256;
#X obj 230 246 nbx 4 18 -1e+37 1e+37 0 1 empty empty empty 0 -8 0 10 #191919 #ffffff #ffffff 16 256;
#X listbox 130 355 24 0 0 0 - - - 0;
#X obj 130 391 print;
#X obj 130 90 loadbang;
#X obj 130 132 t b b b b;
#X text 309 353 listboxes are fucked;
#X obj 382 90 pack f;
#X text 217 303 pack's doc is fucked;
#X text 436 89 also if you start with something small \; then edit the object \, adding more will \; make it disappear to the left \; for any object \, not just pack;
#X connect 1 0 6 0;
#X connect 2 0 1 0;
#X connect 3 0 1 1;
#X connect 4 0 1 2;
#X connect 5 0 1 3;
#X connect 6 0 7 0;
#X connect 8 0 9 0;
#X connect 9 0 2 0;
#X connect 9 1 3 0;
#X connect 9 2 4 0;
#X connect 9 3 5 0;
