#N canvas 827 239 527 327 12;
#N canvas 0 50 450 250 (subpatch) 0;
#X text 0 0 plugdatainfo <?xml version="1.0" encoding="UTF-8"?> <plugdatainfo/>;
#X coords 0 1 100 -1 1 1 1;
#X restore 0 0 graph;
#X obj 68 72 cnv 100 240 217 empty c1 empty 20 12 0 14 #393939 #ffffff 0;
#X obj 509 297 nbx 4 18 0 512 0 0 empty empty empty 0 -8 0 10 #191919 #ffffff #ffffff 0 256;
#X obj 560 297 nbx 4 18 0 512 0 0 empty empty empty 0 -8 0 10 #191919 #ffffff #ffffff 0 256;
#X obj 560 330 t b f;
#X obj 509 367 pack;
#X obj 517 446 s c1;
#X msg 509 402 vis_size \$1 \$2;
#X text 142 386 inf, f 8;
#X text 142 416 e2dfda, f 7;
#X text 142 450 60a0c4, f 8;
#X text 136 486 ed8b34, f 8;
#X connect 2 0 5 0;
#X connect 3 0 4 0;
#X connect 4 0 5 0;
#X connect 4 1 5 1;
#X connect 5 0 7 0;
#X connect 7 0 6 0;
