#N canvas 268 99 625 443 12;
#X obj 29 509 dac~;
#X obj 29 469 catch~ hi;
#X obj 99 99 nbx 4 18 -1e+37 1e+37 0 1 empty empty empty 0 -8 0 10 #191919 #ffffff #ffffff 490 256;
#X obj 119 139 bng 25 250 50 0 empty empty empty 17 7 0 10 #191919 #ffffff #ffffff;
#X obj 109 39 loadbang;
#X msg 169 89 trigger 1;
#X obj 89 219 throw~ hi;
#X msg 149 119 decay 0.16;
#X obj 89 189 plaits~;
#X msg 29 89 model 8;
#X msg 19 139 morph 0.7;
#X obj 333 99 nbx 4 18 -1e+37 1e+37 0 1 empty empty empty 0 -8 0 10 #191919 #ffffff #ffffff 490 256;
#X obj 353 139 bng 25 250 50 0 empty empty empty 17 7 0 10 #191919 #ffffff #ffffff;
#X obj 343 39 loadbang;
#X msg 403 89 trigger 1;
#X obj 323 219 throw~ hi;
#X msg 383 119 decay 0.16;
#X obj 323 189 plaits~;
#X msg 263 89 model 8;
#X msg 253 139 morph 0.7;
#X obj 569 99 nbx 4 18 -1e+37 1e+37 0 1 empty empty empty 0 -8 0 10 #191919 #ffffff #ffffff 490 256;
#X obj 589 139 bng 25 250 50 0 empty empty empty 17 7 0 10 #191919 #ffffff #ffffff;
#X obj 579 39 loadbang;
#X msg 639 89 trigger 1;
#X obj 559 219 throw~ hi;
#X msg 619 119 decay 0.16;
#X obj 559 189 plaits~;
#X msg 499 89 model 8;
#X msg 489 139 morph 0.7;
#X obj 89 309 nbx 4 18 -1e+37 1e+37 0 1 empty empty empty 0 -8 0 10 #191919 #ffffff #ffffff 490 256;
#X obj 109 349 bng 25 250 50 0 empty empty empty 17 7 0 10 #191919 #ffffff #ffffff;
#X obj 99 249 loadbang;
#X msg 159 299 trigger 1;
#X obj 79 429 throw~ hi;
#X msg 139 329 decay 0.16;
#X obj 79 399 plaits~;
#X msg 19 299 model 8;
#X msg 9 349 morph 0.7;
#X obj 309 319 nbx 4 18 -1e+37 1e+37 0 1 empty empty empty 0 -8 0 10 #191919 #ffffff #ffffff 490 256;
#X obj 329 359 bng 25 250 50 0 empty empty empty 17 7 0 10 #191919 #ffffff #ffffff;
#X obj 319 259 loadbang;
#X msg 379 309 trigger 1;
#X obj 299 439 throw~ hi;
#X msg 359 339 decay 0.16;
#X obj 299 409 plaits~;
#X msg 239 309 model 8;
#X msg 229 359 morph 0.7;
#X obj 529 319 nbx 4 18 -1e+37 1e+37 0 1 empty empty empty 0 -8 0 10 #191919 #ffffff #ffffff 490 256;
#X obj 549 359 bng 25 250 50 0 empty empty empty 17 7 0 10 #191919 #ffffff #ffffff;
#X obj 539 259 loadbang;
#X msg 599 309 trigger 1;
#X obj 519 439 throw~ hi;
#X msg 579 339 decay 0.16;
#X obj 519 409 plaits~;
#X msg 459 309 model 8;
#X msg 449 359 morph 0.7;
#X obj 793 99 nbx 4 18 -1e+37 1e+37 0 1 empty empty empty 0 -8 0 10 #191919 #ffffff #ffffff 490 256;
#X obj 813 139 bng 25 250 50 0 empty empty empty 17 7 0 10 #191919 #ffffff #ffffff;
#X obj 803 39 loadbang;
#X msg 863 89 trigger 1;
#X obj 783 219 throw~ hi;
#X msg 843 119 decay 0.16;
#X obj 783 189 plaits~;
#X msg 723 89 model 8;
#X msg 713 139 morph 0.7;
#X obj 1029 99 nbx 4 18 -1e+37 1e+37 0 1 empty empty empty 0 -8 0 10 #191919 #ffffff #ffffff 490 256;
#X obj 1049 139 bng 25 250 50 0 empty empty empty 17 7 0 10 #191919 #ffffff #ffffff;
#X obj 1039 39 loadbang;
#X msg 1099 89 trigger 1;
#X obj 1019 219 throw~ hi;
#X msg 1079 119 decay 0.16;
#X obj 1019 189 plaits~;
#X msg 959 89 model 8;
#X msg 949 139 morph 0.7;
#X obj 769 319 nbx 4 18 -1e+37 1e+37 0 1 empty empty empty 0 -8 0 10 #191919 #ffffff #ffffff 490 256;
#X obj 789 359 bng 25 250 50 0 empty empty empty 17 7 0 10 #191919 #ffffff #ffffff;
#X obj 779 259 loadbang;
#X msg 839 309 trigger 1;
#X obj 759 439 throw~ hi;
#X msg 819 339 decay 0.16;
#X obj 759 409 plaits~;
#X msg 699 309 model 8;
#X msg 689 359 morph 0.7;
#X obj 989 319 nbx 4 18 -1e+37 1e+37 0 1 empty empty empty 0 -8 0 10 #191919 #ffffff #ffffff 490 256;
#X obj 1009 359 bng 25 250 50 0 empty empty empty 17 7 0 10 #191919 #ffffff #ffffff;
#X obj 999 259 loadbang;
#X msg 1059 309 trigger 1;
#X obj 979 439 throw~ hi;
#X msg 1039 339 decay 0.16;
#X obj 979 409 plaits~;
#X msg 919 309 model 8;
#X msg 909 359 morph 0.7;
#X connect 1 0 0 0 empty;
#X connect 1 0 0 1 empty;
#X connect 2 0 8 0 empty;
#X connect 3 0 8 0 empty;
#X connect 4 0 5 0 empty;
#X connect 4 0 7 0 empty;
#X connect 4 0 9 0 empty;
#X connect 4 0 2 0 empty;
#X connect 4 0 10 0 empty;
#X connect 5 0 8 0 empty;
#X connect 7 0 8 0 empty;
#X connect 8 0 6 0 empty;
#X connect 9 0 8 0 empty;
#X connect 10 0 8 0 empty;
#X connect 11 0 17 0 empty;
#X connect 12 0 17 0 empty;
#X connect 13 0 14 0 empty;
#X connect 13 0 16 0 empty;
#X connect 13 0 18 0 empty;
#X connect 13 0 11 0 empty;
#X connect 13 0 19 0 empty;
#X connect 14 0 17 0 empty;
#X connect 16 0 17 0 empty;
#X connect 17 0 15 0 empty;
#X connect 18 0 17 0 empty;
#X connect 19 0 17 0 empty;
#X connect 20 0 26 0 empty;
#X connect 21 0 26 0 empty;
#X connect 22 0 23 0 empty;
#X connect 22 0 25 0 empty;
#X connect 22 0 27 0 empty;
#X connect 22 0 20 0 empty;
#X connect 22 0 28 0 empty;
#X connect 23 0 26 0 empty;
#X connect 25 0 26 0 empty;
#X connect 26 0 24 0 empty;
#X connect 27 0 26 0 empty;
#X connect 28 0 26 0 empty;
#X connect 29 0 35 0 empty;
#X connect 30 0 35 0 empty;
#X connect 31 0 32 0 empty;
#X connect 31 0 34 0 empty;
#X connect 31 0 36 0 empty;
#X connect 31 0 29 0 empty;
#X connect 31 0 37 0 empty;
#X connect 32 0 35 0 empty;
#X connect 34 0 35 0 empty;
#X connect 35 0 33 0 empty;
#X connect 36 0 35 0 empty;
#X connect 37 0 35 0 empty;
#X connect 38 0 44 0 empty;
#X connect 39 0 44 0 empty;
#X connect 40 0 41 0 empty;
#X connect 40 0 43 0 empty;
#X connect 40 0 45 0 empty;
#X connect 40 0 38 0 empty;
#X connect 40 0 46 0 empty;
#X connect 41 0 44 0 empty;
#X connect 43 0 44 0 empty;
#X connect 44 0 42 0 empty;
#X connect 45 0 44 0 empty;
#X connect 46 0 44 0 empty;
#X connect 47 0 53 0 empty;
#X connect 48 0 53 0 empty;
#X connect 49 0 50 0 empty;
#X connect 49 0 52 0 empty;
#X connect 49 0 54 0 empty;
#X connect 49 0 47 0 empty;
#X connect 49 0 55 0 empty;
#X connect 50 0 53 0 empty;
#X connect 52 0 53 0 empty;
#X connect 53 0 51 0 empty;
#X connect 54 0 53 0 empty;
#X connect 55 0 53 0 empty;
#X connect 56 0 62 0 empty;
#X connect 57 0 62 0 empty;
#X connect 58 0 59 0 empty;
#X connect 58 0 61 0 empty;
#X connect 58 0 63 0 empty;
#X connect 58 0 56 0 empty;
#X connect 58 0 64 0 empty;
#X connect 59 0 62 0 empty;
#X connect 61 0 62 0 empty;
#X connect 62 0 60 0 empty;
#X connect 63 0 62 0 empty;
#X connect 64 0 62 0 empty;
#X connect 65 0 71 0 empty;
#X connect 66 0 71 0 empty;
#X connect 67 0 68 0 empty;
#X connect 67 0 70 0 empty;
#X connect 67 0 72 0 empty;
#X connect 67 0 65 0 empty;
#X connect 67 0 73 0 empty;
#X connect 68 0 71 0 empty;
#X connect 70 0 71 0 empty;
#X connect 71 0 69 0 empty;
#X connect 72 0 71 0 empty;
#X connect 73 0 71 0 empty;
#X connect 74 0 80 0 empty;
#X connect 75 0 80 0 empty;
#X connect 76 0 77 0 empty;
#X connect 76 0 79 0 empty;
#X connect 76 0 81 0 empty;
#X connect 76 0 74 0 empty;
#X connect 76 0 82 0 empty;
#X connect 77 0 80 0 empty;
#X connect 79 0 80 0 empty;
#X connect 80 0 78 0 empty;
#X connect 81 0 80 0 empty;
#X connect 82 0 80 0 empty;
#X connect 83 0 89 0 empty;
#X connect 84 0 89 0 empty;
#X connect 85 0 86 0 empty;
#X connect 85 0 88 0 empty;
#X connect 85 0 90 0 empty;
#X connect 85 0 83 0 empty;
#X connect 85 0 91 0 empty;
#X connect 86 0 89 0 empty;
#X connect 88 0 89 0 empty;
#X connect 89 0 87 0 empty;
#X connect 90 0 89 0 empty;
#X connect 91 0 89 0 empty;
