#N canvas 268 99 625 443 12;
#X obj 9 19 bng 25 250 50 0 empty empty empty 17 7 0 10 #191919 #ffffff #ffffff;
#X obj 9 59 plaits~ -model 8 -trigger 440 0 0 0.7;
#X obj 239 19 bng 25 250 50 0 empty empty empty 17 7 0 10 #191919 #ffffff #ffffff;
#X obj 239 59 plaits~ -model 8 -trigger 440 0 0 0.7;
#X obj 469 19 bng 25 250 50 0 empty empty empty 17 7 0 10 #191919 #ffffff #ffffff;
#X obj 469 59 plaits~ -model 8 -trigger 440 0 0 0.7;
#X obj 9 89 bng 25 250 50 0 empty empty empty 17 7 0 10 #191919 #ffffff #ffffff;
#X obj 9 129 plaits~ -model 8 -trigger 440 0 0 0.7;
#X obj 239 89 bng 25 250 50 0 empty empty empty 17 7 0 10 #191919 #ffffff #ffffff;
#X obj 239 129 plaits~ -model 8 -trigger 440 0 0 0.7;
#X obj 469 89 bng 25 250 50 0 empty empty empty 17 7 0 10 #191919 #ffffff #ffffff;
#X obj 469 129 plaits~ -model 8 -trigger 440 0 0 0.7;
#X obj 9 159 bng 25 250 50 0 empty empty empty 17 7 0 10 #191919 #ffffff #ffffff;
#X obj 9 199 plaits~ -model 8 -trigger 440 0 0 0.7;
#X obj 239 159 bng 25 250 50 0 empty empty empty 17 7 0 10 #191919 #ffffff #ffffff;
#X obj 239 199 plaits~ -model 8 -trigger 440 0 0 0.7;
#X obj 469 159 bng 25 250 50 0 empty empty empty 17 7 0 10 #191919 #ffffff #ffffff;
#X obj 469 199 plaits~ -model 8 -trigger 440 0 0 0.7;
#X obj 9 229 bng 25 250 50 0 empty empty empty 17 7 0 10 #191919 #ffffff #ffffff;
#X obj 9 269 plaits~ -model 8 -trigger 440 0 0 0.7;
#X obj 239 229 bng 25 250 50 0 empty empty empty 17 7 0 10 #191919 #ffffff #ffffff;
#X obj 239 269 plaits~ -model 8 -trigger 440 0 0 0.7;
#X obj 469 229 bng 25 250 50 0 empty empty empty 17 7 0 10 #191919 #ffffff #ffffff;
#X obj 469 269 plaits~ -model 8 -trigger 440 0 0 0.7;
#X obj 9 299 bng 25 250 50 0 empty empty empty 17 7 0 10 #191919 #ffffff #ffffff;
#X obj 9 339 plaits~ -model 8 -trigger 440 0 0 0.7;
#X obj 239 299 bng 25 250 50 0 empty empty empty 17 7 0 10 #191919 #ffffff #ffffff;
#X obj 239 339 plaits~ -model 8 -trigger 440 0 0 0.7;
#X obj 469 299 bng 25 250 50 0 empty empty empty 17 7 0 10 #191919 #ffffff #ffffff;
#X obj 469 339 plaits~ -model 8 -trigger 440 0 0 0.7;
#X obj 9 369 bng 25 250 50 0 empty empty empty 17 7 0 10 #191919 #ffffff #ffffff;
#X obj 9 409 plaits~ -model 8 -trigger 440 0 0 0.7;
#X obj 239 369 bng 25 250 50 0 empty empty empty 17 7 0 10 #191919 #ffffff #ffffff;
#X obj 239 409 plaits~ -model 8 -trigger 440 0 0 0.7;
#X obj 469 369 bng 25 250 50 0 empty empty empty 17 7 0 10 #191919 #ffffff #ffffff;
#X obj 469 409 plaits~ -model 8 -trigger 440 0 0 0.7;
#X obj 9 469 out~;
#X connect 0 0 1 0 empty;
#X connect 1 0 36 0 empty;
#X connect 2 0 3 0 empty;
#X connect 3 0 36 0 empty;
#X connect 4 0 5 0 empty;
#X connect 5 0 36 0 empty;
#X connect 6 0 7 0 empty;
#X connect 7 0 36 0 empty;
#X connect 8 0 9 0 empty;
#X connect 9 0 36 0 empty;
#X connect 10 0 11 0 empty;
#X connect 11 0 36 0 empty;
#X connect 12 0 13 0 empty;
#X connect 13 0 36 0 empty;
#X connect 14 0 15 0 empty;
#X connect 15 0 36 0 empty;
#X connect 16 0 17 0 empty;
#X connect 17 0 36 0 empty;
#X connect 18 0 19 0 empty;
#X connect 19 0 36 0 empty;
#X connect 20 0 21 0 empty;
#X connect 21 0 36 0 empty;
#X connect 22 0 23 0 empty;
#X connect 23 0 36 0 empty;
#X connect 24 0 25 0 empty;
#X connect 25 0 36 0 empty;
#X connect 26 0 27 0 empty;
#X connect 27 0 36 0 empty;
#X connect 28 0 29 0 empty;
#X connect 29 0 36 0 empty;
#X connect 30 0 31 0 empty;
#X connect 31 0 36 0 empty;
#X connect 32 0 33 0 empty;
#X connect 33 0 36 0 empty;
#X connect 34 0 35 0 empty;
#X connect 35 0 36 0 empty;
