#N canvas 268 99 625 443 12;
#X obj 9 519 dac~;
#X obj 9 489 catch~ hi;
#X obj 82 22 bng 25 250 50 0 empty empty empty 17 7 0 10 #191919 #ffffff #ffffff;
#X obj 9 19 loadbang;
#X obj 9 132 throw~ hi;
#X msg 9 74 morph 0.7;
#X msg 19 49 model 8;
#X obj 9 102 plaits~ -trigger 440;
#X obj 214 22 bng 25 250 50 0 empty empty empty 17 7 0 10 #191919 #ffffff #ffffff;
#X obj 141 19 loadbang;
#X obj 141 132 throw~ hi;
#X msg 141 74 morph 0.7;
#X msg 151 49 model 8;
#X obj 141 102 plaits~ -trigger 440;
#X obj 346 22 bng 25 250 50 0 empty empty empty 17 7 0 10 #191919 #ffffff #ffffff;
#X obj 273 19 loadbang;
#X obj 273 132 throw~ hi;
#X msg 273 74 morph 0.7;
#X msg 283 49 model 8;
#X obj 273 102 plaits~ -trigger 440;
#X obj 478 22 bng 25 250 50 0 empty empty empty 17 7 0 10 #191919 #ffffff #ffffff;
#X obj 405 19 loadbang;
#X obj 405 132 throw~ hi;
#X msg 405 74 morph 0.7;
#X msg 415 49 model 8;
#X obj 405 102 plaits~ -trigger 440;
#X obj 610 22 bng 25 250 50 0 empty empty empty 17 7 0 10 #191919 #ffffff #ffffff;
#X obj 537 19 loadbang;
#X obj 537 132 throw~ hi;
#X msg 537 74 morph 0.7;
#X msg 547 49 model 8;
#X obj 537 102 plaits~ -trigger 440;
#X obj 82 162 bng 25 250 50 0 empty empty empty 17 7 0 10 #191919 #ffffff #ffffff;
#X obj 9 159 loadbang;
#X obj 9 272 throw~ hi;
#X msg 9 214 morph 0.7;
#X msg 19 189 model 8;
#X obj 9 242 plaits~ -trigger 440;
#X obj 214 162 bng 25 250 50 0 empty empty empty 17 7 0 10 #191919 #ffffff #ffffff;
#X obj 141 159 loadbang;
#X obj 141 272 throw~ hi;
#X msg 141 214 morph 0.7;
#X msg 151 189 model 8;
#X obj 141 242 plaits~ -trigger 440;
#X obj 346 162 bng 25 250 50 0 empty empty empty 17 7 0 10 #191919 #ffffff #ffffff;
#X obj 273 159 loadbang;
#X obj 273 272 throw~ hi;
#X msg 273 214 morph 0.7;
#X msg 283 189 model 8;
#X obj 273 242 plaits~ -trigger 440;
#X obj 478 162 bng 25 250 50 0 empty empty empty 17 7 0 10 #191919 #ffffff #ffffff;
#X obj 405 159 loadbang;
#X obj 405 272 throw~ hi;
#X msg 405 214 morph 0.7;
#X msg 415 189 model 8;
#X obj 405 242 plaits~ -trigger 440;
#X obj 610 162 bng 25 250 50 0 empty empty empty 17 7 0 10 #191919 #ffffff #ffffff;
#X obj 537 159 loadbang;
#X obj 537 272 throw~ hi;
#X msg 537 214 morph 0.7;
#X msg 547 189 model 8;
#X obj 537 242 plaits~ -trigger 440;
#X obj 82 302 bng 25 250 50 0 empty empty empty 17 7 0 10 #191919 #ffffff #ffffff;
#X obj 9 299 loadbang;
#X obj 9 412 throw~ hi;
#X msg 9 354 morph 0.7;
#X msg 19 329 model 8;
#X obj 9 382 plaits~ -trigger 440;
#X obj 214 302 bng 25 250 50 0 empty empty empty 17 7 0 10 #191919 #ffffff #ffffff;
#X obj 141 299 loadbang;
#X obj 141 412 throw~ hi;
#X msg 141 354 morph 0.7;
#X msg 151 329 model 8;
#X obj 141 382 plaits~ -trigger 440;
#X obj 346 302 bng 25 250 50 0 empty empty empty 17 7 0 10 #191919 #ffffff #ffffff;
#X obj 273 299 loadbang;
#X obj 273 412 throw~ hi;
#X msg 273 354 morph 0.7;
#X msg 283 329 model 8;
#X obj 273 382 plaits~ -trigger 440;
#X obj 478 302 bng 25 250 50 0 empty empty empty 17 7 0 10 #191919 #ffffff #ffffff;
#X obj 405 299 loadbang;
#X obj 405 412 throw~ hi;
#X msg 405 354 morph 0.7;
#X msg 415 329 model 8;
#X obj 405 382 plaits~ -trigger 440;
#X obj 610 302 bng 25 250 50 0 empty empty empty 17 7 0 10 #191919 #ffffff #ffffff;
#X obj 537 299 loadbang;
#X obj 537 412 throw~ hi;
#X msg 537 354 morph 0.7;
#X msg 547 329 model 8;
#X obj 537 382 plaits~ -trigger 440;
#X connect 1 0 0 0 empty;
#X connect 1 0 0 1 empty;
#X connect 2 0 7 0 empty;
#X connect 3 0 6 0 empty;
#X connect 3 0 5 0 empty;
#X connect 5 0 7 0 empty;
#X connect 6 0 7 0 empty;
#X connect 7 0 4 0 empty;
#X connect 8 0 13 0 empty;
#X connect 9 0 12 0 empty;
#X connect 9 0 11 0 empty;
#X connect 11 0 13 0 empty;
#X connect 12 0 13 0 empty;
#X connect 13 0 10 0 empty;
#X connect 14 0 19 0 empty;
#X connect 15 0 18 0 empty;
#X connect 15 0 17 0 empty;
#X connect 17 0 19 0 empty;
#X connect 18 0 19 0 empty;
#X connect 19 0 16 0 empty;
#X connect 20 0 25 0 empty;
#X connect 21 0 24 0 empty;
#X connect 21 0 23 0 empty;
#X connect 23 0 25 0 empty;
#X connect 24 0 25 0 empty;
#X connect 25 0 22 0 empty;
#X connect 26 0 31 0 empty;
#X connect 27 0 30 0 empty;
#X connect 27 0 29 0 empty;
#X connect 29 0 31 0 empty;
#X connect 30 0 31 0 empty;
#X connect 31 0 28 0 empty;
#X connect 32 0 37 0 empty;
#X connect 33 0 36 0 empty;
#X connect 33 0 35 0 empty;
#X connect 35 0 37 0 empty;
#X connect 36 0 37 0 empty;
#X connect 37 0 34 0 empty;
#X connect 38 0 43 0 empty;
#X connect 39 0 42 0 empty;
#X connect 39 0 41 0 empty;
#X connect 41 0 43 0 empty;
#X connect 42 0 43 0 empty;
#X connect 43 0 40 0 empty;
#X connect 44 0 49 0 empty;
#X connect 45 0 48 0 empty;
#X connect 45 0 47 0 empty;
#X connect 47 0 49 0 empty;
#X connect 48 0 49 0 empty;
#X connect 49 0 46 0 empty;
#X connect 50 0 55 0 empty;
#X connect 51 0 54 0 empty;
#X connect 51 0 53 0 empty;
#X connect 53 0 55 0 empty;
#X connect 54 0 55 0 empty;
#X connect 55 0 52 0 empty;
#X connect 56 0 61 0 empty;
#X connect 57 0 60 0 empty;
#X connect 57 0 59 0 empty;
#X connect 59 0 61 0 empty;
#X connect 60 0 61 0 empty;
#X connect 61 0 58 0 empty;
#X connect 62 0 67 0 empty;
#X connect 63 0 66 0 empty;
#X connect 63 0 65 0 empty;
#X connect 65 0 67 0 empty;
#X connect 66 0 67 0 empty;
#X connect 67 0 64 0 empty;
#X connect 68 0 73 0 empty;
#X connect 69 0 72 0 empty;
#X connect 69 0 71 0 empty;
#X connect 71 0 73 0 empty;
#X connect 72 0 73 0 empty;
#X connect 73 0 70 0 empty;
#X connect 74 0 79 0 empty;
#X connect 75 0 78 0 empty;
#X connect 75 0 77 0 empty;
#X connect 77 0 79 0 empty;
#X connect 78 0 79 0 empty;
#X connect 79 0 76 0 empty;
#X connect 80 0 85 0 empty;
#X connect 81 0 84 0 empty;
#X connect 81 0 83 0 empty;
#X connect 83 0 85 0 empty;
#X connect 84 0 85 0 empty;
#X connect 85 0 82 0 empty;
#X connect 86 0 91 0 empty;
#X connect 87 0 90 0 empty;
#X connect 87 0 89 0 empty;
#X connect 89 0 91 0 empty;
#X connect 90 0 91 0 empty;
#X connect 91 0 88 0 empty;
