#N struct 1543-point float x0 float y0 float size float fg float in float grid;
#N canvas 827 239 527 327 12;
#N canvas 0 50 450 250 (subpatch) 0;
#X text 0 0 plugdatainfo <?xml version="1.0" encoding="UTF-8"?> <plugdatainfo/>;
#X coords 0 1 100 -1 1 1 1;
#X restore 0 0 graph;
#X obj 218 285 pol2car;
#X obj 218 365 circle 127 -1 1 -1 1 1 255 255 255 255 255 255 0 0 0 1 0 0 -0.471775 -0.165615 empty empty 1;
#X obj 218 323 pack;
#X obj 218 99 nbx 14 53 -1e+37 1e+37 0 0 empty empty empty 0 -8 0 10 #191919 #ffffff #ffffff 0 256;
#X obj 413 175 nbx 13 50 -1e+37 1e+37 0 0 empty empty empty 0 -8 0 10 #191919 #ffffff #ffffff 0 256;
#X obj 218 212 hot;
#X obj 254 248 * 6.283;
#X obj 413 99 phasor;
#X obj 413 132 / 127;
#X obj 413 33 nbx 13 50 -1e+37 1e+37 0 0 empty empty empty 0 -8 0 10 #191919 #ffffff #ffffff 0 256;
#X connect 1 0 3 0;
#X connect 1 1 3 1;
#X connect 3 0 2 0;
#X connect 4 0 6 0;
#X connect 5 0 6 1;
#X connect 6 0 1 0;
#X connect 6 1 7 0;
#X connect 7 0 1 1;
#X connect 8 0 9 0;
#X connect 9 0 5 0;
#X connect 10 0 8 0;
