#N canvas 827 239 527 327 12;
#N canvas 0 50 450 250 (subpatch) 0;
#X text 0 0 plugdatainfo <?xml version="1.0" encoding="UTF-8"?> <plugdatainfo/>;
#X coords 0 1 100 -1 1 1 1;
#X restore 0 0 graph;
#X obj 293 400 print;
#X obj 293 128 canvas.name;
#X obj 293 87 bng 25 250 50 0 empty empty empty 17 7 0 10 #191919 #ffffff #ffffff;
#X obj 293 297 pack s s;
#X msg 330 227 symbol \$1-env, f 14;
#X msg 293 185 symbol \$1-filt, f 13;
#X text 369 91 else update will break this \; use [canvas.active -name] then;
#X text 352 400 hmm but how to neatly make those the recieve symbols for the objects...;
#X text 379 297 put something like this (with the full list of parameters you wanna preset) in a subpatch \; make use canvas depth 1 to.. (wait is that even needed?) \; and load the final list into presets using the args method;
#X connect 2 0 5 0;
#X connect 2 0 6 0;
#X connect 3 0 2 0;
#X connect 4 0 1 0;
#X connect 5 0 4 1;
#X connect 6 0 4 0;
