#N canvas 827 239 527 327 12;
#X obj 270 220 metro;
#X obj 270 147 tgl 25 0 empty empty empty 17 7 0 10 #191919 #ffffff #ffffff 0 1;
#X obj 293 53 nbx 4 18 0 1000 0 1 empty empty empty 0 -8 0 10 #191919 #ffffff #ffffff 25 256;
#X obj 520 135 nbx 4 18 0 1 0 1 empty empty empty 0 -8 0 10 #191919 #ffffff #ffffff 0.5 256;
#X obj 439 199 *;
#X obj 270 310 tgl 25 0 empty empty empty 17 7 0 10 #191919 #ffffff #ffffff 0 1;
#X obj 270 354 sig~;
#X obj 74 402 oscope~ 326 130 128 3 128 -1 1 0 0 0 0 255 255 255 25 25 25 87 87 87 0 empty;
#X obj 126 287 timer, f 6;
#X obj 126 342 nbx 10 26 -1e+37 1e+37 0 0 empty empty empty 0 -8 0 10 #191919 #ffffff #ffffff 0 256;
#X obj 520 161 t b f;
#X obj 58 317 change;
#X obj 58 344 print;
#X msg 293 188 tempo \$1 persec;
#X obj 301 259 delay;
#X obj 439 98 t b f;
#X obj 439 155 /;
#X msg 409 126 1000;
#X connect 0 0 5 0 empty;
#X connect 0 0 14 0 32.................L....7A....C....e....fA....;
#X connect 0 0 8 0 32.................O....D2++++C....w8++++B....;
#X connect 1 0 0 0 empty;
#X connect 2 0 13 0 empty;
#X connect 2 0 15 0 32.................O....HI...vC....RB...rA....;
#X connect 3 0 10 0 empty;
#X connect 4 0 14 1 32.................M....r3+++eC....K9+++iB....;
#X connect 5 0 6 0 empty;
#X connect 6 0 7 0 32.................N....zy+++uC....87+++yA....;
#X connect 8 0 9 0 empty;
#X connect 8 0 11 0 32.................F....z6+++uA....89+++q.....;
#X connect 10 0 4 0 32.................H.....6+++OB....v9+++KA....;
#X connect 10 1 4 1 32.................L....75+++OC....u9+++KA....;
#X connect 11 0 12 0 empty;
#X connect 13 0 0 0 empty;
#X connect 14 0 5 0 32.................M....H9+++eC....h++++qA....;
#X connect 14 0 8 1 32.................D....T1+++OA....k8+++i.....;
#X connect 15 0 17 0 32.................D....L9+++OA....i++++i.....;
#X connect 15 1 16 1 empty;
#X connect 16 0 4 0 empty;
#X connect 17 0 16 0 32.................E....3A...PA....d....j.....;
