#N canvas 827 239 527 327 12;
#N canvas 0 50 450 250 (subpatch) 0;
#X text 0 0 plugdatainfo <?xml version="1.0" encoding="UTF-8"?> <plugdatainfo><InfoObj ID="16.F....b..........B....." Updated="0" Segmented="0" Path="32.................f.....++++OH....v++++CD...."/><InfoObj ID="16.F....b....P.....A....." Updated="0" Segmented="0" Path="32.................f....LA....H....S.....D...."/><InfoObj ID="16.B....L..........B....." Updated="0" Segmented="0" Path="32.................f.....++++OH....v++++CD...."/><InfoObj ID="16.I....L..........A....." Updated="0" Segmented="0" Path="32.................Q....LA...PD....S....DB...."/></plugdatainfo>;
#X coords 0 1 100 -1 1 1 1;
#X restore 0 0 graph;
#X obj 163 204 nbx 8 17 -1e+37 1e+37 0 0 empty empty empty 0 -8 0 10 #e4e4e4 #5a5a5a #5a5a5a 0 256;
#X obj 163 33 bng 25 250 50 0 empty empty empty 17 7 0 10 #e4e4e4 #5a5a5a #5a5a5a;
#X obj 163 161 timer;
#X obj 163 77 t b b;
#X obj 54 204 nbx 4 18 -1e+37 1e+37 0 0 empty empty empty 0 -8 0 10 #e4e4e4 #5a5a5a #5a5a5a 0 256;
#X obj 54 33 bng 25 250 50 0 empty empty empty 17 7 0 10 #e4e4e4 #5a5a5a #5a5a5a;
#X obj 54 161 timer;
#X obj 54 77 t b b;
#X text 223 77 oh.., f 5;
#X obj 182 130 del 0.0001 1 msec;
#X obj 366 33 bng 25 250 50 0 empty empty empty 17 7 0 10 #e4e4e4 #5a5a5a #5a5a5a;
#X obj 366 77 loop 2;
#X obj 366 216 print l;
#X obj 423 216 print r;
#X obj 543 130 route 0 1;
#X obj 543 33 bng 25 250 50 0 empty empty empty 17 7 0 10 #e4e4e4 #5a5a5a #5a5a5a;
#X obj 543 77 loop 2;
#X obj 543 216 print l;
#X obj 605 216 print r;
#X obj 543 174 f;
#X obj 366 130 route 0 1;
#X obj 596 174 f;
#X obj 54 276 bng 25 250 50 0 empty empty empty 17 7 0 10 #e4e4e4 #5a5a5a #5a5a5a;
#X obj 54 320 loop 2;
#X obj 54 370 nmess 1;
#X obj 54 419 print l;
#X obj 109 419 print r;
#X text 641 173 ooo, f 5;
#X text 438 131 it's taking the first element \, leaving just bang (nil), f 10;
#X obj 194 276 bng 25 250 50 0 empty empty empty 17 7 0 10 #e4e4e4 #5a5a5a #5a5a5a;
#X obj 194 320 loop 2;
#X obj 194 419 timer;
#X obj 194 455 nbx 4 18 -1e+37 1e+37 0 0 empty empty empty 0 -8 0 10 #e4e4e4 #5a5a5a #5a5a5a 0 256;
#X obj 194 386 bng 25 250 50 0 empty empty empty 17 7 0 10 #e4e4e4 #5a5a5a #5a5a5a;
#X obj 230 386 bng 25 250 50 0 empty empty empty 17 7 0 10 #e4e4e4 #5a5a5a #5a5a5a;
#X obj 194 355 nmess 1;
#X obj 255 318 bng 25 250 50 0 empty empty empty 17 7 0 10 #e4e4e4 #5a5a5a #5a5a5a;
#X text 244 453 happy now?, f 11;
#X obj 390 272 bng 25 250 50 0 empty empty empty 17 7 0 10 #e4e4e4 #5a5a5a #5a5a5a;
#X obj 390 455 print l;
#X obj 452 455 print r;
#X text 478 390 OOO, f 6;
#X obj 515 455 print other;
#X obj 390 333 loop 3;
#X obj 390 386 routeall 0 1;
#X obj 320 469 timer;
#X obj 320 504 nbx 4 18 -1e+37 1e+37 0 0 empty empty empty 0 -8 0 10 #e4e4e4 #5a5a5a #5a5a5a 0 256;
#X obj 320 432 bng 25 250 50 0 empty empty empty 17 7 0 10 #e4e4e4 #5a5a5a #5a5a5a;
#X obj 350 432 bng 25 250 50 0 empty empty empty 17 7 0 10 #e4e4e4 #5a5a5a #5a5a5a;
#X connect 2 0 4 0;
#X connect 3 0 1 0;
#X connect 4 0 10 0;
#X connect 4 1 3 0;
#X connect 6 0 8 0;
#X connect 7 0 5 0;
#X connect 8 0 7 1;
#X connect 8 1 7 0;
#X connect 10 0 3 1;
#X connect 11 0 12 0;
#X connect 12 0 21 0;
#X connect 15 0 20 0;
#X connect 15 1 22 0;
#X connect 16 0 17 0;
#X connect 17 0 15 0;
#X connect 20 0 18 0;
#X connect 21 0 13 0;
#X connect 21 1 14 0;
#X connect 22 0 19 0;
#X connect 23 0 24 0;
#X connect 24 0 25 0;
#X connect 25 0 26 0;
#X connect 25 1 27 0;
#X connect 30 0 31 0;
#X connect 31 0 36 0;
#X connect 32 0 33 0;
#X connect 34 0 32 0;
#X connect 35 0 32 1;
#X connect 36 0 34 0;
#X connect 36 1 35 0;
#X connect 37 0 36 1;
#X connect 39 0 44 0;
#X connect 44 0 45 0;
#X connect 45 0 40 0;
#X connect 45 0 48 0;
#X connect 45 1 41 0;
#X connect 45 1 49 0;
#X connect 45 2 43 0;
#X connect 46 0 47 0;
#X connect 48 0 46 0;
#X connect 49 0 46 1;
