#N canvas 827 239 527 327 12;
#X obj 279 239 list store;
#X obj 279 89 wrap;
#X msg 279 209 get \$1;
#X obj 279 279 nbx 4 18 -1e+37 1e+37 0 0 empty empty empty 0 -8 0 10 #191919 #d4d4d4 #d4d4d4 0 256;
#X obj 279 59 / 5;
#X msg 339 209 list 0.3 1.8 2.2 3.5 4.7;
#X obj 169 109 wrap2 0 5;
#X obj 279 119 * 5;
#X obj 279 179 nbx 4 18 -1e+37 1e+37 0 0 empty empty empty 0 -8 0 10 #191919 #d4d4d4 #d4d4d4 0 256;
#X obj 169 239 list store;
#X msg 169 209 get \$1;
#X obj 169 279 nbx 4 18 -1e+37 1e+37 0 0 empty empty empty 0 -8 0 10 #191919 #d4d4d4 #d4d4d4 0 256;
#X obj 169 179 nbx 4 18 -1e+37 1e+37 0 0 empty empty empty 0 -8 0 10 #191919 #d4d4d4 #d4d4d4 0 256;
#X obj 169 29 nbx 4 18 -1e+37 1e+37 0 0 empty empty empty 0 -8 0 10 #191919 #d4d4d4 #d4d4d4 0 256;
#X obj 279 148 expr rint($f1);
#X text 379 148 oh lol;
#X connect 0 0 3 0;
#X connect 1 0 7 0;
#X connect 2 0 0 0;
#X connect 4 0 1 0;
#X connect 5 0 0 1;
#X connect 5 0 9 1;
#X connect 6 0 12 0;
#X connect 7 0 14 0;
#X connect 8 0 2 0;
#X connect 9 0 11 0;
#X connect 10 0 9 0;
#X connect 12 0 10 0;
#X connect 13 0 6 0;
#X connect 13 0 4 0;
#X connect 14 0 8 0;
