#N canvas 827 239 527 327 12;
#X obj 239 154 bng 50 250 50 0 empty empty empty 17 7 0 10 #191919 #ed3b4b #ffffff;
#X obj 289 154 bng 50 250 50 0 empty empty empty 17 7 0 10 #191919 #ff6e1d #ffffff;
#X obj 339 154 bng 50 250 50 0 empty empty empty 17 7 0 10 #191919 #fbcd26 #ffffff;
#X obj 389 154 bng 50 250 50 0 empty empty empty 17 7 0 10 #191919 #53af65 #ffffff;
#X obj 439 154 bng 50 250 50 0 empty empty empty 17 7 0 10 #191919 #2d8ce3 #ffffff;
#X obj 489 154 bng 50 250 50 0 empty empty empty 17 7 0 10 #191919 #6a47b9 #ffffff;
#X obj 189 154 bng 50 250 50 0 empty empty empty 17 7 0 10 #191919 #f5a9b8 #ffffff;
#X obj 139 154 bng 50 250 50 0 empty empty empty 17 7 0 10 #191919 #5bcefa #ffffff;
#X obj 639 154 bng 50 250 50 0 empty empty empty 17 7 0 10 #191919 #ed3b4b #ffffff;
#X obj 689 154 bng 50 250 50 0 empty empty empty 17 7 0 10 #191919 #ff6e1d #ffffff;
#X obj 739 154 bng 50 250 50 0 empty empty empty 17 7 0 10 #191919 #fbcd26 #ffffff;
#X obj 789 154 bng 50 250 50 0 empty empty empty 17 7 0 10 #191919 #53af65 #ffffff;
#X obj 839 154 bng 50 250 50 0 empty empty empty 17 7 0 10 #191919 #2d8ce3 #ffffff;
#X obj 889 154 bng 50 250 50 0 empty empty empty 17 7 0 10 #191919 #6a47b9 #ffffff;
#X obj 589 154 bng 50 250 50 0 empty empty empty 17 7 0 10 #191919 #f5a9b8 #ffffff;
#X obj 539 154 bng 50 250 50 0 empty empty empty 17 7 0 10 #191919 #5bcefa #ffffff;
#X obj 367 88 count 15;
#X obj 139 87 tgl 50 1 empty empty empty 17 7 0 10 #191919 #ffacab #ffffff 0 1;
#X obj 196 51 * 4;
#X obj 204 121 router 16 15;
#X obj 472 51 nbx 4 18 0 15 0 1 empty empty last\ step 0 -8 0 10 #191919 #ffacab #ffffff 15 256;
#X msg 421 51 0 \$1, f 6;
#X msg 240 51 tempo \$1 permin, f 17;
#X obj 139 53 nbx 4 18 -8000 8000 0 1 empty empty bpm 0 -8 0 10 #191919 #ffacab #ffffff 105 256;
#X msg 367 51 reset, f 7;
#X obj 204 88 metro 1;
#X obj 249 509 bng 50 250 50 0 empty empty empty 17 7 0 10 #191919 #ed3b4b #ffffff;
#X obj 299 509 bng 50 250 50 0 empty empty empty 17 7 0 10 #191919 #ff6e1d #ffffff;
#X obj 349 509 bng 50 250 50 0 empty empty empty 17 7 0 10 #191919 #fbcd26 #ffffff;
#X obj 399 509 bng 50 250 50 0 empty empty empty 17 7 0 10 #191919 #53af65 #ffffff;
#X obj 449 509 bng 50 250 50 0 empty empty empty 17 7 0 10 #191919 #2d8ce3 #ffffff;
#X obj 499 509 bng 50 250 50 0 empty empty empty 17 7 0 10 #191919 #6a47b9 #ffffff;
#X obj 199 509 bng 50 250 50 0 empty empty empty 17 7 0 10 #191919 #f5a9b8 #ffffff;
#X obj 149 509 bng 50 250 50 0 empty empty empty 17 7 0 10 #191919 #5bcefa #ffffff;
#X obj 649 509 bng 50 250 50 0 empty empty empty 17 7 0 10 #191919 #ed3b4b #ffffff;
#X obj 699 509 bng 50 250 50 0 empty empty empty 17 7 0 10 #191919 #ff6e1d #ffffff;
#X obj 749 509 bng 50 250 50 0 empty empty empty 17 7 0 10 #191919 #fbcd26 #ffffff;
#X obj 799 509 bng 50 250 50 0 empty empty empty 17 7 0 10 #191919 #53af65 #ffffff;
#X obj 849 509 bng 50 250 50 0 empty empty empty 17 7 0 10 #191919 #2d8ce3 #ffffff;
#X obj 899 509 bng 50 250 50 0 empty empty empty 17 7 0 10 #191919 #6a47b9 #ffffff;
#X obj 599 509 bng 50 250 50 0 empty empty empty 17 7 0 10 #191919 #f5a9b8 #ffffff;
#X obj 549 509 bng 50 250 50 0 empty empty empty 17 7 0 10 #191919 #5bcefa #ffffff;
#X obj 143 418 count 15;
#X obj 158 269 tgl 50 1 empty empty empty 17 7 0 10 #191919 #ffacab #ffffff 0 1;
#X obj 214 298 * 4;
#X obj 355 332 nbx 4 18 0 15 0 1 empty empty last\ step 0 -8 0 10 #191919 #ffacab #ffffff 15 256;
#X msg 355 367 0 \$1, f 6;
#X msg 214 326 tempo \$1 permin, f 17;
#X obj 214 273 nbx 4 18 -8000 8000 0 1 empty empty bpm 0 -8 0 10 #191919 #ffacab #ffffff 105 256;
#X msg 92 379 reset, f 7;
#X obj 158 379 metro 1;
#X obj 143 455 select 0 1 2 3 4 5 6 7 8 9 10 11 12 13 14 15;
#X connect 16 0 19 1 32.................F....PF...fA....jA...z.....;
#X connect 17 0 25 0 48.................E....vB...PA....r....r7+++eP....K++++GD...Pz++++;
#X connect 18 0 22 0 48.................D....zA....A....c....b9+++OK....m++++yB...P6++++;
#X connect 19 0 7 0 empty;
#X connect 19 1 6 0 empty;
#X connect 19 2 0 0 empty;
#X connect 19 3 1 0 empty;
#X connect 19 4 2 0 empty;
#X connect 19 5 3 0 empty;
#X connect 19 6 4 0 empty;
#X connect 19 7 5 0 empty;
#X connect 19 8 15 0 empty;
#X connect 19 9 14 0 empty;
#X connect 19 10 8 0 empty;
#X connect 19 11 9 0 empty;
#X connect 19 12 10 0 empty;
#X connect 19 13 11 0 empty;
#X connect 19 14 12 0 empty;
#X connect 19 15 13 0 empty;
#X connect 20 0 21 0 48.................E....H++++eA....x++++q9+++uy++++p++++67++++6++++;
#X connect 21 0 16 1 32.................M....D++++eC....w++++GA....;
#X connect 22 0 25 0 32.................M....z8+++eC....c++++GA....;
#X connect 23 0 18 0 48.................E....bB...PA....m....b9+++eN....m++++mC...P6++++;
#X connect 24 0 16 0 empty;
#X connect 25 0 19 0 empty;
#X connect 25 0 16 0 48.................F....jH...fA....IB...b9++++n....m++++OJ...P6++++;
#X connect 42 0 51 0 empty;
#X connect 43 0 50 0 empty;
#X connect 44 0 47 0 empty;
#X connect 45 0 46 0 empty;
#X connect 46 0 42 1 empty;
#X connect 47 0 50 0 empty;
#X connect 48 0 44 0 empty;
#X connect 49 0 42 0 empty;
#X connect 50 0 42 0 empty;
#X connect 51 0 33 0 empty;
#X connect 51 1 32 0 empty;
#X connect 51 2 26 0 empty;
#X connect 51 3 27 0 empty;
#X connect 51 4 28 0 empty;
#X connect 51 5 29 0 empty;
#X connect 51 6 30 0 empty;
#X connect 51 7 31 0 empty;
#X connect 51 8 41 0 empty;
#X connect 51 9 40 0 empty;
#X connect 51 10 34 0 empty;
#X connect 51 11 35 0 empty;
#X connect 51 12 36 0 empty;
#X connect 51 13 37 0 empty;
#X connect 51 14 38 0 empty;
#X connect 51 15 39 0 empty;
