#N canvas 827 239 527 327 12;
#X obj 164 254 bng 25 250 50 0 empty empty empty 17 7 0 10 #191919 #ffffff #ffffff;
#X obj 180 284 bng 25 250 50 0 empty empty empty 17 7 0 10 #191919 #ffffff #ffffff;
#X obj 164 187 nbx 4 18 -1e+37 1e+37 0 0 empty empty empty 0 -8 0 10 #191919 #ffffff #ffffff 0 256;
#X obj 164 146 count;
#X obj 164 105 bng 25 250 50 0 empty empty empty 17 7 0 10 #191919 #ffffff #ffffff;
#X obj 164 221 select 0 1 2 3 4;
#X obj 197 254 bng 25 250 50 0 empty empty empty 17 7 0 10 #191919 #ffffff #ffffff;
#X obj 213 284 bng 25 250 50 0 empty empty empty 17 7 0 10 #191919 #ffffff #ffffff;
#X obj 230 254 bng 25 250 50 0 empty empty empty 17 7 0 10 #191919 #ffffff #ffffff;
#X obj 247 284 bng 25 250 50 0 empty empty empty 17 7 0 10 #191919 #ffffff #ffffff;
#X msg 201 105 0, f 7;
#X connect 2 0 5 0 empty;
#X connect 3 0 2 0 empty;
#X connect 4 0 3 0 empty;
#X connect 5 0 0 0 empty;
#X connect 5 1 1 0 empty;
#X connect 5 2 6 0 empty;
#X connect 5 3 7 0 empty;
#X connect 5 4 8 0 empty;
#X connect 5 5 9 0 empty;
#X connect 10 0 3 0 empty;
