#N canvas 827 239 760 420 12;
#X obj 9 9 cnv 15 471 241 empty empty empty 20 12 0 14 #191919 #ffffff 0;
#N canvas 0 50 450 250 (subpatch) 0;
#X array arr1 32 float 2;
#X coords 0 1 32 -1 142 82 1;
#X restore 509 19 graph;
#N canvas 0 50 450 300 sliders 1;
#X obj 2 88 cnv 2 12 32 empty sl0 empty 20 12 0 14 #62ff00 #ffffff 0;
#X obj 16 120 cnv 2 12 1 empty sl1 empty 20 12 0 14 #f200ff #ffffff 0;
#X obj 31 120 cnv 2 12 1 empty sl2 empty 20 12 0 14 #4800ff #ffffff 0;
#X obj 46 120 cnv 2 12 1 empty sl3 empty 20 12 0 14 #ff6e00 #ffffff 0;
#X obj 60 120 cnv 2 12 1 empty sl4 empty 20 12 0 14 #0040ff #ffffff 0;
#X obj 75 65 cnv 2 12 55 empty sl5 empty 20 12 0 14 #00ff95 #ffffff 0;
#X obj 90 120 cnv 2 12 1 empty sl6 empty 20 12 0 14 #ff5100 #ffffff 0;
#X obj 104 120 cnv 2 12 1 empty sl7 empty 20 12 0 14 #9900ff #ffffff 0;
#X obj 119 120 cnv 2 12 1 empty sl8 empty 20 12 0 14 #00ff4c #ffffff 0;
#X obj 134 120 cnv 2 12 1 empty sl9 empty 20 12 0 14 #ff9000 #ffffff 0;
#X obj 148 120 cnv 2 12 1 empty sl10 empty 20 12 0 14 #ffaa00 #ffffff 0;
#X obj 163 120 cnv 2 12 1 empty sl11 empty 20 12 0 14 #37ff00 #ffffff 0;
#X obj 178 120 cnv 2 12 1 empty sl12 empty 20 12 0 14 #fb00ff #ffffff 0;
#X obj 192 120 cnv 2 12 1 empty sl13 empty 20 12 0 14 #00fff6 #ffffff 0;
#X obj 207 120 cnv 2 12 1 empty sl14 empty 20 12 0 14 #ff5500 #ffffff 0;
#X obj 222 120 cnv 2 12 1 empty sl15 empty 20 12 0 14 #11ff00 #ffffff 0;
#X obj 237 120 cnv 2 12 64 empty sl16 empty 20 12 0 14 #ff1e00 #ffffff 0;
#X obj 251 120 cnv 2 12 1 empty sl17 empty 20 12 0 14 #22ff00 #ffffff 0;
#X obj 266 120 cnv 2 12 1 empty sl18 empty 20 12 0 14 #00ff62 #ffffff 0;
#X obj 281 120 cnv 2 12 1 empty sl19 empty 20 12 0 14 #00ff8c #ffffff 0;
#X obj 295 120 cnv 2 12 1 empty sl20 empty 20 12 0 14 #f200ff #ffffff 0;
#X obj 310 120 cnv 2 12 1 empty sl21 empty 20 12 0 14 #0800ff #ffffff 0;
#X obj 325 120 cnv 2 12 1 empty sl22 empty 20 12 0 14 #f200ff #ffffff 0;
#X obj 339 120 cnv 2 12 1 empty sl23 empty 20 12 0 14 #00ffea #ffffff 0;
#X obj 354 120 cnv 2 12 1 empty sl24 empty 20 12 0 14 #00ff84 #ffffff 0;
#X obj 369 120 cnv 2 12 1 empty sl25 empty 20 12 0 14 #ff6a00 #ffffff 0;
#X obj 383 120 cnv 2 12 1 empty sl26 empty 20 12 0 14 #ff0004 #ffffff 0;
#X obj 398 120 cnv 2 12 1 empty sl27 empty 20 12 0 14 #00fff6 #ffffff 0;
#X obj 413 120 cnv 2 12 1 empty sl28 empty 20 12 0 14 #ffb200 #ffffff 0;
#X obj 427 120 cnv 2 12 1 empty sl29 empty 20 12 0 14 #00ff22 #ffffff 0;
#X obj 442 120 cnv 2 12 1 empty sl30 empty 20 12 0 14 #0099ff #ffffff 0;
#X obj 457 120 cnv 2 12 1 empty sl31 empty 20 12 0 14 #5d00ff #ffffff 0;
#X coords 0 0 1 1 472 242 2 0 0;
#X restore 9 9 pd sliders;
#N canvas 0 50 500 460 construct 1;
#X obj 59 429 s pd-sliders;
#X msg 9 349 clear;
#X obj 59 189 loop;
#X text 206 8 spacing;
#X obj 59 29 inlet;
#X obj 163 29 inlet;
#X obj 214 29 inlet;
#X obj 278 29 inlet;
#X obj 332 29 inlet;
#X obj 396 29 inlet;
#X obj 450 29 inlet;
#X obj 73 269 expr $f1 * ($f2/$f3);
#X text 266 8 x offset;
#X text 326 8 y offset;
#X obj 59 349 pack f f f f;
#X msg 59 379 obj \$2 \$3 cnv 2 \$4 0 empty sl\$1 empty 20 12 0 14 #ffffff #ffffff 0, f 30;
#X obj 119 29 inlet;
#X obj 73 309 +;
#N canvas 0 50 470 440 move-slider 0;
#X obj 19 29 inlet;
#X obj 89 29 inlet;
#X obj 169 29 inlet;
#X obj 249 29 inlet;
#X obj 319 29 inlet;
#X obj 389 29 inlet;
#X msg 320 349 symbol sl\$1;
#X obj 9 399 s;
#X obj 9 259 -;
#X msg 9 289 delta 0 \$1;
#X obj 80 224 * -1;
#X obj 9 229 t f f;
#X obj 80 187 moses 1;
#X msg 111 150 0;
#X obj 229 229 *;
#X obj 259 309 pack;
#X obj 80 319 pack;
#X msg 80 349 vis_size \$2 \$1;
#X text 89 8 index;
#X text 9 8 y value;
#N canvas 0 50 450 300 set-pos 0;
#X obj 109 59 inlet;
#X obj 219 59 inlet;
#X obj 159 219 outlet;
#X msg 159 169 pos 237 120;
#X msg 219 109 set pos \$1 \$2;
#X connect 0 0 3 0 empty;
#X connect 1 0 4 0 empty;
#X connect 3 0 2 0 empty;
#X connect 4 0 3 0 empty;
#X restore 187 349 pd set-pos;
#X obj 249 269 +;
#X obj 80 82 * -1;
#X text 309 8 y offset;
#X text 239 8 x offset;
#X obj 319 159 f;
#X obj 319 189 t f f;
#X obj 80 114 t f b b b;
#X text 149 8 slider width;
#X text 389 8 width - spacing;
#X connect 0 0 22 0 empty;
#X connect 1 0 25 1 empty;
#X connect 2 0 14 1 empty;
#X connect 3 0 21 1 empty;
#X connect 4 0 15 1 empty;
#X connect 5 0 16 1 empty;
#X connect 6 0 7 1 empty;
#X connect 8 0 9 0 empty;
#X connect 9 0 7 0 empty;
#X connect 10 0 16 0 empty;
#X connect 11 0 8 1 empty;
#X connect 11 1 8 0 empty;
#X connect 12 0 11 0 empty;
#X connect 12 0 10 0 empty;
#X connect 12 1 16 0 empty;
#X connect 13 0 12 0 empty;
#X connect 14 0 21 0 empty;
#X connect 15 0 20 1 empty;
#X connect 16 0 17 0 empty;
#X connect 17 0 7 0 empty;
#X connect 20 0 7 0 empty;
#X connect 21 0 15 0 empty;
#X connect 22 0 27 0 empty;
#X connect 25 0 26 0 empty;
#X connect 26 0 14 0 empty;
#X connect 26 1 6 0 empty;
#X connect 27 0 12 0 empty;
#X connect 27 1 20 0 empty;
#X connect 27 2 13 0 empty;
#X connect 27 3 25 0 empty;
#X restore 349 389 pd move-slider;
#N canvas 0 50 450 300 resize 0;
#X obj 89 49 inlet;
#X obj 223 49 inlet;
#X msg 129 189 coords 0 0 1 1 \$1 \$2 2;
#X obj 129 152 pack2;
#X obj 179 119 + 2;
#X obj 129 119 + 2;
#X obj 129 219 s pd-sliders;
#X connect 0 0 5 0 empty;
#X connect 1 0 4 0 empty;
#X connect 2 0 6 0 empty;
#X connect 3 0 2 0 empty;
#X connect 4 0 3 1 empty;
#X connect 5 0 3 0 empty;
#X restore 389 69 pd resize;
#X text 396 8 width;
#X text 446 8 height;
#X text 9 8 # of sliders;
#X text 114 8 y val;
#X text 159 8 ndx;
#N canvas 0 50 450 300 calc-y-pos 0;
#X obj 69 29 inlet;
#X obj 119 29 inlet;
#X obj 179 29 inlet;
#X obj 69 259 outlet;
#X obj 69 109 / 2;
#X obj 119 139 * -1;
#X obj 89 189 *;
#X obj 69 79 f;
#X obj 69 229 +;
#X obj 69 139 t f f;
#X connect 0 0 7 0 empty;
#X connect 1 0 5 0 empty;
#X connect 2 0 7 1 empty;
#X connect 4 0 9 0 empty;
#X connect 5 0 6 0 empty;
#X connect 6 0 8 1 empty;
#X connect 7 0 4 0 empty;
#X connect 8 0 3 0 empty;
#X connect 9 0 8 0 empty;
#X connect 9 1 6 1 empty;
#X restore 389 259 pd calc-y-pos;
#X obj 59 129 t f f f b;
#N canvas 0 50 450 300 calc-width 0;
#X obj 69 39 inlet;
#X obj 113 39 inlet;
#X obj 157 39 inlet;
#X obj 59 179 -;
#X obj 59 249 outlet;
#X obj 139 249 outlet;
#X obj 139 129 !/;
#X connect 0 0 6 0 empty;
#X connect 1 0 3 1 empty;
#X connect 2 0 6 1 empty;
#X connect 3 0 4 0 empty;
#X connect 6 0 3 0 empty;
#X connect 6 0 5 0 empty;
#X restore 209 269 pd calc-width;
#X obj 59 69 t f b;
#X obj 59 223 t f f;
#X connect 1 0 0 0 empty;
#X connect 2 0 29 0 empty;
#X connect 4 0 28 0 empty;
#X connect 5 0 18 1 empty;
#X connect 6 0 27 1 empty;
#X connect 7 0 17 1 empty;
#X connect 7 0 18 3 empty;
#X connect 8 0 25 1 empty;
#X connect 9 0 19 0 empty;
#X connect 9 0 11 1 empty;
#X connect 9 0 27 2 empty;
#X connect 10 0 19 1 empty;
#X connect 10 0 25 2 empty;
#X connect 11 0 17 0 empty;
#X connect 14 0 15 0 empty;
#X connect 15 0 0 0 empty;
#X connect 16 0 18 0 empty;
#X connect 17 0 14 1 empty;
#X connect 25 0 18 4 empty;
#X connect 25 0 14 2 empty;
#X connect 26 0 2 0 empty;
#X connect 26 1 11 2 empty;
#X connect 26 2 27 0 empty;
#X connect 26 3 1 0 empty;
#X connect 27 0 18 5 empty;
#X connect 27 0 14 3 empty;
#X connect 27 1 18 2 empty;
#X connect 28 0 26 0 empty;
#X connect 28 1 25 0 empty;
#X connect 29 0 14 0 empty;
#X connect 29 1 11 0 empty;
#X restore 509 349 pd construct;
#X obj 509 169 nbx 4 18 1 1e+37 0 0 empty empty empty 0 -8 0 10 #191919 #ffffff #ffffff 0 256;
#X obj 661 319 nbx 4 18 0 1e+37 0 1 empty empty empty 0 -8 0 10 #191919 #ffffff #ffffff 240 256;
#X obj 611 319 nbx 4 18 0 1e+37 0 1 empty empty empty 0 -8 0 10 #191919 #ffffff #ffffff 470 256;
#X obj 594 294 nbx 4 18 -1e+37 1e+37 0 1 empty empty empty 0 -8 0 10 #191919 #ffffff #ffffff 0 256;
#X text 659 348 width & height;
#X text 555 169 n;
#X obj 577 269 nbx 4 18 0 1e+37 0 1 empty empty empty 0 -8 0 10 #191919 #ffffff #ffffff 2 256;
#X text 622 268 x offset;
#X obj 560 244 nbx 4 18 0 1e+37 0 1 empty empty empty 0 -8 0 10 #191919 #ffffff #ffffff 2 256;
#X text 606 244 spacing;
#X obj 543 221 nbx 4 18 0 1e+37 0 0 empty empty empty 0 -8 0 10 #191919 #ffffff #ffffff 0 256;
#X obj 526 199 nbx 4 18 -1e+37 1e+37 0 0 empty empty empty 0 -8 0 10 #191919 #ffffff #ffffff 0 256;
#X text 589 220 index;
#X text 571 197 y value;
#X obj 439 319 bng 25 250 50 0 empty empty empty 17 7 0 10 #191919 #ffffff #ffffff;
#N canvas 0 50 450 300 color 1;
#X obj 129 9 inlet;
#X obj 129 119 rand.i 0 360;
#X msg 129 159 hsl \$1 100 50;
#X obj 319 9 inlet;
#X msg 269 129 symbol sl\$1;
#X obj 129 49 loop;
#X obj 129 79 t b f;
#X obj 129 259 s;
#X msg 129 219 color \$1;
#X obj 129 189 colors;
#X connect 0 0 5 0 empty;
#X connect 1 0 2 0 empty;
#X connect 2 0 9 0 empty;
#X connect 3 0 5 1 empty;
#X connect 4 0 7 1 empty;
#X connect 5 0 6 0 empty;
#X connect 6 0 1 0 empty;
#X connect 6 1 4 0 empty;
#X connect 8 0 7 0 empty;
#X connect 9 0 8 0 empty;
#X restore 439 349 pd color;
#X text 641 292 y axis (-1 to 1);
#X connect 4 0 3 0 empty;
#X connect 4 0 19 1 empty;
#X connect 5 0 3 7 empty;
#X connect 6 0 3 6 empty;
#X connect 7 0 3 5 empty;
#X connect 10 0 3 4 empty;
#X connect 12 0 3 3 empty;
#X connect 14 0 3 2 empty;
#X connect 15 0 3 1 empty;
#X connect 18 0 19 0 empty;
