#N canvas 827 239 527 327 12;
#X obj 9 9 cnv 15 471 241 empty empty empty 20 12 0 14 #191919 #ffffff 0;
#N canvas 0 50 450 250 (subpatch) 0;
#X array arr1 32 float 2;
#X coords 0 1 32 -1 142 82 1;
#X restore 539 19 graph;
#N canvas 0 50 450 300 sliders 1;
#X obj 2 240 cnv 2 24 1 empty sl0 empty 20 12 0 14 #ff00ff #ffffff 0;
#X obj 28 240 cnv 2 24 1 empty sl1 empty 20 12 0 14 #00e6ff #ffffff 0;
#X obj 54 240 cnv 2 24 1 empty sl2 empty 20 12 0 14 #ff007f #ffffff 0;
#X obj 80 240 cnv 2 24 1 empty sl3 empty 20 12 0 14 #00ff40 #ffffff 0;
#X obj 106 240 cnv 2 24 1 empty sl4 empty 20 12 0 14 #2bff00 #ffffff 0;
#X obj 132 240 cnv 2 24 1 empty sl5 empty 20 12 0 14 #007bff #ffffff 0;
#X obj 158 240 cnv 2 24 1 empty sl6 empty 20 12 0 14 #0022ff #ffffff 0;
#X obj 184 240 cnv 2 24 1 empty sl7 empty 20 12 0 14 #0088ff #ffffff 0;
#X obj 210 240 cnv 2 24 1 empty sl8 empty 20 12 0 14 #0009ff #ffffff 0;
#X obj 237 240 cnv 2 24 1 empty sl9 empty 20 12 0 14 #00bfff #ffffff 0;
#X obj 263 240 cnv 2 24 1 empty sl10 empty 20 12 0 14 #00ffb2 #ffffff 0;
#X obj 289 240 cnv 2 24 1 empty sl11 empty 20 12 0 14 #00ff3b #ffffff 0;
#X obj 315 240 cnv 2 24 1 empty sl12 empty 20 12 0 14 #8400ff #ffffff 0;
#X obj 341 240 cnv 2 24 1 empty sl13 empty 20 12 0 14 #e6ff00 #ffffff 0;
#X obj 367 240 cnv 2 24 1 empty sl14 empty 20 12 0 14 #ff007b #ffffff 0;
#X obj 393 240 cnv 2 24 1 empty sl15 empty 20 12 0 14 #00ffaa #ffffff 0;
#X obj 419 240 cnv 2 24 1 empty sl16 empty 20 12 0 14 #2fff00 #ffffff 0;
#X obj 445 240 cnv 2 24 1 empty sl17 empty 20 12 0 14 #0055ff #ffffff 0;
#X coords 0 0 1 1 472 242 2 0 0;
#X restore 9 9 pd sliders;
#N canvas 0 50 450 300 construct 1;
#X obj 139 499 s pd-sliders;
#X msg 79 459 clear;
#X obj 609 219 nbx 4 18 -1e+37 1e+37 0 0 empty empty empty 0 -8 0 10 #191919 #ffffff #ffffff 0 256;
#X msg 609 429 symbol sl\$1;
#X obj 489 489 s;
#X obj 89 209 nbx 4 18 -1e+37 1e+37 0 0 empty empty empty 0 -8 0 10 #191919 #ffffff #ffffff 0 256;
#X obj 259 309 /;
#X obj 89 283 t f f b;
#X obj 219 199 nbx 4 18 -1e+37 1e+37 0 1 empty empty empty 0 -8 0 10 #191919 #ffffff #ffffff 470 256;
#X obj 269 199 nbx 4 18 -1e+37 1e+37 0 1 empty empty empty 0 -8 0 10 #191919 #ffffff #ffffff 240 256;
#X obj 500 165 nbx 4 18 -1e+37 1e+37 0 1 empty empty empty 0 -8 0 10 #191919 #ffffff #ffffff -109 256;
#X obj 459 329 -;
#X msg 459 359 delta 0 \$1;
#X obj 500 294 * -1;
#X obj 459 299 t f f;
#X obj 500 257 moses 1;
#X msg 529 224 0;
#X obj 500 194 t f b b;
#X obj 631 302 *;
#X obj 299 229 / 2;
#X obj 631 362 pack;
#X obj 89 259 loop;
#X obj 89 233 t f f b f b;
#X obj 489 399 pack;
#X msg 489 429 vis_size \$2 \$1;
#X obj 259 359 - 2;
#X text 429 268 spacing;
#X obj 631 332 + 2;
#X obj 89 39 inlet;
#X obj 213 39 inlet;
#X obj 257 39 inlet;
#X obj 301 39 inlet;
#X obj 345 39 inlet;
#X obj 389 39 inlet;
#X obj 433 39 inlet;
#X text 659 218 index;
#X text 550 164 y value;
#X text 209 178 width and height;
#X text 69 188 number of sliders;
#X obj 709 219 nbx 4 18 -1e+37 1e+37 0 1 empty empty empty 0 -8 0 10 #191919 #ffffff #ffffff 2 256;
#X obj 118 315 expr $f1 * ($f2/$f3);
#X obj 154 369 + 2;
#X text 759 218 x offset;
#X obj 319 269 + 0;
#X obj 379 207 nbx 4 18 -1e+37 1e+37 0 1 empty empty empty 0 -8 0 10 #191919 #ffffff #ffffff 120 256;
#X text 429 208 y offset;
#X obj 379 269 nbx 4 18 -1e+37 1e+37 0 1 empty empty empty 0 -8 0 10 #191919 #ffffff #ffffff 2 256;
#X obj 89 129 t f b;
#X obj 139 419 pack f f f f;
#X msg 139 449 obj \$2 \$3 cnv 2 \$4 0 empty sl\$1 empty 20 12 0 14 #ffffff #ffffff 0, f 30;
#N canvas 0 50 450 300 color 1;
#X obj 129 9 inlet;
#X obj 129 119 rand.i 0 360;
#X msg 129 159 hsl \$1 100 50;
#X obj 319 9 inlet;
#X msg 269 129 symbol sl\$1;
#X obj 129 49 loop;
#X obj 129 79 t b f;
#X obj 129 259 s;
#X msg 129 219 color \$1;
#X obj 129 189 colors;
#X connect 0 0 5 0 empty;
#X connect 1 0 2 0 empty;
#X connect 2 0 9 0 empty;
#X connect 3 0 5 1 empty;
#X connect 4 0 7 1 empty;
#X connect 5 0 6 0 empty;
#X connect 6 0 1 0 empty;
#X connect 6 1 4 0 empty;
#X connect 8 0 7 0 empty;
#X connect 9 0 8 0 empty;
#X restore 479 89 pd color;
#X obj 379 129 * -1;
#X obj 379 169 *;
#X obj 169 39 inlet;
#N canvas 0 50 450 300 set-pos 1;
#X obj 109 59 inlet;
#X obj 219 59 inlet;
#X obj 159 219 outlet;
#X msg 159 169 pos 289.222 240;
#X msg 219 109 set pos \$1 \$2;
#X connect 0 0 3 0 empty;
#X connect 1 0 4 0 empty;
#X connect 3 0 2 0 empty;
#X connect 4 0 3 0 empty;
#X restore 579 389 pd set-pos;
#N canvas 0 50 450 300 resize-graph 1;
#X obj 89 49 inlet;
#X obj 223 49 inlet;
#X obj 129 239 outlet;
#X msg 129 189 coords 0 0 1 1 \$1 \$2 2;
#X obj 129 152 pack2;
#X obj 179 119 + 2;
#X obj 129 119 + 2;
#X connect 0 0 6 0 empty;
#X connect 1 0 5 0 empty;
#X connect 3 0 2 0 empty;
#X connect 4 0 3 0 empty;
#X connect 5 0 4 1 empty;
#X connect 6 0 4 0 empty;
#X restore 359 459 pd resize-graph;
#X obj 479 39 inlet;
#X connect 1 0 0 0 empty;
#X connect 2 0 3 0 empty;
#X connect 2 0 18 0 empty;
#X connect 3 0 4 1 empty;
#X connect 5 0 22 0 empty;
#X connect 6 0 18 1 empty;
#X connect 6 0 25 0 empty;
#X connect 7 0 48 0 empty;
#X connect 7 1 40 0 empty;
#X connect 8 0 6 0 empty;
#X connect 8 0 55 0 empty;
#X connect 8 0 40 1 empty;
#X connect 9 0 19 0 empty;
#X connect 9 0 55 1 empty;
#X connect 10 0 17 0 empty;
#X connect 11 0 12 0 empty;
#X connect 12 0 4 0 empty;
#X connect 13 0 23 0 empty;
#X connect 14 0 11 1 empty;
#X connect 14 1 11 0 empty;
#X connect 15 0 14 0 empty;
#X connect 15 0 13 0 empty;
#X connect 15 1 23 0 empty;
#X connect 16 0 15 0 empty;
#X connect 17 0 15 0 empty;
#X connect 17 1 54 0 empty;
#X connect 17 2 16 0 empty;
#X connect 17 2 2 0 empty;
#X connect 18 0 27 0 empty;
#X connect 19 0 43 0 empty;
#X connect 19 0 52 1 empty;
#X connect 20 0 54 1 empty;
#X connect 21 0 7 0 empty;
#X connect 22 0 21 0 empty;
#X connect 22 1 40 2 empty;
#X connect 22 2 6 0 empty;
#X connect 22 3 6 1 empty;
#X connect 22 4 1 0 empty;
#X connect 23 0 24 0 empty;
#X connect 24 0 4 0 empty;
#X connect 25 0 23 1 empty;
#X connect 25 0 48 3 empty;
#X connect 27 0 20 0 empty;
#X connect 28 0 47 0 empty;
#X connect 28 0 50 1 empty;
#X connect 29 0 2 0 empty;
#X connect 30 0 46 0 empty;
#X connect 31 0 39 0 empty;
#X connect 32 0 51 0 empty;
#X connect 33 0 8 0 empty;
#X connect 34 0 9 0 empty;
#X connect 39 0 27 1 empty;
#X connect 39 0 41 1 empty;
#X connect 40 0 41 0 empty;
#X connect 41 0 48 1 empty;
#X connect 43 0 20 1 empty;
#X connect 43 0 48 2 empty;
#X connect 44 0 43 1 empty;
#X connect 46 0 25 1 empty;
#X connect 47 0 5 0 empty;
#X connect 47 1 8 0 empty;
#X connect 47 1 9 0 empty;
#X connect 48 0 49 0 empty;
#X connect 49 0 0 0 empty;
#X connect 51 0 52 0 empty;
#X connect 52 0 44 0 empty;
#X connect 53 0 10 0 empty;
#X connect 54 0 4 0 empty;
#X connect 55 0 0 0 empty;
#X connect 56 0 50 0 empty;
#X restore 559 299 pd construct;
#X obj 559 119 nbx 4 18 -1e+37 1e+37 0 0 empty empty empty 0 -8 0 10 #191919 #ffffff #ffffff 0 256;
#X obj 711 269 nbx 4 18 -1e+37 1e+37 0 1 empty empty empty 0 -8 0 10 #191919 #ffffff #ffffff 240 256;
#X obj 661 269 nbx 4 18 -1e+37 1e+37 0 1 empty empty empty 0 -8 0 10 #191919 #ffffff #ffffff 470 256;
#X obj 644 244 nbx 4 18 -1e+37 1e+37 0 1 empty empty empty 0 -8 0 10 #191919 #ffffff #ffffff -1 256;
#X text 761 268 width & height;
#X text 539 118 n;
#X obj 627 219 nbx 4 18 -1e+37 1e+37 0 1 empty empty empty 0 -8 0 10 #191919 #ffffff #ffffff 2 256;
#X text 675 220 x offset;
#X obj 610 194 nbx 4 18 -1e+37 1e+37 0 1 empty empty empty 0 -8 0 10 #191919 #ffffff #ffffff 2 256;
#X text 659 194 spacing;
#X obj 593 171 nbx 4 18 -1e+37 1e+37 0 0 empty empty empty 0 -8 0 10 #191919 #ffffff #ffffff 0 256;
#X obj 576 149 nbx 4 18 -1e+37 1e+37 0 0 empty empty empty 0 -8 0 10 #191919 #ffffff #ffffff 0 256;
#X text 639 171 index;
#X text 626 148 y value;
#X text 694 243 y axis position (-1 to 1);
#X obj 739 299 bng 25 250 50 0 empty empty empty 17 7 0 10 #191919 #ffffff #ffffff;
#X connect 4 0 3 0 empty;
#X connect 5 0 3 7 empty;
#X connect 6 0 3 6 empty;
#X connect 7 0 3 5 empty;
#X connect 10 0 3 4 empty;
#X connect 12 0 3 3 empty;
#X connect 14 0 3 2 empty;
#X connect 15 0 3 1 empty;
#X connect 19 0 3 8 empty;
