#N canvas 827 239 527 327 12;
#X obj 39 9 pad 470 240 255 255 255;
#N canvas 0 50 450 250 (subpatch) 0;
#X array arr1 60 float 2;
#X coords 0 1 60 -1 182 122 1;
#X restore 349 279 graph;
#X obj 39 259 route click;
#X obj 249 439 s arr1;
#X msg 249 399 resize \$1;
#X obj 69 549 tabwrite arr1;
#X obj -31 -21 pack2;
#X msg 39 -21 dim \$1 \$2;
#X obj -31 -67 nbx 4 18 -1e+37 1e+37 0 1 empty empty empty 0 -8 0 10 #191919 #ffffff #ffffff 470 256;
#X obj -7 -44 nbx 4 18 -1e+37 1e+37 0 1 empty empty empty 0 -8 0 10 #191919 #ffffff #ffffff 240 256;
#X obj 169 369 /;
#X obj 88 289 unpack;
#X obj 169 419 *;
#X obj 249 299 nbx 4 18 -1e+37 1e+37 0 1 empty empty empty 0 -8 0 10 #191919 #ffffff #ffffff 60 256;
#X obj -21 449 /;
#X obj 19 409 f;
#X obj 19 369 t b f;
#X obj 19 339 spigot;
#X obj -21 479 - 0.5;
#X obj -21 509 * 2;
#X connect 0 0 2 0 empty;
#X connect 2 0 17 1 empty;
#X connect 2 1 11 0 empty;
#X connect 4 0 3 0 empty;
#X connect 6 0 7 0 empty;
#X connect 7 0 0 0 empty;
#X connect 8 0 6 0 empty;
#X connect 8 0 10 1 empty;
#X connect 9 0 6 1 empty;
#X connect 9 0 14 1 empty;
#X connect 10 0 12 0 empty;
#X connect 11 0 10 0 empty;
#X connect 11 1 17 0 empty;
#X connect 12 0 5 1 empty;
#X connect 13 0 12 1 empty;
#X connect 13 0 4 0 empty;
#X connect 14 0 18 0 empty;
#X connect 15 0 14 0 empty;
#X connect 16 0 15 0 empty;
#X connect 16 1 15 1 empty;
#X connect 17 0 16 0 empty;
#X connect 18 0 19 0 empty;
#X connect 19 0 5 0 empty;
