#N canvas 827 239 527 327 12;
#N canvas 0 50 450 250 (subpatch) 0;
#X array arr1 32 float 2;
#X coords 0 1 32 -1 472 242 1;
#X restore 19 19 graph;
#X obj 529 409 tabread array1;
#X obj 529 379 nbx 4 18 -1e+37 1e+37 0 0 empty empty empty 0 -8 0 10 #191919 #ffffff #ffffff 0 256;
#X obj 529 439 nbx 15 31 -1e+37 1e+37 0 0 empty empty empty 0 -8 0 10 #191919 #ffffff #ffffff 0 256;
#X obj 529 339 bng 25 250 50 0 empty empty empty 17 7 0 10 #191919 #ffffff #ffffff;
#X msg 529 239 vis_size \$1 \$2;
#X obj 529 209 pack;
#X obj 529 129 nbx 4 18 -1e+37 1e+37 0 0 empty empty empty 0 -8 0 10 #191919 #ffffff #ffffff 0 256;
#X obj 579 129 nbx 4 18 -1e+37 1e+37 0 0 empty empty empty 0 -8 0 10 #191919 #ffffff #ffffff 0 256;
#X obj 559 159 t b f;
#N canvas 0 50 450 300 sliders 1;
#X obj 550 198 pack;
#X obj 550 118 nbx 4 18 -1e+37 1e+37 0 1 empty empty empty 0 -8 0 10 #191919 #ffffff #ffffff 470 256;
#X obj 600 118 nbx 4 18 -1e+37 1e+37 0 1 empty empty empty 0 -8 0 10 #191919 #ffffff #ffffff 240 256;
#X obj 580 148 t b f;
#X obj 470 240 bng 25 250 50 0 empty empty empty 17 7 0 10 #191919 #ffffff #ffffff;
#X msg 558 245 pos \$1 \$2;
#X obj 3 0 cnv 15 8 240 empty hi0 empty 20 12 0 14 #ff0039 #ffffff 0;
#X obj 17 0 cnv 15 8 240 empty hi1 empty 20 12 0 14 #ff0039 #ffffff 0;
#X obj 32 0 cnv 15 8 240 empty hi2 empty 20 12 0 14 #ff0039 #ffffff 0;
#X obj 47 0 cnv 15 8 240 empty hi3 empty 20 12 0 14 #ff0039 #ffffff 0;
#X obj 62 0 cnv 15 8 202 empty hi4 empty 20 12 0 14 #ff0039 #ffffff 0;
#X obj 77 0 cnv 15 8 240 empty hi5 empty 20 12 0 14 #ff0039 #ffffff 0;
#X obj 91 0 cnv 15 8 240 empty hi6 empty 20 12 0 14 #ff0039 #ffffff 0;
#X obj 106 0 cnv 15 8 240 empty hi7 empty 20 12 0 14 #ff0039 #ffffff 0;
#X obj 121 0 cnv 15 8 240 empty hi8 empty 20 12 0 14 #ff0039 #ffffff 0;
#X obj 136 0 cnv 15 8 240 empty hi9 empty 20 12 0 14 #ff0039 #ffffff 0;
#X obj 151 0 cnv 15 8 240 empty hi10 empty 20 12 0 14 #ff0039 #ffffff 0;
#X obj 165 0 cnv 15 8 240 empty hi11 empty 20 12 0 14 #ff0039 #ffffff 0;
#X obj 180 0 cnv 15 8 240 empty hi12 empty 20 12 0 14 #ff0039 #ffffff 0;
#X obj 195 0 cnv 15 8 240 empty hi13 empty 20 12 0 14 #ff0039 #ffffff 0;
#X obj 210 0 cnv 15 8 240 empty hi14 empty 20 12 0 14 #ff0039 #ffffff 0;
#X obj 225 0 cnv 15 8 240 empty hi15 empty 20 12 0 14 #ff0039 #ffffff 0;
#X obj 239 0 cnv 15 8 240 empty hi16 empty 20 12 0 14 #ff0039 #ffffff 0;
#X obj 254 0 cnv 15 8 240 empty hi17 empty 20 12 0 14 #ff0039 #ffffff 0;
#X obj 269 0 cnv 15 8 240 empty hi18 empty 20 12 0 14 #ff0039 #ffffff 0;
#X obj 284 0 cnv 15 8 240 empty hi19 empty 20 12 0 14 #ff0039 #ffffff 0;
#X obj 299 0 cnv 15 8 240 empty hi20 empty 20 12 0 14 #ff0039 #ffffff 0;
#X obj 313 0 cnv 15 8 240 empty hi21 empty 20 12 0 14 #ff0039 #ffffff 0;
#X obj 328 0 cnv 15 8 240 empty hi22 empty 20 12 0 14 #ff0039 #ffffff 0;
#X obj 343 0 cnv 15 8 240 empty hi23 empty 20 12 0 14 #ff0039 #ffffff 0;
#X obj 358 0 cnv 15 8 240 empty hi24 empty 20 12 0 14 #ff0039 #ffffff 0;
#X obj 373 0 cnv 15 8 240 empty hi25 empty 20 12 0 14 #ff0039 #ffffff 0;
#X obj 387 0 cnv 15 8 240 empty hi26 empty 20 12 0 14 #ff0039 #ffffff 0;
#X obj 402 0 cnv 15 8 240 empty hi27 empty 20 12 0 14 #ff0039 #ffffff 0;
#X obj 417 0 cnv 15 8 240 empty hi28 empty 20 12 0 14 #ff0039 #ffffff 0;
#X obj 432 0 cnv 15 8 240 empty hi29 empty 20 12 0 14 #ff0039 #ffffff 0;
#X obj 447 0 cnv 15 8 240 empty hi30 empty 20 12 0 14 #ff0039 #ffffff 0;
#X obj 461 0 cnv 15 8 240 empty hi31 empty 20 12 0 14 #ff0039 #ffffff 0;
#X connect 0 0 5 0 empty;
#X connect 1 0 0 0 empty;
#X connect 2 0 3 0 empty;
#X connect 3 0 0 0 empty;
#X connect 3 1 0 1 empty;
#X connect 5 0 4 0 empty;
#X coords 0 0 1 1 471 241 2 0 0;
#X restore 19 19 pd sliders;
#X obj 19 506 s pd-sliders;
#X obj 19 336 loop 32;
#X obj 19 299 bng 25 250 50 0 empty empty empty 17 7 0 10 #191919 #ffffff #ffffff;
#X obj 19 426 pack;
#X obj 19 366 t f f;
#X obj 529 279 s hi4;
#X msg 19 456 obj \$1 0 cnv 15 8 240 empty hi\$2 empty 20 12 0 14 #ff0039 #ffffff 0, f 33;
#X obj 19 396 expr $f1 * (470/32 + .8) + 3;
#X connect 1 0 3 0 empty;
#X connect 2 0 1 0 empty;
#X connect 4 0 2 0 empty;
#X connect 5 0 16 0 empty;
#X connect 6 0 5 0 empty;
#X connect 7 0 6 0 empty;
#X connect 8 0 9 0 empty;
#X connect 9 0 6 0 empty;
#X connect 9 1 6 1 empty;
#X connect 12 0 15 0 empty;
#X connect 13 0 12 0 empty;
#X connect 14 0 17 0 empty;
#X connect 15 0 18 0 empty;
#X connect 15 1 14 1 empty;
#X connect 17 0 11 0 empty;
#X connect 18 0 14 0 empty;
