#N canvas 827 239 760 420 12;
#X obj 9 9 cnv 15 471 241 empty empty empty 20 12 0 14 #191919 #ffffff 0;
#N canvas 0 50 450 250 (subpatch) 0;
#X array arr1 32 float 2;
#X coords 0 1 32 -1 142 82 1;
#X restore 509 19 graph;
#N canvas 0 50 450 300 sliders 1;
#X obj 2 63 cnv 2 12 105 empty sl0 empty 20 12 0 14 #00f2ff #ffffff 0;
#X obj 16 168 cnv 2 12 1 empty sl1 empty 20 12 0 14 #ff7300 #ffffff 0;
#X obj 31 144 cnv 2 12 24 empty sl2 empty 20 12 0 14 #7fff00 #ffffff 0;
#X obj 46 50 cnv 2 12 118 empty sl3 empty 20 12 0 14 #ff00e6 #ffffff 0;
#X obj 60 168 cnv 2 12 1 empty sl4 empty 20 12 0 14 #fff200 #ffffff 0;
#X obj 75 168 cnv 2 12 1 empty sl5 empty 20 12 0 14 #004dff #ffffff 0;
#X obj 90 168 cnv 2 12 1 empty sl6 empty 20 12 0 14 #ccff00 #ffffff 0;
#X obj 104 168 cnv 2 12 1 empty sl7 empty 20 12 0 14 #d0ff00 #ffffff 0;
#X obj 119 168 cnv 2 12 1 empty sl8 empty 20 12 0 14 #ff00d5 #ffffff 0;
#X obj 134 168 cnv 2 12 1 empty sl9 empty 20 12 0 14 #0084ff #ffffff 0;
#X obj 148 168 cnv 2 12 1 empty sl10 empty 20 12 0 14 #6fff00 #ffffff 0;
#X obj 163 168 cnv 2 12 1 empty sl11 empty 20 12 0 14 #b3ff00 #ffffff 0;
#X obj 178 168 cnv 2 12 1 empty sl12 empty 20 12 0 14 #00ff3b #ffffff 0;
#X obj 192 168 cnv 2 12 25 empty sl13 empty 20 12 0 14 #4dff00 #ffffff 0;
#X obj 207 168 cnv 2 12 1 empty sl14 empty 20 12 0 14 #004dff #ffffff 0;
#X obj 222 168 cnv 2 12 1 empty sl15 empty 20 12 0 14 #15ff00 #ffffff 0;
#X obj 237 168 cnv 2 12 1 empty sl16 empty 20 12 0 14 #00f7ff #ffffff 0;
#X obj 251 168 cnv 2 12 1 empty sl17 empty 20 12 0 14 #62ff00 #ffffff 0;
#X obj 266 168 cnv 2 12 1 empty sl18 empty 20 12 0 14 #c8ff00 #ffffff 0;
#X obj 281 168 cnv 2 12 1 empty sl19 empty 20 12 0 14 #ff4400 #ffffff 0;
#X obj 295 168 cnv 2 12 1 empty sl20 empty 20 12 0 14 #ff1500 #ffffff 0;
#X obj 310 168 cnv 2 12 1 empty sl21 empty 20 12 0 14 #eaff00 #ffffff 0;
#X obj 325 168 cnv 2 12 1 empty sl22 empty 20 12 0 14 #a2ff00 #ffffff 0;
#X obj 339 168 cnv 2 12 1 empty sl23 empty 20 12 0 14 #51ff00 #ffffff 0;
#X obj 354 168 cnv 2 12 1 empty sl24 empty 20 12 0 14 #00d9ff #ffffff 0;
#X obj 369 168 cnv 2 12 1 empty sl25 empty 20 12 0 14 #8c00ff #ffffff 0;
#X obj 383 168 cnv 2 12 1 empty sl26 empty 20 12 0 14 #4800ff #ffffff 0;
#X obj 398 168 cnv 2 12 1 empty sl27 empty 20 12 0 14 #00ff6e #ffffff 0;
#X obj 413 168 cnv 2 12 1 empty sl28 empty 20 12 0 14 #04ff00 #ffffff 0;
#X obj 427 168 cnv 2 12 1 empty sl29 empty 20 12 0 14 #ffe100 #ffffff 0;
#X obj 442 168 cnv 2 12 1 empty sl30 empty 20 12 0 14 #00c8ff #ffffff 0;
#X obj 457 168 cnv 2 12 1 empty sl31 empty 20 12 0 14 #f2ff00 #ffffff 0;
#X coords 0 0 1 1 472 242 2 0 0;
#X restore 9 9 pd sliders;
#N canvas 0 50 500 530 construct 1;
#X obj 119 489 s pd-sliders;
#X msg 59 449 clear;
#X obj 69 199 nbx 4 18 -1e+37 1e+37 0 0 empty empty empty 0 -8 0 10 #191919 #ffffff #ffffff 0 256;
#X obj 229 279 /;
#X obj 69 273 t f f b;
#X obj 149 129 nbx 4 18 -1e+37 1e+37 0 0 empty empty empty 0 -8 0 10 #191919 #ffffff #ffffff 0 256;
#X obj 199 129 nbx 4 18 -1e+37 1e+37 0 0 empty empty empty 0 -8 0 10 #191919 #ffffff #ffffff 0 256;
#X obj 279 179 / 2;
#X obj 69 249 loop;
#X obj 69 223 t f f b f b;
#X text 309 348 spacing;
#X obj 69 29 inlet;
#X obj 193 29 inlet;
#X obj 237 29 inlet;
#X obj 281 29 inlet;
#X obj 325 29 inlet;
#X obj 389 29 inlet;
#X obj 433 29 inlet;
#X text 389 8 width and height;
#X text 9 168 number of sliders;
#X obj 369 139 nbx 4 18 -1e+37 1e+37 0 0 empty empty empty 0 -8 0 10 #191919 #ffffff #ffffff 0 256;
#X obj 98 305 expr $f1 * ($f2/$f3);
#X text 419 138 x offset;
#X obj 299 279 + 0;
#X obj 319 247 nbx 4 18 -1e+37 1e+37 0 0 empty empty empty 0 -8 0 10 #191919 #ffffff #ffffff 0 256;
#X text 369 248 y offset;
#X obj 259 349 nbx 4 18 -1e+37 1e+37 0 0 empty empty empty 0 -8 0 10 #191919 #ffffff #ffffff 0 256;
#X obj 69 69 t f b;
#X obj 119 409 pack f f f f;
#X msg 119 439 obj \$2 \$3 cnv 2 \$4 0 empty sl\$1 empty 20 12 0 14 #ffffff #ffffff 0, f 30;
#X obj 319 169 * -1;
#X obj 319 209 *;
#X obj 149 29 inlet;
#X obj 239 379 -;
#X obj 134 359 +;
#N canvas 0 50 470 440 move-slider 1;
#X obj 19 29 inlet;
#X obj 89 29 inlet;
#X obj 169 29 inlet;
#X obj 249 29 inlet;
#X obj 319 29 inlet;
#X obj 389 29 inlet;
#X obj 339 149 nbx 4 18 -1e+37 1e+37 0 0 empty empty empty 0 -8 0 10 #191919 #ffffff #ffffff 0 256;
#X msg 339 349 symbol sl\$1;
#X obj 9 399 s;
#X obj 9 259 -;
#X msg 9 289 delta 0 \$1;
#X obj 80 224 * -1;
#X obj 9 229 t f f;
#X obj 80 187 moses 1;
#X msg 109 154 0;
#X obj 80 114 t f b b;
#X obj 289 209 *;
#X obj 239 309 pack;
#X obj 80 319 pack;
#X msg 80 349 vis_size \$2 \$1;
#X text 89 8 index;
#X text 9 8 y value;
#N canvas 0 50 450 300 set-pos 1;
#X obj 109 59 inlet;
#X obj 219 59 inlet;
#X obj 159 219 outlet;
#X msg 159 169 pos 192.938 168;
#X msg 219 109 set pos \$1 \$2;
#X connect 0 0 3 0 empty;
#X connect 1 0 4 0 empty;
#X connect 3 0 2 0 empty;
#X connect 4 0 3 0 empty;
#X restore 187 349 pd set-pos;
#X obj 239 259 +;
#X obj 80 82 * -1;
#X text 389 8 spacing;
#X text 309 8 y offset;
#X text 239 8 x offset;
#X text 149 8 slider width;
#X connect 0 0 24 0 empty;
#X connect 1 0 6 0 empty;
#X connect 2 0 16 1 empty;
#X connect 3 0 23 1 empty;
#X connect 4 0 17 1 empty;
#X connect 5 0 18 1 empty;
#X connect 6 0 7 0 empty;
#X connect 6 0 16 0 empty;
#X connect 7 0 8 1 empty;
#X connect 9 0 10 0 empty;
#X connect 10 0 8 0 empty;
#X connect 11 0 18 0 empty;
#X connect 12 0 9 1 empty;
#X connect 12 1 9 0 empty;
#X connect 13 0 12 0 empty;
#X connect 13 0 11 0 empty;
#X connect 13 1 18 0 empty;
#X connect 14 0 13 0 empty;
#X connect 15 0 13 0 empty;
#X connect 15 1 22 0 empty;
#X connect 15 2 14 0 empty;
#X connect 15 2 6 0 empty;
#X connect 16 0 23 0 empty;
#X connect 17 0 22 1 empty;
#X connect 18 0 19 0 empty;
#X connect 19 0 8 0 empty;
#X connect 22 0 8 0 empty;
#X connect 23 0 17 0 empty;
#X connect 24 0 15 0 empty;
#X restore 359 439 pd move-slider;
#N canvas 0 50 450 300 resize 1;
#X obj 89 49 inlet;
#X obj 223 49 inlet;
#X msg 129 189 coords 0 0 1 1 \$1 \$2 2;
#X obj 129 152 pack2;
#X obj 179 119 + 2;
#X obj 129 119 + 2;
#X obj 129 219 s pd-sliders;
#X connect 0 0 5 0 empty;
#X connect 1 0 4 0 empty;
#X connect 2 0 6 0 empty;
#X connect 3 0 2 0 empty;
#X connect 4 0 3 1 empty;
#X connect 5 0 3 0 empty;
#X restore 389 79 pd resize;
#X connect 1 0 0 0 empty;
#X connect 2 0 9 0 empty;
#X connect 3 0 33 0 empty;
#X connect 3 0 35 2 empty;
#X connect 4 0 28 0 empty;
#X connect 4 1 21 0 empty;
#X connect 5 0 3 0 empty;
#X connect 5 0 21 1 empty;
#X connect 6 0 7 0 empty;
#X connect 7 0 23 0 empty;
#X connect 7 0 31 1 empty;
#X connect 8 0 4 0 empty;
#X connect 9 0 8 0 empty;
#X connect 9 1 21 2 empty;
#X connect 9 2 3 0 empty;
#X connect 9 3 3 1 empty;
#X connect 9 4 1 0 empty;
#X connect 11 0 27 0 empty;
#X connect 12 0 35 1 empty;
#X connect 13 0 26 0 empty;
#X connect 14 0 20 0 empty;
#X connect 15 0 30 0 empty;
#X connect 16 0 5 0 empty;
#X connect 16 0 36 0 empty;
#X connect 17 0 6 0 empty;
#X connect 17 0 36 1 empty;
#X connect 20 0 34 1 empty;
#X connect 20 0 35 3 empty;
#X connect 21 0 34 0 empty;
#X connect 23 0 28 2 empty;
#X connect 23 0 35 4 empty;
#X connect 24 0 23 1 empty;
#X connect 26 0 33 1 empty;
#X connect 27 0 2 0 empty;
#X connect 27 1 5 0 empty;
#X connect 27 1 6 0 empty;
#X connect 28 0 29 0 empty;
#X connect 29 0 0 0 empty;
#X connect 30 0 31 0 empty;
#X connect 31 0 24 0 empty;
#X connect 32 0 35 0 empty;
#X connect 33 0 28 3 empty;
#X connect 33 0 35 5 empty;
#X connect 34 0 28 1 empty;
#X restore 509 349 pd construct;
#X obj 509 169 nbx 4 18 1 1e+37 0 0 empty empty empty 0 -8 0 10 #191919 #ffffff #ffffff 0 256;
#X obj 661 319 nbx 4 18 0 1e+37 0 1 empty empty empty 0 -8 0 10 #191919 #ffffff #ffffff 240 256;
#X obj 611 319 nbx 4 18 0 1e+37 0 1 empty empty empty 0 -8 0 10 #191919 #ffffff #ffffff 470 256;
#X obj 594 294 nbx 4 18 -1e+37 1e+37 0 1 empty empty empty 0 -8 0 10 #191919 #ffffff #ffffff -0.4 256;
#X text 659 348 width & height;
#X text 555 169 n;
#X obj 577 269 nbx 4 18 0 1e+37 0 1 empty empty empty 0 -8 0 10 #191919 #ffffff #ffffff 2 256;
#X text 622 268 x offset;
#X obj 560 244 nbx 4 18 0 1e+37 0 1 empty empty empty 0 -8 0 10 #191919 #ffffff #ffffff 2 256;
#X text 606 244 spacing;
#X obj 543 221 nbx 4 18 0 1e+37 0 0 empty empty empty 0 -8 0 10 #191919 #ffffff #ffffff 0 256;
#X obj 526 199 nbx 4 18 -1e+37 1e+37 0 0 empty empty empty 0 -8 0 10 #191919 #ffffff #ffffff 0 256;
#X text 589 220 index;
#X text 571 197 y value;
#X obj 439 319 bng 25 250 50 0 empty empty empty 17 7 0 10 #191919 #ffffff #ffffff;
#N canvas 0 50 450 300 color 1;
#X obj 129 9 inlet;
#X obj 129 119 rand.i 0 360;
#X msg 129 159 hsl \$1 100 50;
#X obj 319 9 inlet;
#X msg 269 129 symbol sl\$1;
#X obj 129 49 loop;
#X obj 129 79 t b f;
#X obj 129 259 s;
#X msg 129 219 color \$1;
#X obj 129 189 colors;
#X connect 0 0 5 0 empty;
#X connect 1 0 2 0 empty;
#X connect 2 0 9 0 empty;
#X connect 3 0 5 1 empty;
#X connect 4 0 7 1 empty;
#X connect 5 0 6 0 empty;
#X connect 6 0 1 0 empty;
#X connect 6 1 4 0 empty;
#X connect 8 0 7 0 empty;
#X connect 9 0 8 0 empty;
#X restore 439 349 pd color;
#X text 641 292 y axis (-1 to 1);
#X connect 4 0 3 0 empty;
#X connect 4 0 19 1 empty;
#X connect 5 0 3 7 empty;
#X connect 6 0 3 6 empty;
#X connect 7 0 3 5 empty;
#X connect 10 0 3 4 empty;
#X connect 12 0 3 3 empty;
#X connect 14 0 3 2 empty;
#X connect 15 0 3 1 empty;
#X connect 18 0 19 0 empty;
