#N canvas 827 239 760 420 12;
#X obj 9 9 cnv 15 471 241 empty empty empty 20 12 0 14 #191919 #ffffff 0;
#N canvas 0 50 450 250 (subpatch) 0;
#X array arr1 32 float 2;
#X coords 0 1 32 -1 142 82 1;
#X restore 509 19 graph;
#N canvas 0 50 450 300 sliders 1;
#X obj 2 32 cnv 2 2 88 empty sl0 empty 20 12 0 14 #0066ff #ffffff 0;
#X obj 6 120 cnv 2 2 1 empty sl1 empty 20 12 0 14 #00aaff #ffffff 0;
#X obj 11 120 cnv 2 2 1 empty sl2 empty 20 12 0 14 #6600ff #ffffff 0;
#X obj 15 120 cnv 2 2 1 empty sl3 empty 20 12 0 14 #8c00ff #ffffff 0;
#X obj 20 70 cnv 2 2 50 empty sl4 empty 20 12 0 14 #4dff00 #ffffff 0;
#X obj 24 120 cnv 2 2 1 empty sl5 empty 20 12 0 14 #00ff51 #ffffff 0;
#X obj 29 120 cnv 2 2 1 empty sl6 empty 20 12 0 14 #00ffcc #ffffff 0;
#X obj 33 120 cnv 2 2 1 empty sl7 empty 20 12 0 14 #ff0073 #ffffff 0;
#X obj 38 120 cnv 2 2 1 empty sl8 empty 20 12 0 14 #ff001e #ffffff 0;
#X obj 42 120 cnv 2 2 1 empty sl9 empty 20 12 0 14 #00b7ff #ffffff 0;
#X obj 47 120 cnv 2 2 1 empty sl10 empty 20 12 0 14 #ffea00 #ffffff 0;
#X obj 51 120 cnv 2 2 1 empty sl11 empty 20 12 0 14 #00ff55 #ffffff 0;
#X obj 56 120 cnv 2 2 1 empty sl12 empty 20 12 0 14 #00fbff #ffffff 0;
#X obj 60 120 cnv 2 2 1 empty sl13 empty 20 12 0 14 #ff1a00 #ffffff 0;
#X obj 65 120 cnv 2 2 1 empty sl14 empty 20 12 0 14 #f200ff #ffffff 0;
#X obj 69 120 cnv 2 2 1 empty sl15 empty 20 12 0 14 #dd00ff #ffffff 0;
#X obj 74 120 cnv 2 2 1 empty sl16 empty 20 12 0 14 #00ffae #ffffff 0;
#X obj 78 120 cnv 2 2 1 empty sl17 empty 20 12 0 14 #0099ff #ffffff 0;
#X obj 83 120 cnv 2 2 1 empty sl18 empty 20 12 0 14 #008cff #ffffff 0;
#X obj 87 120 cnv 2 2 1 empty sl19 empty 20 12 0 14 #001eff #ffffff 0;
#X obj 92 120 cnv 2 2 1 empty sl20 empty 20 12 0 14 #001eff #ffffff 0;
#X obj 96 120 cnv 2 2 1 empty sl21 empty 20 12 0 14 #00ffc3 #ffffff 0;
#X obj 101 120 cnv 2 2 1 empty sl22 empty 20 12 0 14 #ff00d0 #ffffff 0;
#X obj 105 120 cnv 2 2 1 empty sl23 empty 20 12 0 14 #ff4400 #ffffff 0;
#X obj 110 120 cnv 2 2 1 empty sl24 empty 20 12 0 14 #00ff55 #ffffff 0;
#X obj 114 120 cnv 2 2 1 empty sl25 empty 20 12 0 14 #44ff00 #ffffff 0;
#X obj 119 120 cnv 2 2 1 empty sl26 empty 20 12 0 14 #ff0059 #ffffff 0;
#X obj 124 120 cnv 2 2 1 empty sl27 empty 20 12 0 14 #5d00ff #ffffff 0;
#X obj 128 120 cnv 2 2 1 empty sl28 empty 20 12 0 14 #00ffea #ffffff 0;
#X obj 133 120 cnv 2 2 1 empty sl29 empty 20 12 0 14 #ff0099 #ffffff 0;
#X obj 137 120 cnv 2 2 1 empty sl30 empty 20 12 0 14 #ff8000 #ffffff 0;
#X obj 142 120 cnv 2 2 1 empty sl31 empty 20 12 0 14 #c8ff00 #ffffff 0;
#X obj 146 120 cnv 2 2 1 empty sl32 empty 20 12 0 14 #ff00fb #ffffff 0;
#X obj 151 120 cnv 2 2 1 empty sl33 empty 20 12 0 14 #00ffd9 #ffffff 0;
#X obj 155 120 cnv 2 2 1 empty sl34 empty 20 12 0 14 #0091ff #ffffff 0;
#X obj 160 120 cnv 2 2 1 empty sl35 empty 20 12 0 14 #ff005e #ffffff 0;
#X obj 164 120 cnv 2 2 1 empty sl36 empty 20 12 0 14 #9500ff #ffffff 0;
#X obj 169 120 cnv 2 2 1 empty sl37 empty 20 12 0 14 #fff700 #ffffff 0;
#X obj 173 120 cnv 2 2 1 empty sl38 empty 20 12 0 14 #0037ff #ffffff 0;
#X obj 178 120 cnv 2 2 1 empty sl39 empty 20 12 0 14 #ff6a00 #ffffff 0;
#X obj 182 120 cnv 2 2 1 empty sl40 empty 20 12 0 14 #ddff00 #ffffff 0;
#X obj 187 120 cnv 2 2 1 empty sl41 empty 20 12 0 14 #000dff #ffffff 0;
#X obj 191 120 cnv 2 2 1 empty sl42 empty 20 12 0 14 #006aff #ffffff 0;
#X obj 196 120 cnv 2 2 1 empty sl43 empty 20 12 0 14 #cc00ff #ffffff 0;
#X obj 200 120 cnv 2 2 1 empty sl44 empty 20 12 0 14 #00ffc3 #ffffff 0;
#X obj 205 120 cnv 2 2 1 empty sl45 empty 20 12 0 14 #fbff00 #ffffff 0;
#X obj 209 120 cnv 2 2 1 empty sl46 empty 20 12 0 14 #0011ff #ffffff 0;
#X obj 214 120 cnv 2 2 1 empty sl47 empty 20 12 0 14 #001eff #ffffff 0;
#X obj 218 120 cnv 2 2 45 empty sl48 empty 20 12 0 14 #fb00ff #ffffff 0;
#X obj 223 120 cnv 2 2 1 empty sl49 empty 20 12 0 14 #84ff00 #ffffff 0;
#X obj 227 120 cnv 2 2 1 empty sl50 empty 20 12 0 14 #ff9d00 #ffffff 0;
#X obj 232 120 cnv 2 2 1 empty sl51 empty 20 12 0 14 #6f00ff #ffffff 0;
#X obj 237 120 cnv 2 2 1 empty sl52 empty 20 12 0 14 #5500ff #ffffff 0;
#X obj 241 120 cnv 2 2 100 empty sl53 empty 20 12 0 14 #ff00f7 #ffffff 0;
#X obj 246 120 cnv 2 2 1 empty sl54 empty 20 12 0 14 #e1ff00 #ffffff 0;
#X obj 250 120 cnv 2 2 1 empty sl55 empty 20 12 0 14 #1eff00 #ffffff 0;
#X obj 255 120 cnv 2 2 1 empty sl56 empty 20 12 0 14 #4000ff #ffffff 0;
#X obj 259 120 cnv 2 2 1 empty sl57 empty 20 12 0 14 #00e6ff #ffffff 0;
#X obj 264 120 cnv 2 2 1 empty sl58 empty 20 12 0 14 #ff0095 #ffffff 0;
#X obj 268 120 cnv 2 2 1 empty sl59 empty 20 12 0 14 #0048ff #ffffff 0;
#X obj 273 120 cnv 2 2 1 empty sl60 empty 20 12 0 14 #00ffdd #ffffff 0;
#X obj 277 120 cnv 2 2 1 empty sl61 empty 20 12 0 14 #00ff0d #ffffff 0;
#X obj 282 120 cnv 2 2 1 empty sl62 empty 20 12 0 14 #8000ff #ffffff 0;
#X obj 286 120 cnv 2 2 1 empty sl63 empty 20 12 0 14 #ff00b7 #ffffff 0;
#X obj 291 120 cnv 2 2 1 empty sl64 empty 20 12 0 14 #ff9d00 #ffffff 0;
#X obj 295 120 cnv 2 2 1 empty sl65 empty 20 12 0 14 #a6ff00 #ffffff 0;
#X obj 300 120 cnv 2 2 1 empty sl66 empty 20 12 0 14 #ff0037 #ffffff 0;
#X obj 304 120 cnv 2 2 1 empty sl67 empty 20 12 0 14 #9500ff #ffffff 0;
#X obj 309 120 cnv 2 2 1 empty sl68 empty 20 12 0 14 #4400ff #ffffff 0;
#X obj 313 120 cnv 2 2 1 empty sl69 empty 20 12 0 14 #f7ff00 #ffffff 0;
#X obj 318 120 cnv 2 2 1 empty sl70 empty 20 12 0 14 #04ff00 #ffffff 0;
#X obj 322 120 cnv 2 2 1 empty sl71 empty 20 12 0 14 #ff5100 #ffffff 0;
#X obj 327 120 cnv 2 2 1 empty sl72 empty 20 12 0 14 #9dff00 #ffffff 0;
#X obj 331 120 cnv 2 2 1 empty sl73 empty 20 12 0 14 #2b00ff #ffffff 0;
#X obj 336 120 cnv 2 2 1 empty sl74 empty 20 12 0 14 #9d00ff #ffffff 0;
#X obj 340 120 cnv 2 2 1 empty sl75 empty 20 12 0 14 #ff8000 #ffffff 0;
#X obj 345 120 cnv 2 2 1 empty sl76 empty 20 12 0 14 #00ffa6 #ffffff 0;
#X obj 349 120 cnv 2 2 1 empty sl77 empty 20 12 0 14 #00ff99 #ffffff 0;
#X obj 354 120 cnv 2 2 1 empty sl78 empty 20 12 0 14 #00ddff #ffffff 0;
#X obj 359 120 cnv 2 2 1 empty sl79 empty 20 12 0 14 #ff005e #ffffff 0;
#X obj 363 120 cnv 2 2 1 empty sl80 empty 20 12 0 14 #0000ff #ffffff 0;
#X obj 368 120 cnv 2 2 1 empty sl81 empty 20 12 0 14 #1aff00 #ffffff 0;
#X obj 372 120 cnv 2 2 1 empty sl82 empty 20 12 0 14 #00a2ff #ffffff 0;
#X obj 377 120 cnv 2 2 1 empty sl83 empty 20 12 0 14 #ff00d5 #ffffff 0;
#X obj 381 120 cnv 2 2 1 empty sl84 empty 20 12 0 14 #8400ff #ffffff 0;
#X obj 386 120 cnv 2 2 1 empty sl85 empty 20 12 0 14 #00ff73 #ffffff 0;
#X obj 390 120 cnv 2 2 1 empty sl86 empty 20 12 0 14 #ff00a6 #ffffff 0;
#X obj 395 120 cnv 2 2 1 empty sl87 empty 20 12 0 14 #ff00d0 #ffffff 0;
#X obj 399 120 cnv 2 2 1 empty sl88 empty 20 12 0 14 #ff00d9 #ffffff 0;
#X obj 404 120 cnv 2 2 1 empty sl89 empty 20 12 0 14 #00ff26 #ffffff 0;
#X obj 408 120 cnv 2 2 1 empty sl90 empty 20 12 0 14 #00ffc8 #ffffff 0;
#X obj 413 120 cnv 2 2 1 empty sl91 empty 20 12 0 14 #00eaff #ffffff 0;
#X obj 417 120 cnv 2 2 1 empty sl92 empty 20 12 0 14 #ffa600 #ffffff 0;
#X obj 422 98 cnv 2 2 22 empty sl93 empty 20 12 0 14 #ff3700 #ffffff 0;
#X obj 426 120 cnv 2 2 1 empty sl94 empty 20 12 0 14 #ff1100 #ffffff 0;
#X obj 431 120 cnv 2 2 1 empty sl95 empty 20 12 0 14 #ff7700 #ffffff 0;
#X obj 435 120 cnv 2 2 1 empty sl96 empty 20 12 0 14 #3300ff #ffffff 0;
#X obj 440 120 cnv 2 2 1 empty sl97 empty 20 12 0 14 #e6ff00 #ffffff 0;
#X obj 444 120 cnv 2 2 1 empty sl98 empty 20 12 0 14 #ffbb00 #ffffff 0;
#X obj 449 120 cnv 2 2 1 empty sl99 empty 20 12 0 14 #00ff0d #ffffff 0;
#X obj 453 62 cnv 2 2 58 empty sl100 empty 20 12 0 14 #ffc400 #ffffff 0;
#X obj 458 120 cnv 2 2 1 empty sl101 empty 20 12 0 14 #009dff #ffffff 0;
#X obj 462 120 cnv 2 2 1 empty sl102 empty 20 12 0 14 #8cff00 #ffffff 0;
#X obj 467 120 cnv 2 2 1 empty sl103 empty 20 12 0 14 #00ffa6 #ffffff 0;
#X coords 0 0 1 1 472 242 2 0 0;
#X restore 9 9 pd sliders;
#N canvas 0 50 500 460 construct 1;
#X obj 59 429 s pd-sliders;
#X msg 9 349 clear;
#X obj 59 189 loop;
#X text 206 8 spacing;
#X obj 59 29 inlet;
#X obj 163 29 inlet;
#X obj 214 29 inlet;
#X obj 278 29 inlet;
#X obj 332 29 inlet;
#X obj 396 29 inlet;
#X obj 450 29 inlet;
#X obj 73 269 expr $f1 * ($f2/$f3);
#X text 266 8 x offset;
#X text 326 8 y offset;
#X obj 59 349 pack f f f f;
#X msg 59 379 obj \$2 \$3 cnv 2 \$4 0 empty sl\$1 empty 20 12 0 14 #ffffff #ffffff 0, f 30;
#X obj 119 29 inlet;
#X obj 73 309 +;
#N canvas 0 50 470 440 move-slider 1;
#X obj 19 29 inlet;
#X obj 89 29 inlet;
#X obj 169 29 inlet;
#X obj 249 29 inlet;
#X obj 319 29 inlet;
#X obj 389 29 inlet;
#X msg 320 349 symbol sl\$1;
#X obj 9 399 s;
#X obj 9 259 -;
#X msg 9 289 delta 0 \$1;
#X obj 80 224 * -1;
#X obj 9 229 t f f;
#X obj 80 187 moses 1;
#X msg 111 150 0;
#X obj 229 229 *;
#X obj 259 309 pack;
#X obj 80 319 pack;
#X msg 80 349 vis_size \$2 \$1;
#X text 89 8 index;
#X text 9 8 y value;
#N canvas 0 50 450 300 set-pos 0;
#X obj 109 59 inlet;
#X obj 219 59 inlet;
#X obj 159 219 outlet;
#X msg 159 169 pos 453.923 120;
#X msg 219 109 set pos \$1 \$2;
#X connect 0 0 3 0 empty;
#X connect 1 0 4 0 empty;
#X connect 3 0 2 0 empty;
#X connect 4 0 3 0 empty;
#X restore 187 349 pd set-pos;
#X obj 249 269 +;
#X obj 80 82 * -1;
#X text 309 8 y offset;
#X text 239 8 x offset;
#X obj 319 159 f;
#X obj 319 189 t f f;
#X obj 80 114 t f b b b;
#X text 149 8 slider width;
#X text 389 8 width - spacing;
#X connect 0 0 22 0 empty;
#X connect 1 0 25 1 empty;
#X connect 2 0 14 1 empty;
#X connect 3 0 21 1 empty;
#X connect 4 0 15 1 empty;
#X connect 5 0 16 1 empty;
#X connect 6 0 7 1 empty;
#X connect 8 0 9 0 empty;
#X connect 9 0 7 0 empty;
#X connect 10 0 16 0 empty;
#X connect 11 0 8 1 empty;
#X connect 11 1 8 0 empty;
#X connect 12 0 11 0 empty;
#X connect 12 0 10 0 empty;
#X connect 12 1 16 0 empty;
#X connect 13 0 12 0 empty;
#X connect 14 0 21 0 empty;
#X connect 15 0 20 1 empty;
#X connect 16 0 17 0 empty;
#X connect 17 0 7 0 empty;
#X connect 20 0 7 0 empty;
#X connect 21 0 15 0 empty;
#X connect 22 0 27 0 empty;
#X connect 25 0 26 0 empty;
#X connect 26 0 14 0 empty;
#X connect 26 1 6 0 empty;
#X connect 27 0 12 0 empty;
#X connect 27 1 20 0 empty;
#X connect 27 2 13 0 empty;
#X connect 27 3 25 0 empty;
#X restore 349 389 pd move-slider;
#N canvas 0 50 450 300 resize 1;
#X obj 89 49 inlet;
#X obj 223 49 inlet;
#X msg 129 189 coords 0 0 1 1 \$1 \$2 2;
#X obj 129 152 pack2;
#X obj 179 119 + 2;
#X obj 129 119 + 2;
#X obj 129 219 s pd-sliders;
#X connect 0 0 5 0 empty;
#X connect 1 0 4 0 empty;
#X connect 2 0 6 0 empty;
#X connect 3 0 2 0 empty;
#X connect 4 0 3 1 empty;
#X connect 5 0 3 0 empty;
#X restore 389 69 pd resize;
#X text 396 8 width;
#X text 446 8 height;
#X text 9 8 # of sliders;
#X text 114 8 y val;
#X text 159 8 ndx;
#N canvas 0 50 450 300 calc-y-pos 1;
#X obj 69 29 inlet;
#X obj 119 29 inlet;
#X obj 179 29 inlet;
#X obj 69 259 outlet;
#X obj 69 109 / 2;
#X obj 119 139 * -1;
#X obj 89 189 *;
#X obj 69 79 f;
#X obj 69 229 +;
#X obj 69 139 t f f;
#X connect 0 0 7 0 empty;
#X connect 1 0 5 0 empty;
#X connect 2 0 7 1 empty;
#X connect 4 0 9 0 empty;
#X connect 5 0 6 0 empty;
#X connect 6 0 8 1 empty;
#X connect 7 0 4 0 empty;
#X connect 8 0 3 0 empty;
#X connect 9 0 8 0 empty;
#X connect 9 1 6 1 empty;
#X restore 389 259 pd calc-y-pos;
#X obj 59 129 t f f f b;
#X obj 59 69 t f b;
#X obj 59 223 t f f;
#X obj 209 269 -;
#X obj 249 199 !/;
#X connect 1 0 0 0 empty;
#X connect 2 0 28 0 empty;
#X connect 4 0 27 0 empty;
#X connect 5 0 18 1 empty;
#X connect 6 0 29 1 empty;
#X connect 7 0 17 1 empty;
#X connect 7 0 18 3 empty;
#X connect 8 0 25 1 empty;
#X connect 9 0 19 0 empty;
#X connect 9 0 11 1 empty;
#X connect 9 0 30 1 empty;
#X connect 10 0 19 1 empty;
#X connect 10 0 25 2 empty;
#X connect 11 0 17 0 empty;
#X connect 14 0 15 0 empty;
#X connect 15 0 0 0 empty;
#X connect 16 0 18 0 empty;
#X connect 17 0 14 1 empty;
#X connect 25 0 18 4 empty;
#X connect 25 0 14 2 empty;
#X connect 26 0 2 0 empty;
#X connect 26 1 11 2 empty;
#X connect 26 2 30 0 empty;
#X connect 26 3 1 0 empty;
#X connect 27 0 26 0 empty;
#X connect 27 1 25 0 empty;
#X connect 28 0 14 0 empty;
#X connect 28 1 11 0 empty;
#X connect 29 0 14 3 empty;
#X connect 29 0 18 5 empty;
#X connect 30 0 29 0 empty;
#X connect 30 0 18 2 empty;
#X restore 509 349 pd construct;
#X obj 509 169 nbx 4 18 1 1e+37 0 0 empty empty empty 0 -8 0 10 #191919 #ffffff #ffffff 0 256;
#X obj 661 319 nbx 4 18 0 1e+37 0 1 empty empty empty 0 -8 0 10 #191919 #ffffff #ffffff 240 256;
#X obj 611 319 nbx 4 18 0 1e+37 0 1 empty empty empty 0 -8 0 10 #191919 #ffffff #ffffff 470 256;
#X obj 594 294 nbx 4 18 -1e+37 1e+37 0 1 empty empty empty 0 -8 0 10 #191919 #ffffff #ffffff 0 256;
#X text 659 348 width & height;
#X text 555 169 n;
#X obj 577 269 nbx 4 18 0 1e+37 0 1 empty empty empty 0 -8 0 10 #191919 #ffffff #ffffff 2 256;
#X text 622 268 x offset;
#X obj 560 244 nbx 4 18 0 1e+37 0 1 empty empty empty 0 -8 0 10 #191919 #ffffff #ffffff 2 256;
#X text 606 244 spacing;
#X obj 543 221 nbx 4 18 0 1e+37 0 0 empty empty empty 0 -8 0 10 #191919 #ffffff #ffffff 0 256;
#X obj 526 199 nbx 4 18 -1e+37 1e+37 0 0 empty empty empty 0 -8 0 10 #191919 #ffffff #ffffff 0 256;
#X text 589 220 index;
#X text 571 197 y value;
#X obj 439 319 bng 25 250 50 0 empty empty empty 17 7 0 10 #191919 #ffffff #ffffff;
#N canvas 0 50 450 300 color 1;
#X obj 129 9 inlet;
#X obj 129 119 rand.i 0 360;
#X msg 129 159 hsl \$1 100 50;
#X obj 319 9 inlet;
#X msg 269 129 symbol sl\$1;
#X obj 129 49 loop;
#X obj 129 79 t b f;
#X obj 129 259 s;
#X msg 129 219 color \$1;
#X obj 129 189 colors;
#X connect 0 0 5 0 empty;
#X connect 1 0 2 0 empty;
#X connect 2 0 9 0 empty;
#X connect 3 0 5 1 empty;
#X connect 4 0 7 1 empty;
#X connect 5 0 6 0 empty;
#X connect 6 0 1 0 empty;
#X connect 6 1 4 0 empty;
#X connect 8 0 7 0 empty;
#X connect 9 0 8 0 empty;
#X restore 439 349 pd color;
#X text 641 292 y axis (-1 to 1);
#X connect 4 0 3 0 empty;
#X connect 4 0 19 1 empty;
#X connect 5 0 3 7 empty;
#X connect 6 0 3 6 empty;
#X connect 7 0 3 5 empty;
#X connect 10 0 3 4 empty;
#X connect 12 0 3 3 empty;
#X connect 14 0 3 2 empty;
#X connect 15 0 3 1 empty;
#X connect 18 0 19 0 empty;
