#N canvas 827 239 527 327 12;
#X obj 9 9 cnv 15 471 241 empty empty empty 20 12 0 14 #191919 #ffffff 0;
#N canvas 0 50 450 250 (subpatch) 0;
#X array arr1 32 float 2;
#X coords 0 1 32 -1 142 82 1;
#X restore 539 19 graph;
#X obj 109 519 s pd-sliders;
#X msg 39 469 clear;
#X obj 589 279 nbx 4 18 -1e+37 1e+37 0 0 empty empty empty 0 -8 0 10 #191919 #ffffff #ffffff 0 256;
#X msg 589 469 symbol sl\$1;
#X obj 439 509 s;
#X obj 109 269 nbx 4 18 -1e+37 1e+37 0 0 empty empty empty 0 -8 0 10 #191919 #ffffff #ffffff 0 256;
#X obj 289 379 /;
#N canvas 0 50 450 300 rnd-color 1;
#X obj 129 39 inlet;
#X obj 129 99 rand.i 0 360;
#X obj 129 179 colors;
#X msg 129 139 hsl \$1 100 50;
#X obj 129 249 outlet;
#X connect 0 0 1 0 empty;
#X connect 1 0 3 0 empty;
#X connect 2 0 4 0 empty;
#X connect 3 0 2 0 empty;
#X restore 192 409 pd rnd-color;
#X obj 109 343 t f f b;
#N canvas 0 50 450 300 sliders 1;
#X obj 2 66 cnv 2 2 54 empty sl0 empty 20 12 0 14 #ff00e1 #ffffff 0;
#X obj 6 67 cnv 2 2 53 empty sl1 empty 20 12 0 14 #73ff00 #ffffff 0;
#X obj 10 65 cnv 2 2 55 empty sl2 empty 20 12 0 14 #ff00c3 #ffffff 0;
#X obj 14 120 cnv 2 2 73 empty sl3 empty 20 12 0 14 #0088ff #ffffff 0;
#X obj 18 79 cnv 2 2 41 empty sl4 empty 20 12 0 14 #ffff00 #ffffff 0;
#X obj 22 11 cnv 2 2 109 empty sl5 empty 20 12 0 14 #ff001a #ffffff 0;
#X obj 26 83 cnv 2 2 37 empty sl6 empty 20 12 0 14 #e500ff #ffffff 0;
#X obj 31 33 cnv 2 2 87 empty sl7 empty 20 12 0 14 #6200ff #ffffff 0;
#X obj 35 120 cnv 2 2 1 empty sl8 empty 20 12 0 14 #00ff4c #ffffff 0;
#X obj 39 120 cnv 2 2 1 empty sl9 empty 20 12 0 14 #00ff4c #ffffff 0;
#X obj 43 120 cnv 2 2 1 empty sl10 empty 20 12 0 14 #ff00e1 #ffffff 0;
#X obj 47 120 cnv 2 2 1 empty sl11 empty 20 12 0 14 #0dff00 #ffffff 0;
#X obj 51 117 cnv 2 2 3 empty sl12 empty 20 12 0 14 #ff4400 #ffffff 0;
#X obj 56 75 cnv 2 2 45 empty sl13 empty 20 12 0 14 #7300ff #ffffff 0;
#X obj 60 114 cnv 2 2 6 empty sl14 empty 20 12 0 14 #9100ff #ffffff 0;
#X obj 64 120 cnv 2 2 1 empty sl15 empty 20 12 0 14 #fffb00 #ffffff 0;
#X obj 68 120 cnv 2 2 34 empty sl16 empty 20 12 0 14 #00ffa1 #ffffff 0;
#X obj 72 82 cnv 2 2 38 empty sl17 empty 20 12 0 14 #ff00fb #ffffff 0;
#X obj 76 106 cnv 2 2 14 empty sl18 empty 20 12 0 14 #3300ff #ffffff 0;
#X obj 81 85 cnv 2 2 35 empty sl19 empty 20 12 0 14 #2fff00 #ffffff 0;
#X obj 85 120 cnv 2 2 1 empty sl20 empty 20 12 0 14 #ff005e #ffffff 0;
#X obj 89 120 cnv 2 2 89 empty sl21 empty 20 12 0 14 #ff8400 #ffffff 0;
#X obj 93 120 cnv 2 2 76 empty sl22 empty 20 12 0 14 #00ffe5 #ffffff 0;
#X obj 97 67 cnv 2 2 53 empty sl23 empty 20 12 0 14 #ff6a00 #ffffff 0;
#X obj 101 26 cnv 2 2 94 empty sl24 empty 20 12 0 14 #ff00c8 #ffffff 0;
#X obj 105 120 cnv 2 2 93 empty sl25 empty 20 12 0 14 #ff00ff #ffffff 0;
#X obj 110 120 cnv 2 2 1 empty sl26 empty 20 12 0 14 #00ff6a #ffffff 0;
#X obj 114 71 cnv 2 2 49 empty sl27 empty 20 12 0 14 #ff006f #ffffff 0;
#X obj 118 120 cnv 2 2 1 empty sl28 empty 20 12 0 14 #0077ff #ffffff 0;
#X obj 122 120 cnv 2 2 55 empty sl29 empty 20 12 0 14 #4000ff #ffffff 0;
#X obj 126 120 cnv 2 2 69 empty sl30 empty 20 12 0 14 #ff0000 #ffffff 0;
#X obj 130 120 cnv 2 2 1 empty sl31 empty 20 12 0 14 #0000ff #ffffff 0;
#X obj 135 120 cnv 2 2 50 empty sl32 empty 20 12 0 14 #ff00e1 #ffffff 0;
#X obj 139 93 cnv 2 2 27 empty sl33 empty 20 12 0 14 #ff0088 #ffffff 0;
#X obj 143 120 cnv 2 2 1 empty sl34 empty 20 12 0 14 #ff009d #ffffff 0;
#X obj 147 93 cnv 2 2 27 empty sl35 empty 20 12 0 14 #ffea00 #ffffff 0;
#X obj 151 105 cnv 2 2 15 empty sl36 empty 20 12 0 14 #d500ff #ffffff 0;
#X obj 155 7 cnv 2 2 113 empty sl37 empty 20 12 0 14 #00ff62 #ffffff 0;
#X obj 160 120 cnv 2 2 1 empty sl38 empty 20 12 0 14 #bfff00 #ffffff 0;
#X obj 164 84 cnv 2 2 36 empty sl39 empty 20 12 0 14 #00ff08 #ffffff 0;
#X obj 168 66 cnv 2 2 54 empty sl40 empty 20 12 0 14 #eeff00 #ffffff 0;
#X obj 172 120 cnv 2 2 79 empty sl41 empty 20 12 0 14 #7300ff #ffffff 0;
#X obj 176 120 cnv 2 2 104 empty sl42 empty 20 12 0 14 #4400ff #ffffff 0;
#X obj 180 120 cnv 2 2 37 empty sl43 empty 20 12 0 14 #ff4000 #ffffff 0;
#X obj 185 35 cnv 2 2 85 empty sl44 empty 20 12 0 14 #0015ff #ffffff 0;
#X obj 189 16 cnv 2 2 104 empty sl45 empty 20 12 0 14 #00ffd4 #ffffff 0;
#X obj 193 120 cnv 2 2 72 empty sl46 empty 20 12 0 14 #22ff00 #ffffff 0;
#X obj 197 120 cnv 2 2 1 empty sl47 empty 20 12 0 14 #00ff8c #ffffff 0;
#X obj 201 9 cnv 2 2 111 empty sl48 empty 20 12 0 14 #00a6ff #ffffff 0;
#X obj 205 26 cnv 2 2 94 empty sl49 empty 20 12 0 14 #ff0099 #ffffff 0;
#X obj 209 120 cnv 2 2 1 empty sl50 empty 20 12 0 14 #d0ff00 #ffffff 0;
#X obj 214 120 cnv 2 2 38 empty sl51 empty 20 12 0 14 #91ff00 #ffffff 0;
#X obj 218 120 cnv 2 2 94 empty sl52 empty 20 12 0 14 #ff3c00 #ffffff 0;
#X obj 222 120 cnv 2 2 1 empty sl53 empty 20 12 0 14 #00ff6e #ffffff 0;
#X obj 226 47 cnv 2 2 73 empty sl54 empty 20 12 0 14 #ff00b7 #ffffff 0;
#X obj 230 120 cnv 2 2 98 empty sl55 empty 20 12 0 14 #d0ff00 #ffffff 0;
#X obj 234 47 cnv 2 2 73 empty sl56 empty 20 12 0 14 #00ffee #ffffff 0;
#X obj 239 52 cnv 2 2 68 empty sl57 empty 20 12 0 14 #ff00d5 #ffffff 0;
#X obj 243 120 cnv 2 2 97 empty sl58 empty 20 12 0 14 #f2ff00 #ffffff 0;
#X obj 247 120 cnv 2 2 102 empty sl59 empty 20 12 0 14 #00ff7f #ffffff 0;
#X obj 251 120 cnv 2 2 1 empty sl60 empty 20 12 0 14 #00ff7f #ffffff 0;
#X obj 255 13 cnv 2 2 107 empty sl61 empty 20 12 0 14 #00ff84 #ffffff 0;
#X obj 259 120 cnv 2 2 1 empty sl62 empty 20 12 0 14 #0051ff #ffffff 0;
#X obj 264 6 cnv 2 2 114 empty sl63 empty 20 12 0 14 #aeff00 #ffffff 0;
#X obj 268 52 cnv 2 2 68 empty sl64 empty 20 12 0 14 #ff0009 #ffffff 0;
#X obj 272 120 cnv 2 2 1 empty sl65 empty 20 12 0 14 #00ff26 #ffffff 0;
#X obj 276 120 cnv 2 2 1 empty sl66 empty 20 12 0 14 #ffc400 #ffffff 0;
#X obj 280 79 cnv 2 2 41 empty sl67 empty 20 12 0 14 #ccff00 #ffffff 0;
#X obj 284 120 cnv 2 2 1 empty sl68 empty 20 12 0 14 #ff0d00 #ffffff 0;
#X obj 288 120 cnv 2 2 1 empty sl69 empty 20 12 0 14 #00bbff #ffffff 0;
#X obj 293 120 cnv 2 2 1 empty sl70 empty 20 12 0 14 #0044ff #ffffff 0;
#X obj 297 120 cnv 2 2 48 empty sl71 empty 20 12 0 14 #00ff7f #ffffff 0;
#X obj 301 63 cnv 2 2 57 empty sl72 empty 20 12 0 14 #00d9ff #ffffff 0;
#X obj 305 62 cnv 2 2 58 empty sl73 empty 20 12 0 14 #e1ff00 #ffffff 0;
#X obj 309 120 cnv 2 2 112 empty sl74 empty 20 12 0 14 #ff00ae #ffffff 0;
#X obj 313 120 cnv 2 2 120 empty sl75 empty 20 12 0 14 #ff00e6 #ffffff 0;
#X obj 318 120 cnv 2 2 45 empty sl76 empty 20 12 0 14 #e500ff #ffffff 0;
#X obj 322 120 cnv 2 2 39 empty sl77 empty 20 12 0 14 #4800ff #ffffff 0;
#X obj 326 62 cnv 2 2 58 empty sl78 empty 20 12 0 14 #ff00ee #ffffff 0;
#X obj 330 120 cnv 2 2 117 empty sl79 empty 20 12 0 14 #00ff40 #ffffff 0;
#X obj 334 120 cnv 2 2 85 empty sl80 empty 20 12 0 14 #00ffbb #ffffff 0;
#X obj 338 90 cnv 2 2 30 empty sl81 empty 20 12 0 14 #ff00ff #ffffff 0;
#X obj 343 5 cnv 2 2 115 empty sl82 empty 20 12 0 14 #ffee00 #ffffff 0;
#X obj 347 89 cnv 2 2 31 empty sl83 empty 20 12 0 14 #00ffcc #ffffff 0;
#X obj 351 120 cnv 2 2 77 empty sl84 empty 20 12 0 14 #8800ff #ffffff 0;
#X obj 355 19 cnv 2 2 101 empty sl85 empty 20 12 0 14 #00ff22 #ffffff 0;
#X obj 359 111 cnv 2 2 9 empty sl86 empty 20 12 0 14 #0077ff #ffffff 0;
#X obj 363 88 cnv 2 2 32 empty sl87 empty 20 12 0 14 #00bfff #ffffff 0;
#X obj 368 34 cnv 2 2 86 empty sl88 empty 20 12 0 14 #7300ff #ffffff 0;
#X obj 372 120 cnv 2 2 29 empty sl89 empty 20 12 0 14 #00ff95 #ffffff 0;
#X obj 376 120 cnv 2 2 93 empty sl90 empty 20 12 0 14 #ff00fb #ffffff 0;
#X obj 380 120 cnv 2 2 47 empty sl91 empty 20 12 0 14 #15ff00 #ffffff 0;
#X obj 384 33 cnv 2 2 87 empty sl92 empty 20 12 0 14 #ff00d5 #ffffff 0;
#X obj 388 120 cnv 2 2 110 empty sl93 empty 20 12 0 14 #d5ff00 #ffffff 0;
#X obj 392 120 cnv 2 2 1 empty sl94 empty 20 12 0 14 #5500ff #ffffff 0;
#X obj 397 62 cnv 2 2 58 empty sl95 empty 20 12 0 14 #ff5100 #ffffff 0;
#X obj 401 120 cnv 2 2 1 empty sl96 empty 20 12 0 14 #a100ff #ffffff 0;
#X obj 405 120 cnv 2 2 1 empty sl97 empty 20 12 0 14 #ffe100 #ffffff 0;
#X obj 409 120 cnv 2 2 16 empty sl98 empty 20 12 0 14 #00ffbb #ffffff 0;
#X obj 413 120 cnv 2 2 56 empty sl99 empty 20 12 0 14 #00ffff #ffffff 0;
#X obj 417 120 cnv 2 2 1 empty sl100 empty 20 12 0 14 #7700ff #ffffff 0;
#X obj 422 120 cnv 2 2 21 empty sl101 empty 20 12 0 14 #ddff00 #ffffff 0;
#X obj 426 120 cnv 2 2 64 empty sl102 empty 20 12 0 14 #00ff4c #ffffff 0;
#X obj 430 120 cnv 2 2 105 empty sl103 empty 20 12 0 14 #f7ff00 #ffffff 0;
#X obj 434 120 cnv 2 2 47 empty sl104 empty 20 12 0 14 #ff0073 #ffffff 0;
#X obj 438 100 cnv 2 2 20 empty sl105 empty 20 12 0 14 #aa00ff #ffffff 0;
#X obj 442 68 cnv 2 2 52 empty sl106 empty 20 12 0 14 #a100ff #ffffff 0;
#X obj 447 120 cnv 2 2 59 empty sl107 empty 20 12 0 14 #00ff77 #ffffff 0;
#X obj 451 120 cnv 2 2 12 empty sl108 empty 20 12 0 14 #00ff62 #ffffff 0;
#X obj 455 120 cnv 2 2 85 empty sl109 empty 20 12 0 14 #ff009d #ffffff 0;
#X obj 459 120 cnv 2 2 84 empty sl110 empty 20 12 0 14 #00ff7b #ffffff 0;
#X obj 463 120 cnv 2 2 1 empty sl111 empty 20 12 0 14 #00ff4c #ffffff 0;
#X obj 467 90 cnv 2 2 30 empty sl112 empty 20 12 0 14 #0037ff #ffffff 0;
#X coords 0 0 1 1 471 241 2 0 0;
#X restore 9 9 pd sliders;
#X obj 309 259 nbx 4 18 -1e+37 1e+37 0 1 empty empty empty 0 -8 0 10 #191919 #ffffff #ffffff 470 256;
#X obj 359 259 nbx 4 18 -1e+37 1e+37 0 1 empty empty empty 0 -8 0 10 #191919 #ffffff #ffffff 240 256;
#X obj 510 194 nbx 4 18 -1e+37 1e+37 0 1 empty empty empty 0 -8 0 10 #191919 #ffffff #ffffff -27 256;
#X obj 439 359 -;
#X msg 439 389 delta 0 \$1;
#X obj 480 324 * -1;
#X obj 439 329 t f f;
#X obj 480 287 moses 1;
#X msg 549 260 0;
#X obj 510 224 t f b b;
#X msg 569 439 pos 139.257 120;
#X obj 609 319 *;
#X obj 399 299 / 2;
#X obj 609 379 pack;
#X msg 599 409 set pos \$1 \$2;
#X obj 109 439 pack f f f f f s;
#N canvas 0 50 450 300 resize 1;
#X obj 89 49 inlet;
#X obj 223 49 inlet;
#X obj 129 239 outlet;
#X msg 129 189 coords 0 0 1 1 \$1 \$2 2;
#X obj 129 152 pack2;
#X obj 179 119 + 1;
#X obj 129 119 + 1;
#X connect 0 0 6 0 empty;
#X connect 1 0 5 0 empty;
#X connect 3 0 2 0 empty;
#X connect 4 0 3 0 empty;
#X connect 5 0 4 1 empty;
#X connect 6 0 4 0 empty;
#X restore 359 479 pd resize;
#X obj 109 319 loop;
#X obj 109 293 t f f b f b;
#X msg 109 469 obj \$2 \$3 cnv 2 \$4 0 empty sl\$1 empty 20 12 0 14 \$6 #ffffff 0, f 33;
#X obj 459 419 pack;
#X msg 459 449 vis_size \$2 \$1;
#X obj 659 169 rand.i -120 120;
#X obj 709 219 rand.i 0 113;
#X obj 716 131 t b b;
#X obj 719 79 bng 25 250 50 0 empty empty empty 17 7 0 10 #191919 #ffffff #ffffff;
#X obj 289 409 - 2;
#X text 327 408 spacing;
#X obj 123 373 expr $f1 * ($f2/$f3) + 2;
#X obj 609 349 + 2;
#X connect 3 0 2 0 empty;
#X connect 4 0 5 0 empty;
#X connect 4 0 23 0 empty;
#X connect 5 0 6 1 empty;
#X connect 7 0 30 0 empty;
#X connect 8 0 23 1 empty;
#X connect 8 0 38 0 empty;
#X connect 9 0 27 5 empty;
#X connect 10 0 27 0 empty;
#X connect 10 1 40 0 empty;
#X connect 10 2 9 0 empty;
#X connect 12 0 8 0 empty;
#X connect 12 0 28 0 empty;
#X connect 12 0 40 1 empty;
#X connect 13 0 24 0 empty;
#X connect 13 0 28 1 empty;
#X connect 14 0 21 0 empty;
#X connect 15 0 16 0 empty;
#X connect 16 0 6 0 empty;
#X connect 17 0 32 0 empty;
#X connect 18 0 15 1 empty;
#X connect 18 1 15 0 empty;
#X connect 19 0 18 0 empty;
#X connect 19 0 17 0 empty;
#X connect 19 1 32 0 empty;
#X connect 20 0 19 0 empty;
#X connect 21 0 19 0 empty;
#X connect 21 1 22 0 empty;
#X connect 21 2 20 0 empty;
#X connect 22 0 6 0 empty;
#X connect 23 0 41 0 empty;
#X connect 24 0 25 1 empty;
#X connect 24 0 27 2 empty;
#X connect 25 0 26 0 empty;
#X connect 26 0 22 0 empty;
#X connect 27 0 31 0 empty;
#X connect 28 0 2 0 empty;
#X connect 29 0 10 0 empty;
#X connect 30 0 29 0 empty;
#X connect 30 1 40 2 empty;
#X connect 30 2 8 0 empty;
#X connect 30 3 8 1 empty;
#X connect 30 4 3 0 empty;
#X connect 31 0 2 0 empty;
#X connect 32 0 33 0 empty;
#X connect 33 0 6 0 empty;
#X connect 34 0 14 0 empty;
#X connect 35 0 4 0 empty;
#X connect 36 0 34 0 empty;
#X connect 36 1 35 0 empty;
#X connect 37 0 36 0 empty;
#X connect 38 0 27 3 empty;
#X connect 38 0 32 1 empty;
#X connect 40 0 27 1 empty;
#X connect 41 0 25 0 empty;
