#N canvas 827 239 527 327 12;
#X obj 9 9 cnv 15 471 241 empty empty empty 20 12 0 14 #191919 #ffffff 0;
#N canvas 0 50 450 250 (subpatch) 0;
#X array arr1 32 float 2;
#X coords 0 1 32 -1 142 82 1;
#X restore 549 29 graph;
#X obj 529 409 tabread array1;
#X obj 529 379 nbx 4 18 -1e+37 1e+37 0 0 empty empty empty 0 -8 0 10 #191919 #ffffff #ffffff 0 256;
#X obj 529 439 nbx 15 31 -1e+37 1e+37 0 0 empty empty empty 0 -8 0 10 #191919 #ffffff #00cbe0 0 256;
#X obj 529 339 bng 25 250 50 0 empty empty empty 17 7 0 10 #191919 #ffffff #ffffff;
#X msg 529 239 vis_size \$1 \$2;
#X obj 529 209 pack;
#X obj 529 129 nbx 4 18 -1e+37 1e+37 0 0 empty empty empty 0 -8 0 10 #191919 #ffffff #ffffff 0 256;
#X obj 579 129 nbx 4 18 -1e+37 1e+37 0 0 empty empty empty 0 -8 0 10 #191919 #ffffff #ffffff 0 256;
#X obj 559 159 t b f;
#N canvas 0 50 450 300 sliders 1;
#X obj 3 0 cnv 15 8 240 empty empty empty 20 12 0 14 #00cbe0 #ffffff 0;
#X obj 17 0 cnv 15 8 240 empty empty empty 20 12 0 14 #00cbe0 #ffffff 0;
#X obj 32 0 cnv 15 8 240 empty empty empty 20 12 0 14 #00cbe0 #ffffff 0;
#X obj 47 0 cnv 15 8 240 empty empty empty 20 12 0 14 #00cbe0 #ffffff 0;
#X obj 62 0 cnv 15 8 240 empty empty empty 20 12 0 14 #00cbe0 #ffffff 0;
#X obj 77 0 cnv 15 8 240 empty empty empty 20 12 0 14 #00cbe0 #ffffff 0;
#X obj 91 0 cnv 15 8 240 empty empty empty 20 12 0 14 #00cbe0 #ffffff 0;
#X obj 106 0 cnv 15 8 240 empty empty empty 20 12 0 14 #00cbe0 #ffffff 0;
#X obj 121 0 cnv 15 8 240 empty empty empty 20 12 0 14 #00cbe0 #ffffff 0;
#X obj 136 0 cnv 15 8 240 empty empty empty 20 12 0 14 #00cbe0 #ffffff 0;
#X obj 151 0 cnv 15 8 240 empty empty empty 20 12 0 14 #00cbe0 #ffffff 0;
#X obj 165 0 cnv 15 8 240 empty empty empty 20 12 0 14 #00cbe0 #ffffff 0;
#X obj 180 0 cnv 15 8 240 empty empty empty 20 12 0 14 #00cbe0 #ffffff 0;
#X obj 195 0 cnv 15 8 240 empty empty empty 20 12 0 14 #00cbe0 #ffffff 0;
#X obj 210 0 cnv 15 8 240 empty empty empty 20 12 0 14 #00cbe0 #ffffff 0;
#X obj 225 0 cnv 15 8 240 empty empty empty 20 12 0 14 #00cbe0 #ffffff 0;
#X obj 239 0 cnv 15 8 240 empty empty empty 20 12 0 14 #00cbe0 #ffffff 0;
#X obj 254 0 cnv 15 8 240 empty empty empty 20 12 0 14 #00cbe0 #ffffff 0;
#X obj 269 0 cnv 15 8 240 empty empty empty 20 12 0 14 #00cbe0 #ffffff 0;
#X obj 284 0 cnv 15 8 240 empty empty empty 20 12 0 14 #00cbe0 #ffffff 0;
#X obj 299 0 cnv 15 8 240 empty empty empty 20 12 0 14 #00cbe0 #ffffff 0;
#X obj 313 0 cnv 15 8 240 empty empty empty 20 12 0 14 #00cbe0 #ffffff 0;
#X obj 328 0 cnv 15 8 240 empty empty empty 20 12 0 14 #00cbe0 #ffffff 0;
#X obj 343 0 cnv 15 8 240 empty empty empty 20 12 0 14 #00cbe0 #ffffff 0;
#X obj 358 0 cnv 15 8 240 empty empty empty 20 12 0 14 #00cbe0 #ffffff 0;
#X obj 373 0 cnv 15 8 240 empty empty empty 20 12 0 14 #00cbe0 #ffffff 0;
#X obj 387 0 cnv 15 8 240 empty empty empty 20 12 0 14 #00cbe0 #ffffff 0;
#X obj 402 0 cnv 15 8 240 empty empty empty 20 12 0 14 #00cbe0 #ffffff 0;
#X obj 417 0 cnv 15 8 240 empty empty empty 20 12 0 14 #00cbe0 #ffffff 0;
#X obj 432 0 cnv 15 8 240 empty empty empty 20 12 0 14 #00cbe0 #ffffff 0;
#X obj 447 0 cnv 15 8 240 empty empty empty 20 12 0 14 #00cbe0 #ffffff 0;
#X obj 461 0 cnv 15 8 240 empty empty empty 20 12 0 14 #00cbe0 #ffffff 0;
#X obj 3 0 cnv 15 14 240 empty sl0 empty 20 12 0 14 #191919 #ffffff 0;
#X obj 17 0 cnv 15 14 240 empty sl1 empty 20 12 0 14 #191919 #ffffff 0;
#X obj 32 0 cnv 15 14 240 empty sl2 empty 20 12 0 14 #191919 #ffffff 0;
#X obj 47 0 cnv 15 14 240 empty sl3 empty 20 12 0 14 #191919 #ffffff 0;
#X obj 62 0 cnv 15 15 182 empty sl4 empty 20 12 0 14 #191919 #ffffff 0;
#X obj 77 0 cnv 15 14 240 empty sl5 empty 20 12 0 14 #191919 #ffffff 0;
#X obj 91 0 cnv 15 14 240 empty sl6 empty 20 12 0 14 #191919 #ffffff 0;
#X obj 106 0 cnv 15 15 138 empty sl7 empty 20 12 0 14 #191919 #ffffff 0;
#X obj 121 0 cnv 15 14 240 empty sl8 empty 20 12 0 14 #191919 #ffffff 0;
#X obj 136 0 cnv 15 14 240 empty sl9 empty 20 12 0 14 #191919 #ffffff 0;
#X obj 151 0 cnv 15 14 240 empty sl10 empty 20 12 0 14 #191919 #ffffff 0;
#X obj 165 0 cnv 15 14 240 empty sl11 empty 20 12 0 14 #191919 #ffffff 0;
#X obj 180 0 cnv 15 14 240 empty sl12 empty 20 12 0 14 #191919 #ffffff 0;
#X obj 195 0 cnv 15 14 240 empty sl13 empty 20 12 0 14 #191919 #ffffff 0;
#X obj 210 0 cnv 15 14 240 empty sl14 empty 20 12 0 14 #191919 #ffffff 0;
#X obj 225 0 cnv 15 14 240 empty sl15 empty 20 12 0 14 #191919 #ffffff 0;
#X obj 239 0 cnv 15 14 240 empty sl16 empty 20 12 0 14 #191919 #ffffff 0;
#X obj 254 0 cnv 15 14 240 empty sl17 empty 20 12 0 14 #191919 #ffffff 0;
#X obj 269 0 cnv 15 14 240 empty sl18 empty 20 12 0 14 #191919 #ffffff 0;
#X obj 284 0 cnv 15 15 110 empty sl19 empty 20 12 0 14 #191919 #ffffff 0;
#X obj 299 0 cnv 15 14 240 empty sl20 empty 20 12 0 14 #191919 #ffffff 0;
#X obj 313 0 cnv 15 15 186 empty sl21 empty 20 12 0 14 #191919 #ffffff 0;
#X obj 328 0 cnv 15 14 240 empty sl22 empty 20 12 0 14 #191919 #ffffff 0;
#X obj 343 0 cnv 15 14 240 empty sl23 empty 20 12 0 14 #191919 #ffffff 0;
#X obj 358 0 cnv 15 14 240 empty sl24 empty 20 12 0 14 #191919 #ffffff 0;
#X obj 373 0 cnv 15 15 29 empty sl25 empty 20 12 0 14 #191919 #ffffff 0;
#X obj 387 0 cnv 15 14 240 empty sl26 empty 20 12 0 14 #191919 #ffffff 0;
#X obj 402 0 cnv 15 14 240 empty sl27 empty 20 12 0 14 #191919 #ffffff 0;
#X obj 417 0 cnv 15 14 240 empty sl28 empty 20 12 0 14 #191919 #ffffff 0;
#X obj 432 0 cnv 15 14 240 empty sl29 empty 20 12 0 14 #191919 #ffffff 0;
#X obj 447 0 cnv 15 14 240 empty sl30 empty 20 12 0 14 #191919 #ffffff 0;
#X obj 461 0 cnv 15 14 240 empty sl31 empty 20 12 0 14 #191919 #ffffff 0;
#X coords 0 0 1 1 471 241 2 0 0;
#X restore 9 9 pd sliders;
#X obj 19 509 s pd-sliders;
#X obj 19 399 loop 32;
#X obj 19 359 bng 25 250 50 0 empty empty empty 17 7 0 10 #191919 #ffffff #ffffff;
#X obj 19 429 expr $f1 * (470/32 + .8) + 3;
#X msg 109 509 clear;
#X msg 19 459 obj \$1 0 cnv 15 8 240 empty empty empty 20 12 0 14 #00CBE0 #ffffff 0, f 33;
#X obj 259 349 loop 32;
#X obj 259 309 bng 25 250 50 0 empty empty empty 17 7 0 10 #191919 #ffffff #ffffff;
#X obj 259 409 expr $f1 * (470/32 + .8) + 3;
#X msg 259 459 obj \$1 0 cnv 15 14 240 empty sl\$2 empty 20 12 0 14 #191919 #ffffff 0 \;, f 33;
#X obj 259 379 t f f;
#X obj 259 434 pack;
#X obj 629 179 nbx 4 18 -1e+37 1e+37 0 0 empty empty empty 0 -8 0 10 #191919 #ffffff #ffffff 0 256;
#X msg 629 209 symbol sl\$1;
#X obj 529 289 s;
#X connect 2 0 4 0 empty;
#X connect 3 0 2 0 empty;
#X connect 5 0 3 0 empty;
#X connect 6 0 26 0 empty;
#X connect 7 0 6 0 empty;
#X connect 8 0 7 0 empty;
#X connect 9 0 10 0 empty;
#X connect 10 0 7 0 empty;
#X connect 10 1 7 1 empty;
#X connect 13 0 15 0 empty;
#X connect 14 0 13 0 empty;
#X connect 15 0 17 0 empty;
#X connect 16 0 12 0 48.................D.....++++OA....v++++q9++++o++++p++++e5+++e6++++;
#X connect 17 0 12 0 empty;
#X connect 18 0 22 0 empty;
#X connect 19 0 18 0 empty;
#X connect 20 0 23 0 empty;
#X connect 21 0 12 0 empty;
#X connect 22 0 20 0 empty;
#X connect 22 1 23 1 empty;
#X connect 23 0 21 0 empty;
#X connect 24 0 25 0 empty;
#X connect 25 0 26 1 empty;
