#N canvas 827 239 760 420 12;
#X obj 279 119 pad 470 240 255 255 255;
#X obj 279 119 cnv 15 471 241 empty empty empty 20 12 0 14 #191919 #ffffff 0;
#N canvas 0 50 450 300 sliders 1;
#X obj 2 4 cnv 2 1 236 empty sl0 empty 20 12 0 14 #ff001a #ffffff 0;
#X obj 5 8 cnv 2 1 232 empty sl1 empty 20 12 0 14 #ff0033 #ffffff 0;
#X obj 8 14 cnv 2 1 226 empty sl2 empty 20 12 0 14 #ff0059 #ffffff 0;
#X obj 11 19 cnv 2 1 221 empty sl3 empty 20 12 0 14 #ff0079 #ffffff 0;
#X obj 14 25 cnv 2 1 215 empty sl4 empty 20 12 0 14 #ff009f #ffffff 0;
#X obj 17 32 cnv 2 1 208 empty sl5 empty 20 12 0 14 #ff00cc #ffffff 0;
#X obj 21 38 cnv 2 1 202 empty sl6 empty 20 12 0 14 #ff00f2 #ffffff 0;
#X obj 24 47 cnv 2 1 193 empty sl7 empty 20 12 0 14 #d200ff #ffffff 0;
#X obj 27 53 cnv 2 1 187 empty sl8 empty 20 12 0 14 #ac00ff #ffffff 0;
#X obj 30 63 cnv 2 1 177 empty sl9 empty 20 12 0 14 #6c00ff #ffffff 0;
#X obj 33 72 cnv 2 1 168 empty sl10 empty 20 12 0 14 #3300ff #ffffff 0;
#X obj 37 81 cnv 2 1 159 empty sl11 empty 20 12 0 14 #0006ff #ffffff 0;
#X obj 40 89 cnv 2 1 151 empty sl12 empty 20 12 0 14 #0039ff #ffffff 0;
#X obj 43 97 cnv 2 1 143 empty sl13 empty 20 12 0 14 #006cff #ffffff 0;
#X obj 46 109 cnv 2 1 131 empty sl14 empty 20 12 0 14 #00b9ff #ffffff 0;
#X obj 49 123 cnv 2 1 117 empty sl15 empty 20 12 0 14 #00ffec #ffffff 0;
#X obj 53 134 cnv 2 1 106 empty sl16 empty 20 12 0 14 #00ffa6 #ffffff 0;
#X obj 56 148 cnv 2 1 92 empty sl17 empty 20 12 0 14 #00ff4c #ffffff 0;
#X obj 59 155 cnv 2 1 85 empty sl18 empty 20 12 0 14 #00ff20 #ffffff 0;
#X obj 62 163 cnv 2 1 77 empty sl19 empty 20 12 0 14 #13ff00 #ffffff 0;
#X obj 65 170 cnv 2 1 70 empty sl20 empty 20 12 0 14 #40ff00 #ffffff 0;
#X obj 69 178 cnv 2 1 62 empty sl21 empty 20 12 0 14 #73ff00 #ffffff 0;
#X obj 72 180 cnv 2 1 60 empty sl22 empty 20 12 0 14 #7fff00 #ffffff 0;
#X obj 75 184 cnv 2 1 56 empty sl23 empty 20 12 0 14 #99ff00 #ffffff 0;
#X obj 78 186 cnv 2 1 54 empty sl24 empty 20 12 0 14 #a6ff00 #ffffff 0;
#X obj 81 187 cnv 2 1 53 empty sl25 empty 20 12 0 14 #acff00 #ffffff 0;
#X obj 85 186 cnv 2 1 54 empty sl26 empty 20 12 0 14 #a6ff00 #ffffff 0;
#X obj 88 188 cnv 2 1 52 empty sl27 empty 20 12 0 14 #b3ff00 #ffffff 0;
#X obj 91 191 cnv 2 1 49 empty sl28 empty 20 12 0 14 #bfff00 #ffffff 0;
#X obj 94 192 cnv 2 1 48 empty sl29 empty 20 12 0 14 #c6ff00 #ffffff 0;
#X obj 97 193 cnv 2 1 47 empty sl30 empty 20 12 0 14 #d2ff00 #ffffff 0;
#X obj 101 195 cnv 2 1 45 empty sl31 empty 20 12 0 14 #dfff00 #ffffff 0;
#X obj 104 195 cnv 2 1 45 empty sl32 empty 20 12 0 14 #dfff00 #ffffff 0;
#X obj 107 196 cnv 2 1 44 empty sl33 empty 20 12 0 14 #e6ff00 #ffffff 0;
#X obj 110 197 cnv 2 1 43 empty sl34 empty 20 12 0 14 #ecff00 #ffffff 0;
#X obj 113 199 cnv 2 1 41 empty sl35 empty 20 12 0 14 #f9ff00 #ffffff 0;
#X obj 117 200 cnv 2 1 40 empty sl36 empty 20 12 0 14 #ffff00 #ffffff 0;
#X obj 120 201 cnv 2 1 39 empty sl37 empty 20 12 0 14 #fff900 #ffffff 0;
#X obj 123 202 cnv 2 1 38 empty sl38 empty 20 12 0 14 #fff200 #ffffff 0;
#X obj 126 204 cnv 2 1 36 empty sl39 empty 20 12 0 14 #ffe600 #ffffff 0;
#X obj 129 204 cnv 2 1 36 empty sl40 empty 20 12 0 14 #ffe600 #ffffff 0;
#X obj 133 209 cnv 2 1 31 empty sl41 empty 20 12 0 14 #ffcc00 #ffffff 0;
#X obj 136 209 cnv 2 1 31 empty sl42 empty 20 12 0 14 #ffcc00 #ffffff 0;
#X obj 139 210 cnv 2 1 30 empty sl43 empty 20 12 0 14 #ffbf00 #ffffff 0;
#X obj 142 211 cnv 2 1 29 empty sl44 empty 20 12 0 14 #ffb900 #ffffff 0;
#X obj 145 212 cnv 2 1 28 empty sl45 empty 20 12 0 14 #ffb300 #ffffff 0;
#X obj 149 214 cnv 2 1 26 empty sl46 empty 20 12 0 14 #ffa600 #ffffff 0;
#X obj 152 217 cnv 2 1 23 empty sl47 empty 20 12 0 14 #ff9900 #ffffff 0;
#X obj 155 217 cnv 2 1 23 empty sl48 empty 20 12 0 14 #ff9300 #ffffff 0;
#X obj 158 218 cnv 2 1 22 empty sl49 empty 20 12 0 14 #ff8c00 #ffffff 0;
#X obj 161 219 cnv 2 1 21 empty sl50 empty 20 12 0 14 #ff8600 #ffffff 0;
#X obj 165 222 cnv 2 1 18 empty sl51 empty 20 12 0 14 #ff7900 #ffffff 0;
#X obj 168 223 cnv 2 1 17 empty sl52 empty 20 12 0 14 #ff7300 #ffffff 0;
#X obj 171 224 cnv 2 1 16 empty sl53 empty 20 12 0 14 #ff6c00 #ffffff 0;
#X obj 174 225 cnv 2 1 15 empty sl54 empty 20 12 0 14 #ff6600 #ffffff 0;
#X obj 177 225 cnv 2 1 15 empty sl55 empty 20 12 0 14 #ff6000 #ffffff 0;
#X obj 181 227 cnv 2 1 13 empty sl56 empty 20 12 0 14 #ff5300 #ffffff 0;
#X obj 184 227 cnv 2 1 13 empty sl57 empty 20 12 0 14 #ff5300 #ffffff 0;
#X obj 187 228 cnv 2 1 12 empty sl58 empty 20 12 0 14 #ff4d00 #ffffff 0;
#X obj 190 231 cnv 2 1 9 empty sl59 empty 20 12 0 14 #ff4000 #ffffff 0;
#X obj 193 231 cnv 2 1 9 empty sl60 empty 20 12 0 14 #ff4000 #ffffff 0;
#X obj 197 232 cnv 2 1 8 empty sl61 empty 20 12 0 14 #ff3900 #ffffff 0;
#X obj 200 233 cnv 2 1 7 empty sl62 empty 20 12 0 14 #ff2d00 #ffffff 0;
#X obj 203 235 cnv 2 1 5 empty sl63 empty 20 12 0 14 #ff2000 #ffffff 0;
#X obj 206 238 cnv 2 1 2 empty sl64 empty 20 12 0 14 #ff1300 #ffffff 0;
#X obj 209 238 cnv 2 1 2 empty sl65 empty 20 12 0 14 #ff1300 #ffffff 0;
#X obj 213 22 cnv 2 1 218 empty sl66 empty 20 12 0 14 #ff008c #ffffff 0;
#X obj 216 25 cnv 2 1 215 empty sl67 empty 20 12 0 14 #ff009f #ffffff 0;
#X obj 219 29 cnv 2 1 211 empty sl68 empty 20 12 0 14 #ff00b9 #ffffff 0;
#X obj 222 31 cnv 2 1 209 empty sl69 empty 20 12 0 14 #ff00c6 #ffffff 0;
#X obj 225 33 cnv 2 1 207 empty sl70 empty 20 12 0 14 #ff00d2 #ffffff 0;
#X obj 229 38 cnv 2 1 202 empty sl71 empty 20 12 0 14 #ff00f2 #ffffff 0;
#X obj 232 40 cnv 2 1 200 empty sl72 empty 20 12 0 14 #ff00ff #ffffff 0;
#X obj 235 43 cnv 2 1 197 empty sl73 empty 20 12 0 14 #ec00ff #ffffff 0;
#X obj 238 45 cnv 2 1 195 empty sl74 empty 20 12 0 14 #df00ff #ffffff 0;
#X obj 241 48 cnv 2 1 192 empty sl75 empty 20 12 0 14 #cc00ff #ffffff 0;
#X obj 244 53 cnv 2 1 187 empty sl76 empty 20 12 0 14 #ac00ff #ffffff 0;
#X obj 248 58 cnv 2 1 182 empty sl77 empty 20 12 0 14 #8c00ff #ffffff 0;
#X obj 251 60 cnv 2 1 180 empty sl78 empty 20 12 0 14 #8000ff #ffffff 0;
#X obj 254 64 cnv 2 1 176 empty sl79 empty 20 12 0 14 #6600ff #ffffff 0;
#X obj 257 68 cnv 2 1 172 empty sl80 empty 20 12 0 14 #4c00ff #ffffff 0;
#X obj 260 71 cnv 2 1 169 empty sl81 empty 20 12 0 14 #3900ff #ffffff 0;
#X obj 264 80 cnv 2 1 160 empty sl82 empty 20 12 0 14 #0000ff #ffffff 0;
#X obj 267 83 cnv 2 1 157 empty sl83 empty 20 12 0 14 #0013ff #ffffff 0;
#X obj 270 90 cnv 2 1 150 empty sl84 empty 20 12 0 14 #0040ff #ffffff 0;
#X obj 273 94 cnv 2 1 146 empty sl85 empty 20 12 0 14 #0059ff #ffffff 0;
#X obj 276 96 cnv 2 1 144 empty sl86 empty 20 12 0 14 #0066ff #ffffff 0;
#X obj 280 102 cnv 2 1 138 empty sl87 empty 20 12 0 14 #008cff #ffffff 0;
#X obj 283 107 cnv 2 1 133 empty sl88 empty 20 12 0 14 #00acff #ffffff 0;
#X obj 286 118 cnv 2 1 122 empty sl89 empty 20 12 0 14 #00f2ff #ffffff 0;
#X obj 289 123 cnv 2 1 117 empty sl90 empty 20 12 0 14 #00ffec #ffffff 0;
#X obj 292 128 cnv 2 1 112 empty sl91 empty 20 12 0 14 #00ffcc #ffffff 0;
#X obj 296 138 cnv 2 1 102 empty sl92 empty 20 12 0 14 #00ff8c #ffffff 0;
#X obj 299 147 cnv 2 1 93 empty sl93 empty 20 12 0 14 #00ff53 #ffffff 0;
#X obj 302 14 cnv 2 1 226 empty sl94 empty 20 12 0 14 #ff0059 #ffffff 0;
#X obj 305 22 cnv 2 1 218 empty sl95 empty 20 12 0 14 #ff008c #ffffff 0;
#X obj 308 29 cnv 2 1 211 empty sl96 empty 20 12 0 14 #ff00b9 #ffffff 0;
#X obj 312 35 cnv 2 1 205 empty sl97 empty 20 12 0 14 #ff00df #ffffff 0;
#X obj 315 41 cnv 2 1 199 empty sl98 empty 20 12 0 14 #f900ff #ffffff 0;
#X obj 318 45 cnv 2 1 195 empty sl99 empty 20 12 0 14 #df00ff #ffffff 0;
#X obj 321 47 cnv 2 1 193 empty sl100 empty 20 12 0 14 #d200ff #ffffff 0;
#X obj 324 53 cnv 2 1 187 empty sl101 empty 20 12 0 14 #ac00ff #ffffff 0;
#X obj 328 62 cnv 2 1 178 empty sl102 empty 20 12 0 14 #7300ff #ffffff 0;
#X obj 331 67 cnv 2 1 173 empty sl103 empty 20 12 0 14 #5300ff #ffffff 0;
#X obj 334 75 cnv 2 1 165 empty sl104 empty 20 12 0 14 #2000ff #ffffff 0;
#X obj 337 80 cnv 2 1 160 empty sl105 empty 20 12 0 14 #0000ff #ffffff 0;
#X obj 340 84 cnv 2 1 156 empty sl106 empty 20 12 0 14 #001aff #ffffff 0;
#X obj 344 88 cnv 2 1 152 empty sl107 empty 20 12 0 14 #0033ff #ffffff 0;
#X obj 347 91 cnv 2 1 149 empty sl108 empty 20 12 0 14 #0046ff #ffffff 0;
#X obj 350 94 cnv 2 1 146 empty sl109 empty 20 12 0 14 #0059ff #ffffff 0;
#X obj 353 99 cnv 2 1 141 empty sl110 empty 20 12 0 14 #0079ff #ffffff 0;
#X obj 356 102 cnv 2 1 138 empty sl111 empty 20 12 0 14 #008cff #ffffff 0;
#X obj 360 109 cnv 2 1 131 empty sl112 empty 20 12 0 14 #00b9ff #ffffff 0;
#X obj 363 115 cnv 2 1 125 empty sl113 empty 20 12 0 14 #00d9ff #ffffff 0;
#X obj 366 116 cnv 2 1 124 empty sl114 empty 20 12 0 14 #00e6ff #ffffff 0;
#X obj 369 119 cnv 2 1 121 empty sl115 empty 20 12 0 14 #00f9ff #ffffff 0;
#X obj 372 121 cnv 2 1 119 empty sl116 empty 20 12 0 14 #00fff9 #ffffff 0;
#X obj 376 127 cnv 2 1 113 empty sl117 empty 20 12 0 14 #00ffd2 #ffffff 0;
#X obj 379 133 cnv 2 1 107 empty sl118 empty 20 12 0 14 #00ffac #ffffff 0;
#X obj 382 136 cnv 2 1 104 empty sl119 empty 20 12 0 14 #00ff99 #ffffff 0;
#X obj 385 141 cnv 2 1 99 empty sl120 empty 20 12 0 14 #00ff79 #ffffff 0;
#X obj 388 144 cnv 2 1 96 empty sl121 empty 20 12 0 14 #00ff66 #ffffff 0;
#X obj 392 148 cnv 2 1 92 empty sl122 empty 20 12 0 14 #00ff4c #ffffff 0;
#X obj 395 152 cnv 2 1 88 empty sl123 empty 20 12 0 14 #00ff33 #ffffff 0;
#X obj 398 155 cnv 2 1 85 empty sl124 empty 20 12 0 14 #00ff20 #ffffff 0;
#X obj 401 159 cnv 2 1 81 empty sl125 empty 20 12 0 14 #00ff06 #ffffff 0;
#X obj 404 164 cnv 2 1 76 empty sl126 empty 20 12 0 14 #1aff00 #ffffff 0;
#X obj 408 169 cnv 2 1 71 empty sl127 empty 20 12 0 14 #39ff00 #ffffff 0;
#X obj 411 174 cnv 2 1 66 empty sl128 empty 20 12 0 14 #59ff00 #ffffff 0;
#X obj 414 176 cnv 2 1 64 empty sl129 empty 20 12 0 14 #66ff00 #ffffff 0;
#X obj 417 179 cnv 2 1 61 empty sl130 empty 20 12 0 14 #79ff00 #ffffff 0;
#X obj 420 181 cnv 2 1 59 empty sl131 empty 20 12 0 14 #86ff00 #ffffff 0;
#X obj 424 185 cnv 2 1 55 empty sl132 empty 20 12 0 14 #9fff00 #ffffff 0;
#X obj 427 188 cnv 2 1 52 empty sl133 empty 20 12 0 14 #b3ff00 #ffffff 0;
#X obj 430 192 cnv 2 1 48 empty sl134 empty 20 12 0 14 #c6ff00 #ffffff 0;
#X obj 433 195 cnv 2 1 45 empty sl135 empty 20 12 0 14 #dfff00 #ffffff 0;
#X obj 436 199 cnv 2 1 41 empty sl136 empty 20 12 0 14 #f9ff00 #ffffff 0;
#X obj 440 202 cnv 2 1 38 empty sl137 empty 20 12 0 14 #fff200 #ffffff 0;
#X obj 443 207 cnv 2 1 33 empty sl138 empty 20 12 0 14 #ffd900 #ffffff 0;
#X obj 446 208 cnv 2 1 32 empty sl139 empty 20 12 0 14 #ffd200 #ffffff 0;
#X obj 449 209 cnv 2 1 31 empty sl140 empty 20 12 0 14 #ffc600 #ffffff 0;
#X obj 452 212 cnv 2 1 28 empty sl141 empty 20 12 0 14 #ffb300 #ffffff 0;
#X obj 456 217 cnv 2 1 23 empty sl142 empty 20 12 0 14 #ff9300 #ffffff 0;
#X obj 459 219 cnv 2 1 21 empty sl143 empty 20 12 0 14 #ff8600 #ffffff 0;
#X obj 462 225 cnv 2 1 15 empty sl144 empty 20 12 0 14 #ff6600 #ffffff 0;
#X obj 465 226 cnv 2 1 14 empty sl145 empty 20 12 0 14 #ff5900 #ffffff 0;
#X obj 468 232 cnv 2 1 8 empty sl146 empty 20 12 0 14 #ff3900 #ffffff 0;
#X coords 0 0 1 1 472 242 2 0 0;
#X restore 279 119 pd sliders;
#N canvas 0 50 600 420 construct 1;
#X obj 59 389 s pd-sliders;
#X msg 9 309 clear;
#X obj 59 129 loop;
#X text 206 8 spacing;
#X obj 59 29 inlet;
#X obj 163 29 inlet;
#X obj 214 29 inlet;
#X obj 273 29 inlet;
#X obj 327 29 inlet;
#X obj 401 29 inlet;
#X obj 455 29 inlet;
#X text 261 8 x offset;
#X text 321 8 y offset;
#X obj 59 309 pack f f f f;
#X msg 59 339 obj \$2 \$3 cnv 2 \$4 0 empty sl\$1 empty 20 12 0 14 #ffffff #ffffff 0, f 30;
#X obj 119 29 inlet;
#X obj 73 269 +;
#N canvas 0 50 625 440 move-slider 0;
#X obj 19 29 inlet;
#X obj 89 29 inlet;
#X obj 169 29 inlet;
#X obj 249 29 inlet;
#X obj 319 29 inlet;
#X obj 389 29 inlet;
#X msg 320 349 symbol sl\$1;
#X obj 9 399 s;
#X obj 9 259 -;
#X msg 9 289 delta 0 \$1;
#X obj 80 234 * -1;
#X obj 9 229 t f f;
#X obj 80 197 moses 1;
#X msg 111 160 0;
#X obj 229 229 *;
#X obj 259 309 pack;
#X obj 80 319 pack;
#X msg 80 349 vis_size \$2 \$1;
#X text 89 8 index;
#X text 9 8 y value;
#N canvas 0 50 450 300 set-pos 0;
#X obj 109 59 inlet;
#X obj 219 59 inlet;
#X obj 159 219 outlet;
#X msg 159 169 pos 81.932 240;
#X msg 219 109 set pos \$1 \$2;
#X connect 0 0 3 0 empty;
#X connect 1 0 4 0 empty;
#X connect 3 0 2 0 empty;
#X connect 4 0 3 0 empty;
#X restore 187 349 pd set-pos;
#X obj 249 269 +;
#X obj 80 92 * -1;
#X text 239 8 x offset;
#X obj 319 159 f;
#X obj 319 189 t f f;
#X obj 80 124 t f b b b;
#X text 149 8 slider width;
#X text 379 8 width - spacing;
#X obj 389 59 nbx 4 18 -1e+37 1e+37 0 1 empty empty empty 0 -8 0 10 #191919 #ffffff #ffffff 1.19728 256;
#X obj 319 59 nbx 4 18 -1e+37 1e+37 0 1 empty empty empty 0 -8 0 10 #191919 #ffffff #ffffff 240 256;
#X obj 249 59 nbx 4 18 -1e+37 1e+37 0 1 empty empty empty 0 -8 0 10 #191919 #ffffff #ffffff 2 256;
#X obj 169 59 nbx 4 18 -1e+37 1e+37 0 1 empty empty empty 0 -8 0 10 #191919 #ffffff #ffffff 3.19728 256;
#X text 319 8 y pos;
#N canvas 0 50 450 300 color 0;
#X msg 129 139 hsl \$1 100 50;
#X msg 129 199 color \$1;
#X obj 129 169 colors;
#X obj 129 109 * 360;
#X obj 129 29 inlet;
#X obj 129 249 outlet;
#X connect 0 0 2 0 empty;
#X connect 1 0 5 0 empty;
#X connect 2 0 1 0 empty;
#X connect 3 0 0 0 empty;
#X connect 4 0 3 0 empty;
#X restore 419 349 pd color;
#X obj 499 29 inlet;
#X obj 19 59 *;
#X text 489 8 height;
#X obj 569 29 inlet;
#X text 559 8 coloring;
#X obj 399 179 spigot;
#X obj 399 249 * -1;
#X obj 399 279 /;
#X text 439 278 bad amy;
#X connect 0 0 36 0 empty;
#X connect 1 0 24 1 empty;
#X connect 2 0 32 0 empty;
#X connect 3 0 31 0 empty;
#X connect 4 0 30 0 empty;
#X connect 5 0 29 0 empty;
#X connect 6 0 7 1 empty;
#X connect 8 0 9 0 empty;
#X connect 9 0 7 0 empty;
#X connect 10 0 16 0 empty;
#X connect 11 0 8 1 empty;
#X connect 11 1 8 0 empty;
#X connect 12 0 11 0 empty;
#X connect 12 0 10 0 empty;
#X connect 12 1 16 0 empty;
#X connect 13 0 12 0 empty;
#X connect 14 0 21 0 empty;
#X connect 15 0 20 1 empty;
#X connect 16 0 17 0 empty;
#X connect 17 0 7 0 empty;
#X connect 20 0 7 0 empty;
#X connect 21 0 15 0 empty;
#X connect 22 0 26 0 empty;
#X connect 24 0 25 0 empty;
#X connect 25 0 14 0 empty;
#X connect 25 1 6 0 empty;
#X connect 26 0 12 0 empty;
#X connect 26 0 40 0 empty;
#X connect 26 1 20 0 empty;
#X connect 26 2 13 0 empty;
#X connect 26 3 24 0 empty;
#X connect 29 0 16 1 empty;
#X connect 30 0 15 1 empty;
#X connect 31 0 21 1 empty;
#X connect 32 0 14 1 empty;
#X connect 34 0 7 0 empty;
#X connect 35 0 36 1 empty;
#X connect 35 0 42 1 empty;
#X connect 36 0 22 0 empty;
#X connect 38 0 40 1 empty;
#X connect 40 0 41 0 empty;
#X connect 41 0 42 0 empty;
#X connect 42 0 34 0 empty;
#X restore 334 349 pd move-slider;
#N canvas 0 50 450 300 resize 0;
#X obj 89 49 inlet;
#X obj 223 49 inlet;
#X msg 129 209 coords 0 0 1 1 \$1 \$2 2;
#X obj 179 99 + 2;
#X obj 129 99 + 2;
#X obj 129 239 s pd-sliders;
#X obj 179 129 t b f;
#X obj 129 182 pack;
#X connect 0 0 4 0 empty;
#X connect 1 0 3 0 empty;
#X connect 2 0 5 0 empty;
#X connect 3 0 6 0 empty;
#X connect 4 0 7 0 empty;
#X connect 6 0 7 0 empty;
#X connect 6 1 7 1 empty;
#X connect 7 0 2 0 empty;
#X restore 369 89 pd resize;
#X text 401 8 width;
#X text 451 8 height;
#X text 29 8 # of sliders;
#X text 114 8 y val;
#X text 159 8 ndx;
#N canvas 0 50 450 300 calc-y-pos 0;
#X obj 39 9 inlet;
#X obj 129 9 inlet;
#X obj 39 269 outlet;
#X obj 129 89 / 2;
#X obj 39 89 * -1;
#X obj 39 139 *;
#X obj 39 199 +;
#X connect 0 0 4 0 empty;
#X connect 1 0 3 0 empty;
#X connect 3 0 5 1 empty;
#X connect 3 0 6 1 empty;
#X connect 4 0 5 0 empty;
#X connect 5 0 6 0 empty;
#X connect 6 0 2 0 empty;
#X restore 359 139 pd calc-y-pos;
#X obj 59 183 t f f;
#X obj 179 279 -;
#X obj 109 129 swap;
#X obj 109 163 /;
#X obj 73 239 *;
#X obj 59 69 t f f b;
#N canvas 0 50 380 384 draw 0;
#X obj 59 9 inlet;
#X obj 59 39 route click;
#X obj 279 219 s arr1;
#X msg 279 179 resize \$1;
#X obj 119 339 tabwrite arr1;
#X obj 179 219 /;
#X obj 108 69 unpack;
#X obj 199 259 *;
#X obj 59 209 /;
#X obj 59 169 f;
#X obj 59 129 t b f;
#X obj 59 99 spigot;
#X obj 59 249 - 0.5;
#X obj 199 299 int;
#X obj 149 9 inlet;
#X obj 199 9 inlet;
#X obj 249 9 inlet;
#X obj 59 349 outlet;
#X obj 219 349 outlet;
#X obj 299 9 inlet;
#X obj 299 49 * -1;
#X obj 59 299 +;
#X obj 299 79 / 2;
#X connect 0 0 1 0 empty;
#X connect 1 0 11 1 empty;
#X connect 1 1 6 0 empty;
#X connect 3 0 2 0 empty;
#X connect 5 0 7 0 empty;
#X connect 6 0 5 0 empty;
#X connect 6 1 11 0 empty;
#X connect 7 0 13 0 empty;
#X connect 8 0 12 0 empty;
#X connect 9 0 8 0 empty;
#X connect 10 0 9 0 empty;
#X connect 10 1 9 1 empty;
#X connect 11 0 10 0 empty;
#X connect 12 0 21 0 empty;
#X connect 13 0 18 0 empty;
#X connect 13 0 4 1 empty;
#X connect 14 0 5 1 empty;
#X connect 15 0 8 1 empty;
#X connect 16 0 7 1 empty;
#X connect 16 0 3 0 empty;
#X connect 19 0 20 0 empty;
#X connect 20 0 22 0 empty;
#X connect 21 0 17 0 empty;
#X connect 21 0 4 0 empty;
#X connect 22 0 21 1 empty;
#X restore 489 159 pd draw;
#X obj 509 29 inlet;
#X text 509 8 pad input;
#X obj 559 279 inlet;
#X text 559 248 coloring;
#X connect 1 0 0 0 empty;
#X connect 2 0 25 0 empty;
#X connect 4 0 30 0 empty;
#X connect 4 0 31 3 empty;
#X connect 5 0 17 1 empty;
#X connect 6 0 26 1 empty;
#X connect 7 0 16 1 empty;
#X connect 7 0 17 3 empty;
#X connect 8 0 24 0 empty;
#X connect 8 0 31 4 empty;
#X connect 9 0 18 0 empty;
#X connect 9 0 27 1 empty;
#X connect 9 0 31 1 empty;
#X connect 10 0 18 1 empty;
#X connect 10 0 24 1 empty;
#X connect 10 0 31 2 empty;
#X connect 10 0 17 6 empty;
#X connect 13 0 14 0 empty;
#X connect 14 0 0 0 empty;
#X connect 15 0 17 0 empty;
#X connect 16 0 13 1 empty;
#X connect 24 0 17 4 empty;
#X connect 24 0 13 2 empty;
#X connect 25 0 13 0 empty;
#X connect 25 1 29 0 empty;
#X connect 26 0 13 3 empty;
#X connect 26 0 17 5 empty;
#X connect 27 0 28 0 empty;
#X connect 27 1 28 1 empty;
#X connect 28 0 17 2 empty;
#X connect 28 0 26 0 empty;
#X connect 28 0 29 1 empty;
#X connect 29 0 16 0 empty;
#X connect 30 0 2 0 empty;
#X connect 30 1 27 0 empty;
#X connect 30 2 1 0 empty;
#X connect 31 0 17 0 empty;
#X connect 31 1 17 1 empty;
#X connect 32 0 31 0 empty;
#X connect 34 0 17 7 empty;
#X restore 79 379 pd construct;
#X obj 79 199 nbx 4 18 1 1e+37 0 0 empty empty empty 0 -8 0 10 #191919 #ffffff #ffffff 0 256;
#X obj 259 49 nbx 4 18 0 1e+37 0 1 empty empty empty 0 -8 0 10 #191919 #ffffff #ffffff 240 256;
#X obj 209 49 nbx 4 18 0 1e+37 0 1 empty empty empty 0 -8 0 10 #191919 #ffffff #ffffff 470 256;
#X obj 164 324 nbx 4 18 -1 1 0 1 empty empty empty 0 -8 0 10 #191919 #ffffff #ffffff -1 256;
#X text 209 28 width & height;
#X text 125 199 n;
#X obj 147 299 nbx 4 18 0 1e+37 0 1 empty empty empty 0 -8 0 10 #191919 #ffffff #ffffff 2 256;
#X text 192 298 x offset;
#X obj 130 274 nbx 4 18 0 1e+37 0 1 empty empty empty 0 -8 0 10 #191919 #ffffff #ffffff 2 256;
#X text 176 274 spacing;
#X obj 113 251 nbx 4 18 0 1e+37 0 0 empty empty empty 0 -8 0 10 #191919 #ffffff #ffffff 0 256;
#X obj 96 229 nbx 4 18 -1e+37 1e+37 0 0 empty empty empty 0 -8 0 10 #191919 #ffffff #ffffff 0 256;
#X text 159 250 index;
#X text 141 227 y value;
#X obj 9 349 bng 25 250 50 0 empty empty empty 17 7 0 10 #191919 #ffffff #ffffff;
#N canvas 0 50 450 250 (subpatch) 0;
#X array arr1 147 float 2;
#X coords 0 1 147 -1 162 82 1;
#X restore 19 29 graph;
#N canvas 0 50 450 300 resize 1;
#X msg 169 139 dim \$1 \$2;
#X obj 174 96 pack2;
#X obj 167 198 outlet;
#X obj 133 41 inlet;
#X obj 207 41 inlet;
#X connect 0 0 2 0 empty;
#X connect 1 0 0 0 empty;
#X connect 3 0 1 0 empty;
#X connect 4 0 1 1 empty;
#X restore 279 89 pd resize;
#X text 211 322 y axis;
#X obj 269 379 tgl 25 0 empty empty empty 17 7 0 10 #191919 #ffffff #ffffff 0 1;
#N canvas 0 50 450 300 rndclr 1;
#X obj 129 9 inlet;
#X obj 129 119 rand.i 0 360;
#X msg 129 159 hsl \$1 100 50;
#X obj 319 9 inlet;
#X msg 269 129 symbol sl\$1;
#X obj 129 49 loop;
#X obj 129 79 t b f;
#X obj 129 259 s;
#X msg 129 219 color \$1;
#X obj 129 189 colors;
#X connect 0 0 5 0 empty;
#X connect 1 0 2 0 empty;
#X connect 2 0 9 0 empty;
#X connect 3 0 5 1 empty;
#X connect 4 0 7 1 empty;
#X connect 5 0 6 0 empty;
#X connect 6 0 1 0 empty;
#X connect 6 1 4 0 empty;
#X connect 8 0 7 0 empty;
#X connect 9 0 8 0 empty;
#X restore 9 379 pd rndclr;
#X connect 0 0 3 8 32.................J....X8+++uB....V++++SA....;
#X connect 4 0 3 0 empty;
#X connect 4 0 23 1 32.................PB...78+++Oj....e++++KJ....;
#X connect 5 0 20 1 32.................F....3C...fA....9....XA....;
#X connect 5 0 3 7 32.................jD...f8+++OIA...X++++iS....;
#X connect 6 0 20 0 32.................O....XD...vC....FA...XA....;
#X connect 6 0 3 6 32.................eD...j+++++GA...4++++iS....;
#X connect 7 0 3 5 empty;
#X connect 10 0 3 4 empty;
#X connect 12 0 3 3 empty;
#X connect 14 0 3 2 empty;
#X connect 15 0 3 1 empty;
#X connect 18 0 23 0 empty;
#X connect 20 0 0 0 empty;
#X connect 22 0 3 9 48.................D....79+++OA....u++++S9+++u2++++j++++68+++O5++++;
