#N canvas 827 239 527 327 12;
#X obj 9 9 cnv 15 471 241 empty empty empty 20 12 0 14 #191919 #ffffff 0;
#N canvas 0 50 450 250 (subpatch) 0;
#X array arr1 32 float 2;
#X coords 0 1 32 -1 142 82 1;
#X restore 549 19 graph;
#X obj 519 419 pack;
#X obj 519 339 nbx 4 18 -1e+37 1e+37 0 0 empty empty empty 0 -8 0 10 #191919 #ffffff #ffffff 0 256;
#X obj 569 339 nbx 4 18 -1e+37 1e+37 0 0 empty empty empty 0 -8 0 10 #191919 #ffffff #ffffff 0 256;
#X obj 549 369 t b f;
#X obj 19 509 s pd-sliders;
#X obj 19 305 loop 32;
#X obj 19 273 bng 25 250 50 0 empty empty empty 17 7 0 10 #191919 #ffffff #ffffff;
#X msg 109 509 clear;
#X obj 619 419 nbx 4 18 -1e+37 1e+37 0 0 empty empty empty 0 -8 0 10 #191919 #ffffff #ffffff 0 256;
#X msg 619 449 symbol sl\$1;
#X obj 519 479 s;
#X obj 169 279 nbx 4 18 -1e+37 1e+37 0 1 empty empty empty 0 -8 0 10 #191919 #ffffff #ffffff 50 256;
#X obj 189 349 /;
#N canvas 0 50 450 300 rnd-color 1;
#X obj 129 39 inlet;
#X obj 129 119 rand.i 0 360;
#X obj 129 199 colors;
#X msg 129 159 hsl \$1 100 50;
#X obj 129 249 outlet;
#X obj 132 79 b;
#X connect 0 0 5 0 empty;
#X connect 1 0 3 0 empty;
#X connect 2 0 4 0 empty;
#X connect 3 0 2 0 empty;
#X connect 5 0 1 0 empty;
#X restore 84 403 pd rnd-color;
#X obj 19 339 t f f b;
#N canvas 0 50 450 300 sliders 1;
#X obj 0 -1 cnv 2 9 241 empty sb0 empty 20 12 0 14 #2200ff #ffffff 0;
#X obj 9 -1 cnv 2 9 241 empty sb1 empty 20 12 0 14 #ff9500 #ffffff 0;
#X obj 18 -1 cnv 2 9 241 empty sb2 empty 20 12 0 14 #ff5500 #ffffff 0;
#X obj 28 -1 cnv 2 9 241 empty sb3 empty 20 12 0 14 #ff00e1 #ffffff 0;
#X obj 37 -1 cnv 2 9 241 empty sb4 empty 20 12 0 14 #ff0026 #ffffff 0;
#X obj 47 -1 cnv 2 9 241 empty sb5 empty 20 12 0 14 #00ff90 #ffffff 0;
#X obj 56 -1 cnv 2 9 241 empty sb6 empty 20 12 0 14 #006fff #ffffff 0;
#X obj 65 -1 cnv 2 9 241 empty sb7 empty 20 12 0 14 #e500ff #ffffff 0;
#X obj 75 -1 cnv 2 9 241 empty sb8 empty 20 12 0 14 #5500ff #ffffff 0;
#X obj 84 -1 cnv 2 9 241 empty sb9 empty 20 12 0 14 #5900ff #ffffff 0;
#X obj 94 -1 cnv 2 9 241 empty sb10 empty 20 12 0 14 #0022ff #ffffff 0;
#X obj 103 -1 cnv 2 9 241 empty sb11 empty 20 12 0 14 #00bbff #ffffff 0;
#X obj 113 -1 cnv 2 9 241 empty sb12 empty 20 12 0 14 #0048ff #ffffff 0;
#X obj 122 -1 cnv 2 9 241 empty sb13 empty 20 12 0 14 #7fff00 #ffffff 0;
#X obj 131 -1 cnv 2 9 241 empty sb14 empty 20 12 0 14 #51ff00 #ffffff 0;
#X obj 141 -1 cnv 2 9 241 empty sb15 empty 20 12 0 14 #ff0d00 #ffffff 0;
#X obj 150 -1 cnv 2 9 241 empty sb16 empty 20 12 0 14 #ff00f7 #ffffff 0;
#X obj 160 -1 cnv 2 9 241 empty sb17 empty 20 12 0 14 #0080ff #ffffff 0;
#X obj 169 -1 cnv 2 9 241 empty sb18 empty 20 12 0 14 #ff0011 #ffffff 0;
#X obj 178 -1 cnv 2 9 241 empty sb19 empty 20 12 0 14 #40ff00 #ffffff 0;
#X obj 188 -1 cnv 2 9 241 empty sb20 empty 20 12 0 14 #eaff00 #ffffff 0;
#X obj 197 -1 cnv 2 9 241 empty sb21 empty 20 12 0 14 #40ff00 #ffffff 0;
#X obj 207 -1 cnv 2 9 241 empty sb22 empty 20 12 0 14 #008cff #ffffff 0;
#X obj 216 -1 cnv 2 9 241 empty sb23 empty 20 12 0 14 #ff5900 #ffffff 0;
#X obj 226 -1 cnv 2 9 241 empty sb24 empty 20 12 0 14 #ff2f00 #ffffff 0;
#X obj 235 -1 cnv 2 9 241 empty sb25 empty 20 12 0 14 #00ff90 #ffffff 0;
#X obj 244 -1 cnv 2 9 241 empty sb26 empty 20 12 0 14 #00fffb #ffffff 0;
#X obj 254 -1 cnv 2 9 241 empty sb27 empty 20 12 0 14 #9100ff #ffffff 0;
#X obj 263 -1 cnv 2 9 241 empty sb28 empty 20 12 0 14 #b700ff #ffffff 0;
#X obj 273 -1 cnv 2 9 241 empty sb29 empty 20 12 0 14 #ff2600 #ffffff 0;
#X obj 282 -1 cnv 2 9 241 empty sb30 empty 20 12 0 14 #9dff00 #ffffff 0;
#X obj 292 -1 cnv 2 9 241 empty sb31 empty 20 12 0 14 #fff700 #ffffff 0;
#X obj 301 -1 cnv 2 9 241 empty sb32 empty 20 12 0 14 #4400ff #ffffff 0;
#X obj 310 -1 cnv 2 9 241 empty sb33 empty 20 12 0 14 #ff0009 #ffffff 0;
#X obj 320 -1 cnv 2 9 241 empty sb34 empty 20 12 0 14 #95ff00 #ffffff 0;
#X obj 329 -1 cnv 2 9 241 empty sb35 empty 20 12 0 14 #ff0037 #ffffff 0;
#X obj 339 -1 cnv 2 9 241 empty sb36 empty 20 12 0 14 #5900ff #ffffff 0;
#X obj 348 -1 cnv 2 9 241 empty sb37 empty 20 12 0 14 #ff4000 #ffffff 0;
#X obj 357 -1 cnv 2 9 241 empty sb38 empty 20 12 0 14 #ff00dd #ffffff 0;
#X obj 367 -1 cnv 2 9 241 empty sb39 empty 20 12 0 14 #00ff77 #ffffff 0;
#X obj 376 -1 cnv 2 9 241 empty sb40 empty 20 12 0 14 #99ff00 #ffffff 0;
#X obj 386 -1 cnv 2 9 241 empty sb41 empty 20 12 0 14 #ff00bf #ffffff 0;
#X obj 395 -1 cnv 2 9 241 empty sb42 empty 20 12 0 14 #00ff22 #ffffff 0;
#X obj 405 -1 cnv 2 9 241 empty sb43 empty 20 12 0 14 #bf00ff #ffffff 0;
#X obj 414 -1 cnv 2 9 241 empty sb44 empty 20 12 0 14 #0066ff #ffffff 0;
#X obj 423 -1 cnv 2 9 241 empty sb45 empty 20 12 0 14 #8000ff #ffffff 0;
#X obj 433 -1 cnv 2 9 241 empty sb46 empty 20 12 0 14 #1500ff #ffffff 0;
#X obj 442 -1 cnv 2 9 241 empty sb47 empty 20 12 0 14 #e100ff #ffffff 0;
#X obj 452 -1 cnv 2 9 241 empty sb48 empty 20 12 0 14 #00ff95 #ffffff 0;
#X obj 461 -1 cnv 2 9 241 empty sb49 empty 20 12 0 14 #ff0073 #ffffff 0;
#X coords 0 0 1 1 471 241 2 0 0;
#X restore 9 9 pd sliders;
#X msg 299 392 coords 0 0 1 1 \$1 \$2 2;
#X obj 299 362 pack2;
#X obj 299 309 nbx 4 18 -1e+37 1e+37 0 0 empty empty empty 0 -8 0 10 #191919 #ffffff #ffffff 0 256;
#X obj 323 332 nbx 4 18 -1e+37 1e+37 0 0 empty empty empty 0 -8 0 10 #191919 #ffffff #ffffff 0 256;
#X obj 189 379 int;
#X msg 19 459 obj \$1 -1 cnv 2 \$3 \$4 empty sb\$2 empty 20 12 0 14 \$5 #ffffff 0, f 33;
#X obj 19 429 pack f f f f s;
#X obj 19 370 expr $f1 * ($f2/$f3);
#X msg 519 449 vis_size \$1 \$2;
#X connect 2 0 26 0 empty;
#X connect 3 0 2 0 empty;
#X connect 4 0 5 0 empty;
#X connect 5 0 2 0 empty;
#X connect 5 1 2 1 empty;
#X connect 7 0 16 0 empty;
#X connect 8 0 7 0 empty;
#X connect 9 0 6 0 48.................D.....++++OA....v++++q9++++o++++p++++e5+++e6++++;
#X connect 10 0 11 0 empty;
#X connect 11 0 12 1 32.................E....f5+++eA....n9+++q.....;
#X connect 13 0 7 1 empty;
#X connect 13 0 14 1 empty;
#X connect 13 0 25 2 empty;
#X connect 14 0 22 0 empty;
#X connect 15 0 24 4 empty;
#X connect 16 0 25 0 empty;
#X connect 16 1 24 1 empty;
#X connect 16 2 15 0 empty;
#X connect 18 0 6 0 empty;
#X connect 19 0 18 0 empty;
#X connect 20 0 19 0 empty;
#X connect 20 0 14 0 empty;
#X connect 20 0 25 1 empty;
#X connect 21 0 19 1 empty;
#X connect 21 0 24 3 empty;
#X connect 22 0 24 2 empty;
#X connect 23 0 6 0 empty;
#X connect 24 0 23 0 empty;
#X connect 25 0 24 0 empty;
#X connect 26 0 12 0 empty;
