#N canvas 827 239 527 327 12;
#X obj 9 9 cnv 15 471 241 empty empty empty 20 12 0 14 #191919 #ffffff 0;
#N canvas 0 50 450 250 (subpatch) 0;
#X array arr1 32 float 2;
#X coords 0 1 32 -1 142 82 1;
#X restore 539 19 graph;
#X obj 109 509 s pd-sliders;
#X msg 39 459 clear;
#X obj 589 299 nbx 4 18 -1e+37 1e+37 0 0 empty empty empty 0 -8 0 10 #191919 #ffffff #ffffff 0 256;
#X msg 589 469 symbol sl\$1;
#X obj 439 509 s;
#X obj 109 269 nbx 4 18 -1e+37 1e+37 0 1 empty empty empty 0 -8 0 10 #191919 #ffffff #ffffff 113 256;
#X obj 254 343 /;
#N canvas 0 50 450 300 rnd-color 1;
#X obj 129 39 inlet;
#X obj 129 99 rand.i 0 360;
#X obj 129 179 colors;
#X msg 129 139 hsl \$1 100 50;
#X obj 129 249 outlet;
#X connect 0 0 1 0 empty;
#X connect 1 0 3 0 empty;
#X connect 2 0 4 0 empty;
#X connect 3 0 2 0 empty;
#X restore 192 399 pd rnd-color;
#X obj 109 343 t f f b;
#N canvas 0 50 450 300 sliders 1;
#X obj 0 120 cnv 2 4 22 empty sl0 empty 20 12 0 14 #006fff #ffffff 0;
#X obj 4 120 cnv 2 4 1 empty sl1 empty 20 12 0 14 #5900ff #ffffff 0;
#X obj 8 118 cnv 2 4 2 empty sl2 empty 20 12 0 14 #ff00d9 #ffffff 0;
#X obj 12 47 cnv 2 4 73 empty sl3 empty 20 12 0 14 #ffd000 #ffffff 0;
#X obj 16 120 cnv 2 4 1 empty sl4 empty 20 12 0 14 #00d0ff #ffffff 0;
#X obj 20 120 cnv 2 4 1 empty sl5 empty 20 12 0 14 #0011ff #ffffff 0;
#X obj 24 120 cnv 2 4 1 empty sl6 empty 20 12 0 14 #ff0037 #ffffff 0;
#X obj 29 25 cnv 2 4 95 empty sl7 empty 20 12 0 14 #0044ff #ffffff 0;
#X obj 33 120 cnv 2 4 1 empty sl8 empty 20 12 0 14 #ff7300 #ffffff 0;
#X obj 37 120 cnv 2 4 1 empty sl9 empty 20 12 0 14 #009dff #ffffff 0;
#X obj 41 5 cnv 2 4 115 empty sl10 empty 20 12 0 14 #00ff19 #ffffff 0;
#X obj 45 96 cnv 2 4 24 empty sl11 empty 20 12 0 14 #0062ff #ffffff 0;
#X obj 49 120 cnv 2 4 55 empty sl12 empty 20 12 0 14 #00c4ff #ffffff 0;
#X obj 54 120 cnv 2 4 48 empty sl13 empty 20 12 0 14 #0055ff #ffffff 0;
#X obj 58 120 cnv 2 4 110 empty sl14 empty 20 12 0 14 #0051ff #ffffff 0;
#X obj 62 120 cnv 2 4 1 empty sl15 empty 20 12 0 14 #00ffae #ffffff 0;
#X obj 66 120 cnv 2 4 1 empty sl16 empty 20 12 0 14 #ff5900 #ffffff 0;
#X obj 70 120 cnv 2 4 1 empty sl17 empty 20 12 0 14 #a600ff #ffffff 0;
#X obj 74 120 cnv 2 4 1 empty sl18 empty 20 12 0 14 #c8ff00 #ffffff 0;
#X obj 79 120 cnv 2 4 1 empty sl19 empty 20 12 0 14 #00fbff #ffffff 0;
#X obj 83 18 cnv 2 4 102 empty sl20 empty 20 12 0 14 #00ff66 #ffffff 0;
#X obj 87 120 cnv 2 4 52 empty sl21 empty 20 12 0 14 #007bff #ffffff 0;
#X obj 91 17 cnv 2 4 103 empty sl22 empty 20 12 0 14 #f200ff #ffffff 0;
#X obj 95 83 cnv 2 4 37 empty sl23 empty 20 12 0 14 #ff0026 #ffffff 0;
#X obj 99 120 cnv 2 4 59 empty sl24 empty 20 12 0 14 #ff8400 #ffffff 0;
#X obj 103 120 cnv 2 4 74 empty sl25 empty 20 12 0 14 #ff0099 #ffffff 0;
#X obj 108 120 cnv 2 4 1 empty sl26 empty 20 12 0 14 #d500ff #ffffff 0;
#X obj 112 94 cnv 2 4 26 empty sl27 empty 20 12 0 14 #ff00d5 #ffffff 0;
#X obj 116 71 cnv 2 4 49 empty sl28 empty 20 12 0 14 #ffcc00 #ffffff 0;
#X obj 120 120 cnv 2 4 16 empty sl29 empty 20 12 0 14 #00a6ff #ffffff 0;
#X obj 124 120 cnv 2 4 57 empty sl30 empty 20 12 0 14 #f7ff00 #ffffff 0;
#X obj 128 113 cnv 2 4 7 empty sl31 empty 20 12 0 14 #a2ff00 #ffffff 0;
#X obj 133 120 cnv 2 4 1 empty sl32 empty 20 12 0 14 #000dff #ffffff 0;
#X obj 137 120 cnv 2 4 5 empty sl33 empty 20 12 0 14 #00ff90 #ffffff 0;
#X obj 141 120 cnv 2 4 11 empty sl34 empty 20 12 0 14 #ff006a #ffffff 0;
#X obj 145 81 cnv 2 4 39 empty sl35 empty 20 12 0 14 #6a00ff #ffffff 0;
#X obj 149 120 cnv 2 4 109 empty sl36 empty 20 12 0 14 #cc00ff #ffffff 0;
#X obj 153 120 cnv 2 4 42 empty sl37 empty 20 12 0 14 #6200ff #ffffff 0;
#X obj 158 120 cnv 2 4 104 empty sl38 empty 20 12 0 14 #3700ff #ffffff 0;
#X obj 162 120 cnv 2 4 41 empty sl39 empty 20 12 0 14 #00ff55 #ffffff 0;
#X obj 166 32 cnv 2 4 88 empty sl40 empty 20 12 0 14 #ff4000 #ffffff 0;
#X obj 170 92 cnv 2 4 28 empty sl41 empty 20 12 0 14 #b3ff00 #ffffff 0;
#X obj 174 120 cnv 2 4 105 empty sl42 empty 20 12 0 14 #ff00b3 #ffffff 0;
#X obj 178 120 cnv 2 4 1 empty sl43 empty 20 12 0 14 #00ff55 #ffffff 0;
#X obj 183 120 cnv 2 4 43 empty sl44 empty 20 12 0 14 #99ff00 #ffffff 0;
#X obj 187 101 cnv 2 4 19 empty sl45 empty 20 12 0 14 #ff004d #ffffff 0;
#X obj 191 66 cnv 2 4 54 empty sl46 empty 20 12 0 14 #40ff00 #ffffff 0;
#X obj 195 79 cnv 2 4 41 empty sl47 empty 20 12 0 14 #f2ff00 #ffffff 0;
#X obj 199 120 cnv 2 4 1 empty sl48 empty 20 12 0 14 #0055ff #ffffff 0;
#X obj 203 120 cnv 2 4 47 empty sl49 empty 20 12 0 14 #ff008c #ffffff 0;
#X obj 207 120 cnv 2 4 107 empty sl50 empty 20 12 0 14 #00ff62 #ffffff 0;
#X obj 212 120 cnv 2 4 1 empty sl51 empty 20 12 0 14 #ff6e00 #ffffff 0;
#X obj 216 16 cnv 2 4 104 empty sl52 empty 20 12 0 14 #ff0062 #ffffff 0;
#X obj 220 9 cnv 2 4 111 empty sl53 empty 20 12 0 14 #ff001e #ffffff 0;
#X obj 224 65 cnv 2 4 55 empty sl54 empty 20 12 0 14 #b700ff #ffffff 0;
#X obj 228 0 cnv 2 4 120 empty sl55 empty 20 12 0 14 #d900ff #ffffff 0;
#X obj 232 120 cnv 2 4 11 empty sl56 empty 20 12 0 14 #ff2a00 #ffffff 0;
#X obj 237 120 cnv 2 4 1 empty sl57 empty 20 12 0 14 #ff006a #ffffff 0;
#X obj 241 58 cnv 2 4 62 empty sl58 empty 20 12 0 14 #0044ff #ffffff 0;
#X obj 245 120 cnv 2 4 1 empty sl59 empty 20 12 0 14 #3700ff #ffffff 0;
#X obj 249 120 cnv 2 4 10 empty sl60 empty 20 12 0 14 #7bff00 #ffffff 0;
#X obj 253 84 cnv 2 4 36 empty sl61 empty 20 12 0 14 #ff00ff #ffffff 0;
#X obj 257 33 cnv 2 4 87 empty sl62 empty 20 12 0 14 #a2ff00 #ffffff 0;
#X obj 262 37 cnv 2 4 83 empty sl63 empty 20 12 0 14 #00d5ff #ffffff 0;
#X obj 266 120 cnv 2 4 3 empty sl64 empty 20 12 0 14 #ff5100 #ffffff 0;
#X obj 270 120 cnv 2 4 20 empty sl65 empty 20 12 0 14 #d5ff00 #ffffff 0;
#X obj 274 120 cnv 2 4 1 empty sl66 empty 20 12 0 14 #ff0040 #ffffff 0;
#X obj 278 120 cnv 2 4 1 empty sl67 empty 20 12 0 14 #00ff55 #ffffff 0;
#X obj 282 120 cnv 2 4 111 empty sl68 empty 20 12 0 14 #00ff15 #ffffff 0;
#X obj 286 120 cnv 2 4 1 empty sl69 empty 20 12 0 14 #00ff8c #ffffff 0;
#X obj 291 101 cnv 2 4 19 empty sl70 empty 20 12 0 14 #ff4000 #ffffff 0;
#X obj 295 120 cnv 2 4 91 empty sl71 empty 20 12 0 14 #004dff #ffffff 0;
#X obj 299 120 cnv 2 4 1 empty sl72 empty 20 12 0 14 #005eff #ffffff 0;
#X obj 303 74 cnv 2 4 46 empty sl73 empty 20 12 0 14 #00ff5d #ffffff 0;
#X obj 307 120 cnv 2 4 1 empty sl74 empty 20 12 0 14 #ff2600 #ffffff 0;
#X obj 311 14 cnv 2 4 106 empty sl75 empty 20 12 0 14 #ff0037 #ffffff 0;
#X obj 316 120 cnv 2 4 13 empty sl76 empty 20 12 0 14 #0015ff #ffffff 0;
#X obj 320 120 cnv 2 4 3 empty sl77 empty 20 12 0 14 #ffc800 #ffffff 0;
#X obj 324 84 cnv 2 4 36 empty sl78 empty 20 12 0 14 #8000ff #ffffff 0;
#X obj 328 120 cnv 2 4 1 empty sl79 empty 20 12 0 14 #00ff77 #ffffff 0;
#X obj 332 120 cnv 2 4 74 empty sl80 empty 20 12 0 14 #2bff00 #ffffff 0;
#X obj 336 120 cnv 2 4 57 empty sl81 empty 20 12 0 14 #8800ff #ffffff 0;
#X obj 341 1 cnv 2 4 119 empty sl82 empty 20 12 0 14 #ff0044 #ffffff 0;
#X obj 345 120 cnv 2 4 49 empty sl83 empty 20 12 0 14 #ff00e1 #ffffff 0;
#X obj 349 120 cnv 2 4 1 empty sl84 empty 20 12 0 14 #0048ff #ffffff 0;
#X obj 353 6 cnv 2 4 114 empty sl85 empty 20 12 0 14 #dd00ff #ffffff 0;
#X obj 357 120 cnv 2 4 37 empty sl86 empty 20 12 0 14 #00ff88 #ffffff 0;
#X obj 361 120 cnv 2 4 4 empty sl87 empty 20 12 0 14 #00ffbf #ffffff 0;
#X obj 366 91 cnv 2 4 29 empty sl88 empty 20 12 0 14 #00ff66 #ffffff 0;
#X obj 370 102 cnv 2 4 18 empty sl89 empty 20 12 0 14 #a6ff00 #ffffff 0;
#X obj 374 81 cnv 2 4 39 empty sl90 empty 20 12 0 14 #00ff40 #ffffff 0;
#X obj 378 120 cnv 2 4 1 empty sl91 empty 20 12 0 14 #eaff00 #ffffff 0;
#X obj 382 120 cnv 2 4 87 empty sl92 empty 20 12 0 14 #ff3700 #ffffff 0;
#X obj 386 120 cnv 2 4 94 empty sl93 empty 20 12 0 14 #00ff04 #ffffff 0;
#X obj 390 28 cnv 2 4 92 empty sl94 empty 20 12 0 14 #d900ff #ffffff 0;
#X obj 395 120 cnv 2 4 1 empty sl95 empty 20 12 0 14 #00ff90 #ffffff 0;
#X obj 399 120 cnv 2 4 30 empty sl96 empty 20 12 0 14 #00ffee #ffffff 0;
#X obj 403 11 cnv 2 4 109 empty sl97 empty 20 12 0 14 #11ff00 #ffffff 0;
#X obj 407 8 cnv 2 4 112 empty sl98 empty 20 12 0 14 #00ff90 #ffffff 0;
#X obj 411 120 cnv 2 4 5 empty sl99 empty 20 12 0 14 #ff5100 #ffffff 0;
#X obj 415 120 cnv 2 4 41 empty sl100 empty 20 12 0 14 #ff0062 #ffffff 0;
#X obj 420 120 cnv 2 4 61 empty sl101 empty 20 12 0 14 #ff6e00 #ffffff 0;
#X obj 424 62 cnv 2 4 58 empty sl102 empty 20 12 0 14 #e100ff #ffffff 0;
#X obj 428 120 cnv 2 4 1 empty sl103 empty 20 12 0 14 #ff1e00 #ffffff 0;
#X obj 432 87 cnv 2 4 33 empty sl104 empty 20 12 0 14 #6200ff #ffffff 0;
#X obj 436 93 cnv 2 4 27 empty sl105 empty 20 12 0 14 #9100ff #ffffff 0;
#X obj 440 120 cnv 2 4 67 empty sl106 empty 20 12 0 14 #c800ff #ffffff 0;
#X obj 445 120 cnv 2 4 1 empty sl107 empty 20 12 0 14 #ff3700 #ffffff 0;
#X obj 449 120 cnv 2 4 1 empty sl108 empty 20 12 0 14 #00d5ff #ffffff 0;
#X obj 453 28 cnv 2 4 92 empty sl109 empty 20 12 0 14 #ffe100 #ffffff 0;
#X obj 457 120 cnv 2 4 1 empty sl110 empty 20 12 0 14 #f7ff00 #ffffff 0;
#X obj 461 120 cnv 2 4 1 empty sl111 empty 20 12 0 14 #00ff77 #ffffff 0;
#X obj 465 120 cnv 2 4 80 empty sl112 empty 20 12 0 14 #00ff51 #ffffff 0;
#X coords 0 0 1 1 471 241 2 0 0;
#X restore 9 9 pd sliders;
#X obj 309 259 nbx 4 18 -1e+37 1e+37 0 1 empty empty empty 0 -8 0 10 #191919 #ffffff #ffffff 470 256;
#X obj 359 259 nbx 4 18 -1e+37 1e+37 0 1 empty empty empty 0 -8 0 10 #191919 #ffffff #ffffff 240 256;
#X obj 254 373 int;
#X obj 123 373 expr $f1 * ($f2/$f3);
#X obj 510 194 nbx 4 18 -1e+37 1e+37 0 1 empty empty empty 0 -8 0 10 #191919 #ffffff #ffffff -36 256;
#X obj 439 359 -;
#X msg 439 389 delta 0 \$1;
#X obj 480 324 * -1;
#X obj 439 329 t f f;
#X obj 480 287 moses 1;
#X msg 549 260 0;
#X obj 510 224 t f b b;
#X msg 569 439 pos 253.717 120;
#X obj 609 339 *;
#X obj 399 299 / 2;
#X obj 609 379 pack;
#X msg 599 409 set pos \$1 \$2;
#X obj 109 429 pack f f f f f s;
#N canvas 0 50 450 300 resize 1;
#X obj 89 49 inlet;
#X obj 223 49 inlet;
#X obj 129 239 outlet;
#X msg 129 189 coords 0 0 1 1 \$1 \$2 2;
#X obj 129 152 pack2;
#X obj 179 119 + 1;
#X obj 129 119 + 1;
#X connect 0 0 6 0 empty;
#X connect 1 0 5 0 empty;
#X connect 3 0 2 0 empty;
#X connect 4 0 3 0 empty;
#X connect 5 0 4 1 empty;
#X connect 6 0 4 0 empty;
#X restore 359 479 pd resize;
#X obj 109 319 loop;
#X obj 109 293 t f f b f b;
#X msg 109 459 obj \$2 \$3 cnv 2 \$4 0 empty sl\$1 empty 20 12 0 14 \$6 #ffffff 0, f 33;
#X obj 459 419 pack;
#X msg 459 449 vis_size \$2 \$1;
#X obj 659 169 rand.i -120 120;
#X obj 709 219 rand.i 0 113;
#X obj 716 131 t b b;
#X obj 719 79 bng 25 250 50 0 empty empty empty 17 7 0 10 #191919 #ffffff #ffffff;
#X connect 3 0 2 0 empty;
#X connect 4 0 5 0 empty;
#X connect 4 0 25 0 empty;
#X connect 5 0 6 1 empty;
#X connect 7 0 32 0 empty;
#X connect 8 0 14 0 empty;
#X connect 8 0 25 1 empty;
#X connect 8 0 34 1 empty;
#X connect 9 0 29 5 empty;
#X connect 10 0 29 0 empty;
#X connect 10 1 15 0 empty;
#X connect 10 2 9 0 empty;
#X connect 12 0 8 0 empty;
#X connect 12 0 15 1 empty;
#X connect 12 0 30 0 empty;
#X connect 13 0 26 0 empty;
#X connect 13 0 30 1 empty;
#X connect 14 0 29 3 empty;
#X connect 15 0 29 1 empty;
#X connect 16 0 23 0 empty;
#X connect 17 0 18 0 empty;
#X connect 18 0 6 0 empty;
#X connect 19 0 34 0 empty;
#X connect 20 0 17 1 empty;
#X connect 20 1 17 0 empty;
#X connect 21 0 20 0 empty;
#X connect 21 0 19 0 empty;
#X connect 21 1 34 0 empty;
#X connect 22 0 21 0 empty;
#X connect 23 0 21 0 empty;
#X connect 23 1 24 0 empty;
#X connect 23 2 22 0 empty;
#X connect 24 0 6 0 empty;
#X connect 25 0 27 0 empty;
#X connect 26 0 27 1 empty;
#X connect 26 0 29 2 empty;
#X connect 27 0 28 0 empty;
#X connect 28 0 24 0 empty;
#X connect 29 0 33 0 empty;
#X connect 30 0 2 0 empty;
#X connect 31 0 10 0 empty;
#X connect 32 0 31 0 empty;
#X connect 32 1 15 2 empty;
#X connect 32 2 8 0 empty;
#X connect 32 3 8 1 empty;
#X connect 32 4 3 0 empty;
#X connect 33 0 2 0 empty;
#X connect 34 0 35 0 empty;
#X connect 35 0 6 0 empty;
#X connect 36 0 16 0 empty;
#X connect 37 0 4 0 empty;
#X connect 38 0 36 0 empty;
#X connect 38 1 37 0 empty;
#X connect 39 0 38 0 empty;
