#N canvas 827 239 760 420 12;
#X obj 9 9 cnv 15 471 241 empty empty empty 20 12 0 14 #191919 #ffffff 0;
#N canvas 0 50 450 250 (subpatch) 0;
#X array arr1 32 float 2;
#X coords 0 1 32 -1 142 82 1;
#X restore 509 19 graph;
#N canvas 0 50 450 300 sliders 1;
#X obj 2 120 cnv 2 34 44 empty sl0 empty 20 12 0 14 #bf00ff #ffffff 0;
#X obj 38 120 cnv 2 34 1 empty sl1 empty 20 12 0 14 #ffb700 #ffffff 0;
#X obj 74 120 cnv 2 34 1 empty sl2 empty 20 12 0 14 #0051ff #ffffff 0;
#X obj 110 61 cnv 2 34 59 empty sl3 empty 20 12 0 14 #001aff #ffffff 0;
#X obj 146 120 cnv 2 34 1 empty sl4 empty 20 12 0 14 #73ff00 #ffffff 0;
#X obj 182 80 cnv 2 34 40 empty sl5 empty 20 12 0 14 #00ff95 #ffffff 0;
#X obj 218 120 cnv 2 34 1 empty sl6 empty 20 12 0 14 #c8ff00 #ffffff 0;
#X obj 255 120 cnv 2 34 1 empty sl7 empty 20 12 0 14 #ffff00 #ffffff 0;
#X obj 291 120 cnv 2 34 1 empty sl8 empty 20 12 0 14 #005eff #ffffff 0;
#X obj 327 120 cnv 2 34 1 empty sl9 empty 20 12 0 14 #ffbb00 #ffffff 0;
#X obj 363 120 cnv 2 34 1 empty sl10 empty 20 12 0 14 #00ff99 #ffffff 0;
#X obj 399 120 cnv 2 34 1 empty sl11 empty 20 12 0 14 #00ff19 #ffffff 0;
#X obj 435 120 cnv 2 34 1 empty sl12 empty 20 12 0 14 #d000ff #ffffff 0;
#X coords 0 0 1 1 472 242 2 0 0;
#X restore 9 9 pd sliders;
#N canvas 0 50 500 530 construct 1;
#X obj 59 429 s pd-sliders;
#X msg 9 349 clear;
#X obj 209 269 /;
#X obj 59 233 t f f b;
#X obj 389 179 / 2;
#X obj 59 199 loop;
#X obj 59 163 t f f b f b;
#X text 206 8 spacing;
#X obj 59 29 inlet;
#X obj 163 29 inlet;
#X obj 214 29 inlet;
#X obj 278 29 inlet;
#X obj 332 29 inlet;
#X obj 396 29 inlet;
#X obj 450 29 inlet;
#X obj 73 269 expr $f1 * ($f2/$f3);
#X text 266 8 x offset;
#X text 326 8 y offset;
#X obj 59 69 t f b;
#X obj 59 349 pack f f f f;
#X msg 59 379 obj \$2 \$3 cnv 2 \$4 0 empty sl\$1 empty 20 12 0 14 #ffffff #ffffff 0, f 30;
#X obj 429 169 * -1;
#X obj 429 219 *;
#X obj 119 29 inlet;
#X obj 229 329 -;
#X obj 73 309 +;
#N canvas 0 50 470 440 move-slider 0;
#X obj 19 29 inlet;
#X obj 89 29 inlet;
#X obj 169 29 inlet;
#X obj 249 29 inlet;
#X obj 319 29 inlet;
#X obj 389 29 inlet;
#X msg 320 349 symbol sl\$1;
#X obj 9 399 s;
#X obj 9 259 -;
#X msg 9 289 delta 0 \$1;
#X obj 80 224 * -1;
#X obj 9 229 t f f;
#X obj 80 187 moses 1;
#X msg 111 150 0;
#X obj 229 229 *;
#X obj 259 309 pack;
#X obj 80 319 pack;
#X msg 80 349 vis_size \$2 \$1;
#X text 89 8 index;
#X text 9 8 y value;
#N canvas 0 50 450 300 set-pos 0;
#X obj 109 59 inlet;
#X obj 219 59 inlet;
#X obj 159 219 outlet;
#X msg 159 169 pos 182.769 120;
#X msg 219 109 set pos \$1 \$2;
#X connect 0 0 3 0 empty;
#X connect 1 0 4 0 empty;
#X connect 3 0 2 0 empty;
#X connect 4 0 3 0 empty;
#X restore 187 349 pd set-pos;
#X obj 249 269 +;
#X obj 80 82 * -1;
#X text 389 8 spacing;
#X text 309 8 y offset;
#X text 239 8 x offset;
#X text 149 8 slider width;
#X obj 319 159 f;
#X obj 319 189 t f f;
#X obj 80 114 t f b b b;
#X connect 0 0 22 0 empty;
#X connect 1 0 27 1 empty;
#X connect 2 0 14 1 empty;
#X connect 3 0 21 1 empty;
#X connect 4 0 15 1 empty;
#X connect 5 0 16 1 empty;
#X connect 6 0 7 1 empty;
#X connect 8 0 9 0 empty;
#X connect 9 0 7 0 empty;
#X connect 10 0 16 0 empty;
#X connect 11 0 8 1 empty;
#X connect 11 1 8 0 empty;
#X connect 12 0 11 0 empty;
#X connect 12 0 10 0 empty;
#X connect 12 1 16 0 empty;
#X connect 13 0 12 0 empty;
#X connect 14 0 21 0 empty;
#X connect 15 0 20 1 empty;
#X connect 16 0 17 0 empty;
#X connect 17 0 7 0 empty;
#X connect 20 0 7 0 empty;
#X connect 21 0 15 0 empty;
#X connect 22 0 29 0 empty;
#X connect 27 0 28 0 empty;
#X connect 28 0 14 0 empty;
#X connect 28 1 6 0 empty;
#X connect 29 0 12 0 empty;
#X connect 29 1 20 0 empty;
#X connect 29 2 13 0 empty;
#X connect 29 3 27 0 empty;
#X restore 319 389 pd move-slider;
#N canvas 0 50 450 300 resize 0;
#X obj 89 49 inlet;
#X obj 223 49 inlet;
#X msg 129 189 coords 0 0 1 1 \$1 \$2 2;
#X obj 129 152 pack2;
#X obj 179 119 + 2;
#X obj 129 119 + 2;
#X obj 129 219 s pd-sliders;
#X connect 0 0 5 0 empty;
#X connect 1 0 4 0 empty;
#X connect 2 0 6 0 empty;
#X connect 3 0 2 0 empty;
#X connect 4 0 3 1 empty;
#X connect 5 0 3 0 empty;
#X restore 409 79 pd resize;
#X text 396 8 width;
#X text 446 8 height;
#X obj 109 129 f;
#X obj 389 149 f;
#X text 9 8 # of sliders;
#X text 114 8 y val;
#X text 159 8 ndx;
#X obj 399 259 +;
#X connect 1 0 0 0 empty;
#X connect 2 0 24 0 empty;
#X connect 2 0 26 2 empty;
#X connect 3 0 19 0 empty;
#X connect 3 1 15 0 empty;
#X connect 4 0 22 1 empty;
#X connect 4 0 35 0 empty;
#X connect 5 0 3 0 empty;
#X connect 6 0 5 0 empty;
#X connect 6 1 15 2 empty;
#X connect 6 2 2 0 empty;
#X connect 6 3 2 1 empty;
#X connect 6 4 1 0 empty;
#X connect 8 0 18 0 empty;
#X connect 9 0 26 1 empty;
#X connect 10 0 24 1 empty;
#X connect 11 0 25 1 empty;
#X connect 11 0 26 3 empty;
#X connect 12 0 21 0 empty;
#X connect 13 0 27 0 empty;
#X connect 13 0 30 1 empty;
#X connect 14 0 27 1 empty;
#X connect 14 0 31 1 empty;
#X connect 15 0 25 0 empty;
#X connect 18 0 6 0 empty;
#X connect 18 1 30 0 empty;
#X connect 18 1 31 0 empty;
#X connect 19 0 20 0 empty;
#X connect 20 0 0 0 empty;
#X connect 21 0 22 0 empty;
#X connect 22 0 35 1 empty;
#X connect 23 0 26 0 empty;
#X connect 24 0 19 3 empty;
#X connect 24 0 26 5 empty;
#X connect 25 0 19 1 empty;
#X connect 30 0 15 1 empty;
#X connect 30 0 2 0 empty;
#X connect 31 0 4 0 empty;
#X connect 35 0 19 2 empty;
#X connect 35 0 26 4 empty;
#X restore 509 349 pd construct;
#X obj 509 169 nbx 4 18 1 1e+37 0 0 empty empty empty 0 -8 0 10 #191919 #ffffff #ffffff 0 256;
#X obj 661 319 nbx 4 18 0 1e+37 0 1 empty empty empty 0 -8 0 10 #191919 #ffffff #ffffff 240 256;
#X obj 611 319 nbx 4 18 0 1e+37 0 1 empty empty empty 0 -8 0 10 #191919 #ffffff #ffffff 470 256;
#X obj 594 294 nbx 4 18 -1e+37 1e+37 0 1 empty empty empty 0 -8 0 10 #191919 #ffffff #ffffff -0 256;
#X text 659 348 width & height;
#X text 555 169 n;
#X obj 577 269 nbx 4 18 0 1e+37 0 1 empty empty empty 0 -8 0 10 #191919 #ffffff #ffffff 2 256;
#X text 622 268 x offset;
#X obj 560 244 nbx 4 18 0 1e+37 0 1 empty empty empty 0 -8 0 10 #191919 #ffffff #ffffff 2 256;
#X text 606 244 spacing;
#X obj 543 221 nbx 4 18 0 1e+37 0 0 empty empty empty 0 -8 0 10 #191919 #ffffff #ffffff 0 256;
#X obj 526 199 nbx 4 18 -1e+37 1e+37 0 0 empty empty empty 0 -8 0 10 #191919 #ffffff #ffffff 0 256;
#X text 589 220 index;
#X text 571 197 y value;
#X obj 439 319 bng 25 250 50 0 empty empty empty 17 7 0 10 #191919 #ffffff #ffffff;
#N canvas 0 50 450 300 color 1;
#X obj 129 9 inlet;
#X obj 129 119 rand.i 0 360;
#X msg 129 159 hsl \$1 100 50;
#X obj 319 9 inlet;
#X msg 269 129 symbol sl\$1;
#X obj 129 49 loop;
#X obj 129 79 t b f;
#X obj 129 259 s;
#X msg 129 219 color \$1;
#X obj 129 189 colors;
#X connect 0 0 5 0 empty;
#X connect 1 0 2 0 empty;
#X connect 2 0 9 0 empty;
#X connect 3 0 5 1 empty;
#X connect 4 0 7 1 empty;
#X connect 5 0 6 0 empty;
#X connect 6 0 1 0 empty;
#X connect 6 1 4 0 empty;
#X connect 8 0 7 0 empty;
#X connect 9 0 8 0 empty;
#X restore 439 349 pd color;
#X text 641 292 y axis (-1 to 1);
#X connect 4 0 3 0 empty;
#X connect 4 0 19 1 empty;
#X connect 5 0 3 7 empty;
#X connect 6 0 3 6 empty;
#X connect 7 0 3 5 empty;
#X connect 10 0 3 4 empty;
#X connect 12 0 3 3 empty;
#X connect 14 0 3 2 empty;
#X connect 15 0 3 1 empty;
#X connect 18 0 19 0 empty;
