#N canvas 827 239 760 420 12;
#X obj 9 9 cnv 15 471 241 empty empty empty 20 12 0 14 #191919 #ffffff 0;
#N canvas 0 50 450 300 sliders 1;
#X obj 2 120 cnv 2 4 70 empty sl0 empty 20 12 0 14 #009dff #ffffff 0;
#X obj 8 120 cnv 2 4 109 empty sl1 empty 20 12 0 14 #00c8ff #ffffff 0;
#X obj 14 120 cnv 2 4 108 empty sl2 empty 20 12 0 14 #00ff37 #ffffff 0;
#X obj 20 120 cnv 2 4 107 empty sl3 empty 20 12 0 14 #ff1500 #ffffff 0;
#X obj 27 33 cnv 2 4 87 empty sl4 empty 20 12 0 14 #ff00ee #ffffff 0;
#X obj 33 91 cnv 2 4 29 empty sl5 empty 20 12 0 14 #ff0059 #ffffff 0;
#X obj 39 91 cnv 2 4 29 empty sl6 empty 20 12 0 14 #c8ff00 #ffffff 0;
#X obj 45 92 cnv 2 4 28 empty sl7 empty 20 12 0 14 #04ff00 #ffffff 0;
#X obj 52 94 cnv 2 4 26 empty sl8 empty 20 12 0 14 #9100ff #ffffff 0;
#X obj 58 96 cnv 2 4 24 empty sl9 empty 20 12 0 14 #ff006f #ffffff 0;
#X obj 64 96 cnv 2 4 24 empty sl10 empty 20 12 0 14 #48ff00 #ffffff 0;
#X obj 70 97 cnv 2 4 23 empty sl11 empty 20 12 0 14 #ff0011 #ffffff 0;
#X obj 77 98 cnv 2 4 22 empty sl12 empty 20 12 0 14 #00c8ff #ffffff 0;
#X obj 83 100 cnv 2 4 20 empty sl13 empty 20 12 0 14 #00ffb2 #ffffff 0;
#X obj 89 100 cnv 2 4 20 empty sl14 empty 20 12 0 14 #4c00ff #ffffff 0;
#X obj 96 100 cnv 2 4 20 empty sl15 empty 20 12 0 14 #ffd500 #ffffff 0;
#X obj 102 100 cnv 2 4 20 empty sl16 empty 20 12 0 14 #008cff #ffffff 0;
#X obj 108 100 cnv 2 4 20 empty sl17 empty 20 12 0 14 #aeff00 #ffffff 0;
#X obj 114 100 cnv 2 4 20 empty sl18 empty 20 12 0 14 #8000ff #ffffff 0;
#X obj 121 100 cnv 2 4 20 empty sl19 empty 20 12 0 14 #b3ff00 #ffffff 0;
#X obj 127 100 cnv 2 4 20 empty sl20 empty 20 12 0 14 #ff0051 #ffffff 0;
#X obj 133 100 cnv 2 4 20 empty sl21 empty 20 12 0 14 #7bff00 #ffffff 0;
#X obj 139 100 cnv 2 4 20 empty sl22 empty 20 12 0 14 #00eaff #ffffff 0;
#X obj 146 100 cnv 2 4 20 empty sl23 empty 20 12 0 14 #6600ff #ffffff 0;
#X obj 152 105 cnv 2 4 15 empty sl24 empty 20 12 0 14 #007bff #ffffff 0;
#X obj 158 119 cnv 2 4 1 empty sl25 empty 20 12 0 14 #ffa600 #ffffff 0;
#X obj 164 120 cnv 2 4 4 empty sl26 empty 20 12 0 14 #91ff00 #ffffff 0;
#X obj 171 120 cnv 2 4 11 empty sl27 empty 20 12 0 14 #ff0044 #ffffff 0;
#X obj 177 120 cnv 2 4 28 empty sl28 empty 20 12 0 14 #ff0055 #ffffff 0;
#X obj 183 120 cnv 2 4 50 empty sl29 empty 20 12 0 14 #00ff62 #ffffff 0;
#X obj 190 120 cnv 2 4 60 empty sl30 empty 20 12 0 14 #00ff95 #ffffff 0;
#X obj 196 120 cnv 2 4 60 empty sl31 empty 20 12 0 14 #ff00e6 #ffffff 0;
#X obj 202 120 cnv 2 4 60 empty sl32 empty 20 12 0 14 #99ff00 #ffffff 0;
#X obj 208 120 cnv 2 4 60 empty sl33 empty 20 12 0 14 #0004ff #ffffff 0;
#X obj 215 120 cnv 2 4 56 empty sl34 empty 20 12 0 14 #ff0048 #ffffff 0;
#X obj 221 120 cnv 2 4 55 empty sl35 empty 20 12 0 14 #c3ff00 #ffffff 0;
#X obj 227 120 cnv 2 4 51 empty sl36 empty 20 12 0 14 #8c00ff #ffffff 0;
#X obj 233 120 cnv 2 4 38 empty sl37 empty 20 12 0 14 #00aeff #ffffff 0;
#X obj 240 120 cnv 2 4 17 empty sl38 empty 20 12 0 14 #ff0022 #ffffff 0;
#X obj 246 120 cnv 2 4 15 empty sl39 empty 20 12 0 14 #00ff84 #ffffff 0;
#X obj 252 120 cnv 2 4 13 empty sl40 empty 20 12 0 14 #00ff59 #ffffff 0;
#X obj 258 112 cnv 2 4 8 empty sl41 empty 20 12 0 14 #00b3ff #ffffff 0;
#X obj 265 101 cnv 2 4 19 empty sl42 empty 20 12 0 14 #ff0800 #ffffff 0;
#X obj 271 85 cnv 2 4 35 empty sl43 empty 20 12 0 14 #ff00dd #ffffff 0;
#X obj 277 73 cnv 2 4 47 empty sl44 empty 20 12 0 14 #dd00ff #ffffff 0;
#X obj 284 62 cnv 2 4 58 empty sl45 empty 20 12 0 14 #f2ff00 #ffffff 0;
#X obj 290 62 cnv 2 4 58 empty sl46 empty 20 12 0 14 #d9ff00 #ffffff 0;
#X obj 296 67 cnv 2 4 53 empty sl47 empty 20 12 0 14 #00ff7f #ffffff 0;
#X obj 302 80 cnv 2 4 40 empty sl48 empty 20 12 0 14 #00ffee #ffffff 0;
#X obj 309 86 cnv 2 4 34 empty sl49 empty 20 12 0 14 #ff00ae #ffffff 0;
#X obj 315 102 cnv 2 4 18 empty sl50 empty 20 12 0 14 #ff005e #ffffff 0;
#X obj 321 117 cnv 2 4 3 empty sl51 empty 20 12 0 14 #ff00fb #ffffff 0;
#X obj 327 120 cnv 2 4 23 empty sl52 empty 20 12 0 14 #d0ff00 #ffffff 0;
#X obj 334 96 cnv 2 4 24 empty sl53 empty 20 12 0 14 #ff5e00 #ffffff 0;
#X obj 340 120 cnv 2 4 15 empty sl54 empty 20 12 0 14 #00ffa6 #ffffff 0;
#X obj 346 120 cnv 2 4 1 empty sl55 empty 20 12 0 14 #ff0077 #ffffff 0;
#X obj 352 1 cnv 2 4 119 empty sl56 empty 20 12 0 14 #ff6600 #ffffff 0;
#X obj 359 120 cnv 2 4 22 empty sl57 empty 20 12 0 14 #ff0000 #ffffff 0;
#X obj 365 24 cnv 2 4 96 empty sl58 empty 20 12 0 14 #00ffd9 #ffffff 0;
#X obj 371 24 cnv 2 4 96 empty sl59 empty 20 12 0 14 #ff00a2 #ffffff 0;
#X obj 378 24 cnv 2 4 96 empty sl60 empty 20 12 0 14 #00eaff #ffffff 0;
#X obj 384 24 cnv 2 4 96 empty sl61 empty 20 12 0 14 #fff200 #ffffff 0;
#X obj 390 24 cnv 2 4 96 empty sl62 empty 20 12 0 14 #ff000d #ffffff 0;
#X obj 396 24 cnv 2 4 96 empty sl63 empty 20 12 0 14 #00ff73 #ffffff 0;
#X obj 403 24 cnv 2 4 96 empty sl64 empty 20 12 0 14 #00ff44 #ffffff 0;
#X obj 409 24 cnv 2 4 96 empty sl65 empty 20 12 0 14 #1eff00 #ffffff 0;
#X obj 415 20 cnv 2 4 100 empty sl66 empty 20 12 0 14 #0033ff #ffffff 0;
#X obj 421 22 cnv 2 4 98 empty sl67 empty 20 12 0 14 #40ff00 #ffffff 0;
#X obj 428 120 cnv 2 4 108 empty sl68 empty 20 12 0 14 #00bbff #ffffff 0;
#X obj 434 120 cnv 2 4 109 empty sl69 empty 20 12 0 14 #0004ff #ffffff 0;
#X obj 440 120 cnv 2 4 109 empty sl70 empty 20 12 0 14 #00ff9d #ffffff 0;
#X obj 446 120 cnv 2 4 109 empty sl71 empty 20 12 0 14 #c800ff #ffffff 0;
#X obj 453 120 cnv 2 4 109 empty sl72 empty 20 12 0 14 #00a2ff #ffffff 0;
#X obj 459 120 cnv 2 4 109 empty sl73 empty 20 12 0 14 #0009ff #ffffff 0;
#X obj 465 120 cnv 2 4 110 empty sl74 empty 20 12 0 14 #00ff59 #ffffff 0;
#X coords 0 0 1 1 472 242 2 0 0;
#X restore 9 9 pd sliders;
#N canvas 0 50 500 420 construct 1;
#X obj 59 389 s pd-sliders;
#X msg 9 309 clear;
#X obj 59 129 loop;
#X text 206 8 spacing;
#X obj 59 29 inlet;
#X obj 163 29 inlet;
#X obj 214 29 inlet;
#X obj 273 29 inlet;
#X obj 327 29 inlet;
#X obj 401 29 inlet;
#X obj 455 29 inlet;
#X text 261 8 x offset;
#X text 321 8 y offset;
#X obj 59 309 pack f f f f;
#X msg 59 339 obj \$2 \$3 cnv 2 \$4 0 empty sl\$1 empty 20 12 0 14 #ffffff #ffffff 0, f 30;
#X obj 119 29 inlet;
#X obj 73 269 +;
#N canvas 0 50 470 440 move-slider 0;
#X obj 19 29 inlet;
#X obj 89 29 inlet;
#X obj 169 29 inlet;
#X obj 249 29 inlet;
#X obj 319 29 inlet;
#X obj 389 29 inlet;
#X msg 320 349 symbol sl\$1;
#X obj 9 399 s;
#X obj 9 259 -;
#X msg 9 289 delta 0 \$1;
#X obj 80 224 * -1;
#X obj 9 229 t f f;
#X obj 80 187 moses 1;
#X msg 111 150 0;
#X obj 229 229 *;
#X obj 259 309 pack;
#X obj 80 319 pack;
#X msg 80 349 vis_size \$2 \$1;
#X text 89 8 index;
#X text 9 8 y value;
#N canvas 0 50 450 300 set-pos 0;
#X obj 109 59 inlet;
#X obj 219 59 inlet;
#X obj 159 219 outlet;
#X msg 159 169 pos 465.733 120;
#X msg 219 109 set pos \$1 \$2;
#X connect 0 0 3 0 empty;
#X connect 1 0 4 0 empty;
#X connect 3 0 2 0 empty;
#X connect 4 0 3 0 empty;
#X restore 187 349 pd set-pos;
#X obj 249 269 +;
#X obj 80 82 * -1;
#X text 239 8 x offset;
#X obj 319 159 f;
#X obj 319 189 t f f;
#X obj 80 114 t f b b b;
#X text 149 8 slider width;
#X text 379 8 width - spacing;
#X obj 389 59 nbx 4 18 -1e+37 1e+37 0 1 empty empty empty 0 -8 0 10 #191919 #ffffff #ffffff 4.26667 256;
#X obj 319 59 nbx 4 18 -1e+37 1e+37 0 1 empty empty empty 0 -8 0 10 #191919 #ffffff #ffffff 120 256;
#X obj 249 59 nbx 4 18 -1e+37 1e+37 0 1 empty empty empty 0 -8 0 10 #191919 #ffffff #ffffff 2 256;
#X obj 169 59 nbx 4 18 -1e+37 1e+37 0 1 empty empty empty 0 -8 0 10 #191919 #ffffff #ffffff 6.26667 256;
#X text 319 8 y pos;
#X connect 0 0 22 0 empty;
#X connect 1 0 24 1 empty;
#X connect 2 0 32 0 empty;
#X connect 3 0 31 0 empty;
#X connect 4 0 30 0 empty;
#X connect 5 0 29 0 empty;
#X connect 6 0 7 1 empty;
#X connect 8 0 9 0 empty;
#X connect 9 0 7 0 empty;
#X connect 10 0 16 0 empty;
#X connect 11 0 8 1 empty;
#X connect 11 1 8 0 empty;
#X connect 12 0 11 0 empty;
#X connect 12 0 10 0 empty;
#X connect 12 1 16 0 empty;
#X connect 13 0 12 0 empty;
#X connect 14 0 21 0 empty;
#X connect 15 0 20 1 empty;
#X connect 16 0 17 0 empty;
#X connect 17 0 7 0 empty;
#X connect 20 0 7 0 empty;
#X connect 21 0 15 0 empty;
#X connect 22 0 26 0 empty;
#X connect 24 0 25 0 empty;
#X connect 25 0 14 0 empty;
#X connect 25 1 6 0 empty;
#X connect 26 0 12 0 empty;
#X connect 26 1 20 0 empty;
#X connect 26 2 13 0 empty;
#X connect 26 3 24 0 empty;
#X connect 29 0 16 1 empty;
#X connect 30 0 15 1 empty;
#X connect 31 0 21 1 empty;
#X connect 32 0 14 1 empty;
#X restore 334 349 pd move-slider;
#N canvas 0 50 450 300 resize 0;
#X obj 89 49 inlet;
#X obj 223 49 inlet;
#X msg 129 209 coords 0 0 1 1 \$1 \$2 2;
#X obj 179 99 + 2;
#X obj 129 99 + 2;
#X obj 129 239 s pd-sliders;
#X obj 179 129 t b f;
#X obj 129 182 pack;
#X connect 0 0 4 0 empty;
#X connect 1 0 3 0 empty;
#X connect 2 0 5 0 empty;
#X connect 3 0 6 0 empty;
#X connect 4 0 7 0 empty;
#X connect 6 0 7 0 empty;
#X connect 6 1 7 1 empty;
#X connect 7 0 2 0 empty;
#X restore 369 89 pd resize;
#X text 401 8 width;
#X text 451 8 height;
#X text 29 8 # of sliders;
#X text 114 8 y val;
#X text 159 8 ndx;
#N canvas 0 50 450 300 calc-y-pos 0;
#X obj 39 9 inlet;
#X obj 129 9 inlet;
#X obj 39 269 outlet;
#X obj 129 89 / 2;
#X obj 39 89 * -1;
#X obj 39 139 *;
#X obj 39 199 +;
#X connect 0 0 4 0 empty;
#X connect 1 0 3 0 empty;
#X connect 3 0 5 1 empty;
#X connect 3 0 6 1 empty;
#X connect 4 0 5 0 empty;
#X connect 5 0 6 0 empty;
#X connect 6 0 2 0 empty;
#X restore 359 139 pd calc-y-pos;
#X obj 59 183 t f f;
#X obj 179 279 -;
#X obj 109 129 swap;
#X obj 109 163 /;
#X obj 73 239 *;
#X obj 59 69 t f f b;
#X obj 429 269 *;
#X connect 1 0 0 0 empty;
#X connect 2 0 25 0 empty;
#X connect 4 0 30 0 empty;
#X connect 5 0 17 1 empty;
#X connect 6 0 26 1 empty;
#X connect 7 0 16 1 empty;
#X connect 7 0 17 3 empty;
#X connect 8 0 24 0 empty;
#X connect 9 0 18 0 empty;
#X connect 9 0 27 1 empty;
#X connect 10 0 18 1 empty;
#X connect 10 0 24 1 empty;
#X connect 10 0 31 1 empty;
#X connect 13 0 14 0 empty;
#X connect 14 0 0 0 empty;
#X connect 15 0 31 0 empty;
#X connect 16 0 13 1 empty;
#X connect 24 0 17 4 empty;
#X connect 24 0 13 2 empty;
#X connect 25 0 13 0 empty;
#X connect 25 1 29 0 empty;
#X connect 26 0 13 3 empty;
#X connect 26 0 17 5 empty;
#X connect 27 0 28 0 empty;
#X connect 27 1 28 1 empty;
#X connect 28 0 17 2 empty;
#X connect 28 0 26 0 empty;
#X connect 28 0 29 1 empty;
#X connect 29 0 16 0 empty;
#X connect 30 0 2 0 empty;
#X connect 30 1 27 0 empty;
#X connect 30 2 1 0 empty;
#X connect 31 0 17 0 empty;
#X restore 509 349 pd construct;
#X obj 509 169 nbx 4 18 1 1e+37 0 0 empty empty empty 0 -8 0 10 #191919 #ffffff #ffffff 0 256;
#X obj 661 319 nbx 4 18 0 1e+37 0 1 empty empty empty 0 -8 0 10 #191919 #ffffff #ffffff 240 256;
#X obj 611 319 nbx 4 18 0 1e+37 0 1 empty empty empty 0 -8 0 10 #191919 #ffffff #ffffff 470 256;
#X obj 594 294 nbx 4 18 -1e+37 1e+37 0 1 empty empty empty 0 -8 0 10 #191919 #ffffff #ffffff 0 256;
#X text 659 348 width & height;
#X text 555 169 n;
#X obj 577 269 nbx 4 18 0 1e+37 0 1 empty empty empty 0 -8 0 10 #191919 #ffffff #ffffff 2 256;
#X text 622 268 x offset;
#X obj 560 244 nbx 4 18 0 1e+37 0 1 empty empty empty 0 -8 0 10 #191919 #ffffff #ffffff 2 256;
#X text 606 244 spacing;
#X obj 543 221 nbx 4 18 0 1e+37 0 0 empty empty empty 0 -8 0 10 #191919 #ffffff #ffffff 0 256;
#X obj 526 199 nbx 4 18 -1e+37 1e+37 0 0 empty empty empty 0 -8 0 10 #191919 #ffffff #ffffff 0 256;
#X text 589 220 index;
#X text 571 197 y value;
#X obj 439 319 bng 25 250 50 0 empty empty empty 17 7 0 10 #191919 #ffffff #ffffff;
#N canvas 0 50 450 300 color 1;
#X obj 129 9 inlet;
#X obj 129 119 rand.i 0 360;
#X msg 129 159 hsl \$1 100 50;
#X obj 319 9 inlet;
#X msg 269 129 symbol sl\$1;
#X obj 129 49 loop;
#X obj 129 79 t b f;
#X obj 129 259 s;
#X msg 129 219 color \$1;
#X obj 129 189 colors;
#X connect 0 0 5 0 empty;
#X connect 1 0 2 0 empty;
#X connect 2 0 9 0 empty;
#X connect 3 0 5 1 empty;
#X connect 4 0 7 1 empty;
#X connect 5 0 6 0 empty;
#X connect 6 0 1 0 empty;
#X connect 6 1 4 0 empty;
#X connect 8 0 7 0 empty;
#X connect 9 0 8 0 empty;
#X restore 439 349 pd color;
#X text 641 292 y axis (-1 to 1);
#N canvas 0 50 450 250 (subpatch) 0;
#X array arr1 75 float 2;
#X coords 0 1 75 -1 162 82 1;
#X restore 499 19 graph;
#X connect 3 0 2 0 empty;
#X connect 3 0 18 1 empty;
#X connect 4 0 2 7 empty;
#X connect 5 0 2 6 empty;
#X connect 6 0 2 5 empty;
#X connect 9 0 2 4 empty;
#X connect 11 0 2 3 empty;
#X connect 13 0 2 2 empty;
#X connect 14 0 2 1 empty;
#X connect 17 0 18 0 empty;
