#N canvas 827 239 527 327 12;
#X obj 9 9 cnv 15 471 241 empty empty empty 20 12 0 14 #191919 #ffffff 0;
#N canvas 0 50 450 250 (subpatch) 0;
#X array arr1 32 float 2;
#X coords 0 1 32 -1 142 82 1;
#X restore 549 19 graph;
#X msg 519 449 vis_size \$1 \$2;
#X obj 519 419 pack;
#X obj 519 339 nbx 4 18 -1e+37 1e+37 0 0 empty empty empty 0 -8 0 10 #191919 #ffffff #ffffff 0 256;
#X obj 569 339 nbx 4 18 -1e+37 1e+37 0 0 empty empty empty 0 -8 0 10 #191919 #ffffff #ffffff 0 256;
#X obj 549 369 t b f;
#N canvas 0 50 450 300 sliders 1;
#X obj 3 -1 cnv 2 1 243 empty empty empty 20 12 0 14 #000000 #ffffff 0;
#X obj 18 -1 cnv 2 1 243 empty empty empty 20 12 0 14 #006fff #ffffff 0;
#X obj 33 -1 cnv 2 1 243 empty empty empty 20 12 0 14 #00eaff #ffffff 0;
#X obj 49 -1 cnv 2 1 243 empty empty empty 20 12 0 14 #3bff00 #ffffff 0;
#X obj 64 -1 cnv 2 1 243 empty empty empty 20 12 0 14 #00ff44 #ffffff 0;
#X obj 80 -1 cnv 2 1 243 empty empty empty 20 12 0 14 #84ff00 #ffffff 0;
#X obj 95 -1 cnv 2 1 243 empty empty empty 20 12 0 14 #0080ff #ffffff 0;
#X obj 111 -1 cnv 2 1 243 empty empty empty 20 12 0 14 #00ff3b #ffffff 0;
#X obj 126 -1 cnv 2 1 243 empty empty empty 20 12 0 14 #e1ff00 #ffffff 0;
#X obj 142 -1 cnv 2 1 243 empty empty empty 20 12 0 14 #1e00ff #ffffff 0;
#X obj 157 -1 cnv 2 1 243 empty empty empty 20 12 0 14 #48ff00 #ffffff 0;
#X obj 173 -1 cnv 2 1 243 empty empty empty 20 12 0 14 #ffd500 #ffffff 0;
#X obj 188 -1 cnv 2 1 243 empty empty empty 20 12 0 14 #ff00fb #ffffff 0;
#X obj 204 -1 cnv 2 1 243 empty empty empty 20 12 0 14 #ff00b3 #ffffff 0;
#X obj 219 -1 cnv 2 1 243 empty empty empty 20 12 0 14 #ff0400 #ffffff 0;
#X obj 235 -1 cnv 2 1 243 empty empty empty 20 12 0 14 #d000ff #ffffff 0;
#X obj 250 -1 cnv 2 1 243 empty empty empty 20 12 0 14 #d000ff #ffffff 0;
#X obj 266 -1 cnv 2 1 243 empty empty empty 20 12 0 14 #ff7b00 #ffffff 0;
#X obj 281 -1 cnv 2 1 243 empty empty empty 20 12 0 14 #9900ff #ffffff 0;
#X obj 297 -1 cnv 2 1 243 empty empty empty 20 12 0 14 #ff00ea #ffffff 0;
#X obj 312 -1 cnv 2 1 243 empty empty empty 20 12 0 14 #00aaff #ffffff 0;
#X obj 328 -1 cnv 2 1 243 empty empty empty 20 12 0 14 #00a6ff #ffffff 0;
#X obj 343 -1 cnv 2 1 243 empty empty empty 20 12 0 14 #ffc400 #ffffff 0;
#X obj 359 -1 cnv 2 1 243 empty empty empty 20 12 0 14 #ff5500 #ffffff 0;
#X obj 374 -1 cnv 2 1 243 empty empty empty 20 12 0 14 #ff003b #ffffff 0;
#X obj 390 -1 cnv 2 1 243 empty empty empty 20 12 0 14 #88ff00 #ffffff 0;
#X obj 405 -1 cnv 2 1 243 empty empty empty 20 12 0 14 #ee00ff #ffffff 0;
#X obj 421 -1 cnv 2 1 243 empty empty empty 20 12 0 14 #00ff8c #ffffff 0;
#X obj 436 -1 cnv 2 1 243 empty empty empty 20 12 0 14 #ff4c00 #ffffff 0;
#X obj 452 -1 cnv 2 1 243 empty empty empty 20 12 0 14 #00ff59 #ffffff 0;
#X obj 467 -1 cnv 2 1 243 empty empty empty 20 12 0 14 #00ffea #ffffff 0;
#X obj 483 -1 cnv 2 1 243 empty empty empty 20 12 0 14 #bbff00 #ffffff 0;
#X coords 0 0 1 1 471 241 2 0 0;
#X restore 9 9 pd sliders;
#X obj 19 509 s pd-sliders;
#X obj 19 325 loop 32;
#X obj 19 293 bng 25 250 50 0 empty empty empty 17 7 0 10 #191919 #ffffff #ffffff;
#X msg 109 509 clear;
#X obj 259 359 loop 32;
#X obj 259 329 bng 25 250 50 0 empty empty empty 17 7 0 10 #191919 #ffffff #ffffff;
#X msg 259 459 obj \$1 0 cnv 15 14 240 empty sl\$2 empty 20 12 0 14 #191919 #ffffff 0 \;, f 33;
#X obj 259 384 t f f;
#X obj 259 434 pack;
#X obj 619 389 nbx 4 18 -1e+37 1e+37 0 0 empty empty empty 0 -8 0 10 #191919 #ffffff #ffffff 0 256;
#X msg 619 419 symbol sl\$1;
#X obj 519 499 s;
#X obj 259 409 expr $f1 * (470/32 + .7) + 2;
#X obj 169 289 nbx 4 18 -1e+37 1e+37 0 1 empty empty empty 0 -8 0 10 #191919 #ffffff #ffffff 32 256;
#X obj 94 325 nbx 4 18 -1e+37 1e+37 0 1 empty empty empty 0 -8 0 10 #191919 #ffffff #ffffff 470 256;
#X obj 19 350 expr $f1 * ($f2/$f3 + .8) + 3;
#X obj 199 349 /;
#N canvas 0 50 450 300 rnd-color 1;
#X obj 129 39 inlet;
#X obj 129 119 rand.i 0 360;
#X obj 129 199 colors;
#X msg 129 159 hsl \$1 100 50;
#X obj 129 249 outlet;
#X obj 132 79 b;
#X connect 0 0 5 0 empty;
#X connect 1 0 3 0 empty;
#X connect 2 0 4 0 empty;
#X connect 3 0 2 0 empty;
#X connect 5 0 1 0 empty;
#X restore 129 399 pd rnd-color;
#X obj 19 414 pack f f s;
#X msg 19 459 obj \$1 -1 cnv 2 \$2 243 empty empty empty 20 12 0 14 \$3 #ffffff 0, f 33;
#X connect 2 0 19 0 empty;
#X connect 3 0 2 0 empty;
#X connect 4 0 3 0 empty;
#X connect 5 0 6 0 empty;
#X connect 6 0 3 0 empty;
#X connect 6 1 3 1 empty;
#X connect 9 0 23 0 empty;
#X connect 9 0 25 0 empty;
#X connect 10 0 9 0 empty;
#X connect 11 0 8 0 48.................D.....++++OA....v++++q9++++o++++p++++e5+++e6++++;
#X connect 12 0 15 0 empty;
#X connect 13 0 12 0 empty;
#X connect 14 0 8 0 32.................E....Dw+++eA....Q7++++.....;
#X connect 15 0 20 0 empty;
#X connect 15 1 16 1 empty;
#X connect 16 0 14 0 empty;
#X connect 17 0 18 0 empty;
#X connect 18 0 19 1 empty;
#X connect 20 0 16 0 empty;
#X connect 21 0 9 1 empty;
#X connect 21 0 23 2 empty;
#X connect 21 0 24 1 empty;
#X connect 22 0 23 1 empty;
#X connect 22 0 24 0 empty;
#X connect 23 0 26 0 empty;
#X connect 24 0 26 1 empty;
#X connect 25 0 26 2 empty;
#X connect 26 0 27 0 empty;
#X connect 27 0 8 0 empty;
