#N canvas 827 239 527 327 12;
#X obj 9 9 cnv 15 471 241 empty empty empty 20 12 0 14 #191919 #ffffff 0;
#N canvas 0 50 450 250 (subpatch) 0;
#X array arr1 32 float 2;
#X coords 0 1 32 -1 142 82 1;
#X restore 539 19 graph;
#X obj 19 509 s pd-sliders;
#X obj 19 305 loop 32;
#X obj 19 273 bng 25 250 50 0 empty empty empty 17 7 0 10 #191919 #ffffff #ffffff;
#X msg 109 509 clear;
#X obj 569 299 nbx 4 18 -1e+37 1e+37 0 0 empty empty empty 0 -8 0 10 #191919 #ffffff #ffffff 0 256;
#X msg 539 469 symbol sl\$1;
#X obj 389 499 s;
#X obj 169 279 nbx 4 18 -1e+37 1e+37 0 1 empty empty empty 0 -8 0 10 #191919 #ffffff #ffffff 50 256;
#X obj 159 339 /;
#N canvas 0 50 450 300 rnd-color 1;
#X obj 129 39 inlet;
#X obj 129 119 rand.i 0 360;
#X obj 129 199 colors;
#X msg 129 159 hsl \$1 100 50;
#X obj 129 249 outlet;
#X obj 132 79 b;
#X connect 0 0 5 0 empty;
#X connect 1 0 3 0 empty;
#X connect 2 0 4 0 empty;
#X connect 3 0 2 0 empty;
#X connect 5 0 1 0 empty;
#X restore 102 399 pd rnd-color;
#X obj 19 339 t f f b;
#N canvas 0 50 450 300 sliders 1;
#X obj 0 120 cnv 2 9 1 empty sl0 empty 20 12 0 14 #ff00bf #ffffff 0;
#X obj 9 120 cnv 2 9 1 empty sl1 empty 20 12 0 14 #ff1a00 #ffffff 0;
#X obj 18 120 cnv 2 9 1 empty sl2 empty 20 12 0 14 #a6ff00 #ffffff 0;
#X obj 28 120 cnv 2 9 1 empty sl3 empty 20 12 0 14 #ff0000 #ffffff 0;
#X obj 37 120 cnv 2 9 1 empty sl4 empty 20 12 0 14 #ff5e00 #ffffff 0;
#X obj 47 120 cnv 2 9 81 empty sl5 empty 20 12 0 14 #51ff00 #ffffff 0;
#X obj 56 30 cnv 2 9 90 empty sl6 empty 20 12 0 14 #00ffb2 #ffffff 0;
#X obj 65 119 cnv 2 9 91 empty sl7 empty 20 12 0 14 #ff8c00 #ffffff 0;
#X obj 75 120 cnv 2 9 1 empty sl8 empty 20 12 0 14 #00ffff #ffffff 0;
#X obj 84 120 cnv 2 9 1 empty sl9 empty 20 12 0 14 #f700ff #ffffff 0;
#X obj 94 120 cnv 2 9 1 empty sl10 empty 20 12 0 14 #00ff99 #ffffff 0;
#X obj 103 120 cnv 2 9 91 empty sl11 empty 20 12 0 14 #ff4800 #ffffff 0;
#X obj 113 120 cnv 2 9 1 empty sl12 empty 20 12 0 14 #1e00ff #ffffff 0;
#X obj 80 120 cnv 2 9 48 empty sl13 empty 20 12 0 14 #ff0037 #ffffff 0;
#X obj 126 70 cnv 2 9 50 empty sl14 empty 20 12 0 14 #00bbff #ffffff 0;
#X obj 135 120 cnv 2 9 46 empty sl15 empty 20 12 0 14 #ff003b #ffffff 0;
#X obj 150 120 cnv 2 9 1 empty sl16 empty 20 12 0 14 #1e00ff #ffffff 0;
#X obj 160 120 cnv 2 9 1 empty sl17 empty 20 12 0 14 #9dff00 #ffffff 0;
#X obj 169 120 cnv 2 9 1 empty sl18 empty 20 12 0 14 #8400ff #ffffff 0;
#X obj 178 120 cnv 2 9 1 empty sl19 empty 20 12 0 14 #62ff00 #ffffff 0;
#X obj 188 120 cnv 2 9 1 empty sl20 empty 20 12 0 14 #00ffb2 #ffffff 0;
#X obj 197 120 cnv 2 9 1 empty sl21 empty 20 12 0 14 #00ffae #ffffff 0;
#X obj 207 120 cnv 2 9 1 empty sl22 empty 20 12 0 14 #00ff51 #ffffff 0;
#X obj 216 120 cnv 2 9 1 empty sl23 empty 20 12 0 14 #1100ff #ffffff 0;
#X obj 226 120 cnv 2 9 1 empty sl24 empty 20 12 0 14 #ff0062 #ffffff 0;
#X obj 235 120 cnv 2 9 1 empty sl25 empty 20 12 0 14 #bf00ff #ffffff 0;
#X obj 244 120 cnv 2 9 1 empty sl26 empty 20 12 0 14 #ccff00 #ffffff 0;
#X obj 254 120 cnv 2 9 1 empty sl27 empty 20 12 0 14 #ffd000 #ffffff 0;
#X obj 263 120 cnv 2 9 1 empty sl28 empty 20 12 0 14 #ff3c00 #ffffff 0;
#X obj 273 120 cnv 2 9 1 empty sl29 empty 20 12 0 14 #ea00ff #ffffff 0;
#X obj 282 120 cnv 2 9 1 empty sl30 empty 20 12 0 14 #00fffb #ffffff 0;
#X obj 292 120 cnv 2 9 1 empty sl31 empty 20 12 0 14 #ee00ff #ffffff 0;
#X obj 301 120 cnv 2 9 1 empty sl32 empty 20 12 0 14 #ffae00 #ffffff 0;
#X obj 310 120 cnv 2 9 1 empty sl33 empty 20 12 0 14 #77ff00 #ffffff 0;
#X obj 320 120 cnv 2 9 1 empty sl34 empty 20 12 0 14 #7300ff #ffffff 0;
#X obj 329 120 cnv 2 9 1 empty sl35 empty 20 12 0 14 #ff2200 #ffffff 0;
#X obj 339 120 cnv 2 9 1 empty sl36 empty 20 12 0 14 #2200ff #ffffff 0;
#X obj 348 120 cnv 2 9 1 empty sl37 empty 20 12 0 14 #ccff00 #ffffff 0;
#X obj 357 120 cnv 2 9 1 empty sl38 empty 20 12 0 14 #00ccff #ffffff 0;
#X obj 367 120 cnv 2 9 1 empty sl39 empty 20 12 0 14 #ffbb00 #ffffff 0;
#X obj 376 120 cnv 2 9 1 empty sl40 empty 20 12 0 14 #88ff00 #ffffff 0;
#X obj 386 120 cnv 2 9 1 empty sl41 empty 20 12 0 14 #ff4800 #ffffff 0;
#X obj 395 120 cnv 2 9 1 empty sl42 empty 20 12 0 14 #88ff00 #ffffff 0;
#X obj 405 120 cnv 2 9 1 empty sl43 empty 20 12 0 14 #00ff77 #ffffff 0;
#X obj 414 120 cnv 2 9 1 empty sl44 empty 20 12 0 14 #ff0011 #ffffff 0;
#X obj 423 120 cnv 2 9 1 empty sl45 empty 20 12 0 14 #ff1a00 #ffffff 0;
#X obj 433 120 cnv 2 9 1 empty sl46 empty 20 12 0 14 #ff0088 #ffffff 0;
#X obj 442 120 cnv 2 9 1 empty sl47 empty 20 12 0 14 #00ff5d #ffffff 0;
#X obj 452 120 cnv 2 9 1 empty sl48 empty 20 12 0 14 #0037ff #ffffff 0;
#X obj 461 120 cnv 2 9 1 empty sl49 empty 20 12 0 14 #00fff6 #ffffff 0;
#X coords 0 0 1 1 471 241 2 0 0;
#X restore 9 9 pd sliders;
#X msg 219 392 coords 0 0 1 1 \$1 \$2 2;
#X obj 219 362 pack2;
#X obj 219 309 nbx 4 18 -1e+37 1e+37 0 1 empty empty empty 0 -8 0 10 #191919 #ffffff #ffffff 471 256;
#X obj 243 332 nbx 4 18 -1e+37 1e+37 0 1 empty empty empty 0 -8 0 10 #191919 #ffffff #ffffff 241 256;
#X obj 159 369 int;
#X obj 19 370 expr $f1 * ($f2/$f3);
#X msg 19 459 obj \$1 \$3 cnv 2 \$4 \$5 empty sl\$2 empty 20 12 0 14 \$6 #ffffff 0, f 33;
#X obj 19 429 pack f f 120 f f s;
#X obj 520 184 nbx 4 18 -1e+37 1e+37 0 1 empty empty empty 0 -8 0 10 #191919 #ffffff #ffffff 46 256;
#X obj 389 359 -;
#X msg 389 389 delta 0 \$1;
#X obj 430 324 * -1;
#X obj 389 329 t f f;
#X obj 430 287 moses 1;
#X msg 549 250 0;
#X obj 520 214 t f b b;
#X msg 470 364 vis_size 9 \$1;
#X msg 529 419 pos 135 120;
#X obj 579 339 * 9;
#X msg 579 379 set pos \$1 120;
#X connect 3 0 12 0 empty;
#X connect 4 0 3 0 empty;
#X connect 5 0 2 0 48.................D.....++++OA....v++++q9++++o++++p++++e5+++e6++++;
#X connect 6 0 7 0 empty;
#X connect 6 0 32 0 empty;
#X connect 7 0 8 1 32.................E....f5+++eA....n9+++q.....;
#X connect 9 0 3 1 empty;
#X connect 9 0 10 1 empty;
#X connect 9 0 19 2 empty;
#X connect 10 0 18 0 empty;
#X connect 11 0 21 5 empty;
#X connect 12 0 19 0 empty;
#X connect 12 1 21 1 empty;
#X connect 12 2 11 0 empty;
#X connect 14 0 2 0 empty;
#X connect 15 0 14 0 empty;
#X connect 16 0 15 0 empty;
#X connect 16 0 10 0 empty;
#X connect 16 0 19 1 empty;
#X connect 17 0 15 1 empty;
#X connect 17 0 21 4 empty;
#X connect 18 0 21 3 empty;
#X connect 19 0 21 0 empty;
#X connect 20 0 2 0 empty;
#X connect 21 0 20 0 empty;
#X connect 22 0 29 0 empty;
#X connect 23 0 24 0 empty;
#X connect 24 0 8 0 empty;
#X connect 25 0 30 0 empty;
#X connect 26 0 23 1 empty;
#X connect 26 1 23 0 empty;
#X connect 27 0 26 0 empty;
#X connect 27 0 25 0 empty;
#X connect 27 1 30 0 empty;
#X connect 28 0 27 0 empty;
#X connect 29 0 27 0 empty;
#X connect 29 1 31 0 empty;
#X connect 29 2 28 0 empty;
#X connect 30 0 8 0 empty;
#X connect 31 0 8 0 empty;
#X connect 32 0 33 0 empty;
#X connect 33 0 31 0 empty;
