#N canvas 827 239 760 420 12;
#X obj 279 119 pad 470 240 255 255 255;
#X obj 279 119 cnv 15 471 241 empty empty empty 20 12 0 14 #191919 #ffffff 0;
#N canvas 0 50 450 300 sliders 1;
#X obj 2 0 cnv 2 3 143 empty sl0 empty 20 12 0 14 #ff0011 #ffffff 0;
#X obj 7 0 cnv 2 3 205 empty sl1 empty 20 12 0 14 #aa00ff #ffffff 0;
#X obj 13 0 cnv 2 3 259 empty sl2 empty 20 12 0 14 #0004ff #ffffff 0;
#X obj 18 0 cnv 2 3 259 empty sl3 empty 20 12 0 14 #e500ff #ffffff 0;
#X obj 24 0 cnv 2 3 259 empty sl4 empty 20 12 0 14 #00ccff #ffffff 0;
#X obj 29 0 cnv 2 3 259 empty sl5 empty 20 12 0 14 #ff0011 #ffffff 0;
#X obj 35 0 cnv 2 3 258 empty sl6 empty 20 12 0 14 #00ff6e #ffffff 0;
#X obj 41 0 cnv 2 3 164 empty sl7 empty 20 12 0 14 #40ff00 #ffffff 0;
#X obj 46 0 cnv 2 3 123 empty sl8 empty 20 12 0 14 #3bff00 #ffffff 0;
#X obj 52 0 cnv 2 3 244 empty sl9 empty 20 12 0 14 #ff5900 #ffffff 0;
#X obj 57 0 cnv 2 3 254 empty sl10 empty 20 12 0 14 #ff7700 #ffffff 0;
#X obj 63 0 cnv 2 3 251 empty sl11 empty 20 12 0 14 #ff00a6 #ffffff 0;
#X obj 69 0 cnv 2 3 221 empty sl12 empty 20 12 0 14 #00eaff #ffffff 0;
#X obj 74 0 cnv 2 3 180 empty sl13 empty 20 12 0 14 #fff200 #ffffff 0;
#X obj 80 0 cnv 2 3 184 empty sl14 empty 20 12 0 14 #003cff #ffffff 0;
#X obj 85 0 cnv 2 3 239 empty sl15 empty 20 12 0 14 #00ff2f #ffffff 0;
#X obj 91 0 cnv 2 3 188 empty sl16 empty 20 12 0 14 #0073ff #ffffff 0;
#X obj 97 0 cnv 2 3 90 empty sl17 empty 20 12 0 14 #ddff00 #ffffff 0;
#X obj 102 0 cnv 2 3 192 empty sl18 empty 20 12 0 14 #00ff99 #ffffff 0;
#X obj 108 0 cnv 2 3 136 empty sl19 empty 20 12 0 14 #7700ff #ffffff 0;
#X obj 113 0 cnv 2 3 104 empty sl20 empty 20 12 0 14 #0004ff #ffffff 0;
#X obj 119 0 cnv 2 3 200 empty sl21 empty 20 12 0 14 #00b3ff #ffffff 0;
#X obj 125 0 cnv 2 3 89 empty sl22 empty 20 12 0 14 #ff1a00 #ffffff 0;
#X obj 130 0 cnv 2 3 171 empty sl23 empty 20 12 0 14 #ff000d #ffffff 0;
#X obj 136 0 cnv 2 3 108 empty sl24 empty 20 12 0 14 #8c00ff #ffffff 0;
#X obj 141 0 cnv 2 3 268 empty sl25 empty 20 12 0 14 #d0ff00 #ffffff 0;
#X obj 147 0 cnv 2 3 208 empty sl26 empty 20 12 0 14 #00ffdd #ffffff 0;
#X obj 153 0 cnv 2 3 278 empty sl27 empty 20 12 0 14 #91ff00 #ffffff 0;
#X obj 158 0 cnv 2 3 120 empty sl28 empty 20 12 0 14 #00eeff #ffffff 0;
#X obj 164 0 cnv 2 3 201 empty sl29 empty 20 12 0 14 #15ff00 #ffffff 0;
#X obj 169 0 cnv 2 3 205 empty sl30 empty 20 12 0 14 #007bff #ffffff 0;
#X obj 175 0 cnv 2 3 179 empty sl31 empty 20 12 0 14 #1500ff #ffffff 0;
#X obj 181 0 cnv 2 3 102 empty sl32 empty 20 12 0 14 #0073ff #ffffff 0;
#X obj 186 0 cnv 2 3 201 empty sl33 empty 20 12 0 14 #ff7b00 #ffffff 0;
#X obj 192 0 cnv 2 3 195 empty sl34 empty 20 12 0 14 #ff00bf #ffffff 0;
#X obj 197 0 cnv 2 3 68 empty sl35 empty 20 12 0 14 #ffd900 #ffffff 0;
#X obj 203 0 cnv 2 3 205 empty sl36 empty 20 12 0 14 #00eaff #ffffff 0;
#X obj 209 0 cnv 2 3 68 empty sl37 empty 20 12 0 14 #1e00ff #ffffff 0;
#X obj 214 0 cnv 2 3 129 empty sl38 empty 20 12 0 14 #00aeff #ffffff 0;
#X obj 220 0 cnv 2 3 184 empty sl39 empty 20 12 0 14 #00ff3b #ffffff 0;
#X obj 225 0 cnv 2 3 211 empty sl40 empty 20 12 0 14 #ff00c8 #ffffff 0;
#X obj 231 0 cnv 2 3 81 empty sl41 empty 20 12 0 14 #00ff8c #ffffff 0;
#X obj 237 0 cnv 2 3 68 empty sl42 empty 20 12 0 14 #ff00f2 #ffffff 0;
#X obj 242 0 cnv 2 3 68 empty sl43 empty 20 12 0 14 #a600ff #ffffff 0;
#X obj 248 0 cnv 2 3 159 empty sl44 empty 20 12 0 14 #ee00ff #ffffff 0;
#X obj 253 0 cnv 2 3 211 empty sl45 empty 20 12 0 14 #00fff2 #ffffff 0;
#X obj 259 0 cnv 2 3 263 empty sl46 empty 20 12 0 14 #00ffa6 #ffffff 0;
#X obj 264 0 cnv 2 3 270 empty sl47 empty 20 12 0 14 #fff700 #ffffff 0;
#X obj 270 0 cnv 2 3 269 empty sl48 empty 20 12 0 14 #005eff #ffffff 0;
#X obj 276 0 cnv 2 3 70 empty sl49 empty 20 12 0 14 #00ffd4 #ffffff 0;
#X obj 281 0 cnv 2 3 266 empty sl50 empty 20 12 0 14 #ff00d5 #ffffff 0;
#X obj 287 0 cnv 2 3 184 empty sl51 empty 20 12 0 14 #ff00e6 #ffffff 0;
#X obj 292 0 cnv 2 3 177 empty sl52 empty 20 12 0 14 #ff2f00 #ffffff 0;
#X obj 298 0 cnv 2 3 215 empty sl53 empty 20 12 0 14 #00ff7b #ffffff 0;
#X obj 304 0 cnv 2 3 212 empty sl54 empty 20 12 0 14 #ff002b #ffffff 0;
#X obj 309 0 cnv 2 3 76 empty sl55 empty 20 12 0 14 #ff002b #ffffff 0;
#X obj 315 0 cnv 2 3 259 empty sl56 empty 20 12 0 14 #ff00a2 #ffffff 0;
#X obj 320 0 cnv 2 3 58 empty sl57 empty 20 12 0 14 #ff0026 #ffffff 0;
#X obj 326 0 cnv 2 3 212 empty sl58 empty 20 12 0 14 #ff9500 #ffffff 0;
#X obj 332 0 cnv 2 3 204 empty sl59 empty 20 12 0 14 #004dff #ffffff 0;
#X obj 337 0 cnv 2 3 239 empty sl60 empty 20 12 0 14 #ff009d #ffffff 0;
#X obj 343 0 cnv 2 3 214 empty sl61 empty 20 12 0 14 #7fff00 #ffffff 0;
#X obj 348 0 cnv 2 3 212 empty sl62 empty 20 12 0 14 #ff0066 #ffffff 0;
#X obj 354 0 cnv 2 3 230 empty sl63 empty 20 12 0 14 #0022ff #ffffff 0;
#X obj 360 0 cnv 2 3 79 empty sl64 empty 20 12 0 14 #ff0040 #ffffff 0;
#X obj 365 0 cnv 2 3 59 empty sl65 empty 20 12 0 14 #00ff1e #ffffff 0;
#X obj 371 0 cnv 2 3 222 empty sl66 empty 20 12 0 14 #ff00ea #ffffff 0;
#X obj 376 0 cnv 2 3 217 empty sl67 empty 20 12 0 14 #ff002b #ffffff 0;
#X obj 382 0 cnv 2 3 59 empty sl68 empty 20 12 0 14 #c400ff #ffffff 0;
#X obj 388 0 cnv 2 3 64 empty sl69 empty 20 12 0 14 #ea00ff #ffffff 0;
#X obj 393 0 cnv 2 3 87 empty sl70 empty 20 12 0 14 #00ff99 #ffffff 0;
#X obj 399 0 cnv 2 3 108 empty sl71 empty 20 12 0 14 #00ffd0 #ffffff 0;
#X obj 404 0 cnv 2 3 209 empty sl72 empty 20 12 0 14 #0400ff #ffffff 0;
#X obj 410 0 cnv 2 3 157 empty sl73 empty 20 12 0 14 #0099ff #ffffff 0;
#X obj 416 0 cnv 2 3 129 empty sl74 empty 20 12 0 14 #00ff99 #ffffff 0;
#X obj 421 0 cnv 2 3 195 empty sl75 empty 20 12 0 14 #ff00bf #ffffff 0;
#X obj 427 0 cnv 2 3 199 empty sl76 empty 20 12 0 14 #ff8800 #ffffff 0;
#X obj 432 0 cnv 2 3 151 empty sl77 empty 20 12 0 14 #00c4ff #ffffff 0;
#X obj 438 0 cnv 2 3 194 empty sl78 empty 20 12 0 14 #a2ff00 #ffffff 0;
#X obj 444 0 cnv 2 3 176 empty sl79 empty 20 12 0 14 #77ff00 #ffffff 0;
#X obj 449 0 cnv 2 3 136 empty sl80 empty 20 12 0 14 #ff0800 #ffffff 0;
#X obj 455 0 cnv 2 3 149 empty sl81 empty 20 12 0 14 #009dff #ffffff 0;
#X obj 460 0 cnv 2 3 192 empty sl82 empty 20 12 0 14 #fbff00 #ffffff 0;
#X obj 466 0 cnv 2 3 137 empty sl83 empty 20 12 0 14 #ff00ea #ffffff 0;
#X coords 0 0 1 1 472 242 2 0 0;
#X restore 279 119 pd sliders;
#N canvas 0 50 600 420 construct 1;
#X obj 59 389 s pd-sliders;
#X msg 9 309 clear;
#X obj 59 129 loop;
#X text 206 8 spacing;
#X obj 59 29 inlet;
#X obj 163 29 inlet;
#X obj 214 29 inlet;
#X obj 273 29 inlet;
#X obj 327 29 inlet;
#X obj 401 29 inlet;
#X obj 455 29 inlet;
#X text 261 8 x offset;
#X text 321 8 y offset;
#X obj 59 309 pack f f f f;
#X msg 59 339 obj \$2 \$3 cnv 2 \$4 0 empty sl\$1 empty 20 12 0 14 #ffffff #ffffff 0, f 30;
#X obj 119 29 inlet;
#X obj 73 269 +;
#N canvas 0 50 470 440 move-slider 1;
#X obj 19 29 inlet;
#X obj 89 29 inlet;
#X obj 169 29 inlet;
#X obj 249 29 inlet;
#X obj 319 29 inlet;
#X obj 389 29 inlet;
#X msg 320 349 symbol sl\$1;
#X obj 9 399 s;
#X obj 9 259 -;
#X msg 9 289 delta 0 \$1;
#X obj 80 224 * -1;
#X obj 9 229 t f f;
#X obj 80 187 moses 1;
#X msg 111 150 0;
#X obj 229 229 *;
#X obj 259 309 pack;
#X obj 80 319 pack;
#X msg 80 349 vis_size \$2 \$1;
#X text 89 8 index;
#X text 9 8 y value;
#N canvas 0 50 450 300 set-pos 0;
#X obj 109 59 inlet;
#X obj 219 59 inlet;
#X obj 159 219 outlet;
#X msg 159 169 pos 259.381 0;
#X msg 219 109 set pos \$1 \$2;
#X connect 0 0 3 0 empty;
#X connect 1 0 4 0 empty;
#X connect 3 0 2 0 empty;
#X connect 4 0 3 0 empty;
#X restore 187 349 pd set-pos;
#X obj 249 269 +;
#X obj 80 82 * -1;
#X text 239 8 x offset;
#X obj 319 159 f;
#X obj 319 189 t f f;
#X obj 80 114 t f b b b;
#X text 149 8 slider width;
#X text 379 8 width - spacing;
#X obj 389 59 nbx 4 18 -1e+37 1e+37 0 1 empty empty empty 0 -8 0 10 #191919 #ffffff #ffffff 3.59524 256;
#X obj 319 59 nbx 4 18 -1e+37 1e+37 0 1 empty empty empty 0 -8 0 10 #191919 #ffffff #ffffff 0 256;
#X obj 249 59 nbx 4 18 -1e+37 1e+37 0 1 empty empty empty 0 -8 0 10 #191919 #ffffff #ffffff 2 256;
#X obj 169 59 nbx 4 18 -1e+37 1e+37 0 1 empty empty empty 0 -8 0 10 #191919 #ffffff #ffffff 5.59524 256;
#X text 319 8 y pos;
#X connect 0 0 22 0 empty;
#X connect 1 0 24 1 empty;
#X connect 2 0 32 0 empty;
#X connect 3 0 31 0 empty;
#X connect 4 0 30 0 empty;
#X connect 5 0 29 0 empty;
#X connect 6 0 7 1 empty;
#X connect 8 0 9 0 empty;
#X connect 9 0 7 0 empty;
#X connect 10 0 16 0 empty;
#X connect 11 0 8 1 empty;
#X connect 11 1 8 0 empty;
#X connect 12 0 11 0 empty;
#X connect 12 0 10 0 empty;
#X connect 12 1 16 0 empty;
#X connect 13 0 12 0 empty;
#X connect 14 0 21 0 empty;
#X connect 15 0 20 1 empty;
#X connect 16 0 17 0 empty;
#X connect 17 0 7 0 empty;
#X connect 20 0 7 0 empty;
#X connect 21 0 15 0 empty;
#X connect 22 0 26 0 empty;
#X connect 24 0 25 0 empty;
#X connect 25 0 14 0 empty;
#X connect 25 1 6 0 empty;
#X connect 26 0 12 0 empty;
#X connect 26 1 20 0 empty;
#X connect 26 2 13 0 empty;
#X connect 26 3 24 0 empty;
#X connect 29 0 16 1 empty;
#X connect 30 0 15 1 empty;
#X connect 31 0 21 1 empty;
#X connect 32 0 14 1 empty;
#X restore 334 349 pd move-slider;
#N canvas 0 50 450 300 resize 1;
#X obj 89 49 inlet;
#X obj 223 49 inlet;
#X msg 129 209 coords 0 0 1 1 \$1 \$2 2;
#X obj 179 99 + 2;
#X obj 129 99 + 2;
#X obj 129 239 s pd-sliders;
#X obj 179 129 t b f;
#X obj 129 182 pack;
#X connect 0 0 4 0 empty;
#X connect 1 0 3 0 empty;
#X connect 2 0 5 0 empty;
#X connect 3 0 6 0 empty;
#X connect 4 0 7 0 empty;
#X connect 6 0 7 0 empty;
#X connect 6 1 7 1 empty;
#X connect 7 0 2 0 empty;
#X restore 369 89 pd resize;
#X text 401 8 width;
#X text 451 8 height;
#X text 29 8 # of sliders;
#X text 114 8 y val;
#X text 159 8 ndx;
#N canvas 0 50 450 300 calc-y-pos 1;
#X obj 39 9 inlet;
#X obj 129 9 inlet;
#X obj 39 269 outlet;
#X obj 129 89 / 2;
#X obj 39 89 * -1;
#X obj 39 139 *;
#X obj 39 199 +;
#X connect 0 0 4 0 empty;
#X connect 1 0 3 0 empty;
#X connect 3 0 5 1 empty;
#X connect 3 0 6 1 empty;
#X connect 4 0 5 0 empty;
#X connect 5 0 6 0 empty;
#X connect 6 0 2 0 empty;
#X restore 359 139 pd calc-y-pos;
#X obj 59 183 t f f;
#X obj 179 279 -;
#X obj 109 129 swap;
#X obj 109 163 /;
#X obj 73 239 *;
#X obj 59 69 t f f b;
#X obj 409 229 *;
#N canvas 0 50 380 384 draw 1;
#X obj 59 9 inlet;
#X obj 59 39 route click;
#X obj 279 229 s arr1;
#X msg 279 189 resize \$1;
#X obj 79 359 tabwrite arr1;
#X obj 179 219 /;
#X obj 108 69 unpack;
#X obj 199 259 *;
#X obj 59 209 /;
#X obj 59 169 f;
#X obj 59 129 t b f;
#X obj 59 99 spigot;
#X obj 59 239 - 0.5;
#X obj 199 309 int;
#X obj 149 9 inlet;
#X obj 203 9 inlet;
#X obj 247 9 inlet;
#X obj 19 359 outlet;
#X obj 199 349 outlet;
#X obj 291 9 inlet;
#X obj 289 59 * -1;
#X obj 59 269 +;
#X obj 289 89 / 2;
#X connect 0 0 1 0 empty;
#X connect 1 0 11 1 empty;
#X connect 1 1 6 0 empty;
#X connect 3 0 2 0 empty;
#X connect 5 0 7 0 empty;
#X connect 6 0 5 0 empty;
#X connect 6 1 11 0 empty;
#X connect 7 0 4 1 empty;
#X connect 7 0 13 0 empty;
#X connect 8 0 12 0 empty;
#X connect 9 0 8 0 empty;
#X connect 10 0 9 0 empty;
#X connect 10 1 9 1 empty;
#X connect 11 0 10 0 empty;
#X connect 12 0 21 0 empty;
#X connect 13 0 18 0 empty;
#X connect 14 0 5 1 empty;
#X connect 15 0 8 1 empty;
#X connect 16 0 7 1 empty;
#X connect 16 0 3 0 empty;
#X connect 19 0 20 0 empty;
#X connect 20 0 22 0 empty;
#X connect 21 0 17 0 empty;
#X connect 21 0 4 0 empty;
#X connect 22 0 21 1 empty;
#X restore 509 159 pd draw;
#X obj 529 29 inlet;
#X text 529 8 pad input;
#X connect 1 0 0 0 empty;
#X connect 2 0 25 0 empty;
#X connect 4 0 30 0 empty;
#X connect 4 0 32 3 empty;
#X connect 5 0 17 1 empty;
#X connect 6 0 26 1 empty;
#X connect 7 0 16 1 empty;
#X connect 7 0 17 3 empty;
#X connect 8 0 24 0 empty;
#X connect 8 0 32 4 empty;
#X connect 9 0 18 0 empty;
#X connect 9 0 27 1 empty;
#X connect 9 0 32 1 empty;
#X connect 10 0 18 1 empty;
#X connect 10 0 24 1 empty;
#X connect 10 0 31 1 empty;
#X connect 10 0 32 2 empty;
#X connect 13 0 14 0 empty;
#X connect 14 0 0 0 empty;
#X connect 15 0 31 0 empty;
#X connect 16 0 13 1 empty;
#X connect 24 0 17 4 empty;
#X connect 24 0 13 2 empty;
#X connect 25 0 13 0 empty;
#X connect 25 1 29 0 empty;
#X connect 26 0 13 3 empty;
#X connect 26 0 17 5 empty;
#X connect 27 0 28 0 empty;
#X connect 27 1 28 1 empty;
#X connect 28 0 17 2 empty;
#X connect 28 0 26 0 empty;
#X connect 28 0 29 1 empty;
#X connect 29 0 16 0 empty;
#X connect 30 0 2 0 empty;
#X connect 30 1 27 0 empty;
#X connect 30 2 1 0 empty;
#X connect 31 0 17 0 empty;
#X connect 32 0 31 0 empty;
#X connect 32 1 17 1 empty;
#X connect 33 0 32 0 empty;
#X restore 79 379 pd construct;
#X obj 59 199 nbx 4 18 1 1e+37 0 0 empty empty empty 0 -8 0 10 #191919 #ffffff #ffffff 0 256;
#X obj 259 29 nbx 4 18 0 1e+37 0 1 empty empty empty 0 -8 0 10 #191919 #ffffff #ffffff 240 256;
#X obj 209 29 nbx 4 18 0 1e+37 0 1 empty empty empty 0 -8 0 10 #191919 #ffffff #ffffff 470 256;
#X obj 144 324 nbx 4 18 -1e+37 1e+37 0 1 empty empty empty 0 -8 0 10 #191919 #ffffff #ffffff 1 256;
#X text 209 8 width & height;
#X text 105 199 n;
#X obj 127 299 nbx 4 18 0 1e+37 0 1 empty empty empty 0 -8 0 10 #191919 #ffffff #ffffff 2 256;
#X text 172 298 x offset;
#X obj 110 274 nbx 4 18 0 1e+37 0 1 empty empty empty 0 -8 0 10 #191919 #ffffff #ffffff 2 256;
#X text 156 274 spacing;
#X obj 93 251 nbx 4 18 0 1e+37 0 0 empty empty empty 0 -8 0 10 #191919 #ffffff #ffffff 0 256;
#X obj 76 229 nbx 4 18 -1e+37 1e+37 0 0 empty empty empty 0 -8 0 10 #191919 #ffffff #ffffff 0 256;
#X text 139 250 index;
#X text 121 227 y value;
#X obj 9 349 bng 25 250 50 0 empty empty empty 17 7 0 10 #191919 #ffffff #ffffff;
#N canvas 0 50 450 300 color 1;
#X obj 129 9 inlet;
#X obj 129 119 rand.i 0 360;
#X msg 129 159 hsl \$1 100 50;
#X obj 319 9 inlet;
#X msg 269 129 symbol sl\$1;
#X obj 129 49 loop;
#X obj 129 79 t b f;
#X obj 129 259 s;
#X msg 129 219 color \$1;
#X obj 129 189 colors;
#X connect 0 0 5 0 empty;
#X connect 1 0 2 0 empty;
#X connect 2 0 9 0 empty;
#X connect 3 0 5 1 empty;
#X connect 4 0 7 1 empty;
#X connect 5 0 6 0 empty;
#X connect 6 0 1 0 empty;
#X connect 6 1 4 0 empty;
#X connect 8 0 7 0 empty;
#X connect 9 0 8 0 empty;
#X restore 9 379 pd color;
#X text 191 322 y axis (-1 to 1);
#N canvas 0 50 450 250 (subpatch) 0;
#X array arr1 84 float 2;
#X coords 0 1 84 -1 162 82 1;
#X restore 19 29 graph;
#N canvas 0 50 450 300 resize 1;
#X msg 169 139 dim \$1 \$2;
#X obj 174 96 pack2;
#X obj 167 198 outlet;
#X obj 133 41 inlet;
#X obj 207 41 inlet;
#X connect 0 0 2 0 empty;
#X connect 1 0 0 0 empty;
#X connect 3 0 1 0 empty;
#X connect 4 0 1 1 empty;
#X restore 279 89 pd resize;
#X connect 0 0 3 8 empty;
#X connect 4 0 3 0 empty;
#X connect 4 0 19 1 empty;
#X connect 5 0 3 7 empty;
#X connect 5 0 22 1 empty;
#X connect 6 0 3 6 empty;
#X connect 6 0 22 0 empty;
#X connect 7 0 3 5 empty;
#X connect 10 0 3 4 empty;
#X connect 12 0 3 3 empty;
#X connect 14 0 3 2 empty;
#X connect 15 0 3 1 empty;
#X connect 18 0 19 0 empty;
#X connect 22 0 0 0 empty;
