#N canvas 827 239 760 420 12;
#X obj 9 9 cnv 15 471 241 empty empty empty 20 12 0 14 #191919 #ffffff 0;
#N canvas 0 50 450 250 (subpatch) 0;
#X array arr1 32 float 2;
#X coords 0 1 32 -1 142 82 1;
#X restore 509 19 graph;
#N canvas 0 50 450 300 sliders 1;
#X obj 2 120 cnv 2 21 120 empty sl0 empty 20 12 0 14 #9d00ff #ffffff 0;
#X obj 25 120 cnv 2 21 1 empty sl1 empty 20 12 0 14 #ff0073 #ffffff 0;
#X obj 49 120 cnv 2 21 1 empty sl2 empty 20 12 0 14 #1100ff #ffffff 0;
#X obj 72 120 cnv 2 21 64 empty sl3 empty 20 12 0 14 #ff001e #ffffff 0;
#X obj 96 8 cnv 2 21 112 empty sl4 empty 20 12 0 14 #003cff #ffffff 0;
#X obj 119 44 cnv 2 21 76 empty sl5 empty 20 12 0 14 #00bbff #ffffff 0;
#X obj 143 120 cnv 2 21 1 empty sl6 empty 20 12 0 14 #ff00dd #ffffff 0;
#X obj 166 120 cnv 2 21 1 empty sl7 empty 20 12 0 14 #002bff #ffffff 0;
#X obj 190 120 cnv 2 21 84 empty sl8 empty 20 12 0 14 #91ff00 #ffffff 0;
#X obj 213 120 cnv 2 21 1 empty sl9 empty 20 12 0 14 #59ff00 #ffffff 0;
#X obj 237 51 cnv 2 21 69 empty sl10 empty 20 12 0 14 #ff5100 #ffffff 0;
#X obj 260 120 cnv 2 21 1 empty sl11 empty 20 12 0 14 #0048ff #ffffff 0;
#X obj 284 120 cnv 2 21 1 empty sl12 empty 20 12 0 14 #006aff #ffffff 0;
#X obj 307 120 cnv 2 21 1 empty sl13 empty 20 12 0 14 #00ffdd #ffffff 0;
#X obj 331 120 cnv 2 21 43 empty sl14 empty 20 12 0 14 #c8ff00 #ffffff 0;
#X obj 354 120 cnv 2 21 1 empty sl15 empty 20 12 0 14 #2600ff #ffffff 0;
#X obj 378 120 cnv 2 21 1 empty sl16 empty 20 12 0 14 #eaff00 #ffffff 0;
#X obj 401 120 cnv 2 21 1 empty sl17 empty 20 12 0 14 #ff0051 #ffffff 0;
#X obj 425 120 cnv 2 21 1 empty sl18 empty 20 12 0 14 #00ffd4 #ffffff 0;
#X obj 448 120 cnv 2 21 1 empty sl19 empty 20 12 0 14 #00b7ff #ffffff 0;
#X coords 0 0 1 1 472 242 2 0 0;
#X restore 9 9 pd sliders;
#N canvas 0 50 500 420 construct 1;
#X obj 59 389 s pd-sliders;
#X msg 9 309 clear;
#X obj 59 129 loop;
#X text 206 8 spacing;
#X obj 59 29 inlet;
#X obj 163 29 inlet;
#X obj 214 29 inlet;
#X obj 273 29 inlet;
#X obj 327 29 inlet;
#X obj 401 29 inlet;
#X obj 455 29 inlet;
#X text 261 8 x offset;
#X text 321 8 y offset;
#X obj 59 309 pack f f f f;
#X msg 59 339 obj \$2 \$3 cnv 2 \$4 0 empty sl\$1 empty 20 12 0 14 #ffffff #ffffff 0, f 30;
#X obj 119 29 inlet;
#X obj 73 269 +;
#N canvas 0 50 470 440 move-slider 0;
#X obj 19 29 inlet;
#X obj 89 29 inlet;
#X obj 169 29 inlet;
#X obj 249 29 inlet;
#X obj 319 29 inlet;
#X obj 389 29 inlet;
#X msg 320 349 symbol sl\$1;
#X obj 9 399 s;
#X obj 9 259 -;
#X msg 9 289 delta 0 \$1;
#X obj 80 224 * -1;
#X obj 9 229 t f f;
#X obj 80 187 moses 1;
#X msg 111 150 0;
#X obj 229 229 *;
#X obj 259 309 pack;
#X obj 80 319 pack;
#X msg 80 349 vis_size \$2 \$1;
#X text 89 8 index;
#X text 9 8 y value;
#N canvas 0 50 450 300 set-pos 0;
#X obj 109 59 inlet;
#X obj 219 59 inlet;
#X obj 159 219 outlet;
#X msg 159 169 pos 96 120;
#X msg 219 109 set pos \$1 \$2;
#X connect 0 0 3 0 empty;
#X connect 1 0 4 0 empty;
#X connect 3 0 2 0 empty;
#X connect 4 0 3 0 empty;
#X restore 187 349 pd set-pos;
#X obj 249 269 +;
#X obj 80 82 * -1;
#X text 239 8 x offset;
#X obj 319 159 f;
#X obj 319 189 t f f;
#X obj 80 114 t f b b b;
#X text 149 8 slider width;
#X text 379 8 width - spacing;
#X obj 389 59 nbx 4 18 -1e+37 1e+37 0 1 empty empty empty 0 -8 0 10 #191919 #ffffff #ffffff 21.5 256;
#X obj 319 59 nbx 4 18 -1e+37 1e+37 0 1 empty empty empty 0 -8 0 10 #191919 #ffffff #ffffff 120 256;
#X obj 249 59 nbx 4 18 -1e+37 1e+37 0 1 empty empty empty 0 -8 0 10 #191919 #ffffff #ffffff 2 256;
#X obj 169 59 nbx 4 18 -1e+37 1e+37 0 1 empty empty empty 0 -8 0 10 #191919 #ffffff #ffffff 23.5 256;
#X text 319 8 y pos;
#X connect 0 0 22 0 empty;
#X connect 1 0 24 1 empty;
#X connect 2 0 32 0 empty;
#X connect 3 0 31 0 empty;
#X connect 4 0 30 0 empty;
#X connect 5 0 29 0 empty;
#X connect 6 0 7 1 empty;
#X connect 8 0 9 0 empty;
#X connect 9 0 7 0 empty;
#X connect 10 0 16 0 empty;
#X connect 11 0 8 1 empty;
#X connect 11 1 8 0 empty;
#X connect 12 0 11 0 empty;
#X connect 12 0 10 0 empty;
#X connect 12 1 16 0 empty;
#X connect 13 0 12 0 empty;
#X connect 14 0 21 0 empty;
#X connect 15 0 20 1 empty;
#X connect 16 0 17 0 empty;
#X connect 17 0 7 0 empty;
#X connect 20 0 7 0 empty;
#X connect 21 0 15 0 empty;
#X connect 22 0 26 0 empty;
#X connect 24 0 25 0 empty;
#X connect 25 0 14 0 empty;
#X connect 25 1 6 0 empty;
#X connect 26 0 12 0 empty;
#X connect 26 1 20 0 empty;
#X connect 26 2 13 0 empty;
#X connect 26 3 24 0 empty;
#X connect 29 0 16 1 empty;
#X connect 30 0 15 1 empty;
#X connect 31 0 21 1 empty;
#X connect 32 0 14 1 empty;
#X restore 334 349 pd move-slider;
#N canvas 0 50 450 300 resize 0;
#X obj 89 49 inlet;
#X obj 223 49 inlet;
#X msg 129 209 coords 0 0 1 1 \$1 \$2 2;
#X obj 179 99 + 2;
#X obj 129 99 + 2;
#X obj 129 239 s pd-sliders;
#X obj 179 129 t b f;
#X obj 129 182 pack;
#X connect 0 0 4 0 empty;
#X connect 1 0 3 0 empty;
#X connect 2 0 5 0 empty;
#X connect 3 0 6 0 empty;
#X connect 4 0 7 0 empty;
#X connect 6 0 7 0 empty;
#X connect 6 1 7 1 empty;
#X connect 7 0 2 0 empty;
#X restore 369 89 pd resize;
#X text 401 8 width;
#X text 451 8 height;
#X text 29 8 # of sliders;
#X text 114 8 y val;
#X text 159 8 ndx;
#N canvas 0 50 450 300 calc-y-pos 0;
#X obj 39 9 inlet;
#X obj 129 9 inlet;
#X obj 39 269 outlet;
#X obj 129 89 / 2;
#X obj 39 89 * -1;
#X obj 39 139 *;
#X obj 39 199 +;
#X connect 0 0 4 0 empty;
#X connect 1 0 3 0 empty;
#X connect 3 0 5 1 empty;
#X connect 3 0 6 1 empty;
#X connect 4 0 5 0 empty;
#X connect 5 0 6 0 empty;
#X connect 6 0 2 0 empty;
#X restore 359 139 pd calc-y-pos;
#X obj 59 183 t f f;
#X obj 179 279 -;
#X obj 109 129 swap;
#X obj 109 163 /;
#X obj 73 239 *;
#X obj 59 69 t f f b;
#X obj 429 269 *;
#X connect 1 0 0 0 empty;
#X connect 2 0 25 0 empty;
#X connect 4 0 30 0 empty;
#X connect 5 0 17 1 empty;
#X connect 6 0 26 1 empty;
#X connect 7 0 16 1 empty;
#X connect 7 0 17 3 empty;
#X connect 8 0 24 0 empty;
#X connect 9 0 18 0 empty;
#X connect 9 0 27 1 empty;
#X connect 10 0 18 1 empty;
#X connect 10 0 24 1 empty;
#X connect 10 0 31 1 empty;
#X connect 13 0 14 0 empty;
#X connect 14 0 0 0 empty;
#X connect 15 0 31 0 empty;
#X connect 16 0 13 1 empty;
#X connect 24 0 17 4 empty;
#X connect 24 0 13 2 empty;
#X connect 25 0 13 0 empty;
#X connect 25 1 29 0 empty;
#X connect 26 0 13 3 empty;
#X connect 26 0 17 5 empty;
#X connect 27 0 28 0 empty;
#X connect 27 1 28 1 empty;
#X connect 28 0 17 2 empty;
#X connect 28 0 26 0 empty;
#X connect 28 0 29 1 empty;
#X connect 29 0 16 0 empty;
#X connect 30 0 2 0 empty;
#X connect 30 1 27 0 empty;
#X connect 30 2 1 0 empty;
#X connect 31 0 17 0 empty;
#X restore 509 349 pd construct;
#X obj 509 169 nbx 4 18 1 1e+37 0 0 empty empty empty 0 -8 0 10 #191919 #ffffff #ffffff 0 256;
#X obj 661 319 nbx 4 18 0 1e+37 0 1 empty empty empty 0 -8 0 10 #191919 #ffffff #ffffff 240 256;
#X obj 611 319 nbx 4 18 0 1e+37 0 1 empty empty empty 0 -8 0 10 #191919 #ffffff #ffffff 470 256;
#X obj 594 294 nbx 4 18 -1e+37 1e+37 0 1 empty empty empty 0 -8 0 10 #191919 #ffffff #ffffff 0 256;
#X text 659 348 width & height;
#X text 555 169 n;
#X obj 577 269 nbx 4 18 0 1e+37 0 1 empty empty empty 0 -8 0 10 #191919 #ffffff #ffffff 2 256;
#X text 622 268 x offset;
#X obj 560 244 nbx 4 18 0 1e+37 0 1 empty empty empty 0 -8 0 10 #191919 #ffffff #ffffff 2 256;
#X text 606 244 spacing;
#X obj 543 221 nbx 4 18 0 1e+37 0 0 empty empty empty 0 -8 0 10 #191919 #ffffff #ffffff 0 256;
#X obj 526 199 nbx 4 18 -1e+37 1e+37 0 0 empty empty empty 0 -8 0 10 #191919 #ffffff #ffffff 0 256;
#X text 589 220 index;
#X text 571 197 y value;
#X obj 439 319 bng 25 250 50 0 empty empty empty 17 7 0 10 #191919 #ffffff #ffffff;
#N canvas 0 50 450 300 color 1;
#X obj 129 9 inlet;
#X obj 129 119 rand.i 0 360;
#X msg 129 159 hsl \$1 100 50;
#X obj 319 9 inlet;
#X msg 269 129 symbol sl\$1;
#X obj 129 49 loop;
#X obj 129 79 t b f;
#X obj 129 259 s;
#X msg 129 219 color \$1;
#X obj 129 189 colors;
#X connect 0 0 5 0 empty;
#X connect 1 0 2 0 empty;
#X connect 2 0 9 0 empty;
#X connect 3 0 5 1 empty;
#X connect 4 0 7 1 empty;
#X connect 5 0 6 0 empty;
#X connect 6 0 1 0 empty;
#X connect 6 1 4 0 empty;
#X connect 8 0 7 0 empty;
#X connect 9 0 8 0 empty;
#X restore 439 349 pd color;
#X text 641 292 y axis (-1 to 1);
#X connect 4 0 3 0 empty;
#X connect 4 0 19 1 empty;
#X connect 5 0 3 7 empty;
#X connect 6 0 3 6 empty;
#X connect 7 0 3 5 empty;
#X connect 10 0 3 4 empty;
#X connect 12 0 3 3 empty;
#X connect 14 0 3 2 empty;
#X connect 15 0 3 1 empty;
#X connect 18 0 19 0 empty;
