#N canvas 827 239 527 327 12;
#X obj 9 9 cnv 15 471 241 empty empty empty 20 12 0 14 #191919 #ffffff 0;
#N canvas 0 50 450 250 (subpatch) 0;
#X array arr1 32 float 2;
#X coords 0 1 32 -1 142 82 1;
#X restore 539 19 graph;
#N canvas 0 50 450 300 sliders 1;
#X obj 2 240 cnv 2 24 1 empty sl0 empty 20 12 0 14 #ffffff #ffffff 0;
#X obj 28 240 cnv 2 24 1 empty sl1 empty 20 12 0 14 #ffffff #ffffff 0;
#X obj 54 240 cnv 2 24 1 empty sl2 empty 20 12 0 14 #ffffff #ffffff 0;
#X obj 80 240 cnv 2 24 1 empty sl3 empty 20 12 0 14 #ffffff #ffffff 0;
#X obj 106 240 cnv 2 24 1 empty sl4 empty 20 12 0 14 #ffffff #ffffff 0;
#X obj 132 240 cnv 2 24 1 empty sl5 empty 20 12 0 14 #ffffff #ffffff 0;
#X obj 158 240 cnv 2 24 1 empty sl6 empty 20 12 0 14 #ffffff #ffffff 0;
#X obj 184 240 cnv 2 24 1 empty sl7 empty 20 12 0 14 #ffffff #ffffff 0;
#X obj 210 240 cnv 2 24 1 empty sl8 empty 20 12 0 14 #ffffff #ffffff 0;
#X obj 237 240 cnv 2 24 1 empty sl9 empty 20 12 0 14 #ffffff #ffffff 0;
#X obj 263 240 cnv 2 24 1 empty sl10 empty 20 12 0 14 #ffffff #ffffff 0;
#X obj 289 114 cnv 2 24 126 empty sl11 empty 20 12 0 14 #ffffff #ffffff 0;
#X obj 315 240 cnv 2 24 1 empty sl12 empty 20 12 0 14 #ffffff #ffffff 0;
#X obj 341 240 cnv 2 24 1 empty sl13 empty 20 12 0 14 #ffffff #ffffff 0;
#X obj 367 240 cnv 2 24 1 empty sl14 empty 20 12 0 14 #ffffff #ffffff 0;
#X obj 393 240 cnv 2 24 1 empty sl15 empty 20 12 0 14 #ffffff #ffffff 0;
#X obj 419 240 cnv 2 24 1 empty sl16 empty 20 12 0 14 #ffffff #ffffff 0;
#X obj 445 240 cnv 2 24 1 empty sl17 empty 20 12 0 14 #ffffff #ffffff 0;
#X coords 0 0 1 1 472 242 2 0 0;
#X restore 9 9 pd sliders;
#N canvas 0 50 450 300 construct 1;
#X obj 139 499 s pd-sliders;
#X msg 79 459 clear;
#X obj 609 229 nbx 4 18 -1e+37 1e+37 0 0 empty empty empty 0 -8 0 10 #191919 #ffffff #ffffff 0 256;
#X msg 609 439 symbol sl\$1;
#X obj 459 479 s;
#X obj 89 209 nbx 4 18 -1e+37 1e+37 0 0 empty empty empty 0 -8 0 10 #191919 #ffffff #ffffff 0 256;
#X obj 299 329 /;
#X obj 89 283 t f f b;
#X obj 219 199 nbx 4 18 -1e+37 1e+37 0 1 empty empty empty 0 -8 0 10 #191919 #ffffff #ffffff 470 256;
#X obj 269 199 nbx 4 18 -1e+37 1e+37 0 1 empty empty empty 0 -8 0 10 #191919 #ffffff #ffffff 240 256;
#X obj 500 165 nbx 4 18 -1e+37 1e+37 0 1 empty empty empty 0 -8 0 10 #191919 #ffffff #ffffff -126 256;
#X obj 459 329 -;
#X msg 459 359 delta 0 \$1;
#X obj 500 294 * -1;
#X obj 459 299 t f f;
#X obj 500 257 moses 1;
#X msg 529 224 0;
#X obj 500 194 t f b b;
#X msg 589 409 pos 289.222 240;
#X obj 629 289 *;
#X obj 299 229 / 2;
#X obj 629 349 pack;
#X msg 619 379 set pos \$1 \$2;
#N canvas 0 50 450 300 resize 1;
#X obj 89 49 inlet;
#X obj 223 49 inlet;
#X obj 129 239 outlet;
#X msg 129 189 coords 0 0 1 1 \$1 \$2 2;
#X obj 129 152 pack2;
#X obj 179 119 + 2;
#X obj 129 119 + 2;
#X connect 0 0 6 0 empty;
#X connect 1 0 5 0 empty;
#X connect 3 0 2 0 empty;
#X connect 4 0 3 0 empty;
#X connect 5 0 4 1 empty;
#X connect 6 0 4 0 empty;
#X restore 369 459 pd resize;
#X obj 89 259 loop;
#X obj 89 233 t f f b f b;
#X obj 479 389 pack;
#X msg 479 419 vis_size \$2 \$1;
#X obj 299 379 - 2;
#X text 429 268 spacing;
#X obj 629 319 + 2;
#X obj 89 39 inlet;
#X obj 213 39 inlet;
#X obj 257 39 inlet;
#X obj 301 39 inlet;
#X obj 345 39 inlet;
#X obj 389 39 inlet;
#X obj 433 39 inlet;
#X text 659 228 index;
#X text 550 164 y value;
#X text 209 178 width and height;
#X text 69 188 number of sliders;
#X obj 699 289 nbx 4 18 -1e+37 1e+37 0 1 empty empty empty 0 -8 0 10 #191919 #ffffff #ffffff 2 256;
#X obj 103 313 expr $f1 * ($f2/$f3);
#X obj 139 349 + 2;
#X text 759 288 x offset;
#X obj 319 269 + 0;
#X obj 379 207 nbx 4 18 -1e+37 1e+37 0 1 empty empty empty 0 -8 0 10 #191919 #ffffff #ffffff 120 256;
#X text 429 208 y offset;
#X obj 379 269 nbx 4 18 -1e+37 1e+37 0 1 empty empty empty 0 -8 0 10 #191919 #ffffff #ffffff 2 256;
#X obj 89 129 t f b;
#X obj 139 419 pack f f f f;
#X msg 139 449 obj \$2 \$3 cnv 2 \$4 0 empty sl\$1 empty 20 12 0 14 #ffffff #ffffff 0, f 30;
#N canvas 0 50 450 300 color 1;
#X obj 129 39 inlet;
#X obj 129 99 rand.i 0 360;
#X obj 129 179 colors;
#X msg 129 139 hsl \$1 100 50;
#X obj 129 249 outlet;
#X connect 0 0 1 0 empty;
#X connect 1 0 3 0 empty;
#X connect 2 0 4 0 empty;
#X connect 3 0 2 0 empty;
#X restore 749 69 pd color;
#X obj 379 129 * -1;
#X obj 379 169 *;
#X obj 169 39 inlet;
#X connect 1 0 0 0 empty;
#X connect 2 0 3 0 empty;
#X connect 2 0 19 0 empty;
#X connect 3 0 4 1 empty;
#X connect 5 0 25 0 empty;
#X connect 6 0 19 1 empty;
#X connect 6 0 28 0 empty;
#X connect 7 0 51 0 empty;
#X connect 7 1 43 0 empty;
#X connect 8 0 6 0 empty;
#X connect 8 0 23 0 empty;
#X connect 8 0 43 1 empty;
#X connect 9 0 20 0 empty;
#X connect 9 0 23 1 empty;
#X connect 10 0 17 0 empty;
#X connect 11 0 12 0 empty;
#X connect 12 0 4 0 empty;
#X connect 13 0 26 0 empty;
#X connect 14 0 11 1 empty;
#X connect 14 1 11 0 empty;
#X connect 15 0 14 0 empty;
#X connect 15 0 13 0 empty;
#X connect 15 1 26 0 empty;
#X connect 16 0 15 0 empty;
#X connect 17 0 15 0 empty;
#X connect 17 1 18 0 empty;
#X connect 17 2 16 0 empty;
#X connect 17 2 2 0 empty;
#X connect 18 0 4 0 empty;
#X connect 19 0 30 0 empty;
#X connect 20 0 46 0 empty;
#X connect 20 0 55 1 empty;
#X connect 21 0 22 0 empty;
#X connect 22 0 18 0 empty;
#X connect 23 0 0 0 empty;
#X connect 24 0 7 0 empty;
#X connect 25 0 24 0 empty;
#X connect 25 1 43 2 empty;
#X connect 25 2 6 0 empty;
#X connect 25 3 6 1 empty;
#X connect 25 4 1 0 empty;
#X connect 26 0 27 0 empty;
#X connect 27 0 4 0 empty;
#X connect 28 0 26 1 empty;
#X connect 28 0 51 3 empty;
#X connect 30 0 21 0 empty;
#X connect 31 0 50 0 empty;
#X connect 32 0 2 0 empty;
#X connect 33 0 49 0 empty;
#X connect 34 0 42 0 empty;
#X connect 35 0 54 0 empty;
#X connect 36 0 8 0 empty;
#X connect 37 0 9 0 empty;
#X connect 42 0 30 1 empty;
#X connect 42 0 44 1 empty;
#X connect 43 0 44 0 empty;
#X connect 44 0 51 1 empty;
#X connect 46 0 21 1 empty;
#X connect 46 0 51 2 empty;
#X connect 47 0 46 1 empty;
#X connect 49 0 28 1 empty;
#X connect 50 0 5 0 empty;
#X connect 50 1 8 0 empty;
#X connect 50 1 9 0 empty;
#X connect 51 0 52 0 empty;
#X connect 52 0 0 0 empty;
#X connect 54 0 55 0 empty;
#X connect 55 0 47 0 empty;
#X connect 56 0 10 0 empty;
#X restore 559 299 pd construct;
#X obj 559 119 nbx 4 18 -1e+37 1e+37 0 0 empty empty empty 0 -8 0 10 #191919 #ffffff #ffffff 0 256;
#X obj 711 269 nbx 4 18 -1e+37 1e+37 0 1 empty empty empty 0 -8 0 10 #191919 #ffffff #ffffff 240 256;
#X obj 661 269 nbx 4 18 -1e+37 1e+37 0 1 empty empty empty 0 -8 0 10 #191919 #ffffff #ffffff 470 256;
#X obj 644 244 nbx 4 18 -1e+37 1e+37 0 0 empty empty empty 0 -8 0 10 #191919 #ffffff #ffffff 0 256;
#X text 761 268 width & height;
#X text 539 118 n;
#X obj 627 219 nbx 4 18 -1e+37 1e+37 0 0 empty empty empty 0 -8 0 10 #191919 #ffffff #ffffff 0 256;
#X text 675 220 x offset;
#X obj 610 194 nbx 4 18 -1e+37 1e+37 0 0 empty empty empty 0 -8 0 10 #191919 #ffffff #ffffff 0 256;
#X text 659 194 spacing;
#X obj 593 171 nbx 4 18 -1e+37 1e+37 0 0 empty empty empty 0 -8 0 10 #191919 #ffffff #ffffff 0 256;
#X obj 576 149 nbx 4 18 -1e+37 1e+37 0 0 empty empty empty 0 -8 0 10 #191919 #ffffff #ffffff 0 256;
#X text 639 171 index;
#X text 626 148 y value;
#X text 694 243 y axis position (-1 to 1);
#X connect 4 0 3 0 empty;
#X connect 5 0 3 7 empty;
#X connect 6 0 3 6 empty;
#X connect 7 0 3 5 empty;
#X connect 10 0 3 4 empty;
#X connect 12 0 3 3 empty;
#X connect 14 0 3 2 empty;
#X connect 15 0 3 1 empty;
