#N canvas 827 239 527 327 12;
#X obj 9 9 cnv 15 471 241 empty empty empty 20 12 0 14 #191919 #ffffff 0;
#N canvas 0 50 450 250 (subpatch) 0;
#X array arr1 32 float 2;
#X coords 0 1 32 -1 142 82 1;
#X restore 539 19 graph;
#N canvas 0 50 450 300 sliders 1;
#X obj 2 120 cnv 2 3 1 empty sl0 empty 20 12 0 14 #c3ff00 #ffffff 0;
#X obj 7 120 cnv 2 3 1 empty sl1 empty 20 12 0 14 #0099ff #ffffff 0;
#X obj 12 120 cnv 2 3 1 empty sl2 empty 20 12 0 14 #3bff00 #ffffff 0;
#X obj 17 120 cnv 2 3 1 empty sl3 empty 20 12 0 14 #ff0091 #ffffff 0;
#X obj 22 120 cnv 2 3 1 empty sl4 empty 20 12 0 14 #8c00ff #ffffff 0;
#X obj 27 120 cnv 2 3 1 empty sl5 empty 20 12 0 14 #00ffaa #ffffff 0;
#X obj 32 120 cnv 2 3 1 empty sl6 empty 20 12 0 14 #00aeff #ffffff 0;
#X obj 37 120 cnv 2 3 1 empty sl7 empty 20 12 0 14 #ff0022 #ffffff 0;
#X obj 42 120 cnv 2 3 1 empty sl8 empty 20 12 0 14 #ff6600 #ffffff 0;
#X obj 47 120 cnv 2 3 1 empty sl9 empty 20 12 0 14 #0000ff #ffffff 0;
#X obj 52 120 cnv 2 3 1 empty sl10 empty 20 12 0 14 #8400ff #ffffff 0;
#X obj 57 120 cnv 2 3 1 empty sl11 empty 20 12 0 14 #8c00ff #ffffff 0;
#X obj 62 120 cnv 2 3 1 empty sl12 empty 20 12 0 14 #ff0000 #ffffff 0;
#X obj 67 120 cnv 2 3 1 empty sl13 empty 20 12 0 14 #ff0033 #ffffff 0;
#X obj 72 120 cnv 2 3 1 empty sl14 empty 20 12 0 14 #00ffaa #ffffff 0;
#X obj 77 120 cnv 2 3 1 empty sl15 empty 20 12 0 14 #6aff00 #ffffff 0;
#X obj 82 120 cnv 2 3 1 empty sl16 empty 20 12 0 14 #00ffb2 #ffffff 0;
#X obj 87 120 cnv 2 3 1 empty sl17 empty 20 12 0 14 #00ffd0 #ffffff 0;
#X obj 92 120 cnv 2 3 1 empty sl18 empty 20 12 0 14 #00ff15 #ffffff 0;
#X obj 97 120 cnv 2 3 1 empty sl19 empty 20 12 0 14 #00ff2f #ffffff 0;
#X obj 102 120 cnv 2 3 1 empty sl20 empty 20 12 0 14 #ffb700 #ffffff 0;
#X obj 107 120 cnv 2 3 1 empty sl21 empty 20 12 0 14 #00ffe5 #ffffff 0;
#X obj 112 120 cnv 2 3 1 empty sl22 empty 20 12 0 14 #00d0ff #ffffff 0;
#X obj 117 120 cnv 2 3 1 empty sl23 empty 20 12 0 14 #007bff #ffffff 0;
#X obj 122 120 cnv 2 3 1 empty sl24 empty 20 12 0 14 #ee00ff #ffffff 0;
#X obj 127 120 cnv 2 3 1 empty sl25 empty 20 12 0 14 #ff1100 #ffffff 0;
#X obj 132 120 cnv 2 3 1 empty sl26 empty 20 12 0 14 #00ff3b #ffffff 0;
#X obj 137 120 cnv 2 3 1 empty sl27 empty 20 12 0 14 #00ff95 #ffffff 0;
#X obj 142 120 cnv 2 3 1 empty sl28 empty 20 12 0 14 #ff001e #ffffff 0;
#X obj 147 120 cnv 2 3 1 empty sl29 empty 20 12 0 14 #005eff #ffffff 0;
#X obj 152 120 cnv 2 3 1 empty sl30 empty 20 12 0 14 #ff00a6 #ffffff 0;
#X obj 157 120 cnv 2 3 1 empty sl31 empty 20 12 0 14 #c3ff00 #ffffff 0;
#X obj 162 120 cnv 2 3 1 empty sl32 empty 20 12 0 14 #ff0059 #ffffff 0;
#X obj 167 120 cnv 2 3 1 empty sl33 empty 20 12 0 14 #ff4000 #ffffff 0;
#X obj 172 120 cnv 2 3 1 empty sl34 empty 20 12 0 14 #ffbb00 #ffffff 0;
#X obj 177 120 cnv 2 3 1 empty sl35 empty 20 12 0 14 #73ff00 #ffffff 0;
#X obj 182 120 cnv 2 3 1 empty sl36 empty 20 12 0 14 #ff6600 #ffffff 0;
#X obj 187 120 cnv 2 3 1 empty sl37 empty 20 12 0 14 #5eff00 #ffffff 0;
#X obj 192 120 cnv 2 3 1 empty sl38 empty 20 12 0 14 #ffa600 #ffffff 0;
#X obj 197 120 cnv 2 3 1 empty sl39 empty 20 12 0 14 #ff007b #ffffff 0;
#X obj 202 120 cnv 2 3 1 empty sl40 empty 20 12 0 14 #00ff77 #ffffff 0;
#X obj 207 120 cnv 2 3 1 empty sl41 empty 20 12 0 14 #00ff19 #ffffff 0;
#X obj 212 120 cnv 2 3 1 empty sl42 empty 20 12 0 14 #ff0000 #ffffff 0;
#X obj 217 120 cnv 2 3 1 empty sl43 empty 20 12 0 14 #00a2ff #ffffff 0;
#X obj 222 120 cnv 2 3 1 empty sl44 empty 20 12 0 14 #00ccff #ffffff 0;
#X obj 227 120 cnv 2 3 1 empty sl45 empty 20 12 0 14 #f7ff00 #ffffff 0;
#X obj 232 120 cnv 2 3 1 empty sl46 empty 20 12 0 14 #ffe100 #ffffff 0;
#X obj 237 120 cnv 2 3 1 empty sl47 empty 20 12 0 14 #0077ff #ffffff 0;
#X obj 242 120 cnv 2 3 1 empty sl48 empty 20 12 0 14 #f7ff00 #ffffff 0;
#X obj 247 120 cnv 2 3 1 empty sl49 empty 20 12 0 14 #62ff00 #ffffff 0;
#X obj 252 120 cnv 2 3 1 empty sl50 empty 20 12 0 14 #00e1ff #ffffff 0;
#X obj 257 120 cnv 2 3 1 empty sl51 empty 20 12 0 14 #ff2a00 #ffffff 0;
#X obj 262 120 cnv 2 3 1 empty sl52 empty 20 12 0 14 #7fff00 #ffffff 0;
#X obj 267 120 cnv 2 3 1 empty sl53 empty 20 12 0 14 #ff00aa #ffffff 0;
#X obj 272 120 cnv 2 3 1 empty sl54 empty 20 12 0 14 #00f7ff #ffffff 0;
#X obj 277 120 cnv 2 3 1 empty sl55 empty 20 12 0 14 #aaff00 #ffffff 0;
#X obj 282 120 cnv 2 3 1 empty sl56 empty 20 12 0 14 #3c00ff #ffffff 0;
#X obj 287 120 cnv 2 3 1 empty sl57 empty 20 12 0 14 #00ff48 #ffffff 0;
#X obj 292 120 cnv 2 3 1 empty sl58 empty 20 12 0 14 #00ccff #ffffff 0;
#X obj 297 120 cnv 2 3 1 empty sl59 empty 20 12 0 14 #00fbff #ffffff 0;
#X obj 302 120 cnv 2 3 1 empty sl60 empty 20 12 0 14 #f7ff00 #ffffff 0;
#X obj 307 120 cnv 2 3 1 empty sl61 empty 20 12 0 14 #00ff04 #ffffff 0;
#X obj 312 120 cnv 2 3 1 empty sl62 empty 20 12 0 14 #00ff59 #ffffff 0;
#X obj 317 120 cnv 2 3 1 empty sl63 empty 20 12 0 14 #ff3300 #ffffff 0;
#X obj 322 120 cnv 2 3 1 empty sl64 empty 20 12 0 14 #4c00ff #ffffff 0;
#X obj 327 120 cnv 2 3 1 empty sl65 empty 20 12 0 14 #8c00ff #ffffff 0;
#X obj 332 120 cnv 2 3 1 empty sl66 empty 20 12 0 14 #00d9ff #ffffff 0;
#X obj 337 120 cnv 2 3 1 empty sl67 empty 20 12 0 14 #d9ff00 #ffffff 0;
#X obj 342 120 cnv 2 3 1 empty sl68 empty 20 12 0 14 #f700ff #ffffff 0;
#X obj 347 120 cnv 2 3 1 empty sl69 empty 20 12 0 14 #00fff6 #ffffff 0;
#X obj 352 120 cnv 2 3 1 empty sl70 empty 20 12 0 14 #ff002f #ffffff 0;
#X obj 357 120 cnv 2 3 1 empty sl71 empty 20 12 0 14 #ccff00 #ffffff 0;
#X obj 362 120 cnv 2 3 1 empty sl72 empty 20 12 0 14 #2b00ff #ffffff 0;
#X obj 367 120 cnv 2 3 1 empty sl73 empty 20 12 0 14 #ff7700 #ffffff 0;
#X obj 372 120 cnv 2 3 1 empty sl74 empty 20 12 0 14 #ff0084 #ffffff 0;
#X obj 377 120 cnv 2 3 1 empty sl75 empty 20 12 0 14 #ff0022 #ffffff 0;
#X obj 382 120 cnv 2 3 1 empty sl76 empty 20 12 0 14 #00ff59 #ffffff 0;
#X obj 387 120 cnv 2 3 1 empty sl77 empty 20 12 0 14 #e500ff #ffffff 0;
#X obj 392 120 cnv 2 3 1 empty sl78 empty 20 12 0 14 #ff009d #ffffff 0;
#X obj 397 120 cnv 2 3 1 empty sl79 empty 20 12 0 14 #eaff00 #ffffff 0;
#X obj 402 120 cnv 2 3 1 empty sl80 empty 20 12 0 14 #ff0015 #ffffff 0;
#X obj 407 120 cnv 2 3 1 empty sl81 empty 20 12 0 14 #00ffbf #ffffff 0;
#X obj 412 120 cnv 2 3 1 empty sl82 empty 20 12 0 14 #ff6200 #ffffff 0;
#X obj 417 120 cnv 2 3 1 empty sl83 empty 20 12 0 14 #ffae00 #ffffff 0;
#X obj 422 120 cnv 2 3 1 empty sl84 empty 20 12 0 14 #2f00ff #ffffff 0;
#X obj 427 120 cnv 2 3 1 empty sl85 empty 20 12 0 14 #d500ff #ffffff 0;
#X obj 432 120 cnv 2 3 1 empty sl86 empty 20 12 0 14 #ff5500 #ffffff 0;
#X obj 437 120 cnv 2 3 1 empty sl87 empty 20 12 0 14 #ff0009 #ffffff 0;
#X obj 442 120 cnv 2 3 1 empty sl88 empty 20 12 0 14 #26ff00 #ffffff 0;
#X obj 447 120 cnv 2 3 1 empty sl89 empty 20 12 0 14 #00c8ff #ffffff 0;
#X obj 452 120 cnv 2 3 1 empty sl90 empty 20 12 0 14 #ff002f #ffffff 0;
#X obj 457 120 cnv 2 3 1 empty sl91 empty 20 12 0 14 #2bff00 #ffffff 0;
#X obj 462 120 cnv 2 3 1 empty sl92 empty 20 12 0 14 #ea00ff #ffffff 0;
#X obj 467 120 cnv 2 3 1 empty sl93 empty 20 12 0 14 #ff0033 #ffffff 0;
#X coords 0 0 1 1 472 242 2 0 0;
#X restore 9 9 pd sliders;
#N canvas 0 50 840 530 construct 1;
#X obj 119 489 s pd-sliders;
#X msg 59 449 clear;
#X obj 609 209 nbx 4 18 -1e+37 1e+37 0 0 empty empty empty 0 -8 0 10 #191919 #ffffff #ffffff 0 256;
#X msg 609 429 symbol sl\$1;
#X obj 489 479 s;
#X obj 69 199 nbx 4 18 -1e+37 1e+37 0 0 empty empty empty 0 -8 0 10 #191919 #ffffff #ffffff 0 256;
#X obj 239 299 /;
#X obj 69 273 t f f b;
#X obj 149 129 nbx 4 18 -1e+37 1e+37 0 0 empty empty empty 0 -8 0 10 #191919 #ffffff #ffffff 0 256;
#X obj 199 129 nbx 4 18 -1e+37 1e+37 0 0 empty empty empty 0 -8 0 10 #191919 #ffffff #ffffff 0 256;
#X obj 500 155 nbx 4 18 -1e+37 1e+37 0 0 empty empty empty 0 -8 0 10 #191919 #ffffff #ffffff 0 256;
#X obj 459 319 -;
#X msg 459 349 delta 0 \$1;
#X obj 500 284 * -1;
#X obj 459 289 t f f;
#X obj 500 247 moses 1;
#X msg 529 214 0;
#X obj 500 184 t f b b;
#X obj 631 292 *;
#X obj 299 179 / 2;
#X obj 631 362 pack;
#X obj 69 249 loop;
#X obj 69 223 t f f b f b;
#X obj 489 389 pack;
#X msg 489 419 vis_size \$2 \$1;
#X text 309 348 spacing;
#X obj 69 29 inlet;
#X obj 193 29 inlet;
#X obj 237 29 inlet;
#X obj 281 29 inlet;
#X obj 325 29 inlet;
#X obj 439 29 inlet;
#X obj 483 29 inlet;
#X text 659 208 index;
#X text 550 154 y value;
#X text 149 108 width and height;
#X text 49 178 number of sliders;
#X obj 709 209 nbx 4 18 -1e+37 1e+37 0 0 empty empty empty 0 -8 0 10 #191919 #ffffff #ffffff 0 256;
#X obj 98 305 expr $f1 * ($f2/$f3);
#X text 759 208 x offset;
#X obj 299 279 + 0;
#X obj 319 247 nbx 4 18 -1e+37 1e+37 0 0 empty empty empty 0 -8 0 10 #191919 #ffffff #ffffff 0 256;
#X text 369 248 y offset;
#X obj 259 349 nbx 4 18 -1e+37 1e+37 0 0 empty empty empty 0 -8 0 10 #191919 #ffffff #ffffff 0 256;
#X obj 69 69 t f b;
#X obj 119 409 pack f f f f;
#X msg 119 439 obj \$2 \$3 cnv 2 \$4 0 empty sl\$1 empty 20 12 0 14 #ffffff #ffffff 0, f 30;
#X obj 339 169 * -1;
#X obj 339 209 *;
#X obj 149 29 inlet;
#N canvas 0 50 450 300 set-pos 1;
#X obj 109 59 inlet;
#X obj 219 59 inlet;
#X obj 159 219 outlet;
#X msg 159 169 pos 289.222 240;
#X msg 219 109 set pos \$1 \$2;
#X connect 0 0 3 0 empty;
#X connect 1 0 4 0 empty;
#X connect 3 0 2 0 empty;
#X connect 4 0 3 0 empty;
#X restore 579 389 pd set-pos;
#X obj 369 29 inlet;
#X obj 339 139 +;
#X obj 239 379 -;
#X obj 629 319 +;
#X obj 134 359 +;
#X connect 1 0 0 0 empty;
#X connect 2 0 3 0 empty;
#X connect 2 0 18 0 empty;
#X connect 3 0 4 1 empty;
#X connect 5 0 22 0 empty;
#X connect 6 0 18 1 empty;
#X connect 6 0 53 0 empty;
#X connect 7 0 45 0 empty;
#X connect 7 1 38 0 empty;
#X connect 8 0 6 0 empty;
#X connect 8 0 38 1 empty;
#X connect 9 0 19 0 empty;
#X connect 10 0 17 0 empty;
#X connect 11 0 12 0 empty;
#X connect 12 0 4 0 empty;
#X connect 13 0 23 0 empty;
#X connect 14 0 11 1 empty;
#X connect 14 1 11 0 empty;
#X connect 15 0 14 0 empty;
#X connect 15 0 13 0 empty;
#X connect 15 1 23 0 empty;
#X connect 16 0 15 0 empty;
#X connect 17 0 15 0 empty;
#X connect 17 1 50 0 empty;
#X connect 17 2 16 0 empty;
#X connect 17 2 2 0 empty;
#X connect 18 0 54 0 empty;
#X connect 19 0 40 0 empty;
#X connect 19 0 48 1 empty;
#X connect 20 0 50 1 empty;
#X connect 21 0 7 0 empty;
#X connect 22 0 21 0 empty;
#X connect 22 1 38 2 empty;
#X connect 22 2 6 0 empty;
#X connect 22 3 6 1 empty;
#X connect 22 4 1 0 empty;
#X connect 23 0 24 0 empty;
#X connect 24 0 4 0 empty;
#X connect 26 0 44 0 empty;
#X connect 27 0 2 0 empty;
#X connect 28 0 43 0 empty;
#X connect 29 0 37 0 empty;
#X connect 30 0 52 0 empty;
#X connect 31 0 8 0 empty;
#X connect 32 0 9 0 empty;
#X connect 37 0 54 1 empty;
#X connect 37 0 55 1 empty;
#X connect 38 0 55 0 empty;
#X connect 40 0 20 1 empty;
#X connect 40 0 45 2 empty;
#X connect 41 0 40 1 empty;
#X connect 43 0 53 1 empty;
#X connect 44 0 5 0 empty;
#X connect 44 1 8 0 empty;
#X connect 44 1 9 0 empty;
#X connect 45 0 46 0 empty;
#X connect 46 0 0 0 empty;
#X connect 47 0 48 0 empty;
#X connect 48 0 41 0 empty;
#X connect 49 0 10 0 empty;
#X connect 50 0 4 0 empty;
#X connect 51 0 52 1 empty;
#X connect 52 0 47 0 empty;
#X connect 53 0 23 1 empty;
#X connect 53 0 45 3 empty;
#X connect 54 0 20 0 empty;
#X connect 55 0 45 1 empty;
#X restore 559 359 pd construct;
#X obj 559 119 nbx 4 18 -1e+37 1e+37 0 0 empty empty empty 0 -8 0 10 #191919 #ffffff #ffffff 0 256;
#X obj 728 319 nbx 4 18 -1e+37 1e+37 0 1 empty empty empty 0 -8 0 10 #191919 #ffffff #ffffff 240 256;
#X obj 678 319 nbx 4 18 -1e+37 1e+37 0 1 empty empty empty 0 -8 0 10 #191919 #ffffff #ffffff 470 256;
#X obj 644 254 nbx 4 18 -1e+37 1e+37 0 1 empty empty empty 0 -8 0 10 #191919 #ffffff #ffffff -1 256;
#X text 689 298 width & height;
#X text 539 118 n;
#X obj 627 219 nbx 4 18 -1e+37 1e+37 0 1 empty empty empty 0 -8 0 10 #191919 #ffffff #ffffff 2 256;
#X text 675 220 x offset;
#X obj 610 194 nbx 4 18 -1e+37 1e+37 0 1 empty empty empty 0 -8 0 10 #191919 #ffffff #ffffff 2 256;
#X text 659 194 spacing;
#X obj 593 171 nbx 4 18 -1e+37 1e+37 0 0 empty empty empty 0 -8 0 10 #191919 #ffffff #ffffff 0 256;
#X obj 576 149 nbx 4 18 -1e+37 1e+37 0 0 empty empty empty 0 -8 0 10 #191919 #ffffff #ffffff 0 256;
#X text 639 171 index;
#X text 626 148 y value;
#X obj 479 319 bng 25 250 50 0 empty empty empty 17 7 0 10 #191919 #ffffff #ffffff;
#X text 694 253 y from;
#N canvas 0 50 450 300 color 1;
#X obj 129 9 inlet;
#X obj 129 119 rand.i 0 360;
#X msg 129 159 hsl \$1 100 50;
#X obj 319 9 inlet;
#X msg 269 129 symbol sl\$1;
#X obj 129 49 loop;
#X obj 129 79 t b f;
#X obj 129 259 s;
#X msg 129 219 color \$1;
#X obj 129 189 colors;
#X connect 0 0 5 0 empty;
#X connect 1 0 2 0 empty;
#X connect 2 0 9 0 empty;
#X connect 3 0 5 1 empty;
#X connect 4 0 7 1 empty;
#X connect 5 0 6 0 empty;
#X connect 6 0 1 0 empty;
#X connect 6 1 4 0 empty;
#X connect 8 0 7 0 empty;
#X connect 9 0 8 0 empty;
#X restore 479 359 pd color;
#N canvas 0 50 450 300 resize 1;
#X obj 89 49 inlet;
#X obj 223 49 inlet;
#X msg 129 189 coords 0 0 1 1 \$1 \$2 2;
#X obj 129 152 pack2;
#X obj 179 119 + 2;
#X obj 129 119 + 2;
#X obj 129 219 s pd-sliders;
#X connect 0 0 5 0 empty;
#X connect 1 0 4 0 empty;
#X connect 2 0 6 0 empty;
#X connect 3 0 2 0 empty;
#X connect 4 0 3 1 empty;
#X connect 5 0 3 0 empty;
#X restore 729 359 pd resize;
#X obj 661 278 nbx 4 18 -1e+37 1e+37 0 1 empty empty empty 0 -8 0 10 #191919 #ffffff #ffffff 1 256;
#X text 714 276 y to;
#X connect 4 0 3 0 empty;
#X connect 4 0 20 1 empty;
#X connect 5 0 3 8 empty;
#X connect 5 0 21 1 empty;
#X connect 6 0 3 7 empty;
#X connect 6 0 21 0 empty;
#X connect 7 0 3 5 empty;
#X connect 10 0 3 4 empty;
#X connect 12 0 3 3 empty;
#X connect 14 0 3 2 empty;
#X connect 15 0 3 1 empty;
#X connect 18 0 20 0 empty;
#X connect 22 0 3 6 empty;
