#N canvas 827 239 527 327 12;
#X obj 9 9 cnv 15 471 241 empty empty empty 20 12 0 14 #191919 #ffffff 0;
#N canvas 0 50 450 250 (subpatch) 0;
#X array arr1 32 float 2;
#X coords 0 1 32 -1 142 82 1;
#X restore 539 19 graph;
#X obj 109 519 s pd-sliders;
#X msg 39 469 clear;
#X obj 589 299 nbx 4 18 -1e+37 1e+37 0 0 empty empty empty 0 -8 0 10 #191919 #ffffff #ffffff 0 256;
#X msg 589 469 symbol sl\$1;
#X obj 439 509 s;
#X obj 109 269 nbx 4 18 -1e+37 1e+37 0 0 empty empty empty 0 -8 0 10 #191919 #ffffff #ffffff 0 256;
#X obj 289 379 /;
#N canvas 0 50 450 300 rnd-color 1;
#X obj 129 39 inlet;
#X obj 129 99 rand.i 0 360;
#X obj 129 179 colors;
#X msg 129 139 hsl \$1 100 50;
#X obj 129 249 outlet;
#X connect 0 0 1 0 empty;
#X connect 1 0 3 0 empty;
#X connect 2 0 4 0 empty;
#X connect 3 0 2 0 empty;
#X restore 192 409 pd rnd-color;
#X obj 109 343 t f f b;
#N canvas 0 50 450 300 sliders 1;
#X obj 0 120 cnv 2 2 71 empty sl0 empty 20 12 0 14 #bb00ff #ffffff 0;
#X obj 4 120 cnv 2 2 60 empty sl1 empty 20 12 0 14 #ff8800 #ffffff 0;
#X obj 8 120 cnv 2 2 1 empty sl2 empty 20 12 0 14 #ff00ae #ffffff 0;
#X obj 12 118 cnv 2 2 2 empty sl3 empty 20 12 0 14 #009dff #ffffff 0;
#X obj 16 120 cnv 2 2 1 empty sl4 empty 20 12 0 14 #ae00ff #ffffff 0;
#X obj 20 120 cnv 2 2 15 empty sl5 empty 20 12 0 14 #2fff00 #ffffff 0;
#X obj 24 119 cnv 2 2 1 empty sl6 empty 20 12 0 14 #00ff37 #ffffff 0;
#X obj 29 47 cnv 2 2 73 empty sl7 empty 20 12 0 14 #2f00ff #ffffff 0;
#X obj 33 94 cnv 2 2 26 empty sl8 empty 20 12 0 14 #26ff00 #ffffff 0;
#X obj 37 120 cnv 2 2 14 empty sl9 empty 20 12 0 14 #ae00ff #ffffff 0;
#X obj 41 120 cnv 2 2 46 empty sl10 empty 20 12 0 14 #00ff9d #ffffff 0;
#X obj 45 120 cnv 2 2 35 empty sl11 empty 20 12 0 14 #6200ff #ffffff 0;
#X obj 49 120 cnv 2 2 1 empty sl12 empty 20 12 0 14 #00ffc3 #ffffff 0;
#X obj 54 120 cnv 2 2 63 empty sl13 empty 20 12 0 14 #ff0099 #ffffff 0;
#X obj 58 120 cnv 2 2 1 empty sl14 empty 20 12 0 14 #ff00f2 #ffffff 0;
#X obj 62 120 cnv 2 2 1 empty sl15 empty 20 12 0 14 #bbff00 #ffffff 0;
#X obj 66 120 cnv 2 2 54 empty sl16 empty 20 12 0 14 #d0ff00 #ffffff 0;
#X obj 70 41 cnv 2 2 79 empty sl17 empty 20 12 0 14 #006aff #ffffff 0;
#X obj 74 120 cnv 2 2 115 empty sl18 empty 20 12 0 14 #0037ff #ffffff 0;
#X obj 79 120 cnv 2 2 1 empty sl19 empty 20 12 0 14 #d0ff00 #ffffff 0;
#X obj 83 120 cnv 2 2 1 empty sl20 empty 20 12 0 14 #0099ff #ffffff 0;
#X obj 87 120 cnv 2 2 1 empty sl21 empty 20 12 0 14 #15ff00 #ffffff 0;
#X obj 91 120 cnv 2 2 58 empty sl22 empty 20 12 0 14 #009dff #ffffff 0;
#X obj 95 65 cnv 2 2 55 empty sl23 empty 20 12 0 14 #00d0ff #ffffff 0;
#X obj 99 110 cnv 2 2 10 empty sl24 empty 20 12 0 14 #40ff00 #ffffff 0;
#X obj 103 10 cnv 2 2 110 empty sl25 empty 20 12 0 14 #ff0400 #ffffff 0;
#X obj 108 120 cnv 2 2 1 empty sl26 empty 20 12 0 14 #66ff00 #ffffff 0;
#X obj 112 95 cnv 2 2 25 empty sl27 empty 20 12 0 14 #00b3ff #ffffff 0;
#X obj 116 120 cnv 2 2 51 empty sl28 empty 20 12 0 14 #26ff00 #ffffff 0;
#X obj 120 120 cnv 2 2 1 empty sl29 empty 20 12 0 14 #003cff #ffffff 0;
#X obj 124 120 cnv 2 2 50 empty sl30 empty 20 12 0 14 #a100ff #ffffff 0;
#X obj 128 120 cnv 2 2 89 empty sl31 empty 20 12 0 14 #2bff00 #ffffff 0;
#X obj 133 120 cnv 2 2 1 empty sl32 empty 20 12 0 14 #ff00fb #ffffff 0;
#X obj 137 58 cnv 2 2 62 empty sl33 empty 20 12 0 14 #00ffdd #ffffff 0;
#X obj 141 120 cnv 2 2 49 empty sl34 empty 20 12 0 14 #ff9d00 #ffffff 0;
#X obj 145 120 cnv 2 2 1 empty sl35 empty 20 12 0 14 #5d00ff #ffffff 0;
#X obj 149 120 cnv 2 2 1 empty sl36 empty 20 12 0 14 #5900ff #ffffff 0;
#X obj 153 120 cnv 2 2 1 empty sl37 empty 20 12 0 14 #84ff00 #ffffff 0;
#X obj 158 120 cnv 2 2 1 empty sl38 empty 20 12 0 14 #00ff62 #ffffff 0;
#X obj 162 120 cnv 2 2 1 empty sl39 empty 20 12 0 14 #ee00ff #ffffff 0;
#X obj 166 99 cnv 2 2 21 empty sl40 empty 20 12 0 14 #3700ff #ffffff 0;
#X obj 170 43 cnv 2 2 77 empty sl41 empty 20 12 0 14 #ff0084 #ffffff 0;
#X obj 174 24 cnv 2 2 96 empty sl42 empty 20 12 0 14 #0048ff #ffffff 0;
#X obj 178 120 cnv 2 2 84 empty sl43 empty 20 12 0 14 #0022ff #ffffff 0;
#X obj 183 115 cnv 2 2 5 empty sl44 empty 20 12 0 14 #59ff00 #ffffff 0;
#X obj 187 23 cnv 2 2 97 empty sl45 empty 20 12 0 14 #b3ff00 #ffffff 0;
#X obj 191 120 cnv 2 2 1 empty sl46 empty 20 12 0 14 #15ff00 #ffffff 0;
#X obj 195 120 cnv 2 2 1 empty sl47 empty 20 12 0 14 #9d00ff #ffffff 0;
#X obj 199 120 cnv 2 2 89 empty sl48 empty 20 12 0 14 #f7ff00 #ffffff 0;
#X obj 203 120 cnv 2 2 24 empty sl49 empty 20 12 0 14 #00ff11 #ffffff 0;
#X obj 207 120 cnv 2 2 120 empty sl50 empty 20 12 0 14 #ffff00 #ffffff 0;
#X obj 212 120 cnv 2 2 26 empty sl51 empty 20 12 0 14 #22ff00 #ffffff 0;
#X obj 216 120 cnv 2 2 1 empty sl52 empty 20 12 0 14 #00ffee #ffffff 0;
#X obj 220 120 cnv 2 2 1 empty sl53 empty 20 12 0 14 #e6ff00 #ffffff 0;
#X obj 224 120 cnv 2 2 1 empty sl54 empty 20 12 0 14 #c8ff00 #ffffff 0;
#X obj 228 120 cnv 2 2 1 empty sl55 empty 20 12 0 14 #0091ff #ffffff 0;
#X obj 232 120 cnv 2 2 1 empty sl56 empty 20 12 0 14 #ffc400 #ffffff 0;
#X obj 237 82 cnv 2 2 38 empty sl57 empty 20 12 0 14 #aaff00 #ffffff 0;
#X obj 241 66 cnv 2 2 54 empty sl58 empty 20 12 0 14 #9900ff #ffffff 0;
#X obj 245 120 cnv 2 2 1 empty sl59 empty 20 12 0 14 #0011ff #ffffff 0;
#X obj 249 120 cnv 2 2 73 empty sl60 empty 20 12 0 14 #0015ff #ffffff 0;
#X obj 253 120 cnv 2 2 11 empty sl61 empty 20 12 0 14 #ff00f7 #ffffff 0;
#X obj 257 120 cnv 2 2 13 empty sl62 empty 20 12 0 14 #62ff00 #ffffff 0;
#X obj 262 114 cnv 2 2 6 empty sl63 empty 20 12 0 14 #00aaff #ffffff 0;
#X obj 266 120 cnv 2 2 22 empty sl64 empty 20 12 0 14 #ff007f #ffffff 0;
#X obj 270 56 cnv 2 2 64 empty sl65 empty 20 12 0 14 #000dff #ffffff 0;
#X obj 274 112 cnv 2 2 8 empty sl66 empty 20 12 0 14 #00ffff #ffffff 0;
#X obj 278 98 cnv 2 2 22 empty sl67 empty 20 12 0 14 #ff1100 #ffffff 0;
#X obj 282 120 cnv 2 2 117 empty sl68 empty 20 12 0 14 #00eaff #ffffff 0;
#X obj 286 120 cnv 2 2 1 empty sl69 empty 20 12 0 14 #ff00bb #ffffff 0;
#X obj 291 110 cnv 2 2 10 empty sl70 empty 20 12 0 14 #00ffb2 #ffffff 0;
#X obj 295 120 cnv 2 2 89 empty sl71 empty 20 12 0 14 #00ff6a #ffffff 0;
#X obj 299 120 cnv 2 2 35 empty sl72 empty 20 12 0 14 #1aff00 #ffffff 0;
#X obj 303 120 cnv 2 2 1 empty sl73 empty 20 12 0 14 #ff9500 #ffffff 0;
#X obj 307 9 cnv 2 2 111 empty sl74 empty 20 12 0 14 #3700ff #ffffff 0;
#X obj 311 75 cnv 2 2 45 empty sl75 empty 20 12 0 14 #aa00ff #ffffff 0;
#X obj 316 83 cnv 2 2 37 empty sl76 empty 20 12 0 14 #95ff00 #ffffff 0;
#X obj 320 120 cnv 2 2 1 empty sl77 empty 20 12 0 14 #5900ff #ffffff 0;
#X obj 324 120 cnv 2 2 18 empty sl78 empty 20 12 0 14 #00ff33 #ffffff 0;
#X obj 328 120 cnv 2 2 4 empty sl79 empty 20 12 0 14 #00ffe5 #ffffff 0;
#X obj 332 35 cnv 2 2 85 empty sl80 empty 20 12 0 14 #1eff00 #ffffff 0;
#X obj 336 120 cnv 2 2 1 empty sl81 empty 20 12 0 14 #00ff15 #ffffff 0;
#X obj 341 120 cnv 2 2 86 empty sl82 empty 20 12 0 14 #ffb700 #ffffff 0;
#X obj 345 120 cnv 2 2 1 empty sl83 empty 20 12 0 14 #00eeff #ffffff 0;
#X obj 349 120 cnv 2 2 41 empty sl84 empty 20 12 0 14 #ff002b #ffffff 0;
#X obj 353 120 cnv 2 2 18 empty sl85 empty 20 12 0 14 #00ffa6 #ffffff 0;
#X obj 357 79 cnv 2 2 41 empty sl86 empty 20 12 0 14 #5900ff #ffffff 0;
#X obj 361 120 cnv 2 2 113 empty sl87 empty 20 12 0 14 #ff4000 #ffffff 0;
#X obj 366 120 cnv 2 2 1 empty sl88 empty 20 12 0 14 #00eeff #ffffff 0;
#X obj 370 120 cnv 2 2 1 empty sl89 empty 20 12 0 14 #ff00b3 #ffffff 0;
#X obj 374 120 cnv 2 2 1 empty sl90 empty 20 12 0 14 #00ff22 #ffffff 0;
#X obj 378 120 cnv 2 2 1 empty sl91 empty 20 12 0 14 #ff0095 #ffffff 0;
#X obj 382 120 cnv 2 2 110 empty sl92 empty 20 12 0 14 #ffd500 #ffffff 0;
#X obj 386 120 cnv 2 2 1 empty sl93 empty 20 12 0 14 #88ff00 #ffffff 0;
#X obj 390 120 cnv 2 2 24 empty sl94 empty 20 12 0 14 #ff9000 #ffffff 0;
#X obj 395 29 cnv 2 2 91 empty sl95 empty 20 12 0 14 #ffbb00 #ffffff 0;
#X obj 399 120 cnv 2 2 1 empty sl96 empty 20 12 0 14 #f2ff00 #ffffff 0;
#X obj 403 120 cnv 2 2 1 empty sl97 empty 20 12 0 14 #ff4400 #ffffff 0;
#X obj 407 120 cnv 2 2 84 empty sl98 empty 20 12 0 14 #ffc400 #ffffff 0;
#X obj 411 120 cnv 2 2 1 empty sl99 empty 20 12 0 14 #d0ff00 #ffffff 0;
#X obj 415 120 cnv 2 2 1 empty sl100 empty 20 12 0 14 #a6ff00 #ffffff 0;
#X obj 420 120 cnv 2 2 4 empty sl101 empty 20 12 0 14 #ffdd00 #ffffff 0;
#X obj 424 120 cnv 2 2 34 empty sl102 empty 20 12 0 14 #dd00ff #ffffff 0;
#X obj 428 31 cnv 2 2 89 empty sl103 empty 20 12 0 14 #ff3c00 #ffffff 0;
#X obj 432 114 cnv 2 2 6 empty sl104 empty 20 12 0 14 #a600ff #ffffff 0;
#X obj 436 120 cnv 2 2 76 empty sl105 empty 20 12 0 14 #ff0099 #ffffff 0;
#X obj 440 120 cnv 2 2 105 empty sl106 empty 20 12 0 14 #00ff66 #ffffff 0;
#X obj 445 120 cnv 2 2 47 empty sl107 empty 20 12 0 14 #008cff #ffffff 0;
#X obj 449 120 cnv 2 2 1 empty sl108 empty 20 12 0 14 #ea00ff #ffffff 0;
#X obj 453 6 cnv 2 2 114 empty sl109 empty 20 12 0 14 #d0ff00 #ffffff 0;
#X obj 457 24 cnv 2 2 96 empty sl110 empty 20 12 0 14 #9900ff #ffffff 0;
#X obj 461 120 cnv 2 2 79 empty sl111 empty 20 12 0 14 #e1ff00 #ffffff 0;
#X obj 465 120 cnv 2 2 98 empty sl112 empty 20 12 0 14 #a2ff00 #ffffff 0;
#X coords 0 0 1 1 471 241 2 0 0;
#X restore 9 9 pd sliders;
#X obj 309 259 nbx 4 18 -1e+37 1e+37 0 1 empty empty empty 0 -8 0 10 #191919 #ffffff #ffffff 470 256;
#X obj 359 259 nbx 4 18 -1e+37 1e+37 0 1 empty empty empty 0 -8 0 10 #191919 #ffffff #ffffff 240 256;
#X obj 123 373 expr $f1 * ($f2/$f3);
#X obj 510 194 nbx 4 18 -1e+37 1e+37 0 1 empty empty empty 0 -8 0 10 #191919 #ffffff #ffffff 84 256;
#X obj 439 359 -;
#X msg 439 389 delta 0 \$1;
#X obj 480 324 * -1;
#X obj 439 329 t f f;
#X obj 480 287 moses 1;
#X msg 549 260 0;
#X obj 510 224 t f b b;
#X msg 569 439 pos 178.85 120;
#X obj 609 339 *;
#X obj 399 299 / 2;
#X obj 609 379 pack;
#X msg 599 409 set pos \$1 \$2;
#X obj 109 439 pack f f f f f s;
#N canvas 0 50 450 300 resize 1;
#X obj 89 49 inlet;
#X obj 223 49 inlet;
#X obj 129 239 outlet;
#X msg 129 189 coords 0 0 1 1 \$1 \$2 2;
#X obj 129 152 pack2;
#X obj 179 119 + 1;
#X obj 129 119 + 1;
#X connect 0 0 6 0 empty;
#X connect 1 0 5 0 empty;
#X connect 3 0 2 0 empty;
#X connect 4 0 3 0 empty;
#X connect 5 0 4 1 empty;
#X connect 6 0 4 0 empty;
#X restore 359 479 pd resize;
#X obj 109 319 loop;
#X obj 109 293 t f f b f b;
#X msg 109 469 obj \$2 \$3 cnv 2 \$4 0 empty sl\$1 empty 20 12 0 14 \$6 #ffffff 0, f 33;
#X obj 459 419 pack;
#X msg 459 449 vis_size \$2 \$1;
#X obj 659 169 rand.i -120 120;
#X obj 709 219 rand.i 0 113;
#X obj 716 131 t b b;
#X obj 719 79 bng 25 250 50 0 empty empty empty 17 7 0 10 #191919 #ffffff #ffffff;
#X obj 289 409 - 2;
#X text 331 413 spacing;
#X connect 3 0 2 0 empty;
#X connect 4 0 5 0 empty;
#X connect 4 0 24 0 empty;
#X connect 5 0 6 1 empty;
#X connect 7 0 31 0 empty;
#X connect 8 0 24 1 empty;
#X connect 8 0 39 0 empty;
#X connect 9 0 28 5 empty;
#X connect 10 0 28 0 empty;
#X connect 10 1 14 0 empty;
#X connect 10 2 9 0 empty;
#X connect 12 0 8 0 empty;
#X connect 12 0 14 1 empty;
#X connect 12 0 29 0 empty;
#X connect 13 0 25 0 empty;
#X connect 13 0 29 1 empty;
#X connect 14 0 28 1 empty;
#X connect 15 0 22 0 empty;
#X connect 16 0 17 0 empty;
#X connect 17 0 6 0 empty;
#X connect 18 0 33 0 empty;
#X connect 19 0 16 1 empty;
#X connect 19 1 16 0 empty;
#X connect 20 0 19 0 empty;
#X connect 20 0 18 0 empty;
#X connect 20 1 33 0 empty;
#X connect 21 0 20 0 empty;
#X connect 22 0 20 0 empty;
#X connect 22 1 23 0 empty;
#X connect 22 2 21 0 empty;
#X connect 23 0 6 0 empty;
#X connect 24 0 26 0 empty;
#X connect 25 0 26 1 empty;
#X connect 25 0 28 2 empty;
#X connect 26 0 27 0 empty;
#X connect 27 0 23 0 empty;
#X connect 28 0 32 0 empty;
#X connect 29 0 2 0 empty;
#X connect 30 0 10 0 empty;
#X connect 31 0 30 0 empty;
#X connect 31 1 14 2 empty;
#X connect 31 2 8 0 empty;
#X connect 31 3 8 1 empty;
#X connect 31 4 3 0 empty;
#X connect 32 0 2 0 empty;
#X connect 33 0 34 0 empty;
#X connect 34 0 6 0 empty;
#X connect 35 0 15 0 empty;
#X connect 36 0 4 0 empty;
#X connect 37 0 35 0 empty;
#X connect 37 1 36 0 empty;
#X connect 38 0 37 0 empty;
#X connect 39 0 28 3 empty;
#X connect 39 0 33 1 empty;
