#N canvas 827 239 760 420 12;
#X obj 279 119 pad 470 240 255 255 255;
#X obj 279 119 cnv 15 471 241 empty empty empty 20 12 0 14 #191919 #ffffff 0;
#N canvas 0 50 450 300 sliders 1;
#X obj 2 76 cnv 2 7 164 empty sl0 empty 20 12 0 14 #5900ff #ffffff 0;
#X obj 11 72 cnv 2 7 168 empty sl1 empty 20 12 0 14 #ff0015 #ffffff 0;
#X obj 20 71 cnv 2 7 169 empty sl2 empty 20 12 0 14 #0088ff #ffffff 0;
#X obj 29 71 cnv 2 7 169 empty sl3 empty 20 12 0 14 #00bbff #ffffff 0;
#X obj 38 72 cnv 2 7 168 empty sl4 empty 20 12 0 14 #ff0051 #ffffff 0;
#X obj 48 72 cnv 2 7 168 empty sl5 empty 20 12 0 14 #ff00d0 #ffffff 0;
#X obj 57 74 cnv 2 7 166 empty sl6 empty 20 12 0 14 #0022ff #ffffff 0;
#X obj 66 74 cnv 2 7 166 empty sl7 empty 20 12 0 14 #11ff00 #ffffff 0;
#X obj 75 74 cnv 2 7 166 empty sl8 empty 20 12 0 14 #6fff00 #ffffff 0;
#X obj 84 75 cnv 2 7 165 empty sl9 empty 20 12 0 14 #c400ff #ffffff 0;
#X obj 94 75 cnv 2 7 165 empty sl10 empty 20 12 0 14 #ff007b #ffffff 0;
#X obj 103 75 cnv 2 7 165 empty sl11 empty 20 12 0 14 #ff1500 #ffffff 0;
#X obj 112 74 cnv 2 7 166 empty sl12 empty 20 12 0 14 #0084ff #ffffff 0;
#X obj 121 72 cnv 2 7 168 empty sl13 empty 20 12 0 14 #ff1a00 #ffffff 0;
#X obj 131 65 cnv 2 7 175 empty sl14 empty 20 12 0 14 #00ffe5 #ffffff 0;
#X obj 140 63 cnv 2 7 177 empty sl15 empty 20 12 0 14 #ffe100 #ffffff 0;
#X obj 149 61 cnv 2 7 179 empty sl16 empty 20 12 0 14 #ff5900 #ffffff 0;
#X obj 158 61 cnv 2 7 179 empty sl17 empty 20 12 0 14 #ff1a00 #ffffff 0;
#X obj 167 61 cnv 2 7 179 empty sl18 empty 20 12 0 14 #00ffae #ffffff 0;
#X obj 177 61 cnv 2 7 179 empty sl19 empty 20 12 0 14 #00ff04 #ffffff 0;
#X obj 186 62 cnv 2 7 178 empty sl20 empty 20 12 0 14 #ff0099 #ffffff 0;
#X obj 195 63 cnv 2 7 177 empty sl21 empty 20 12 0 14 #00ff7f #ffffff 0;
#X obj 204 66 cnv 2 7 174 empty sl22 empty 20 12 0 14 #ff0073 #ffffff 0;
#X obj 213 69 cnv 2 7 171 empty sl23 empty 20 12 0 14 #0066ff #ffffff 0;
#X obj 223 72 cnv 2 7 168 empty sl24 empty 20 12 0 14 #ff9500 #ffffff 0;
#X obj 232 78 cnv 2 7 162 empty sl25 empty 20 12 0 14 #d900ff #ffffff 0;
#X obj 241 82 cnv 2 7 158 empty sl26 empty 20 12 0 14 #00ffd4 #ffffff 0;
#X obj 250 88 cnv 2 7 152 empty sl27 empty 20 12 0 14 #000dff #ffffff 0;
#X obj 260 90 cnv 2 7 150 empty sl28 empty 20 12 0 14 #00ff73 #ffffff 0;
#X obj 269 95 cnv 2 7 145 empty sl29 empty 20 12 0 14 #9500ff #ffffff 0;
#X obj 278 108 cnv 2 7 132 empty sl30 empty 20 12 0 14 #ff8400 #ffffff 0;
#X obj 287 114 cnv 2 7 126 empty sl31 empty 20 12 0 14 #00ddff #ffffff 0;
#X obj 296 123 cnv 2 7 117 empty sl32 empty 20 12 0 14 #ffb200 #ffffff 0;
#X obj 306 128 cnv 2 7 112 empty sl33 empty 20 12 0 14 #ff8000 #ffffff 0;
#X obj 315 140 cnv 2 7 100 empty sl34 empty 20 12 0 14 #ff2a00 #ffffff 0;
#X obj 324 148 cnv 2 7 92 empty sl35 empty 20 12 0 14 #ffb700 #ffffff 0;
#X obj 333 150 cnv 2 7 90 empty sl36 empty 20 12 0 14 #ff00e6 #ffffff 0;
#X obj 342 160 cnv 2 7 80 empty sl37 empty 20 12 0 14 #dd00ff #ffffff 0;
#X obj 352 166 cnv 2 7 74 empty sl38 empty 20 12 0 14 #ff00c8 #ffffff 0;
#X obj 361 170 cnv 2 7 70 empty sl39 empty 20 12 0 14 #b7ff00 #ffffff 0;
#X obj 370 174 cnv 2 7 66 empty sl40 empty 20 12 0 14 #ff00a6 #ffffff 0;
#X obj 379 175 cnv 2 7 65 empty sl41 empty 20 12 0 14 #00ddff #ffffff 0;
#X obj 389 175 cnv 2 7 65 empty sl42 empty 20 12 0 14 #00ff00 #ffffff 0;
#X obj 398 175 cnv 2 7 65 empty sl43 empty 20 12 0 14 #9500ff #ffffff 0;
#X obj 407 175 cnv 2 7 65 empty sl44 empty 20 12 0 14 #ff0004 #ffffff 0;
#X obj 416 171 cnv 2 7 69 empty sl45 empty 20 12 0 14 #0037ff #ffffff 0;
#X obj 425 168 cnv 2 7 72 empty sl46 empty 20 12 0 14 #aaff00 #ffffff 0;
#X obj 435 160 cnv 2 7 80 empty sl47 empty 20 12 0 14 #00a6ff #ffffff 0;
#X obj 444 155 cnv 2 7 85 empty sl48 empty 20 12 0 14 #00a2ff #ffffff 0;
#X obj 453 153 cnv 2 7 87 empty sl49 empty 20 12 0 14 #0037ff #ffffff 0;
#X obj 462 153 cnv 2 7 87 empty sl50 empty 20 12 0 14 #ff2200 #ffffff 0;
#X coords 0 0 1 1 472 242 2 0 0;
#X restore 279 119 pd sliders;
#N canvas 0 50 600 420 construct 1;
#X obj 59 389 s pd-sliders;
#X msg 9 309 clear;
#X obj 59 129 loop;
#X text 206 8 spacing;
#X obj 59 29 inlet;
#X obj 163 29 inlet;
#X obj 214 29 inlet;
#X obj 273 29 inlet;
#X obj 327 29 inlet;
#X obj 401 29 inlet;
#X obj 455 29 inlet;
#X text 261 8 x offset;
#X text 321 8 y offset;
#X obj 59 309 pack f f f f;
#X msg 59 339 obj \$2 \$3 cnv 2 \$4 0 empty sl\$1 empty 20 12 0 14 #ffffff #ffffff 0, f 30;
#X obj 119 29 inlet;
#X obj 73 269 +;
#N canvas 0 50 470 440 move-slider 1;
#X obj 19 29 inlet;
#X obj 89 29 inlet;
#X obj 169 29 inlet;
#X obj 249 29 inlet;
#X obj 319 29 inlet;
#X obj 389 29 inlet;
#X msg 320 349 symbol sl\$1;
#X obj 9 399 s;
#X obj 9 259 -;
#X msg 9 289 delta 0 \$1;
#X obj 80 224 * -1;
#X obj 9 229 t f f;
#X obj 80 187 moses 1;
#X msg 111 150 0;
#X obj 229 229 *;
#X obj 259 309 pack;
#X obj 80 319 pack;
#X msg 80 349 vis_size \$2 \$1;
#X text 89 8 index;
#X text 9 8 y value;
#N canvas 0 50 450 300 set-pos 0;
#X obj 109 59 inlet;
#X obj 219 59 inlet;
#X obj 159 219 outlet;
#X msg 159 169 pos 2 240;
#X msg 219 109 set pos \$1 \$2;
#X connect 0 0 3 0 empty;
#X connect 1 0 4 0 empty;
#X connect 3 0 2 0 empty;
#X connect 4 0 3 0 empty;
#X restore 187 349 pd set-pos;
#X obj 249 269 +;
#X obj 80 82 * -1;
#X text 239 8 x offset;
#X obj 319 159 f;
#X obj 319 189 t f f;
#X obj 80 114 t f b b b;
#X text 149 8 slider width;
#X text 379 8 width - spacing;
#X obj 389 59 nbx 4 18 -1e+37 1e+37 0 1 empty empty empty 0 -8 0 10 #191919 #ffffff #ffffff 7.21569 256;
#X obj 319 59 nbx 4 18 -1e+37 1e+37 0 1 empty empty empty 0 -8 0 10 #191919 #ffffff #ffffff 240 256;
#X obj 249 59 nbx 4 18 -1e+37 1e+37 0 1 empty empty empty 0 -8 0 10 #191919 #ffffff #ffffff 2 256;
#X obj 169 59 nbx 4 18 -1e+37 1e+37 0 1 empty empty empty 0 -8 0 10 #191919 #ffffff #ffffff 9.21569 256;
#X text 319 8 y pos;
#X connect 0 0 22 0 empty;
#X connect 1 0 24 1 empty;
#X connect 2 0 32 0 empty;
#X connect 3 0 31 0 empty;
#X connect 4 0 30 0 empty;
#X connect 5 0 29 0 empty;
#X connect 6 0 7 1 empty;
#X connect 8 0 9 0 empty;
#X connect 9 0 7 0 empty;
#X connect 10 0 16 0 empty;
#X connect 11 0 8 1 empty;
#X connect 11 1 8 0 empty;
#X connect 12 0 11 0 empty;
#X connect 12 0 10 0 empty;
#X connect 12 1 16 0 empty;
#X connect 13 0 12 0 empty;
#X connect 14 0 21 0 empty;
#X connect 15 0 20 1 empty;
#X connect 16 0 17 0 empty;
#X connect 17 0 7 0 empty;
#X connect 20 0 7 0 empty;
#X connect 21 0 15 0 empty;
#X connect 22 0 26 0 empty;
#X connect 24 0 25 0 empty;
#X connect 25 0 14 0 empty;
#X connect 25 1 6 0 empty;
#X connect 26 0 12 0 empty;
#X connect 26 1 20 0 empty;
#X connect 26 2 13 0 empty;
#X connect 26 3 24 0 empty;
#X connect 29 0 16 1 empty;
#X connect 30 0 15 1 empty;
#X connect 31 0 21 1 empty;
#X connect 32 0 14 1 empty;
#X restore 334 349 pd move-slider;
#N canvas 0 50 450 300 resize 1;
#X obj 89 49 inlet;
#X obj 223 49 inlet;
#X msg 129 209 coords 0 0 1 1 \$1 \$2 2;
#X obj 179 99 + 2;
#X obj 129 99 + 2;
#X obj 129 239 s pd-sliders;
#X obj 179 129 t b f;
#X obj 129 182 pack;
#X connect 0 0 4 0 empty;
#X connect 1 0 3 0 empty;
#X connect 2 0 5 0 empty;
#X connect 3 0 6 0 empty;
#X connect 4 0 7 0 empty;
#X connect 6 0 7 0 empty;
#X connect 6 1 7 1 empty;
#X connect 7 0 2 0 empty;
#X restore 369 89 pd resize;
#X text 401 8 width;
#X text 451 8 height;
#X text 29 8 # of sliders;
#X text 114 8 y val;
#X text 159 8 ndx;
#N canvas 0 50 450 300 calc-y-pos 1;
#X obj 39 9 inlet;
#X obj 129 9 inlet;
#X obj 39 269 outlet;
#X obj 129 89 / 2;
#X obj 39 89 * -1;
#X obj 39 139 *;
#X obj 39 199 +;
#X connect 0 0 4 0 empty;
#X connect 1 0 3 0 empty;
#X connect 3 0 5 1 empty;
#X connect 3 0 6 1 empty;
#X connect 4 0 5 0 empty;
#X connect 5 0 6 0 empty;
#X connect 6 0 2 0 empty;
#X restore 359 139 pd calc-y-pos;
#X obj 59 183 t f f;
#X obj 179 279 -;
#X obj 109 129 swap;
#X obj 109 163 /;
#X obj 73 239 *;
#X obj 59 69 t f f b;
#X obj 409 229 *;
#N canvas 0 50 380 384 draw 1;
#X obj 59 9 inlet;
#X obj 59 39 route click;
#X obj 279 229 s arr1;
#X msg 279 189 resize \$1;
#X obj 79 359 tabwrite arr1;
#X obj 179 219 /;
#X obj 108 69 unpack;
#X obj 199 259 *;
#X obj 59 209 /;
#X obj 59 169 f;
#X obj 59 129 t b f;
#X obj 59 99 spigot;
#X obj 59 239 - 0.5;
#X obj 199 309 int;
#X obj 149 9 inlet;
#X obj 203 9 inlet;
#X obj 247 9 inlet;
#X obj 19 359 outlet;
#X obj 199 349 outlet;
#X obj 291 9 inlet;
#X obj 289 59 * -1;
#X obj 59 269 +;
#X obj 289 89 / 2;
#X connect 0 0 1 0 empty;
#X connect 1 0 11 1 empty;
#X connect 1 1 6 0 empty;
#X connect 3 0 2 0 empty;
#X connect 5 0 7 0 empty;
#X connect 6 0 5 0 empty;
#X connect 6 1 11 0 empty;
#X connect 7 0 4 1 empty;
#X connect 7 0 13 0 empty;
#X connect 8 0 12 0 empty;
#X connect 9 0 8 0 empty;
#X connect 10 0 9 0 empty;
#X connect 10 1 9 1 empty;
#X connect 11 0 10 0 empty;
#X connect 12 0 21 0 empty;
#X connect 13 0 18 0 empty;
#X connect 14 0 5 1 empty;
#X connect 15 0 8 1 empty;
#X connect 16 0 7 1 empty;
#X connect 16 0 3 0 empty;
#X connect 19 0 20 0 empty;
#X connect 20 0 22 0 empty;
#X connect 21 0 17 0 empty;
#X connect 21 0 4 0 empty;
#X connect 22 0 21 1 empty;
#X restore 489 159 pd draw;
#X obj 529 29 inlet;
#X text 529 8 pad input;
#X connect 1 0 0 0 empty;
#X connect 2 0 25 0 empty;
#X connect 4 0 30 0 empty;
#X connect 4 0 32 3 empty;
#X connect 5 0 17 1 empty;
#X connect 6 0 26 1 empty;
#X connect 7 0 16 1 empty;
#X connect 7 0 17 3 empty;
#X connect 8 0 24 0 empty;
#X connect 8 0 32 4 empty;
#X connect 9 0 18 0 empty;
#X connect 9 0 27 1 empty;
#X connect 9 0 32 1 empty;
#X connect 10 0 18 1 empty;
#X connect 10 0 24 1 empty;
#X connect 10 0 31 1 empty;
#X connect 10 0 32 2 empty;
#X connect 13 0 14 0 empty;
#X connect 14 0 0 0 empty;
#X connect 15 0 31 0 empty;
#X connect 16 0 13 1 empty;
#X connect 24 0 17 4 empty;
#X connect 24 0 13 2 empty;
#X connect 25 0 13 0 empty;
#X connect 25 1 29 0 empty;
#X connect 26 0 13 3 empty;
#X connect 26 0 17 5 empty;
#X connect 27 0 28 0 empty;
#X connect 27 1 28 1 empty;
#X connect 28 0 17 2 empty;
#X connect 28 0 26 0 empty;
#X connect 28 0 29 1 empty;
#X connect 29 0 16 0 empty;
#X connect 30 0 2 0 empty;
#X connect 30 1 27 0 empty;
#X connect 30 2 1 0 empty;
#X connect 31 0 17 0 empty;
#X connect 32 0 31 0 empty;
#X connect 32 1 17 1 empty;
#X connect 33 0 32 0 empty;
#X restore 99 379 pd construct;
#X obj 99 199 nbx 4 18 1 1e+37 0 0 empty empty empty 0 -8 0 10 #191919 #ffffff #ffffff 0 256;
#X obj 259 49 nbx 4 18 0 1e+37 0 1 empty empty empty 0 -8 0 10 #191919 #ffffff #ffffff 240 256;
#X obj 209 49 nbx 4 18 0 1e+37 0 1 empty empty empty 0 -8 0 10 #191919 #ffffff #ffffff 470 256;
#X obj 184 324 nbx 4 18 -1 1 0 1 empty empty empty 0 -8 0 10 #191919 #ffffff #ffffff -1 256;
#X text 209 28 width & height;
#X text 145 199 n;
#X obj 167 299 nbx 4 18 0 1e+37 0 1 empty empty empty 0 -8 0 10 #191919 #ffffff #ffffff 2 256;
#X text 212 298 x offset;
#X obj 150 274 nbx 4 18 0 1e+37 0 1 empty empty empty 0 -8 0 10 #191919 #ffffff #ffffff 2 256;
#X text 196 274 spacing;
#X obj 133 251 nbx 4 18 0 1e+37 0 0 empty empty empty 0 -8 0 10 #191919 #ffffff #ffffff 0 256;
#X obj 116 229 nbx 4 18 -1e+37 1e+37 0 0 empty empty empty 0 -8 0 10 #191919 #ffffff #ffffff 0 256;
#X text 179 250 index;
#X text 161 227 y value;
#X obj 29 349 bng 25 250 50 0 empty empty empty 17 7 0 10 #191919 #ffffff #ffffff;
#N canvas 0 50 450 300 color 1;
#X obj 129 9 inlet;
#X obj 129 119 rand.i 0 360;
#X msg 129 159 hsl \$1 100 50;
#X obj 319 9 inlet;
#X msg 269 129 symbol sl\$1;
#X obj 129 49 loop;
#X obj 129 79 t b f;
#X obj 129 259 s;
#X msg 129 219 color \$1;
#X obj 129 189 colors;
#X connect 0 0 5 0 empty;
#X connect 1 0 2 0 empty;
#X connect 2 0 9 0 empty;
#X connect 3 0 5 1 empty;
#X connect 4 0 7 1 empty;
#X connect 5 0 6 0 empty;
#X connect 6 0 1 0 empty;
#X connect 6 1 4 0 empty;
#X connect 8 0 7 0 empty;
#X connect 9 0 8 0 empty;
#X restore 29 379 pd color;
#N canvas 0 50 450 250 (subpatch) 0;
#X array arr1 51 float 2;
#X coords 0 1 51 -1 162 82 1;
#X restore 19 29 graph;
#N canvas 0 50 450 300 resize 1;
#X msg 169 139 dim \$1 \$2;
#X obj 174 96 pack2;
#X obj 167 198 outlet;
#X obj 133 41 inlet;
#X obj 207 41 inlet;
#X connect 0 0 2 0 empty;
#X connect 1 0 0 0 empty;
#X connect 3 0 1 0 empty;
#X connect 4 0 1 1 empty;
#X restore 279 89 pd resize;
#X text 231 322 y axis;
#X connect 0 0 3 8 32.................J....X8+++uB....V++++SA....;
#X connect 4 0 3 0 empty;
#X connect 4 0 19 1 32.................PB...78+++Oj....e++++KJ....;
#X connect 5 0 21 1 32.................F....3C...fA....9....XA....;
#X connect 5 0 3 7 32.................p....f8+++uJ....X++++iS....;
#X connect 6 0 3 6 32.................n....j++++OJ....4++++iS....;
#X connect 6 0 21 0 32.................O....XD...vC....FA...XA....;
#X connect 7 0 3 5 empty;
#X connect 10 0 3 4 empty;
#X connect 12 0 3 3 empty;
#X connect 14 0 3 2 empty;
#X connect 15 0 3 1 empty;
#X connect 18 0 19 0 empty;
#X connect 21 0 0 0 empty;
