#N canvas 827 239 760 420 12;
#X obj 279 119 pad 470 240 255 255 255;
#X obj 279 119 cnv 15 471 241 empty empty empty 20 12 0 14 #191919 #ffffff 0;
#N canvas 0 50 450 300 sliders 1;
#X obj 2 120 cnv 2 7 43 empty sl0 empty 20 12 0 14 #15ff00 #ffffff 0;
#X obj 11 120 cnv 2 7 38 empty sl1 empty 20 12 0 14 #00ff0d #ffffff 0;
#X obj 21 120 cnv 2 7 15 empty sl2 empty 20 12 0 14 #00ff9d #ffffff 0;
#X obj 31 120 cnv 2 7 4 empty sl3 empty 20 12 0 14 #00ffe5 #ffffff 0;
#X obj 41 79 cnv 2 7 41 empty sl4 empty 20 12 0 14 #0400ff #ffffff 0;
#X obj 50 34 cnv 2 7 86 empty sl5 empty 20 12 0 14 #ff00d9 #ffffff 0;
#X obj 60 22 cnv 2 7 98 empty sl6 empty 20 12 0 14 #ff008c #ffffff 0;
#X obj 70 26 cnv 2 7 94 empty sl7 empty 20 12 0 14 #ff00a2 #ffffff 0;
#X obj 80 34 cnv 2 7 86 empty sl8 empty 20 12 0 14 #ff00d9 #ffffff 0;
#X obj 90 47 cnv 2 7 73 empty sl9 empty 20 12 0 14 #d000ff #ffffff 0;
#X obj 99 63 cnv 2 7 57 empty sl10 empty 20 12 0 14 #6a00ff #ffffff 0;
#X obj 109 120 cnv 2 7 74 empty sl11 empty 20 12 0 14 #d9ff00 #ffffff 0;
#X obj 119 120 cnv 2 7 99 empty sl12 empty 20 12 0 14 #ff8400 #ffffff 0;
#X obj 129 120 cnv 2 7 110 empty sl13 empty 20 12 0 14 #ff3c00 #ffffff 0;
#X obj 139 120 cnv 2 7 87 empty sl14 empty 20 12 0 14 #ffd000 #ffffff 0;
#X obj 148 120 cnv 2 7 79 empty sl15 empty 20 12 0 14 #ffff00 #ffffff 0;
#X obj 158 120 cnv 2 7 81 empty sl16 empty 20 12 0 14 #fff700 #ffffff 0;
#X obj 168 120 cnv 2 7 83 empty sl17 empty 20 12 0 14 #ffea00 #ffffff 0;
#X obj 178 69 cnv 2 7 51 empty sl18 empty 20 12 0 14 #4c00ff #ffffff 0;
#X obj 188 75 cnv 2 7 45 empty sl19 empty 20 12 0 14 #1e00ff #ffffff 0;
#X obj 197 81 cnv 2 7 39 empty sl20 empty 20 12 0 14 #0009ff #ffffff 0;
#X obj 207 29 cnv 2 7 91 empty sl21 empty 20 12 0 14 #ff00bb #ffffff 0;
#X obj 217 28 cnv 2 7 92 empty sl22 empty 20 12 0 14 #ff00b3 #ffffff 0;
#X obj 227 25 cnv 2 7 95 empty sl23 empty 20 12 0 14 #ff0099 #ffffff 0;
#X obj 237 22 cnv 2 7 98 empty sl24 empty 20 12 0 14 #ff008c #ffffff 0;
#X obj 246 22 cnv 2 7 98 empty sl25 empty 20 12 0 14 #ff008c #ffffff 0;
#X obj 256 22 cnv 2 7 98 empty sl26 empty 20 12 0 14 #ff008c #ffffff 0;
#X obj 266 24 cnv 2 7 96 empty sl27 empty 20 12 0 14 #ff0095 #ffffff 0;
#X obj 276 28 cnv 2 7 92 empty sl28 empty 20 12 0 14 #ff00b3 #ffffff 0;
#X obj 285 32 cnv 2 7 88 empty sl29 empty 20 12 0 14 #ff00cc #ffffff 0;
#X obj 295 42 cnv 2 7 78 empty sl30 empty 20 12 0 14 #f200ff #ffffff 0;
#X obj 305 46 cnv 2 7 74 empty sl31 empty 20 12 0 14 #d900ff #ffffff 0;
#X obj 315 52 cnv 2 7 68 empty sl32 empty 20 12 0 14 #b300ff #ffffff 0;
#X obj 325 64 cnv 2 7 56 empty sl33 empty 20 12 0 14 #6600ff #ffffff 0;
#X obj 334 75 cnv 2 7 45 empty sl34 empty 20 12 0 14 #1e00ff #ffffff 0;
#X obj 344 88 cnv 2 7 32 empty sl35 empty 20 12 0 14 #002fff #ffffff 0;
#X obj 354 105 cnv 2 7 15 empty sl36 empty 20 12 0 14 #00a2ff #ffffff 0;
#X obj 364 112 cnv 2 7 8 empty sl37 empty 20 12 0 14 #00ccff #ffffff 0;
#X obj 374 117 cnv 2 7 3 empty sl38 empty 20 12 0 14 #00e6ff #ffffff 0;
#X obj 383 120 cnv 2 7 1 empty sl39 empty 20 12 0 14 #00ffff #ffffff 0;
#X obj 393 120 cnv 2 7 5 empty sl40 empty 20 12 0 14 #00ffdd #ffffff 0;
#X obj 403 120 cnv 2 7 13 empty sl41 empty 20 12 0 14 #00ffaa #ffffff 0;
#X obj 413 120 cnv 2 7 31 empty sl42 empty 20 12 0 14 #00ff37 #ffffff 0;
#X obj 423 120 cnv 2 7 43 empty sl43 empty 20 12 0 14 #15ff00 #ffffff 0;
#X obj 432 120 cnv 2 7 54 empty sl44 empty 20 12 0 14 #62ff00 #ffffff 0;
#X obj 442 120 cnv 2 7 70 empty sl45 empty 20 12 0 14 #c3ff00 #ffffff 0;
#X obj 452 120 cnv 2 7 86 empty sl46 empty 20 12 0 14 #ffd900 #ffffff 0;
#X obj 462 120 cnv 2 7 96 empty sl47 empty 20 12 0 14 #ff9500 #ffffff 0;
#X coords 0 0 1 1 472 242 2 0 0;
#X restore 279 119 pd sliders;
#N canvas 0 50 600 420 construct 1;
#X obj 59 389 s pd-sliders;
#X msg 9 309 clear;
#X obj 59 129 loop;
#X text 206 8 spacing;
#X obj 59 29 inlet;
#X obj 163 29 inlet;
#X obj 214 29 inlet;
#X obj 273 29 inlet;
#X obj 327 29 inlet;
#X obj 401 29 inlet;
#X obj 455 29 inlet;
#X text 261 8 x offset;
#X text 321 8 y offset;
#X obj 59 309 pack f f f f;
#X msg 59 339 obj \$2 \$3 cnv 2 \$4 0 empty sl\$1 empty 20 12 0 14 #ffffff #ffffff 0, f 30;
#X obj 119 29 inlet;
#X obj 73 269 +;
#N canvas 0 50 625 440 move-slider 1;
#X obj 19 29 inlet;
#X obj 89 29 inlet;
#X obj 169 29 inlet;
#X obj 249 29 inlet;
#X obj 319 29 inlet;
#X obj 389 29 inlet;
#X msg 320 349 symbol sl\$1;
#X obj 9 399 s;
#X obj 9 259 -;
#X msg 9 289 delta 0 \$1;
#X obj 80 234 * -1;
#X obj 9 229 t f f;
#X obj 80 197 moses 1;
#X msg 111 160 0;
#X obj 229 229 *;
#X obj 259 309 pack;
#X obj 80 319 pack;
#X msg 80 349 vis_size \$2 \$1;
#X text 89 8 index;
#X text 9 8 y value;
#N canvas 0 50 450 300 set-pos 1;
#X obj 109 59 inlet;
#X obj 219 59 inlet;
#X obj 159 219 outlet;
#X msg 159 169 pos 11.7917 120;
#X msg 219 109 set pos \$1 \$2;
#X connect 0 0 3 0 empty;
#X connect 1 0 4 0 empty;
#X connect 3 0 2 0 empty;
#X connect 4 0 3 0 empty;
#X restore 187 349 pd set-pos;
#X obj 249 269 +;
#X obj 80 92 * -1;
#X text 239 8 x offset;
#X obj 319 159 f;
#X obj 319 189 t f f;
#X obj 80 124 t f b b b;
#X text 149 8 slider width;
#X text 379 8 width - spacing;
#X obj 389 59 nbx 4 18 -1e+37 1e+37 0 1 empty empty empty 0 -8 0 10 #191919 #ffffff #ffffff 7.79167 256;
#X obj 319 59 nbx 4 18 -1e+37 1e+37 0 1 empty empty empty 0 -8 0 10 #191919 #ffffff #ffffff 120 256;
#X obj 249 59 nbx 4 18 -1e+37 1e+37 0 1 empty empty empty 0 -8 0 10 #191919 #ffffff #ffffff 2 256;
#X obj 169 59 nbx 4 18 -1e+37 1e+37 0 1 empty empty empty 0 -8 0 10 #191919 #ffffff #ffffff 9.79167 256;
#X text 319 8 y pos;
#N canvas 0 50 450 300 color 1;
#X msg 129 179 hsl \$1 100 50;
#X msg 129 239 color \$1;
#X obj 129 209 colors;
#X obj 129 119 * 360;
#X obj 129 29 inlet;
#X obj 129 269 outlet;
#X obj 259 29 inlet;
#X obj 259 89 / 2;
#X obj 129 89 +;
#X obj 259 59 + 1;
#X obj 129 149 mod 360;
#X connect 0 0 2 0 empty;
#X connect 1 0 5 0 empty;
#X connect 2 0 1 0 empty;
#X connect 3 0 10 0 empty;
#X connect 4 0 8 0 empty;
#X connect 6 0 9 0 empty;
#X connect 7 0 8 1 empty;
#X connect 8 0 3 0 empty;
#X connect 9 0 7 0 empty;
#X connect 10 0 0 0 empty;
#X restore 419 349 pd color;
#X obj 499 29 inlet;
#X obj 19 59 *;
#X text 489 8 height;
#X obj 569 29 inlet;
#X text 559 8 coloring;
#X obj 399 179 spigot;
#X obj 399 219 * -1;
#X obj 399 249 /;
#X text 439 238 bad amy;
#X obj 559 139 / 2;
#X obj 499 209 -;
#X obj 499 249 /;
#X connect 0 0 36 0 empty;
#X connect 1 0 24 1 empty;
#X connect 2 0 32 0 empty;
#X connect 3 0 31 0 empty;
#X connect 4 0 30 0 empty;
#X connect 4 0 45 0 empty;
#X connect 5 0 29 0 empty;
#X connect 6 0 7 1 empty;
#X connect 8 0 9 0 empty;
#X connect 9 0 7 0 empty;
#X connect 10 0 16 0 empty;
#X connect 11 0 8 1 empty;
#X connect 11 1 8 0 empty;
#X connect 12 0 11 0 empty;
#X connect 12 0 10 0 empty;
#X connect 12 1 16 0 empty;
#X connect 13 0 12 0 empty;
#X connect 14 0 21 0 empty;
#X connect 15 0 20 1 empty;
#X connect 16 0 17 0 empty;
#X connect 17 0 7 0 empty;
#X connect 20 0 7 0 empty;
#X connect 21 0 15 0 empty;
#X connect 22 0 26 0 empty;
#X connect 24 0 25 0 empty;
#X connect 25 0 14 0 empty;
#X connect 25 1 6 0 empty;
#X connect 26 0 12 0 empty;
#X connect 26 0 40 0 empty;
#X connect 26 1 20 0 empty;
#X connect 26 2 13 0 empty;
#X connect 26 3 24 0 empty;
#X connect 29 0 16 1 empty;
#X connect 30 0 15 1 empty;
#X connect 31 0 21 1 empty;
#X connect 32 0 14 1 empty;
#X connect 34 0 7 0 empty;
#X connect 35 0 36 1 empty;
#X connect 35 0 42 1 empty;
#X connect 35 0 44 0 empty;
#X connect 36 0 22 0 empty;
#X connect 38 0 40 1 empty;
#X connect 40 0 41 0 empty;
#X connect 41 0 42 0 empty;
#X connect 42 0 34 0 empty;
#X connect 44 0 45 1 empty;
#X connect 44 0 46 1 empty;
#X connect 45 0 46 0 empty;
#X connect 46 0 34 1 empty;
#X restore 334 349 pd move-slider;
#N canvas 0 50 450 300 resize 1;
#X obj 89 49 inlet;
#X obj 223 49 inlet;
#X msg 129 209 coords 0 0 1 1 \$1 \$2 2;
#X obj 179 99 + 2;
#X obj 129 99 + 2;
#X obj 129 239 s pd-sliders;
#X obj 179 129 t b f;
#X obj 129 182 pack;
#X connect 0 0 4 0 empty;
#X connect 1 0 3 0 empty;
#X connect 2 0 5 0 empty;
#X connect 3 0 6 0 empty;
#X connect 4 0 7 0 empty;
#X connect 6 0 7 0 empty;
#X connect 6 1 7 1 empty;
#X connect 7 0 2 0 empty;
#X restore 369 89 pd resize;
#X text 401 8 width;
#X text 451 8 height;
#X text 29 8 # of sliders;
#X text 114 8 y val;
#X text 159 8 ndx;
#N canvas 0 50 450 300 calc-y-pos 1;
#X obj 39 9 inlet;
#X obj 129 9 inlet;
#X obj 39 269 outlet;
#X obj 129 89 / 2;
#X obj 39 89 * -1;
#X obj 39 139 *;
#X obj 39 199 +;
#X connect 0 0 4 0 empty;
#X connect 1 0 3 0 empty;
#X connect 3 0 5 1 empty;
#X connect 3 0 6 1 empty;
#X connect 4 0 5 0 empty;
#X connect 5 0 6 0 empty;
#X connect 6 0 2 0 empty;
#X restore 359 139 pd calc-y-pos;
#X obj 59 183 t f f;
#X obj 179 279 -;
#X obj 109 129 swap;
#X obj 109 163 /;
#X obj 73 239 *;
#X obj 59 69 t f f b;
#N canvas 0 50 380 384 draw 1;
#X obj 59 9 inlet;
#X obj 59 39 route click;
#X obj 279 219 s arr1;
#X msg 279 179 resize \$1;
#X obj 119 339 tabwrite arr1;
#X obj 179 219 /;
#X obj 108 69 unpack;
#X obj 199 259 *;
#X obj 59 209 /;
#X obj 59 169 f;
#X obj 59 129 t b f;
#X obj 59 99 spigot;
#X obj 59 249 - 0.5;
#X obj 199 299 int;
#X obj 149 9 inlet;
#X obj 199 9 inlet;
#X obj 249 9 inlet;
#X obj 59 349 outlet;
#X obj 219 349 outlet;
#X obj 299 9 inlet;
#X obj 299 49 * -1;
#X obj 59 299 +;
#X obj 299 79 / 2;
#X connect 0 0 1 0 empty;
#X connect 1 0 11 1 empty;
#X connect 1 1 6 0 empty;
#X connect 3 0 2 0 empty;
#X connect 5 0 7 0 empty;
#X connect 6 0 5 0 empty;
#X connect 6 1 11 0 empty;
#X connect 7 0 13 0 empty;
#X connect 8 0 12 0 empty;
#X connect 9 0 8 0 empty;
#X connect 10 0 9 0 empty;
#X connect 10 1 9 1 empty;
#X connect 11 0 10 0 empty;
#X connect 12 0 21 0 empty;
#X connect 13 0 18 0 empty;
#X connect 13 0 4 1 empty;
#X connect 14 0 5 1 empty;
#X connect 15 0 8 1 empty;
#X connect 16 0 7 1 empty;
#X connect 16 0 3 0 empty;
#X connect 19 0 20 0 empty;
#X connect 20 0 22 0 empty;
#X connect 21 0 17 0 empty;
#X connect 21 0 4 0 empty;
#X connect 22 0 21 1 empty;
#X restore 489 159 pd draw;
#X obj 509 29 inlet;
#X text 509 8 pad input;
#X obj 559 279 inlet;
#X text 559 248 coloring;
#X connect 1 0 0 0 empty;
#X connect 2 0 25 0 empty;
#X connect 4 0 30 0 empty;
#X connect 4 0 31 3 empty;
#X connect 5 0 17 1 empty;
#X connect 6 0 26 1 empty;
#X connect 7 0 16 1 empty;
#X connect 7 0 17 3 empty;
#X connect 8 0 24 0 empty;
#X connect 8 0 31 4 empty;
#X connect 9 0 18 0 empty;
#X connect 9 0 27 1 empty;
#X connect 9 0 31 1 empty;
#X connect 10 0 18 1 empty;
#X connect 10 0 24 1 empty;
#X connect 10 0 31 2 empty;
#X connect 10 0 17 6 empty;
#X connect 13 0 14 0 empty;
#X connect 14 0 0 0 empty;
#X connect 15 0 17 0 empty;
#X connect 16 0 13 1 empty;
#X connect 24 0 17 4 empty;
#X connect 24 0 13 2 empty;
#X connect 25 0 13 0 empty;
#X connect 25 1 29 0 empty;
#X connect 26 0 13 3 empty;
#X connect 26 0 17 5 empty;
#X connect 27 0 28 0 empty;
#X connect 27 1 28 1 empty;
#X connect 28 0 17 2 empty;
#X connect 28 0 26 0 empty;
#X connect 28 0 29 1 empty;
#X connect 29 0 16 0 empty;
#X connect 30 0 2 0 empty;
#X connect 30 1 27 0 empty;
#X connect 30 2 1 0 empty;
#X connect 31 0 17 0 empty;
#X connect 31 1 17 1 empty;
#X connect 32 0 31 0 empty;
#X connect 34 0 17 7 empty;
#X restore 79 379 pd construct;
#X obj 79 199 nbx 4 18 1 1e+37 0 0 empty empty empty 0 -8 0 10 #191919 #ffffff #ffffff 0 256;
#X obj 259 49 nbx 4 18 0 1e+37 0 1 empty empty empty 0 -8 0 10 #191919 #ffffff #ffffff 240 256;
#X obj 209 49 nbx 4 18 0 1e+37 0 1 empty empty empty 0 -8 0 10 #191919 #ffffff #ffffff 470 256;
#X obj 164 324 nbx 4 18 -1 1 0 1 empty empty empty 0 -8 0 10 #191919 #ffffff #ffffff 0 256;
#X text 209 28 width & height;
#X text 125 199 n;
#X obj 147 299 nbx 4 18 0 1e+37 0 1 empty empty empty 0 -8 0 10 #191919 #ffffff #ffffff 2 256;
#X text 192 298 x offset;
#X obj 130 274 nbx 4 18 0 1e+37 0 1 empty empty empty 0 -8 0 10 #191919 #ffffff #ffffff 2 256;
#X text 176 274 spacing;
#X obj 113 251 nbx 4 18 0 1e+37 0 0 empty empty empty 0 -8 0 10 #191919 #ffffff #ffffff 0 256;
#X obj 96 229 nbx 4 18 -1e+37 1e+37 0 0 empty empty empty 0 -8 0 10 #191919 #ffffff #ffffff 0 256;
#X text 159 250 index;
#X text 141 227 y value;
#X obj 9 349 bng 25 250 50 0 empty empty empty 17 7 0 10 #191919 #ffffff #ffffff;
#N canvas 0 50 450 250 (subpatch) 0;
#X array arr1 48 float 2;
#X coords 0 1 48 -1 162 82 1;
#X restore 19 29 graph;
#N canvas 0 50 450 300 resize 1;
#X msg 169 139 dim \$1 \$2;
#X obj 174 96 pack2;
#X obj 167 198 outlet;
#X obj 133 41 inlet;
#X obj 207 41 inlet;
#X connect 0 0 2 0 empty;
#X connect 1 0 0 0 empty;
#X connect 3 0 1 0 empty;
#X connect 4 0 1 1 empty;
#X restore 279 89 pd resize;
#X text 211 322 y axis;
#X obj 269 379 tgl 25 1 empty empty empty 17 7 0 10 #191919 #ffffff #ffffff 1 1;
#N canvas 0 50 450 300 rndclr 1;
#X obj 129 9 inlet;
#X obj 129 119 rand.i 0 360;
#X msg 129 159 hsl \$1 100 50;
#X obj 319 9 inlet;
#X msg 269 129 symbol sl\$1;
#X obj 129 49 loop;
#X obj 129 79 t b f;
#X obj 129 259 s;
#X msg 129 219 color \$1;
#X obj 129 189 colors;
#X connect 0 0 5 0 empty;
#X connect 1 0 2 0 empty;
#X connect 2 0 9 0 empty;
#X connect 3 0 5 1 empty;
#X connect 4 0 7 1 empty;
#X connect 5 0 6 0 empty;
#X connect 6 0 1 0 empty;
#X connect 6 1 4 0 empty;
#X connect 8 0 7 0 empty;
#X connect 9 0 8 0 empty;
#X restore 9 379 pd rndclr;
#X connect 0 0 3 8 32.................J....X8+++uB....V++++SA....;
#X connect 4 0 3 0 empty;
#X connect 4 0 23 1 32.................PB...78+++Oj....e++++KJ....;
#X connect 5 0 20 1 32.................F....3C...fA....9....XA....;
#X connect 5 0 3 7 32.................jD...f8+++OIA...X++++iS....;
#X connect 6 0 20 0 32.................O....XD...vC....FA...XA....;
#X connect 6 0 3 6 32.................eD...j+++++GA...4++++iS....;
#X connect 7 0 3 5 empty;
#X connect 10 0 3 4 empty;
#X connect 12 0 3 3 empty;
#X connect 14 0 3 2 empty;
#X connect 15 0 3 1 empty;
#X connect 18 0 23 0 empty;
#X connect 20 0 0 0 empty;
#X connect 22 0 3 9 48.................D....79+++OA....u++++S9+++u2++++j++++68+++O5++++;
