#N canvas 827 239 527 327 12;
#X obj 9 9 cnv 15 471 241 empty empty empty 20 12 0 14 #191919 #ffffff 0;
#N canvas 0 50 450 250 (subpatch) 0;
#X array arr1 32 float 2;
#X coords 0 1 32 -1 142 82 1;
#X restore 539 9 graph;
#N canvas 0 50 450 300 sliders 1;
#X obj 2 72 cnv 2 5 48 empty sl0 empty 20 12 0 14 #6aff00 #ffffff 0;
#X obj 9 120 cnv 2 5 61 empty sl1 empty 20 12 0 14 #00aaff #ffffff 0;
#X obj 16 58 cnv 2 5 62 empty sl2 empty 20 12 0 14 #00e6ff #ffffff 0;
#X obj 23 120 cnv 2 5 1 empty sl3 empty 20 12 0 14 #d9ff00 #ffffff 0;
#X obj 30 120 cnv 2 5 1 empty sl4 empty 20 12 0 14 #00ffcc #ffffff 0;
#X obj 37 120 cnv 2 5 1 empty sl5 empty 20 12 0 14 #0033ff #ffffff 0;
#X obj 44 120 cnv 2 5 1 empty sl6 empty 20 12 0 14 #ff00ee #ffffff 0;
#X obj 51 120 cnv 2 5 1 empty sl7 empty 20 12 0 14 #00ff40 #ffffff 0;
#X obj 58 120 cnv 2 5 1 empty sl8 empty 20 12 0 14 #fb00ff #ffffff 0;
#X obj 65 120 cnv 2 5 1 empty sl9 empty 20 12 0 14 #a6ff00 #ffffff 0;
#X obj 72 120 cnv 2 5 1 empty sl10 empty 20 12 0 14 #0400ff #ffffff 0;
#X obj 79 120 cnv 2 5 1 empty sl11 empty 20 12 0 14 #00ffaa #ffffff 0;
#X obj 86 120 cnv 2 5 1 empty sl12 empty 20 12 0 14 #ff008c #ffffff 0;
#X obj 93 120 cnv 2 5 1 empty sl13 empty 20 12 0 14 #44ff00 #ffffff 0;
#X obj 100 120 cnv 2 5 1 empty sl14 empty 20 12 0 14 #00ff90 #ffffff 0;
#X obj 107 120 cnv 2 5 1 empty sl15 empty 20 12 0 14 #ff9d00 #ffffff 0;
#X obj 114 120 cnv 2 5 1 empty sl16 empty 20 12 0 14 #ff6a00 #ffffff 0;
#X obj 121 120 cnv 2 5 1 empty sl17 empty 20 12 0 14 #ff00f7 #ffffff 0;
#X obj 128 120 cnv 2 5 1 empty sl18 empty 20 12 0 14 #ff006f #ffffff 0;
#X obj 135 120 cnv 2 5 1 empty sl19 empty 20 12 0 14 #00ff33 #ffffff 0;
#X obj 142 120 cnv 2 5 1 empty sl20 empty 20 12 0 14 #00ff8c #ffffff 0;
#X obj 149 120 cnv 2 5 1 empty sl21 empty 20 12 0 14 #ff00c8 #ffffff 0;
#X obj 156 120 cnv 2 5 1 empty sl22 empty 20 12 0 14 #ff0051 #ffffff 0;
#X obj 163 120 cnv 2 5 1 empty sl23 empty 20 12 0 14 #00c8ff #ffffff 0;
#X obj 170 120 cnv 2 5 1 empty sl24 empty 20 12 0 14 #ff9500 #ffffff 0;
#X obj 177 120 cnv 2 5 1 empty sl25 empty 20 12 0 14 #ff00dd #ffffff 0;
#X obj 184 120 cnv 2 5 1 empty sl26 empty 20 12 0 14 #62ff00 #ffffff 0;
#X obj 191 120 cnv 2 5 1 empty sl27 empty 20 12 0 14 #a600ff #ffffff 0;
#X obj 198 120 cnv 2 5 1 empty sl28 empty 20 12 0 14 #b7ff00 #ffffff 0;
#X obj 205 120 cnv 2 5 1 empty sl29 empty 20 12 0 14 #00ff15 #ffffff 0;
#X obj 212 120 cnv 2 5 1 empty sl30 empty 20 12 0 14 #ff0400 #ffffff 0;
#X obj 219 120 cnv 2 5 1 empty sl31 empty 20 12 0 14 #c400ff #ffffff 0;
#X obj 226 120 cnv 2 5 1 empty sl32 empty 20 12 0 14 #ff2f00 #ffffff 0;
#X obj 233 120 cnv 2 5 1 empty sl33 empty 20 12 0 14 #ff0011 #ffffff 0;
#X obj 240 120 cnv 2 5 1 empty sl34 empty 20 12 0 14 #00ff1e #ffffff 0;
#X obj 247 120 cnv 2 5 1 empty sl35 empty 20 12 0 14 #00aeff #ffffff 0;
#X obj 254 120 cnv 2 5 1 empty sl36 empty 20 12 0 14 #8400ff #ffffff 0;
#X obj 261 120 cnv 2 5 1 empty sl37 empty 20 12 0 14 #15ff00 #ffffff 0;
#X obj 268 120 cnv 2 5 1 empty sl38 empty 20 12 0 14 #c400ff #ffffff 0;
#X obj 275 120 cnv 2 5 1 empty sl39 empty 20 12 0 14 #00ffe1 #ffffff 0;
#X obj 282 120 cnv 2 5 1 empty sl40 empty 20 12 0 14 #0026ff #ffffff 0;
#X obj 289 120 cnv 2 5 1 empty sl41 empty 20 12 0 14 #26ff00 #ffffff 0;
#X obj 296 120 cnv 2 5 1 empty sl42 empty 20 12 0 14 #ff2600 #ffffff 0;
#X obj 303 120 cnv 2 5 1 empty sl43 empty 20 12 0 14 #84ff00 #ffffff 0;
#X obj 310 120 cnv 2 5 1 empty sl44 empty 20 12 0 14 #51ff00 #ffffff 0;
#X obj 317 120 cnv 2 5 1 empty sl45 empty 20 12 0 14 #ff9500 #ffffff 0;
#X obj 324 120 cnv 2 5 1 empty sl46 empty 20 12 0 14 #09ff00 #ffffff 0;
#X obj 331 120 cnv 2 5 1 empty sl47 empty 20 12 0 14 #0048ff #ffffff 0;
#X obj 338 120 cnv 2 5 1 empty sl48 empty 20 12 0 14 #0026ff #ffffff 0;
#X obj 345 120 cnv 2 5 1 empty sl49 empty 20 12 0 14 #3700ff #ffffff 0;
#X obj 352 120 cnv 2 5 1 empty sl50 empty 20 12 0 14 #ff000d #ffffff 0;
#X obj 359 120 cnv 2 5 1 empty sl51 empty 20 12 0 14 #0004ff #ffffff 0;
#X obj 366 120 cnv 2 5 1 empty sl52 empty 20 12 0 14 #eaff00 #ffffff 0;
#X obj 373 120 cnv 2 5 1 empty sl53 empty 20 12 0 14 #6a00ff #ffffff 0;
#X obj 380 120 cnv 2 5 1 empty sl54 empty 20 12 0 14 #0040ff #ffffff 0;
#X obj 387 120 cnv 2 5 1 empty sl55 empty 20 12 0 14 #e500ff #ffffff 0;
#X obj 394 120 cnv 2 5 1 empty sl56 empty 20 12 0 14 #00f7ff #ffffff 0;
#X obj 401 120 cnv 2 5 1 empty sl57 empty 20 12 0 14 #f7ff00 #ffffff 0;
#X obj 408 120 cnv 2 5 1 empty sl58 empty 20 12 0 14 #00ddff #ffffff 0;
#X obj 415 120 cnv 2 5 1 empty sl59 empty 20 12 0 14 #15ff00 #ffffff 0;
#X obj 422 120 cnv 2 5 1 empty sl60 empty 20 12 0 14 #ff0055 #ffffff 0;
#X obj 429 120 cnv 2 5 1 empty sl61 empty 20 12 0 14 #002bff #ffffff 0;
#X obj 436 120 cnv 2 5 1 empty sl62 empty 20 12 0 14 #ff8800 #ffffff 0;
#X obj 443 120 cnv 2 5 1 empty sl63 empty 20 12 0 14 #ff0051 #ffffff 0;
#X obj 450 120 cnv 2 5 1 empty sl64 empty 20 12 0 14 #37ff00 #ffffff 0;
#X obj 457 120 cnv 2 5 1 empty sl65 empty 20 12 0 14 #00ff04 #ffffff 0;
#X obj 464 120 cnv 2 5 1 empty sl66 empty 20 12 0 14 #00ffd0 #ffffff 0;
#X coords 0 0 1 1 472 242 2 0 0;
#X restore 9 9 pd sliders;
#N canvas 0 50 840 530 construct 1;
#X obj 119 489 s pd-sliders;
#X msg 59 449 clear;
#X obj 569 229 nbx 4 18 -1e+37 1e+37 0 0 empty empty empty 0 -8 0 10 #191919 #ffffff #ffffff 0 256;
#X msg 619 439 symbol sl\$1;
#X obj 389 489 s;
#X obj 69 199 nbx 4 18 -1e+37 1e+37 0 0 empty empty empty 0 -8 0 10 #191919 #ffffff #ffffff 0 256;
#X obj 229 279 /;
#X obj 69 273 t f f b;
#X obj 149 129 nbx 4 18 -1e+37 1e+37 0 0 empty empty empty 0 -8 0 10 #191919 #ffffff #ffffff 0 256;
#X obj 199 129 nbx 4 18 -1e+37 1e+37 0 0 empty empty empty 0 -8 0 10 #191919 #ffffff #ffffff 0 256;
#X obj 429 129 nbx 4 18 -1e+37 1e+37 0 0 empty empty empty 0 -8 0 10 #191919 #ffffff #ffffff 0 256;
#X obj 389 339 -;
#X msg 389 369 delta 0 \$1;
#X obj 430 304 * -1;
#X obj 389 309 t f f;
#X obj 430 267 moses 1;
#X msg 459 234 0;
#X obj 430 204 t f b b;
#X obj 561 312 *;
#X obj 279 179 / 2;
#X obj 561 382 pack;
#X obj 69 249 loop;
#X obj 69 223 t f f b f b;
#X obj 419 409 pack;
#X msg 419 439 vis_size \$2 \$1;
#X text 309 348 spacing;
#X obj 69 29 inlet;
#X obj 193 29 inlet;
#X obj 237 29 inlet;
#X obj 281 29 inlet;
#X obj 325 29 inlet;
#X obj 389 29 inlet;
#X obj 433 29 inlet;
#X text 619 228 index;
#X text 479 128 y value;
#X text 389 8 width and height;
#X text 9 168 number of sliders;
#X obj 669 229 nbx 4 18 -1e+37 1e+37 0 0 empty empty empty 0 -8 0 10 #191919 #ffffff #ffffff 0 256;
#X obj 98 305 expr $f1 * ($f2/$f3);
#X text 719 228 x offset;
#X obj 299 279 + 0;
#X obj 319 247 nbx 4 18 -1e+37 1e+37 0 0 empty empty empty 0 -8 0 10 #191919 #ffffff #ffffff 0 256;
#X text 369 248 y offset;
#X obj 259 349 nbx 4 18 -1e+37 1e+37 0 0 empty empty empty 0 -8 0 10 #191919 #ffffff #ffffff 0 256;
#X obj 69 69 t f b;
#X obj 119 409 pack f f f f;
#X msg 119 439 obj \$2 \$3 cnv 2 \$4 0 empty sl\$1 empty 20 12 0 14 #ffffff #ffffff 0, f 30;
#X obj 319 169 * -1;
#X obj 319 209 *;
#X obj 149 29 inlet;
#N canvas 0 50 450 300 set-pos 0;
#X obj 109 59 inlet;
#X obj 219 59 inlet;
#X obj 159 219 outlet;
#X msg 159 169 pos 16.0299 120;
#X msg 219 109 set pos \$1 \$2;
#X connect 0 0 3 0 empty;
#X connect 1 0 4 0 empty;
#X connect 3 0 2 0 empty;
#X connect 4 0 3 0 empty;
#X restore 529 439 pd set-pos;
#X obj 239 379 -;
#X obj 559 339 +;
#X obj 134 359 +;
#X obj 430 172 * -1;
#X connect 1 0 0 0 empty;
#X connect 2 0 3 0 empty;
#X connect 2 0 18 0 empty;
#X connect 3 0 4 1 empty;
#X connect 5 0 22 0 empty;
#X connect 6 0 18 1 empty;
#X connect 6 0 51 0 empty;
#X connect 7 0 45 0 empty;
#X connect 7 1 38 0 empty;
#X connect 8 0 6 0 empty;
#X connect 8 0 38 1 empty;
#X connect 9 0 19 0 empty;
#X connect 10 0 54 0 empty;
#X connect 11 0 12 0 empty;
#X connect 12 0 4 0 empty;
#X connect 13 0 23 0 empty;
#X connect 14 0 11 1 empty;
#X connect 14 1 11 0 empty;
#X connect 15 0 14 0 empty;
#X connect 15 0 13 0 empty;
#X connect 15 1 23 0 empty;
#X connect 16 0 15 0 empty;
#X connect 17 0 15 0 empty;
#X connect 17 1 50 0 empty;
#X connect 17 2 16 0 empty;
#X connect 17 2 2 0 empty;
#X connect 18 0 52 0 empty;
#X connect 19 0 40 0 empty;
#X connect 19 0 48 1 empty;
#X connect 20 0 50 1 empty;
#X connect 21 0 7 0 empty;
#X connect 22 0 21 0 empty;
#X connect 22 1 38 2 empty;
#X connect 22 2 6 0 empty;
#X connect 22 3 6 1 empty;
#X connect 22 4 1 0 empty;
#X connect 23 0 24 0 empty;
#X connect 24 0 4 0 empty;
#X connect 26 0 44 0 empty;
#X connect 27 0 2 0 empty;
#X connect 28 0 43 0 empty;
#X connect 29 0 37 0 empty;
#X connect 30 0 47 0 empty;
#X connect 31 0 8 0 empty;
#X connect 32 0 9 0 empty;
#X connect 37 0 52 1 empty;
#X connect 37 0 53 1 empty;
#X connect 38 0 53 0 empty;
#X connect 40 0 20 1 empty;
#X connect 40 0 45 2 empty;
#X connect 41 0 40 1 empty;
#X connect 43 0 51 1 empty;
#X connect 44 0 5 0 empty;
#X connect 44 1 8 0 empty;
#X connect 44 1 9 0 empty;
#X connect 45 0 46 0 empty;
#X connect 46 0 0 0 empty;
#X connect 47 0 48 0 empty;
#X connect 48 0 41 0 empty;
#X connect 49 0 10 0 empty;
#X connect 50 0 4 0 empty;
#X connect 51 0 23 1 empty;
#X connect 51 0 45 3 empty;
#X connect 52 0 20 0 empty;
#X connect 53 0 45 1 empty;
#X connect 54 0 17 0 empty;
#X restore 529 309 pd construct;
#X obj 529 99 nbx 4 18 1 1e+37 0 0 empty empty empty 0 -8 0 10 #191919 #ffffff #ffffff 0 256;
#X obj 698 269 nbx 4 18 0 1e+37 0 1 empty empty empty 0 -8 0 10 #191919 #ffffff #ffffff 240 256;
#X obj 648 269 nbx 4 18 0 1e+37 0 1 empty empty empty 0 -8 0 10 #191919 #ffffff #ffffff 470 256;
#X obj 614 224 nbx 4 18 -1e+37 1e+37 0 1 empty empty empty 0 -8 0 10 #191919 #ffffff #ffffff -1 256;
#X text 649 248 width & height;
#X text 579 98 n;
#X obj 597 199 nbx 4 18 0 1e+37 0 1 empty empty empty 0 -8 0 10 #191919 #ffffff #ffffff 2 256;
#X text 645 200 x offset;
#X obj 580 174 nbx 4 18 0 1e+37 0 1 empty empty empty 0 -8 0 10 #191919 #ffffff #ffffff 2 256;
#X text 629 174 spacing;
#X obj 563 151 nbx 4 18 0 1e+37 0 0 empty empty empty 0 -8 0 10 #191919 #ffffff #ffffff 0 256;
#X obj 546 129 nbx 4 18 -1e+37 1e+37 0 0 empty empty empty 0 -8 0 10 #191919 #ffffff #ffffff 0 256;
#X text 609 151 index;
#X text 596 128 y value;
#X obj 459 269 bng 25 250 50 0 empty empty empty 17 7 0 10 #191919 #ffffff #ffffff;
#N canvas 0 50 450 300 color 1;
#X obj 129 9 inlet;
#X obj 129 119 rand.i 0 360;
#X msg 129 159 hsl \$1 100 50;
#X obj 319 9 inlet;
#X msg 269 129 symbol sl\$1;
#X obj 129 49 loop;
#X obj 129 79 t b f;
#X obj 129 259 s;
#X msg 129 219 color \$1;
#X obj 129 189 colors;
#X connect 0 0 5 0 empty;
#X connect 1 0 2 0 empty;
#X connect 2 0 9 0 empty;
#X connect 3 0 5 1 empty;
#X connect 4 0 7 1 empty;
#X connect 5 0 6 0 empty;
#X connect 6 0 1 0 empty;
#X connect 6 1 4 0 empty;
#X connect 8 0 7 0 empty;
#X connect 9 0 8 0 empty;
#X restore 459 309 pd color;
#N canvas 0 50 450 300 resize 1;
#X obj 89 49 inlet;
#X obj 223 49 inlet;
#X msg 129 189 coords 0 0 1 1 \$1 \$2 2;
#X obj 129 152 pack2;
#X obj 179 119 + 2;
#X obj 129 119 + 2;
#X obj 129 219 s pd-sliders;
#X connect 0 0 5 0 empty;
#X connect 1 0 4 0 empty;
#X connect 2 0 6 0 empty;
#X connect 3 0 2 0 empty;
#X connect 4 0 3 1 empty;
#X connect 5 0 3 0 empty;
#X restore 679 309 pd resize;
#X text 664 223 y axis (-1 to 1);
#X connect 4 0 3 0 empty;
#X connect 4 0 19 1 empty;
#X connect 5 0 20 1 empty;
#X connect 5 0 3 7 empty;
#X connect 6 0 20 0 empty;
#X connect 6 0 3 6 empty;
#X connect 7 0 3 5 empty;
#X connect 10 0 3 4 empty;
#X connect 12 0 3 3 empty;
#X connect 14 0 3 2 empty;
#X connect 15 0 3 1 empty;
#X connect 18 0 19 0 empty;
