#N canvas 827 239 760 420 12;
#X obj 9 9 cnv 15 471 241 empty empty empty 20 12 0 14 #191919 #ffffff 0;
#N canvas 0 50 450 250 (subpatch) 0;
#X array arr1 32 float 2;
#X coords 0 1 32 -1 142 82 1;
#X restore 509 19 graph;
#N canvas 0 50 450 300 sliders 1;
#X obj 2 39 cnv 2 14 81 empty sl0 empty 20 12 0 14 #ffea00 #ffffff 0;
#X obj 18 120 cnv 2 14 1 empty sl1 empty 20 12 0 14 #00ff7b #ffffff 0;
#X obj 34 120 cnv 2 14 1 empty sl2 empty 20 12 0 14 #0077ff #ffffff 0;
#X obj 50 64 cnv 2 14 56 empty sl3 empty 20 12 0 14 #0022ff #ffffff 0;
#X obj 66 120 cnv 2 14 1 empty sl4 empty 20 12 0 14 #ff0000 #ffffff 0;
#X obj 83 120 cnv 2 14 1 empty sl5 empty 20 12 0 14 #ff0400 #ffffff 0;
#X obj 99 120 cnv 2 14 1 empty sl6 empty 20 12 0 14 #ffd500 #ffffff 0;
#X obj 115 120 cnv 2 14 1 empty sl7 empty 20 12 0 14 #3c00ff #ffffff 0;
#X obj 131 120 cnv 2 14 1 empty sl8 empty 20 12 0 14 #ff4400 #ffffff 0;
#X obj 147 120 cnv 2 14 1 empty sl9 empty 20 12 0 14 #0033ff #ffffff 0;
#X obj 164 120 cnv 2 14 1 empty sl10 empty 20 12 0 14 #00ff48 #ffffff 0;
#X obj 180 120 cnv 2 14 1 empty sl11 empty 20 12 0 14 #ff0800 #ffffff 0;
#X obj 196 120 cnv 2 14 1 empty sl12 empty 20 12 0 14 #ff0084 #ffffff 0;
#X obj 212 120 cnv 2 14 1 empty sl13 empty 20 12 0 14 #00d5ff #ffffff 0;
#X obj 228 120 cnv 2 14 1 empty sl14 empty 20 12 0 14 #7300ff #ffffff 0;
#X obj 245 120 cnv 2 14 1 empty sl15 empty 20 12 0 14 #00ffae #ffffff 0;
#X obj 261 120 cnv 2 14 1 empty sl16 empty 20 12 0 14 #ff8400 #ffffff 0;
#X obj 277 120 cnv 2 14 1 empty sl17 empty 20 12 0 14 #1e00ff #ffffff 0;
#X obj 293 120 cnv 2 14 1 empty sl18 empty 20 12 0 14 #ff00bf #ffffff 0;
#X obj 309 120 cnv 2 14 1 empty sl19 empty 20 12 0 14 #62ff00 #ffffff 0;
#X obj 326 120 cnv 2 14 1 empty sl20 empty 20 12 0 14 #00fbff #ffffff 0;
#X obj 342 120 cnv 2 14 1 empty sl21 empty 20 12 0 14 #ffc400 #ffffff 0;
#X obj 358 120 cnv 2 14 1 empty sl22 empty 20 12 0 14 #d5ff00 #ffffff 0;
#X obj 374 120 cnv 2 14 1 empty sl23 empty 20 12 0 14 #00ffaa #ffffff 0;
#X obj 390 120 cnv 2 14 1 empty sl24 empty 20 12 0 14 #00ffae #ffffff 0;
#X obj 407 120 cnv 2 14 1 empty sl25 empty 20 12 0 14 #ff0040 #ffffff 0;
#X obj 423 120 cnv 2 14 1 empty sl26 empty 20 12 0 14 #e6ff00 #ffffff 0;
#X obj 439 120 cnv 2 14 1 empty sl27 empty 20 12 0 14 #0d00ff #ffffff 0;
#X obj 455 120 cnv 2 14 1 empty sl28 empty 20 12 0 14 #ff00a2 #ffffff 0;
#X coords 0 0 1 1 472 242 2 0 0;
#X restore 9 9 pd sliders;
#N canvas 0 50 500 420 construct 1;
#X obj 59 389 s pd-sliders;
#X msg 9 309 clear;
#X obj 59 129 loop;
#X text 206 8 spacing;
#X obj 59 29 inlet;
#X obj 163 29 inlet;
#X obj 214 29 inlet;
#X obj 278 29 inlet;
#X obj 332 29 inlet;
#X obj 396 29 inlet;
#X obj 450 29 inlet;
#X text 266 8 x offset;
#X text 326 8 y offset;
#X obj 59 309 pack f f f f;
#X msg 59 339 obj \$2 \$3 cnv 2 \$4 0 empty sl\$1 empty 20 12 0 14 #ffffff #ffffff 0, f 30;
#X obj 119 29 inlet;
#X obj 73 269 +;
#N canvas 0 50 470 440 move-slider 0;
#X obj 19 29 inlet;
#X obj 89 29 inlet;
#X obj 169 29 inlet;
#X obj 249 29 inlet;
#X obj 319 29 inlet;
#X obj 389 29 inlet;
#X msg 320 349 symbol sl\$1;
#X obj 9 399 s;
#X obj 9 259 -;
#X msg 9 289 delta 0 \$1;
#X obj 80 224 * -1;
#X obj 9 229 t f f;
#X obj 80 187 moses 1;
#X msg 111 150 0;
#X obj 229 229 *;
#X obj 259 309 pack;
#X obj 80 319 pack;
#X msg 80 349 vis_size \$2 \$1;
#X text 89 8 index;
#X text 9 8 y value;
#N canvas 0 50 450 300 set-pos 0;
#X obj 109 59 inlet;
#X obj 219 59 inlet;
#X obj 159 219 outlet;
#X msg 159 169 pos 2 120;
#X msg 219 109 set pos \$1 \$2;
#X connect 0 0 3 0 empty;
#X connect 1 0 4 0 empty;
#X connect 3 0 2 0 empty;
#X connect 4 0 3 0 empty;
#X restore 187 349 pd set-pos;
#X obj 249 269 +;
#X obj 80 82 * -1;
#X text 309 8 y offset;
#X text 239 8 x offset;
#X obj 319 159 f;
#X obj 319 189 t f f;
#X obj 80 114 t f b b b;
#X text 149 8 slider width;
#X text 389 8 width - spacing;
#X connect 0 0 22 0 empty;
#X connect 1 0 25 1 empty;
#X connect 2 0 14 1 empty;
#X connect 3 0 21 1 empty;
#X connect 4 0 15 1 empty;
#X connect 5 0 16 1 empty;
#X connect 6 0 7 1 empty;
#X connect 8 0 9 0 empty;
#X connect 9 0 7 0 empty;
#X connect 10 0 16 0 empty;
#X connect 11 0 8 1 empty;
#X connect 11 1 8 0 empty;
#X connect 12 0 11 0 empty;
#X connect 12 0 10 0 empty;
#X connect 12 1 16 0 empty;
#X connect 13 0 12 0 empty;
#X connect 14 0 21 0 empty;
#X connect 15 0 20 1 empty;
#X connect 16 0 17 0 empty;
#X connect 17 0 7 0 empty;
#X connect 20 0 7 0 empty;
#X connect 21 0 15 0 empty;
#X connect 22 0 27 0 empty;
#X connect 25 0 26 0 empty;
#X connect 26 0 14 0 empty;
#X connect 26 1 6 0 empty;
#X connect 27 0 12 0 empty;
#X connect 27 1 20 0 empty;
#X connect 27 2 13 0 empty;
#X connect 27 3 25 0 empty;
#X restore 289 339 pd move-slider;
#N canvas 0 50 450 300 resize 0;
#X obj 89 49 inlet;
#X obj 223 49 inlet;
#X msg 129 209 coords 0 0 1 1 \$1 \$2 2;
#X obj 179 99 + 2;
#X obj 129 99 + 2;
#X obj 129 239 s pd-sliders;
#X obj 179 129 t b f;
#X obj 129 182 pack;
#X connect 0 0 4 0 empty;
#X connect 1 0 3 0 empty;
#X connect 2 0 5 0 empty;
#X connect 3 0 6 0 empty;
#X connect 4 0 7 0 empty;
#X connect 6 0 7 0 empty;
#X connect 6 1 7 1 empty;
#X connect 7 0 2 0 empty;
#X restore 399 79 pd resize;
#X text 396 8 width;
#X text 446 8 height;
#X text 9 8 # of sliders;
#X text 114 8 y val;
#X text 159 8 ndx;
#N canvas 0 50 450 300 calc-y-pos 0;
#X obj 69 29 inlet;
#X obj 119 29 inlet;
#X obj 179 29 inlet;
#X obj 69 259 outlet;
#X obj 69 109 / 2;
#X obj 119 139 * -1;
#X obj 89 189 *;
#X obj 69 79 f;
#X obj 69 229 +;
#X obj 69 139 t f f;
#X connect 0 0 7 0 empty;
#X connect 1 0 5 0 empty;
#X connect 2 0 7 1 empty;
#X connect 4 0 9 0 empty;
#X connect 5 0 6 0 empty;
#X connect 6 0 8 1 empty;
#X connect 7 0 4 0 empty;
#X connect 8 0 3 0 empty;
#X connect 9 0 8 0 empty;
#X connect 9 1 6 1 empty;
#X restore 399 169 pd calc-y-pos;
#X obj 59 183 t f f;
#X obj 179 279 -;
#X obj 109 129 swap;
#X obj 109 163 /;
#X obj 73 239 *;
#X obj 59 69 t f f b b;
#X connect 1 0 0 0 empty;
#X connect 2 0 25 0 empty;
#X connect 4 0 30 0 empty;
#X connect 5 0 17 1 empty;
#X connect 6 0 26 1 empty;
#X connect 7 0 16 1 empty;
#X connect 7 0 17 3 empty;
#X connect 8 0 24 1 empty;
#X connect 9 0 18 0 empty;
#X connect 9 0 27 1 empty;
#X connect 10 0 18 1 empty;
#X connect 10 0 24 2 empty;
#X connect 13 0 14 0 empty;
#X connect 14 0 0 0 empty;
#X connect 15 0 17 0 empty;
#X connect 16 0 13 1 empty;
#X connect 24 0 17 4 empty;
#X connect 24 0 13 2 empty;
#X connect 25 0 13 0 empty;
#X connect 25 1 29 0 empty;
#X connect 26 0 13 3 empty;
#X connect 26 0 17 5 empty;
#X connect 27 0 28 0 empty;
#X connect 27 1 28 1 empty;
#X connect 28 0 17 2 empty;
#X connect 28 0 26 0 empty;
#X connect 28 0 29 1 empty;
#X connect 29 0 16 0 empty;
#X connect 30 0 2 0 empty;
#X connect 30 1 27 0 empty;
#X connect 30 2 1 0 empty;
#X connect 30 3 24 0 empty;
#X restore 509 349 pd construct;
#X obj 509 169 nbx 4 18 1 1e+37 0 0 empty empty empty 0 -8 0 10 #191919 #ffffff #ffffff 0 256;
#X obj 661 319 nbx 4 18 0 1e+37 0 1 empty empty empty 0 -8 0 10 #191919 #ffffff #ffffff 240 256;
#X obj 611 319 nbx 4 18 0 1e+37 0 1 empty empty empty 0 -8 0 10 #191919 #ffffff #ffffff 470 256;
#X obj 594 294 nbx 4 18 -1e+37 1e+37 0 1 empty empty empty 0 -8 0 10 #191919 #ffffff #ffffff 0 256;
#X text 659 348 width & height;
#X text 555 169 n;
#X obj 577 269 nbx 4 18 0 1e+37 0 1 empty empty empty 0 -8 0 10 #191919 #ffffff #ffffff 2 256;
#X text 622 268 x offset;
#X obj 560 244 nbx 4 18 0 1e+37 0 1 empty empty empty 0 -8 0 10 #191919 #ffffff #ffffff 2 256;
#X text 606 244 spacing;
#X obj 543 221 nbx 4 18 0 1e+37 0 0 empty empty empty 0 -8 0 10 #191919 #ffffff #ffffff 0 256;
#X obj 526 199 nbx 4 18 -1e+37 1e+37 0 0 empty empty empty 0 -8 0 10 #191919 #ffffff #ffffff 0 256;
#X text 589 220 index;
#X text 571 197 y value;
#X obj 439 319 bng 25 250 50 0 empty empty empty 17 7 0 10 #191919 #ffffff #ffffff;
#N canvas 0 50 450 300 color 1;
#X obj 129 9 inlet;
#X obj 129 119 rand.i 0 360;
#X msg 129 159 hsl \$1 100 50;
#X obj 319 9 inlet;
#X msg 269 129 symbol sl\$1;
#X obj 129 49 loop;
#X obj 129 79 t b f;
#X obj 129 259 s;
#X msg 129 219 color \$1;
#X obj 129 189 colors;
#X connect 0 0 5 0 empty;
#X connect 1 0 2 0 empty;
#X connect 2 0 9 0 empty;
#X connect 3 0 5 1 empty;
#X connect 4 0 7 1 empty;
#X connect 5 0 6 0 empty;
#X connect 6 0 1 0 empty;
#X connect 6 1 4 0 empty;
#X connect 8 0 7 0 empty;
#X connect 9 0 8 0 empty;
#X restore 439 349 pd color;
#X text 641 292 y axis (-1 to 1);
#X connect 4 0 3 0 empty;
#X connect 4 0 19 1 empty;
#X connect 5 0 3 7 empty;
#X connect 6 0 3 6 empty;
#X connect 7 0 3 5 empty;
#X connect 10 0 3 4 empty;
#X connect 12 0 3 3 empty;
#X connect 14 0 3 2 empty;
#X connect 15 0 3 1 empty;
#X connect 18 0 19 0 empty;
