#N canvas 827 239 527 327 12;
#X obj 420 220 pol2car;
#X obj 160 134 cnv 12 11 11 empty dot . 4 2 0 14 #ffacab #ffffff 0;
#X obj 420 450 s dot;
#X msg 420 410 pos \$1 \$2;
#X obj 420 360 pack f f;
#X obj 420 130 nbx 4 18 -1e+37 1e+37 0 1 empty empty empty 0 -8 0 10 #191919 #ffffff #ffffff 74 256;
#X obj 460 290 +;
#X obj 420 290 +;
#X obj 470 170 t b f;
#X obj 470 20 inlet;
#X obj 470 130 nbx 4 18 -1e+37 1e+37 0 0 empty empty empty 0 -8 0 10 #191919 #ffffff #ffffff 0 256;
#X obj 310 180 t b b;
#X obj 310 140 loadbang;
#X msg 310 220 161;
#X msg 360 220 208;
#X obj 420 40 inlet;
#X obj 470 90 * 6.283;
#X obj 470 60 + 0.75;
#X connect 0 0 7 1 empty;
#X connect 0 1 6 1 empty;
#X connect 3 0 2 0 empty;
#X connect 4 0 3 0 empty;
#X connect 5 0 0 0 empty;
#X connect 5 0 11 0 empty;
#X connect 6 0 4 1 empty;
#X connect 7 0 4 0 empty;
#X connect 8 0 0 0 empty;
#X connect 8 1 0 1 empty;
#X connect 9 0 17 0 empty;
#X connect 10 0 8 0 empty;
#X connect 10 0 11 0 empty;
#X connect 11 0 13 0 empty;
#X connect 11 1 14 0 empty;
#X connect 12 0 11 0 empty;
#X connect 13 0 7 0 empty;
#X connect 14 0 6 0 empty;
#X connect 15 0 5 0 empty;
#X connect 16 0 10 0 empty;
#X connect 17 0 16 0 empty;
#X coords 0 0 1 1 201 188 2 63 116;
