#N canvas 827 239 527 327 12;
#X obj 510 110 nbx 4 18 -1e+37 1e+37 0 0 empty empty empty 0 -8 0 10 #191919 #ffffff #ffffff 0 256;
#X obj 460 240 pol2car;
#X obj 150 223 cnv 12 11 11 dot-pos dot . 4 2 0 14 #ffacab #ffffff 0;
#X obj 460 410 s dot;
#X msg 460 370 pos \$1 \$2;
#X obj 460 340 pack f f;
#X obj 460 110 nbx 4 18 -1e+37 1e+37 0 1 empty empty empty 0 -8 0 10 #191919 #ffffff #ffffff 100 256;
#X obj 500 310 +;
#X obj 460 310 +;
#X obj 480 180 * 6.283;
#X obj 480 150 + 0.75;
#X obj 520 270 unpack;
#X obj 520 240 r dot-pos;
#X msg 550 370 get_pos;
#X obj 480 210 t b f;
#X connect 0 0 10 0 empty;
#X connect 1 0 8 0 empty;
#X connect 1 1 7 0 empty;
#X connect 4 0 3 0 empty;
#X connect 5 0 4 0 empty;
#X connect 6 0 1 0 empty;
#X connect 7 0 5 1 empty;
#X connect 8 0 5 0 empty;
#X connect 9 0 14 0 empty;
#X connect 10 0 9 0 empty;
#X connect 11 0 8 1 empty;
#X connect 11 1 7 1 empty;
#X connect 12 0 11 0 empty;
#X connect 13 0 3 0 empty;
#X connect 14 0 1 0 empty;
#X connect 14 1 1 1 empty;
