#N canvas 827 239 527 327 12;
#X obj 39 109 nbx 4 18 -1e+37 1e+37 0 1 empty empty empty 0 -8 0 10 #191919 #d4d4d4 #d4d4d4 3 256;
#X obj 109 109 nbx 4 18 -1e+37 1e+37 0 1 empty empty empty 0 -8 0 10 #191919 #d4d4d4 #d4d4d4 -4 256;
#X obj 79 169 &;
#X obj 79 239 nbx 4 18 -1e+37 1e+37 0 0 empty empty empty 0 -8 0 10 #191919 #d4d4d4 #d4d4d4 0 256;
#X text 190 178 1000-0100;
#X text 189 158 0000-0100;
#X text 269 178 1000-0100;
#X text 269 158 1000-0100;
#X text 349 178 1000-0100;
#X text 349 158 0000-0011;
#X text 429 178 1000-0100;
#X text 429 158 0000-0101;
#X text 429 218 0000-0100;
#X text 349 218 0000-0000;
#X text 189 218 0000-0100;
#X text 269 218 1000-0100;
#X text 189 198 ---------------------------------------------------------;
#X text 299 128 -4;
#X text 219 128 4;
#X text 371 128 3;
#X text 459 128 5;
#X text 209 248 4;
#X text 299 248 -4;
#X text 379 248 0;
#X text 459 248 4;
#X connect 0 0 2 0;
#X connect 1 0 2 1;
#X connect 2 0 3 0;
