#N canvas 141 82 670 515 12;
#X msg 187 335 label \$1;
#X obj 17 185 colors;
#X msg 17 155 hsl \$1 100 50;
#X obj 17 345 bng 25 250 50 0 empty empty s 55 70 0 100 #181818 #181818 #00ff80;
#X obj 17 125 rand.i 0 360;
#X msg 17 235 color #181818 #181818 \$1;
#X obj 187 155 t b f b;
#X msg 187 305 symbol \$19;
#X msg 201 246 adddollar \$1;
#X msg 217 275 set symbol;
#X obj 17 85 metro 1 60 persec;
#X msg 188 201 list a b c d e f g h i j k l m n o p q r s t u v w x y z, f 57;
#X obj 187 125 rand.i 1 26;
#X obj 18 37 tgl 20 0 empty empty empty 0 -10 0 12 #fcfcfc #000000 #000000 0 1;
#X connect 0 0 3 0;
#X connect 1 0 5 0;
#X connect 2 0 1 0;
#X connect 4 0 2 0;
#X connect 5 0 3 0;
#X connect 6 0 11 0;
#X connect 6 1 8 0;
#X connect 6 2 9 0;
#X connect 7 0 0 0;
#X connect 8 0 7 0;
#X connect 9 0 7 0;
#X connect 10 0 4 0;
#X connect 10 0 12 0;
#X connect 11 0 7 0;
#X connect 12 0 6 0;
#X connect 13 0 10 0;
