#N canvas 827 239 527 327 12;
#X obj 338 99 v counter;
#X obj 368 129 + 1;
#X obj 349 299 array define -k;
#A resize 8;
#A 0 0 2 3 4 5 6 7 8;
#X msg 279 249 resize \$1;
#X obj 279 219 list length;
#X obj 133 269 array set;
#X obj 338 159 t f f;
#X obj 9 269 array get;
#X obj 9 9 loadbang;
#X obj 119 99 t b l l;
#X obj 9 39 t b b;
#X obj 155 229 t s s;
#X obj 119 9 inlet;
#X obj 9 299 outlet;
#X text 229 18 store and output the input list \, and output it on load;
#X msg 349 199 rename amarr-\$1;
#X msg 155 199 symbol amarr-\$1;
#X connect 0 0 1 0 32.................E....3A...PA....d....n.....;
#X connect 0 0 6 0 empty;
#X connect 1 0 0 0 48.................J....fB...fB....n....T7++++3++++E++++O9++++y++++;
#X connect 3 0 2 0 empty;
#X connect 4 0 3 0 empty;
#X connect 6 0 16 0 empty;
#X connect 6 1 15 0 empty;
#X connect 7 0 13 0 empty;
#X connect 8 0 10 0 empty;
#X connect 9 0 7 0 empty;
#X connect 9 1 5 0 empty;
#X connect 9 2 4 0 empty;
#X connect 10 0 7 0 empty;
#X connect 10 1 0 0 32.................M....DS...PC....wD...3A....;
#X connect 11 0 7 2 empty;
#X connect 11 1 5 2 empty;
#X connect 12 0 9 0 empty;
#X connect 15 0 2 0 empty;
#X connect 16 0 11 0 empty;
