#N canvas 827 239 527 327 12;
#N canvas 0 50 450 300 page1 1;
#X obj 49 49 note 302 27 Inter empty 0 255 255 255 0 25 25 25 0 0 this is the first subpatch! imma do evil stuff here!;
#X obj 71 198 s pd-page1;
#X msg 71 168 vis 0;
#X text 129 168 this will close this subpatch;
#X connect 2 0 1 0 empty;
#X restore 128 162 pd page1;
#N canvas 0 50 450 300 page2 1;
#X obj 79 69 note 302 27 Inter empty 0 255 255 255 0 25 25 25 0 0 cute stuff this time;
#X text 129 158 this will close this subpatch;
#X msg 71 158 vis 0;
#X obj 71 188 s pd-page2;
#X msg 69 239 vis 0;
#X obj 159 269 s pd-page2;
#X text 127 239 this will close both subpatches;
#X obj 69 269 s pd-page1;
#X connect 2 0 3 0 empty;
#X connect 4 0 5 0 empty;
#X connect 4 0 7 0 empty;
#X restore 129 189 pd page2;
#X msg 299 99 vis 1;
#X obj 299 129 s pd-page1;
#X msg 299 179 vis 1;
#X obj 299 209 s pd-page2;
#X text 349 98 this will open the first;
#X text 349 178 this will open the second;
#X text 89 128 we have 2 subpatches here;
#X connect 2 0 3 0 empty;
#X connect 4 0 5 0 empty;
