#N canvas 827 239 527 327 12;
#N canvas 0 50 450 250 (subpatch) 0;
#X text 0 0 plugdatainfo <?xml version="1.0" encoding="UTF-8"?> <plugdatainfo/>;
#X coords 0 1 100 -1 1 1 1;
#X restore 0 0 graph;
#X obj 144 28 inlet;
#X obj 192 28 inlet;
#X obj 288 28 inlet;
#X obj 337 28 inlet;
#X obj 385 28 inlet;
#X obj 497 28 inlet;
#X obj 544 28 inlet;
#X obj 56 28 inlet;
#X obj 133 170 / 4;
#X obj 181 214 sin;
#X obj 133 214 cos;
#X obj 133 130 *;
#X obj 181 130 *;
#X obj 181 170 / 4;
#X obj 133 250 /;
#X obj 181 250 /;
#X obj 133 297 abs;
#X obj 181 297 abs;
#X obj 133 347 pow;
#X obj 181 347 pow;
#X obj 133 391 +;
#X obj 133 435 pow;
#X obj 266 391 /;
#X obj 237 350 nbx 4 18 -1e+37 1e+37 0 1 empty empty empty 0 -8 0 10 #191919 #ffffff #ffffff -1 256;
#X obj 133 482 outlet;
#X obj 144 76 hot 7, f 61;
#X connect 1 0 26 0;
#X connect 2 0 26 1;
#X connect 3 0 26 2;
#X connect 4 0 26 3;
#X connect 5 0 26 4;
#X connect 6 0 26 5;
#X connect 7 0 26 6;
#X connect 8 0 13 0;
#X connect 8 0 12 0;
#X connect 9 0 11 0;
#X connect 10 0 16 0;
#X connect 11 0 15 0;
#X connect 12 0 9 0;
#X connect 13 0 14 0;
#X connect 14 0 10 0;
#X connect 15 0 17 0;
#X connect 16 0 18 0;
#X connect 17 0 19 0;
#X connect 18 0 20 0;
#X connect 19 0 21 0;
#X connect 20 0 21 1;
#X connect 21 0 22 0;
#X connect 22 0 25 0;
#X connect 23 0 22 1;
#X connect 24 0 23 0;
#X connect 26 0 12 1;
#X connect 26 1 13 1;
#X connect 26 2 23 1;
#X connect 26 3 19 1;
#X connect 26 4 20 1;
#X connect 26 5 15 1;
#X connect 26 6 16 1;
