#N canvas 827 239 527 327 12;
#N canvas 0 50 450 250 (subpatch) 0;
#X text 0 0 plugdatainfo <?xml version="1.0" encoding="UTF-8"?> <plugdatainfo/>;
#X coords 0 1 100 -1 1 1 1;
#X restore 0 0 graph;
#X obj 190 240 oscope~ 296 297 2 3 512 -2 2 0 0 0 0 255 255 255 29 29 29 31 31 31 0 empty;
#X obj 231 150 superformula~;
#X obj 177 79 phasor~ 0.6;
#X obj 321 96 nbx 4 18 -1e+37 1e+37 0 1 empty empty empty 0 -8 0 10 #e4e4e4 #5a5a5a #5a5a5a 6 256;
#X obj 372 96 nbx 4 18 -1e+37 1e+37 0 1 empty empty empty 0 -8 0 10 #e4e4e4 #5a5a5a #5a5a5a 3 256;
#X obj 423 96 nbx 4 18 -1e+37 1e+37 0 1 empty empty empty 0 -8 0 10 #e4e4e4 #5a5a5a #5a5a5a 2 256;
#X obj 474 96 nbx 4 18 -1e+37 1e+37 0 1 empty empty empty 0 -8 0 10 #e4e4e4 #5a5a5a #5a5a5a 1 256;
#X obj 525 96 nbx 4 18 -1e+37 1e+37 0 1 empty empty empty 0 -8 0 10 #e4e4e4 #5a5a5a #5a5a5a 1 256;
#X obj 576 96 nbx 4 18 -1e+37 1e+37 0 1 empty empty empty 0 -8 0 10 #e4e4e4 #5a5a5a #5a5a5a 1 256;
#X obj 627 96 nbx 4 18 -1e+37 1e+37 0 1 empty empty empty 0 -8 0 10 #e4e4e4 #5a5a5a #5a5a5a 1 256;
#X obj 237 18 bng 25 250 50 1 empty empty empty 17 7 0 10 #e4e4e4 #5a5a5a #5a5a5a;
#X msg 237 49 0, f 5;
#X obj 155 18 nbx 6 32 -1e+37 1e+37 0 1 empty empty empty 0 -8 0 10 #e4e4e4 #5a5a5a #5a5a5a 0.6 256;
#X obj 190 200 pol2car~;
#X obj 177 110 *~ 6.2831;
#X text 327 70 m1, f 4;
#X text 380 71 m2, f 4;
#X text 431 71 n1, f 5;
#X text 480 70 n2, f 4;
#X text 531 70 n3, f 4;
#X text 589 71 a, f 4;
#X text 640 71 b, f 4;
#X text 98 23 freq, f 5;
#X connect 2 0 14 0;
#X connect 3 0 15 0;
#X connect 4 0 2 1;
#X connect 5 0 2 2;
#X connect 6 0 2 3;
#X connect 7 0 2 4;
#X connect 8 0 2 5;
#X connect 9 0 2 6;
#X connect 10 0 2 7;
#X connect 11 0 12 0;
#X connect 12 0 3 1;
#X connect 13 0 3 0;
#X connect 14 0 1 0;
#X connect 14 1 1 1;
#X connect 15 0 2 0;
#X connect 15 0 14 1;
