#N canvas 827 239 527 327 12;
#X obj 199 49 bng 26 250 50 0 empty empty empty 17 7 0 10 #191919 #d4d4d4 #d4d4d4;
#X obj 109 209 display;
#X obj 109 99 nbx 4 18 -1e+37 1e+37 0 0 empty empty empty 0 -8 0 10 #191919 #d4d4d4 #d4d4d4 0 256;
#X obj 109 169 text get -s text t, f 15;
#X obj 199 99 text define -k;
#A set hiiii heyyyy \; awawa awa \; heheehe kehehe \; heeeeeeeeee \;;
#X f 13;
#X obj 349 149 nbx 4 18 -1e+37 1e+37 0 0 empty empty empty 0 -8 0 10 #191919 #d4d4d4 #d4d4d4 0 256;
#X obj 309 219 text set -s text t, f 15;
#X msg 293 182 list heeeeeeeeee;
#X connect 0 0 4 0;
#X connect 2 0 3 0;
#X connect 3 0 1 0;
#X connect 4 0 3 3;
#X connect 4 0 6 3;
#X connect 5 0 6 1;
#X connect 7 0 6 0;
