#N canvas 827 239 527 327 12;
#N canvas 0 50 450 250 (subpatch) 0;
#X text 0 0 plugdatainfo <?xml version="1.0" encoding="UTF-8"?> <plugdatainfo/>;
#X coords 0 1 100 -1 1 1 1;
#X restore 0 0 graph;
#X obj 52 161 count 10;
#X obj 52 127 metro;
#X msg 52 58 1, f 5;
#X obj 52 387 impseq~;
#X obj 52 507 dac~;
#X obj 52 197 nbx 4 18 -1e+37 1e+37 0 0 empty empty empty 0 -8 0 10 #e4e4e4 #5a5a5a #5a5a5a 0 256;
#X obj 225 159 count 10;
#X obj 225 125 metro;
#X msg 225 56 1, f 5;
#X obj 225 192 nbx 4 18 -1e+37 1e+37 0 0 empty empty empty 0 -8 0 10 #e4e4e4 #5a5a5a #5a5a5a 0 256;
#X obj 52 442 svfilter~ 500 0.8;
#X obj 52 234 euclid 32 7 0;
#X msg 71 94 tempo 1.3 persec, f 17;
#X msg 244 92 tempo \$1 persec, f 17;
#X obj 286 58 nbx 4 18 -1e+37 1e+37 0 1 empty empty empty 0 -8 0 10 #e4e4e4 #5a5a5a #5a5a5a 28 256;
#X text 476 28 be honest \, when was the last time you wanted to layer a bunch of euclidean sequencers? yesterday? yeah same, f 35;
#X obj 225 226 euclid 10 8 0;
#X obj 225 343 euclid 5 2 0;
#X obj 225 298 nbx 4 18 -1e+37 1e+37 0 0 empty empty empty 0 -8 0 10 #e4e4e4 #5a5a5a #5a5a5a 0 256;
#X obj 225 259 count 5;
#X obj 287 298 nbx 4 18 -1e+37 1e+37 0 0 empty empty empty 0 -8 0 10 #e4e4e4 #5a5a5a #5a5a5a 0 256;
#X obj 341 298 nbx 4 18 -1e+37 1e+37 0 0 empty empty empty 0 -8 0 10 #e4e4e4 #5a5a5a #5a5a5a 0 256;
#X obj 287 192 nbx 4 18 -1e+37 1e+37 0 0 empty empty empty 0 -8 0 10 #e4e4e4 #5a5a5a #5a5a5a 0 256;
#X obj 341 192 nbx 4 18 -1e+37 1e+37 0 0 empty empty empty 0 -8 0 10 #e4e4e4 #5a5a5a #5a5a5a 0 256;
#X connect 1 0 6 0;
#X connect 2 0 1 0;
#X connect 3 0 2 0;
#X connect 3 0 13 0;
#X connect 4 0 11 0;
#X connect 6 0 12 0;
#X connect 7 0 10 0;
#X connect 8 0 7 0;
#X connect 9 0 8 0;
#X connect 9 0 14 0;
#X connect 10 0 17 0;
#X connect 11 0 5 0;
#X connect 11 0 5 1;
#X connect 12 0 4 0;
#X connect 13 0 2 0;
#X connect 14 0 8 0;
#X connect 15 0 14 0;
#X connect 17 0 20 0;
#X connect 18 0 4 0;
#X connect 19 0 18 0;
#X connect 20 0 19 0;
#X connect 21 0 18 1;
#X connect 21 0 20 1;
#X connect 22 0 18 2;
#X connect 23 0 17 1;
#X connect 23 0 7 1;
#X connect 24 0 17 2;
