#N canvas 827 239 527 327 12;
#N canvas 0 50 450 250 (subpatch) 0;
#X text 0 0 plugdatainfo <?xml version="1.0" encoding="UTF-8"?> <plugdatainfo/>;
#X coords 0 1 100 -1 1 1 1;
#X restore 0 0 graph;
#X obj 207 184 count 10;
#X obj 207 150 metro;
#X msg 207 81 1, f 5;
#X obj 207 310 impseq~;
#X obj 207 430 dac~;
#X obj 207 220 nbx 4 18 -1e+37 1e+37 0 0 empty empty empty 0 -8 0 10 #e4e4e4 #5a5a5a #5a5a5a 0 256;
#X obj 361 184 count 10;
#X obj 361 150 metro;
#X msg 361 81 1, f 5;
#X obj 361 220 nbx 4 18 -1e+37 1e+37 0 0 empty empty empty 0 -8 0 10 #e4e4e4 #5a5a5a #5a5a5a 0 256;
#X obj 361 257 euclid 10 4 0;
#X obj 207 365 svfilter~ 500 0.8;
#X obj 207 257 euclid 32 7 0;
#X msg 226 117 tempo 1.3 persec, f 17;
#X msg 380 117 tempo \$1 persec, f 17;
#X obj 422 83 nbx 4 18 -1e+37 1e+37 0 0 empty empty empty 0 -8 0 10 #e4e4e4 #5a5a5a #5a5a5a 0 256;
#X connect 1 0 6 0;
#X connect 2 0 1 0;
#X connect 3 0 2 0;
#X connect 3 0 14 0;
#X connect 4 0 12 0;
#X connect 6 0 13 0;
#X connect 7 0 10 0;
#X connect 8 0 7 0;
#X connect 9 0 8 0;
#X connect 9 0 15 0;
#X connect 10 0 11 0;
#X connect 11 0 4 0;
#X connect 12 0 5 0;
#X connect 12 0 5 1;
#X connect 13 0 4 0;
#X connect 14 0 2 0;
#X connect 15 0 8 0;
#X connect 16 0 15 0;
