#N canvas 827 239 500 500 12;
#X msg 539 409 add2 -underline;
#X msg 655 409 add2 -bold;
#X msg 539 444 add2 -italic;
#X msg 539 213 addsemi;
#X msg 524 183 set;
#X msg 539 243 add2 pd-typo-test-4.pd obj \$1 \$2 note;
#X msg 539 303 add2 -note \$1;
#X msg 641 303 add2 -size \$1;
#X msg 539 370 add2 -color \$1 \$2 \$3;
#X obj 610 213 pack;
#X obj 539 345 colors -rgb;
#X msg 744 313 hsl \$1 100 50;
#X obj 744 284 rand.i 0 360;
#X obj 789 243 text get -s text t;
#X msg 889 185 read empty.txt;
#X obj 872 215 text define empty;
#X obj 769 213 rand.i 0 16979;
#X obj 714 378 chance;
#X obj 774 378 chance;
#X obj 744 413 chance;
#X obj 806 413 chance;
#X obj 872 124 loadbang;
#X obj 872 154 t b b;
#X msg 524 480, f 23;
#X obj 509 63 t b b b b b b b b b;
#X obj 689 343 t b b b b;
#X obj 641 274 rand.i 5 100;
#X obj 610 185 rand.i -100 500;
#X obj 716 185 rand.i -100 500;
#X msg 627 444 add2 -bg -bgcolor 25 25 25;
#X obj 509 36 metro 250;
#X obj 509 1 tgl 25 0 empty empty empty 17 7 0 10 #191919 #ffffff #ffffff 0 1;
#X connect 0 0 23 0 32.................F....H++++uA....x++++OC....;
#X connect 1 0 23 0 32.................F....32+++uA....98+++OC....;
#X connect 2 0 23 0 32.................H....H++++OB....x++++CA....;
#X connect 3 0 23 0 32.................F....H++++uA....x++++eO....;
#X connect 4 0 23 0 empty;
#X connect 5 0 23 0 32.................G....H+++++A....x++++mM....;
#X connect 6 0 23 0 32.................F....H++++uA....x++++2I....;
#X connect 7 0 23 0 32.................F....v3+++uA....L9+++2I....;
#X connect 8 0 23 0 32.................Q....H++++eD....x++++SF....;
#X connect 9 0 5 0 32.................H....D6+++OB....w9+++y.....;
#X connect 10 0 8 0 empty;
#X connect 11 0 10 0 32.................F....Py+++uA....z7+++y.....;
#X connect 12 0 11 0 empty;
#X connect 13 0 6 0 32.................F....fu+++uA....36+++iB....;
#X connect 14 0 15 0 32.................E....f7+++eA....H++++q.....;
#X connect 15 0 13 3 empty;
#X connect 16 0 13 0 32.................E....PA...PA....T....n.....;
#X connect 17 0 0 0 32.................J....H0+++uB....R8+++CA....;
#X connect 18 0 1 0 32.................J....n3+++uB....J9+++CA....;
#X connect 19 0 2 0 32.................G....Py++++A....z7+++u.....;
#X connect 20 0 29 0 32.................G....3z++++A....N8+++u.....;
#X connect 21 0 22 0 empty;
#X connect 22 0 15 0 empty;
#X connect 22 1 14 0 empty;
#X connect 24 0 23 0 32.................EF...n....PgA...J....zX....;
#X connect 24 1 25 0 empty;
#X connect 24 2 26 0 empty;
#X connect 24 3 12 0 empty;
#X connect 24 4 16 0 empty;
#X connect 24 5 27 0 empty;
#X connect 24 6 28 0 empty;
#X connect 24 7 3 0 empty;
#X connect 24 8 4 0 empty;
#X connect 25 0 17 0 empty;
#X connect 25 0 18 0 empty;
#X connect 25 0 20 0 empty;
#X connect 25 0 19 0 empty;
#X connect 26 0 7 0 empty;
#X connect 27 0 9 0 empty;
#X connect 28 0 9 1 32.................D....f6+++OA....39+++i.....;
#X connect 29 0 23 0 32.................H....n4+++OB....Z9+++CA....;
#X connect 30 0 24 0 empty;
#X connect 31 0 30 0 empty;
