#N canvas 827 239 500 500 12;
#X msg 539 409 add2 -underline;
#X msg 655 409 add2 -bold;
#X msg 539 444 add2 -italic;
#X msg 539 213 addsemi;
#X msg 524 183 set;
#X msg 539 243 add2 pd-typo-test-4.pd obj \$1 \$2 note;
#X msg 539 303 add2 -note \$1;
#X msg 641 303 add2 -size \$1;
#X msg 539 370 add2 -color \$1 \$2 \$3;
#X obj 610 213 pack;
#X obj 539 345 colors -rgb;
#X msg 744 313 hsl \$1 100 50;
#X obj 744 284 rand.i 0 360;
#X obj 789 243 text get -s text t;
#X msg 889 185 read empty.txt;
#X obj 872 215 text define empty;
#X obj 769 213 rand.i 0 16979;
#X obj 714 378 chance;
#X obj 774 378 chance;
#X obj 744 413 chance;
#X obj 806 413 chance;
#X obj 872 124 loadbang;
#X obj 872 154 t b b;
#X msg 524 480 \; pd-typo-test-4.pd obj 479 322 note -note DAMMIT -color 195 255 0 -size 73 -underline -bold, f 23;
#X obj 509 63 t b b b b b b b b b;
#X obj 689 343 t b b b b;
#X obj 641 274 rand.i 5 100;
#X obj 610 185 rand.i -100 500;
#X obj 716 185 rand.i -100 500;
#X msg 627 444 add2 -bg -bgcolor 25 25 25;
#X obj 509 36 metro 250;
#X obj 509 1 tgl 25 0 empty empty empty 17 7 0 10 #191919 #ffffff #ffffff 0 1;
#X obj 99 13 note 0 39 DejaVu\ Sans\ Mono empty 0 0 162 255 1 25 25 25 1 0 of;
#X obj 165 281 note 0 24 DejaVu\ Sans\ Mono empty 0 255 0 4 1 25 25 25 1 0 cultwe;
#X obj 466 445 note 0 46 DejaVu\ Sans\ Mono empty 0 0 255 217 1 255 255 255 0 0 a;
#X obj 407 170 note 0 10 DejaVu\ Sans\ Mono empty 0 153 255 0 1 25 25 25 1 0 even;
#X obj 333 65 note 0 78 DejaVu\ Sans\ Mono empty 0 140 0 255 1 25 25 25 1 0 your;
#X obj 256 248 note 0 32 DejaVu\ Sans\ Mono empty 0 255 0 234 1 25 25 25 1 0 the;
#X obj 335 15 note 0 88 DejaVu\ Sans\ Mono empty 0 34 255 0 0 255 255 255 0 0 and;
#X obj 102 383 note 0 84 DejaVu\ Sans\ Mono empty 0 111 0 255 0 255 255 255 0 0 to;
#X obj 285 -14 note 0 84 DejaVu\ Sans\ Mono empty 0 93 0 255 0 255 255 255 0 0 did;
#X obj 308 387 note 0 69 DejaVu\ Sans\ Mono empty 0 0 255 161 1 25 25 25 1 0 Drones;
#X obj 420 149 note 0 98 DejaVu\ Sans\ Mono empty 0 255 0 51 0 25 25 25 1 0 a;
#X obj -4 137 note 0 89 DejaVu\ Sans\ Mono empty 0 255 162 0 1 255 255 255 0 0 desire;
#X obj 145 262 note 0 82 DejaVu\ Sans\ Mono empty 0 153 255 0 1 255 255 255 0 0 spinning;
#X obj 252 23 note 0 44 DejaVu\ Sans\ Mono empty 0 255 187 0 0 25 25 25 1 0 sees;
#X obj 382 17 note 0 37 DejaVu\ Sans\ Mono empty 0 255 0 251 0 255 255 255 0 0 to;
#X obj 347 36 note 0 29 DejaVu\ Sans\ Mono empty 0 255 0 85 1 25 25 25 1 0 financial;
#X obj 154 243 note 0 49 DejaVu\ Sans\ Mono empty 0 255 26 0 1 25 25 25 1 0 out;
#X obj 271 190 note 0 53 DejaVu\ Sans\ Mono empty 0 255 0 38 0 25 25 25 1 0 Witch;
#X obj 321 378 note 0 37 DejaVu\ Sans\ Mono empty 0 0 255 246 0 255 255 255 0 0 have;
#X obj 136 145 note 0 8 DejaVu\ Sans\ Mono empty 0 0 255 81 0 255 255 255 0 0 the;
#X obj 336 51 note 0 59 DejaVu\ Sans\ Mono empty 0 0 255 238 0 25 25 25 1 0 the;
#X obj 145 72 note 0 69 DejaVu\ Sans\ Mono empty 0 0 179 255 1 25 25 25 1 0 going;
#X obj 20 357 note 0 22 DejaVu\ Sans\ Mono empty 0 204 0 255 0 25 25 25 1 0 Spiders;
#X obj 48 21 note 0 83 DejaVu\ Sans\ Mono empty 0 0 30 255 1 25 25 25 1 0 Que;
#X obj 419 229 note 0 10 DejaVu\ Sans\ Mono empty 0 8 0 255 1 255 255 255 0 0 possessed;
#X obj 84 212 note 0 46 DejaVu\ Sans\ Mono empty 0 55 255 0 0 255 255 255 0 0 bled;
#X obj 197 393 note 0 72 DejaVu\ Sans\ Mono empty 0 0 255 187 1 25 25 25 1 0 like;
#X obj 413 393 note 0 12 DejaVu\ Sans\ Mono empty 0 255 0 153 1 25 25 25 1 0 and;
#X obj 278 68 note 0 63 DejaVu\ Sans\ Mono empty 0 255 102 0 0 25 25 25 1 0 Your;
#X obj 394 50 note 0 28 DejaVu\ Sans\ Mono empty 0 0 68 255 0 255 255 255 0 0 A;
#X obj 1 15 note 0 11 DejaVu\ Sans\ Mono empty 0 123 0 255 1 255 255 255 0 0 it;
#X obj 464 365 note 0 38 DejaVu\ Sans\ Mono empty 0 0 98 255 0 255 255 255 0 0 I;
#X obj 165 102 note 0 47 DejaVu\ Sans\ Mono empty 0 0 213 255 1 255 255 255 0 0 choise-;
#X obj 354 -3 note 0 16 DejaVu\ Sans\ Mono empty 0 255 68 0 1 255 255 255 0 0 find;
#X obj 119 129 note 0 36 DejaVu\ Sans\ Mono empty 0 0 255 242 0 25 25 25 1 0 clown;
#X obj 35 384 note 0 61 DejaVu\ Sans\ Mono empty 0 47 255 0 1 25 25 25 1 0 witch;
#X obj 13 477 note 0 14 DejaVu\ Sans\ Mono empty 0 255 119 0 1 25 25 25 1 0 I;
#X obj 28 160 note 0 90 DejaVu\ Sans\ Mono empty 0 76 0 255 1 25 25 25 1 0 blood.;
#X obj 329 244 note 0 37 DejaVu\ Sans\ Mono empty 0 0 255 115 1 255 255 255 0 0 in;
#X obj 362 157 note 0 43 DejaVu\ Sans\ Mono empty 0 255 217 0 0 255 255 255 0 0 but;
#X obj 225 308 note 0 91 DejaVu\ Sans\ Mono empty 0 0 255 115 0 25 25 25 1 0 can;
#X obj 7 269 note 0 23 DejaVu\ Sans\ Mono empty 0 204 0 255 1 25 25 25 1 0 was;
#X obj 2 219 note 0 69 DejaVu\ Sans\ Mono empty 0 255 0 153 0 255 255 255 0 0 Face;
#X obj 77 357 note 0 11 DejaVu\ Sans\ Mono empty 0 255 0 208 1 255 255 255 0 0 hats;
#X obj 74 384 note 0 54 DejaVu\ Sans\ Mono empty 0 255 115 0 1 25 25 25 1 0 It;
#X obj 139 303 note 0 99 DejaVu\ Sans\ Mono empty 0 94 255 0 0 255 255 255 0 0 In;
#X obj 140 16 note 0 10 DejaVu\ Sans\ Mono empty 0 51 0 255 0 255 255 255 0 0 you;
#X obj 242 131 note 0 82 DejaVu\ Sans\ Mono empty 0 255 217 0 0 255 255 255 0 0 should;
#X obj 201 42 note 0 43 DejaVu\ Sans\ Mono empty 0 255 144 0 0 25 25 25 1 0 in;
#X obj 18 -17 note 0 65 DejaVu\ Sans\ Mono empty 0 0 238 255 0 255 255 255 0 0 be;
#X obj 342 433 note 0 30 DejaVu\ Sans\ Mono empty 0 72 255 0 1 25 25 25 1 0 and;
#X obj 427 291 note 0 62 DejaVu\ Sans\ Mono empty 0 51 0 255 0 255 255 255 0 0 in;
#X obj 1 56 note 0 99 DejaVu\ Sans\ Mono empty 0 72 0 255 0 255 255 255 0 0 the;
#X obj 214 425 note 0 28 DejaVu\ Sans\ Mono empty 0 0 255 89 0 255 255 255 0 0 it;
#X obj 9 415 note 0 31 DejaVu\ Sans\ Mono empty 0 255 0 98 0 255 255 255 0 0 a;
#X obj 35 12 note 0 13 DejaVu\ Sans\ Mono empty 0 255 217 0 1 25 25 25 1 0 Drones;
#X obj 60 369 note 0 11 DejaVu\ Sans\ Mono empty 0 247 255 0 0 255 255 255 0 0 it;
#X obj 116 349 note 0 48 DejaVu\ Sans\ Mono empty 0 0 187 255 0 25 25 25 1 0 same;
#X obj 6 260 note 0 62 DejaVu\ Sans\ Mono empty 0 0 119 255 1 25 25 25 1 0 make;
#X obj 122 223 note 0 90 DejaVu\ Sans\ Mono empty 0 0 251 255 1 255 255 255 0 0 secretly;
#X obj 323 323 note 0 87 DejaVu\ Sans\ Mono empty 0 255 0 17 0 25 25 25 1 0 afar;
#X obj 146 97 note 0 6 DejaVu\ Sans\ Mono empty 0 255 217 0 1 255 255 255 0 0 let;
#X obj 278 425 note 0 31 DejaVu\ Sans\ Mono empty 0 255 72 0 0 255 255 255 0 0 she;
#X obj 8 11 note 0 31 DejaVu\ Sans\ Mono empty 0 0 255 76 1 255 255 255 0 0 be;
#X obj 382 -12 note 0 40 DejaVu\ Sans\ Mono empty 0 43 255 0 0 255 255 255 0 0 knows;
#X obj 292 356 note 0 94 DejaVu\ Sans\ Mono empty 0 162 255 0 1 255 255 255 0 0 into;
#X obj 156 140 note 0 53 DejaVu\ Sans\ Mono empty 0 136 255 0 1 255 255 255 0 0 A;
#X obj 311 177 note 0 59 DejaVu\ Sans\ Mono empty 0 255 0 136 0 255 255 255 0 0 it;
#X obj 91 440 note 0 70 DejaVu\ Sans\ Mono empty 0 225 255 0 0 255 255 255 0 0 to;
#X obj 347 85 note 0 80 DejaVu\ Sans\ Mono empty 0 255 0 153 0 255 255 255 0 0 mind;
#X obj 231 244 note 0 20 DejaVu\ Sans\ Mono empty 0 255 0 51 0 255 255 255 0 0 dolls;
#X obj 346 106 note 0 77 DejaVu\ Sans\ Mono empty 0 0 123 255 1 255 255 255 0 0 left;
#X obj 189 7 note 0 5 DejaVu\ Sans\ Mono empty 0 255 0 102 0 255 255 255 0 0 once;
#X obj 378 13 note 0 12 DejaVu\ Sans\ Mono empty 0 255 0 26 1 255 255 255 0 0 a;
#X obj 348 52 note 0 53 DejaVu\ Sans\ Mono empty 0 4 255 0 0 255 255 255 0 0 me;
#X obj 354 281 note 0 34 DejaVu\ Sans\ Mono empty 0 255 0 149 1 255 255 255 0 0 no;
#X obj 281 449 note 0 42 DejaVu\ Sans\ Mono empty 0 247 255 0 0 255 255 255 0 0 permission;
#X obj 43 2 note 0 69 DejaVu\ Sans\ Mono empty 0 191 255 0 0 255 255 255 0 0 make;
#X obj 300 115 note 0 8 DejaVu\ Sans\ Mono empty 0 0 255 204 0 255 255 255 0 0 is;
#X obj 269 346 note 0 35 DejaVu\ Sans\ Mono empty 0 115 255 0 1 255 255 255 0 0 are;
#X obj 327 340 note 0 63 DejaVu\ Sans\ Mono empty 0 255 174 0 1 255 255 255 0 0 a;
#X obj 343 233 note 0 57 DejaVu\ Sans\ Mono empty 0 0 140 255 0 255 255 255 0 0 demon;
#X obj 91 383 note 0 89 DejaVu\ Sans\ Mono empty 0 255 34 0 1 255 255 255 0 0 together;
#X obj 172 6 note 0 42 DejaVu\ Sans\ Mono empty 0 255 60 0 0 255 255 255 0 0 fingers;
#X obj 161 409 note 0 86 DejaVu\ Sans\ Mono empty 0 255 0 127 1 255 255 255 0 0 explore;
#X obj -3 415 note 0 73 DejaVu\ Sans\ Mono empty 0 0 132 255 0 255 255 255 0 0 be;
#X obj 30 244 note 0 100 DejaVu\ Sans\ Mono empty 0 179 255 0 1 255 255 255 0 0 Angels;
#X obj -12 236 note 0 28 DejaVu\ Sans\ Mono empty 0 0 255 98 1 255 255 255 0 0 in;
#X obj 54 41 note 0 29 DejaVu\ Sans\ Mono empty 0 255 0 183 0 255 255 255 0 0 meaning.;
#X obj 12 302 note 0 84 DejaVu\ Sans\ Mono empty 0 255 0 208 1 255 255 255 0 0 fist;
#X obj 18 93 note 0 84 DejaVu\ Sans\ Mono empty 0 255 132 0 1 255 255 255 0 0 bound;
#X obj 383 6 note 0 13 DejaVu\ Sans\ Mono empty 0 0 255 21 1 255 255 255 0 0 if;
#X obj 72 311 note 0 48 DejaVu\ Sans\ Mono empty 0 9 255 0 0 255 255 255 0 0 see;
#X obj 151 147 note 0 85 DejaVu\ Sans\ Mono empty 0 255 162 0 0 255 255 255 0 0 full;
#X obj 156 172 note 0 12 DejaVu\ Sans\ Mono empty 0 0 255 38 0 255 255 255 0 0 a;
#X obj 169 322 note 0 73 DejaVu\ Sans\ Mono empty 0 195 255 0 1 255 255 255 0 0 DAMMIT;
#X obj 6 371 note 0 47 DejaVu\ Sans\ Mono empty 0 255 3 0 1 255 255 255 0 0 void;
#X connect 0 0 23 0 32.................F....H++++uA....x++++OC....;
#X connect 1 0 23 0 32.................F....32+++uA....98+++OC....;
#X connect 2 0 23 0 32.................H....H++++OB....x++++CA....;
#X connect 3 0 23 0 32.................F....H++++uA....x++++eO....;
#X connect 4 0 23 0 empty;
#X connect 5 0 23 0 32.................G....H+++++A....x++++mM....;
#X connect 6 0 23 0 32.................F....H++++uA....x++++2I....;
#X connect 7 0 23 0 32.................F....v3+++uA....L9+++2I....;
#X connect 8 0 23 0 32.................Q....H++++eD....x++++SF....;
#X connect 9 0 5 0 32.................H....D6+++OB....w9+++y.....;
#X connect 10 0 8 0 empty;
#X connect 11 0 10 0 32.................F....Py+++uA....z7+++y.....;
#X connect 12 0 11 0 empty;
#X connect 13 0 6 0 32.................F....fu+++uA....36+++iB....;
#X connect 14 0 15 0 32.................E....f7+++eA....H++++q.....;
#X connect 15 0 13 3 empty;
#X connect 16 0 13 0 32.................E....PA...PA....T....n.....;
#X connect 17 0 0 0 32.................J....H0+++uB....R8+++CA....;
#X connect 18 0 1 0 32.................J....n3+++uB....J9+++CA....;
#X connect 19 0 2 0 32.................G....Py++++A....z7+++u.....;
#X connect 20 0 29 0 32.................G....3z++++A....N8+++u.....;
#X connect 21 0 22 0 empty;
#X connect 22 0 15 0 empty;
#X connect 22 1 14 0 empty;
#X connect 24 0 23 0 32.................EF...n....PgA...J....zX....;
#X connect 24 1 25 0 empty;
#X connect 24 2 26 0 empty;
#X connect 24 3 12 0 empty;
#X connect 24 4 16 0 empty;
#X connect 24 5 27 0 empty;
#X connect 24 6 28 0 empty;
#X connect 24 7 3 0 empty;
#X connect 24 8 4 0 empty;
#X connect 25 0 17 0 empty;
#X connect 25 0 18 0 empty;
#X connect 25 0 20 0 empty;
#X connect 25 0 19 0 empty;
#X connect 26 0 7 0 empty;
#X connect 27 0 9 0 empty;
#X connect 28 0 9 1 32.................D....f6+++OA....39+++i.....;
#X connect 30 0 24 0 empty;
#X connect 31 0 30 0 empty;
