#N canvas 827 239 500 500 12;
#X msg 539 409 add2 -underline;
#X msg 655 409 add2 -bold;
#X msg 539 444 add2 -italic;
#X msg 539 213 addsemi;
#X msg 524 183 set;
#X msg 539 303 add2 -note \$1;
#X msg 641 303 add2 -size \$1;
#X msg 539 370 add2 -color \$1 \$2 \$3;
#X obj 610 213 pack;
#X obj 539 345 colors -rgb;
#X msg 744 313 hsl \$1 100 50;
#X obj 744 284 rand.i 0 360;
#X obj 789 243 text get -s text t;
#X obj 714 378 chance;
#X obj 774 378 chance;
#X obj 744 413 chance;
#X obj 879 179 loadbang;
#X msg 524 480, f 23;
#X obj 509 63 t b b b b b b b b b;
#X obj 689 343 t b b b b;
#X obj 641 274 rand.i 5 100;
#X obj 610 185 rand.i -100 500;
#X obj 716 185 rand.i -100 500;
#X msg 627 444 add2 -bg -bgcolor 25 25 25;
#X obj 509 1 tgl 25 0 empty empty empty 17 7 0 10 #191919 #ffffff #ffffff 0 1;
#X obj 872 215 text define -k words;
#A set may \; you \; be \; free \; may \; you \; find \; peace \; may \; you \; have \; grace \; and \; courage \; may \; you \; let \; go \; of \; craving \; and \; resentment \; may \; you \; be \; gay \; may \; you \; appreciate \; and \; find \; contentment \; and \; joy \; in \; your \; life \; may \; you \; live \; well \; may \; you \; be \; healthy \; may \; you \; be \; free \; from \; worry \;;
#X obj 769 213 rand.i 0 50;
#N canvas 0 50 450 300 bg 1;
#X coords 0 0 1 1 502 502 2 0 0;
#X restore -1 -1 pd bg;
#X msg 539 243 add2 pd-bg obj \$1 \$2 note;
#X msg 733 99 \; pd-bg clear, f 13;
#X obj 806 413 chance 5 95;
#X obj 679 64 count 100;
#X obj 509 36 metro 10;
#X connect 0 0 17 0 32.................F....H++++uA....x++++OC....;
#X connect 1 0 17 0 32.................F....32+++uA....98+++OC....;
#X connect 2 0 17 0 32.................H....H++++OB....x++++CA....;
#X connect 3 0 17 0 32.................F....H++++uA....x++++eO....;
#X connect 4 0 17 0 empty;
#X connect 5 0 17 0 32.................F....H++++uA....x++++2I....;
#X connect 6 0 17 0 32.................F....v3+++uA....L9+++2I....;
#X connect 7 0 17 0 32.................Q....H++++eD....x++++SF....;
#X connect 8 0 28 0 32.................H....D6+++OB....w9+++y.....;
#X connect 9 0 7 0 empty;
#X connect 10 0 9 0 32.................F....Py+++uA....z7+++y.....;
#X connect 11 0 10 0 empty;
#X connect 12 0 5 0 32.................F....fu+++uA....36+++iB....;
#X connect 13 0 0 0 32.................J....H0+++uB....R8+++CA....;
#X connect 14 0 1 0 32.................J....n3+++uB....J9+++CA....;
#X connect 15 0 2 0 32.................G....Py++++A....z7+++u.....;
#X connect 16 0 25 0 empty;
#X connect 18 0 17 0 32.................EF...n....PgA...J....zX....;
#X connect 18 1 19 0 empty;
#X connect 18 2 20 0 empty;
#X connect 18 3 11 0 empty;
#X connect 18 4 26 0 empty;
#X connect 18 5 21 0 empty;
#X connect 18 6 22 0 empty;
#X connect 18 7 3 0 empty;
#X connect 18 8 4 0 empty;
#X connect 19 0 13 0 empty;
#X connect 19 0 14 0 empty;
#X connect 19 0 15 0 empty;
#X connect 19 0 30 0 empty;
#X connect 20 0 6 0 empty;
#X connect 21 0 8 0 empty;
#X connect 22 0 8 1 32.................D....f6+++OA....39+++i.....;
#X connect 23 0 17 0 32.................H....n4+++OB....Z9+++CA....;
#X connect 24 0 32 0 empty;
#X connect 25 0 12 3 empty;
#X connect 26 0 12 0 32.................E....PA...PA....T....n.....;
#X connect 28 0 17 0 32.................G....H+++++A....x++++mM....;
#X connect 30 0 23 0 32.................G....3z++++A....N8+++u.....;
#X connect 31 1 29 0 empty;
#X connect 32 0 18 0 empty;
#X connect 32 0 31 0 32.................D....PK....A....zB...f.....;
