#N canvas 827 239 527 327 12;
#X obj 159 389 dac~;
#X obj 159 149 pack2 f f f f;
#X obj 339 149 pack2 f f f f, f 11;
#X obj 84 93 nbx 4 18 -1e+37 1e+37 0 0 empty empty empty 0 -8 0 10 #191919 #ffffff #ffffff 0 256;
#X obj 137 93 nbx 4 18 -1e+37 1e+37 0 0 empty empty empty 0 -8 0 10 #191919 #ffffff #ffffff 0 256;
#X obj 190 93 nbx 4 18 -1e+37 1e+37 0 0 empty empty empty 0 -8 0 10 #191919 #ffffff #ffffff 0 256;
#X obj 243 93 nbx 4 18 -1e+37 1e+37 0 0 empty empty empty 0 -8 0 10 #191919 #ffffff #ffffff 0 256;
#X obj 326 93 nbx 4 18 -1e+37 1e+37 0 0 empty empty empty 0 -8 0 10 #191919 #ffffff #ffffff 0 256;
#X obj 379 93 nbx 4 18 -1e+37 1e+37 0 0 empty empty empty 0 -8 0 10 #191919 #ffffff #ffffff 0 256;
#X obj 432 93 nbx 4 18 -1e+37 1e+37 0 0 empty empty empty 0 -8 0 10 #191919 #ffffff #ffffff 0 256;
#X obj 485 93 nbx 4 18 -1e+37 1e+37 0 0 empty empty empty 0 -8 0 10 #191919 #ffffff #ffffff 0 256;
#X obj 189 229 adc~ 1 2;
#X obj 389 229 adc~ 3 4;
#X obj 159 299 vocoder~ 16 69 35 108 278;
#X obj 341 299 vocoder~ 16 79 46 78 108;
#X connect 1 0 13 0 empty;
#X connect 2 0 14 0 empty;
#X connect 3 0 1 0 empty;
#X connect 4 0 1 1 empty;
#X connect 5 0 1 2 empty;
#X connect 6 0 1 3 empty;
#X connect 7 0 2 0 empty;
#X connect 8 0 2 1 empty;
#X connect 9 0 2 2 empty;
#X connect 10 0 2 3 empty;
#X connect 11 0 13 0 empty;
#X connect 11 1 14 0 empty;
#X connect 12 0 13 1 empty;
#X connect 12 1 14 1 empty;
#X connect 13 0 0 0 empty;
#X connect 14 0 0 1 empty;
