#N canvas 0 50 450 300 12;
#N canvas 0 50 450 250 (subpatch) 0;
#X text 0 0 plugdatainfo <?xml version="1.0" encoding="UTF-8"?> <plugdatainfo><InfoObj ID="16.X....TC.........B....." Updated="0" Segmented="1" Path="32......D..........J.........fB.........LA...."/><InfoObj ID="16.W....TC.........C....." Updated="0" Segmented="1" Path="32......D..........J....XC...fB....1....LA...."/><InfoObj ID="16.Q....TC.........D....." Updated="0" Segmented="1" Path="32......D..........G....rF...vA....qA...LA...."/><InfoObj ID="16.R....TC.........E....." Updated="0" Segmented="1" Path="32......D..........J....DJ...fB....gB...LA...."/><InfoObj ID="16.S....TC.........F....." Updated="0" Segmented="1" Path="32......D..........G....XM...vA....VC...LA...."/><InfoObj ID="16.T....TC.........G....." Updated="0" Segmented="1" Path="32......D..........G....vP...vA....LD...LA...."/><InfoObj ID="16.U....TC.........H....." Updated="0" Segmented="1" Path="32......D..........G....DT...vA....AE...LA...."/><InfoObj ID="16.V....TC.........I....." Updated="0" Segmented="1" Path="32......D..........G....bW...vA....2E...LA...."/><InfoObj ID="16.f....TC.........J....." Updated="0" Segmented="1" Path="32......D..........G....vZ...vA....rF...LA...."/><InfoObj ID="16.e....TC.........K....." Updated="0" Segmented="1" Path="32......D..........G....Hd...vA....hG...LA...."/><InfoObj ID="16.Y....TC.........L....." Updated="0" Segmented="1" Path="32......D..........J....bg...fB....WH...LA...."/><InfoObj ID="16.Z....TC.........M....." Updated="0" Segmented="1" Path="32......D..........J....zj...fB....MI...LA...."/><InfoObj ID="16.a....TC.........N....." Updated="0" Segmented="1" Path="32......D..........G....Hn...vA....BJ...LA...."/><InfoObj ID="16.b....TC.........O....." Updated="0" Segmented="1" Path="32......D..........G....fq...vA....3J...LA...."/><InfoObj ID="16.c....TC.........P....." Updated="0" Segmented="1" Path="32......D..........G....zt...vA....sK...LA...."/><InfoObj ID="16.d....TC.........Q....." Updated="0" Segmented="1" Path="32......D..........G....Lx...vA....iL...LA...."/></plugdatainfo>;
#X coords 0 1 100 -1 1 1 1;
#X restore 0 0 graph;
#X obj 94 566 nbx 6 30 -24 24 0 1 empty m-0 empty 0 -8 0 10 #191919 #ffffff #ffffff 0 256;
#X obj 165 566 nbx 6 30 -24 24 0 1 empty m-1 empty 0 -8 0 10 #191919 #ffffff #ffffff 0 256;
#X obj 236 566 nbx 6 30 -24 24 0 1 empty m-2 empty 0 -8 0 10 #191919 #ffffff #ffffff 0 256;
#X obj 307 566 nbx 6 30 -24 24 0 1 empty m-3 empty 0 -8 0 10 #191919 #ffffff #ffffff 0 256;
#X obj 378 566 nbx 6 30 -24 24 0 1 empty m-4 empty 0 -8 0 10 #191919 #ffffff #ffffff 0 256;
#X obj 449 566 nbx 6 30 -24 24 0 1 empty m-5 empty 0 -8 0 10 #191919 #ffffff #ffffff 0 256;
#X obj 520 566 nbx 6 30 -24 24 0 1 empty m-6 empty 0 -8 0 10 #191919 #ffffff #ffffff 0 256;
#X obj 591 566 nbx 6 30 -24 24 0 1 empty m-7 empty 0 -8 0 10 #191919 #ffffff #ffffff 0 256;
#X obj 662 566 nbx 6 30 -24 24 0 1 empty m-8 empty 0 -8 0 10 #191919 #ffffff #ffffff 0 256;
#X obj 733 566 nbx 6 30 -24 24 0 1 empty m-9 empty 0 -8 0 10 #191919 #ffffff #ffffff 0 256;
#X obj 804 566 nbx 6 30 -24 24 0 1 empty m-10 empty 0 -8 0 10 #191919 #ffffff #ffffff 0 256;
#X obj 875 566 nbx 6 30 -24 24 0 1 empty m-11 empty 0 -8 0 10 #191919 #ffffff #ffffff 0 256;
#X obj 946 566 nbx 6 30 -24 24 0 1 empty m-12 empty 0 -8 0 10 #191919 #ffffff #ffffff 0 256;
#X obj 1017 566 nbx 6 30 -24 24 0 1 empty m-13 empty 0 -8 0 10 #191919 #ffffff #ffffff 0 256;
#X obj 1088 566 nbx 6 30 -24 24 0 1 empty m-14 empty 0 -8 0 10 #191919 #ffffff #ffffff 0 256;
#X obj 1160 566 nbx 6 30 -24 24 0 1 empty m-15 empty 0 -8 0 10 #191919 #ffffff #ffffff 0 256;
#X obj 1242 608 nbx 6 30 0 128 0 1 empty empty mult 0 -8 0 10 #191919 #ffffff #ffffff 0 256;
#X obj 236 225 bng 60 250 50 0 empty empty empty 17 7 0 10 #191919 #ed3b4b #ffffff;
#X obj 307 225 bng 60 250 50 0 empty empty empty 17 7 0 10 #191919 #ff6e1d #ffffff;
#X obj 378 225 bng 60 250 50 0 empty empty empty 17 7 0 10 #191919 #fbcd26 #ffffff;
#X obj 449 225 bng 60 250 50 0 empty empty empty 17 7 0 10 #191919 #53af65 #ffffff;
#X obj 520 225 bng 60 250 50 0 empty empty empty 17 7 0 10 #191919 #2d8ce3 #ffffff;
#X obj 591 225 bng 60 250 50 0 empty empty empty 17 7 0 10 #191919 #6a47b9 #ffffff;
#X obj 165 225 bng 60 250 50 0 empty empty empty 17 7 0 10 #191919 #f5a9b8 #ffffff;
#X obj 94 225 bng 60 250 50 0 empty empty empty 17 7 0 10 #191919 #5bcefa #ffffff;
#X obj 804 225 bng 60 250 50 0 empty empty empty 17 7 0 10 #191919 #ed3b4b #ffffff;
#X obj 875 225 bng 60 250 50 0 empty empty empty 17 7 0 10 #191919 #ff6e1d #ffffff;
#X obj 946 225 bng 60 250 50 0 empty empty empty 17 7 0 10 #191919 #fbcd26 #ffffff;
#X obj 1017 225 bng 60 250 50 0 empty empty empty 17 7 0 10 #191919 #53af65 #ffffff;
#X obj 1088 225 bng 60 250 50 0 empty empty empty 17 7 0 10 #191919 #2d8ce3 #ffffff;
#X obj 1160 225 bng 60 250 50 0 empty empty empty 17 7 0 10 #191919 #6a47b9 #ffffff;
#X obj 733 225 bng 60 250 50 0 empty empty empty 17 7 0 10 #191919 #f5a9b8 #ffffff;
#X obj 662 225 bng 60 250 50 0 empty empty empty 17 7 0 10 #191919 #5bcefa #ffffff;
#X obj 244 159 count 15;
#X obj 94 317 tgl 60 0 empty empty empty 17 7 0 10 #191919 #5bcefa #ffffff 0 1;
#X obj 165 317 tgl 60 0 empty empty empty 17 7 0 10 #191919 #f5a9b8 #ffffff 0 1;
#X obj 236 317 tgl 60 0 empty empty empty 17 7 0 10 #191919 #ed3b4b #ffffff 0 1;
#X obj 307 317 tgl 60 0 empty empty empty 17 7 0 10 #191919 #ff6e1d #ffffff 0 1;
#X obj 378 317 tgl 60 0 empty empty empty 17 7 0 10 #191919 #fbcd26 #ffffff 0 1;
#X obj 449 317 tgl 60 0 empty empty empty 17 7 0 10 #191919 #53af65 #ffffff 0 1;
#X obj 520 317 tgl 60 0 empty empty empty 17 7 0 10 #191919 #2d8ce3 #ffffff 0 1;
#X obj 591 317 tgl 60 0 empty empty empty 17 7 0 10 #191919 #6a47b9 #ffffff 0 1;
#X obj 662 317 tgl 60 0 empty empty empty 17 7 0 10 #191919 #5bcefa #ffffff 0 1;
#X obj 733 317 tgl 60 0 empty empty empty 17 7 0 10 #191919 #f5a9b8 #ffffff 0 1;
#X obj 804 317 tgl 60 0 empty empty empty 17 7 0 10 #191919 #ed3b4b #ffffff 0 1;
#X obj 875 317 tgl 60 0 empty empty empty 17 7 0 10 #191919 #ff6e1d #ffffff 0 1;
#X obj 946 317 tgl 60 0 empty empty empty 17 7 0 10 #191919 #fbcd26 #ffffff 0 1;
#X obj 1017 317 tgl 60 0 empty empty empty 17 7 0 10 #191919 #53af65 #ffffff 0 1;
#X obj 1088 317 tgl 60 0 empty empty empty 17 7 0 10 #191919 #2d8ce3 #ffffff 0 1;
#X obj 1160 317 tgl 60 0 empty empty empty 17 7 0 10 #191919 #6a47b9 #ffffff 0 1;
#X obj 94 22 tgl 70 0 empty empty empty 17 7 0 10 #191919 #ffacab #ffffff 0 1;
#X obj 168 74 * 4;
#X obj 94 131 metro 1 480 permin;
#X obj 94 185 router 16 15;
#X obj 283 97 nbx 4 18 1 15 0 0 empty empty empty 0 -8 0 10 #191919 #ffffff #ffffff 0 256;
#X msg 283 127 0 \$1, f 6;
#X msg 140 102 tempo \$1 permin, f 17;
#X obj 168 41 nbx 4 18 -1e+37 1e+37 0 0 empty empty empty 0 -8 0 10 #191919 #ffffff #ffffff 0 256;
#X text 476 402 can i receive a sync/reset trigger for each voice?, f 39;
#N canvas 0 50 450 300 voice 1;
#N canvas 0 50 450 250 (subpatch) 0;
#X text 0 0 plugdatainfo <?xml version="1.0" encoding="UTF-8"?> <plugdatainfo><InfoObj ID="16.C....H..........D....." Updated="0" Segmented="1" Path="32......D..........V....70+++uE....e8+++WE...."/><InfoObj ID="16.C....D..........D....." Updated="0" Segmented="1" Path="32......D..........q.........vJ.........TE...."/><InfoObj ID="16.C...............D....." Updated="0" Segmented="1" Path="32......D..........W....fJ...vE....nB...TE...."/></plugdatainfo>;
#X coords 0 1 100 -1 1 1 1;
#X restore 0 0 graph;
#X obj 32 184 square~;
#X obj 32 245 svfilter~;
#X text 104 114 root note and quantization go here, f 28;
#X obj 32 372 svfilter~;
#X text 82 155 can reset phase and keep oscillators in sync here :), f 41;
#X obj 32 416 throw~ amaranth-out;
#X obj 32 36 inlet;
#X obj 32 115 * 261.63;
#X obj 120 210 nbx 4 18 -1e+37 1e+37 0 1 empty empty empty 0 -8 0 10 #191919 #ffffff #ffffff 688 256;
#X obj 189 210 nbx 4 18 -1e+37 1e+37 0 1 empty empty empty 0 -8 0 10 #191919 #ffffff #ffffff 0.6 256;
#X obj 32 287 clip~ -1 1;
#X obj 32 333 *~ 1;
#X obj 32 75 semi2ratio;
#X connect 1 0 2 0;
#X connect 2 0 11 0;
#X connect 4 0 6 0;
#X connect 7 0 13 0;
#X connect 8 0 1 0;
#X connect 9 0 2 1;
#X connect 9 0 4 1;
#X connect 10 0 2 2;
#X connect 10 0 4 2;
#X connect 11 0 12 0;
#X connect 12 0 4 0;
#X connect 13 0 8 0;
#X restore 94 700 pd voice;
#X text 478 439 i want a separate metro to trigger the sequenc from the one triggering the envelope, f 65;
#X text 476 512 these could be abstractions?, f 24;
#X obj 93 608 nbx 6 30 -24 24 0 1 empty empty empty 0 -8 0 10 #191919 #ffffff #ffffff 0 256;
#X obj 164 608 nbx 6 30 -24 24 0 1 empty empty empty 0 -8 0 10 #191919 #ffffff #ffffff 0 256;
#X obj 235 608 nbx 6 30 -24 24 0 1 empty empty empty 0 -8 0 10 #191919 #ffffff #ffffff 0 256;
#X obj 306 608 nbx 6 30 -24 24 0 1 empty empty empty 0 -8 0 10 #191919 #ffffff #ffffff 0 256;
#X obj 377 608 nbx 6 30 -24 24 0 1 empty empty empty 0 -8 0 10 #191919 #ffffff #ffffff 0 256;
#X obj 448 608 nbx 6 30 -24 24 0 1 empty empty empty 0 -8 0 10 #191919 #ffffff #ffffff 0 256;
#X obj 519 608 nbx 6 30 -24 24 0 1 empty empty empty 0 -8 0 10 #191919 #ffffff #ffffff 0 256;
#X obj 590 608 nbx 6 30 -24 24 0 1 empty empty empty 0 -8 0 10 #191919 #ffffff #ffffff 0 256;
#X obj 661 608 nbx 6 30 -24 24 0 1 empty empty empty 0 -8 0 10 #191919 #ffffff #ffffff 0 256;
#X obj 732 608 nbx 6 30 -24 24 0 1 empty empty empty 0 -8 0 10 #191919 #ffffff #ffffff 0 256;
#X obj 803 608 nbx 6 30 -24 24 0 1 empty empty empty 0 -8 0 10 #191919 #ffffff #ffffff 0 256;
#X obj 874 608 nbx 6 30 -24 24 0 1 empty empty empty 0 -8 0 10 #191919 #ffffff #ffffff 0 256;
#X obj 945 608 nbx 6 30 -24 24 0 1 empty empty empty 0 -8 0 10 #191919 #ffffff #ffffff 0 256;
#X obj 1016 608 nbx 6 30 -24 24 0 1 empty empty empty 0 -8 0 10 #191919 #ffffff #ffffff 0 256;
#X obj 1087 608 nbx 6 30 -24 24 0 1 empty empty empty 0 -8 0 10 #191919 #ffffff #ffffff 0 256;
#X obj 1159 608 nbx 6 30 -24 24 0 1 empty empty empty 0 -8 0 10 #191919 #ffffff #ffffff 0 256;
#X text 330 96 number of active steps (sequence length), f 34;
#X text 218 40 bpm (gets multiplied by 4), f 23;
#X text 477 473 want envelope with function, f 23;
#X connect 34 0 54 1;
#X connect 51 0 53 0;
#X connect 52 0 57 0;
#X connect 53 0 34 0;
#X connect 53 0 54 0;
#X connect 54 0 25 0;
#X connect 54 1 24 0;
#X connect 54 2 18 0;
#X connect 54 3 19 0;
#X connect 54 4 20 0;
#X connect 54 5 21 0;
#X connect 54 6 22 0;
#X connect 54 7 23 0;
#X connect 54 8 33 0;
#X connect 54 9 32 0;
#X connect 54 10 26 0;
#X connect 54 11 27 0;
#X connect 54 12 28 0;
#X connect 54 13 29 0;
#X connect 54 14 30 0;
#X connect 54 15 31 0;
#X connect 55 0 56 0;
#X connect 56 0 34 1;
#X connect 57 0 53 0;
#X connect 58 0 52 0;
