#N canvas 827 239 527 327 12;
#X obj 50 20 nbx 4 20 -36 36 0 1 t-0 t empty 0 -8 0 10 #191919 #ffffff #ffffff 0 256;
#X obj 98 20 nbx 4 20 -36 36 0 1 t-1 t empty 0 -8 0 10 #191919 #ffffff #ffffff 0 256;
#X obj 146 20 nbx 4 20 -36 36 0 1 t-2 t empty 0 -8 0 10 #191919 #ffffff #ffffff 0 256;
#X obj 194 20 nbx 4 20 -36 36 0 1 t-3 t empty 0 -8 0 10 #191919 #ffffff #ffffff 0 256;
#X obj 242 20 nbx 4 20 -36 36 0 1 t-4 t empty 0 -8 0 10 #191919 #ffffff #ffffff 0 256;
#X obj 290 20 nbx 4 20 -36 36 0 1 t-5 t empty 0 -8 0 10 #191919 #ffffff #ffffff 0 256;
#X obj 338 20 nbx 4 20 -36 36 0 1 t-6 t empty 0 -8 0 10 #191919 #ffffff #ffffff 0 256;
#X obj 386 20 nbx 4 20 -36 36 0 1 t-7 t empty 0 -8 0 10 #191919 #ffffff #ffffff 0 256;
#X obj 434 20 nbx 4 20 -36 36 0 1 t-8 t empty 0 -8 0 10 #191919 #ffffff #ffffff 0 256;
#X obj 482 20 nbx 4 20 -36 36 0 1 t-9 t empty 0 -8 0 10 #191919 #ffffff #ffffff 0 256;
#X obj 530 20 nbx 4 20 -36 36 0 1 t-10 t empty 0 -8 0 10 #191919 #ffffff #ffffff 0 256;
#X obj 578 20 nbx 4 20 -36 36 0 1 t-11 t empty 0 -8 0 10 #191919 #ffffff #ffffff 0 256;
#X obj 626 20 nbx 4 20 -36 36 0 1 t-12 t empty 0 -8 0 10 #191919 #ffffff #ffffff 0 256;
#X obj 674 20 nbx 4 20 -36 36 0 1 t-13 t empty 0 -8 0 10 #191919 #ffffff #ffffff 0 256;
#X obj 722 20 nbx 4 20 -36 36 0 1 t-14 t empty 0 -8 0 10 #191919 #ffffff #ffffff 0 256;
#X obj 770 20 nbx 4 20 -36 36 0 1 t-15 t empty 0 -8 0 10 #191919 #ffffff #ffffff 0 256;
#X obj 50 50 nbx 4 20 -24 24 0 1 x-0 x empty 0 -8 0 10 #191919 #ffffff #ffffff 0 256;
#X obj 98 50 nbx 4 20 -24 24 0 1 x-1 x empty 0 -8 0 10 #191919 #ffffff #ffffff 0 256;
#X obj 146 50 nbx 4 20 -24 24 0 1 x-2 x empty 0 -8 0 10 #191919 #ffffff #ffffff 0 256;
#X obj 194 50 nbx 4 20 -24 24 0 1 x-3 x empty 0 -8 0 10 #191919 #ffffff #ffffff 0 256;
#X obj 242 50 nbx 4 20 -24 24 0 1 x-4 x empty 0 -8 0 10 #191919 #ffffff #ffffff 0 256;
#X obj 290 50 nbx 4 20 -24 24 0 1 x-5 x empty 0 -8 0 10 #191919 #ffffff #ffffff 0 256;
#X obj 338 50 nbx 4 20 -24 24 0 1 x-6 x empty 0 -8 0 10 #191919 #ffffff #ffffff 0 256;
#X obj 386 50 nbx 4 20 -24 24 0 1 x-7 x empty 0 -8 0 10 #191919 #ffffff #ffffff 0 256;
#X obj 434 50 nbx 4 20 -24 24 0 1 x-8 x empty 0 -8 0 10 #191919 #ffffff #ffffff 0 256;
#X obj 482 50 nbx 4 20 -24 24 0 1 x-9 x empty 0 -8 0 10 #191919 #ffffff #ffffff 0 256;
#X obj 530 50 nbx 4 20 -24 24 0 1 x-10 x empty 0 -8 0 10 #191919 #ffffff #ffffff 0 256;
#X obj 578 50 nbx 4 20 -24 24 0 1 x-11 x empty 0 -8 0 10 #191919 #ffffff #ffffff 0 256;
#X obj 626 50 nbx 4 20 -24 24 0 1 x-12 x empty 0 -8 0 10 #191919 #ffffff #ffffff 0 256;
#X obj 674 50 nbx 4 20 -24 24 0 1 x-13 x empty 0 -8 0 10 #191919 #ffffff #ffffff 0 256;
#X obj 722 50 nbx 4 20 -24 24 0 1 x-14 x empty 0 -8 0 10 #191919 #ffffff #ffffff 0 256;
#X obj 770 50 nbx 4 20 -24 24 0 1 x-15 x empty 0 -8 0 10 #191919 #ffffff #ffffff 0 256;
#X obj 50 80 nbx 4 20 -24 24 0 1 y-0 y empty 0 -8 0 10 #191919 #ffffff #ffffff 0 256;
#X obj 98 80 nbx 4 20 -24 24 0 1 y-1 y empty 0 -8 0 10 #191919 #ffffff #ffffff 0 256;
#X obj 146 80 nbx 4 20 -24 24 0 1 y-2 y empty 0 -8 0 10 #191919 #ffffff #ffffff 0 256;
#X obj 194 80 nbx 4 20 -24 24 0 1 y-3 y empty 0 -8 0 10 #191919 #ffffff #ffffff 0 256;
#X obj 242 80 nbx 4 20 -24 24 0 1 y-4 y empty 0 -8 0 10 #191919 #ffffff #ffffff 0 256;
#X obj 290 80 nbx 4 20 -24 24 0 1 y-5 y empty 0 -8 0 10 #191919 #ffffff #ffffff 0 256;
#X obj 338 80 nbx 4 20 -24 24 0 1 y-6 y empty 0 -8 0 10 #191919 #ffffff #ffffff 0 256;
#X obj 386 80 nbx 4 20 -24 24 0 1 y-7 y empty 0 -8 0 10 #191919 #ffffff #ffffff 0 256;
#X obj 434 80 nbx 4 20 -24 24 0 1 y-8 y empty 0 -8 0 10 #191919 #ffffff #ffffff 0 256;
#X obj 482 80 nbx 4 20 -24 24 0 1 y-9 y empty 0 -8 0 10 #191919 #ffffff #ffffff 0 256;
#X obj 530 80 nbx 4 20 -24 24 0 1 y-10 y empty 0 -8 0 10 #191919 #ffffff #ffffff 0 256;
#X obj 578 80 nbx 4 20 -24 24 0 1 y-11 y empty 0 -8 0 10 #191919 #ffffff #ffffff 0 256;
#X obj 626 80 nbx 4 20 -24 24 0 1 y-12 y empty 0 -8 0 10 #191919 #ffffff #ffffff 0 256;
#X obj 674 80 nbx 4 20 -24 24 0 1 y-13 y empty 0 -8 0 10 #191919 #ffffff #ffffff 0 256;
#X obj 722 80 nbx 4 20 -24 24 0 1 y-14 y empty 0 -8 0 10 #191919 #ffffff #ffffff 0 256;
#X obj 770 80 nbx 4 20 -24 24 0 1 y-15 y empty 0 -8 0 10 #191919 #ffffff #ffffff 0 256;
#X obj 50 110 nbx 4 20 -24 24 0 1 z-0 z empty 0 -8 0 10 #191919 #ffffff #ffffff 0 256;
#X obj 98 110 nbx 4 20 -24 24 0 1 z-1 z empty 0 -8 0 10 #191919 #ffffff #ffffff 0 256;
#X obj 146 110 nbx 4 20 -24 24 0 1 z-2 z empty 0 -8 0 10 #191919 #ffffff #ffffff 0 256;
#X obj 194 110 nbx 4 20 -24 24 0 1 z-3 z empty 0 -8 0 10 #191919 #ffffff #ffffff 0 256;
#X obj 242 110 nbx 4 20 -24 24 0 1 z-4 z empty 0 -8 0 10 #191919 #ffffff #ffffff 0 256;
#X obj 290 110 nbx 4 20 -24 24 0 1 z-5 z empty 0 -8 0 10 #191919 #ffffff #ffffff 0 256;
#X obj 338 110 nbx 4 20 -24 24 0 1 z-6 z empty 0 -8 0 10 #191919 #ffffff #ffffff 0 256;
#X obj 386 110 nbx 4 20 -24 24 0 1 z-7 z empty 0 -8 0 10 #191919 #ffffff #ffffff 0 256;
#X obj 434 110 nbx 4 20 -24 24 0 1 z-8 z empty 0 -8 0 10 #191919 #ffffff #ffffff 0 256;
#X obj 482 110 nbx 4 20 -24 24 0 1 z-9 z empty 0 -8 0 10 #191919 #ffffff #ffffff 0 256;
#X obj 530 110 nbx 4 20 -24 24 0 1 z-10 z empty 0 -8 0 10 #191919 #ffffff #ffffff 0 256;
#X obj 578 110 nbx 4 20 -24 24 0 1 z-11 z empty 0 -8 0 10 #191919 #ffffff #ffffff 0 256;
#X obj 626 110 nbx 4 20 -24 24 0 1 z-12 z empty 0 -8 0 10 #191919 #ffffff #ffffff 0 256;
#X obj 674 110 nbx 4 20 -24 24 0 1 z-13 z empty 0 -8 0 10 #191919 #ffffff #ffffff 0 256;
#X obj 722 110 nbx 4 20 -24 24 0 1 z-14 z empty 0 -8 0 10 #191919 #ffffff #ffffff 0 256;
#X obj 770 110 nbx 4 20 -24 24 0 1 z-15 z empty 0 -8 0 10 #191919 #ffffff #ffffff 0 256;
#X text 20 19 t, f 2;
#X text 20 49 x, f 2;
#X text 20 79 y, f 2;
#X text 20 109 z, f 2;
#X obj 830 50 nbx 4 20 0 128 0 1 x-mult x mult 0 -4 0 10 #191919 #ffffff #ffffff 0 256;
#X obj 830 80 nbx 4 20 0 128 0 1 y-mult y mult 0 -4 0 10 #191919 #ffffff #ffffff 0 256;
#X obj 830 110 nbx 4 20 0 128 0 1 z-mult z mult 0 -4 0 10 #191919 #ffffff #ffffff 0 256;
#N canvas 0 50 450 300 main-seq 1;
#X obj 59 56 calc-node 0;
#X obj 59 82 calc-node 1;
#X obj 59 107 calc-node 2;
#X obj 59 132 calc-node 3;
#X obj 59 156 calc-node 4;
#X obj 59 182 calc-node 5;
#X obj 59 208 calc-node 6;
#X obj 59 232 calc-node 7;
#X obj 152 56 calc-node 8;
#X obj 152 82 calc-node 9;
#X obj 152 107 calc-node 10;
#X obj 152 132 calc-node 11;
#X obj 152 156 calc-node 12;
#X obj 152 182 calc-node 13;
#X obj 152 208 calc-node 14;
#X obj 152 232 calc-node 15;
#X obj 59 352 hearts;
#X text 59 276 you're not supposed to fuck with this! leave it! it just calculates the transposition and multiplier for every step of the shared sequence (received into every voice's bottom row of float boxes), f 57;
#X restore 50 150 pd main-seq;
#X msg 783 180 0, f 5;
#X obj 830 180 nbx 4 20 -1e+37 1e+37 0 0 empty empty empty 0 -8 0 10 #191919 #ffffff #ffffff 0 256;
#X obj 513 500 dac~;
#X obj 30 470 thanks;
#X obj 830 221 s t;
#X msg 783 250 0, f 5;
#X obj 830 250 nbx 4 20 -1e+37 1e+37 0 0 empty empty empty 0 -8 0 10 #191919 #ffffff #ffffff 0 256;
#X obj 830 291 s x;
#X msg 783 320 0, f 5;
#X obj 830 320 nbx 4 20 -1e+37 1e+37 0 0 empty empty empty 0 -8 0 10 #191919 #ffffff #ffffff 0 256;
#X msg 783 390 0, f 5;
#X obj 830 390 nbx 4 20 -1e+37 1e+37 0 0 empty empty empty 0 -8 0 10 #191919 #ffffff #ffffff 0 256;
#X obj 830 361 s y;
#X obj 830 431 s z;
#X obj 30 500 support;
#X text 766 499 drink some water!, f 16;
#N canvas 0 50 450 300 sequence-a 1;
#X obj 26 392 nbx 4 20 -1000 1000 0 1 empty m-0 empty 0 -8 0 10 #191919 #ffffff #ffffff 0 256;
#X obj 76 393 nbx 4 20 -1000 1000 0 1 empty m-1 empty 0 -8 0 10 #191919 #ffffff #ffffff 0 256;
#X obj 126 393 nbx 4 20 -1000 1000 0 1 empty m-2 empty 0 -8 0 10 #191919 #ffffff #ffffff 0 256;
#X obj 176 393 nbx 4 20 -1000 1000 0 1 empty m-3 empty 0 -8 0 10 #191919 #ffffff #ffffff 0 256;
#X obj 226 393 nbx 4 20 -1000 1000 0 1 empty m-4 empty 0 -8 0 10 #191919 #ffffff #ffffff 0 256;
#X obj 276 393 nbx 4 20 -1000 1000 0 1 empty m-5 empty 0 -8 0 10 #191919 #ffffff #ffffff 0 256;
#X obj 326 393 nbx 4 20 -1000 1000 0 1 empty m-6 empty 0 -8 0 10 #191919 #ffffff #ffffff 0 256;
#X obj 376 393 nbx 4 20 -1000 1000 0 1 empty m-7 empty 0 -8 0 10 #191919 #ffffff #ffffff 0 256;
#X obj 426 393 nbx 4 20 -1000 1000 0 1 empty m-8 empty 0 -8 0 10 #191919 #ffffff #ffffff 0 256;
#X obj 476 393 nbx 4 20 -1000 1000 0 1 empty m-9 empty 0 -8 0 10 #191919 #ffffff #ffffff 0 256;
#X obj 526 393 nbx 4 20 -1000 1000 0 1 empty m-10 empty 0 -8 0 10 #191919 #ffffff #ffffff 0 256;
#X obj 576 393 nbx 4 20 -1000 1000 0 1 empty m-11 empty 0 -8 0 10 #191919 #ffffff #ffffff 0 256;
#X obj 626 392 nbx 4 20 -1000 1000 0 1 empty m-12 empty 0 -8 0 10 #191919 #ffffff #ffffff 0 256;
#X obj 676 393 nbx 4 20 -1000 1000 0 1 empty m-13 empty 0 -8 0 10 #191919 #ffffff #ffffff 0 256;
#X obj 726 393 nbx 4 20 -1000 1000 0 1 empty m-14 empty 0 -8 0 10 #191919 #ffffff #ffffff 0 256;
#X obj 776 393 nbx 4 20 -1000 1000 0 1 empty m-15 empty 0 -8 0 10 #191919 #ffffff #ffffff 0 256;
#X obj 827 339 nbx 4 20 0 128 0 1 empty empty mult 25 26 0 10 #191919 #ffacab #ffffff 1 256;
#X obj 115 130 bng 50 250 50 0 empty empty empty 17 7 0 10 #191919 #ed3b4b #ffffff;
#X obj 165 130 bng 50 250 50 0 empty empty empty 17 7 0 10 #191919 #ff6e1d #ffffff;
#X obj 215 130 bng 50 250 50 0 empty empty empty 17 7 0 10 #191919 #fbcd26 #ffffff;
#X obj 265 130 bng 50 250 50 0 empty empty empty 17 7 0 10 #191919 #53af65 #ffffff;
#X obj 315 130 bng 50 250 50 0 empty empty empty 17 7 0 10 #191919 #2d8ce3 #ffffff;
#X obj 365 130 bng 50 250 50 0 empty empty empty 17 7 0 10 #191919 #6a47b9 #ffffff;
#X obj 65 130 bng 50 250 50 0 empty empty empty 17 7 0 10 #191919 #f5a9b8 #ffffff;
#X obj 15 130 bng 50 250 50 0 empty empty empty 17 7 0 10 #191919 #5bcefa #ffffff;
#X obj 515 130 bng 50 250 50 0 empty empty empty 17 7 0 10 #191919 #ed3b4b #ffffff;
#X obj 565 130 bng 50 250 50 0 empty empty empty 17 7 0 10 #191919 #ff6e1d #ffffff;
#X obj 615 130 bng 50 250 50 0 empty empty empty 17 7 0 10 #191919 #fbcd26 #ffffff;
#X obj 665 130 bng 50 250 50 0 empty empty empty 17 7 0 10 #191919 #53af65 #ffffff;
#X obj 715 130 bng 50 250 50 0 empty empty empty 17 7 0 10 #191919 #2d8ce3 #ffffff;
#X obj 765 130 bng 50 250 50 0 empty empty empty 17 7 0 10 #191919 #6a47b9 #ffffff;
#X obj 465 130 bng 50 250 50 0 empty empty empty 17 7 0 10 #191919 #f5a9b8 #ffffff;
#X obj 415 130 bng 50 250 50 0 empty empty empty 17 7 0 10 #191919 #5bcefa #ffffff;
#X obj 27 186 tgl 50 1 empty empty empty 17 7 0 10 #191919 #5bcefa #ffffff 0 1;
#X obj 77 186 tgl 50 1 empty empty empty 17 7 0 10 #191919 #f5a9b8 #ffffff 0 1;
#X obj 127 186 tgl 50 1 empty empty empty 17 7 0 10 #191919 #ed3b4b #ffffff 0 1;
#X obj 177 186 tgl 50 1 empty empty empty 17 7 0 10 #191919 #ff6e1d #ffffff 0 1;
#X obj 227 186 tgl 50 1 empty empty empty 17 7 0 10 #191919 #fbcd26 #ffffff 0 1;
#X obj 277 186 tgl 50 1 empty empty empty 17 7 0 10 #191919 #53af65 #ffffff 0 1;
#X obj 327 186 tgl 50 1 empty empty empty 17 7 0 10 #191919 #2d8ce3 #ffffff 0 1;
#X obj 377 186 tgl 50 1 empty empty empty 17 7 0 10 #191919 #6a47b9 #ffffff 0 1;
#X obj 427 186 tgl 50 1 empty empty empty 17 7 0 10 #191919 #5bcefa #ffffff 0 1;
#X obj 477 186 tgl 50 1 empty empty empty 17 7 0 10 #191919 #f5a9b8 #ffffff 0 1;
#X obj 527 186 tgl 50 1 empty empty empty 17 7 0 10 #191919 #ed3b4b #ffffff 0 1;
#X obj 577 186 tgl 50 1 empty empty empty 17 7 0 10 #191919 #ff6e1d #ffffff 0 1;
#X obj 627 186 tgl 50 1 empty empty empty 17 7 0 10 #191919 #fbcd26 #ffffff 0 1;
#X obj 677 186 tgl 50 1 empty empty empty 17 7 0 10 #191919 #53af65 #ffffff 0 1;
#X obj 727 186 tgl 50 1 empty empty empty 17 7 0 10 #191919 #2d8ce3 #ffffff 0 1;
#X obj 777 186 tgl 50 1 empty empty empty 17 7 0 10 #191919 #6a47b9 #ffffff 0 1;
#X obj 26 339 nbx 4 20 -24 24 0 1 empty empty empty 0 -8 0 10 #191919 #ffffff #ffffff 0 256;
#X obj 76 340 nbx 4 20 -24 24 0 1 empty empty empty 0 -8 0 10 #191919 #ffffff #ffffff 0 256;
#X obj 126 340 nbx 4 20 -24 24 0 1 empty empty empty 0 -8 0 10 #191919 #ffffff #ffffff 0 256;
#X obj 176 340 nbx 4 20 -24 24 0 1 empty empty empty 0 -8 0 10 #191919 #ffffff #ffffff 0 256;
#X obj 226 340 nbx 4 20 -24 24 0 1 empty empty empty 0 -8 0 10 #191919 #ffffff #ffffff 0 256;
#X obj 276 340 nbx 4 20 -24 24 0 1 empty empty empty 0 -8 0 10 #191919 #ffffff #ffffff 0 256;
#X obj 326 340 nbx 4 20 -24 24 0 1 empty empty empty 0 -8 0 10 #191919 #ffffff #ffffff 0 256;
#X obj 376 340 nbx 4 20 -24 24 0 1 empty empty empty 0 -8 0 10 #191919 #ffffff #ffffff 0 256;
#X obj 426 340 nbx 4 20 -24 24 0 1 empty empty empty 0 -8 0 10 #191919 #ffffff #ffffff 0 256;
#X obj 476 340 nbx 4 20 -24 24 0 1 empty empty empty 0 -8 0 10 #191919 #ffffff #ffffff 0 256;
#X obj 526 340 nbx 4 20 -24 24 0 1 empty empty empty 0 -8 0 10 #191919 #ffffff #ffffff 0 256;
#X obj 576 340 nbx 4 20 -24 24 0 1 empty empty empty 0 -8 0 10 #191919 #ffffff #ffffff 0 256;
#X obj 626 339 nbx 4 20 -24 24 0 1 empty empty empty 0 -8 0 10 #191919 #ffffff #ffffff 0 256;
#X obj 676 340 nbx 4 20 -24 24 0 1 empty empty empty 0 -8 0 10 #191919 #ffffff #ffffff 0 256;
#X obj 726 340 nbx 4 20 -24 24 0 1 empty empty empty 0 -8 0 10 #191919 #ffffff #ffffff 0 256;
#X obj 776 340 nbx 4 20 -24 24 0 1 empty empty empty 0 -8 0 10 #191919 #ffffff #ffffff 0 256;
#X obj 15 369 *;
#X obj 65 369 *;
#X obj 115 369 *;
#X obj 165 369 *;
#X obj 215 369 *;
#X obj 265 369 *;
#X obj 315 369 *;
#X obj 365 369 *;
#X obj 415 369 *;
#X obj 465 369 *;
#X obj 515 369 *;
#X obj 565 369 *;
#X obj 615 369 *;
#X obj 665 369 *;
#X obj 715 369 *;
#X obj 765 369 *;
#X obj 15 419 +;
#X obj 65 419 +;
#X obj 115 419 +;
#X obj 165 419 +;
#X obj 215 419 +;
#X obj 265 419 +;
#X obj 315 419 +;
#X obj 365 419 +;
#X obj 415 419 +;
#X obj 465 419 +;
#X obj 515 419 +;
#X obj 565 419 +;
#X obj 615 419 +;
#X obj 665 419 +;
#X obj 715 419 +;
#X obj 765 419 +;
#X obj 627 13 function 200 100 empty env 0 1 25 25 25 255 255 255 1 0 0 0 0 3.68189 0.925532 20.6186 0.319149 36.0825 0.12766 82.4742 0;
#X obj 452 6 inlet;
#X obj 491 6 inlet;
#X obj 530 6 inlet;
#X obj 796 618 outlet;
#X obj 850 618 outlet;
#X obj 904 618 outlet;
#X obj 958 618 outlet;
#X obj 115 277 bng 50 250 50 0 empty empty empty 17 7 0 10 #191919 #ed3b4b #ffffff;
#X obj 165 277 bng 50 250 50 0 empty empty empty 17 7 0 10 #191919 #ff6e1d #ffffff;
#X obj 215 277 bng 50 250 50 0 empty empty empty 17 7 0 10 #191919 #fbcd26 #ffffff;
#X obj 265 277 bng 50 250 50 0 empty empty empty 17 7 0 10 #191919 #53af65 #ffffff;
#X obj 315 277 bng 50 250 50 0 empty empty empty 17 7 0 10 #191919 #2d8ce3 #ffffff;
#X obj 365 277 bng 50 250 50 0 empty empty empty 17 7 0 10 #191919 #6a47b9 #ffffff;
#X obj 65 277 bng 50 250 50 0 empty empty empty 17 7 0 10 #191919 #f5a9b8 #ffffff;
#X obj 15 277 bng 50 250 50 0 empty empty empty 17 7 0 10 #191919 #5bcefa #ffffff;
#X obj 515 277 bng 50 250 50 0 empty empty empty 17 7 0 10 #191919 #ed3b4b #ffffff;
#X obj 565 277 bng 50 250 50 0 empty empty empty 17 7 0 10 #191919 #ff6e1d #ffffff;
#X obj 615 277 bng 50 250 50 0 empty empty empty 17 7 0 10 #191919 #fbcd26 #ffffff;
#X obj 665 277 bng 50 250 50 0 empty empty empty 17 7 0 10 #191919 #53af65 #ffffff;
#X obj 715 277 bng 50 250 50 0 empty empty empty 17 7 0 10 #191919 #2d8ce3 #ffffff;
#X obj 765 277 bng 50 250 50 0 empty empty empty 17 7 0 10 #191919 #6a47b9 #ffffff;
#X obj 465 277 bng 50 250 50 0 empty empty empty 17 7 0 10 #191919 #f5a9b8 #ffffff;
#X obj 415 277 bng 50 250 50 0 empty empty empty 17 7 0 10 #191919 #5bcefa #ffffff;
#X obj 15 244 router, f 7;
#X obj 65 244 router;
#X obj 115 244 router;
#X obj 165 244 router;
#X obj 215 244 router;
#X obj 265 244 router;
#X obj 315 244 router;
#X obj 365 244 router;
#X obj 415 244 router;
#X obj 465 244 router;
#X obj 515 244 router;
#X obj 565 244 router;
#X obj 615 244 router;
#X obj 665 244 router;
#X obj 715 244 router;
#X obj 765 244 router;
#X obj 732 618 outlet~;
#X obj 569 6 inlet;
#X obj 589 530 nbx 6 20 0 20000 0 1 empty empty empty 0 -4 0 10 #191919 #ffffff #ffffff 1791.92 256;
#X obj 656 530 nbx 4 20 0 1 0 1 empty empty Q 45 10 0 12 #191919 #ffffff #ffffff 0.42 256;
#X obj 755 530 nbx 6 20 0 20000 0 1 empty empty empty 0 -4 0 10 #191919 #ffffff #ffffff 1791.92 256;
#X obj 822 530 nbx 4 20 0 1 0 1 empty empty Q 45 10 0 12 #191919 #ffffff #ffffff 0.42 256;
#X obj 577 452 nbx 4 20 0 32 0 1 empty empty empty 0 -4 0 10 #191919 #ffffff #ffffff 0.1 256;
#X obj 580 586 nbx 4 20 -1 0 0 1 empty empty empty 0 -4 0 10 #191919 #ffffff #ffffff -0.5 256;
#X obj 630 586 nbx 4 20 0 1 0 1 empty empty empty 0 -4 0 10 #191919 #ffffff #ffffff 0.5 256;
#X obj 743 452 nbx 4 20 0 32 0 1 empty empty empty 0 -4 0 10 #191919 #ffffff #ffffff 0.1 256;
#X obj 566 558 svfilter~;
#X obj 732 558 svfilter~;
#X obj 877 338 envgen~, f 9;
#X obj 566 481 *~;
#X obj 732 591 *~;
#X obj 732 481 *~;
#X obj 15 452 * 1;
#X obj 44 537 nbx 4 18 0 256 0 1 empty empty max -38 9 0 12 #191919 #ffffff #ffffff 36 256;
#X obj 256 557 autotune2;
#X obj 304 532 op * 100;
#X obj 466 558 cents2ratio;
#X obj 15 614 * 100;
#X msg 322 479 0 2 3 5 7 8 10;
#X msg 336 504 0 2 4 5 7 9 11;
#X obj 235 464 tgl 50 1 empty empty quantize 0 -9 0 12 #191919 #ffacab #ffffff 0 1;
#X obj 232 530 router;
#X obj 79 571 fold;
#X obj 15 571 wrap2;
#X obj 147 571 clip;
#X obj 29 513 nbx 4 18 -256 0 0 1 empty empty min -21 9 0 12 #191919 #ffffff #ffffff 0 256;
#X obj 108 537 nbx 4 18 0 256 0 1 empty empty empty 0 -8 0 10 #191919 #ffffff #ffffff 36 256;
#X obj 93 513 nbx 4 18 -256 0 0 1 empty empty empty 0 -8 0 10 #191919 #ffffff #ffffff 0 256;
#X obj 176 537 nbx 4 18 0 256 0 1 empty empty empty 0 -8 0 10 #191919 #ffffff #ffffff 36 256;
#X obj 161 513 nbx 4 18 -256 0 0 1 empty empty empty 0 -8 0 10 #191919 #ffffff #ffffff 0 256;
#X obj 15 482 router 3;
#X obj 91 472 hradio 20 1 1 3 empty empty limit\ mode 0 -8 0 10 #191919 #ffffff #ffffff 0;
#X obj 466 586 * 261.626, f 10;
#X obj 277 587 nbx 3 18 0 12 0 1 empty empty root 50 9 0 14 #191919 #ffffff #ffffff 0 256;
#X obj 232 613 +;
#X obj 277 610 * 100;
#X obj 338 614 +;
#X obj 382 587 nbx 3 18 -8 8 0 1 empty empty oct 50 9 0 14 #191919 #ffffff #ffffff 0 256;
#X obj 382 610 * 1200, f 7;
#X text 433 503 major, f 7;
#X msg 304 454 0 1 2 3 4 5 6 7 8 9 10 11, f 21;
#X msg 535 87 duration \$1;
#X obj 535 62 * 1000;
#X obj 492 87 /;
#X obj 491 37 t b f;
#X msg 479 62 60;
#X obj 535 37 nbx 4 18 0.001 16 0 0 empty empty empty 0 -8 0 10 #191919 #ffffff #ffffff 0 256;
#X msg 877 288 retrigger \$1;
#X obj 877 261 nbx 4 18 -1e+37 1e+37 0 0 empty empty empty 0 -8 0 10 #191919 #ffffff #ffffff 0 256;
#X obj 566 615 clip~;
#X obj 589 508 hsl 100 20 0.01 22000 1 1 empty empty cutoff 64 10 0 14 #191919 #ffffff #ffffff 8229 1;
#X obj 755 508 hsl 100 20 0.01 22000 1 1 empty empty cutoff 64 10 0 14 #191919 #ffffff #ffffff 8229 1;
#X obj 403 6 inlet~;
#X obj 877 197 switch~;
#X obj 877 160 tgl 25 1 empty empty DSP 0 -7 0 12 #191919 #ff0000 #ffffff 1 1;
#X text 419 478 n. minor, f 9;
#X text 454 453 chromatic;
#X obj 466 614 bl.square~, f 11;
#X obj 15 8 tgl 50 1 empty empty empty 17 7 0 10 #191919 #ffacab #ffffff 0 1;
#X obj 71 13 * 4;
#X obj 195 13 nbx 4 18 0 15 0 1 empty empty empty 0 -6 0 12 #191919 #ffacab #ffffff 0 256;
#X msg 71 39 tempo \$1 permin, f 16;
#X obj 113 13 nbx 4 18 -8000 8000 0 1 empty empty bpm 0 -6 0 12 #191919 #ffacab #ffffff 105 256;
#X obj 15 70 metro 1, f 8;
#X obj 15 100 select 0 1 2 3 4 5 6 7 8 9 10 11 12 13 14 15, f 43;
#X obj 195 70 count;
#X msg 255 70 up, f 4;
#X msg 294 70 down;
#X msg 348 70 alt \$1;
#X obj 348 39 tgl 25 1 empty empty empty 0 -7 0 12 #191919 #ffacab #ffffff 0 1;
#X obj 260 13 nbx 4 18 0 15 0 1 empty empty empty 0 -6 0 12 #191919 #ffacab #ffffff 15 256;
#X msg 260 39 max \$1, f 8;
#X msg 195 39 min \$1, f 8;
#X connect 0 0 81 1 empty;
#X connect 1 0 82 1 empty;
#X connect 2 0 83 1 empty;
#X connect 3 0 84 1 empty;
#X connect 4 0 85 1 empty;
#X connect 5 0 86 1 empty;
#X connect 6 0 87 1 empty;
#X connect 7 0 88 1 empty;
#X connect 8 0 89 1 empty;
#X connect 9 0 90 1 empty;
#X connect 10 0 91 1 empty;
#X connect 11 0 92 1 empty;
#X connect 12 0 93 1 empty;
#X connect 13 0 94 1 empty;
#X connect 14 0 95 1 empty;
#X connect 15 0 96 1 empty;
#X connect 16 0 80 0 empty;
#X connect 16 0 79 0 empty;
#X connect 16 0 78 0 empty;
#X connect 16 0 77 0 empty;
#X connect 16 0 76 0 empty;
#X connect 16 0 75 0 empty;
#X connect 16 0 74 0 empty;
#X connect 16 0 73 0 empty;
#X connect 16 0 72 0 empty;
#X connect 16 0 71 0 empty;
#X connect 16 0 70 0 empty;
#X connect 16 0 69 0 empty;
#X connect 16 0 68 0 empty;
#X connect 16 0 67 0 empty;
#X connect 16 0 66 0 empty;
#X connect 16 0 65 0 empty;
#X connect 17 0 123 0 empty;
#X connect 18 0 124 0 empty;
#X connect 19 0 125 0 empty;
#X connect 20 0 126 0 empty;
#X connect 21 0 127 0 empty;
#X connect 22 0 128 0 empty;
#X connect 23 0 122 0 empty;
#X connect 24 0 121 0 empty;
#X connect 25 0 131 0 empty;
#X connect 26 0 132 0 empty;
#X connect 27 0 133 0 empty;
#X connect 28 0 134 0 empty;
#X connect 29 0 135 0 empty;
#X connect 30 0 136 0 empty;
#X connect 31 0 130 0 empty;
#X connect 32 0 129 0 empty;
#X connect 33 0 121 1 empty;
#X connect 34 0 122 1 empty;
#X connect 35 0 123 1 empty;
#X connect 36 0 124 1 empty;
#X connect 37 0 125 1 empty;
#X connect 38 0 126 1 empty;
#X connect 39 0 127 1 empty;
#X connect 40 0 128 1 empty;
#X connect 41 0 129 1 empty;
#X connect 42 0 130 1 empty;
#X connect 43 0 131 1 empty;
#X connect 44 0 132 1 empty;
#X connect 45 0 133 1 empty;
#X connect 46 0 134 1 empty;
#X connect 47 0 135 1 empty;
#X connect 48 0 136 1 empty;
#X connect 49 0 65 1 empty;
#X connect 50 0 66 1 empty;
#X connect 51 0 67 1 empty;
#X connect 52 0 68 1 empty;
#X connect 53 0 69 1 empty;
#X connect 54 0 70 1 empty;
#X connect 55 0 71 1 empty;
#X connect 56 0 72 1 empty;
#X connect 57 0 73 1 empty;
#X connect 58 0 74 1 empty;
#X connect 59 0 75 1 empty;
#X connect 60 0 76 1 empty;
#X connect 61 0 77 1 empty;
#X connect 62 0 78 1 empty;
#X connect 63 0 79 1 empty;
#X connect 64 0 80 1 empty;
#X connect 65 0 81 0 empty;
#X connect 66 0 82 0 empty;
#X connect 67 0 83 0 empty;
#X connect 68 0 84 0 empty;
#X connect 69 0 85 0 empty;
#X connect 70 0 86 0 empty;
#X connect 71 0 87 0 empty;
#X connect 72 0 88 0 empty;
#X connect 73 0 89 0 empty;
#X connect 74 0 90 0 empty;
#X connect 75 0 91 0 empty;
#X connect 76 0 92 0 empty;
#X connect 77 0 93 0 empty;
#X connect 78 0 94 0 empty;
#X connect 79 0 95 0 empty;
#X connect 80 0 96 0 empty;
#X connect 81 0 153 0 empty;
#X connect 82 0 153 0 empty;
#X connect 83 0 153 0 empty;
#X connect 84 0 153 0 empty;
#X connect 85 0 153 0 empty;
#X connect 86 0 153 0 empty;
#X connect 87 0 153 0 empty;
#X connect 88 0 153 0 empty;
#X connect 89 0 153 0 empty;
#X connect 90 0 153 0 empty;
#X connect 91 0 153 0 empty;
#X connect 92 0 153 0 empty;
#X connect 93 0 153 0 empty;
#X connect 94 0 153 0 empty;
#X connect 95 0 153 0 empty;
#X connect 96 0 153 0 empty;
#X connect 97 0 149 1 48.................D....LL....A....CC....M...fHA...PC...HR...f3....;
#X connect 105 0 67 0 empty;
#X connect 105 0 149 0 empty;
#X connect 106 0 68 0 empty;
#X connect 106 0 149 0 empty;
#X connect 107 0 69 0 empty;
#X connect 107 0 149 0 empty;
#X connect 108 0 70 0 empty;
#X connect 108 0 149 0 empty;
#X connect 109 0 71 0 empty;
#X connect 109 0 149 0 empty;
#X connect 110 0 72 0 empty;
#X connect 110 0 149 0 empty;
#X connect 111 0 66 0 empty;
#X connect 111 0 149 0 empty;
#X connect 112 0 65 0 empty;
#X connect 112 0 149 0 empty;
#X connect 113 0 75 0 empty;
#X connect 113 0 149 0 empty;
#X connect 114 0 76 0 empty;
#X connect 114 0 149 0 empty;
#X connect 115 0 77 0 empty;
#X connect 115 0 149 0 empty;
#X connect 116 0 78 0 empty;
#X connect 116 0 149 0 empty;
#X connect 117 0 79 0 empty;
#X connect 117 0 149 0 empty;
#X connect 118 0 80 0 empty;
#X connect 118 0 149 0 empty;
#X connect 119 0 74 0 empty;
#X connect 119 0 149 0 empty;
#X connect 120 0 73 0 empty;
#X connect 120 0 149 0 empty;
#X connect 121 1 112 0 empty;
#X connect 122 1 111 0 empty;
#X connect 123 1 105 0 empty;
#X connect 124 1 106 0 empty;
#X connect 125 1 107 0 empty;
#X connect 126 1 108 0 empty;
#X connect 127 1 109 0 empty;
#X connect 128 1 110 0 empty;
#X connect 129 1 120 0 empty;
#X connect 130 1 119 0 empty;
#X connect 131 1 113 0 empty;
#X connect 132 1 114 0 empty;
#X connect 133 1 115 0 empty;
#X connect 134 1 116 0 empty;
#X connect 135 1 117 0 empty;
#X connect 136 1 118 0 empty;
#X connect 139 0 147 1 empty;
#X connect 140 0 147 2 32.................D....X8+++OA....V++++i.....;
#X connect 141 0 148 1 empty;
#X connect 142 0 148 2 32.................D....X8+++OA....V++++i.....;
#X connect 143 0 150 1 empty;
#X connect 144 0 190 1 empty;
#X connect 145 0 190 2 32.................E....38+++eA....d++++m.....;
#X connect 146 0 152 1 empty;
#X connect 147 0 190 0 32.................S....rD...vD....KA...3A....;
#X connect 148 0 151 0 empty;
#X connect 149 0 151 1 32.................jC...r2+++O4....68+++mN....;
#X connect 150 0 147 0 empty;
#X connect 151 0 137 0 empty;
#X connect 152 0 148 0 empty;
#X connect 153 0 171 0 empty;
#X connect 154 0 164 2 empty;
#X connect 155 0 175 0 32.................S....f9++++D....n++++aB....;
#X connect 156 0 155 1 empty;
#X connect 157 0 173 0 empty;
#X connect 158 0 162 0 64.................I....DE...PB....QA...j....Px....I....jL...vj++++YC...L4+++e1....Y9+++C;
#X connect 159 0 156 0 32.................G....79++++A....u++++GB....;
#X connect 160 0 156 0 32.................D....b8+++OA....W++++i.....;
#X connect 161 0 162 1 32.................I....n....PB....J....DA....;
#X connect 162 0 175 0 empty;
#X connect 162 1 155 0 empty;
#X connect 163 0 158 0 32.................L....D7+++OC....A++++eA....;
#X connect 164 0 158 0 32.................L..........C.........bA....;
#X connect 165 0 158 0 32.................L....z2+++OC....88+++eA....;
#X connect 166 0 164 1 empty;
#X connect 167 0 163 2 empty;
#X connect 168 0 163 1 empty;
#X connect 169 0 165 2 empty;
#X connect 170 0 165 1 empty;
#X connect 171 0 164 0 empty;
#X connect 171 1 163 0 32.................E....7B...PA....u....TD....;
#X connect 171 2 165 0 32.................E....DF...PA....gA...TD....;
#X connect 172 0 171 1 48.................H....v9+++OB....r++++G++++O1++++w++++i8+++O9++++;
#X connect 173 0 198 0 empty;
#X connect 174 0 176 0 empty;
#X connect 175 0 177 0 48.................J....bE...fB....WA...j9+++Oc....o++++SG...f6++++;
#X connect 176 0 175 1 48.................F.....++++uA....v++++q9++++2++++p+++++8+++O7++++;
#X connect 177 0 157 0 64.................I....jA...PB....Y....j.....a....I....vF...Pq++++.B...z5+++Of....09+++C;
#X connect 178 0 179 0 empty;
#X connect 179 0 177 1 48.................F....79+++uA....u++++u9+++O3++++q++++C9+++e7++++;
#X connect 181 0 156 0 32.................M....f7+++eC....H++++CC....;
#X connect 182 0 97 0 80.................G....rD...vA....KA...v9++++R....r++++uD....v++++KA....7++++R....c9+++yE...Pm++++bA...L5+++O;
#X connect 183 0 182 0 empty;
#X connect 184 0 183 0 48.................D....vA....A....b.....8+++OK....P++++yB....0++++;
#X connect 185 0 186 0 32.................C....T+++++.....0++++W.....;
#X connect 185 1 184 1 empty;
#X connect 186 0 184 0 32.................C....z....v.....M....T.....;
#X connect 187 0 183 0 empty;
#X connect 188 0 149 0 empty;
#X connect 189 0 188 0 empty;
#X connect 190 0 152 0 48.................G....HI...vA....RB....1+++uo....f8+++aJ...fY++++;
#X connect 191 0 139 0 empty;
#X connect 192 0 141 0 empty;
#X connect 195 0 194 0 empty;
#X connect 198 0 150 0 48.................I....zD...PB....MA....1+++OY....f8+++SF...vY++++;
#X connect 199 0 204 0 empty;
#X connect 200 0 202 0 empty;
#X connect 200 0 185 0 32.................C....TV...v.....kE...bA....;
#X connect 201 0 213 0 empty;
#X connect 202 0 204 0 32.................G....j7++++A....I++++2.....;
#X connect 203 0 200 0 48.................D....H++++OA....x++++u9++++0++++q++++e8++++6++++;
#X connect 204 0 206 0 48.................D....nI....A....ZB...b9+++Os....m++++SK...P6++++;
#X connect 205 0 24 0 empty;
#X connect 205 1 23 0 empty;
#X connect 205 2 17 0 empty;
#X connect 205 3 18 0 empty;
#X connect 205 4 19 0 empty;
#X connect 205 5 20 0 empty;
#X connect 205 6 21 0 empty;
#X connect 205 7 22 0 empty;
#X connect 205 8 32 0 empty;
#X connect 205 9 31 0 empty;
#X connect 205 10 25 0 empty;
#X connect 205 11 26 0 empty;
#X connect 205 12 27 0 empty;
#X connect 205 13 28 0 empty;
#X connect 205 14 29 0 empty;
#X connect 205 15 30 0 empty;
#X connect 206 0 205 0 32.................G....zu++++A....86+++m.....;
#X connect 207 0 206 0 48.................E....z9+++eA....s++++a9+++ew++++l++++W7+++e6++++;
#X connect 208 0 206 0 48.................E....X7+++eA....F++++a9+++um++++l++++64+++e6++++;
#X connect 209 0 206 0 48.................E.....4+++eA....P9+++a9+++OZ++++l++++i1+++e6++++;
#X connect 210 0 209 0 empty;
#X connect 211 0 212 0 empty;
#X connect 212 0 206 0 32.................G.....7++++A.....++++2.....;
#X connect 213 0 206 0 empty;
#X restore 156 235 pd sequence-a;
#X obj 156 285 clip~ -0.1 0.1;
#X obj 500 459 giga.rev~;
#X obj 604 154 vradio 15 1 1 10 empty empty empty 0 -8 0 10 #dcdcdc #000000 #000000 5;
#N canvas 728 150 712 728 presets 1;
#X obj 93 11 inlet;
#X obj 110 512 s \$0-set;
#X obj 127 460 s \$0-set;
#X obj 144 406 s \$0-set;
#X obj 162 353 s \$0-set;
#X text 175 511 bathroom;
#X text 194 459 living room;
#X msg 93 539 size 40 \, decay 4 \, damp 0.9 \, bw 0.75 \, dry 1 \, early 0.795 \, late 0.04;
#X obj 93 564 s \$0-set;
#X text 157 563 "quick fix";
#X obj 179 301 s \$0-set;
#X obj 196 250 s \$0-set;
#X msg 214 175 size 200 \, decay 9 \, damp 0.7 \, bw 0.8 \, dry 0.1 \, early 0.18 \, late 0.4, f 55;
#X obj 214 197 s \$0-set;
#X obj 231 148 s \$0-set;
#X obj 248 97 s \$0-set;
#X obj 93 47 select 0 1 2 3 4 5 6 7 8 9;
#X msg 144 380 size 50 \, decay 1.5 \, damp 0.1 \, bw 0.75 \, dry 0.84 \, early 0.31 \, late 0.1, f 57;
#X msg 162 329 size 40 \, decay 20 \, damp 0.5 \, bw 0.75 \, dry 1 \, early 0.31 \, late 0.031, f 57;
#X msg 179 277 size 6 \, decay 15 \, damp 0.9 \, bw 0.1 \, dry 0.31 \, early 0.31 \, late 0.31, f 55;
#X text 258 249 church;
#X text 296 147 cathedral;
#X text 315 96 canyon;
#X msg 248 74 size 300 \, decay 103 \, damp 0.43 \, bw 0.51 \, dry 0.55 \, early 0.05 \, late 0.1, f 60;
#X msg 231 126 size 143 \, decay 7 \, damp 0.71 \, bw 0.34 \, dry 0.7 \, early 0.28 \, late 0.35, f 58;
#X msg 196 225 size 80 \, decay 4.85 \, damp 0.41 \, bw 0.69 \, dry 0.7 \, early 0.35 \, late 0.28, f 60;
#X msg 127 436 size 16 \, decay 1.24 \, damp 0.18 \, bw 0.95 \, dry 0.7 \, early 0.18 \, late 0.14, f 59;
#X msg 110 486 size 5 \, decay 0.6 \, damp 0.62 \, bw 0.48 \, dry 0.5 \, early 0.25 \, late 0.25, f 58;
#X obj 16 564 outlet;
#X obj 16 539 r \$0-set;
#X text 281 196 last row of the church;
#X text 246 300 singing in the sewer;
#X text 229 352 nice hall effect;
#X text 207 405 bright small hall;
#X connect 0 0 16 0 empty;
#X connect 7 0 8 0 empty;
#X connect 12 0 13 0 empty;
#X connect 16 0 7 0 empty;
#X connect 16 1 27 0 empty;
#X connect 16 2 26 0 empty;
#X connect 16 3 17 0 empty;
#X connect 16 4 18 0 empty;
#X connect 16 5 19 0 empty;
#X connect 16 6 25 0 empty;
#X connect 16 7 12 0 empty;
#X connect 16 8 24 0 empty;
#X connect 16 9 23 0 empty;
#X connect 17 0 3 0 empty;
#X connect 18 0 4 0 empty;
#X connect 19 0 10 0 empty;
#X connect 23 0 15 0 empty;
#X connect 24 0 14 0 empty;
#X connect 25 0 11 0 empty;
#X connect 26 0 2 0 empty;
#X connect 27 0 1 0 empty;
#X connect 29 0 28 0 empty;
#X restore 599 314 pd presets;
#X text 621 164 - bathroom, f 13;
#X text 621 148 - "quick fix";
#X text 621 179 - living room;
#X text 621 239 - church;
#X text 621 210 - nice hall effect;
#X text 621 254 - last row of the church;
#X text 621 269 - cathedral;
#X text 621 284 - canyon;
#X text 621 224 - singing in the sewer;
#X text 621 194 - bright small hall;
#X msg 599 421 wet \$1;
#X msg 669 421 dry \$1;
#X obj 669 364 nbx 5 33 0 1 0 1 empty empty empty 0 -8 0 10 #191919 #ffffff #ffffff 0 256;
#X obj 599 364 nbx 5 33 0 1 0 1 empty empty empty 0 -8 0 10 #191919 #ffffff #ffffff 0 256;
#X connect 72 0 76 0 empty;
#X connect 73 0 76 0 empty;
#X connect 77 0 79 0 empty;
#X connect 78 0 79 0 empty;
#X connect 80 0 84 0 empty;
#X connect 81 0 84 0 empty;
#X connect 82 0 85 0 empty;
#X connect 83 0 85 0 empty;
#X connect 88 0 89 0 empty;
#X connect 89 0 90 0 empty;
#X connect 90 0 74 0 empty;
#X connect 90 1 74 1 empty;
#X connect 91 0 92 0 empty;
#X connect 92 0 90 0 empty;
#X connect 103 0 90 0 empty;
#X connect 104 0 90 0 empty;
