#N canvas 827 239 527 327 12;
#X obj 30 30 nbx 4 20 -36 36 0 1 t-0 empty empty 0 -8 0 10 #191919 #5bcefa #ffffff 0 256;
#X obj 30 60 nbx 4 20 -36 36 0 1 t-1 empty empty 0 -8 0 10 #191919 #f5a9b8 #ffffff 0 256;
#X obj 30 90 nbx 4 20 -36 36 0 1 t-2 empty empty 0 -8 0 10 #191919 #ed3b4b #ffffff 0 256;
#X obj 30 120 nbx 4 20 -36 36 0 1 t-3 empty empty 0 -8 0 10 #191919 #ff6e1d #ffffff 0 256;
#X obj 30 150 nbx 4 20 -36 36 0 1 t-4 empty empty 0 -8 0 10 #191919 #fbcd26 #ffffff 0 256;
#X obj 30 180 nbx 4 20 -36 36 0 1 t-5 empty empty 0 -8 0 10 #191919 #53af65 #ffffff 0 256;
#X obj 30 210 nbx 4 20 -36 36 0 1 t-6 empty empty 0 -8 0 10 #191919 #2d8ce3 #ffffff 0 256;
#X obj 30 240 nbx 4 20 -36 36 0 1 t-7 empty empty 0 -8 0 10 #191919 #6a47b9 #ffffff 0 256;
#X obj 30 270 nbx 4 20 -36 36 0 1 t-8 empty empty 0 -8 0 10 #191919 #5bcefa #ffffff 0 256;
#X obj 30 300 nbx 4 20 -36 36 0 1 t-9 empty empty 0 -8 0 10 #191919 #f5a9b8 #ffffff 0 256;
#X obj 30 330 nbx 4 20 -36 36 0 1 t-10 empty empty 0 -8 0 10 #191919 #ed3b4b #ffffff 0 256;
#X obj 30 360 nbx 4 20 -36 36 0 1 t-11 empty empty 0 -8 0 10 #191919 #ff6e1d #ffffff 0 256;
#X obj 30 390 nbx 4 20 -36 36 0 1 t-12 empty empty 0 -8 0 10 #191919 #fbcd26 #ffffff 0 256;
#X obj 30 420 nbx 4 20 -36 36 0 1 t-13 empty empty 0 -8 0 10 #191919 #53af65 #ffffff 0 256;
#X obj 30 450 nbx 4 20 -36 36 0 1 t-14 empty empty 0 -8 0 10 #191919 #2d8ce3 #ffffff 0 256;
#X obj 30 480 nbx 4 20 -36 36 0 1 t-15 empty empty 0 -8 0 10 #191919 #6a47b9 #ffffff 0 256;
#X obj 90 30 nbx 4 20 -24 24 0 1 x-0 empty empty 0 -8 0 10 #191919 #5bcefa #ffffff 0 256;
#X obj 90 60 nbx 4 20 -24 24 0 1 x-1 empty empty 0 -8 0 10 #191919 #f5a9b8 #ffffff 0 256;
#X obj 90 90 nbx 4 20 -24 24 0 1 x-2 empty empty 0 -8 0 10 #191919 #ed3b4b #ffffff 0 256;
#X obj 90 120 nbx 4 20 -24 24 0 1 x-3 empty empty 0 -8 0 10 #191919 #ff6e1d #ffffff 0 256;
#X obj 90 150 nbx 4 20 -24 24 0 1 x-4 empty empty 0 -8 0 10 #191919 #fbcd26 #ffffff 0 256;
#X obj 90 180 nbx 4 20 -24 24 0 1 x-5 empty empty 0 -8 0 10 #191919 #53af65 #ffffff 0 256;
#X obj 90 210 nbx 4 20 -24 24 0 1 x-6 empty empty 0 -8 0 10 #191919 #2d8ce3 #ffffff 0 256;
#X obj 90 240 nbx 4 20 -24 24 0 1 x-7 empty empty 0 -8 0 10 #191919 #6a47b9 #ffffff 0 256;
#X obj 90 270 nbx 4 20 -24 24 0 1 x-8 empty empty 0 -8 0 10 #191919 #5bcefa #ffffff 0 256;
#X obj 90 300 nbx 4 20 -24 24 0 1 x-9 empty empty 0 -8 0 10 #191919 #f5a9b8 #ffffff 0 256;
#X obj 90 330 nbx 4 20 -24 24 0 1 x-10 empty empty 0 -8 0 10 #191919 #ed3b4b #ffffff 0 256;
#X obj 90 360 nbx 4 20 -24 24 0 1 x-11 empty empty 0 -8 0 10 #191919 #ff6e1d #ffffff 0 256;
#X obj 90 390 nbx 4 20 -24 24 0 1 x-12 empty empty 0 -8 0 10 #191919 #fbcd26 #ffffff 0 256;
#X obj 90 420 nbx 4 20 -24 24 0 1 x-13 empty empty 0 -8 0 10 #191919 #53af65 #ffffff 0 256;
#X obj 90 450 nbx 4 20 -24 24 0 1 x-14 empty empty 0 -8 0 10 #191919 #2d8ce3 #ffffff 0 256;
#X obj 90 480 nbx 4 20 -24 24 0 1 x-15 empty empty 0 -8 0 10 #191919 #6a47b9 #ffffff 0 256;
#X obj 150 30 nbx 4 20 -24 24 0 1 y-0 empty empty 0 -8 0 10 #191919 #5bcefa #ffffff 0 256;
#X obj 150 60 nbx 4 20 -24 24 0 1 y-1 empty empty 0 -8 0 10 #191919 #f5a9b8 #ffffff 0 256;
#X obj 150 90 nbx 4 20 -24 24 0 1 y-2 empty empty 0 -8 0 10 #191919 #ed3b4b #ffffff 0 256;
#X obj 150 120 nbx 4 20 -24 24 0 1 y-3 empty empty 0 -8 0 10 #191919 #ff6e1d #ffffff 0 256;
#X obj 150 150 nbx 4 20 -24 24 0 1 y-4 empty empty 0 -8 0 10 #191919 #fbcd26 #ffffff 0 256;
#X obj 150 180 nbx 4 20 -24 24 0 1 y-5 empty empty 0 -8 0 10 #191919 #53af65 #ffffff 0 256;
#X obj 150 210 nbx 4 20 -24 24 0 1 y-6 empty empty 0 -8 0 10 #191919 #2d8ce3 #ffffff 0 256;
#X obj 150 240 nbx 4 20 -24 24 0 1 y-7 empty empty 0 -8 0 10 #191919 #6a47b9 #ffffff 0 256;
#X obj 150 270 nbx 4 20 -24 24 0 1 y-8 empty empty 0 -8 0 10 #191919 #5bcefa #ffffff 0 256;
#X obj 150 300 nbx 4 20 -24 24 0 1 y-9 empty empty 0 -8 0 10 #191919 #f5a9b8 #ffffff 0 256;
#X obj 150 330 nbx 4 20 -24 24 0 1 y-10 empty empty 0 -8 0 10 #191919 #ed3b4b #ffffff 0 256;
#X obj 150 360 nbx 4 20 -24 24 0 1 y-11 empty empty 0 -8 0 10 #191919 #ff6e1d #ffffff 0 256;
#X obj 150 390 nbx 4 20 -24 24 0 1 y-12 empty empty 0 -8 0 10 #191919 #fbcd26 #ffffff 0 256;
#X obj 150 420 nbx 4 20 -24 24 0 1 y-13 empty empty 0 -8 0 10 #191919 #53af65 #ffffff 0 256;
#X obj 150 450 nbx 4 20 -24 24 0 1 y-14 empty empty 0 -8 0 10 #191919 #2d8ce3 #ffffff 0 256;
#X obj 150 480 nbx 4 20 -24 24 0 1 y-15 empty empty 0 -8 0 10 #191919 #6a47b9 #ffffff 0 256;
#X obj 210 30 nbx 4 20 -24 24 0 1 z-0 empty empty 0 -8 0 10 #191919 #5bcefa #ffffff 0 256;
#X obj 210 60 nbx 4 20 -24 24 0 1 z-1 empty empty 0 -8 0 10 #191919 #f5a9b8 #ffffff 0 256;
#X obj 210 90 nbx 4 20 -24 24 0 1 z-2 empty empty 0 -8 0 10 #191919 #ed3b4b #ffffff 0 256;
#X obj 210 120 nbx 4 20 -24 24 0 1 z-3 empty empty 0 -8 0 10 #191919 #ff6e1d #ffffff 0 256;
#X obj 210 150 nbx 4 20 -24 24 0 1 z-4 empty empty 0 -8 0 10 #191919 #fbcd26 #ffffff 0 256;
#X obj 210 180 nbx 4 20 -24 24 0 1 z-5 empty empty 0 -8 0 10 #191919 #53af65 #ffffff 0 256;
#X obj 210 210 nbx 4 20 -24 24 0 1 z-6 empty empty 0 -8 0 10 #191919 #2d8ce3 #ffffff 0 256;
#X obj 210 240 nbx 4 20 -24 24 0 1 z-7 empty empty 0 -8 0 10 #191919 #6a47b9 #ffffff 0 256;
#X obj 210 270 nbx 4 20 -24 24 0 1 z-8 empty empty 0 -8 0 10 #191919 #5bcefa #ffffff 0 256;
#X obj 210 300 nbx 4 20 -24 24 0 1 z-9 empty empty 0 -8 0 10 #191919 #f5a9b8 #ffffff 0 256;
#X obj 210 330 nbx 4 20 -24 24 0 1 z-10 empty empty 0 -8 0 10 #191919 #ed3b4b #ffffff 0 256;
#X obj 210 360 nbx 4 20 -24 24 0 1 z-11 empty empty 0 -8 0 10 #191919 #ff6e1d #ffffff 0 256;
#X obj 210 390 nbx 4 20 -24 24 0 1 z-12 empty empty 0 -8 0 10 #191919 #fbcd26 #ffffff 0 256;
#X obj 210 420 nbx 4 20 -24 24 0 1 z-13 empty empty 0 -8 0 10 #191919 #53af65 #ffffff 0 256;
#X obj 210 450 nbx 4 20 -24 24 0 1 z-14 empty empty 0 -8 0 10 #191919 #2d8ce3 #ffffff 0 256;
#X obj 210 480 nbx 4 20 -24 24 0 1 z-15 empty empty 0 -8 0 10 #191919 #6a47b9 #ffffff 0 256;
#X text 30 9 t, f 2;
#X text 90 9 x, f 2;
#X text 150 9 y, f 2;
#X text 210 9 z, f 2;
#X obj 90 520 nbx 3 20 -128 128 0 1 x-mult empty mult-x 0 -7 0 14 #191919 #ffacab #ffffff 0 256;
#X obj 150 520 nbx 3 20 -128 128 0 1 y-mult empty mult-y 0 -7 0 14 #191919 #ffacab #ffffff 0 256;
#X obj 210 520 nbx 3 20 -128 128 0 1 z-mult empty mult-z 0 -7 0 14 #191919 #ffacab #ffffff 0 256;
#X obj 480 460 dac~;
#X obj 30 560 thanks;
#X obj 100 560 links;
#X text 150 559 drink some water!, f 16;
#N canvas 0 50 450 300 sequence-a 1;
#X obj 26 392 nbx 4 20 -1000 1000 0 1 empty m-0 empty 0 -8 0 10 #191919 #5bcefa #ffffff 0 256;
#X obj 76 393 nbx 4 20 -1000 1000 0 1 empty m-1 empty 0 -8 0 10 #191919 #f5a9b8 #ffffff 0 256;
#X obj 126 393 nbx 4 20 -1000 1000 0 1 empty m-2 empty 0 -8 0 10 #191919 #ed3b4b #ffffff 0 256;
#X obj 176 393 nbx 4 20 -1000 1000 0 1 empty m-3 empty 0 -8 0 10 #191919 #ff6e1d #ffffff 0 256;
#X obj 226 393 nbx 4 20 -1000 1000 0 1 empty m-4 empty 0 -8 0 10 #191919 #fbcd26 #ffffff 0 256;
#X obj 276 393 nbx 4 20 -1000 1000 0 1 empty m-5 empty 0 -8 0 10 #191919 #53af65 #ffffff 0 256;
#X obj 326 393 nbx 4 20 -1000 1000 0 1 empty m-6 empty 0 -8 0 10 #191919 #2d8ce3 #ffffff 0 256;
#X obj 376 393 nbx 4 20 -1000 1000 0 1 empty m-7 empty 0 -8 0 10 #191919 #6a47b9 #ffffff 0 256;
#X obj 426 393 nbx 4 20 -1000 1000 0 1 empty m-8 empty 0 -8 0 10 #191919 #5bcefa #ffffff 0 256;
#X obj 476 393 nbx 4 20 -1000 1000 0 1 empty m-9 empty 0 -8 0 10 #191919 #f5a9b8 #ffffff 0 256;
#X obj 526 393 nbx 4 20 -1000 1000 0 1 empty m-10 empty 0 -8 0 10 #191919 #ed3b4b #ffffff 0 256;
#X obj 576 393 nbx 4 20 -1000 1000 0 1 empty m-11 empty 0 -8 0 10 #191919 #ff6e1d #ffffff 0 256;
#X obj 626 392 nbx 4 20 -1000 1000 0 1 empty m-12 empty 0 -8 0 10 #191919 #fbcd26 #ffffff 0 256;
#X obj 676 393 nbx 4 20 -1000 1000 0 1 empty m-13 empty 0 -8 0 10 #191919 #53af65 #ffffff 0 256;
#X obj 726 393 nbx 4 20 -1000 1000 0 1 empty m-14 empty 0 -8 0 10 #191919 #2d8ce3 #ffffff 0 256;
#X obj 776 393 nbx 4 20 -1000 1000 0 1 empty m-15 empty 0 -8 0 10 #191919 #6a47b9 #ffffff 0 256;
#X obj 827 339 nbx 4 20 0 128 0 1 empty empty mult 25 26 0 10 #191919 #ffacab #ffffff 1 256;
#X obj 115 130 bng 50 250 50 0 empty empty empty 17 7 0 10 #191919 #ed3b4b #ffffff;
#X obj 165 130 bng 50 250 50 0 empty empty empty 17 7 0 10 #191919 #ff6e1d #ffffff;
#X obj 215 130 bng 50 250 50 0 empty empty empty 17 7 0 10 #191919 #fbcd26 #ffffff;
#X obj 265 130 bng 50 250 50 0 empty empty empty 17 7 0 10 #191919 #53af65 #ffffff;
#X obj 315 130 bng 50 250 50 0 empty empty empty 17 7 0 10 #191919 #2d8ce3 #ffffff;
#X obj 365 130 bng 50 250 50 0 empty empty empty 17 7 0 10 #191919 #6a47b9 #ffffff;
#X obj 65 130 bng 50 250 50 0 empty empty empty 17 7 0 10 #191919 #f5a9b8 #ffffff;
#X obj 15 130 bng 50 250 50 0 empty empty empty 17 7 0 10 #191919 #5bcefa #ffffff;
#X obj 515 130 bng 50 250 50 0 empty empty empty 17 7 0 10 #191919 #ed3b4b #ffffff;
#X obj 565 130 bng 50 250 50 0 empty empty empty 17 7 0 10 #191919 #ff6e1d #ffffff;
#X obj 615 130 bng 50 250 50 0 empty empty empty 17 7 0 10 #191919 #fbcd26 #ffffff;
#X obj 665 130 bng 50 250 50 0 empty empty empty 17 7 0 10 #191919 #53af65 #ffffff;
#X obj 715 130 bng 50 250 50 0 empty empty empty 17 7 0 10 #191919 #2d8ce3 #ffffff;
#X obj 765 130 bng 50 250 50 0 empty empty empty 17 7 0 10 #191919 #6a47b9 #ffffff;
#X obj 465 130 bng 50 250 50 0 empty empty empty 17 7 0 10 #191919 #f5a9b8 #ffffff;
#X obj 415 130 bng 50 250 50 0 empty empty empty 17 7 0 10 #191919 #5bcefa #ffffff;
#X obj 27 186 tgl 50 1 empty empty empty 17 7 0 10 #191919 #5bcefa #ffffff 0 1;
#X obj 77 186 tgl 50 1 empty empty empty 17 7 0 10 #191919 #f5a9b8 #ffffff 0 1;
#X obj 127 186 tgl 50 1 empty empty empty 17 7 0 10 #191919 #ed3b4b #ffffff 0 1;
#X obj 177 186 tgl 50 1 empty empty empty 17 7 0 10 #191919 #ff6e1d #ffffff 0 1;
#X obj 227 186 tgl 50 1 empty empty empty 17 7 0 10 #191919 #fbcd26 #ffffff 0 1;
#X obj 277 186 tgl 50 1 empty empty empty 17 7 0 10 #191919 #53af65 #ffffff 0 1;
#X obj 327 186 tgl 50 1 empty empty empty 17 7 0 10 #191919 #2d8ce3 #ffffff 0 1;
#X obj 377 186 tgl 50 1 empty empty empty 17 7 0 10 #191919 #6a47b9 #ffffff 0 1;
#X obj 427 186 tgl 50 1 empty empty empty 17 7 0 10 #191919 #5bcefa #ffffff 0 1;
#X obj 477 186 tgl 50 1 empty empty empty 17 7 0 10 #191919 #f5a9b8 #ffffff 0 1;
#X obj 527 186 tgl 50 1 empty empty empty 17 7 0 10 #191919 #ed3b4b #ffffff 0 1;
#X obj 577 186 tgl 50 1 empty empty empty 17 7 0 10 #191919 #ff6e1d #ffffff 0 1;
#X obj 627 186 tgl 50 1 empty empty empty 17 7 0 10 #191919 #fbcd26 #ffffff 0 1;
#X obj 677 186 tgl 50 1 empty empty empty 17 7 0 10 #191919 #53af65 #ffffff 0 1;
#X obj 727 186 tgl 50 1 empty empty empty 17 7 0 10 #191919 #2d8ce3 #ffffff 0 1;
#X obj 777 186 tgl 50 1 empty empty empty 17 7 0 10 #191919 #6a47b9 #ffffff 0 1;
#X obj 26 339 nbx 4 20 -24 24 0 1 empty empty empty 0 -8 0 10 #191919 #5bcefa #ffffff 0 256;
#X obj 76 340 nbx 4 20 -24 24 0 1 empty empty empty 0 -8 0 10 #191919 #f5a9b8 #ffffff 0 256;
#X obj 126 340 nbx 4 20 -24 24 0 1 empty empty empty 0 -8 0 10 #191919 #ed3b4b #ffffff 0 256;
#X obj 176 340 nbx 4 20 -24 24 0 1 empty empty empty 0 -8 0 10 #191919 #ff6e1d #ffffff 0 256;
#X obj 226 340 nbx 4 20 -24 24 0 1 empty empty empty 0 -8 0 10 #191919 #fbcd26 #ffffff 0 256;
#X obj 276 340 nbx 4 20 -24 24 0 1 empty empty empty 0 -8 0 10 #191919 #53af65 #ffffff 0 256;
#X obj 326 340 nbx 4 20 -24 24 0 1 empty empty empty 0 -8 0 10 #191919 #2d8ce3 #ffffff 0 256;
#X obj 376 340 nbx 4 20 -24 24 0 1 empty empty empty 0 -8 0 10 #191919 #6a47b9 #ffffff 0 256;
#X obj 426 340 nbx 4 20 -24 24 0 1 empty empty empty 0 -8 0 10 #191919 #5bcefa #ffffff 0 256;
#X obj 476 340 nbx 4 20 -24 24 0 1 empty empty empty 0 -8 0 10 #191919 #f5a9b8 #ffffff 0 256;
#X obj 526 340 nbx 4 20 -24 24 0 1 empty empty empty 0 -8 0 10 #191919 #ed3b4b #ffffff 0 256;
#X obj 576 340 nbx 4 20 -24 24 0 1 empty empty empty 0 -8 0 10 #191919 #ff6e1d #ffffff 0 256;
#X obj 626 339 nbx 4 20 -24 24 0 1 empty empty empty 0 -8 0 10 #191919 #fbcd26 #ffffff 0 256;
#X obj 676 340 nbx 4 20 -24 24 0 1 empty empty empty 0 -8 0 10 #191919 #53af65 #ffffff 0 256;
#X obj 726 340 nbx 4 20 -24 24 0 1 empty empty empty 0 -8 0 10 #191919 #2d8ce3 #ffffff 0 256;
#X obj 776 340 nbx 4 20 -24 24 0 1 empty empty empty 0 -8 0 10 #191919 #6a47b9 #ffffff 0 256;
#X obj 15 369 *;
#X obj 65 369 *;
#X obj 115 369 *;
#X obj 165 369 *;
#X obj 215 369 *;
#X obj 265 369 *;
#X obj 315 369 *;
#X obj 365 369 *;
#X obj 415 369 *;
#X obj 465 369 *;
#X obj 515 369 *;
#X obj 565 369 *;
#X obj 615 369 *;
#X obj 665 369 *;
#X obj 715 369 *;
#X obj 765 369 *;
#X obj 15 419 +;
#X obj 65 419 +;
#X obj 115 419 +;
#X obj 165 419 +;
#X obj 215 419 +;
#X obj 265 419 +;
#X obj 315 419 +;
#X obj 365 419 +;
#X obj 415 419 +;
#X obj 465 419 +;
#X obj 515 419 +;
#X obj 565 419 +;
#X obj 615 419 +;
#X obj 665 419 +;
#X obj 715 419 +;
#X obj 765 419 +;
#X obj 627 13 function 200 100 empty empty 0 1 25 25 25 255 255 255 1 0 0 0 0 3.68189 0.925532 20.6186 0.319149 36.0825 0.12766 82.4742 0;
#X obj 452 6 inlet;
#X obj 491 6 inlet;
#X obj 868 614 outlet;
#X obj 916 614 outlet;
#X obj 115 277 bng 50 250 50 0 empty empty empty 17 7 0 10 #191919 #ed3b4b #ffffff;
#X obj 165 277 bng 50 250 50 0 empty empty empty 17 7 0 10 #191919 #ff6e1d #ffffff;
#X obj 215 277 bng 50 250 50 0 empty empty empty 17 7 0 10 #191919 #fbcd26 #ffffff;
#X obj 265 277 bng 50 250 50 0 empty empty empty 17 7 0 10 #191919 #53af65 #ffffff;
#X obj 315 277 bng 50 250 50 0 empty empty empty 17 7 0 10 #191919 #2d8ce3 #ffffff;
#X obj 365 277 bng 50 250 50 0 empty empty empty 17 7 0 10 #191919 #6a47b9 #ffffff;
#X obj 65 277 bng 50 250 50 0 empty empty empty 17 7 0 10 #191919 #f5a9b8 #ffffff;
#X obj 15 277 bng 50 250 50 0 empty empty empty 17 7 0 10 #191919 #5bcefa #ffffff;
#X obj 515 277 bng 50 250 50 0 empty empty empty 17 7 0 10 #191919 #ed3b4b #ffffff;
#X obj 565 277 bng 50 250 50 0 empty empty empty 17 7 0 10 #191919 #ff6e1d #ffffff;
#X obj 615 277 bng 50 250 50 0 empty empty empty 17 7 0 10 #191919 #fbcd26 #ffffff;
#X obj 665 277 bng 50 250 50 0 empty empty empty 17 7 0 10 #191919 #53af65 #ffffff;
#X obj 715 277 bng 50 250 50 0 empty empty empty 17 7 0 10 #191919 #2d8ce3 #ffffff;
#X obj 765 277 bng 50 250 50 0 empty empty empty 17 7 0 10 #191919 #6a47b9 #ffffff;
#X obj 465 277 bng 50 250 50 0 empty empty empty 17 7 0 10 #191919 #f5a9b8 #ffffff;
#X obj 415 277 bng 50 250 50 0 empty empty empty 17 7 0 10 #191919 #5bcefa #ffffff;
#X obj 15 244 router, f 7;
#X obj 65 244 router;
#X obj 115 244 router;
#X obj 165 244 router;
#X obj 215 244 router;
#X obj 265 244 router;
#X obj 315 244 router;
#X obj 365 244 router;
#X obj 415 244 router;
#X obj 465 244 router;
#X obj 515 244 router;
#X obj 565 244 router;
#X obj 615 244 router;
#X obj 665 244 router;
#X obj 715 244 router;
#X obj 765 244 router;
#X obj 812 614 outlet~;
#X obj 589 589 nbx 6 20 0 20000 0 1 empty empty empty 0 -4 0 10 #191919 #ffffff #ffffff 1729 256;
#X obj 659 589 nbx 4 20 0 1 0 1 empty empty Q 45 10 0 12 #191919 #ffffff #ffffff 0.42 256;
#X obj 825 579 nbx 4 20 0 1 0 1 empty empty Q 45 10 0 12 #191919 #ffffff #ffffff 0.42 256;
#X obj 623 518 nbx 4 20 0 32 0 1 empty empty empty 0 -4 0 10 #191919 #ffffff #ffffff 0.3 256;
#X obj 788 481 nbx 4 20 -5 5 0 1 empty empty empty 0 -4 0 10 #191919 #ffffff #ffffff -0.5 256;
#X obj 838 481 nbx 4 20 -5 5 0 1 empty empty empty 0 -4 0 10 #191919 #ffffff #ffffff 0.5 256;
#X obj 788 508 nbx 4 20 0 32 0 1 empty empty empty 0 -4 0 10 #191919 #ffffff #ffffff 0.3 256;
#X obj 566 614 svfilter~;
#X obj 732 614 svfilter~;
#X obj 880 338 envgen~, f 9;
#X obj 566 518 *~;
#X obj 566 463 *~;
#X obj 732 508 *~;
#X obj 15 452 * 1;
#X obj 44 544 nbx 3 18 0 256 0 1 empty empty max -38 9 0 12 #191919 #ffacab #ffffff 36 256;
#X obj 232 555 autotune2;
#X obj 280 531 op * 100;
#X obj 15 614 * 100;
#X msg 296 477 0 2 3 5 7 8 10;
#X msg 296 502 0 2 4 5 7 9 11;
#X obj 169 463 tgl 50 1 empty empty quantize 0 -9 0 12 #191919 #ffacab #ffffff 0 1;
#X obj 208 531 router;
#X obj 70 571 fold;
#X obj 15 571 wrap2;
#X obj 125 571 clip;
#X obj 29 520 nbx 3 18 -256 0 0 1 empty empty min -21 9 0 12 #191919 #ffacab #ffffff -36 256;
#X obj 99 544 nbx 4 18 0 256 0 1 empty empty empty 0 -8 0 10 #191919 #ffacab #ffffff 36 256;
#X obj 84 520 nbx 4 18 -256 0 0 1 empty empty empty 0 -8 0 10 #191919 #ffacab #ffffff -36 256;
#X obj 154 544 nbx 4 18 0 256 0 1 empty empty empty 0 -8 0 10 #191919 #ffacab #ffffff 36 256;
#X obj 139 520 nbx 4 18 -256 0 0 1 empty empty empty 0 -8 0 10 #191919 #ffacab #ffffff -36 256;
#X obj 15 482 router 3;
#X obj 91 472 hradio 20 1 1 3 empty empty limit\ mode 0 -8 0 10 #191919 #ffacab #ffffff 0;
#X obj 402 504 * 261.626, f 10;
#X obj 274 588 nbx 3 18 0 12 0 1 empty empty root -24 9 0 14 #191919 #ffacab #ffffff 0 256;
#X obj 326 616 +;
#X obj 337 562 nbx 3 18 -8 8 0 1 empty empty oct -20 9 0 14 #191919 #ffacab #ffffff 0 256;
#X text 242 501 major, f 7;
#X msg 296 452 0 1 2 3 4 5 6 7 8 9 10 11, f 21;
#X msg 505 90 duration \$1;
#X obj 565 66 nbx 4 18 0.001 30 0 1 empty empty empty 0 -8 0 10 #191919 #ffacab #ffffff 0.14 256;
#X msg 880 292 retrigger \$1;
#X obj 880 265 nbx 4 18 -1e+37 1e+37 0 1 empty empty empty 0 -8 0 10 #191919 #ffacab #ffffff 0 256;
#X obj 732 482 clip~;
#X obj 403 6 inlet~;
#X text 236 476 n. minor, f 9;
#X obj 15 8 tgl 50 1 empty empty empty 17 7 0 10 #191919 #ffacab #ffffff 0 1;
#X obj 71 13 * 4;
#X obj 195 13 nbx 4 18 0 15 0 1 empty empty empty 0 -6 0 12 #191919 #ffacab #ffffff 0 256;
#X msg 71 39 tempo \$1 permin, f 16;
#X obj 113 13 nbx 4 18 0.001 64000 0 1 empty empty bpm 0 -6 0 12 #191919 #ffacab #ffffff 105 256;
#X obj 15 70 metro 1, f 8;
#X obj 15 100 select 0 1 2 3 4 5 6 7 8 9 10 11 12 13 14 15, f 43;
#X obj 195 70 count;
#X msg 255 70 up, f 4;
#X msg 294 70 down;
#X msg 348 70 alt \$1;
#X obj 348 39 tgl 25 1 empty empty empty 0 -7 0 12 #191919 #ffacab #ffffff 0 1;
#X obj 260 13 nbx 4 18 0 15 0 1 empty empty empty 0 -6 0 12 #191919 #ffacab #ffffff 15 256;
#X msg 260 39 max \$1, f 8;
#X msg 195 39 min \$1, f 8;
#X msg 400 70 reset \$1;
#X obj 400 45 nbx 4 18 0 15 0 1 empty empty empty 0 -8 0 10 #191919 #ffacab #ffffff 0 256;
#X obj 505 65 * 1000;
#X obj 589 565 expr $f1*pow(2 \, $f2), f 19;
#X obj 589 542 hsl 105 20 0.01 22000 1 0 empty empty cutoff 69 10 0 14 #191919 #f5a9b8 #ffffff 0 1;
#X obj 755 532 hsl 106 20 0.01 22000 1 0 empty empty cutoff 69 10 0 14 #191919 #5bcefa #ffffff 0 1;
#X obj 755 579 nbx 6 20 0 20000 0 1 empty empty empty 0 -4 0 10 #191919 #ffffff #ffffff 1729 256;
#X obj 755 555 expr $f1*pow(2 \, $f2), f 19;
#X obj 699 541 nbx 3 20 0 32 0 1 empty empty empty 0 -4 0 10 #191919 #ffffff #ffffff 0 256;
#X obj 865 532 nbx 3 20 0 32 0 1 empty empty empty 0 -4 0 10 #191919 #ffffff #ffffff 0 256;
#X obj 505 40 expr 60/$f1;
#X text 840 19 blues \; 0 3 5 6 7 10 \; 0 2 3 4 5 6 7 9 10 \;;
#N canvas 0 50 450 300 addittive 1;
#X obj 80 230 sine~;
#X obj 10 120 inlet;
#X obj 140 230 sine~;
#X obj 200 230 sine~;
#X obj 260 230 sine~;
#X obj 320 230 sine~;
#X obj 380 230 sine~;
#X obj 440 230 sine~;
#X obj 500 230 sine~;
#X obj 80 430 outlet~;
#X obj 80 30 inlet;
#X obj 80 70 unpack f f f f f f f f;
#X obj 80 160 *;
#X obj 80 120 t b f;
#X obj 140 120 t b f;
#X obj 200 120 t b f;
#X obj 260 160 *;
#X obj 260 120 t b f;
#X obj 320 160 *;
#X obj 320 120 t b f;
#X obj 380 120 t b f;
#X obj 440 160 *;
#X obj 440 120 t b f;
#X obj 500 160 *;
#X obj 500 120 t b f;
#X obj 140 160 *;
#X obj 200 160 *;
#X obj 570 230 inlet;
#X obj 570 270 unpack f f f f f f f f, f 20;
#X obj 80 330 *~;
#X obj 140 330 *~;
#X obj 200 330 *~;
#X obj 260 330 *~;
#X obj 320 330 *~;
#X obj 380 330 *~;
#X obj 440 330 *~;
#X obj 500 330 *~;
#X obj 380 160 *;
#X obj 80 390 /~ 8;
#X obj 620 160 inlet~;
#X obj 680 160 inlet~;
#X connect 0 0 29 0 empty;
#X connect 1 0 12 0 empty;
#X connect 1 0 16 0 empty;
#X connect 1 0 18 0 empty;
#X connect 1 0 21 0 empty;
#X connect 1 0 23 0 empty;
#X connect 1 0 25 0 empty;
#X connect 1 0 26 0 empty;
#X connect 1 0 37 0 empty;
#X connect 2 0 30 0 empty;
#X connect 3 0 31 0 empty;
#X connect 4 0 32 0 empty;
#X connect 5 0 33 0 empty;
#X connect 6 0 34 0 empty;
#X connect 7 0 35 0 empty;
#X connect 8 0 36 0 empty;
#X connect 10 0 11 0 empty;
#X connect 11 0 13 0 empty;
#X connect 11 1 14 0 empty;
#X connect 11 2 15 0 empty;
#X connect 11 3 17 0 empty;
#X connect 11 4 19 0 empty;
#X connect 11 5 20 0 empty;
#X connect 11 6 22 0 empty;
#X connect 11 7 24 0 empty;
#X connect 12 0 0 0 empty;
#X connect 13 0 12 0 empty;
#X connect 13 1 12 1 empty;
#X connect 14 0 25 0 empty;
#X connect 14 1 25 1 empty;
#X connect 15 0 26 0 empty;
#X connect 15 1 26 1 empty;
#X connect 16 0 4 0 empty;
#X connect 17 0 16 0 empty;
#X connect 17 1 16 1 empty;
#X connect 18 0 5 0 empty;
#X connect 19 0 18 0 empty;
#X connect 19 1 18 1 empty;
#X connect 20 0 37 0 empty;
#X connect 20 1 37 1 empty;
#X connect 21 0 7 0 empty;
#X connect 22 0 21 0 empty;
#X connect 22 1 21 1 empty;
#X connect 23 0 8 0 empty;
#X connect 24 0 23 0 empty;
#X connect 24 1 23 1 empty;
#X connect 25 0 2 0 empty;
#X connect 26 0 3 0 empty;
#X connect 27 0 28 0 empty;
#X connect 28 0 29 1 empty;
#X connect 28 1 30 1 empty;
#X connect 28 2 31 1 empty;
#X connect 28 3 32 1 empty;
#X connect 28 4 33 1 empty;
#X connect 28 5 34 1 empty;
#X connect 28 6 35 1 empty;
#X connect 28 7 36 1 empty;
#X connect 29 0 38 0 empty;
#X connect 30 0 38 0 empty;
#X connect 31 0 38 0 empty;
#X connect 32 0 38 0 empty;
#X connect 33 0 38 0 empty;
#X connect 34 0 38 0 empty;
#X connect 35 0 38 0 empty;
#X connect 36 0 38 0 empty;
#X connect 37 0 6 0 empty;
#X connect 38 0 9 0 empty;
#X connect 39 0 0 1 empty;
#X connect 39 0 2 1 empty;
#X connect 39 0 3 1 empty;
#X connect 39 0 4 1 empty;
#X connect 39 0 5 1 empty;
#X connect 39 0 6 1 empty;
#X connect 39 0 7 1 empty;
#X connect 39 0 8 1 empty;
#X connect 40 0 0 2 empty;
#X connect 40 0 2 2 empty;
#X connect 40 0 3 2 empty;
#X connect 40 0 4 2 empty;
#X connect 40 0 5 2 empty;
#X connect 40 0 6 2 empty;
#X connect 40 0 7 2 empty;
#X connect 40 0 8 2 empty;
#X restore 402 611 pd addittive;
#X f 11;
#X msg 418 558 1 2 3 4 5 6 7 8;
#X msg 434 585 1 1 1 1 1 1 1 1;
#X obj 623 491 nbx 4 20 -5 5 0 1 empty empty empty 0 -4 0 10 #191919 #ffffff #ffffff -0.5 256;
#X obj 673 491 nbx 4 20 -5 5 0 1 empty empty empty 0 -4 0 10 #191919 #ffffff #ffffff 0.5 256;
#X obj 566 491 clip~;
#X obj 402 480 expr pow(2 \, $f1/$f2), f 19;
#X obj 208 616 / 100;
#X obj 263 616 +;
#X obj 337 588 * 12, f 7;
#X obj 510 456 nbx 4 18 1 100 0 1 empty empty empty 0 -8 0 10 #191919 #ffacab #ffffff 12 256;
#X text 226 451 chromatic;
#X connect 0 0 81 1 empty;
#X connect 1 0 82 1 empty;
#X connect 2 0 83 1 empty;
#X connect 3 0 84 1 empty;
#X connect 4 0 85 1 empty;
#X connect 5 0 86 1 empty;
#X connect 6 0 87 1 empty;
#X connect 7 0 88 1 empty;
#X connect 8 0 89 1 empty;
#X connect 9 0 90 1 empty;
#X connect 10 0 91 1 empty;
#X connect 11 0 92 1 empty;
#X connect 12 0 93 1 empty;
#X connect 13 0 94 1 empty;
#X connect 14 0 95 1 empty;
#X connect 15 0 96 1 empty;
#X connect 16 0 80 0 empty;
#X connect 16 0 79 0 empty;
#X connect 16 0 78 0 empty;
#X connect 16 0 77 0 empty;
#X connect 16 0 76 0 empty;
#X connect 16 0 75 0 empty;
#X connect 16 0 74 0 empty;
#X connect 16 0 73 0 empty;
#X connect 16 0 72 0 empty;
#X connect 16 0 71 0 empty;
#X connect 16 0 70 0 empty;
#X connect 16 0 69 0 empty;
#X connect 16 0 68 0 empty;
#X connect 16 0 67 0 empty;
#X connect 16 0 66 0 empty;
#X connect 16 0 65 0 empty;
#X connect 17 0 120 0 empty;
#X connect 18 0 121 0 empty;
#X connect 19 0 122 0 empty;
#X connect 20 0 123 0 empty;
#X connect 21 0 124 0 empty;
#X connect 22 0 125 0 empty;
#X connect 23 0 119 0 empty;
#X connect 24 0 118 0 empty;
#X connect 25 0 128 0 empty;
#X connect 26 0 129 0 empty;
#X connect 27 0 130 0 empty;
#X connect 28 0 131 0 empty;
#X connect 29 0 132 0 empty;
#X connect 30 0 133 0 empty;
#X connect 31 0 127 0 empty;
#X connect 32 0 126 0 empty;
#X connect 33 0 118 1 empty;
#X connect 34 0 119 1 empty;
#X connect 35 0 120 1 empty;
#X connect 36 0 121 1 empty;
#X connect 37 0 122 1 empty;
#X connect 38 0 123 1 empty;
#X connect 39 0 124 1 empty;
#X connect 40 0 125 1 empty;
#X connect 41 0 126 1 empty;
#X connect 42 0 127 1 empty;
#X connect 43 0 128 1 empty;
#X connect 44 0 129 1 empty;
#X connect 45 0 130 1 empty;
#X connect 46 0 131 1 empty;
#X connect 47 0 132 1 empty;
#X connect 48 0 133 1 empty;
#X connect 49 0 65 1 empty;
#X connect 50 0 66 1 empty;
#X connect 51 0 67 1 empty;
#X connect 52 0 68 1 empty;
#X connect 53 0 69 1 empty;
#X connect 54 0 70 1 empty;
#X connect 55 0 71 1 empty;
#X connect 56 0 72 1 empty;
#X connect 57 0 73 1 empty;
#X connect 58 0 74 1 empty;
#X connect 59 0 75 1 empty;
#X connect 60 0 76 1 empty;
#X connect 61 0 77 1 empty;
#X connect 62 0 78 1 empty;
#X connect 63 0 79 1 empty;
#X connect 64 0 80 1 empty;
#X connect 65 0 81 0 empty;
#X connect 66 0 82 0 empty;
#X connect 67 0 83 0 empty;
#X connect 68 0 84 0 empty;
#X connect 69 0 85 0 empty;
#X connect 70 0 86 0 empty;
#X connect 71 0 87 0 empty;
#X connect 72 0 88 0 empty;
#X connect 73 0 89 0 empty;
#X connect 74 0 90 0 empty;
#X connect 75 0 91 0 empty;
#X connect 76 0 92 0 empty;
#X connect 77 0 93 0 empty;
#X connect 78 0 94 0 empty;
#X connect 79 0 95 0 empty;
#X connect 80 0 96 0 empty;
#X connect 81 0 148 0 empty;
#X connect 82 0 148 0 empty;
#X connect 83 0 148 0 empty;
#X connect 84 0 148 0 empty;
#X connect 85 0 148 0 empty;
#X connect 86 0 148 0 empty;
#X connect 87 0 148 0 empty;
#X connect 88 0 148 0 empty;
#X connect 89 0 148 0 empty;
#X connect 90 0 148 0 empty;
#X connect 91 0 148 0 empty;
#X connect 92 0 148 0 empty;
#X connect 93 0 148 0 empty;
#X connect 94 0 148 0 empty;
#X connect 95 0 148 0 empty;
#X connect 96 0 148 0 empty;
#X connect 97 0 144 1 48.................D....LL....A....CC....M...fHA...PC...HR...f3....;
#X connect 102 0 67 0 empty;
#X connect 102 0 144 0 empty;
#X connect 103 0 68 0 empty;
#X connect 103 0 144 0 empty;
#X connect 104 0 69 0 empty;
#X connect 104 0 144 0 empty;
#X connect 105 0 70 0 empty;
#X connect 105 0 144 0 empty;
#X connect 106 0 71 0 empty;
#X connect 106 0 144 0 empty;
#X connect 107 0 72 0 empty;
#X connect 107 0 144 0 empty;
#X connect 108 0 66 0 empty;
#X connect 108 0 144 0 empty;
#X connect 109 0 65 0 empty;
#X connect 109 0 144 0 empty;
#X connect 110 0 75 0 empty;
#X connect 110 0 144 0 empty;
#X connect 111 0 76 0 empty;
#X connect 111 0 144 0 empty;
#X connect 112 0 77 0 empty;
#X connect 112 0 144 0 empty;
#X connect 113 0 78 0 empty;
#X connect 113 0 144 0 empty;
#X connect 114 0 79 0 empty;
#X connect 114 0 144 0 empty;
#X connect 115 0 80 0 empty;
#X connect 115 0 144 0 empty;
#X connect 116 0 74 0 empty;
#X connect 116 0 144 0 empty;
#X connect 117 0 73 0 empty;
#X connect 117 0 144 0 empty;
#X connect 118 1 109 0 empty;
#X connect 119 1 108 0 empty;
#X connect 120 1 102 0 empty;
#X connect 121 1 103 0 empty;
#X connect 122 1 104 0 empty;
#X connect 123 1 105 0 empty;
#X connect 124 1 106 0 empty;
#X connect 125 1 107 0 empty;
#X connect 126 1 117 0 empty;
#X connect 127 1 116 0 empty;
#X connect 128 1 110 0 empty;
#X connect 129 1 111 0 empty;
#X connect 130 1 112 0 empty;
#X connect 131 1 113 0 empty;
#X connect 132 1 114 0 empty;
#X connect 133 1 115 0 empty;
#X connect 135 0 142 1 empty;
#X connect 136 0 142 2 32.................C....L8++++.....S++++W.....;
#X connect 137 0 143 2 32.................F....L8+++uA....S+++++.....;
#X connect 138 0 145 1 48.................C....39++++.....t++++q9+++e1++++p++++m8+++e6++++;
#X connect 139 0 177 1 48.................D....L++++OA....y++++u9++++0++++q++++e8+++u6++++;
#X connect 140 0 177 2 48.................C....L+++++.....y++++m9+++Os++++o++++S6+++u6++++;
#X connect 141 0 147 1 48.................C....z9++++.....s++++u9+++O0++++q++++S8+++e6++++;
#X connect 142 0 177 0 48.................G....XI...vA....VB...P1+++uo....j8+++aJ...PZ++++;
#X connect 143 0 134 0 48.................G....7C...vA....+....f9+++OT....n++++CE...P6++++;
#X connect 144 0 146 1 32.................fA....u+++OX....v6+++mF....;
#X connect 145 0 142 0 empty;
#X connect 146 0 212 0 empty;
#X connect 147 0 143 0 empty;
#X connect 148 0 165 0 empty;
#X connect 149 0 158 2 empty;
#X connect 150 0 214 0 32.................G....j9++++A....o++++CB....;
#X connect 151 0 150 1 empty;
#X connect 152 0 156 0 64.................I....DE...PB....QA...j....Pr....I....DK...Pk++++AC...T4+++ev....Z9+++C;
#X connect 153 0 151 0 32.................D....D++++OA....w++++KB....;
#X connect 154 0 151 0 32.................D....D++++OA....w++++m.....;
#X connect 155 0 156 1 32.................E....7C...PA....+....vA....;
#X connect 156 0 214 0 empty;
#X connect 156 1 150 0 empty;
#X connect 157 0 152 0 32.................L....D7+++OC....A++++eA....;
#X connect 158 0 152 0 32.................L..........C.........bA....;
#X connect 159 0 152 0 32.................L....z2+++OC....88+++eA....;
#X connect 160 0 158 1 empty;
#X connect 161 0 157 2 empty;
#X connect 162 0 157 1 empty;
#X connect 163 0 159 2 empty;
#X connect 164 0 159 1 empty;
#X connect 165 0 158 0 empty;
#X connect 165 1 157 0 32.................N....7B...fC....u....TD....;
#X connect 165 2 159 0 32.................H....DF....B....gA...TD....;
#X connect 166 0 165 1 48.................H....v9+++OB....r++++G++++O1++++w++++i8+++O9++++;
#X connect 167 0 207 0 empty;
#X connect 168 0 215 1 empty;
#X connect 169 0 213 0 48.................G....rC...vA....6.....1+++OS....f8+++yD...PY++++;
#X connect 170 0 216 0 empty;
#X connect 172 0 151 0 32.................D....D++++OA....w++++uC....;
#X connect 173 0 97 0 80.................D....nF....A....pA...T9+++uZ....k++++qF....u++++pA...v6+++uZ....a9+++qG...vl++++5A....5+++O;
#X connect 174 0 197 0 48.................D....D++++OA....w++++u9+++ew++++q++++W7+++u6++++;
#X connect 175 0 144 0 empty;
#X connect 176 0 175 0 empty;
#X connect 177 0 147 0 empty;
#X connect 180 0 185 0 empty;
#X connect 181 0 183 0 empty;
#X connect 181 0 205 0 32.................C....fZ...v.....nF...zA....;
#X connect 182 0 194 0 empty;
#X connect 183 0 185 0 32.................G....j7++++A....I++++2.....;
#X connect 184 0 181 0 48.................C....H+++++.....x++++u9++++0++++q++++e8++++6++++;
#X connect 185 0 187 0 48.................D....nI....A....ZB...b9+++Os....m++++SK...P6++++;
#X connect 186 0 24 0 empty;
#X connect 186 1 23 0 empty;
#X connect 186 2 17 0 empty;
#X connect 186 3 18 0 empty;
#X connect 186 4 19 0 empty;
#X connect 186 5 20 0 empty;
#X connect 186 6 21 0 empty;
#X connect 186 7 22 0 empty;
#X connect 186 8 32 0 empty;
#X connect 186 9 31 0 empty;
#X connect 186 10 25 0 empty;
#X connect 186 11 26 0 empty;
#X connect 186 12 27 0 empty;
#X connect 186 13 28 0 empty;
#X connect 186 14 29 0 empty;
#X connect 186 15 30 0 empty;
#X connect 187 0 186 0 32.................G....zu++++A....86+++m.....;
#X connect 188 0 187 0 48.................E....z9+++eA....s++++i9+++ew++++n++++W7+++e6++++;
#X connect 189 0 187 0 48.................E....X7+++eA....F++++i9+++um++++n++++64+++e6++++;
#X connect 190 0 187 0 48.................E.....4+++eA....P9+++i9+++OZ++++n++++i1+++e6++++;
#X connect 191 0 190 0 empty;
#X connect 192 0 193 0 empty;
#X connect 193 0 187 0 32.................G.....7++++A.....++++2.....;
#X connect 194 0 187 0 empty;
#X connect 195 0 187 0 48.................E....v0+++eA....b8+++i9+++OM++++n++++Sy+++e6++++;
#X connect 196 0 195 0 empty;
#X connect 197 0 173 0 empty;
#X connect 198 0 135 0 empty;
#X connect 199 0 198 0 empty;
#X connect 200 0 202 0 empty;
#X connect 201 0 143 1 empty;
#X connect 202 0 201 0 empty;
#X connect 203 0 198 1 empty;
#X connect 204 0 202 1 empty;
#X connect 205 0 197 0 empty;
#X connect 207 0 146 0 48.................J....LI...fB....SB...7z+++Oo....O8+++SJ...PV++++;
#X connect 208 0 207 1 empty;
#X connect 209 0 207 2 empty;
#X connect 210 0 212 1 48.................B....L++++u.....y++++q9+++u0++++p++++a8+++e6++++;
#X connect 211 0 212 2 48.................B....L++++u.....y++++e9++++r++++m++++O6+++e6++++;
#X connect 212 0 145 0 empty;
#X connect 213 0 167 0 empty;
#X connect 214 0 215 0 48.................G....PB...vA....j....f9++++M....n++++eC...P6++++;
#X connect 215 0 169 0 48.................G....XB...vA....l....f9++++O....n+++++C...P6++++;
#X connect 216 0 169 1 empty;
#X connect 217 0 213 1 empty;
#X restore 390 100 pd sequence-a;
#X f 12;
#X obj 390 180 clip~ -0.1 0.1;
#X obj 610 320 giga.rev~;
#X obj 616 50 vradio 15 1 1 10 empty empty empty 0 -8 0 10 #191919 #ffffff #000000 5;
#N canvas 728 150 712 728 presets 1;
#X obj 93 11 inlet;
#X text 529 385 bathroom;
#X text 552 345 living room;
#X msg 93 429 size 40 \, decay 4 \, damp 0.9 \, bw 0.75 \, dry 1 \, early 0.795 \, late 0.04;
#X text 501 428 "quick fix";
#X msg 214 145 size 200 \, decay 9 \, damp 0.7 \, bw 0.8 \, dry 0.1 \, early 0.18 \, late 0.4, f 55;
#X obj 93 47 select 0 1 2 3 4 5 6 7 8 9;
#X msg 144 310 size 50 \, decay 1.5 \, damp 0.1 \, bw 0.75 \, dry 0.84 \, early 0.31 \, late 0.1, f 57;
#X msg 162 269 size 40 \, decay 20 \, damp 0.5 \, bw 0.75 \, dry 1 \, early 0.31 \, late 0.031, f 57;
#X msg 179 227 size 6 \, decay 15 \, damp 0.9 \, bw 0.1 \, dry 0.31 \, early 0.31 \, late 0.31, f 55;
#X text 622 184 church;
#X text 650 105 cathedral;
#X text 678 73 canyon;
#X msg 248 74 size 300 \, decay 103 \, damp 0.43 \, bw 0.51 \, dry 0.55 \, early 0.05 \, late 0.1, f 60;
#X msg 231 106 size 143 \, decay 7 \, damp 0.71 \, bw 0.34 \, dry 0.7 \, early 0.28 \, late 0.35, f 58;
#X msg 196 185 size 80 \, decay 4.85 \, damp 0.41 \, bw 0.69 \, dry 0.7 \, early 0.35 \, late 0.28, f 60;
#X msg 127 346 size 16 \, decay 1.24 \, damp 0.18 \, bw 0.95 \, dry 0.7 \, early 0.18 \, late 0.14, f 59;
#X msg 110 386 size 5 \, decay 0.6 \, damp 0.62 \, bw 0.48 \, dry 0.5 \, early 0.25 \, late 0.25, f 58;
#X obj 244 494 outlet;
#X text 609 144 last row of the church;
#X text 577 226 singing in the sewer;
#X text 571 268 nice hall effect;
#X text 552 309 bright small hall;
#X text 163 10 stolen from ELSE help file :3;
#X connect 0 0 6 0 empty;
#X connect 3 0 18 0 empty;
#X connect 5 0 18 0 empty;
#X connect 6 0 3 0 empty;
#X connect 6 1 17 0 empty;
#X connect 6 2 16 0 empty;
#X connect 6 3 7 0 empty;
#X connect 6 4 8 0 empty;
#X connect 6 5 9 0 empty;
#X connect 6 6 15 0 empty;
#X connect 6 7 5 0 empty;
#X connect 6 8 14 0 empty;
#X connect 6 9 13 0 empty;
#X connect 7 0 18 0 empty;
#X connect 8 0 18 0 empty;
#X connect 9 0 18 0 empty;
#X connect 13 0 18 0 empty;
#X connect 14 0 18 0 empty;
#X connect 15 0 18 0 empty;
#X connect 16 0 18 0 empty;
#X connect 17 0 18 0 empty;
#X restore 610 210 pd presets;
#X text 632 60 - bathroom, f 13;
#X text 632 44 - "quick fix";
#X text 632 75 - living room;
#X text 632 135 - church;
#X text 632 106 - nice hall effect;
#X text 632 150 - last row of the church;
#X text 632 165 - cathedral;
#X text 632 180 - canyon;
#X text 632 120 - singing in the sewer;
#X text 632 90 - bright small hall;
#X msg 630 280 wet \$1;
#X msg 700 280 dry \$1;
#X obj 700 240 nbx 5 33 0 1 0 0 empty empty empty 0 -8 0 10 #191919 #ffffff #ffffff 0 256;
#X obj 630 240 nbx 5 33 0 1 0 0 empty empty empty 0 -8 0 10 #191919 #ffffff #ffffff 0 256;
#X text 10 29 0;
#X text 10 149 4;
#X text 10 269 8;
#X text 5 389 12;
#N canvas 0 50 450 300 shared-seq 1;
#X obj 59 56 calc-node 0;
#X obj 59 82 calc-node 1;
#X obj 59 107 calc-node 2;
#X obj 59 132 calc-node 3;
#X obj 59 156 calc-node 4;
#X obj 59 182 calc-node 5;
#X obj 59 208 calc-node 6;
#X obj 59 232 calc-node 7;
#X obj 152 56 calc-node 8;
#X obj 152 82 calc-node 9;
#X obj 152 107 calc-node 10;
#X obj 152 132 calc-node 11;
#X obj 152 156 calc-node 12;
#X obj 152 182 calc-node 13;
#X obj 152 208 calc-node 14;
#X obj 152 232 calc-node 15;
#X obj 59 352 hearts;
#X text 59 259 for every step in the sequence \, the value:;
#X text 59 279 is received into every sequence in the bottom row of numboxes there. which is then added to the offset of that sequence (times its multiplier) and that's how the melody is generated for each sequenc, f 58;
#X text 309 259 t + x * x-mult + y * y-mult + z * z-mult;
#X restore 280 520 pd shared-seq;
#X obj 590 460 writesf~ 2;
#X msg 620 380 start;
#X msg 670 380 stop;
#X obj 480 380 *~ 1;
#X obj 540 380 *~ 1;
#X msg 720 380 open amaranth-230.wav;
#X connect 75 0 76 0 empty;
#X connect 76 0 77 0 empty;
#X connect 77 0 102 0 empty;
#X connect 77 1 103 0 empty;
#X connect 78 0 79 0 empty;
#X connect 79 0 77 0 empty;
#X connect 90 0 77 0 empty;
#X connect 91 0 77 0 empty;
#X connect 92 0 91 0 empty;
#X connect 93 0 90 0 empty;
#X connect 100 0 99 0 empty;
#X connect 101 0 99 0 empty;
#X connect 102 0 71 0 empty;
#X connect 102 0 99 0 empty;
#X connect 103 0 71 1 empty;
#X connect 103 0 99 1 empty;
#X connect 104 0 99 0 empty;
