#N canvas 827 239 527 327 12;
#X obj 50 20 nbx 4 20 -36 36 0 1 t-0 t empty 0 -8 0 10 #191919 #ffffff #ffffff 0 256;
#X obj 98 20 nbx 4 20 -36 36 0 1 t-1 t empty 0 -8 0 10 #191919 #ffffff #ffffff 0 256;
#X obj 146 20 nbx 4 20 -36 36 0 1 t-2 t empty 0 -8 0 10 #191919 #ffffff #ffffff 0 256;
#X obj 194 20 nbx 4 20 -36 36 0 1 t-3 t empty 0 -8 0 10 #191919 #ffffff #ffffff 0 256;
#X obj 242 20 nbx 4 20 -36 36 0 1 t-4 t empty 0 -8 0 10 #191919 #ffffff #ffffff 0 256;
#X obj 290 20 nbx 4 20 -36 36 0 1 t-5 t empty 0 -8 0 10 #191919 #ffffff #ffffff 0 256;
#X obj 338 20 nbx 4 20 -36 36 0 1 t-6 t empty 0 -8 0 10 #191919 #ffffff #ffffff 0 256;
#X obj 386 20 nbx 4 20 -36 36 0 1 t-7 t empty 0 -8 0 10 #191919 #ffffff #ffffff 0 256;
#X obj 434 20 nbx 4 20 -36 36 0 1 t-8 t empty 0 -8 0 10 #191919 #ffffff #ffffff 0 256;
#X obj 482 20 nbx 4 20 -36 36 0 1 t-9 t empty 0 -8 0 10 #191919 #ffffff #ffffff 0 256;
#X obj 530 20 nbx 4 20 -36 36 0 1 t-10 t empty 0 -8 0 10 #191919 #ffffff #ffffff 0 256;
#X obj 578 20 nbx 4 20 -36 36 0 1 t-11 t empty 0 -8 0 10 #191919 #ffffff #ffffff 0 256;
#X obj 626 20 nbx 4 20 -36 36 0 1 t-12 t empty 0 -8 0 10 #191919 #ffffff #ffffff 0 256;
#X obj 674 20 nbx 4 20 -36 36 0 1 t-13 t empty 0 -8 0 10 #191919 #ffffff #ffffff 0 256;
#X obj 722 20 nbx 4 20 -36 36 0 1 t-14 t empty 0 -8 0 10 #191919 #ffffff #ffffff 0 256;
#X obj 770 20 nbx 4 20 -36 36 0 1 t-15 t empty 0 -8 0 10 #191919 #ffffff #ffffff 0 256;
#X obj 50 50 nbx 4 20 -24 24 0 1 x-0 x empty 0 -8 0 10 #191919 #ffffff #ffffff 0 256;
#X obj 98 50 nbx 4 20 -24 24 0 1 x-1 x empty 0 -8 0 10 #191919 #ffffff #ffffff 0 256;
#X obj 146 50 nbx 4 20 -24 24 0 1 x-2 x empty 0 -8 0 10 #191919 #ffffff #ffffff 0 256;
#X obj 194 50 nbx 4 20 -24 24 0 1 x-3 x empty 0 -8 0 10 #191919 #ffffff #ffffff 0 256;
#X obj 242 50 nbx 4 20 -24 24 0 1 x-4 x empty 0 -8 0 10 #191919 #ffffff #ffffff 0 256;
#X obj 290 50 nbx 4 20 -24 24 0 1 x-5 x empty 0 -8 0 10 #191919 #ffffff #ffffff 0 256;
#X obj 338 50 nbx 4 20 -24 24 0 1 x-6 x empty 0 -8 0 10 #191919 #ffffff #ffffff 0 256;
#X obj 386 50 nbx 4 20 -24 24 0 1 x-7 x empty 0 -8 0 10 #191919 #ffffff #ffffff 0 256;
#X obj 434 50 nbx 4 20 -24 24 0 1 x-8 x empty 0 -8 0 10 #191919 #ffffff #ffffff 0 256;
#X obj 482 50 nbx 4 20 -24 24 0 1 x-9 x empty 0 -8 0 10 #191919 #ffffff #ffffff 0 256;
#X obj 530 50 nbx 4 20 -24 24 0 1 x-10 x empty 0 -8 0 10 #191919 #ffffff #ffffff 0 256;
#X obj 578 50 nbx 4 20 -24 24 0 1 x-11 x empty 0 -8 0 10 #191919 #ffffff #ffffff 0 256;
#X obj 626 50 nbx 4 20 -24 24 0 1 x-12 x empty 0 -8 0 10 #191919 #ffffff #ffffff 0 256;
#X obj 674 50 nbx 4 20 -24 24 0 1 x-13 x empty 0 -8 0 10 #191919 #ffffff #ffffff 0 256;
#X obj 722 50 nbx 4 20 -24 24 0 1 x-14 x empty 0 -8 0 10 #191919 #ffffff #ffffff 0 256;
#X obj 770 50 nbx 4 20 -24 24 0 1 x-15 x empty 0 -8 0 10 #191919 #ffffff #ffffff 0 256;
#X obj 50 80 nbx 4 20 -24 24 0 1 y-0 y empty 0 -8 0 10 #191919 #ffffff #ffffff 0 256;
#X obj 98 80 nbx 4 20 -24 24 0 1 y-1 y empty 0 -8 0 10 #191919 #ffffff #ffffff 0 256;
#X obj 146 80 nbx 4 20 -24 24 0 1 y-2 y empty 0 -8 0 10 #191919 #ffffff #ffffff 0 256;
#X obj 194 80 nbx 4 20 -24 24 0 1 y-3 y empty 0 -8 0 10 #191919 #ffffff #ffffff 0 256;
#X obj 242 80 nbx 4 20 -24 24 0 1 y-4 y empty 0 -8 0 10 #191919 #ffffff #ffffff 0 256;
#X obj 290 80 nbx 4 20 -24 24 0 1 y-5 y empty 0 -8 0 10 #191919 #ffffff #ffffff 0 256;
#X obj 338 80 nbx 4 20 -24 24 0 1 y-6 y empty 0 -8 0 10 #191919 #ffffff #ffffff 0 256;
#X obj 386 80 nbx 4 20 -24 24 0 1 y-7 y empty 0 -8 0 10 #191919 #ffffff #ffffff 0 256;
#X obj 434 80 nbx 4 20 -24 24 0 1 y-8 y empty 0 -8 0 10 #191919 #ffffff #ffffff 0 256;
#X obj 482 80 nbx 4 20 -24 24 0 1 y-9 y empty 0 -8 0 10 #191919 #ffffff #ffffff 0 256;
#X obj 530 80 nbx 4 20 -24 24 0 1 y-10 y empty 0 -8 0 10 #191919 #ffffff #ffffff 0 256;
#X obj 578 80 nbx 4 20 -24 24 0 1 y-11 y empty 0 -8 0 10 #191919 #ffffff #ffffff 0 256;
#X obj 626 80 nbx 4 20 -24 24 0 1 y-12 y empty 0 -8 0 10 #191919 #ffffff #ffffff 0 256;
#X obj 674 80 nbx 4 20 -24 24 0 1 y-13 y empty 0 -8 0 10 #191919 #ffffff #ffffff 0 256;
#X obj 722 80 nbx 4 20 -24 24 0 1 y-14 y empty 0 -8 0 10 #191919 #ffffff #ffffff 0 256;
#X obj 770 80 nbx 4 20 -24 24 0 1 y-15 y empty 0 -8 0 10 #191919 #ffffff #ffffff 0 256;
#X obj 50 110 nbx 4 20 -24 24 0 1 z-0 z empty 0 -8 0 10 #191919 #ffffff #ffffff 0 256;
#X obj 98 110 nbx 4 20 -24 24 0 1 z-1 z empty 0 -8 0 10 #191919 #ffffff #ffffff 0 256;
#X obj 146 110 nbx 4 20 -24 24 0 1 z-2 z empty 0 -8 0 10 #191919 #ffffff #ffffff 0 256;
#X obj 194 110 nbx 4 20 -24 24 0 1 z-3 z empty 0 -8 0 10 #191919 #ffffff #ffffff 0 256;
#X obj 242 110 nbx 4 20 -24 24 0 1 z-4 z empty 0 -8 0 10 #191919 #ffffff #ffffff 0 256;
#X obj 290 110 nbx 4 20 -24 24 0 1 z-5 z empty 0 -8 0 10 #191919 #ffffff #ffffff 0 256;
#X obj 338 110 nbx 4 20 -24 24 0 1 z-6 z empty 0 -8 0 10 #191919 #ffffff #ffffff 0 256;
#X obj 386 110 nbx 4 20 -24 24 0 1 z-7 z empty 0 -8 0 10 #191919 #ffffff #ffffff 0 256;
#X obj 434 110 nbx 4 20 -24 24 0 1 z-8 z empty 0 -8 0 10 #191919 #ffffff #ffffff 0 256;
#X obj 482 110 nbx 4 20 -24 24 0 1 z-9 z empty 0 -8 0 10 #191919 #ffffff #ffffff 0 256;
#X obj 530 110 nbx 4 20 -24 24 0 1 z-10 z empty 0 -8 0 10 #191919 #ffffff #ffffff 0 256;
#X obj 578 110 nbx 4 20 -24 24 0 1 z-11 z empty 0 -8 0 10 #191919 #ffffff #ffffff 0 256;
#X obj 626 110 nbx 4 20 -24 24 0 1 z-12 z empty 0 -8 0 10 #191919 #ffffff #ffffff 0 256;
#X obj 674 110 nbx 4 20 -24 24 0 1 z-13 z empty 0 -8 0 10 #191919 #ffffff #ffffff 0 256;
#X obj 722 110 nbx 4 20 -24 24 0 1 z-14 z empty 0 -8 0 10 #191919 #ffffff #ffffff 0 256;
#X obj 770 110 nbx 4 20 -24 24 0 1 z-15 z empty 0 -8 0 10 #191919 #ffffff #ffffff 0 256;
#X text 20 19 t, f 2;
#X text 20 49 x, f 2;
#X text 20 79 y, f 2;
#X text 20 109 z, f 2;
#X obj 830 50 nbx 4 20 0 128 0 1 x-mult x mult 0 -4 0 10 #191919 #ffffff #ffffff 0 256;
#X obj 830 80 nbx 4 20 0 128 0 1 y-mult y mult 0 -4 0 10 #191919 #ffffff #ffffff 0 256;
#X obj 830 110 nbx 4 20 0 128 0 1 z-mult z mult 0 -4 0 10 #191919 #ffffff #ffffff 0 256;
#N canvas 0 50 450 300 main-seq 1;
#X obj 59 56 calc-node 0;
#X obj 59 82 calc-node 1;
#X obj 59 107 calc-node 2;
#X obj 59 132 calc-node 3;
#X obj 59 156 calc-node 4;
#X obj 59 182 calc-node 5;
#X obj 59 208 calc-node 6;
#X obj 59 232 calc-node 7;
#X obj 152 56 calc-node 8;
#X obj 152 82 calc-node 9;
#X obj 152 107 calc-node 10;
#X obj 152 132 calc-node 11;
#X obj 152 156 calc-node 12;
#X obj 152 182 calc-node 13;
#X obj 152 208 calc-node 14;
#X obj 152 232 calc-node 15;
#X obj 59 352 hearts;
#X text 59 276 you're not supposed to fuck with this! leave it! it just calculates the transposition and multiplier for every step of the shared sequence (received into every voice's bottom row of float boxes), f 57;
#X restore 50 150 pd main-seq;
#X msg 783 180 0, f 5;
#X obj 830 180 nbx 4 20 -1e+37 1e+37 0 0 empty empty empty 0 -8 0 10 #191919 #ffffff #ffffff 0 256;
#X obj 364 416 dac~;
#X obj 30 470 thanks;
#X obj 830 221 s t;
#X msg 783 250 0, f 5;
#X obj 830 250 nbx 4 20 -1e+37 1e+37 0 0 empty empty empty 0 -8 0 10 #191919 #ffffff #ffffff 0 256;
#X obj 830 291 s x;
#X msg 783 320 0, f 5;
#X obj 830 320 nbx 4 20 -1e+37 1e+37 0 0 empty empty empty 0 -8 0 10 #191919 #ffffff #ffffff 0 256;
#X msg 783 390 0, f 5;
#X obj 830 390 nbx 4 20 -1e+37 1e+37 0 0 empty empty empty 0 -8 0 10 #191919 #ffffff #ffffff 0 256;
#X obj 830 361 s y;
#X obj 830 431 s z;
#X obj 30 500 support;
#X text 766 499 drink some water!, f 16;
#N canvas 0 50 450 300 sequence-a 1;
#X obj 26 392 nbx 4 20 -1000 1000 0 1 empty m-0 empty 0 -8 0 10 #191919 #ffffff #ffffff 0 256;
#X obj 76 393 nbx 4 20 -1000 1000 0 1 empty m-1 empty 0 -8 0 10 #191919 #ffffff #ffffff 0 256;
#X obj 126 393 nbx 4 20 -1000 1000 0 1 empty m-2 empty 0 -8 0 10 #191919 #ffffff #ffffff 0 256;
#X obj 176 393 nbx 4 20 -1000 1000 0 1 empty m-3 empty 0 -8 0 10 #191919 #ffffff #ffffff 0 256;
#X obj 226 393 nbx 4 20 -1000 1000 0 1 empty m-4 empty 0 -8 0 10 #191919 #ffffff #ffffff 0 256;
#X obj 276 393 nbx 4 20 -1000 1000 0 1 empty m-5 empty 0 -8 0 10 #191919 #ffffff #ffffff 0 256;
#X obj 326 393 nbx 4 20 -1000 1000 0 1 empty m-6 empty 0 -8 0 10 #191919 #ffffff #ffffff 0 256;
#X obj 376 393 nbx 4 20 -1000 1000 0 1 empty m-7 empty 0 -8 0 10 #191919 #ffffff #ffffff 0 256;
#X obj 426 393 nbx 4 20 -1000 1000 0 1 empty m-8 empty 0 -8 0 10 #191919 #ffffff #ffffff 0 256;
#X obj 476 393 nbx 4 20 -1000 1000 0 1 empty m-9 empty 0 -8 0 10 #191919 #ffffff #ffffff 0 256;
#X obj 526 393 nbx 4 20 -1000 1000 0 1 empty m-10 empty 0 -8 0 10 #191919 #ffffff #ffffff 0 256;
#X obj 576 393 nbx 4 20 -1000 1000 0 1 empty m-11 empty 0 -8 0 10 #191919 #ffffff #ffffff 0 256;
#X obj 626 392 nbx 4 20 -1000 1000 0 1 empty m-12 empty 0 -8 0 10 #191919 #ffffff #ffffff 0 256;
#X obj 676 393 nbx 4 20 -1000 1000 0 1 empty m-13 empty 0 -8 0 10 #191919 #ffffff #ffffff 0 256;
#X obj 726 393 nbx 4 20 -1000 1000 0 1 empty m-14 empty 0 -8 0 10 #191919 #ffffff #ffffff 0 256;
#X obj 776 393 nbx 4 20 -1000 1000 0 1 empty m-15 empty 0 -8 0 10 #191919 #ffffff #ffffff 0 256;
#X obj 827 339 nbx 4 20 0 128 0 1 empty empty mult 25 26 0 10 #191919 #ffacab #ffffff 8 256;
#X obj 115 130 bng 50 250 50 0 empty empty empty 17 7 0 10 #191919 #ed3b4b #ffffff;
#X obj 165 130 bng 50 250 50 0 empty empty empty 17 7 0 10 #191919 #ff6e1d #ffffff;
#X obj 215 130 bng 50 250 50 0 empty empty empty 17 7 0 10 #191919 #fbcd26 #ffffff;
#X obj 265 130 bng 50 250 50 0 empty empty empty 17 7 0 10 #191919 #53af65 #ffffff;
#X obj 315 130 bng 50 250 50 0 empty empty empty 17 7 0 10 #191919 #2d8ce3 #ffffff;
#X obj 365 130 bng 50 250 50 0 empty empty empty 17 7 0 10 #191919 #6a47b9 #ffffff;
#X obj 65 130 bng 50 250 50 0 empty empty empty 17 7 0 10 #191919 #f5a9b8 #ffffff;
#X obj 15 130 bng 50 250 50 0 empty empty empty 17 7 0 10 #191919 #5bcefa #ffffff;
#X obj 515 130 bng 50 250 50 0 empty empty empty 17 7 0 10 #191919 #ed3b4b #ffffff;
#X obj 565 130 bng 50 250 50 0 empty empty empty 17 7 0 10 #191919 #ff6e1d #ffffff;
#X obj 615 130 bng 50 250 50 0 empty empty empty 17 7 0 10 #191919 #fbcd26 #ffffff;
#X obj 665 130 bng 50 250 50 0 empty empty empty 17 7 0 10 #191919 #53af65 #ffffff;
#X obj 715 130 bng 50 250 50 0 empty empty empty 17 7 0 10 #191919 #2d8ce3 #ffffff;
#X obj 765 130 bng 50 250 50 0 empty empty empty 17 7 0 10 #191919 #6a47b9 #ffffff;
#X obj 465 130 bng 50 250 50 0 empty empty empty 17 7 0 10 #191919 #f5a9b8 #ffffff;
#X obj 415 130 bng 50 250 50 0 empty empty empty 17 7 0 10 #191919 #5bcefa #ffffff;
#X obj 243 64 count 15;
#X obj 27 186 tgl 50 1 empty empty empty 17 7 0 10 #191919 #5bcefa #ffffff 1 1;
#X obj 77 186 tgl 50 1 empty empty empty 17 7 0 10 #191919 #f5a9b8 #ffffff 0 1;
#X obj 127 186 tgl 50 1 empty empty empty 17 7 0 10 #191919 #ed3b4b #ffffff 1 1;
#X obj 177 186 tgl 50 1 empty empty empty 17 7 0 10 #191919 #ff6e1d #ffffff 0 1;
#X obj 227 186 tgl 50 1 empty empty empty 17 7 0 10 #191919 #fbcd26 #ffffff 1 1;
#X obj 277 186 tgl 50 1 empty empty empty 17 7 0 10 #191919 #53af65 #ffffff 1 1;
#X obj 327 186 tgl 50 1 empty empty empty 17 7 0 10 #191919 #2d8ce3 #ffffff 0 1;
#X obj 377 186 tgl 50 1 empty empty empty 17 7 0 10 #191919 #6a47b9 #ffffff 1 1;
#X obj 427 186 tgl 50 1 empty empty empty 17 7 0 10 #191919 #5bcefa #ffffff 1 1;
#X obj 477 186 tgl 50 1 empty empty empty 17 7 0 10 #191919 #f5a9b8 #ffffff 0 1;
#X obj 527 186 tgl 50 1 empty empty empty 17 7 0 10 #191919 #ed3b4b #ffffff 1 1;
#X obj 577 186 tgl 50 1 empty empty empty 17 7 0 10 #191919 #ff6e1d #ffffff 1 1;
#X obj 627 186 tgl 50 1 empty empty empty 17 7 0 10 #191919 #fbcd26 #ffffff 0 1;
#X obj 677 186 tgl 50 1 empty empty empty 17 7 0 10 #191919 #53af65 #ffffff 1 1;
#X obj 727 186 tgl 50 1 empty empty empty 17 7 0 10 #191919 #2d8ce3 #ffffff 1 1;
#X obj 777 186 tgl 50 1 empty empty empty 17 7 0 10 #191919 #6a47b9 #ffffff 0 1;
#X obj 15 63 tgl 50 1 empty empty empty 17 7 0 10 #191919 #ffacab #ffffff 1 1;
#X obj 72 27 * 4;
#X obj 80 97 router 16 15;
#X obj 348 27 nbx 4 18 0 15 0 1 empty empty last\ step 0 -8 0 10 #191919 #ffacab #ffffff 15 256;
#X msg 297 27 0 \$1, f 6;
#X msg 116 27 tempo \$1 permin, f 17;
#X obj 15 29 nbx 4 18 -8000 8000 0 1 empty empty bpm 0 -8 0 10 #191919 #ffacab #ffffff 121 256;
#X obj 26 339 nbx 4 20 -24 24 0 1 empty empty empty 0 -8 0 10 #191919 #ffffff #ffffff 0 256;
#X obj 76 340 nbx 4 20 -24 24 0 1 empty empty empty 0 -8 0 10 #191919 #ffffff #ffffff 0 256;
#X obj 126 340 nbx 4 20 -24 24 0 1 empty empty empty 0 -8 0 10 #191919 #ffffff #ffffff 7 256;
#X obj 176 340 nbx 4 20 -24 24 0 1 empty empty empty 0 -8 0 10 #191919 #ffffff #ffffff 0 256;
#X obj 226 340 nbx 4 20 -24 24 0 1 empty empty empty 0 -8 0 10 #191919 #ffffff #ffffff -1 256;
#X obj 276 340 nbx 4 20 -24 24 0 1 empty empty empty 0 -8 0 10 #191919 #ffffff #ffffff 8 256;
#X obj 326 340 nbx 4 20 -24 24 0 1 empty empty empty 0 -8 0 10 #191919 #ffffff #ffffff 0 256;
#X obj 376 340 nbx 4 20 -24 24 0 1 empty empty empty 0 -8 0 10 #191919 #ffffff #ffffff 0 256;
#X obj 426 340 nbx 4 20 -24 24 0 1 empty empty empty 0 -8 0 10 #191919 #ffffff #ffffff 11 256;
#X obj 476 340 nbx 4 20 -24 24 0 1 empty empty empty 0 -8 0 10 #191919 #ffffff #ffffff 0 256;
#X obj 526 340 nbx 4 20 -24 24 0 1 empty empty empty 0 -8 0 10 #191919 #ffffff #ffffff 24 256;
#X obj 576 340 nbx 4 20 -24 24 0 1 empty empty empty 0 -8 0 10 #191919 #ffffff #ffffff 0 256;
#X obj 626 339 nbx 4 20 -24 24 0 1 empty empty empty 0 -8 0 10 #191919 #ffffff #ffffff 0 256;
#X obj 676 340 nbx 4 20 -24 24 0 1 empty empty empty 0 -8 0 10 #191919 #ffffff #ffffff 0 256;
#X obj 726 340 nbx 4 20 -24 24 0 1 empty empty empty 0 -8 0 10 #191919 #ffffff #ffffff 0 256;
#X obj 776 340 nbx 4 20 -24 24 0 1 empty empty empty 0 -8 0 10 #191919 #ffffff #ffffff 0 256;
#X obj 15 369 *;
#X obj 65 369 *;
#X obj 115 369 *;
#X obj 165 369 *;
#X obj 215 369 *;
#X obj 265 369 *;
#X obj 315 369 *;
#X obj 365 369 *;
#X obj 415 369 *;
#X obj 465 369 *;
#X obj 515 369 *;
#X obj 565 369 *;
#X obj 615 369 *;
#X obj 665 369 *;
#X obj 715 369 *;
#X obj 765 369 *;
#X obj 15 419 +;
#X obj 65 419 +;
#X obj 115 419 +;
#X obj 165 419 +;
#X obj 215 419 +;
#X obj 265 419 +;
#X obj 315 419 +;
#X obj 365 419 +;
#X obj 415 419 +;
#X obj 465 419 +;
#X obj 515 419 +;
#X obj 565 419 +;
#X obj 615 419 +;
#X obj 665 419 +;
#X obj 715 419 +;
#X obj 765 419 +;
#X obj 677 13 function 200 100 empty env 0 1 25 25 25 255 255 255 1 0 0 0 0 3.19502 0.925532 3.83403 0.659575 5.11201 0.478723 5.11204 0.329787 9.58509 0.170213 12.7801 0.0851064 84.3487 0;
#X msg 243 27 reset, f 7;
#X obj 454 13 inlet;
#X obj 493 13 inlet;
#X obj 532 13 inlet;
#X obj 811 618 outlet;
#X obj 865 618 outlet;
#X obj 919 618 outlet;
#X obj 973 618 outlet;
#X obj 115 277 bng 50 250 50 0 empty empty empty 17 7 0 10 #191919 #ed3b4b #ffffff;
#X obj 165 277 bng 50 250 50 0 empty empty empty 17 7 0 10 #191919 #ff6e1d #ffffff;
#X obj 215 277 bng 50 250 50 0 empty empty empty 17 7 0 10 #191919 #fbcd26 #ffffff;
#X obj 265 277 bng 50 250 50 0 empty empty empty 17 7 0 10 #191919 #53af65 #ffffff;
#X obj 315 277 bng 50 250 50 0 empty empty empty 17 7 0 10 #191919 #2d8ce3 #ffffff;
#X obj 365 277 bng 50 250 50 0 empty empty empty 17 7 0 10 #191919 #6a47b9 #ffffff;
#X obj 65 277 bng 50 250 50 0 empty empty empty 17 7 0 10 #191919 #f5a9b8 #ffffff;
#X obj 15 277 bng 50 250 50 0 empty empty empty 17 7 0 10 #191919 #5bcefa #ffffff;
#X obj 515 277 bng 50 250 50 0 empty empty empty 17 7 0 10 #191919 #ed3b4b #ffffff;
#X obj 565 277 bng 50 250 50 0 empty empty empty 17 7 0 10 #191919 #ff6e1d #ffffff;
#X obj 615 277 bng 50 250 50 0 empty empty empty 17 7 0 10 #191919 #fbcd26 #ffffff;
#X obj 665 277 bng 50 250 50 0 empty empty empty 17 7 0 10 #191919 #53af65 #ffffff;
#X obj 715 277 bng 50 250 50 0 empty empty empty 17 7 0 10 #191919 #2d8ce3 #ffffff;
#X obj 765 277 bng 50 250 50 0 empty empty empty 17 7 0 10 #191919 #6a47b9 #ffffff;
#X obj 465 277 bng 50 250 50 0 empty empty empty 17 7 0 10 #191919 #f5a9b8 #ffffff;
#X obj 415 277 bng 50 250 50 0 empty empty empty 17 7 0 10 #191919 #5bcefa #ffffff;
#X obj 15 244 router, f 7;
#X obj 65 244 router;
#X obj 115 244 router;
#X obj 165 244 router;
#X obj 215 244 router;
#X obj 265 244 router;
#X obj 315 244 router;
#X obj 365 244 router;
#X obj 415 244 router;
#X obj 465 244 router;
#X obj 515 244 router;
#X obj 565 244 router;
#X obj 615 244 router;
#X obj 665 244 router;
#X obj 715 244 router;
#X obj 765 244 router;
#X obj 747 618 outlet~;
#X obj 571 13 inlet;
#X obj 589 521 nbx 6 20 0 20000 0 1 empty empty empty 0 -4 0 10 #191919 #ffffff #ffffff 2668.17 256;
#X obj 655 521 nbx 4 20 0 1 0 1 empty empty filter1-q 0 -4 0 10 #191919 #ffffff #ffffff 0.97 256;
#X obj 770 521 nbx 6 20 0 20000 0 1 empty empty empty 0 -4 0 10 #191919 #ffffff #ffffff 286.52 256;
#X obj 836 521 nbx 4 20 0 1 0 1 empty empty filter2-q 0 -4 0 10 #191919 #ffffff #ffffff 0.42 256;
#X obj 577 461 nbx 4 20 0 32 0 1 empty empty gain-i 0 -4 0 10 #191919 #ffffff #ffffff 1.7 256;
#X obj 642 567 nbx 4 20 -1 0 0 1 empty empty clip\ [ 0 -4 0 10 #191919 #ffffff #ffffff -0.5 256;
#X obj 692 567 nbx 4 20 0 1 0 1 empty empty clip\ ] 0 -4 0 10 #191919 #ffffff #ffffff 0.5 256;
#X obj 758 461 nbx 4 20 0 32 0 1 empty empty gain-f 0 -4 0 10 #191919 #ffffff #ffffff 1.1 256;
#X obj 566 555 svfilter~;
#X obj 747 555 svfilter~;
#X obj 877 338 envgen~, f 9;
#X obj 566 490 *~;
#X obj 747 591 *~;
#X obj 747 490 *~;
#X obj 15 452 * 1;
#X obj 44 537 nbx 4 18 0 256 0 1 empty empty max -38 9 0 12 #191919 #ffffff #ffffff 36 256;
#X obj 256 557 autotune2;
#X obj 304 532 op * 100;
#X obj 395 589 cents2ratio;
#X obj 15 614 * 100;
#X msg 322 479 0 2 3 5 7 8 10;
#X msg 346 504 0 2 4 5 7 9 11;
#X obj 246 464 tgl 50 1 empty empty quantize 0 -9 0 12 #191919 #ffacab #ffffff 0 1;
#X obj 232 530 router;
#X obj 79 571 fold;
#X obj 15 571 wrap2;
#X obj 147 571 clip;
#X obj 29 513 nbx 4 18 -256 0 0 1 empty empty min -21 9 0 12 #191919 #ffffff #ffffff -13 256;
#X obj 108 537 nbx 4 18 0 256 0 1 empty empty empty 0 -8 0 10 #191919 #ffffff #ffffff 36 256;
#X obj 93 513 nbx 4 18 -256 0 0 1 empty empty empty 0 -8 0 10 #191919 #ffffff #ffffff 0 256;
#X obj 176 537 nbx 4 18 0 256 0 1 empty empty empty 0 -8 0 10 #191919 #ffffff #ffffff 36 256;
#X obj 161 513 nbx 4 18 -256 0 0 1 empty empty empty 0 -8 0 10 #191919 #ffffff #ffffff 0 256;
#X obj 15 482 router 3;
#X obj 91 472 hradio 20 1 1 3 empty empty limit\ mode 0 -8 0 10 #191919 #ffffff #ffffff 0;
#X obj 395 613 * 261.626;
#X obj 282 582 nbx 4 18 0 12 0 1 empty empty semi\ shift 56 9 0 12 #191919 #ffffff #ffffff 0 256;
#X obj 232 613 +;
#X obj 282 605 * 100;
#X obj 395 560 +;
#X obj 445 537 nbx 4 18 -8 8 0 1 empty empty oct\ shift 57 8 0 12 #191919 #ffffff #ffffff 3 256;
#X obj 445 560 * 1200;
#X text 419 471 minor, f 6;
#X text 445 496 major, f 6;
#X text 462 453 chromatic, f 10;
#X msg 304 454 0 1 2 3 4 5 6 7 8 9 10 11, f 22;
#X msg 585 87 duration \$1;
#X obj 585 54 * 1000;
#X obj 529 87 /;
#X obj 478 56 t b f;
#X msg 478 83 60;
#X obj 521 54 nbx 4 18 0.001 16 0 0 empty empty empty 0 -8 0 10 #191919 #ffffff #ffffff 0 256;
#X msg 877 288 retrigger \$1;
#X obj 877 261 nbx 4 18 -1e+37 1e+37 0 0 empty empty empty 0 -8 0 10 #191919 #ffffff #ffffff 0 256;
#X obj 500 614 bl.saw~;
#X obj 80 64 metro 1;
#X obj 628 605 clip~;
#X obj 605 490 hsl 100 20 0.01 20000 1 1 empty empty filter1-cf 50 10 0 14 #191919 #ffffff #ffffff 8526 1;
#X obj 786 490 hsl 100 20 0.01 20000 1 1 empty empty filter2-cf 50 10 0 14 #191919 #ffffff #ffffff 7003 1;
#X obj 405 13 inlet~;
#X obj 877 197 switch~;
#X obj 877 160 tgl 25 1 empty empty DSP 0 -7 0 12 #191919 #ff0000 #ffffff 1 1;
#X obj 973 226 nbx 4 18 -1e+37 1e+37 0 1 empty empty empty 0 -8 0 10 #191919 #ffffff #ffffff 1729 256;
#X obj 1025 266 nbx 4 18 -1e+37 1e+37 0 1 empty empty empty 0 -8 0 10 #191919 #ffffff #ffffff 121 256;
#X obj 973 187 bangdiv 10, f 11;
#X obj 1025 226 bangdiv 2;
#X connect 0 0 89 1 empty;
#X connect 1 0 90 1 empty;
#X connect 2 0 91 1 empty;
#X connect 3 0 92 1 empty;
#X connect 4 0 93 1 empty;
#X connect 5 0 94 1 empty;
#X connect 6 0 95 1 empty;
#X connect 7 0 96 1 empty;
#X connect 8 0 97 1 empty;
#X connect 9 0 98 1 empty;
#X connect 10 0 99 1 empty;
#X connect 11 0 100 1 empty;
#X connect 12 0 101 1 empty;
#X connect 13 0 102 1 empty;
#X connect 14 0 103 1 empty;
#X connect 15 0 104 1 empty;
#X connect 16 0 88 0 empty;
#X connect 16 0 87 0 empty;
#X connect 16 0 86 0 empty;
#X connect 16 0 85 0 empty;
#X connect 16 0 84 0 empty;
#X connect 16 0 83 0 empty;
#X connect 16 0 82 0 empty;
#X connect 16 0 81 0 empty;
#X connect 16 0 80 0 empty;
#X connect 16 0 79 0 empty;
#X connect 16 0 78 0 empty;
#X connect 16 0 77 0 empty;
#X connect 16 0 76 0 empty;
#X connect 16 0 75 0 empty;
#X connect 16 0 74 0 empty;
#X connect 16 0 73 0 empty;
#X connect 17 0 132 0 empty;
#X connect 18 0 133 0 empty;
#X connect 19 0 134 0 empty;
#X connect 20 0 135 0 empty;
#X connect 21 0 136 0 empty;
#X connect 22 0 137 0 empty;
#X connect 23 0 131 0 empty;
#X connect 24 0 130 0 empty;
#X connect 25 0 140 0 empty;
#X connect 26 0 141 0 empty;
#X connect 27 0 142 0 empty;
#X connect 28 0 143 0 empty;
#X connect 29 0 144 0 empty;
#X connect 30 0 145 0 empty;
#X connect 31 0 139 0 empty;
#X connect 32 0 138 0 empty;
#X connect 33 0 52 1 32.................F....PF...fA....jA...z.....;
#X connect 34 0 130 1 empty;
#X connect 35 0 131 1 empty;
#X connect 36 0 132 1 empty;
#X connect 37 0 133 1 empty;
#X connect 38 0 134 1 empty;
#X connect 39 0 135 1 empty;
#X connect 40 0 136 1 empty;
#X connect 41 0 137 1 empty;
#X connect 42 0 138 1 empty;
#X connect 43 0 139 1 empty;
#X connect 44 0 140 1 empty;
#X connect 45 0 141 1 empty;
#X connect 46 0 142 1 empty;
#X connect 47 0 143 1 empty;
#X connect 48 0 144 1 empty;
#X connect 49 0 145 1 empty;
#X connect 50 0 202 0 48.................E....vB...PA....r....r7+++eP....K++++GD...Pz++++;
#X connect 51 0 55 0 48.................D....zA....A....c....b9+++OK....m++++yB...P6++++;
#X connect 51 0 196 0 32.................G....XY...vA....VF...j.....;
#X connect 52 0 24 0 empty;
#X connect 52 1 23 0 empty;
#X connect 52 2 17 0 empty;
#X connect 52 3 18 0 empty;
#X connect 52 4 19 0 empty;
#X connect 52 5 20 0 empty;
#X connect 52 6 21 0 empty;
#X connect 52 7 22 0 empty;
#X connect 52 8 32 0 empty;
#X connect 52 9 31 0 empty;
#X connect 52 10 25 0 empty;
#X connect 52 11 26 0 empty;
#X connect 52 12 27 0 empty;
#X connect 52 13 28 0 empty;
#X connect 52 14 29 0 empty;
#X connect 52 15 30 0 empty;
#X connect 53 0 54 0 48.................E....H++++eA....x++++q9+++uy++++p++++67++++6++++;
#X connect 54 0 33 1 32.................M....D++++eC....w++++GA....;
#X connect 55 0 202 0 32.................M....z8+++eC....c++++GA....;
#X connect 56 0 51 0 48.................E....bB...PA....m....b9+++eN....m++++mC...P6++++;
#X connect 57 0 73 1 empty;
#X connect 58 0 74 1 empty;
#X connect 59 0 75 1 empty;
#X connect 60 0 76 1 empty;
#X connect 61 0 77 1 empty;
#X connect 62 0 78 1 empty;
#X connect 63 0 79 1 empty;
#X connect 64 0 80 1 empty;
#X connect 65 0 81 1 empty;
#X connect 66 0 82 1 empty;
#X connect 67 0 83 1 empty;
#X connect 68 0 84 1 empty;
#X connect 69 0 85 1 empty;
#X connect 70 0 86 1 empty;
#X connect 71 0 87 1 empty;
#X connect 72 0 88 1 empty;
#X connect 73 0 89 0 empty;
#X connect 74 0 90 0 empty;
#X connect 75 0 91 0 empty;
#X connect 76 0 92 0 empty;
#X connect 77 0 93 0 empty;
#X connect 78 0 94 0 empty;
#X connect 79 0 95 0 empty;
#X connect 80 0 96 0 empty;
#X connect 81 0 97 0 empty;
#X connect 82 0 98 0 empty;
#X connect 83 0 99 0 empty;
#X connect 84 0 100 0 empty;
#X connect 85 0 101 0 empty;
#X connect 86 0 102 0 empty;
#X connect 87 0 103 0 empty;
#X connect 88 0 104 0 empty;
#X connect 89 0 162 0 empty;
#X connect 90 0 162 0 empty;
#X connect 91 0 162 0 empty;
#X connect 92 0 162 0 empty;
#X connect 93 0 162 0 empty;
#X connect 94 0 162 0 empty;
#X connect 95 0 162 0 empty;
#X connect 96 0 162 0 empty;
#X connect 97 0 162 0 empty;
#X connect 98 0 162 0 empty;
#X connect 99 0 162 0 empty;
#X connect 100 0 162 0 empty;
#X connect 101 0 162 0 empty;
#X connect 102 0 162 0 empty;
#X connect 103 0 162 0 empty;
#X connect 104 0 162 0 empty;
#X connect 105 0 158 1 48.................D.....J....A....fB....M....7....PC....O...f3....;
#X connect 106 0 33 0 empty;
#X connect 114 0 75 0 empty;
#X connect 114 0 158 0 empty;
#X connect 115 0 76 0 empty;
#X connect 115 0 158 0 empty;
#X connect 116 0 77 0 empty;
#X connect 116 0 158 0 empty;
#X connect 117 0 78 0 empty;
#X connect 117 0 158 0 empty;
#X connect 118 0 79 0 empty;
#X connect 118 0 158 0 empty;
#X connect 119 0 80 0 empty;
#X connect 119 0 158 0 empty;
#X connect 120 0 74 0 empty;
#X connect 120 0 158 0 empty;
#X connect 121 0 73 0 empty;
#X connect 121 0 158 0 empty;
#X connect 122 0 83 0 empty;
#X connect 122 0 158 0 empty;
#X connect 122 0 211 0 empty;
#X connect 123 0 84 0 empty;
#X connect 123 0 158 0 empty;
#X connect 124 0 85 0 empty;
#X connect 124 0 158 0 empty;
#X connect 125 0 86 0 empty;
#X connect 125 0 158 0 empty;
#X connect 126 0 87 0 empty;
#X connect 126 0 158 0 empty;
#X connect 127 0 88 0 empty;
#X connect 127 0 158 0 empty;
#X connect 128 0 82 0 empty;
#X connect 128 0 158 0 empty;
#X connect 129 0 81 0 empty;
#X connect 129 0 158 0 empty;
#X connect 130 1 121 0 empty;
#X connect 131 1 120 0 empty;
#X connect 132 1 114 0 empty;
#X connect 133 1 115 0 empty;
#X connect 134 1 116 0 empty;
#X connect 135 1 117 0 empty;
#X connect 136 1 118 0 empty;
#X connect 137 1 119 0 empty;
#X connect 138 1 129 0 empty;
#X connect 139 1 128 0 empty;
#X connect 140 1 122 0 empty;
#X connect 141 1 123 0 empty;
#X connect 142 1 124 0 empty;
#X connect 143 1 125 0 empty;
#X connect 144 1 126 0 empty;
#X connect 145 1 127 0 empty;
#X connect 148 0 156 1 empty;
#X connect 149 0 156 2 32.................G....b8++++A....W++++6.....;
#X connect 150 0 157 1 empty;
#X connect 151 0 157 2 32.................G....b8++++A....W++++6.....;
#X connect 152 0 159 1 empty;
#X connect 153 0 203 1 empty;
#X connect 154 0 203 2 32.................L....j5+++OC....o9+++KA....;
#X connect 155 0 161 1 empty;
#X connect 156 0 203 0 32.................S....rD...vD....KA...3A....;
#X connect 157 0 160 0 empty;
#X connect 158 0 160 1 32.................hC...n3+++u3....J9+++uN....;
#X connect 159 0 156 0 empty;
#X connect 160 0 146 0 empty;
#X connect 161 0 157 0 empty;
#X connect 162 0 180 0 empty;
#X connect 163 0 173 2 empty;
#X connect 164 0 184 0 32.................S....f9++++D....n++++aB....;
#X connect 165 0 164 1 empty;
#X connect 166 0 182 0 empty;
#X connect 167 0 171 0 64.................D....DE....A....QA...P....Px....D....jL....i++++YC...v3+++e1....Y9+++C;
#X connect 168 0 165 0 32.................G....79++++A....u++++GB....;
#X connect 169 0 165 0 32.................D....b8+++OA....W++++i.....;
#X connect 170 0 171 1 32.................I....n....PB....J....DA....;
#X connect 171 0 184 0 empty;
#X connect 171 1 164 0 empty;
#X connect 172 0 167 0 32.................L....D7+++OC....A++++eA....;
#X connect 173 0 167 0 32.................L..........C.........bA....;
#X connect 174 0 167 0 32.................L....z2+++OC....88+++eA....;
#X connect 175 0 173 1 empty;
#X connect 176 0 172 2 empty;
#X connect 177 0 172 1 empty;
#X connect 178 0 174 2 empty;
#X connect 179 0 174 1 empty;
#X connect 180 0 173 0 empty;
#X connect 180 1 172 0 32.................E....7B...PA....u....TD....;
#X connect 180 2 174 0 32.................E....DF...PA....gA...TD....;
#X connect 181 0 180 1 48.................H....v9+++OB....r++++G++++O1++++w++++i8+++O9++++;
#X connect 182 0 201 0 64.................F....fE...fA....XA...P++++OV....z++++iE...P4++++oA...T9+++eZ....t++++C;
#X connect 183 0 185 0 empty;
#X connect 184 0 186 0 48.................E.....I...PA....PB...v5++++n....r9+++OJ....t++++;
#X connect 185 0 184 1 48.................I....z9+++eB....s++++29+++u1++++s++++q8+++e8++++;
#X connect 186 0 166 0 empty;
#X connect 187 0 188 0 empty;
#X connect 188 0 186 1 48.................F....z9+++uA....s++++O9+++e1++++i++++m8+++O6++++;
#X connect 192 0 165 0 32.................M....f7+++eC....H++++CC....;
#X connect 193 0 105 0 80.................G....rD...vA....KA...v9++++R....r++++uD....v++++KA....7++++R....c9+++yE...Pm++++bA...L5+++O;
#X connect 194 0 193 0 empty;
#X connect 195 0 194 0 48.................G....TB...vA....k....b7+++ON....G++++iC...fy++++;
#X connect 196 0 197 0 empty;
#X connect 196 1 195 1 32.................C....HC...v.....x....r.....;
#X connect 197 0 195 0 48.................G....nA...vA....Z....z9++++L....s++++OC...P7++++;
#X connect 198 0 194 0 48.................D....XB....A....l....f9+++eO....n++++2C...P7++++;
#X connect 199 0 158 0 empty;
#X connect 200 0 199 0 empty;
#X connect 201 0 159 0 48.................G....HC...vA....x....r1+++uP....q8+++KD...Pb++++;
#X connect 202 0 52 0 empty;
#X connect 202 0 33 0 48.................F....jH...fA....IB...b9++++n....m++++OJ...P6++++;
#X connect 203 0 161 0 48.................H....bF....B....mA...H2++++c....x8+++eG...fd++++;
#X connect 204 0 148 0 32.................F....D++++uA....w++++y.....;
#X connect 205 0 150 0 32.................F....D++++uA....w++++y.....;
#X connect 208 0 207 0 empty;
#X connect 209 0 56 0 empty;
#X connect 210 0 56 0 empty;
#X connect 211 0 209 0 empty;
#X connect 211 0 105 0 empty;
#X connect 211 1 212 0 empty;
#X connect 212 0 210 0 empty;
#X connect 212 0 105 0 empty;
#X restore 324 309 pd sequence-a;
#X connect 72 0 76 0 empty;
#X connect 73 0 76 0 empty;
#X connect 77 0 79 0 empty;
#X connect 78 0 79 0 empty;
#X connect 80 0 84 0 empty;
#X connect 81 0 84 0 empty;
#X connect 82 0 85 0 empty;
#X connect 83 0 85 0 empty;
#X connect 88 0 74 0 empty;
#X connect 88 0 74 1 empty;
