#N canvas 827 239 527 327 12;
#X obj 209 339 change, f 8;
#X obj 196 433 nbx 4 18 -1e+37 1e+37 0 1 empty empty empty 0 -8 0 10 #191919 #ffffff #ffffff 1 256;
#X obj 209 369 bng 25 250 50 0 empty empty empty 17 7 0 10 #191919 #ffffff #ffffff;
#X obj 178 369 bng 25 250 50 0 empty empty empty 17 7 0 10 #191919 #ffffff #ffffff;
#X obj 196 485 t b f;
#X obj 196 404 until;
#X obj 196 458 +;
#X obj 69 356 count;
#X msg 91 328 0 \$1;
#X obj 69 279 change, f 8;
#X obj 56 435 nbx 4 18 -1e+37 1e+37 0 1 empty empty empty 0 -8 0 10 #191919 #ffffff #ffffff 1 256;
#X obj 75 330 bng 14 250 50 0 empty empty empty 17 7 0 10 #191919 #ffffff #ffffff;
#X obj 45 371 bng 25 250 50 0 empty empty empty 17 7 0 10 #191919 #ffffff #ffffff;
#X obj 56 487 t b f;
#X obj 56 406 until;
#X obj 56 460 +;
#X obj 91 305 nbx 4 18 -1e+37 1e+37 0 1 empty empty empty 0 -8 0 10 #191919 #ffffff #ffffff 1 256;
#X obj 75 384 bng 14 250 50 0 empty empty empty 17 7 0 10 #191919 #ffffff #ffffff;
#X obj 508 142 +;
#X obj 508 117 nbx 4 18 -1e+37 1e+37 0 0 empty empty empty 0 -8 0 10 #191919 #ffffff #ffffff 0 256;
#X obj 508 85 bng 25 250 50 0 empty empty empty 17 7 0 10 #191919 #ffffff #ffffff;
#X obj 508 169 t b f;
#X obj 338 159 +;
#X obj 338 129 nbx 4 18 -1e+37 1e+37 0 0 empty empty empty 0 -8 0 10 #191919 #ffffff #ffffff 0 256;
#X obj 413 103 t b b;
#X obj 428 159 +;
#X obj 428 131 nbx 4 18 -1e+37 1e+37 0 1 empty empty empty 0 -8 0 10 #191919 #ffffff #ffffff 1 256;
#X obj 49 110 select 0;
#X obj 49 79 count 3;
#X obj 84 139 bng 25 250 50 0 empty empty empty 17 7 0 10 #191919 #ffffff #ffffff;
#X text 39 528 loop til a different scale degree (quantized) is reached;
#X text 329 188 increment a value in numbox;
#X text 39 208 teleport/repeat/jump;
#X obj 137 140 select 0;
#X obj 137 109 count;
#X msg 159 82 0 \$1;
#X obj 159 56 nbx 4 18 -1e+37 1e+37 0 0 empty empty empty 0 -8 0 10 #191919 #ffffff #ffffff 0 256;
#X obj 172 169 bng 25 250 50 0 empty empty empty 17 7 0 10 #191919 #ffffff #ffffff;
#X text 39 228 [step number( to the reset;
#N canvas 0 50 450 300 vib 1;
#X obj 69 19 inlet;
#X obj 69 219 +;
#X obj 69 269 outlet;
#X obj 149 169 t b f;
#X obj 149 19 inlet;
#X obj 299 19 inlet;
#X obj 149 79 lfo;
#X obj 149 119 rescale 0 0;
#X obj 219 79 * -1;
#X connect 0 0 1 0 empty;
#X connect 1 0 2 0 empty;
#X connect 3 0 1 0 empty;
#X connect 3 1 1 1 empty;
#X connect 4 0 6 0 empty;
#X connect 5 0 8 0 empty;
#X connect 5 0 7 2 empty;
#X connect 6 0 7 0 empty;
#X connect 7 0 3 0 empty;
#X connect 8 0 7 1 empty;
#X restore 339 379 pd vib;
#X text 389 378 vibrato (after the quantizer);
#X connect 0 0 2 0 empty;
#X connect 1 0 6 0 empty;
#X connect 2 0 5 1 empty;
#X connect 3 0 5 0 empty;
#X connect 5 0 1 0 empty;
#X connect 6 0 4 0 empty;
#X connect 7 0 17 0 empty;
#X connect 8 0 7 1 empty;
#X connect 9 0 11 0 empty;
#X connect 10 0 15 0 empty;
#X connect 11 0 7 0 empty;
#X connect 12 0 14 0 empty;
#X connect 14 0 10 0 empty;
#X connect 15 0 13 0 empty;
#X connect 16 0 8 0 empty;
#X connect 17 0 14 1 empty;
#X connect 18 0 21 0 empty;
#X connect 19 0 18 0 empty;
#X connect 20 0 19 0 empty;
#X connect 23 0 22 0 empty;
#X connect 24 1 26 0 empty;
#X connect 26 0 25 0 empty;
#X connect 27 1 29 0 empty;
#X connect 28 0 27 0 empty;
#X connect 33 1 37 0 empty;
#X connect 34 0 33 0 empty;
#X connect 35 0 34 1 empty;
#X connect 36 0 35 0 empty;
