#N canvas 827 239 527 327 12;
#X obj 108 31 r t-\$1;
#X obj 201 31 r x-\$1;
#X obj 354 31 r y-\$1;
#X obj 499 31 r z-\$1;
#X obj 257 117 *;
#X obj 257 31 r x-mult;
#X obj 408 31 r y-mult;
#X obj 555 31 r z-mult;
#X obj 408 117 *;
#X obj 555 117 *;
#X obj 408 307 +;
#X obj 257 241 +;
#X obj 555 374 +;
#X obj 555 446 s m-\$1;
#X obj 555 69 t b f;
#X obj 408 66 t b f;
#X obj 257 69 t b f;
#X obj 257 166 t b f;
#X obj 408 166 t b f;
#X obj 555 166 t b f;
#X text 69 248 use expr!;
#X connect 0 0 11 0 empty;
#X connect 1 0 4 0 empty;
#X connect 2 0 8 0 empty;
#X connect 3 0 9 0 empty;
#X connect 4 0 17 0 empty;
#X connect 5 0 16 0 empty;
#X connect 6 0 15 0 empty;
#X connect 7 0 14 0 empty;
#X connect 8 0 18 0 empty;
#X connect 9 0 19 0 empty;
#X connect 10 0 12 0 empty;
#X connect 11 0 10 0 empty;
#X connect 12 0 13 0 empty;
#X connect 14 0 9 0 empty;
#X connect 14 1 9 1 empty;
#X connect 15 0 8 0 empty;
#X connect 15 1 8 1 empty;
#X connect 16 0 4 0 empty;
#X connect 16 1 4 1 empty;
#X connect 17 0 11 0 empty;
#X connect 17 1 11 1 empty;
#X connect 18 0 10 0 empty;
#X connect 18 1 10 1 empty;
#X connect 19 0 12 0 empty;
#X connect 19 1 12 1 empty;
