#N canvas 827 239 527 327 12;
#N canvas 0 50 450 250 (subpatch) 0;
#X text 0 0 plugdatainfo <?xml version="1.0" encoding="UTF-8"?> <plugdatainfo/>;
#X coords 0 1 100 -1 1 1 1;
#X restore 0 0 graph;
#X obj 95 96 loadbang;
#X obj 95 230 pack s s;
#X obj 221 184 symbol \$1;
#X obj 95 133 t b b;
#X obj 95 184 canvas.name \$2;
#X msg 95 284 symbol \$1-\$2, f 14;
#X obj 61 325 send;
#X obj 61 58 inlet;
#X text 302 79 takes a symbol as first argument and depth ([canvas.name] depth) as second argument \; sends input to the symbol <subpatch>-\$1, f 68;
#X text 302 41 local-to-subpatch send abstraction, f 29;
#X connect 1 0 4 0;
#X connect 2 0 6 0;
#X connect 3 0 2 1;
#X connect 4 0 5 0;
#X connect 4 1 3 0;
#X connect 5 0 2 0;
#X connect 6 0 7 1;
#X connect 8 0 7 0;
