#N canvas 827 239 527 327 12;
#N canvas 0 50 450 250 (subpatch) 0;
#X text 0 0 plugdatainfo <?xml version="1.0" encoding="UTF-8"?> <plugdatainfo/>;
#X coords 0 1 100 -1 1 1 1;
#X restore 0 0 graph;
#X msg 680 67 size 80, f 9;
#X obj 122 476 nbx 4 18 -1e+37 1e+37 0 0 empty empty empty 0 -8 0 10 #ffffff #000000 #000000 0 256;
#X obj 118 221 bng 80 250 50 0 empty empty empty 17 7 0 10 #000000 #f8d8fc #000000;
#X obj 200 221 bng 80 250 50 0 empty empty empty 17 7 0 10 #000000 #f8d8fc #000000;
#X obj 283 221 bng 80 250 50 0 empty empty empty 17 7 0 10 #191919 #ffffff #ffffff;
#X obj 365 221 bng 80 250 50 0 empty empty empty 17 7 0 10 #191919 #ffffff #ffffff;
#X obj 447 221 bng 80 250 50 0 empty empty empty 17 7 0 10 #191919 #ffffff #ffffff;
#X obj 533 221 bng 80 250 50 0 empty empty empty 17 7 0 10 #191919 #ffffff #ffffff;
#X obj 617 221 bng 80 250 50 0 empty empty empty 17 7 0 10 #191919 #ffffff #ffffff;
#X obj 719 221 bng 80 250 50 0 empty empty empty 17 7 0 10 #191919 #ffffff #ffffff;
#X obj 750 221 bng 80 250 50 0 empty empty empty 17 7 0 10 #191919 #ffffff #ffffff;
#X obj 781 221 bng 80 250 50 0 empty empty empty 17 7 0 10 #191919 #ffffff #ffffff;
#X obj 812 221 bng 80 250 50 0 empty empty empty 17 7 0 10 #191919 #ffffff #ffffff;
#X obj 843 221 bng 80 250 50 0 empty empty empty 17 7 0 10 #191919 #ffffff #ffffff;
#X obj 874 221 bng 80 250 50 0 empty empty empty 17 7 0 10 #191919 #ffffff #ffffff;
#X obj 905 221 bng 80 250 50 0 empty empty empty 17 7 0 10 #191919 #ffffff #ffffff;
#X obj 936 221 bng 80 250 50 0 empty empty empty 17 7 0 10 #191919 #ffffff #ffffff;
#X obj 967 221 bng 80 250 50 0 empty empty empty 17 7 0 10 #191919 #ffffff #ffffff;
#X msg 129 401 color #ffffff #000000 #000000;
#X msg 110 116 color ffffff 191919 ffffff, f 22;
#X connect 1 0 3 0;
#X connect 1 0 4 0;
#X connect 1 0 5 0;
#X connect 1 0 6 0;
#X connect 1 0 7 0;
#X connect 1 0 8 0;
#X connect 1 0 9 0;
#X connect 1 0 10 0;
#X connect 1 0 11 0;
#X connect 1 0 12 0;
#X connect 1 0 13 0;
#X connect 1 0 14 0;
#X connect 1 0 15 0;
#X connect 1 0 16 0;
#X connect 1 0 17 0;
#X connect 1 0 18 0;
#X connect 19 0 2 0;
#X connect 20 0 3 0;
#X connect 20 0 4 0;
