#N canvas 827 239 527 327 12;
#N canvas 0 50 450 250 (subpatch) 0;
#X text 0 0 plugdatainfo <?xml version="1.0" encoding="UTF-8"?> <plugdatainfo/>;
#X coords 0 1 100 -1 1 1 1;
#X restore 0 0 graph;
#X obj 510 30 bng 60 250 50 0 empty empty empty 17 7 0 10 #191919 #5bcefa #ffffff;
#X obj 510 98 tgl 60 0 empty empty empty 17 7 0 10 #191919 #5bcefa #ffffff 0 1;
#X obj 510 301 nbx 6 30 -1e+37 1e+37 0 0 empty t empty 0 -8 0 10 #191919 #ffffff #ffffff 0 256;
#X obj 510 342 nbx 6 30 -1e+37 1e+37 0 0 empty x empty 0 -8 0 10 #191919 #ffffff #ffffff 0 256;
#X obj 510 383 nbx 6 30 -1e+37 1e+37 0 0 empty empty empty 0 -8 0 10 #191919 #ffffff #ffffff 0 256;
#X obj 510 426 nbx 6 30 -1e+37 1e+37 0 0 empty empty empty 0 -8 0 10 #191919 #ffffff #ffffff 0 256;
#X obj 510 468 nbx 6 30 -1e+37 1e+37 0 0 semi-a empty empty 0 -8 0 10 #191919 #ffffff #ffffff 0 256;
#X obj 510 510 nbx 6 30 -1e+37 1e+37 0 0 semi-b empty empty 0 -8 0 10 #191919 #ffffff #ffffff 0 256;
#X obj 510 554 nbx 6 30 -1e+37 1e+37 0 0 semi-c empty empty 0 -8 0 10 #191919 #ffffff #ffffff 0 256;
#X text 438 300 t, f 2;
#X text 438 343 x, f 2;
#X text 438 382 y, f 2;
#X text 438 425 z, f 2;
#X text 438 467 a, f 3;
#X text 438 509 b, f 3;
#X text 438 553 c, f 2;
#X obj 510 162 tgl 60 0 empty empty empty 17 7 0 10 #191919 #5bcefa #ffffff 0 1;
#X obj 510 228 tgl 60 0 empty empty empty 17 7 0 10 #191919 #5bcefa #ffffff 0 1;
