#N canvas 827 239 527 327 12;
#N canvas 0 50 450 250 (subpatch) 0;
#X text 0 0 plugdatainfo <?xml version="1.0" encoding="UTF-8"?> <plugdatainfo><InfoObj ID="16.f....jA...P..........." Updated="0" Segmented="1" Path="32......D..........l.........fI.........nD...."/><InfoObj ID="16.h....nA...P..........." Updated="0" Segmented="1" Path="32......D...........A.........P.........7G...."/><InfoObj ID="16.e....fA...P..........." Updated="0" Segmented="1" Path="32......D..........V.........fE.........nB...."/><InfoObj ID="16.e....L..........A....." Updated="0" Segmented="1" Path="32......D..........E....LI...PA....SB...j....."/><InfoObj ID="16.d....7A...P.....B....." Updated="0" Segmented="1" Path="32......D..........W....v9++++E....r++++yA...."/><InfoObj ID="16.d....H..........A....." Updated="0" Segmented="1" Path="32......D..........D....LG....A....yA...LF...."/><InfoObj ID="16.f....P..........A....." Updated="0" Segmented="1" Path="32......D..........E....TM...PA....UC...DA...."/><InfoObj ID="16.g.....B...P.....B....." Updated="0" Segmented="1" Path="32......D..........F....T8+++uA....U++++WA...."/><InfoObj ID="16.g....3A.........B....." Updated="0" Segmented="1" Path="32......D..........H....rB....B....q....TA...."/><InfoObj ID="16.h....T..........A....." Updated="0" Segmented="1" Path="32......D..........E....XQ...PA....VD....A...."/><InfoObj ID="16.i....HB...P.....B....." Updated="0" Segmented="1" Path="32......D..........a....X8++++F....V++++SI...."/><InfoObj ID="16.i....DB.........B....." Updated="0" Segmented="1" Path="32......D..........a....HD...vF....BA...PI...."/><InfoObj ID="16.l....vA...P..........." Updated="0" Segmented="1" Path="32......D..........eA........vW.........zK...."/><InfoObj ID="16.j....rA...P..........." Updated="0" Segmented="1" Path="32......D..........SA........vT.........PJ...."/><InfoObj ID="16.j....X..........A....." Updated="0" Segmented="1" Path="32......D..........F....jU...fA....YE...3F...."/><InfoObj ID="16.k....PB...P.....B....." Updated="0" Segmented="1" Path="32......D..........O.....6++++C....v9+++CF...."/><InfoObj ID="16.k....LB.........B....." Updated="0" Segmented="1" Path="32......D..........0....zA...PM....c....7C...."/><InfoObj ID="16.l....b..........A....." Updated="0" Segmented="1" Path="48......D..........G....3L...vA....NC...X....vlA...F....rY....Q...."/><InfoObj ID="16.m....XB...P.....B....." Updated="0" Segmented="1" Path="32......D..........T....b9+++OE....m++++CF...."/><InfoObj ID="16.m....TB.........B....." Updated="0" Segmented="1" Path="32......D..........C....HD...v.....BA...P....."/><InfoObj ID="16.n....zA...P..........." Updated="0" Segmented="1" Path="32......D..........nA...H.....Z....B....7L...."/><InfoObj ID="16.o....fB...P.....B....." Updated="0" Segmented="1" Path="32......D..........R....z9+++uD....s++++CF...."/><InfoObj ID="16.n....f..........A....." Updated="0" Segmented="1" Path="32......D..........L....vc....C....bG...fA...."/><InfoObj ID="16.o....bB.........B....." Updated="0" Segmented="1" Path="32......D..........K....rD...vB....KA...PB...."/><InfoObj ID="16.o....PA..............." Updated="0" Segmented="1" Path="32......D..........LB...fE....i....XA...jl...."/><InfoObj ID="16.m....LA..............." Updated="0" Segmented="1" Path="32......D..........mB...3C...vo....9....jl...."/><InfoObj ID="16.o....LB.........B....." Updated="0" Segmented="1" Path="32......D..........k....zM...PI....cC...7C...."/><InfoObj ID="16.m....LB.........B....." Updated="0" Segmented="1" Path="32......D..........s....XI...PK....VB...7C...."/><InfoObj ID="16.k....HA..............." Updated="0" Segmented="1" Path="32......D...........C...f++++Ov....3++++ml...."/><InfoObj ID="16.U....TB.........B....." Updated="0" Segmented="1" Path="32......D..........N.........fC.........rA...."/><InfoObj ID="16.V....bB.........B....." Updated="0" Segmented="1" Path="32......D..........I....76+++eB....+9+++uA...."/><InfoObj ID="16.W....jB.........B....." Updated="0" Segmented="1" Path="32......D..........T....35+++OE....t9+++uA...."/><InfoObj ID="16......PA..............." Updated="0" Segmented="0" Path="48......D..........X++++21+++O1++++s8+++G5+++OQ9+++g9+++Sj+++uq++++"/><InfoObj ID="16......LA..............." Updated="0" Segmented="0" Path="64......D..........A....H8+++e.....R++++K9+++ec++++h++++W2+++uo++++K5+++a5++++h9+++t9+++C"/><InfoObj ID="16......HA..............." Updated="0" Segmented="0" Path="48......D...............z5+++O.....s9+++K5+++OA++++h9+++Sv+++uq++++"/></plugdatainfo>;
#X coords 0 1 100 -1 1 1 1;
#X restore 0 0 graph;
#X obj 159 33 bng 60 250 50 0 empty empty empty 17 7 0 10 #191919 #5bcefa #ffffff;
#X obj 159 101 tgl 60 0 empty empty empty 17 7 0 10 #191919 #5bcefa #ffffff 0 1;
#X obj 159 304 nbx 6 30 -1e+37 1e+37 0 0 empty t empty 0 -8 0 10 #191919 #ffffff #ffffff 0 256;
#X obj 159 345 nbx 6 30 -1e+37 1e+37 0 0 empty x empty 0 -8 0 10 #191919 #ffffff #ffffff 0 256;
#X obj 159 386 nbx 6 30 -1e+37 1e+37 0 0 empty y empty 0 -8 0 10 #191919 #ffffff #ffffff 0 256;
#X obj 159 429 nbx 6 30 -1e+37 1e+37 0 0 empty z empty 0 -8 0 10 #191919 #ffffff #ffffff 0 256;
#X obj 159 471 nbx 6 30 -1e+37 1e+37 0 0 empty a empty 0 -8 0 10 #191919 #ffffff #ffffff 0 256;
#X obj 159 513 nbx 6 30 -1e+37 1e+37 0 0 empty b empty 0 -8 0 10 #191919 #ffffff #ffffff 0 256;
#X obj 159 557 nbx 6 30 -1e+37 1e+37 0 0 empty c empty 0 -8 0 10 #191919 #ffffff #ffffff 0 256;
#X text 87 303 t, f 2;
#X text 87 346 x, f 2;
#X text 87 385 y, f 2;
#X text 87 428 z, f 2;
#X text 87 470 a, f 3;
#X text 87 512 b, f 3;
#X text 87 556 c, f 2;
#X obj 159 165 tgl 60 0 empty empty empty 17 7 0 10 #191919 #5bcefa #ffffff 0 1;
#X obj 159 231 tgl 60 0 empty empty empty 17 7 0 10 #191919 #5bcefa #ffffff 0 1;
#X obj 412 95 inlet;
#X obj 533 95 inlet;
#X obj 604 95 inlet;
#X obj 412 772 outlet;
#X obj 533 772 outlet;
#X obj 604 772 outlet;
#X obj 317 323 r x-mult;
#X obj 383 323 r y-mult;
#X obj 448 323 r z-mult;
#X obj 515 323 r a-mult;
#X obj 581 323 r b-mult;
#X obj 646 323 r c-mult;
#X obj 274 434 +;
#X obj 306 385 *;
#X obj 372 434 *;
#X obj 317 476 +;
#X obj 437 476 *;
#X obj 383 645 +;
#X obj 504 612 *;
#X obj 412 729 +;
#X obj 570 612 *;
#X obj 533 729 +;
#X obj 635 612 *;
#X obj 604 729 +;
#X connect 3 0 31 0;
#X connect 4 0 32 0;
#X connect 5 0 33 0;
#X connect 6 0 35 0;
#X connect 7 0 37 0;
#X connect 8 0 39 0;
#X connect 9 0 41 0;
#X connect 19 0 1 0;
#X connect 19 0 38 0;
#X connect 20 0 1 0;
#X connect 20 0 40 0;
#X connect 21 0 1 0;
#X connect 21 0 42 0;
#X connect 25 0 32 1;
#X connect 26 0 33 1;
#X connect 27 0 35 1;
#X connect 28 0 37 1;
#X connect 29 0 39 1;
#X connect 30 0 41 1;
#X connect 31 0 34 0;
#X connect 32 0 31 1;
#X connect 33 0 34 1;
#X connect 34 0 36 0;
#X connect 35 0 36 1;
#X connect 36 0 38 0;
#X connect 36 0 40 0;
#X connect 36 0 42 0;
#X connect 37 0 38 1;
#X connect 38 0 22 0;
#X connect 39 0 40 1;
#X connect 40 0 23 0;
#X connect 41 0 42 1;
#X connect 42 0 24 0;
#X coords 0 0 1 1 70 562 1 155 29;
