#N canvas 827 239 527 327 12;
#X obj 129 69 nbx 4 18 -1e+37 1e+37 0 0 empty empty empty 0 -8 0 10 #191919 #ffffff #ffffff 0 256;
#X obj 59 69 tgl 25 0 empty empty empty 17 7 0 10 #191919 #ffffff #ffffff 0 1;
#X obj 179 239 bng 25 50 20 0 empty empty empty 17 7 0 10 #191919 #ffffff #ffffff;
#N canvas 0 50 450 300 clock 1;
#X msg 149 149 tempo \$1 permin;
#X obj 149 119 * 1;
#X obj 119 189 metro 1 120 permin;
#X obj 169 79 t b f;
#X obj 49 19 inlet;
#X obj 109 19 inlet;
#X obj 169 19 inlet;
#X obj 119 269 outlet;
#X obj 169 50 max 1;
#X obj 259 229 bangdiv;
#X obj 294 19 inlet;
#X obj 294 59 max 1;
#X obj 259 269 outlet;
#X connect 0 0 2 0 empty;
#X connect 1 0 0 0 empty;
#X connect 2 0 7 0 empty;
#X connect 2 0 9 0 empty;
#X connect 3 0 1 0 empty;
#X connect 3 1 1 1 empty;
#X connect 4 0 2 0 empty;
#X connect 5 0 1 0 empty;
#X connect 6 0 8 0 empty;
#X connect 8 0 3 0 empty;
#X connect 9 0 12 0 empty;
#X connect 10 0 11 0 empty;
#X connect 11 0 9 1 empty;
#X restore 179 189 pd clock;
#X text 179 68 main tempo;
#X obj 279 69 nbx 4 18 -1e+37 1e+37 0 0 empty empty empty 0 -8 0 10 #191919 #ffffff #ffffff 0 256;
#X obj 226 239 bng 25 250 50 0 empty empty empty 17 7 0 10 #191919 #ffffff #ffffff;
#X obj 399 69 nbx 4 18 -1e+37 1e+37 0 0 empty empty empty 0 -8 0 10 #191919 #ffffff #ffffff 0 256;
#X text 449 68 div;
#X text 339 68 mult;
#X connect 0 0 3 1 empty;
#X connect 1 0 3 0 empty;
#X connect 3 0 2 0 empty;
#X connect 3 1 6 0 empty;
#X connect 5 0 3 2 empty;
#X connect 7 0 3 3 empty;
