#N canvas 827 239 527 327 12;
#X obj 69 89 nbx 4 18 -1e+37 1e+37 0 0 empty empty empty 0 -8 0 10 #191919 #ffffff #ffffff 0 256;
#X obj 139 309 bng 25 50 20 0 empty empty empty 17 7 0 10 #191919 #ffffff #ffffff;
#X obj 29 129 tgl 25 0 empty empty empty 17 7 0 10 #191919 #ffffff #ffffff 0 1;
#X obj 259 89 nbx 4 18 -1e+37 1e+37 0 0 empty empty empty 0 -8 0 10 #191919 #ffffff #ffffff 0 256;
#X obj 323 89 nbx 4 18 -1e+37 1e+37 0 0 empty empty empty 0 -8 0 10 #191919 #ffffff #ffffff 0 256;
#X obj 387 89 nbx 4 18 -1e+37 1e+37 0 0 empty empty empty 0 -8 0 10 #191919 #ffffff #ffffff 0 256;
#X obj 451 89 nbx 4 18 -1e+37 1e+37 0 0 empty empty empty 0 -8 0 10 #191919 #ffffff #ffffff 0 256;
#N canvas 0 50 450 300 clock 1;
#X msg 209 159 tempo \$1 permin;
#X obj 209 129 * 1;
#X obj 209 209 metro 1 120 permin;
#X obj 229 89 t b f;
#X obj 69 29 inlet;
#X obj 149 29 inlet;
#X obj 229 29 inlet;
#X obj 209 249 outlet;
#X obj 229 60 max 1;
#X connect 0 0 2 0 empty;
#X connect 1 0 0 0 empty;
#X connect 2 0 7 0 empty;
#X connect 3 0 1 0 empty;
#X connect 3 1 1 1 empty;
#X connect 4 0 2 0 empty;
#X connect 5 0 1 0 empty;
#X connect 6 0 8 0 empty;
#X connect 8 0 3 0 empty;
#X restore 349 169 pd clock;
#X obj 209 309 bng 25 50 20 0 empty empty empty 17 7 0 10 #191919 #ffffff #ffffff;
#X obj 279 309 bng 25 50 20 0 empty empty empty 17 7 0 10 #191919 #ffffff #ffffff;
#X obj 349 309 bng 25 50 20 0 empty empty empty 17 7 0 10 #191919 #ffffff #ffffff;
#N canvas 0 50 450 300 clock 1;
#X msg 209 159 tempo \$1 permin;
#X obj 209 129 * 1;
#X obj 209 209 metro 1 120 permin;
#X obj 229 89 t b f;
#X obj 69 29 inlet;
#X obj 149 29 inlet;
#X obj 229 29 inlet;
#X obj 209 249 outlet;
#X obj 229 60 max 1;
#X connect 0 0 2 0 empty;
#X connect 1 0 0 0 empty;
#X connect 2 0 7 0 empty;
#X connect 3 0 1 0 empty;
#X connect 3 1 1 1 empty;
#X connect 4 0 2 0 empty;
#X connect 5 0 1 0 empty;
#X connect 6 0 8 0 empty;
#X connect 8 0 3 0 empty;
#X restore 139 169 pd clock;
#N canvas 0 50 450 300 clock 1;
#X msg 209 159 tempo \$1 permin;
#X obj 209 129 * 1;
#X obj 209 209 metro 1 120 permin;
#X obj 229 89 t b f;
#X obj 69 29 inlet;
#X obj 149 29 inlet;
#X obj 229 29 inlet;
#X obj 209 249 outlet;
#X obj 229 60 max 1;
#X connect 0 0 2 0 empty;
#X connect 1 0 0 0 empty;
#X connect 2 0 7 0 empty;
#X connect 3 0 1 0 empty;
#X connect 3 1 1 1 empty;
#X connect 4 0 2 0 empty;
#X connect 5 0 1 0 empty;
#X connect 6 0 8 0 empty;
#X connect 8 0 3 0 empty;
#X restore 209 169 pd clock;
#N canvas 0 50 450 300 clock 1;
#X msg 209 159 tempo \$1 permin;
#X obj 209 129 * 1;
#X obj 209 209 metro 1 120 permin;
#X obj 229 89 t b f;
#X obj 69 29 inlet;
#X obj 149 29 inlet;
#X obj 229 29 inlet;
#X obj 209 249 outlet;
#X obj 229 60 max 1;
#X connect 0 0 2 0 empty;
#X connect 1 0 0 0 empty;
#X connect 2 0 7 0 empty;
#X connect 3 0 1 0 empty;
#X connect 3 1 1 1 empty;
#X connect 4 0 2 0 empty;
#X connect 5 0 1 0 empty;
#X connect 6 0 8 0 empty;
#X connect 8 0 3 0 empty;
#X restore 279 169 pd clock;
#X text 509 88 mults;
#X text 119 88 main tempo;
#X obj 529 249 bangdiv;
#X obj 529 299 count;
#X connect 0 0 7 1 empty;
#X connect 0 0 11 1 empty;
#X connect 0 0 12 1 empty;
#X connect 0 0 13 1 empty;
#X connect 2 0 7 0 empty;
#X connect 2 0 11 0 empty;
#X connect 2 0 12 0 empty;
#X connect 2 0 13 0 empty;
#X connect 3 0 11 2 empty;
#X connect 4 0 12 2 empty;
#X connect 5 0 13 2 empty;
#X connect 6 0 7 2 empty;
#X connect 7 0 10 0 empty;
#X connect 11 0 1 0 empty;
#X connect 12 0 8 0 empty;
#X connect 13 0 9 0 empty;
