#N canvas 827 239 527 327 12;
#X text 35 105 (and there's some pretty pictures there too), f 43;
#X text 35 81 ko-fi.com/auaudio, f 16;
#X text 35 41 i have a ko-fi now where you can send me money if you have too much:, f 57;
#X text 35 241 where you can come over and ask questions or just troll my issues section :3, f 60;
#X text 35 164 also if by some chance you got this patch from somewhere else \, this is originally in my github:, f 73;
#X text 35 205 github.com/tomara-x/moths, f 34;
