#N canvas 0 50 450 300 12;
#N canvas 0 50 450 250 (subpatch) 0;
#X text 0 0 plugdatainfo <?xml version="1.0" encoding="UTF-8"?> <plugdatainfo/>;
#X coords 0 1 100 -1 1 1 1;
#X restore 0 0 graph;
#X text 28 217 to magic girls and blood, f 20;
#X text 28 251 to beings impossible to chain, f 25;
#X text 28 187 to her, f 7;
#X text 28 382 love \, tomara, f 11;
#X text 28 285 to sweet little unforgettable things, f 28;
#X text 398 79 @, f 4;
#X text 123 88 ., f 4;
#X text 156 157 *, f 2;
#X text 38 52 ., f 4;
#X text 106 176 *, f 3;
#X text 308 73 ., f 4;
#X text 171 73 ., f 4;
#X text 159 27 ., f 4;
#X text 450 43 *, f 2;
#X text 469 107 ., f 3;
#X text 372 52 ., f 3;
#X text 194 48 *, f 2;
#X obj 223 98 cnv 123 123 117 empty empty @ 8 46 0 139 #232323 #ffffff 0;
#X text 60 107 a, f 4;
#X text 236 70 e, f 4;
#X text 350 123 g, f 4;
#X text 420 56 i, f 4;
#X text 450 118 d, f 4;
#X text 484 165 e, f 4;
#X text 28 323 and giants who kindly let me stand on their shoulders, f 42;
