#N canvas 0 50 450 300 12;
#N canvas 0 50 450 250 (subpatch) 0;
#X text 0 0 plugdatainfo <?xml version="1.0" encoding="UTF-8"?> <plugdatainfo/>;
#X coords 0 1 100 -1 1 1 1;
#X restore 0 0 graph;
#X text 29 223 to magic girls and blood, f 20;
#X text 29 256 to beings impossible to chain, f 25;
#X text 29 189 to her, f 7;
#X text 28 325 to giants who kindly let me stand on their shoulders. i hope one day i can pay it forward, f 67;
#X text 28 361 and thanks to you for jamming, f 25;
#X text 29 426 love \, tomara, f 11;
#X text 28 393 hey drink some water!, f 19;
#X text 29 290 to sweet little unforgettable things, f 28;
#X text 398 79 @, f 4;
#X text 123 88 ., f 4;
#X text 156 157 *, f 2;
#X text 38 52 ., f 4;
#X text 106 176 *, f 3;
#X text 307 88 ., f 4;
#X text 171 73 ., f 4;
#X text 159 27 ., f 4;
#X text 450 43 *, f 2;
#X text 469 107 ., f 3;
#X text 372 52 ., f 3;
#X text 194 48 *, f 2;
