#N canvas 0 50 450 300 12;
#X text 28 225 to magic girls and blood, f 22;
#X text 17 258 to beings impossible to chain, f 26;
#X text 71 191 to her, f 7;
#X text 17 342 love \, tomara, f 11;
#X text 47 290 to sweet little unforgettable things, f 32;
#X text 398 79 @, f 4;
#X text 123 88 ., f 4;
#X text 156 157 *, f 2;
#X text 38 52 ., f 4;
#X text 106 176 *, f 3;
#X text 308 73 ., f 4;
#X text 171 73 ., f 4;
#X text 159 27 ., f 4;
#X text 450 43 *, f 2;
#X text 469 107 ., f 3;
#X text 372 52 ., f 3;
#X text 194 48 *, f 2;
#X obj 206 95 cnv 123 123 117 empty empty @ 8 46 0 139 #232323 #ffffff 0;
#X text 60 107 a, f 4;
#X text 236 70 e, f 4;
#X text 350 123 g, f 4;
#X text 420 56 i, f 4;
#X text 450 118 d, f 4;
#X text 484 165 e, f 4;
#X text 22 318 and giants who kindly let me stand on their shoulders, f 44;
#X obj 22 376 emoji;
