#N canvas 827 239 527 327 12;
#X msg 79 39 rndclr;
#X obj 369 19 array define -k arr;
#A resize 23;
#A 0 0.441667 0.4 0.308333 0.175 0.0916667 -0.0416667 -0.15 0.733333 0.733333 0.733333 0.733333 0.733333 0.725 0.658333 0.583333 0.5 0.383333 0.241667 0.0583333 -0.125 -0.3 -0.525 -0.875;
#X obj 9 79 slidarr arr;
#N canvas 0 50 450 300 init 1;
#X obj 139 179 outlet;
#X msg 39 99 restore;
#X msg 109 99 coloring 1;
#X msg 189 99 xoffset 3;
#X msg 279 99 spacing 2;
#X obj 69 49 lb 2;
#X msg 359 99 height 240;
#X msg 449 99 width 470;
#X msg 529 99 n 23;
#X connect 1 0 0 0 empty;
#X connect 2 0 0 0 empty;
#X connect 3 0 0 0 empty;
#X connect 4 0 0 0 empty;
#X connect 5 0 1 0 empty;
#X connect 5 1 2 0 empty;
#X connect 5 1 3 0 empty;
#X connect 5 1 4 0 empty;
#X connect 5 1 6 0 empty;
#X connect 5 1 7 0 empty;
#X connect 5 1 8 0 empty;
#X connect 6 0 0 0 empty;
#X connect 7 0 0 0 empty;
#X connect 8 0 0 0 empty;
#X restore 9 39 pd init;
#X connect 0 0 2 0 empty;
#X connect 3 0 2 0 empty;
