#N canvas 827 239 527 327 12;
#N canvas 0 50 450 250 (subpatch) 0;
#X text 0 0 plugdatainfo <?xml version="1.0" encoding="UTF-8"?> <plugdatainfo/>;
#X coords 0 1 100 -1 1 1 1;
#X restore 0 0 graph;
#X obj 69 410 osc~;
#X obj 237 316 + 50;
#X obj 237 348 dbtorms;
#X msg 200 317 0;
#X obj 200 415 line~;
#X obj 69 449 *~;
#X obj 69 70 mtof;
#X obj 156 180 f;
#X obj 69 101 * \$1;
#X obj 167 139 ftom;
#X obj 200 221 -;
#X obj 200 278 moses 1;
#X obj 69 482 outlet~;
#X obj 200 251 tabread4 speck;
#X obj 211 180 r shift;
#X obj 116 139 r poll;
#X obj 69 35 r pitch;
#X obj 200 385 pack f 128;
#X connect 1 0 6 0;
#X connect 2 0 3 0;
#X connect 3 0 18 0;
#X connect 4 0 18 0;
#X connect 5 0 6 1;
#X connect 6 0 13 0;
#X connect 7 0 9 0;
#X connect 8 0 11 0;
#X connect 9 0 10 0;
#X connect 9 0 1 0;
#X connect 10 0 8 1;
#X connect 11 0 14 0;
#X connect 12 0 4 0;
#X connect 12 1 2 0;
#X connect 14 0 12 0;
#X connect 15 0 11 1;
#X connect 16 0 8 0;
#X connect 17 0 7 0;
#X connect 18 0 5 0;
