#N canvas 827 239 527 327 12;
#N canvas 0 50 450 250 (subpatch) 0;
#X text 0 0 plugdatainfo <?xml version="1.0" encoding="UTF-8"?> <plugdatainfo/>;
#X coords 0 1 100 -1 1 1 1;
#X restore 0 0 graph;
#X obj 73 117 function 582 175 empty empty 0 1 25 25 25 247 168 184 0 0 0 0 0 98.9583 0.289941 64.2361 0.035503 836.806 0;
#X msg 131 67 0 1000 0, f 10;
#X obj 73 42 bng 46 250 50 0 empty empty empty 17 7 0 10 #191919 #ffffff #ffffff;
#N canvas 0 50 450 300 oscil 1;
#N canvas 0 50 450 250 (subpatch) 0;
#X text 0 0 plugdatainfo <?xml version="1.0" encoding="UTF-8"?> <plugdatainfo/>;
#X coords 0 1 100 -1 1 1 1;
#X restore 0 0 graph;
#X obj 44 99 unmerge 32 2;
#X obj 44 22 inlet;
#X obj 44 215 unmerge 2;
#X obj 44 320 sine~;
#X obj 44 358 *~;
#X obj 668 59 outlet~;
#X obj 44 287 +;
#X obj 563 22 inlet;
#X obj 563 59 s off;
#X obj 83 251 r off;
#X obj 44 393 throw~ oout;
#X obj 672 26 catch~ oout;
#X obj 127 215 unmerge 2;
#X obj 127 320 sine~;
#X obj 127 358 *~;
#X obj 127 287 +;
#X obj 166 251 r off;
#X obj 127 393 throw~ oout;
#X obj 210 215 unmerge 2;
#X obj 210 320 sine~;
#X obj 210 358 *~;
#X obj 210 287 +;
#X obj 249 251 r off;
#X obj 210 393 throw~ oout;
#X obj 293 215 unmerge 2;
#X obj 293 320 sine~;
#X obj 293 358 *~;
#X obj 293 287 +;
#X obj 332 251 r off;
#X obj 293 393 throw~ oout;
#X obj 376 215 unmerge 2;
#X obj 376 320 sine~;
#X obj 376 358 *~;
#X obj 376 287 +;
#X obj 415 251 r off;
#X obj 376 393 throw~ oout;
#X obj 459 215 unmerge 2;
#X obj 459 320 sine~;
#X obj 459 358 *~;
#X obj 459 287 +;
#X obj 498 251 r off;
#X obj 459 393 throw~ oout;
#X obj 542 215 unmerge 2;
#X obj 542 320 sine~;
#X obj 542 358 *~;
#X obj 542 287 +;
#X obj 581 251 r off;
#X obj 542 393 throw~ oout;
#X obj 625 215 unmerge 2;
#X obj 625 320 sine~;
#X obj 625 358 *~;
#X obj 625 287 +;
#X obj 664 251 r off;
#X obj 625 393 throw~ oout;
#X obj 84 432 unmerge 2;
#X obj 84 537 sine~;
#X obj 84 575 *~;
#X obj 84 504 +;
#X obj 123 468 r off;
#X obj 84 610 throw~ oout;
#X obj 167 432 unmerge 2;
#X obj 167 537 sine~;
#X obj 167 575 *~;
#X obj 167 504 +;
#X obj 206 468 r off;
#X obj 167 610 throw~ oout;
#X obj 250 432 unmerge 2;
#X obj 250 537 sine~;
#X obj 250 575 *~;
#X obj 250 504 +;
#X obj 289 468 r off;
#X obj 250 610 throw~ oout;
#X obj 333 432 unmerge 2;
#X obj 333 537 sine~;
#X obj 333 575 *~;
#X obj 333 504 +;
#X obj 372 468 r off;
#X obj 333 610 throw~ oout;
#X obj 416 432 unmerge 2;
#X obj 416 537 sine~;
#X obj 416 575 *~;
#X obj 416 504 +;
#X obj 455 468 r off;
#X obj 416 610 throw~ oout;
#X obj 499 432 unmerge 2;
#X obj 499 537 sine~;
#X obj 499 575 *~;
#X obj 499 504 +;
#X obj 538 468 r off;
#X obj 499 610 throw~ oout;
#X obj 582 432 unmerge 2;
#X obj 582 537 sine~;
#X obj 582 575 *~;
#X obj 582 504 +;
#X obj 621 468 r off;
#X obj 582 610 throw~ oout;
#X obj 665 432 unmerge 2;
#X obj 665 537 sine~;
#X obj 665 575 *~;
#X obj 665 504 +;
#X obj 704 468 r off;
#X obj 665 610 throw~ oout;
#X obj 44 653 unmerge 2;
#X obj 44 758 sine~;
#X obj 44 796 *~;
#X obj 44 725 +;
#X obj 83 689 r off;
#X obj 44 831 throw~ oout;
#X obj 127 653 unmerge 2;
#X obj 127 758 sine~;
#X obj 127 796 *~;
#X obj 127 725 +;
#X obj 166 689 r off;
#X obj 127 831 throw~ oout;
#X obj 210 653 unmerge 2;
#X obj 210 758 sine~;
#X obj 210 796 *~;
#X obj 210 725 +;
#X obj 249 689 r off;
#X obj 210 831 throw~ oout;
#X obj 293 653 unmerge 2;
#X obj 293 758 sine~;
#X obj 293 796 *~;
#X obj 293 725 +;
#X obj 332 689 r off;
#X obj 293 831 throw~ oout;
#X obj 376 653 unmerge 2;
#X obj 376 758 sine~;
#X obj 376 796 *~;
#X obj 376 725 +;
#X obj 415 689 r off;
#X obj 376 831 throw~ oout;
#X obj 459 653 unmerge 2;
#X obj 459 758 sine~;
#X obj 459 796 *~;
#X obj 459 725 +;
#X obj 498 689 r off;
#X obj 459 831 throw~ oout;
#X obj 542 653 unmerge 2;
#X obj 542 758 sine~;
#X obj 542 796 *~;
#X obj 542 725 +;
#X obj 581 689 r off;
#X obj 542 831 throw~ oout;
#X obj 625 653 unmerge 2;
#X obj 625 758 sine~;
#X obj 625 796 *~;
#X obj 625 725 +;
#X obj 664 689 r off;
#X obj 625 831 throw~ oout;
#X obj 84 870 unmerge 2;
#X obj 84 975 sine~;
#X obj 84 1013 *~;
#X obj 84 942 +;
#X obj 123 906 r off;
#X obj 84 1048 throw~ oout;
#X obj 167 870 unmerge 2;
#X obj 167 975 sine~;
#X obj 167 1013 *~;
#X obj 167 942 +;
#X obj 206 906 r off;
#X obj 167 1048 throw~ oout;
#X obj 250 870 unmerge 2;
#X obj 250 975 sine~;
#X obj 250 1013 *~;
#X obj 250 942 +;
#X obj 289 906 r off;
#X obj 250 1048 throw~ oout;
#X obj 333 870 unmerge 2;
#X obj 333 975 sine~;
#X obj 333 1013 *~;
#X obj 333 942 +;
#X obj 372 906 r off;
#X obj 333 1048 throw~ oout;
#X obj 416 870 unmerge 2;
#X obj 416 975 sine~;
#X obj 416 1013 *~;
#X obj 416 942 +;
#X obj 455 906 r off;
#X obj 416 1048 throw~ oout;
#X obj 499 870 unmerge 2;
#X obj 499 975 sine~;
#X obj 499 1013 *~;
#X obj 499 942 +;
#X obj 538 906 r off;
#X obj 499 1048 throw~ oout;
#X obj 582 870 unmerge 2;
#X obj 582 975 sine~;
#X obj 582 1013 *~;
#X obj 582 942 +;
#X obj 621 906 r off;
#X obj 582 1048 throw~ oout;
#X obj 665 870 unmerge 2;
#X obj 665 975 sine~;
#X obj 665 1013 *~;
#X obj 665 942 +;
#X obj 704 906 r off;
#X obj 665 1048 throw~ oout;
#X connect 1 0 3 0;
#X connect 1 1 13 0;
#X connect 1 2 19 0;
#X connect 1 3 25 0;
#X connect 1 4 31 0;
#X connect 1 5 37 0;
#X connect 1 6 43 0;
#X connect 1 7 49 0;
#X connect 1 8 55 0;
#X connect 1 9 61 0;
#X connect 1 10 67 0;
#X connect 1 11 73 0;
#X connect 1 12 79 0;
#X connect 1 13 85 0;
#X connect 1 14 91 0;
#X connect 1 15 97 0;
#X connect 1 16 103 0;
#X connect 1 17 109 0;
#X connect 1 18 115 0;
#X connect 1 19 121 0;
#X connect 1 20 127 0;
#X connect 1 21 133 0;
#X connect 1 22 139 0;
#X connect 1 23 145 0;
#X connect 1 24 151 0;
#X connect 1 25 157 0;
#X connect 1 26 163 0;
#X connect 1 27 169 0;
#X connect 1 28 175 0;
#X connect 1 29 181 0;
#X connect 1 30 187 0;
#X connect 1 31 193 0;
#X connect 2 0 1 0;
#X connect 3 0 5 1;
#X connect 3 1 7 0;
#X connect 4 0 5 0;
#X connect 5 0 11 0;
#X connect 7 0 4 0;
#X connect 8 0 9 0;
#X connect 10 0 7 1;
#X connect 12 0 6 0;
#X connect 13 0 15 1;
#X connect 13 1 16 0;
#X connect 14 0 15 0;
#X connect 15 0 18 0;
#X connect 16 0 14 0;
#X connect 17 0 16 1;
#X connect 19 0 21 1;
#X connect 19 1 22 0;
#X connect 20 0 21 0;
#X connect 21 0 24 0;
#X connect 22 0 20 0;
#X connect 23 0 22 1;
#X connect 25 0 27 1;
#X connect 25 1 28 0;
#X connect 26 0 27 0;
#X connect 27 0 30 0;
#X connect 28 0 26 0;
#X connect 29 0 28 1;
#X connect 31 0 33 1;
#X connect 31 1 34 0;
#X connect 32 0 33 0;
#X connect 33 0 36 0;
#X connect 34 0 32 0;
#X connect 35 0 34 1;
#X connect 37 0 39 1;
#X connect 37 1 40 0;
#X connect 38 0 39 0;
#X connect 39 0 42 0;
#X connect 40 0 38 0;
#X connect 41 0 40 1;
#X connect 43 0 45 1;
#X connect 43 1 46 0;
#X connect 44 0 45 0;
#X connect 45 0 48 0;
#X connect 46 0 44 0;
#X connect 47 0 46 1;
#X connect 49 0 51 1;
#X connect 49 1 52 0;
#X connect 50 0 51 0;
#X connect 51 0 54 0;
#X connect 52 0 50 0;
#X connect 53 0 52 1;
#X connect 55 0 57 1;
#X connect 55 1 58 0;
#X connect 56 0 57 0;
#X connect 57 0 60 0;
#X connect 58 0 56 0;
#X connect 59 0 58 1;
#X connect 61 0 63 1;
#X connect 61 1 64 0;
#X connect 62 0 63 0;
#X connect 63 0 66 0;
#X connect 64 0 62 0;
#X connect 65 0 64 1;
#X connect 67 0 69 1;
#X connect 67 1 70 0;
#X connect 68 0 69 0;
#X connect 69 0 72 0;
#X connect 70 0 68 0;
#X connect 71 0 70 1;
#X connect 73 0 75 1;
#X connect 73 1 76 0;
#X connect 74 0 75 0;
#X connect 75 0 78 0;
#X connect 76 0 74 0;
#X connect 77 0 76 1;
#X connect 79 0 81 1;
#X connect 79 1 82 0;
#X connect 80 0 81 0;
#X connect 81 0 84 0;
#X connect 82 0 80 0;
#X connect 83 0 82 1;
#X connect 85 0 87 1;
#X connect 85 1 88 0;
#X connect 86 0 87 0;
#X connect 87 0 90 0;
#X connect 88 0 86 0;
#X connect 89 0 88 1;
#X connect 91 0 93 1;
#X connect 91 1 94 0;
#X connect 92 0 93 0;
#X connect 93 0 96 0;
#X connect 94 0 92 0;
#X connect 95 0 94 1;
#X connect 97 0 99 1;
#X connect 97 1 100 0;
#X connect 98 0 99 0;
#X connect 99 0 102 0;
#X connect 100 0 98 0;
#X connect 101 0 100 1;
#X connect 103 0 105 1;
#X connect 103 1 106 0;
#X connect 104 0 105 0;
#X connect 105 0 108 0;
#X connect 106 0 104 0;
#X connect 107 0 106 1;
#X connect 109 0 111 1;
#X connect 109 1 112 0;
#X connect 110 0 111 0;
#X connect 111 0 114 0;
#X connect 112 0 110 0;
#X connect 113 0 112 1;
#X connect 115 0 117 1;
#X connect 115 1 118 0;
#X connect 116 0 117 0;
#X connect 117 0 120 0;
#X connect 118 0 116 0;
#X connect 119 0 118 1;
#X connect 121 0 123 1;
#X connect 121 1 124 0;
#X connect 122 0 123 0;
#X connect 123 0 126 0;
#X connect 124 0 122 0;
#X connect 125 0 124 1;
#X connect 127 0 129 1;
#X connect 127 1 130 0;
#X connect 128 0 129 0;
#X connect 129 0 132 0;
#X connect 130 0 128 0;
#X connect 131 0 130 1;
#X connect 133 0 135 1;
#X connect 133 1 136 0;
#X connect 134 0 135 0;
#X connect 135 0 138 0;
#X connect 136 0 134 0;
#X connect 137 0 136 1;
#X connect 139 0 141 1;
#X connect 139 1 142 0;
#X connect 140 0 141 0;
#X connect 141 0 144 0;
#X connect 142 0 140 0;
#X connect 143 0 142 1;
#X connect 145 0 147 1;
#X connect 145 1 148 0;
#X connect 146 0 147 0;
#X connect 147 0 150 0;
#X connect 148 0 146 0;
#X connect 149 0 148 1;
#X connect 151 0 153 1;
#X connect 151 1 154 0;
#X connect 152 0 153 0;
#X connect 153 0 156 0;
#X connect 154 0 152 0;
#X connect 155 0 154 1;
#X connect 157 0 159 1;
#X connect 157 1 160 0;
#X connect 158 0 159 0;
#X connect 159 0 162 0;
#X connect 160 0 158 0;
#X connect 161 0 160 1;
#X connect 163 0 165 1;
#X connect 163 1 166 0;
#X connect 164 0 165 0;
#X connect 165 0 168 0;
#X connect 166 0 164 0;
#X connect 167 0 166 1;
#X connect 169 0 171 1;
#X connect 169 1 172 0;
#X connect 170 0 171 0;
#X connect 171 0 174 0;
#X connect 172 0 170 0;
#X connect 173 0 172 1;
#X connect 175 0 177 1;
#X connect 175 1 178 0;
#X connect 176 0 177 0;
#X connect 177 0 180 0;
#X connect 178 0 176 0;
#X connect 179 0 178 1;
#X connect 181 0 183 1;
#X connect 181 1 184 0;
#X connect 182 0 183 0;
#X connect 183 0 186 0;
#X connect 184 0 182 0;
#X connect 185 0 184 1;
#X connect 187 0 189 1;
#X connect 187 1 190 0;
#X connect 188 0 189 0;
#X connect 189 0 192 0;
#X connect 190 0 188 0;
#X connect 191 0 190 1;
#X connect 193 0 195 1;
#X connect 193 1 196 0;
#X connect 194 0 195 0;
#X connect 195 0 198 0;
#X connect 196 0 194 0;
#X connect 197 0 196 1;
#X restore 73 314 pd oscil;
#X connect 1 0 4 0;
#X connect 2 0 1 0;
#X connect 3 0 1 0;
