#N canvas 827 239 527 327 12;
#X obj 330 350 xfade~;
#N canvas 0 50 450 250 (subpatch) 0;
#X array arr-0 10 float 3;
#A 0 -0.8 -0.628571 -0.442857 -0.271429 -0.157143 -0.0571429 0.0142858 0.214286 0.457143 0.757143;
#X coords 0 1 10 -1 200 140 1;
#X restore 449 234 graph;
#N canvas 0 50 450 250 (subpatch) 0;
#X array arr-1 10 float 3;
#A 0 0 0 0 0 0 0 0 0 0 0;
#X coords 0 1 10 -1 200 140 1;
#X restore 655 234 graph;
#X obj 140 190 expr~ (($v1+1)/2)*10;
#X obj 140 270 tabread~ arr-0;
#X obj 250 270 tabread~ arr-1;
#X obj 140 60 numbox~ 5 59 100 #e3dfd9 #5a5a5a 10 -1 1 0.57;
#X obj 360 130 numbox~ 5 59 100 #e3dfd9 #5a5a5a 10 -1 1 0.95;
#X obj 330 400 numbox~ 5 59 100 #e3dfd9 #5a5a5a 10 0 0 0;
#X connect 0 0 8 0 empty;
#X connect 3 0 5 0 32.................d....3F...fG....tA...vC....;
#X connect 3 0 4 0 32.................d.........fG.........vC....;
#X connect 4 0 0 0 32.................p....3K...fJ....9B...vC....;
#X connect 5 0 0 1 32.................T....7E....E....eA...vC....;
#X connect 6 0 3 0 empty;
#X connect 7 0 0 2 empty;
