#N canvas 827 239 527 327 12;
#N canvas 0 50 450 250 (subpatch) 0;
#X array arr0 100 float 0;
#X coords 0 1 99 -1 200 140 1;
#X restore 20 30 graph;
#N canvas 0 50 450 250 (subpatch) 0;
#X array arr1 100 float 0;
#X coords 0 1 99 -1 200 140 1;
#X restore 240 30 graph;
#X obj 230 340 xfade~;
#X obj 60 210 nbx 10 50 0 100 0 0 empty empty empty 0 -8 0 10 #191919 #ffffff #ffffff 0 256;
#X obj 260 210 nbx 10 50 -1 1 0 0 empty empty empty 0 -8 0 10 #191919 #ffffff #ffffff 0 256;
#X obj 60 280 tabread~ arr0;
#X obj 170 280 tabread~ arr1;
#X obj 230 400 numbox~ 9 62 100 #191919 #ffffff 10 0 0 0;
#X connect 2 0 7 0 empty;
#X connect 3 0 5 0 empty;
#X connect 3 0 6 0 empty;
#X connect 4 0 2 2 empty;
#X connect 5 0 2 0 empty;
#X connect 6 0 2 1 empty;
