#N canvas 827 239 652 369 12;
#X obj 8 203 superformula~;
#X obj 8 238 pol2car~;
#X obj 170 203 *~ 6.2831;
#X obj 8 99 phasor~;
#X obj 69 99 inlet~;
#X obj 116 99 inlet~;
#X obj 163 99 inlet~;
#X obj 210 99 inlet~;
#X obj 257 99 inlet~;
#X obj 304 99 inlet~;
#X obj 351 99 inlet~;
#X obj 8 329 outlet~;
#X obj 77 329 outlet~;
#X obj 8 12 inlet;
#X obj 8 50 unpack f f;
#X obj 8 282 *~;
#X obj 49 279 *~;
#X obj 386 9 inlet~;
#X obj 449 9 inlet~;
#X obj 519 9 inlet~;
#X obj 579 9 inlet~;
#X obj 390 169 adsr~;
#X obj 386 39 *~ 1000;
#X obj 449 39 *~ 1000;
#X obj 579 39 *~ 1000;
#X connect 0 0 1 0 32.................U.........PE.........jB....;
#X connect 1 0 15 0 empty;
#X connect 1 1 16 0 empty;
#X connect 2 0 1 1 32.................H....f3+++OB....H9+++mA....;
#X connect 3 0 0 0 32.................v..........L..........F....;
#X connect 3 0 2 0 32.................JA...HJ...fR....hB...PE....;
#X connect 4 0 0 1 32.................L....T5+++OC....k9+++CF....;
#X connect 5 0 0 2 32.................V....D3+++uE....A9+++CF....;
#X connect 6 0 0 3 32.................d....z0+++uG....c8+++CF....;
#X connect 7 0 0 4 32.................k....jy+++eI....47+++CF....;
#X connect 8 0 0 5 32.................s....Tw+++eK....U7+++CF....;
#X connect 9 0 0 6 32.................1....Du+++uM....w6+++CF....;
#X connect 10 0 0 7 32.................AA...zr+++eP....M6+++CF....;
#X connect 13 0 14 0 empty;
#X connect 14 0 3 0 32.................O.........vC.........zA....;
#X connect 14 1 21 0 32.................K....LV...vB....iE...jE....;
#X connect 15 0 11 0 empty;
#X connect 16 0 12 0 32.................O....vA...vC....b....3A....;
#X connect 17 0 22 0 empty;
#X connect 18 0 23 0 empty;
#X connect 19 0 21 3 32.................8.....6+++eO....v9+++yH....;
#X connect 20 0 24 0 empty;
#X connect 21 0 15 1 32.................KA...Tn++++R....E5+++2E....;
#X connect 21 0 16 1 32.................QA...3p+++eT....t5+++qE....;
#X connect 22 0 21 1 32.................O....PA...vC....T....3F....;
#X connect 23 0 21 2 32.................P....X9+++OD....l++++6F....;
#X connect 24 0 21 4 32.................3....T3+++ON....E9+++6F....;
