#N canvas 827 239 527 327 12;
#X obj 199 19 mouse;
#X obj 199 69 change;
#X obj 269 69 change;
#X obj 230 129 f;
#X obj 300 129 f;
#X obj 129 89 select 1;
#X obj 9 9 keyname;
#X obj 199 179 -;
#X obj 199 269 nbx 4 18 -1e+37 1e+37 0 0 empty empty empty 0 -8 0 10 #191919 #ffffff #ffffff 0 256;
#X obj 269 179 -;
#X obj 269 269 nbx 4 18 -1e+37 1e+37 0 0 empty empty empty 0 -8 0 10 #191919 #ffffff #ffffff 0 256;
#X obj 269 209 * -1;
#X obj 199 239 change;
#X obj 269 239 change;
#X connect 0 1 1 0 empty;
#X connect 0 2 2 0 empty;
#X connect 1 0 3 1 empty;
#X connect 1 0 7 0 empty;
#X connect 2 0 4 1 empty;
#X connect 2 0 9 0 empty;
#X connect 3 0 7 1 empty;
#X connect 4 0 9 1 empty;
#X connect 5 0 3 0 empty;
#X connect 5 0 4 0 empty;
#X connect 5 0 7 0 empty;
#X connect 5 0 9 0 empty;
#X connect 6 0 5 0 empty;
#X connect 7 0 12 0 empty;
#X connect 9 0 11 0 empty;
#X connect 11 0 13 0 empty;
#X connect 12 0 8 0 empty;
#X connect 13 0 10 0 empty;
