#N canvas 827 239 713 488 12;
#X obj 39 119 nbx 4 18 -1e+37 1e+37 0 0 empty empty empty 0 -8 0 10 #191919 #d4d4d4 #d4d4d4 0 256;
#X obj 39 149 s to-abs;
#N canvas 0 50 450 300 abs-loader 0;
#X obj 10 10 r to-abs;
#X obj 10 100 algo1;
#X obj 10 200 s from-abs;
#X connect 0 0 1 0;
#X connect 1 0 2 0;
#X restore 39 179 pd abs-loader;
#X obj 39 249 nbx 4 18 -1e+37 1e+37 0 0 empty empty empty 0 -8 0 10 #191919 #d4d4d4 #d4d4d4 0 256;
#X msg 232 109 \; pd-abs-loader clear;
#X obj 39 209 r from-abs;
#X obj 149 79 t b b b b b b;
#X obj 149 48 bng 25 250 50 0 empty empty empty 17 7 0 10 #191919 #d4d4d4 #d4d4d4;
#X msg 215 163 \; pd-abs-loader obj 10 10 r to-abs;
#X msg 198 218 \; pd-abs-loader obj 10 100 algo1;
#X msg 182 274 \; pd-abs-loader obj 10 200 s from-abs;
#X msg 165 329 \; pd-abs-loader connect 0 0 1 0;
#X msg 149 389 \; pd-abs-loader connect 1 0 2 0;
#X msg 512 109 \; pd-abs-loader clear;
#X obj 429 79 t b b b b b b;
#X obj 429 48 bng 25 250 50 0 empty empty empty 17 7 0 10 #191919 #d4d4d4 #d4d4d4;
#X msg 495 163 \; pd-abs-loader obj 10 10 r to-abs;
#X msg 462 274 \; pd-abs-loader obj 10 200 s from-abs;
#X msg 445 329 \; pd-abs-loader connect 0 0 1 0;
#X msg 429 389 \; pd-abs-loader connect 1 0 2 0;
#X msg 478 218 \; pd-abs-loader obj 10 100 algo2;
#X text 459 48 algorithm 2 (mult by 2);
#X text 189 48 algorithm 1 (pass input);
#X connect 0 0 1 0;
#X connect 5 0 3 0;
#X connect 6 0 12 0;
#X connect 6 1 11 0;
#X connect 6 2 10 0;
#X connect 6 3 9 0;
#X connect 6 4 8 0;
#X connect 6 5 4 0;
#X connect 7 0 6 0;
#X connect 14 0 19 0;
#X connect 14 1 18 0;
#X connect 14 2 17 0;
#X connect 14 3 20 0;
#X connect 14 4 16 0;
#X connect 14 5 13 0;
#X connect 15 0 14 0;
