#N canvas 827 239 527 327 12;
#N canvas 0 50 450 250 (subpatch) 0;
#X text 0 0 plugdatainfo <?xml version="1.0" encoding="UTF-8"?> <plugdatainfo/>;
#X coords 0 1 100 -1 1 1 1;
#X restore 0 0 graph;
#X obj 194 59 cnv 28 27 29 empty \$0-red 🧡 -20 200 0 61 #ed3b4b #ed3b4b 0;
#X obj 265 74 cnv 28 26 29 empty \$0-orange 💛 -18 201 0 64 #ff6e1d #ff6e1d 0;
#X obj 334 76 cnv 28 27 29 empty \$0-yellow 💚 -18 201 0 62 #fbcd26 #fbcd26 0;
#X obj 404 65 cnv 28 27 29 empty \$0-green 💙 -18 200 0 60 #53af65 #53af65 0;
#X obj 470 54 cnv 28 27 29 empty \$0-blue 💜 -16 200 0 58 #2d8ce3 #2d8ce3 0;
#X obj 539 50 cnv 28 27 29 empty \$0-purple 🤎 -18 201 0 63 #6a47b9 #6a47b9 0;
#X obj 27 430 lfo 0.4 0;
#X obj 27 495 +;
#X obj 71 464 nbx 4 18 -1e+37 1e+37 0 1 empty empty empty 0 -8 0 10 #191919 #ffffff #ffffff 51 256;
#X obj 27 525 pack;
#X msg 27 558 pos \$2 \$1, f 10;
#X obj 71 495 nbx 4 18 -1e+37 1e+37 0 1 empty empty empty 0 -8 0 10 #191919 #ffffff #ffffff 194 256;
#X obj 27 462 *;
#X obj 95 432 nbx 4 18 -1e+37 1e+37 0 1 empty empty empty 0 -8 0 10 #191919 #ffffff #ffffff 0.2 256;
#X obj 164 493 +;
#X obj 208 462 nbx 4 18 -1e+37 1e+37 0 1 empty empty empty 0 -8 0 10 #191919 #ffffff #ffffff 53 256;
#X obj 164 523 pack;
#X msg 164 556 pos \$2 \$1, f 10;
#X obj 208 493 nbx 4 18 -1e+37 1e+37 0 1 empty empty empty 0 -8 0 10 #191919 #ffffff #ffffff 265 256;
#X obj 164 460 *;
#X obj 252 430 nbx 4 18 -1e+37 1e+37 0 1 empty empty empty 0 -8 0 10 #191919 #ffffff #ffffff 0.2 256;
#X obj 164 428 lfo 0.4 0.167;
#X obj 307 493 +;
#X obj 351 462 nbx 4 18 -1e+37 1e+37 0 1 empty empty empty 0 -8 0 10 #191919 #ffffff #ffffff 51 256;
#X obj 307 523 pack;
#X msg 307 556 pos \$2 \$1, f 10;
#X obj 351 493 nbx 4 18 -1e+37 1e+37 0 1 empty empty empty 0 -8 0 10 #191919 #ffffff #ffffff 334 256;
#X obj 307 460 *;
#X obj 395 430 nbx 4 18 -1e+37 1e+37 0 1 empty empty empty 0 -8 0 10 #191919 #ffffff #ffffff 0.2 256;
#X obj 307 428 lfo 0.4 0.33;
#X obj 448 495 +;
#X obj 492 464 nbx 4 18 -1e+37 1e+37 0 1 empty empty empty 0 -8 0 10 #191919 #ffffff #ffffff 49 256;
#X obj 448 525 pack;
#X msg 448 558 pos \$2 \$1, f 10;
#X obj 492 495 nbx 4 18 -1e+37 1e+37 0 1 empty empty empty 0 -8 0 10 #191919 #ffffff #ffffff 404 256;
#X obj 448 462 *;
#X obj 536 432 nbx 4 18 -1e+37 1e+37 0 1 empty empty empty 0 -8 0 10 #191919 #ffffff #ffffff 0.2 256;
#X obj 448 430 lfo 0.4 0.5;
#X obj 589 493 +;
#X obj 633 462 nbx 4 18 -1e+37 1e+37 0 1 empty empty empty 0 -8 0 10 #191919 #ffffff #ffffff 50 256;
#X obj 589 523 pack;
#X msg 589 556 pos \$2 \$1, f 10;
#X obj 633 493 nbx 4 18 -1e+37 1e+37 0 1 empty empty empty 0 -8 0 10 #191919 #ffffff #ffffff 470 256;
#X obj 589 460 *;
#X obj 677 430 nbx 4 18 -1e+37 1e+37 0 1 empty empty empty 0 -8 0 10 #191919 #ffffff #ffffff 0.2 256;
#X obj 742 493 +;
#X obj 786 462 nbx 4 18 -1e+37 1e+37 0 1 empty empty empty 0 -8 0 10 #191919 #ffffff #ffffff 50 256;
#X obj 742 523 pack;
#X msg 742 556 pos \$2 \$1, f 10;
#X obj 786 493 nbx 4 18 -1e+37 1e+37 0 1 empty empty empty 0 -8 0 10 #191919 #ffffff #ffffff 539 256;
#X obj 742 460 *;
#X obj 830 430 nbx 4 18 -1e+37 1e+37 0 1 empty empty empty 0 -8 0 10 #191919 #ffffff #ffffff 0.2 256;
#X obj 589 428 lfo 0.4 0.667;
#X obj 742 428 lfo 0.4 0.83;
#X obj 27 583 s \$0-red;
#X obj 164 583 s \$0-orange;
#X obj 307 583 s \$0-yellow;
#X obj 448 583 s \$0-green;
#X obj 589 583 s \$0-blue;
#X obj 742 583 s \$0-purple;
#X msg 27 378 32, f 5;
#X text 73 377 party party ya!;
#X connect 7 0 13 0;
#X connect 8 0 10 0;
#X connect 9 0 8 1;
#X connect 10 0 11 0;
#X connect 11 0 55 0;
#X connect 12 0 10 1;
#X connect 13 0 8 0;
#X connect 14 0 13 1;
#X connect 15 0 17 0;
#X connect 16 0 15 1;
#X connect 17 0 18 0;
#X connect 18 0 56 0;
#X connect 19 0 17 1;
#X connect 20 0 15 0;
#X connect 21 0 20 1;
#X connect 22 0 20 0;
#X connect 23 0 25 0;
#X connect 24 0 23 1;
#X connect 25 0 26 0;
#X connect 26 0 57 0;
#X connect 27 0 25 1;
#X connect 28 0 23 0;
#X connect 29 0 28 1;
#X connect 30 0 28 0;
#X connect 31 0 33 0;
#X connect 32 0 31 1;
#X connect 33 0 34 0;
#X connect 34 0 58 0;
#X connect 35 0 33 1;
#X connect 36 0 31 0;
#X connect 37 0 36 1;
#X connect 38 0 36 0;
#X connect 39 0 41 0;
#X connect 40 0 39 1;
#X connect 41 0 42 0;
#X connect 42 0 59 0;
#X connect 43 0 41 1;
#X connect 44 0 39 0;
#X connect 45 0 44 1;
#X connect 46 0 48 0;
#X connect 47 0 46 1;
#X connect 48 0 49 0;
#X connect 49 0 60 0;
#X connect 50 0 48 1;
#X connect 51 0 46 0;
#X connect 52 0 51 1;
#X connect 53 0 44 0;
#X connect 54 0 51 0;
#X connect 61 0 7 0;
#X connect 61 0 22 0;
#X connect 61 0 30 0;
#X connect 61 0 38 0;
#X connect 61 0 53 0;
#X connect 61 0 54 0;
#X coords 0 0 1 1 437 146 2 167 192;
