#N canvas 0 50 575 531 12;
#X obj 479 9 inlet;
#X obj 79 499 outlet;
#X obj 79 409 ||;
#X obj 79 379 t b f;
#X obj 19 74 &&;
#X obj 79 69 key;
#X obj 159 169 keyup;
#X obj 30 9 keyname;
#X obj 79 209 ==;
#X obj 19 109 select 1;
#X obj 79 99 t f f;
#X obj 159 209 ==;
#X obj 79 309 tgl 25 0 empty empty empty 17 7 0 10 #191919 #ffffff #ffffff 0 1;
#X msg 159 269 0;
#X msg 79 269 1;
#X obj 159 239 select 1;
#X obj 79 239 select 1;
#X obj 79 349 change;
#X obj 90 171 nbx 4 18 -1e+37 1e+37 0 1 empty empty empty 0 -8 0 10 #191919 #ffffff #ffffff -1 256;
#X obj 90 144 f;
#X obj 9 499 outlet;
#X obj 79 439 change;
#X obj 479 37 route click;
#X obj 399 409 \$1;
#N canvas 0 50 450 300 voice-\$0 1;
#X obj 500 10 r x-\$0;
#X obj 500 50 r y-\$0;
#X obj 500 90 0;
#X restore 479 499 pd voice-\$0;
#X obj 479 109 select 0 1;
#N canvas 0 50 450 300 set-color 1;
#X obj 19 19 inlet;
#X obj 19 259 outlet;
#X msg 19 179 color #191919 #ffffff #191919;
#X obj 249 79 r color;
#X msg 249 139 set color #191919 #ffffff \$1;
#X msg 219 179 color #191919 #ffffff #ff003f;
#X obj 249 109 symbol;
#X obj 19 89 select 0 1;
#X connect 0 0 7 0 empty;
#X connect 2 0 1 0 empty;
#X connect 3 0 6 0 empty;
#X connect 4 0 5 0 empty;
#X connect 5 0 1 0 empty;
#X connect 6 0 4 0 empty;
#X connect 7 0 2 0 empty;
#X connect 7 1 5 0 empty;
#X restore 79 469 pd set-color;
#X msg 269 289 clear;
#X obj 589 69 button 25 25 25 25 25 255 255 255 0;
#X obj 269 499 s pd-voice-\$0;
#X msg 349 349 obj 500 10 r x-\\\$0;
#X msg 379 379 obj 500 50 r y-\\\$0;
#X msg 399 439 obj 500 90 \$1;
#X obj 609 189 bng 25 250 50 0 empty empty empty 17 7 0 10 #191919 #ffffff #ffffff;
#X connect 0 0 22 0 empty;
#X connect 2 0 21 0 empty;
#X connect 3 0 2 0 empty;
#X connect 3 1 2 1 empty;
#X connect 4 0 9 0 empty;
#X connect 5 0 10 0 empty;
#X connect 6 0 11 0 empty;
#X connect 7 0 4 1 empty;
#X connect 8 0 16 0 empty;
#X connect 9 0 19 0 32.................E....bD...PA....GA...7.....;
#X connect 10 0 8 0 empty;
#X connect 10 1 19 1 32.................M....r....PC....K....jA....;
#X connect 11 0 15 0 empty;
#X connect 12 0 17 0 empty;
#X connect 13 0 12 0 32.................G....D6++++A....w9+++SA....;
#X connect 14 0 12 0 empty;
#X connect 15 0 13 0 empty;
#X connect 16 0 14 0 empty;
#X connect 17 0 3 0 empty;
#X connect 18 0 8 1 empty;
#X connect 18 0 11 1 32.................G.....E...vA....PA...PA....;
#X connect 19 0 18 0 empty;
#X connect 21 0 26 0 empty;
#X connect 22 0 25 0 empty;
#X connect 22 0 2 0 48.................S....zu++++D....86+++mU...Pb9+++YE...Dm+++uWA...;
#X connect 22 0 4 0 32.................J....Ti+++uB....03+++GA....;
#X connect 23 0 32 0 empty;
#X connect 25 0 27 0 empty;
#X connect 26 0 1 0 empty;
#X connect 27 0 29 0 empty;
#X connect 28 0 25 0 empty;
#X connect 30 0 29 0 empty;
#X connect 31 0 29 0 empty;
#X connect 32 0 29 0 empty;
