#N canvas 0 50 575 531 12;
#X obj 479 9 inlet;
#X obj 79 479 outlet;
#X obj 79 389 ||;
#X obj 79 339 t b f;
#X obj 19 44 &&;
#X obj 79 49 key;
#X obj 149 169 keyup;
#X obj 30 9 keyname;
#X obj 79 179 ==;
#X obj 19 79 select 1;
#X obj 79 79 t f f;
#X obj 149 209 ==;
#X obj 79 269 tgl 25 0 empty empty empty 17 7 0 10 #191919 #ffffff #ffffff 0 1;
#X msg 149 269 0;
#X msg 79 239 1;
#X obj 149 239 select 1;
#X obj 79 209 select 1;
#X obj 79 309 change;
#X text 139 138 last held key while this butt was pressed;
#X obj 90 141 nbx 4 18 -1e+37 1e+37 0 1 empty empty empty 0 -8 0 10 #191919 #ffffff #ffffff -1 256;
#X obj 90 114 f;
#X obj 9 479 outlet;
#X obj 79 419 change;
#X obj 479 39 route click;
#X obj 469 219 \$1;
#N canvas 0 50 450 300 voice-\$0 1;
#X restore 479 499 pd voice-\$0;
#X obj 529 159 t b b b;
#X obj 479 109 select 0 1;
#N canvas 0 50 450 300 set-color 1;
#X obj 19 19 inlet;
#X obj 19 259 outlet;
#X msg 19 179 color #191919 #ffffff #191919;
#X obj 249 79 r color;
#X msg 249 139 set color #191919 #ffffff \$1;
#X msg 219 179 color #191919 #ffffff #ff003f;
#X obj 249 109 symbol;
#X obj 19 89 select 0 1;
#X connect 0 0 7 0 empty;
#X connect 2 0 1 0 empty;
#X connect 3 0 6 0 empty;
#X connect 4 0 5 0 empty;
#X connect 5 0 1 0 empty;
#X connect 6 0 4 0 empty;
#X connect 7 0 2 0 empty;
#X connect 7 1 5 0 empty;
#X restore 79 449 pd set-color;
#X connect 0 0 23 0 empty;
#X connect 2 0 22 0 empty;
#X connect 3 0 2 0 empty;
#X connect 3 1 2 1 empty;
#X connect 4 0 9 0 empty;
#X connect 5 0 10 0 empty;
#X connect 6 0 11 0 empty;
#X connect 7 0 4 1 empty;
#X connect 8 0 16 0 empty;
#X connect 9 0 20 0 empty;
#X connect 10 0 8 0 empty;
#X connect 10 1 20 1 empty;
#X connect 11 0 15 0 empty;
#X connect 12 0 17 0 empty;
#X connect 13 0 12 0 empty;
#X connect 14 0 12 0 empty;
#X connect 15 0 13 0 empty;
#X connect 16 0 14 0 empty;
#X connect 17 0 3 0 empty;
#X connect 19 0 11 1 empty;
#X connect 19 0 8 1 empty;
#X connect 20 0 19 0 empty;
#X connect 22 0 28 0 empty;
#X connect 23 0 4 0 empty;
#X connect 23 0 2 0 empty;
#X connect 23 0 27 0 empty;
#X connect 28 0 1 0 empty;
