#N canvas 0 50 575 531 12;
#X obj 239 9 inlet;
#X obj 79 499 outlet;
#X obj 79 409 ||;
#X obj 79 379 t b f;
#X obj 19 74 &&;
#X obj 79 69 key;
#X obj 159 169 keyup;
#X obj 30 9 keyname;
#X obj 79 209 ==;
#X obj 19 109 select 1;
#X obj 79 99 t f f;
#X obj 159 209 ==;
#X obj 79 309 tgl 25 0 empty empty empty 17 7 0 10 #191919 #ffffff #ffffff 0 1;
#X msg 159 269 0;
#X msg 79 269 1;
#X obj 159 239 select 1;
#X obj 79 239 select 1;
#X obj 79 349 change;
#X obj 90 171 nbx 4 18 -1e+37 1e+37 0 1 empty empty empty 0 -8 0 10 #191919 #ffffff #ffffff -1 256;
#X obj 90 144 f;
#X obj 9 499 outlet;
#X obj 79 439 change;
#X obj 239 37 route click;
#X obj 359 239 \$1;
#N canvas 0 50 450 300 voice-\$0 1;
#X restore 449 499 pd voice-\$0;
#X obj 239 149 select 0 1;
#N canvas 0 50 450 300 set-color 1;
#X obj 19 19 inlet;
#X obj 19 259 outlet;
#X msg 19 179 color #191919 #ffffff #191919;
#X obj 249 79 r color;
#X msg 249 139 set color #191919 #ffffff \$1;
#X msg 219 179 color #191919 #ffffff #ff003f;
#X obj 249 109 symbol;
#X obj 19 89 select 0 1;
#X connect 0 0 7 0 empty;
#X connect 2 0 1 0 empty;
#X connect 3 0 6 0 empty;
#X connect 4 0 5 0 empty;
#X connect 5 0 1 0 empty;
#X connect 6 0 4 0 empty;
#X connect 7 0 2 0 empty;
#X connect 7 1 5 0 empty;
#X restore 79 469 pd set-color;
#X obj 239 499 s pd-voice-\$0;
#X obj 288 109 s x-\$0;
#X obj 358 109 s y-\$0;
#X obj 288 69 unpack;
#X obj 319 239 \$0;
#X obj 319 199 t b b;
#X msg 239 405 clear;
#X msg 366 360 obj 10 200 throw~ owout;
#X msg 319 449 loadbang;
#X obj 319 319 t b b l b;
#X obj 249 199 s low-\$0;
#X msg 334 420 connect 1 0 0 0;
#X msg 350 390 obj 10 100 synth-abs \$1 \$2;
#X obj 319 279 pack;
#X connect 0 0 22 0 empty;
#X connect 2 0 21 0 empty;
#X connect 2 0 25 0 80.................E....vH...PA....LB...j3+++Oi....I9+++yH...PN++++LB...jy+++Oi....f6+++CJ....39+++fB...jt+++O;
#X connect 3 0 2 0 empty;
#X connect 3 1 2 1 empty;
#X connect 4 0 9 0 empty;
#X connect 5 0 10 0 empty;
#X connect 6 0 11 0 empty;
#X connect 7 0 4 1 empty;
#X connect 8 0 16 0 empty;
#X connect 9 0 19 0 32.................E....bD...PA....GA...7.....;
#X connect 10 0 8 0 empty;
#X connect 10 1 19 1 32.................M....r....PC....K....jA....;
#X connect 11 0 15 0 empty;
#X connect 12 0 17 0 empty;
#X connect 13 0 12 0 32.................G....D6++++A....w9+++SA....;
#X connect 14 0 12 0 empty;
#X connect 15 0 13 0 empty;
#X connect 16 0 14 0 empty;
#X connect 17 0 3 0 empty;
#X connect 18 0 8 1 empty;
#X connect 18 0 11 1 32.................G.....E...vA....PA...PA....;
#X connect 19 0 18 0 empty;
#X connect 21 0 26 0 empty;
#X connect 22 0 4 0 32.................H....bv+++OB....G7+++GA....;
#X connect 22 0 2 0 48.................a....H9++++F....h++++qU...PX++++ZE...D1+++OXA...;
#X connect 22 1 30 0 empty;
#X connect 23 0 40 1 empty;
#X connect 25 0 37 0 empty;
#X connect 25 0 33 0 empty;
#X connect 25 1 32 0 empty;
#X connect 26 0 1 0 empty;
#X connect 30 0 28 0 empty;
#X connect 30 1 29 0 empty;
#X connect 31 0 40 0 empty;
#X connect 32 0 31 0 empty;
#X connect 32 1 23 0 empty;
#X connect 33 0 27 0 empty;
#X connect 34 0 27 0 empty;
#X connect 35 0 27 0 empty;
#X connect 36 0 35 0 empty;
#X connect 36 1 38 0 empty;
#X connect 36 2 39 0 empty;
#X connect 36 3 34 0 empty;
#X connect 38 0 27 0 empty;
#X connect 39 0 27 0 empty;
#X connect 40 0 36 0 empty;
