#N canvas 0 50 450 250 12;
#X obj -1 -1 pad 81 83 25 25 25;
#X obj -1 -41 inlet;
#X obj -1 109 outlet;
#X obj 79 109 route click;
#X obj 128 142 display;
#X obj 79 179 select 0 1;
#X obj 79 239 bng 25 250 50 0 empty empty empty 17 7 0 10 #191919 #ffffff #ffffff;
#X obj 111 239 bng 25 250 50 0 empty empty empty 17 7 0 10 #191919 #ffffff #ffffff;
#X obj 369 159 rand.i 0 360;
#X msg 369 189 hsl \$1 100 50;
#X obj 369 219 colors -rgb;
#X msg 369 249 color \$1 \$2 \$3;
#X msg 219 249 color 25 25 25;
#X connect 0 0 2 0 empty;
#X connect 0 0 3 0 empty;
#X connect 1 0 0 0 empty;
#X connect 3 0 5 0 empty;
#X connect 3 1 4 0 empty;
#X connect 5 0 6 0 empty;
#X connect 5 0 12 0 empty;
#X connect 5 1 7 0 empty;
#X connect 5 1 8 0 empty;
#X connect 8 0 9 0 empty;
#X connect 9 0 10 0 empty;
#X connect 10 0 11 0 empty;
#X connect 11 0 0 0 empty;
#X connect 12 0 0 0 empty;
#X coords 0 1 100 -1 81 81 1 0 0;
