#N canvas 827 239 600 500 12;
#X msg 619 209 ⬢;
#N canvas 0 50 450 250 (subpatch) 1;
#X obj -41 -31 cnv 15 641 531 empty empty empty 20 12 0 14 #d1d1d1 #ffffff 0;
#X obj 604 -1 bng 25 250 50 0 empty empty ⬢ -611 37 0 87 #191919 #ffffff #191919;
#X obj 656 -1 bng 25 250 50 0 empty empty ⬢ -611 37 0 87 #191919 #ffffff #191919;
#X obj 708 -1 bng 25 250 50 0 empty empty ⬢ -611 37 0 87 #191919 #ffffff #191919;
#X obj 760 -1 bng 25 250 50 0 empty empty ⬢ -611 37 0 87 #191919 #ffffff #191919;
#X obj 812 -1 bng 25 250 50 0 empty empty ⬢ -611 37 0 87 #191919 #ffffff #191919;
#X obj 864 -1 bng 25 250 50 0 empty empty ⬢ -611 37 0 87 #191919 #ffffff #191919;
#X obj 916 -1 bng 25 250 50 0 empty empty ⬢ -611 37 0 87 #191919 #ffffff #191919;
#X obj 968 -1 bng 25 250 50 0 empty empty ⬢ -611 37 0 87 #191919 #ffffff #191919;
#X obj 1020 -1 bng 25 250 50 0 empty empty ⬢ -611 37 0 87 #191919 #ffffff #191919;
#X obj 1072 -1 bng 25 250 50 0 empty empty ⬢ -611 37 0 87 #191919 #ffffff #191919;
#X obj 1124 -1 bng 25 250 50 0 empty empty ⬢ -611 37 0 87 #191919 #ffffff #191919;
#X obj 630 46 bng 25 250 50 0 empty empty ⬢ -611 37 0 87 #191919 #ffffff #191919;
#X obj 682 46 bng 25 250 50 0 empty empty ⬢ -611 37 0 87 #191919 #ffffff #191919;
#X obj 734 46 bng 25 250 50 0 empty empty ⬢ -611 37 0 87 #191919 #ffffff #191919;
#X obj 786 46 bng 25 250 50 0 empty empty ⬢ -611 37 0 87 #191919 #ffffff #191919;
#X obj 838 46 bng 25 250 50 0 empty empty ⬢ -611 37 0 87 #191919 #ffffff #191919;
#X obj 890 46 bng 25 250 50 0 empty empty ⬢ -611 37 0 87 #191919 #ffffff #191919;
#X obj 942 46 bng 25 250 50 0 empty empty ⬢ -611 37 0 87 #191919 #ffffff #191919;
#X obj 994 46 bng 25 250 50 0 empty empty ⬢ -611 37 0 87 #191919 #ffffff #191919;
#X obj 1046 46 bng 25 250 50 0 empty empty ⬢ -611 37 0 87 #191919 #ffffff #191919;
#X obj 1098 46 bng 25 250 50 0 empty empty ⬢ -611 37 0 87 #191919 #ffffff #191919;
#X obj 1150 46 bng 25 250 50 0 empty empty ⬢ -611 37 0 87 #191919 #ffffff #191919;
#X obj 604 93 bng 25 250 50 0 empty empty ⬢ -611 37 0 87 #191919 #ffffff #191919;
#X obj 656 93 bng 25 250 50 0 empty empty ⬢ -611 37 0 87 #191919 #ffffff #191919;
#X obj 708 93 bng 25 250 50 0 empty empty ⬢ -611 37 0 87 #191919 #ffffff #191919;
#X obj 760 93 bng 25 250 50 0 empty empty ⬢ -611 37 0 87 #191919 #ffffff #191919;
#X obj 812 93 bng 25 250 50 0 empty empty ⬢ -611 37 0 87 #191919 #ffffff #191919;
#X obj 864 93 bng 25 250 50 0 empty empty ⬢ -611 37 0 87 #191919 #ffffff #191919;
#X obj 916 93 bng 25 250 50 0 empty empty ⬢ -611 37 0 87 #191919 #ffffff #191919;
#X obj 968 93 bng 25 250 50 0 empty empty ⬢ -611 37 0 87 #191919 #ffffff #191919;
#X obj 1020 93 bng 25 250 50 0 empty empty ⬢ -611 37 0 87 #191919 #ffffff #191919;
#X obj 1072 93 bng 25 250 50 0 empty empty ⬢ -611 37 0 87 #191919 #ffffff #191919;
#X obj 1124 93 bng 25 250 50 0 empty empty ⬢ -611 37 0 87 #191919 #ffffff #191919;
#X obj 630 140 bng 25 250 50 0 empty empty ⬢ -611 37 0 87 #191919 #ffffff #191919;
#X obj 682 140 bng 25 250 50 0 empty empty ⬢ -611 37 0 87 #191919 #ffffff #191919;
#X obj 734 140 bng 25 250 50 0 empty empty ⬢ -611 37 0 87 #191919 #ffffff #191919;
#X obj 786 140 bng 25 250 50 0 empty empty ⬢ -611 37 0 87 #191919 #ffffff #191919;
#X obj 838 140 bng 25 250 50 0 empty empty ⬢ -611 37 0 87 #191919 #ffffff #191919;
#X obj 890 140 bng 25 250 50 0 empty empty ⬢ -611 37 0 87 #191919 #ffffff #191919;
#X obj 942 140 bng 25 250 50 0 empty empty ⬢ -611 37 0 87 #191919 #ffffff #191919;
#X obj 994 140 bng 25 250 50 0 empty empty ⬢ -611 37 0 87 #191919 #ffffff #191919;
#X obj 1046 140 bng 25 250 50 0 empty empty ⬢ -611 37 0 87 #191919 #ffffff #191919;
#X obj 1098 140 bng 25 250 50 0 empty empty ⬢ -611 37 0 87 #191919 #ffffff #191919;
#X obj 1150 140 bng 25 250 50 0 empty empty ⬢ -611 37 0 87 #191919 #ffffff #191919;
#X obj 604 187 bng 25 250 50 0 empty empty ⬢ -611 37 0 87 #191919 #ffffff #191919;
#X obj 656 187 bng 25 250 50 0 empty empty ⬢ -611 37 0 87 #191919 #ffffff #191919;
#X obj 708 187 bng 25 250 50 0 empty empty ⬢ -611 37 0 87 #191919 #ffffff #191919;
#X obj 760 187 bng 25 250 50 0 empty empty ⬢ -611 37 0 87 #191919 #ffffff #191919;
#X obj 812 187 bng 25 250 50 0 empty empty ⬢ -611 37 0 87 #191919 #ffffff #191919;
#X obj 864 187 bng 25 250 50 0 empty empty ⬢ -611 37 0 87 #191919 #ffffff #191919;
#X obj 916 187 bng 25 250 50 0 empty empty ⬢ -611 37 0 87 #191919 #ffffff #191919;
#X obj 968 187 bng 25 250 50 0 empty empty ⬢ -611 37 0 87 #191919 #ffffff #191919;
#X obj 1020 187 bng 25 250 50 0 empty empty ⬢ -611 37 0 87 #191919 #ffffff #191919;
#X obj 1072 187 bng 25 250 50 0 empty empty ⬢ -611 37 0 87 #191919 #ffffff #191919;
#X obj 1124 187 bng 25 250 50 0 empty empty ⬢ -611 37 0 87 #191919 #ffffff #191919;
#X obj 630 234 bng 25 250 50 0 empty empty ⬢ -611 37 0 87 #191919 #ffffff #191919;
#X obj 682 234 bng 25 250 50 0 empty empty ⬢ -611 37 0 87 #191919 #ffffff #191919;
#X obj 734 234 bng 25 250 50 0 empty empty ⬢ -611 37 0 87 #191919 #ffffff #191919;
#X obj 786 234 bng 25 250 50 0 empty empty ⬢ -611 37 0 87 #191919 #ffffff #191919;
#X obj 838 234 bng 25 250 50 0 empty empty ⬢ -611 37 0 87 #191919 #ffffff #191919;
#X obj 890 234 bng 25 250 50 0 empty empty ⬢ -611 37 0 87 #191919 #ffffff #191919;
#X obj 942 234 bng 25 250 50 0 empty empty ⬢ -611 37 0 87 #191919 #ffffff #191919;
#X obj 994 234 bng 25 250 50 0 empty empty ⬢ -611 37 0 87 #191919 #ffffff #191919;
#X obj 1046 234 bng 25 250 50 0 empty empty ⬢ -611 37 0 87 #191919 #ffffff #191919;
#X obj 1098 234 bng 25 250 50 0 empty empty ⬢ -611 37 0 87 #191919 #ffffff #191919;
#X obj 1150 234 bng 25 250 50 0 empty empty ⬢ -611 37 0 87 #191919 #ffffff #191919;
#X obj 604 281 bng 25 250 50 0 empty empty ⬢ -611 37 0 87 #191919 #ffffff #191919;
#X obj 656 281 bng 25 250 50 0 empty empty ⬢ -611 37 0 87 #191919 #ffffff #191919;
#X obj 708 281 bng 25 250 50 0 empty empty ⬢ -611 37 0 87 #191919 #ffffff #191919;
#X obj 760 281 bng 25 250 50 0 empty empty ⬢ -611 37 0 87 #191919 #ffffff #191919;
#X obj 812 281 bng 25 250 50 0 empty empty ⬢ -611 37 0 87 #191919 #ffffff #191919;
#X obj 864 281 bng 25 250 50 0 empty empty ⬢ -611 37 0 87 #191919 #ffffff #191919;
#X obj 916 281 bng 25 250 50 0 empty empty ⬢ -611 37 0 87 #191919 #ffffff #191919;
#X obj 968 281 bng 25 250 50 0 empty empty ⬢ -611 37 0 87 #191919 #ffffff #191919;
#X obj 1020 281 bng 25 250 50 0 empty empty ⬢ -611 37 0 87 #191919 #ffffff #191919;
#X obj 1072 281 bng 25 250 50 0 empty empty ⬢ -611 37 0 87 #191919 #ffffff #191919;
#X obj 1124 281 bng 25 250 50 0 empty empty ⬢ -611 37 0 87 #191919 #ffffff #191919;
#X obj 630 328 bng 25 250 50 0 empty empty ⬢ -611 37 0 87 #191919 #ffffff #191919;
#X obj 682 328 bng 25 250 50 0 empty empty ⬢ -611 37 0 87 #191919 #ffffff #191919;
#X obj 734 328 bng 25 250 50 0 empty empty ⬢ -611 37 0 87 #191919 #ffffff #191919;
#X obj 786 328 bng 25 250 50 0 empty empty ⬢ -611 37 0 87 #191919 #ffffff #191919;
#X obj 838 328 bng 25 250 50 0 empty empty ⬢ -611 37 0 87 #191919 #ffffff #191919;
#X obj 890 328 bng 25 250 50 0 empty empty ⬢ -611 37 0 87 #191919 #ffffff #191919;
#X obj 942 328 bng 25 250 50 0 empty empty ⬢ -611 37 0 87 #191919 #ffffff #191919;
#X obj 994 328 bng 25 250 50 0 empty empty ⬢ -611 37 0 87 #191919 #ffffff #191919;
#X obj 1046 328 bng 25 250 50 0 empty empty ⬢ -611 37 0 87 #191919 #ffffff #191919;
#X obj 1098 328 bng 25 250 50 0 empty empty ⬢ -611 37 0 87 #191919 #ffffff #191919;
#X obj 1150 328 bng 25 250 50 0 empty empty ⬢ -611 37 0 87 #191919 #ffffff #191919;
#X obj 604 375 bng 25 250 50 0 empty empty ⬢ -611 37 0 87 #191919 #ffffff #191919;
#X obj 656 375 bng 25 250 50 0 empty empty ⬢ -611 37 0 87 #191919 #ffffff #191919;
#X obj 708 375 bng 25 250 50 0 empty empty ⬢ -611 37 0 87 #191919 #ffffff #191919;
#X obj 760 375 bng 25 250 50 0 empty empty ⬢ -611 37 0 87 #191919 #ffffff #191919;
#X obj 812 375 bng 25 250 50 0 empty empty ⬢ -611 37 0 87 #191919 #ffffff #191919;
#X obj 864 375 bng 25 250 50 0 empty empty ⬢ -611 37 0 87 #191919 #ffffff #191919;
#X obj 916 375 bng 25 250 50 0 empty empty ⬢ -611 37 0 87 #191919 #ffffff #191919;
#X obj 968 375 bng 25 250 50 0 empty empty ⬢ -611 37 0 87 #191919 #ffffff #191919;
#X obj 1020 375 bng 25 250 50 0 empty empty ⬢ -611 37 0 87 #191919 #ffffff #191919;
#X obj 1072 375 bng 25 250 50 0 empty empty ⬢ -611 37 0 87 #191919 #ffffff #191919;
#X obj 1124 375 bng 25 250 50 0 empty empty ⬢ -611 37 0 87 #191919 #ffffff #191919;
#X obj 630 422 bng 25 250 50 0 empty empty ⬢ -611 37 0 87 #191919 #ffffff #191919;
#X obj 682 422 bng 25 250 50 0 empty empty ⬢ -611 37 0 87 #191919 #ffffff #191919;
#X obj 734 422 bng 25 250 50 0 empty empty ⬢ -611 37 0 87 #191919 #ffffff #191919;
#X obj 786 422 bng 25 250 50 0 empty empty ⬢ -611 37 0 87 #191919 #ffffff #191919;
#X obj 838 422 bng 25 250 50 0 empty empty ⬢ -611 37 0 87 #191919 #ffffff #191919;
#X obj 890 422 bng 25 250 50 0 empty empty ⬢ -611 37 0 87 #191919 #ffffff #191919;
#X obj 942 422 bng 25 250 50 0 empty empty ⬢ -611 37 0 87 #191919 #ffffff #191919;
#X obj 994 422 bng 25 250 50 0 empty empty ⬢ -611 37 0 87 #191919 #ffffff #191919;
#X obj 1046 422 bng 25 250 50 0 empty empty ⬢ -611 37 0 87 #191919 #ffffff #191919;
#X obj 1098 422 bng 25 250 50 0 empty empty ⬢ -611 37 0 87 #191919 #ffffff #191919;
#X obj 1150 422 bng 25 250 50 0 empty empty ⬢ -611 37 0 87 #191919 #ffffff #191919;
#X msg 709 -81 color #191919 #ffffff #191919;
#X connect 111 0 11 0 empty;
#X connect 111 0 22 0 empty;
#X connect 111 0 21 0 empty;
#X connect 111 0 33 0 empty;
#X connect 111 0 10 0 empty;
#X connect 111 0 20 0 empty;
#X connect 111 0 32 0 empty;
#X connect 111 0 42 0 empty;
#X connect 111 0 43 0 empty;
#X connect 111 0 44 0 empty;
#X connect 111 0 9 0 empty;
#X connect 111 0 31 0 empty;
#X connect 111 0 53 0 empty;
#X connect 111 0 54 0 empty;
#X connect 111 0 55 0 empty;
#X connect 111 0 19 0 empty;
#X connect 111 0 41 0 empty;
#X connect 111 0 7 0 empty;
#X connect 111 0 8 0 empty;
#X connect 111 0 18 0 empty;
#X connect 111 0 29 0 empty;
#X connect 111 0 30 0 empty;
#X connect 111 0 40 0 empty;
#X connect 111 0 51 0 empty;
#X connect 111 0 52 0 empty;
#X connect 111 0 62 0 empty;
#X connect 111 0 63 0 empty;
#X connect 111 0 64 0 empty;
#X connect 111 0 65 0 empty;
#X connect 111 0 66 0 empty;
#X connect 111 0 73 0 empty;
#X connect 111 0 74 0 empty;
#X connect 111 0 75 0 empty;
#X connect 111 0 76 0 empty;
#X connect 111 0 77 0 empty;
#X connect 111 0 6 0 empty;
#X connect 111 0 17 0 empty;
#X connect 111 0 28 0 empty;
#X connect 111 0 39 0 empty;
#X connect 111 0 50 0 empty;
#X connect 111 0 61 0 empty;
#X connect 111 0 72 0 empty;
#X connect 111 0 3 0 empty;
#X connect 111 0 4 0 empty;
#X connect 111 0 5 0 empty;
#X connect 111 0 13 0 empty;
#X connect 111 0 14 0 empty;
#X connect 111 0 15 0 empty;
#X connect 111 0 16 0 empty;
#X connect 111 0 25 0 empty;
#X connect 111 0 26 0 empty;
#X connect 111 0 27 0 empty;
#X connect 111 0 35 0 empty;
#X connect 111 0 36 0 empty;
#X connect 111 0 37 0 empty;
#X connect 111 0 38 0 empty;
#X connect 111 0 47 0 empty;
#X connect 111 0 48 0 empty;
#X connect 111 0 49 0 empty;
#X connect 111 0 57 0 empty;
#X connect 111 0 58 0 empty;
#X connect 111 0 59 0 empty;
#X connect 111 0 60 0 empty;
#X connect 111 0 69 0 empty;
#X connect 111 0 70 0 empty;
#X connect 111 0 71 0 empty;
#X connect 111 0 79 0 empty;
#X connect 111 0 80 0 empty;
#X connect 111 0 81 0 empty;
#X connect 111 0 82 0 empty;
#X connect 111 0 83 0 empty;
#X connect 111 0 84 0 empty;
#X connect 111 0 85 0 empty;
#X connect 111 0 86 0 empty;
#X connect 111 0 87 0 empty;
#X connect 111 0 88 0 empty;
#X connect 111 0 91 0 empty;
#X connect 111 0 92 0 empty;
#X connect 111 0 93 0 empty;
#X connect 111 0 94 0 empty;
#X connect 111 0 95 0 empty;
#X connect 111 0 96 0 empty;
#X connect 111 0 97 0 empty;
#X connect 111 0 98 0 empty;
#X connect 111 0 99 0 empty;
#X connect 111 0 101 0 empty;
#X connect 111 0 102 0 empty;
#X connect 111 0 103 0 empty;
#X connect 111 0 104 0 empty;
#X connect 111 0 105 0 empty;
#X connect 111 0 106 0 empty;
#X connect 111 0 107 0 empty;
#X connect 111 0 108 0 empty;
#X connect 111 0 109 0 empty;
#X connect 111 0 110 0 empty;
#X connect 111 0 2 0 empty;
#X connect 111 0 24 0 empty;
#X connect 111 0 46 0 empty;
#X connect 111 0 68 0 empty;
#X connect 111 0 90 0 empty;
#X connect 111 0 1 0 empty;
#X connect 111 0 12 0 empty;
#X connect 111 0 23 0 empty;
#X connect 111 0 34 0 empty;
#X connect 111 0 45 0 empty;
#X connect 111 0 56 0 empty;
#X connect 111 0 67 0 empty;
#X connect 111 0 78 0 empty;
#X connect 111 0 89 0 empty;
#X connect 111 0 100 0 empty;
#X coords 0 1 100 -1 601 501 1 0 0;
#X restore -1 -1 graph;
