#N canvas 827 239 610 510 12;
#N canvas 0 50 450 250 (subpatch) 1;
#X msg 709 -81 color #191919 #ffffff #191919;
#X obj -31 -21 cnv 15 641 531 empty empty empty 20 12 0 14 #d1d1d1 #ffffff 0;
#X obj 619 -7 bng 25 250 50 0 empty empty ⬣ -611 37 0 87 #191919 #ffffff #191919;
#X obj 666 19 bng 25 250 50 0 empty empty ⬣ -611 37 0 87 #191919 #ffffff #191919;
#X obj 713 -7 bng 25 250 50 0 empty empty ⬣ -611 37 0 87 #191919 #ffffff #191919;
#X obj 807 -7 bng 25 250 50 0 empty empty ⬣ -611 37 0 87 #191919 #ffffff #191919;
#X obj 854 19 bng 25 250 50 0 empty empty ⬣ -611 37 0 87 #191919 #ffffff #191919;
#X obj 760 19 bng 25 250 50 0 empty empty ⬣ -611 37 0 87 #191919 #ffffff #191919;
#X obj 901 -7 bng 25 250 50 0 empty empty ⬣ -611 37 0 87 #191919 #ffffff #191919;
#X obj 948 19 bng 25 250 50 0 empty empty ⬣ -611 37 0 87 #191919 #ffffff #191919;
#X obj 995 -7 bng 25 250 50 0 empty empty ⬣ -611 37 0 87 #191919 #ffffff #191919;
#X obj 1089 -7 bng 25 250 50 0 empty empty ⬣ -611 37 0 87 #191919 #ffffff #191919;
#X obj 1136 19 bng 25 250 50 0 empty empty ⬣ -611 37 0 87 #191919 #ffffff #191919;
#X obj 1042 19 bng 25 250 50 0 empty empty ⬣ -611 37 0 87 #191919 #ffffff #191919;
#X obj 619 46 bng 25 250 50 0 empty empty ⬣ -611 37 0 87 #191919 #ffffff #191919;
#X obj 666 72 bng 25 250 50 0 empty empty ⬣ -611 37 0 87 #191919 #ffffff #191919;
#X obj 713 46 bng 25 250 50 0 empty empty ⬣ -611 37 0 87 #191919 #ffffff #191919;
#X obj 807 46 bng 25 250 50 0 empty empty ⬣ -611 37 0 87 #191919 #ffffff #191919;
#X obj 854 72 bng 25 250 50 0 empty empty ⬣ -611 37 0 87 #191919 #ffffff #191919;
#X obj 760 72 bng 25 250 50 0 empty empty ⬣ -611 37 0 87 #191919 #ffffff #191919;
#X obj 901 46 bng 25 250 50 0 empty empty ⬣ -611 37 0 87 #191919 #ffffff #191919;
#X obj 948 72 bng 25 250 50 0 empty empty ⬣ -611 37 0 87 #191919 #ffffff #191919;
#X obj 995 46 bng 25 250 50 0 empty empty ⬣ -611 37 0 87 #191919 #ffffff #191919;
#X obj 1089 46 bng 25 250 50 0 empty empty ⬣ -611 37 0 87 #191919 #ffffff #191919;
#X obj 1136 72 bng 25 250 50 0 empty empty ⬣ -611 37 0 87 #191919 #ffffff #191919;
#X obj 1042 72 bng 25 250 50 0 empty empty ⬣ -611 37 0 87 #191919 #ffffff #191919;
#X obj 619 99 bng 25 250 50 0 empty empty ⬣ -611 37 0 87 #191919 #ffffff #191919;
#X obj 666 125 bng 25 250 50 0 empty empty ⬣ -611 37 0 87 #191919 #ffffff #191919;
#X obj 713 99 bng 25 250 50 0 empty empty ⬣ -611 37 0 87 #191919 #ffffff #191919;
#X obj 807 99 bng 25 250 50 0 empty empty ⬣ -611 37 0 87 #191919 #ffffff #191919;
#X obj 854 125 bng 25 250 50 0 empty empty ⬣ -611 37 0 87 #191919 #ffffff #191919;
#X obj 760 125 bng 25 250 50 0 empty empty ⬣ -611 37 0 87 #191919 #ffffff #191919;
#X obj 901 99 bng 25 250 50 0 empty empty ⬣ -611 37 0 87 #191919 #ffffff #191919;
#X obj 948 125 bng 25 250 50 0 empty empty ⬣ -611 37 0 87 #191919 #ffffff #191919;
#X obj 995 99 bng 25 250 50 0 empty empty ⬣ -611 37 0 87 #191919 #ffffff #191919;
#X obj 1089 99 bng 25 250 50 0 empty empty ⬣ -611 37 0 87 #191919 #ffffff #191919;
#X obj 1136 125 bng 25 250 50 0 empty empty ⬣ -611 37 0 87 #191919 #ffffff #191919;
#X obj 1042 125 bng 25 250 50 0 empty empty ⬣ -611 37 0 87 #191919 #ffffff #191919;
#X obj 619 152 bng 25 250 50 0 empty empty ⬣ -611 37 0 87 #191919 #ffffff #191919;
#X obj 666 178 bng 25 250 50 0 empty empty ⬣ -611 37 0 87 #191919 #ffffff #191919;
#X obj 713 152 bng 25 250 50 0 empty empty ⬣ -611 37 0 87 #191919 #ffffff #191919;
#X obj 807 152 bng 25 250 50 0 empty empty ⬣ -611 37 0 87 #191919 #ffffff #191919;
#X obj 854 178 bng 25 250 50 0 empty empty ⬣ -611 37 0 87 #191919 #ffffff #191919;
#X obj 760 178 bng 25 250 50 0 empty empty ⬣ -611 37 0 87 #191919 #ffffff #191919;
#X obj 901 152 bng 25 250 50 0 empty empty ⬣ -611 37 0 87 #191919 #ffffff #191919;
#X obj 948 178 bng 25 250 50 0 empty empty ⬣ -611 37 0 87 #191919 #ffffff #191919;
#X obj 995 152 bng 25 250 50 0 empty empty ⬣ -611 37 0 87 #191919 #ffffff #191919;
#X obj 1089 152 bng 25 250 50 0 empty empty ⬣ -611 37 0 87 #191919 #ffffff #191919;
#X obj 1136 178 bng 25 250 50 0 empty empty ⬣ -611 37 0 87 #191919 #ffffff #191919;
#X obj 1042 178 bng 25 250 50 0 empty empty ⬣ -611 37 0 87 #191919 #ffffff #191919;
#X obj 619 205 bng 25 250 50 0 empty empty ⬣ -611 37 0 87 #191919 #ffffff #191919;
#X obj 666 231 bng 25 250 50 0 empty empty ⬣ -611 37 0 87 #191919 #ffffff #191919;
#X obj 713 205 bng 25 250 50 0 empty empty ⬣ -611 37 0 87 #191919 #ffffff #191919;
#X obj 807 205 bng 25 250 50 0 empty empty ⬣ -611 37 0 87 #191919 #ffffff #191919;
#X obj 854 231 bng 25 250 50 0 empty empty ⬣ -611 37 0 87 #191919 #ffffff #191919;
#X obj 760 231 bng 25 250 50 0 empty empty ⬣ -611 37 0 87 #191919 #ffffff #191919;
#X obj 901 205 bng 25 250 50 0 empty empty ⬣ -611 37 0 87 #191919 #ffffff #191919;
#X obj 948 231 bng 25 250 50 0 empty empty ⬣ -611 37 0 87 #191919 #ffffff #191919;
#X obj 995 205 bng 25 250 50 0 empty empty ⬣ -611 37 0 87 #191919 #ffffff #191919;
#X obj 1089 205 bng 25 250 50 0 empty empty ⬣ -611 37 0 87 #191919 #ffffff #191919;
#X obj 1136 231 bng 25 250 50 0 empty empty ⬣ -611 37 0 87 #191919 #ffffff #191919;
#X obj 1042 231 bng 25 250 50 0 empty empty ⬣ -611 37 0 87 #191919 #ffffff #191919;
#X obj 619 258 bng 25 250 50 0 empty empty ⬣ -611 37 0 87 #191919 #ffffff #191919;
#X obj 666 284 bng 25 250 50 0 empty empty ⬣ -611 37 0 87 #191919 #ffffff #191919;
#X obj 713 258 bng 25 250 50 0 empty empty ⬣ -611 37 0 87 #191919 #ffffff #191919;
#X obj 807 258 bng 25 250 50 0 empty empty ⬣ -611 37 0 87 #191919 #ffffff #191919;
#X obj 854 284 bng 25 250 50 0 empty empty ⬣ -611 37 0 87 #191919 #ffffff #191919;
#X obj 760 284 bng 25 250 50 0 empty empty ⬣ -611 37 0 87 #191919 #ffffff #191919;
#X obj 901 258 bng 25 250 50 0 empty empty ⬣ -611 37 0 87 #191919 #ffffff #191919;
#X obj 948 284 bng 25 250 50 0 empty empty ⬣ -611 37 0 87 #191919 #ffffff #191919;
#X obj 995 258 bng 25 250 50 0 empty empty ⬣ -611 37 0 87 #191919 #ffffff #191919;
#X obj 1089 258 bng 25 250 50 0 empty empty ⬣ -611 37 0 87 #191919 #ffffff #191919;
#X obj 1136 284 bng 25 250 50 0 empty empty ⬣ -611 37 0 87 #191919 #ffffff #191919;
#X obj 1042 284 bng 25 250 50 0 empty empty ⬣ -611 37 0 87 #191919 #ffffff #191919;
#X obj 619 311 bng 25 250 50 0 empty empty ⬣ -611 37 0 87 #191919 #ffffff #191919;
#X obj 666 337 bng 25 250 50 0 empty empty ⬣ -611 37 0 87 #191919 #ffffff #191919;
#X obj 713 311 bng 25 250 50 0 empty empty ⬣ -611 37 0 87 #191919 #ffffff #191919;
#X obj 807 311 bng 25 250 50 0 empty empty ⬣ -611 37 0 87 #191919 #ffffff #191919;
#X obj 854 337 bng 25 250 50 0 empty empty ⬣ -611 37 0 87 #191919 #ffffff #191919;
#X obj 760 337 bng 25 250 50 0 empty empty ⬣ -611 37 0 87 #191919 #ffffff #191919;
#X obj 901 311 bng 25 250 50 0 empty empty ⬣ -611 37 0 87 #191919 #ffffff #191919;
#X obj 948 337 bng 25 250 50 0 empty empty ⬣ -611 37 0 87 #191919 #ffffff #191919;
#X obj 995 311 bng 25 250 50 0 empty empty ⬣ -611 37 0 87 #191919 #ffffff #191919;
#X obj 1089 311 bng 25 250 50 0 empty empty ⬣ -611 37 0 87 #191919 #ffffff #191919;
#X obj 1136 337 bng 25 250 50 0 empty empty ⬣ -611 37 0 87 #191919 #ffffff #191919;
#X obj 1042 337 bng 25 250 50 0 empty empty ⬣ -611 37 0 87 #191919 #ffffff #191919;
#X obj 619 364 bng 25 250 50 0 empty empty ⬣ -611 37 0 87 #191919 #ffffff #191919;
#X obj 666 390 bng 25 250 50 0 empty empty ⬣ -611 37 0 87 #191919 #ffffff #191919;
#X obj 713 364 bng 25 250 50 0 empty empty ⬣ -611 37 0 87 #191919 #ffffff #191919;
#X obj 807 364 bng 25 250 50 0 empty empty ⬣ -611 37 0 87 #191919 #ffffff #191919;
#X obj 854 390 bng 25 250 50 0 empty empty ⬣ -611 37 0 87 #191919 #ffffff #191919;
#X obj 760 390 bng 25 250 50 0 empty empty ⬣ -611 37 0 87 #191919 #ffffff #191919;
#X obj 901 364 bng 25 250 50 0 empty empty ⬣ -611 37 0 87 #191919 #ffffff #191919;
#X obj 948 390 bng 25 250 50 0 empty empty ⬣ -611 37 0 87 #191919 #ffffff #191919;
#X obj 995 364 bng 25 250 50 0 empty empty ⬣ -611 37 0 87 #191919 #ffffff #191919;
#X obj 1089 364 bng 25 250 50 0 empty empty ⬣ -611 37 0 87 #191919 #ffffff #191919;
#X obj 1136 390 bng 25 250 50 0 empty empty ⬣ -611 37 0 87 #191919 #ffffff #191919;
#X obj 1042 390 bng 25 250 50 0 empty empty ⬣ -611 37 0 87 #191919 #ffffff #191919;
#X obj 619 417 bng 25 250 50 0 empty empty ⬣ -611 37 0 87 #191919 #ffffff #191919;
#X obj 713 417 bng 25 250 50 0 empty empty ⬣ -611 37 0 87 #191919 #ffffff #191919;
#X obj 807 417 bng 25 250 50 0 empty empty ⬣ -611 37 0 87 #191919 #ffffff #191919;
#X obj 901 417 bng 25 250 50 0 empty empty ⬣ -611 37 0 87 #191919 #ffffff #191919;
#X obj 995 417 bng 25 250 50 0 empty empty ⬣ -611 37 0 87 #191919 #ffffff #191919;
#X obj 1089 417 bng 25 250 50 0 empty empty ⬣ -611 37 0 87 #191919 #ffffff #191919;
#X obj 666 443 bng 25 250 50 0 empty empty ⬣ -611 37 0 87 #191919 #ffffff #191919;
#X obj 854 443 bng 25 250 50 0 empty empty ⬣ -611 37 0 87 #191919 #ffffff #191919;
#X obj 760 443 bng 25 250 50 0 empty empty ⬣ -611 37 0 87 #191919 #ffffff #191919;
#X obj 948 443 bng 25 250 50 0 empty empty ⬣ -611 37 0 87 #191919 #ffffff #191919;
#X obj 1136 443 bng 25 250 50 0 empty empty ⬣ -611 37 0 87 #191919 #ffffff #191919;
#X obj 1042 443 bng 25 250 50 0 empty empty ⬣ -611 37 0 87 #191919 #ffffff #191919;
#N canvas 0 50 450 250 (subpatch) 1;
#X obj -191 -131 pitch2note;
#X msg -191 -101 set \$1;
#X obj 80 472 note 0 14 Inter empty 0 255 255 255 0 25 25 25 0 0 C1;
#X obj 175 472 note 0 14 Inter empty 0 255 255 255 0 25 25 25 0 0 Db1;
#X obj 269 472 note 0 14 Inter empty 0 255 255 255 0 25 25 25 0 0 D1;
#X obj 364 472 note 0 14 Inter empty 0 255 255 255 0 25 25 25 0 0 Eb1;
#X obj 454 472 note 0 14 Inter empty 0 255 255 255 0 25 25 25 0 0 E1;
#X obj 549 472 note 0 14 Inter empty 0 255 255 255 0 25 25 25 0 0 F1;
#X obj 30 446 note 0 14 Inter empty 0 255 255 255 0 25 25 25 0 0 Eb1;
#X obj 128 447 note 0 14 Inter empty 0 255 255 255 0 25 25 25 0 0 E1;
#X obj 222 447 note 0 14 Inter empty 0 255 255 255 0 25 25 25 0 0 F1;
#X obj 313 446 note 0 14 Inter empty 0 255 255 255 0 25 25 25 0 0 Gb1;
#X obj 407 447 note 0 14 Inter empty 0 255 255 255 0 25 25 25 0 0 G1;
#X obj 502 447 note 0 14 Inter empty 0 255 255 255 0 25 25 25 0 0 Ab1;
#X obj 80 418 note 0 14 Inter empty 0 255 255 255 0 25 25 25 0 0 G1;
#X obj 175 418 note 0 14 Inter empty 0 255 255 255 0 25 25 25 0 0 Ab1;
#X obj 269 418 note 0 14 Inter empty 0 255 255 255 0 25 25 25 0 0 A1;
#X obj 364 418 note 0 14 Inter empty 0 255 255 255 0 25 25 25 0 0 Bb1;
#X obj 454 418 note 0 14 Inter empty 0 255 255 255 0 25 25 25 0 0 B1;
#X obj 549 418 note 0 14 Inter empty 0 255 255 255 0 25 25 25 0 0 C2;
#X obj 33 393 note 0 14 Inter empty 0 255 255 255 0 25 25 25 0 0 Bb1;
#X obj 128 393 note 0 14 Inter empty 0 255 255 255 0 25 25 25 0 0 B1;
#X obj 222 393 note 0 14 Inter empty 0 255 255 255 0 25 25 25 0 0 C2;
#X obj 317 393 note 0 14 Inter empty 0 255 255 255 0 25 25 25 0 0 Db2;
#X obj 407 393 note 0 14 Inter empty 0 255 255 255 0 25 25 25 0 0 D2;
#X obj 502 393 note 0 14 Inter empty 0 255 255 255 0 25 25 25 0 0 Eb2;
#X obj 80 366 note 0 14 Inter empty 0 255 255 255 0 25 25 25 0 0 D2;
#X obj 175 366 note 0 14 Inter empty 0 255 255 255 0 25 25 25 0 0 Eb2;
#X obj 269 366 note 0 14 Inter empty 0 255 255 255 0 25 25 25 0 0 E2;
#X obj 364 366 note 0 14 Inter empty 0 255 255 255 0 25 25 25 0 0 F2;
#X obj 454 366 note 0 14 Inter empty 0 255 255 255 0 25 25 25 0 0 Gb2;
#X obj 549 366 note 0 14 Inter empty 0 255 255 255 0 25 25 25 0 0 G2;
#X obj 33 341 note 0 14 Inter empty 0 255 255 255 0 25 25 25 0 0 F2;
#X obj 128 341 note 0 14 Inter empty 0 255 255 255 0 25 25 25 0 0 Gb2;
#X obj 222 341 note 0 14 Inter empty 0 255 255 255 0 25 25 25 0 0 G2;
#X obj 317 341 note 0 14 Inter empty 0 255 255 255 0 25 25 25 0 0 Ab2;
#X obj 407 341 note 0 14 Inter empty 0 255 255 255 0 25 25 25 0 0 A2;
#X obj 502 341 note 0 14 Inter empty 0 255 255 255 0 25 25 25 0 0 Bb2;
#X obj 80 312 note 0 14 Inter empty 0 255 255 255 0 25 25 25 0 0 A2;
#X obj 175 312 note 0 14 Inter empty 0 255 255 255 0 25 25 25 0 0 Bb2;
#X obj 269 312 note 0 14 Inter empty 0 255 255 255 0 25 25 25 0 0 B2;
#X obj 364 312 note 0 14 Inter empty 0 255 255 255 0 25 25 25 0 0 C3;
#X obj 454 312 note 0 14 Inter empty 0 255 255 255 0 25 25 25 0 0 Db3;
#X obj 549 312 note 0 14 Inter empty 0 255 255 255 0 25 25 25 0 0 D3;
#X obj 33 287 note 0 14 Inter empty 0 255 255 255 0 25 25 25 0 0 C3;
#X obj 128 287 note 0 14 Inter empty 0 255 255 255 0 25 25 25 0 0 Db3;
#X obj 222 287 note 0 14 Inter empty 0 255 255 255 0 25 25 25 0 0 D3;
#X obj 317 287 note 0 14 Inter empty 0 255 255 255 0 25 25 25 0 0 Eb3;
#X obj 407 287 note 0 14 Inter empty 0 255 255 255 0 25 25 25 0 0 E3;
#X obj 502 287 note 0 14 Inter empty 0 255 255 255 0 25 25 25 0 0 F3;
#X obj 80 259 note 0 14 Inter empty 0 255 255 255 0 25 25 25 0 0 E3;
#X obj 175 259 note 0 14 Inter empty 0 255 255 255 0 25 25 25 0 0 F3;
#X obj 269 259 note 0 14 Inter empty 0 255 255 255 0 25 25 25 0 0 Gb3;
#X obj 364 259 note 0 14 Inter empty 0 255 255 255 0 25 25 25 0 0 G3;
#X obj 454 259 note 0 14 Inter empty 0 255 255 255 0 25 25 25 0 0 Ab3;
#X obj 549 259 note 0 14 Inter empty 0 255 255 255 0 25 25 25 0 0 A3;
#X obj 33 234 note 0 14 Inter empty 0 255 255 255 0 25 25 25 0 0 G3;
#X obj 128 234 note 0 14 Inter empty 0 255 255 255 0 25 25 25 0 0 Ab3;
#X obj 222 234 note 0 14 Inter empty 0 255 255 255 0 25 25 25 0 0 A3;
#X obj 317 234 note 0 14 Inter empty 0 255 255 255 0 25 25 25 0 0 Bb3;
#X obj 407 234 note 0 14 Inter empty 0 255 255 255 0 25 25 25 0 0 B3;
#X obj 502 234 note 0 14 Inter empty 0 255 255 255 0 25 25 25 0 0 C4;
#X obj 80 205 note 0 14 Inter empty 0 255 255 255 0 25 25 25 0 0 B3;
#X obj 175 205 note 0 14 Inter empty 0 255 255 255 0 25 25 25 0 0 C4;
#X obj 269 205 note 0 14 Inter empty 0 255 255 255 0 25 25 25 0 0 Db4;
#X obj 364 205 note 0 14 Inter empty 0 255 255 255 0 25 25 25 0 0 D4;
#X obj 454 205 note 0 14 Inter empty 0 255 255 255 0 25 25 25 0 0 Eb4;
#X obj 549 205 note 0 14 Inter empty 0 255 255 255 0 25 25 25 0 0 E4;
#X obj 33 180 note 0 14 Inter empty 0 255 255 255 0 25 25 25 0 0 D4;
#X obj 128 180 note 0 14 Inter empty 0 255 255 255 0 25 25 25 0 0 Eb4;
#X obj 222 180 note 0 14 Inter empty 0 255 255 255 0 25 25 25 0 0 E4;
#X obj 317 180 note 0 14 Inter empty 0 255 255 255 0 25 25 25 0 0 F4;
#X obj 407 180 note 0 14 Inter empty 0 255 255 255 0 25 25 25 0 0 Gb4;
#X obj 502 180 note 0 14 Inter empty 0 255 255 255 0 25 25 25 0 0 G4;
#X obj 80 153 note 0 14 Inter empty 0 255 255 255 0 25 25 25 0 0 Gb4;
#X obj 175 153 note 0 14 Inter empty 0 255 255 255 0 25 25 25 0 0 G4;
#X obj 269 153 note 0 14 Inter empty 0 255 255 255 0 25 25 25 0 0 Ab4;
#X obj 364 153 note 0 14 Inter empty 0 255 255 255 0 25 25 25 0 0 A4;
#X obj 454 153 note 0 14 Inter empty 0 255 255 255 0 25 25 25 0 0 Bb4;
#X obj 549 153 note 0 14 Inter empty 0 255 255 255 0 25 25 25 0 0 B4;
#X obj 33 128 note 0 14 Inter empty 0 255 255 255 0 25 25 25 0 0 A4;
#X obj 128 128 note 0 14 Inter empty 0 255 255 255 0 25 25 25 0 0 Bb4;
#X obj 222 128 note 0 14 Inter empty 0 255 255 255 0 25 25 25 0 0 B4;
#X obj 317 128 note 0 14 Inter empty 0 255 255 255 0 25 25 25 0 0 C5;
#X obj 407 128 note 0 14 Inter empty 0 255 255 255 0 25 25 25 0 0 Db5;
#X obj 502 128 note 0 14 Inter empty 0 255 255 255 0 25 25 25 0 0 D5;
#X obj 80 99 note 0 14 Inter empty 0 255 255 255 0 25 25 25 0 0 Db5;
#X obj 175 99 note 0 14 Inter empty 0 255 255 255 0 25 25 25 0 0 D5;
#X obj 269 99 note 0 14 Inter empty 0 255 255 255 0 25 25 25 0 0 Eb5;
#X obj 364 99 note 0 14 Inter empty 0 255 255 255 0 25 25 25 0 0 E5;
#X obj 454 99 note 0 14 Inter empty 0 255 255 255 0 25 25 25 0 0 F5;
#X obj 549 99 note 0 14 Inter empty 0 255 255 255 0 25 25 25 0 0 Gb5;
#X obj 33 74 note 0 14 Inter empty 0 255 255 255 0 25 25 25 0 0 E5;
#X obj 128 74 note 0 14 Inter empty 0 255 255 255 0 25 25 25 0 0 F5;
#X obj 222 74 note 0 14 Inter empty 0 255 255 255 0 25 25 25 0 0 Gb5;
#X obj 317 74 note 0 14 Inter empty 0 255 255 255 0 25 25 25 0 0 G5;
#X obj 407 74 note 0 14 Inter empty 0 255 255 255 0 25 25 25 0 0 Ab5;
#X obj 502 74 note 0 14 Inter empty 0 255 255 255 0 25 25 25 0 0 A5;
#X obj 80 45 note 0 14 Inter empty 0 255 255 255 0 25 25 25 0 0 Ab5;
#X obj 175 45 note 0 14 Inter empty 0 255 255 255 0 25 25 25 0 0 A5;
#X obj 269 45 note 0 14 Inter empty 0 255 255 255 0 25 25 25 0 0 Bb5;
#X obj 364 45 note 0 14 Inter empty 0 255 255 255 0 25 25 25 0 0 B5;
#X obj 454 45 note 0 14 Inter empty 0 255 255 255 0 25 25 25 0 0 C6;
#X obj 549 45 note 0 14 Inter empty 0 255 255 255 0 25 25 25 0 0 Db6;
#X obj 33 20 note 0 14 Inter empty 0 255 255 255 0 25 25 25 0 0 B5;
#X obj 128 20 note 0 14 Inter empty 0 255 255 255 0 25 25 25 0 0 C6;
#X obj 222 20 note 0 14 Inter empty 0 255 255 255 0 25 25 25 0 0 Db6;
#X obj 317 20 note 0 14 Inter empty 0 255 255 255 0 25 25 25 0 0 D6;
#X obj 407 20 note 0 14 Inter empty 0 255 255 255 0 25 25 25 0 0 Eb6;
#X obj 502 20 note 0 14 Inter empty 0 255 255 255 0 25 25 25 0 0 E6;
#X obj -191 -281 t f f;
#X obj -191 -71 router 65, f 167;
#X obj -191 -201 + 24;
#X obj -191 -231 +;
#X obj -131 -441 r transpose;
#X obj -131 -351 t b f;
#X obj -191 -311 loop 65;
#X obj -31 -351 t b a;
#X obj -31 -381 r accidentals;
#X obj -131 -411 int;
#X obj -131 -381 change;
#X connect 0 0 1 0 empty;
#X connect 1 0 111 0 empty;
#X connect 110 0 113 0 empty;
#X connect 110 1 111 1 empty;
#X connect 111 0 2 0 empty;
#X connect 111 1 3 0 empty;
#X connect 111 2 4 0 empty;
#X connect 111 3 5 0 empty;
#X connect 111 3 8 0 empty;
#X connect 111 4 6 0 empty;
#X connect 111 4 9 0 empty;
#X connect 111 5 7 0 empty;
#X connect 111 5 10 0 empty;
#X connect 111 6 11 0 empty;
#X connect 111 7 12 0 empty;
#X connect 111 7 14 0 empty;
#X connect 111 8 13 0 empty;
#X connect 111 8 15 0 empty;
#X connect 111 9 16 0 empty;
#X connect 111 10 17 0 empty;
#X connect 111 10 20 0 empty;
#X connect 111 11 18 0 empty;
#X connect 111 11 21 0 empty;
#X connect 111 12 19 0 empty;
#X connect 111 12 22 0 empty;
#X connect 111 13 23 0 empty;
#X connect 111 14 24 0 empty;
#X connect 111 14 26 0 empty;
#X connect 111 15 25 0 empty;
#X connect 111 15 27 0 empty;
#X connect 111 16 28 0 empty;
#X connect 111 17 29 0 empty;
#X connect 111 17 32 0 empty;
#X connect 111 18 30 0 empty;
#X connect 111 18 33 0 empty;
#X connect 111 19 31 0 empty;
#X connect 111 19 34 0 empty;
#X connect 111 20 35 0 empty;
#X connect 111 21 36 0 empty;
#X connect 111 21 38 0 empty;
#X connect 111 22 37 0 empty;
#X connect 111 22 39 0 empty;
#X connect 111 23 40 0 empty;
#X connect 111 24 41 0 empty;
#X connect 111 24 44 0 empty;
#X connect 111 25 42 0 empty;
#X connect 111 25 45 0 empty;
#X connect 111 26 43 0 empty;
#X connect 111 26 46 0 empty;
#X connect 111 27 47 0 empty;
#X connect 111 28 48 0 empty;
#X connect 111 28 50 0 empty;
#X connect 111 29 49 0 empty;
#X connect 111 29 51 0 empty;
#X connect 111 30 52 0 empty;
#X connect 111 31 53 0 empty;
#X connect 111 31 56 0 empty;
#X connect 111 32 54 0 empty;
#X connect 111 32 57 0 empty;
#X connect 111 33 55 0 empty;
#X connect 111 33 58 0 empty;
#X connect 111 34 59 0 empty;
#X connect 111 35 60 0 empty;
#X connect 111 35 62 0 empty;
#X connect 111 36 61 0 empty;
#X connect 111 36 63 0 empty;
#X connect 111 37 64 0 empty;
#X connect 111 38 65 0 empty;
#X connect 111 38 68 0 empty;
#X connect 111 39 66 0 empty;
#X connect 111 39 69 0 empty;
#X connect 111 40 67 0 empty;
#X connect 111 40 70 0 empty;
#X connect 111 41 71 0 empty;
#X connect 111 42 72 0 empty;
#X connect 111 42 74 0 empty;
#X connect 111 43 73 0 empty;
#X connect 111 43 75 0 empty;
#X connect 111 44 76 0 empty;
#X connect 111 45 77 0 empty;
#X connect 111 45 80 0 empty;
#X connect 111 46 78 0 empty;
#X connect 111 46 81 0 empty;
#X connect 111 47 79 0 empty;
#X connect 111 47 82 0 empty;
#X connect 111 48 83 0 empty;
#X connect 111 49 84 0 empty;
#X connect 111 49 86 0 empty;
#X connect 111 50 85 0 empty;
#X connect 111 50 87 0 empty;
#X connect 111 51 88 0 empty;
#X connect 111 52 89 0 empty;
#X connect 111 52 92 0 empty;
#X connect 111 53 90 0 empty;
#X connect 111 53 93 0 empty;
#X connect 111 54 91 0 empty;
#X connect 111 54 94 0 empty;
#X connect 111 55 95 0 empty;
#X connect 111 56 96 0 empty;
#X connect 111 56 98 0 empty;
#X connect 111 57 97 0 empty;
#X connect 111 57 99 0 empty;
#X connect 111 58 100 0 empty;
#X connect 111 59 101 0 empty;
#X connect 111 59 104 0 empty;
#X connect 111 60 102 0 empty;
#X connect 111 60 105 0 empty;
#X connect 111 61 103 0 empty;
#X connect 111 61 106 0 empty;
#X connect 111 62 107 0 empty;
#X connect 111 63 108 0 empty;
#X connect 111 64 109 0 empty;
#X connect 112 0 0 0 empty;
#X connect 113 0 112 0 empty;
#X connect 114 0 119 0 empty;
#X connect 115 0 116 0 empty;
#X connect 115 1 113 1 empty;
#X connect 116 0 110 0 empty;
#X connect 117 0 116 0 empty;
#X connect 117 1 0 0 empty;
#X connect 118 0 117 0 empty;
#X connect 119 0 120 0 empty;
#X connect 120 0 115 0 empty;
#X coords 0 1 100 -1 617 527 1 0 0;
#X restore -7 -17 graph;
#X obj 650 515 button 51 51 25 25 25 255 255 255 0;
#X obj 697 541 button 51 51 25 25 25 255 255 255 0;
#X obj 745 515 button 51 51 25 25 25 255 255 255 0;
#X obj 792 541 button 51 51 25 25 25 255 255 255 0;
#X obj 838 515 button 51 51 25 25 25 255 255 255 0;
#X obj 885 541 button 51 51 25 25 25 255 255 255 0;
#X obj 931 515 button 51 51 25 25 25 255 255 255 0;
#X obj 980 541 button 51 51 25 25 25 255 255 255 0;
#X obj 1027 515 button 51 51 25 25 25 255 255 255 0;
#X obj 1072 541 button 51 51 25 25 25 255 255 255 0;
#X obj 1120 515 button 51 51 25 25 25 255 255 255 0;
#X obj 1168 541 button 51 51 25 25 25 255 255 255 0;
#X obj 650 567 button 51 51 25 25 25 255 255 255 0;
#X obj 697 593 button 51 51 25 25 25 255 255 255 0;
#X obj 745 567 button 51 51 25 25 25 255 255 255 0;
#X obj 792 593 button 51 51 25 25 25 255 255 255 0;
#X obj 838 567 button 51 51 25 25 25 255 255 255 0;
#X obj 885 593 button 51 51 25 25 25 255 255 255 0;
#X obj 931 567 button 51 51 25 25 25 255 255 255 0;
#X obj 980 593 button 51 51 25 25 25 255 255 255 0;
#X obj 1027 567 button 51 51 25 25 25 255 255 255 0;
#X obj 1072 593 button 51 51 25 25 25 255 255 255 0;
#X obj 1120 567 button 51 51 25 25 25 255 255 255 0;
#X obj 1168 593 button 51 51 25 25 25 255 255 255 0;
#X obj 650 621 button 51 51 25 25 25 255 255 255 0;
#X obj 697 647 button 51 51 25 25 25 255 255 255 0;
#X obj 745 621 button 51 51 25 25 25 255 255 255 0;
#X obj 792 647 button 51 51 25 25 25 255 255 255 0;
#X obj 838 621 button 51 51 25 25 25 255 255 255 0;
#X obj 885 647 button 51 51 25 25 25 255 255 255 0;
#X obj 931 621 button 51 51 25 25 25 255 255 255 0;
#X obj 980 647 button 51 51 25 25 25 255 255 255 0;
#X obj 1027 621 button 51 51 25 25 25 255 255 255 0;
#X obj 1072 647 button 51 51 25 25 25 255 255 255 0;
#X obj 1120 621 button 51 51 25 25 25 255 255 255 0;
#X obj 1168 647 button 51 51 25 25 25 255 255 255 0;
#X obj 650 673 button 51 51 25 25 25 255 255 255 0;
#X obj 697 699 button 51 51 25 25 25 255 255 255 0;
#X obj 745 673 button 51 51 25 25 25 255 255 255 0;
#X obj 792 699 button 51 51 25 25 25 255 255 255 0;
#X obj 838 673 button 51 51 25 25 25 255 255 255 0;
#X obj 885 699 button 51 51 25 25 25 255 255 255 0;
#X obj 931 673 button 51 51 25 25 25 255 255 255 0;
#X obj 980 699 button 51 51 25 25 25 255 255 255 0;
#X obj 1027 673 button 51 51 25 25 25 255 255 255 0;
#X obj 1072 699 button 51 51 25 25 25 255 255 255 0;
#X obj 1120 673 button 51 51 25 25 25 255 255 255 0;
#X obj 1168 699 button 51 51 25 25 25 255 255 255 0;
#X obj 650 727 button 51 51 25 25 25 255 255 255 0;
#X obj 697 753 button 51 51 25 25 25 255 255 255 0;
#X obj 745 727 button 51 51 25 25 25 255 255 255 0;
#X obj 792 753 button 51 51 25 25 25 255 255 255 0;
#X obj 838 727 button 51 51 25 25 25 255 255 255 0;
#X obj 885 753 button 51 51 25 25 25 255 255 255 0;
#X obj 931 727 button 51 51 25 25 25 255 255 255 0;
#X obj 980 753 button 51 51 25 25 25 255 255 255 0;
#X obj 1027 727 button 51 51 25 25 25 255 255 255 0;
#X obj 1072 753 button 51 51 25 25 25 255 255 255 0;
#X obj 1120 727 button 51 51 25 25 25 255 255 255 0;
#X obj 1168 753 button 51 51 25 25 25 255 255 255 0;
#X obj 650 779 button 51 51 25 25 25 255 255 255 0;
#X obj 697 805 button 51 51 25 25 25 255 255 255 0;
#X obj 745 779 button 51 51 25 25 25 255 255 255 0;
#X obj 792 805 button 51 51 25 25 25 255 255 255 0;
#X obj 838 779 button 51 51 25 25 25 255 255 255 0;
#X obj 885 805 button 51 51 25 25 25 255 255 255 0;
#X obj 931 779 button 51 51 25 25 25 255 255 255 0;
#X obj 980 805 button 51 51 25 25 25 255 255 255 0;
#X obj 1027 779 button 51 51 25 25 25 255 255 255 0;
#X obj 1072 805 button 51 51 25 25 25 255 255 255 0;
#X obj 1120 779 button 51 51 25 25 25 255 255 255 0;
#X obj 1168 805 button 51 51 25 25 25 255 255 255 0;
#X obj 650 833 button 51 51 25 25 25 255 255 255 0;
#X obj 697 859 button 51 51 25 25 25 255 255 255 0;
#X obj 745 833 button 51 51 25 25 25 255 255 255 0;
#X obj 792 859 button 51 51 25 25 25 255 255 255 0;
#X obj 838 833 button 51 51 25 25 25 255 255 255 0;
#X obj 885 859 button 51 51 25 25 25 255 255 255 0;
#X obj 931 833 button 51 51 25 25 25 255 255 255 0;
#X obj 980 859 button 51 51 25 25 25 255 255 255 0;
#X obj 1027 833 button 51 51 25 25 25 255 255 255 0;
#X obj 1072 859 button 51 51 25 25 25 255 255 255 0;
#X obj 1120 833 button 51 51 25 25 25 255 255 255 0;
#X obj 1168 859 button 51 51 25 25 25 255 255 255 0;
#X obj 650 885 button 51 51 25 25 25 255 255 255 0;
#X obj 697 911 button 51 51 25 25 25 255 255 255 0;
#X obj 745 885 button 51 51 25 25 25 255 255 255 0;
#X obj 792 911 button 51 51 25 25 25 255 255 255 0;
#X obj 838 885 button 51 51 25 25 25 255 255 255 0;
#X obj 885 911 button 51 51 25 25 25 255 255 255 0;
#X obj 931 885 button 51 51 25 25 25 255 255 255 0;
#X obj 980 911 button 51 51 25 25 25 255 255 255 0;
#X obj 1027 885 button 51 51 25 25 25 255 255 255 0;
#X obj 1072 911 button 51 51 25 25 25 255 255 255 0;
#X obj 1120 885 button 51 51 25 25 25 255 255 255 0;
#X obj 1168 911 button 51 51 25 25 25 255 255 255 0;
#X obj 650 938 button 51 51 25 25 25 255 255 255 0;
#X obj 697 964 button 51 51 25 25 25 255 255 255 0;
#X obj 745 938 button 51 51 25 25 25 255 255 255 0;
#X obj 792 964 button 51 51 25 25 25 255 255 255 0;
#X obj 838 938 button 51 51 25 25 25 255 255 255 0;
#X obj 885 964 button 51 51 25 25 25 255 255 255 0;
#X obj 931 938 button 51 51 25 25 25 255 255 255 0;
#X obj 980 964 button 51 51 25 25 25 255 255 255 0;
#X obj 1027 938 button 51 51 25 25 25 255 255 255 0;
#X obj 1072 964 button 51 51 25 25 25 255 255 255 0;
#X obj 1120 938 button 51 51 25 25 25 255 255 255 0;
#X obj 1168 964 button 51 51 25 25 25 255 255 255 0;
#N canvas 0 50 446 490 butt 1;
#X obj 69 379 select 0 1;
#X msg 69 419 color #191919 #ffffff #191919;
#X msg 259 419 color #191919 #ffffff #ff003f;
#X obj 9 9 inlet;
#X obj 69 459 outlet;
#X obj 9 338 ||;
#X obj 32 291 t b f;
#X obj 29 84 &&;
#X obj 139 9 key;
#X obj 209 139 keyup;
#X obj 59 9 keyname;
#X obj 139 159 ==;
#X obj 29 119 select 1;
#X obj 139 39 t f f;
#X obj 209 189 ==;
#X obj 32 219 tgl 25 0 empty empty empty 17 7 0 10 #191919 #ffffff #ffffff 0 1;
#X msg 209 259 0;
#X msg 139 219 1;
#X obj 209 219 select 1;
#X obj 139 189 select 1;
#X obj 32 255 change;
#X text 199 108 last held key while this butt was pressed;
#X obj 150 111 nbx 4 18 -1e+37 1e+37 0 1 empty empty empty 0 -8 0 10 #191919 #ffffff #ffffff -1 256;
#X obj 150 79 f;
#X obj 9 459 outlet;
#X connect 0 0 1 0 empty;
#X connect 0 1 2 0 empty;
#X connect 1 0 4 0 empty;
#X connect 2 0 4 0 empty;
#X connect 3 0 5 0 empty;
#X connect 3 0 7 0 empty;
#X connect 5 0 0 0 empty;
#X connect 5 0 24 0 empty;
#X connect 6 0 5 0 empty;
#X connect 6 1 5 1 empty;
#X connect 7 0 12 0 empty;
#X connect 8 0 13 0 empty;
#X connect 9 0 14 0 empty;
#X connect 10 0 7 1 empty;
#X connect 11 0 19 0 empty;
#X connect 12 0 23 0 empty;
#X connect 13 0 11 0 empty;
#X connect 13 1 23 1 empty;
#X connect 14 0 18 0 empty;
#X connect 15 0 20 0 empty;
#X connect 16 0 15 0 empty;
#X connect 17 0 15 0 empty;
#X connect 18 0 16 0 empty;
#X connect 19 0 17 0 empty;
#X connect 20 0 6 0 empty;
#X connect 22 0 14 1 empty;
#X connect 22 0 11 1 empty;
#X connect 23 0 22 0 empty;
#X restore 1279 699 pd butt;
#X obj -201 299 s transpose;
#X obj -201 269 nbx 4 18 -1e+37 1e+37 0 0 empty empty empty 0 -8 0 10 #191919 #ffffff #ffffff 0 256;
#X msg -171 139 sharp;
#X msg -211 139 flat;
#X msg -241 109 chromatic;
#X obj -211 199 s accidentals;
#X msg 69 1049 0 \$1;
#X msg 159 1049 1 \$1;
#X msg 259 1049 2 \$1;
#X msg 349 1049 3 \$1;
#X msg 449 1049 4 \$1;
#X msg 539 1049 5 \$1;
#X msg 19 1019 3 \$1;
#X msg 119 1019 4 \$1;
#X msg 209 1019 5 \$1;
#X msg 299 1019 6 \$1;
#X msg 399 1019 7 \$1;
#X msg 489 1019 8 \$1;
#X msg 69 989 7 \$1;
#X msg 159 989 8 \$1;
#X msg 259 989 9 \$1;
#X msg 349 989 10 \$1;
#X msg 449 989 11 \$1;
#X msg 539 989 12 \$1;
#X msg 19 959 10 \$1;
#X msg 119 959 11 \$1;
#X msg 209 959 12 \$1;
#X msg 299 959 13 \$1;
#X msg 399 959 14 \$1;
#X msg 489 959 15 \$1;
#X msg 69 929 14 \$1;
#X msg 159 929 15 \$1;
#X msg 259 929 16 \$1;
#X msg 349 929 17 \$1;
#X msg 449 929 18 \$1;
#X msg 539 929 19 \$1;
#X msg 19 899 17 \$1;
#X msg 119 899 18 \$1;
#X msg 209 899 19 \$1;
#X msg 299 899 20 \$1;
#X msg 399 899 21 \$1;
#X msg 489 899 22 \$1;
#X msg 69 869 21 \$1;
#X msg 159 869 22 \$1;
#X msg 259 869 23 \$1;
#X msg 349 869 24 \$1;
#X msg 449 869 25 \$1;
#X msg 539 869 26 \$1;
#X msg 19 839 24 \$1;
#X msg 119 839 25 \$1;
#X msg 209 839 26 \$1;
#X msg 299 839 27 \$1;
#X msg 399 839 28 \$1;
#X msg 489 839 29 \$1;
#X msg 69 809 28 \$1;
#X msg 159 809 29 \$1;
#X msg 259 809 30 \$1;
#X msg 349 809 31 \$1;
#X msg 449 809 32 \$1;
#X msg 539 809 33 \$1;
#X msg 19 779 31 \$1;
#X msg 119 779 32 \$1;
#X msg 209 779 33 \$1;
#X msg 299 779 34 \$1;
#X msg 399 779 35 \$1;
#X msg 489 779 36 \$1;
#X msg 69 749 35 \$1;
#X msg 159 749 36 \$1;
#X msg 259 749 37 \$1;
#X msg 349 749 38 \$1;
#X msg 449 749 39 \$1;
#X msg 539 749 40 \$1;
#X msg 19 719 38 \$1;
#X msg 119 719 39 \$1;
#X msg 209 719 40 \$1;
#X msg 299 719 41 \$1;
#X msg 399 719 42 \$1;
#X msg 489 719 43 \$1;
#X msg 69 689 42 \$1;
#X msg 159 689 43 \$1;
#X msg 259 689 44 \$1;
#X msg 349 689 45 \$1;
#X msg 449 689 46 \$1;
#X msg 539 689 47 \$1;
#X msg 19 659 45 \$1;
#X msg 119 659 46 \$1;
#X msg 209 659 47 \$1;
#X msg 299 659 48 \$1;
#X msg 399 659 49 \$1;
#X msg 489 659 50 \$1;
#X msg 69 629 49 \$1;
#X msg 159 629 50 \$1;
#X msg 259 629 51 \$1;
#X msg 349 629 52 \$1;
#X msg 449 629 53 \$1;
#X msg 539 629 54 \$1;
#X msg 19 599 52 \$1;
#X msg 119 599 53 \$1;
#X msg 209 599 54 \$1;
#X msg 299 599 55 \$1;
#X msg 399 599 56 \$1;
#X msg 489 599 57 \$1;
#X msg 69 559 56 \$1;
#X msg 159 559 57 \$1;
#X msg 259 559 58 \$1;
#X msg 349 559 59 \$1;
#X msg 449 559 60 \$1;
#X msg 539 559 61 \$1;
#X msg 19 529 59 \$1;
#X msg 119 529 60 \$1;
#X msg 219 529 61 \$1;
#X msg 299 529 62 \$1;
#X msg 399 529 63 \$1;
#X msg 489 529 64 \$1;
#X connect 221 0 220 0 empty;
#X connect 222 0 225 0 empty;
#X connect 223 0 225 0 empty;
#X connect 224 0 225 0 empty;
#X coords 0 1 100 -1 611 511 1 0 0;
#X restore -1 -1 graph;
