#N canvas 827 239 610 510 12;
#N canvas 0 50 450 250 (subpatch) 1;
#X msg 709 -81 color #191919 #ffffff #191919;
#N canvas 0 50 450 300 click 1;
#X obj 29 129 select 0 1;
#X msg 29 169 color #191919 #ffffff #191919;
#X msg 229 169 color #191919 #ffffff #ff003f;
#X obj 29 29 inlet;
#X obj 29 249 outlet;
#X connect 0 0 1 0 empty;
#X connect 0 1 2 0 empty;
#X connect 1 0 4 0 empty;
#X connect 2 0 4 0 empty;
#X connect 3 0 0 0 empty;
#X restore 29 539 pd click;
#X obj -31 -21 cnv 15 641 531 empty empty empty 20 12 0 14 #d1d1d1 #ffffff 0;
#X obj 619 -7 bng 25 250 50 0 empty empty ⬣ -611 37 0 87 #191919 #ffffff #191919;
#X obj 666 19 bng 25 250 50 0 empty empty ⬣ -611 37 0 87 #191919 #ffffff #191919;
#X obj 713 -7 bng 25 250 50 0 empty empty ⬣ -611 37 0 87 #191919 #ffffff #191919;
#X obj 807 -7 bng 25 250 50 0 empty empty ⬣ -611 37 0 87 #191919 #ffffff #191919;
#X obj 854 19 bng 25 250 50 0 empty empty ⬣ -611 37 0 87 #191919 #ffffff #191919;
#X obj 760 19 bng 25 250 50 0 empty empty ⬣ -611 37 0 87 #191919 #ffffff #191919;
#X obj 901 -7 bng 25 250 50 0 empty empty ⬣ -611 37 0 87 #191919 #ffffff #191919;
#X obj 948 19 bng 25 250 50 0 empty empty ⬣ -611 37 0 87 #191919 #ffffff #191919;
#X obj 995 -7 bng 25 250 50 0 empty empty ⬣ -611 37 0 87 #191919 #ffffff #191919;
#X obj 1089 -7 bng 25 250 50 0 empty empty ⬣ -611 37 0 87 #191919 #ffffff #191919;
#X obj 1136 19 bng 25 250 50 0 empty empty ⬣ -611 37 0 87 #191919 #ffffff #191919;
#X obj 1042 19 bng 25 250 50 0 empty empty ⬣ -611 37 0 87 #191919 #ffffff #191919;
#X obj 619 46 bng 25 250 50 0 empty empty ⬣ -611 37 0 87 #191919 #ffffff #191919;
#X obj 666 72 bng 25 250 50 0 empty empty ⬣ -611 37 0 87 #191919 #ffffff #191919;
#X obj 713 46 bng 25 250 50 0 empty empty ⬣ -611 37 0 87 #191919 #ffffff #191919;
#X obj 807 46 bng 25 250 50 0 empty empty ⬣ -611 37 0 87 #191919 #ffffff #191919;
#X obj 854 72 bng 25 250 50 0 empty empty ⬣ -611 37 0 87 #191919 #ffffff #191919;
#X obj 760 72 bng 25 250 50 0 empty empty ⬣ -611 37 0 87 #191919 #ffffff #191919;
#X obj 901 46 bng 25 250 50 0 empty empty ⬣ -611 37 0 87 #191919 #ffffff #191919;
#X obj 948 72 bng 25 250 50 0 empty empty ⬣ -611 37 0 87 #191919 #ffffff #191919;
#X obj 995 46 bng 25 250 50 0 empty empty ⬣ -611 37 0 87 #191919 #ffffff #191919;
#X obj 1089 46 bng 25 250 50 0 empty empty ⬣ -611 37 0 87 #191919 #ffffff #191919;
#X obj 1136 72 bng 25 250 50 0 empty empty ⬣ -611 37 0 87 #191919 #ffffff #191919;
#X obj 1042 72 bng 25 250 50 0 empty empty ⬣ -611 37 0 87 #191919 #ffffff #191919;
#X obj 619 99 bng 25 250 50 0 empty empty ⬣ -611 37 0 87 #191919 #ffffff #191919;
#X obj 666 125 bng 25 250 50 0 empty empty ⬣ -611 37 0 87 #191919 #ffffff #191919;
#X obj 713 99 bng 25 250 50 0 empty empty ⬣ -611 37 0 87 #191919 #ffffff #191919;
#X obj 807 99 bng 25 250 50 0 empty empty ⬣ -611 37 0 87 #191919 #ffffff #191919;
#X obj 854 125 bng 25 250 50 0 empty empty ⬣ -611 37 0 87 #191919 #ffffff #191919;
#X obj 760 125 bng 25 250 50 0 empty empty ⬣ -611 37 0 87 #191919 #ffffff #191919;
#X obj 901 99 bng 25 250 50 0 empty empty ⬣ -611 37 0 87 #191919 #ffffff #191919;
#X obj 948 125 bng 25 250 50 0 empty empty ⬣ -611 37 0 87 #191919 #ffffff #191919;
#X obj 995 99 bng 25 250 50 0 empty empty ⬣ -611 37 0 87 #191919 #ffffff #191919;
#X obj 1089 99 bng 25 250 50 0 empty empty ⬣ -611 37 0 87 #191919 #ffffff #191919;
#X obj 1136 125 bng 25 250 50 0 empty empty ⬣ -611 37 0 87 #191919 #ffffff #191919;
#X obj 1042 125 bng 25 250 50 0 empty empty ⬣ -611 37 0 87 #191919 #ffffff #191919;
#X obj 619 152 bng 25 250 50 0 empty empty ⬣ -611 37 0 87 #191919 #ffffff #191919;
#X obj 666 178 bng 25 250 50 0 empty empty ⬣ -611 37 0 87 #191919 #ffffff #191919;
#X obj 713 152 bng 25 250 50 0 empty empty ⬣ -611 37 0 87 #191919 #ffffff #191919;
#X obj 807 152 bng 25 250 50 0 empty empty ⬣ -611 37 0 87 #191919 #ffffff #191919;
#X obj 854 178 bng 25 250 50 0 empty empty ⬣ -611 37 0 87 #191919 #ffffff #191919;
#X obj 760 178 bng 25 250 50 0 empty empty ⬣ -611 37 0 87 #191919 #ffffff #191919;
#X obj 901 152 bng 25 250 50 0 empty empty ⬣ -611 37 0 87 #191919 #ffffff #191919;
#X obj 948 178 bng 25 250 50 0 empty empty ⬣ -611 37 0 87 #191919 #ffffff #191919;
#X obj 995 152 bng 25 250 50 0 empty empty ⬣ -611 37 0 87 #191919 #ffffff #191919;
#X obj 1089 152 bng 25 250 50 0 empty empty ⬣ -611 37 0 87 #191919 #ffffff #191919;
#X obj 1136 178 bng 25 250 50 0 empty empty ⬣ -611 37 0 87 #191919 #ffffff #191919;
#X obj 1042 178 bng 25 250 50 0 empty empty ⬣ -611 37 0 87 #191919 #ffffff #191919;
#X obj 619 205 bng 25 250 50 0 empty empty ⬣ -611 37 0 87 #191919 #ffffff #191919;
#X obj 666 231 bng 25 250 50 0 empty empty ⬣ -611 37 0 87 #191919 #ffffff #191919;
#X obj 713 205 bng 25 250 50 0 empty empty ⬣ -611 37 0 87 #191919 #ffffff #191919;
#X obj 807 205 bng 25 250 50 0 empty empty ⬣ -611 37 0 87 #191919 #ffffff #191919;
#X obj 854 231 bng 25 250 50 0 empty empty ⬣ -611 37 0 87 #191919 #ffffff #191919;
#X obj 760 231 bng 25 250 50 0 empty empty ⬣ -611 37 0 87 #191919 #ffffff #191919;
#X obj 901 205 bng 25 250 50 0 empty empty ⬣ -611 37 0 87 #191919 #ffffff #191919;
#X obj 948 231 bng 25 250 50 0 empty empty ⬣ -611 37 0 87 #191919 #ffffff #191919;
#X obj 995 205 bng 25 250 50 0 empty empty ⬣ -611 37 0 87 #191919 #ffffff #191919;
#X obj 1089 205 bng 25 250 50 0 empty empty ⬣ -611 37 0 87 #191919 #ffffff #191919;
#X obj 1136 231 bng 25 250 50 0 empty empty ⬣ -611 37 0 87 #191919 #ffffff #191919;
#X obj 1042 231 bng 25 250 50 0 empty empty ⬣ -611 37 0 87 #191919 #ffffff #191919;
#X obj 619 258 bng 25 250 50 0 empty empty ⬣ -611 37 0 87 #191919 #ffffff #191919;
#X obj 666 284 bng 25 250 50 0 empty empty ⬣ -611 37 0 87 #191919 #ffffff #191919;
#X obj 713 258 bng 25 250 50 0 empty empty ⬣ -611 37 0 87 #191919 #ffffff #191919;
#X obj 807 258 bng 25 250 50 0 empty empty ⬣ -611 37 0 87 #191919 #ffffff #191919;
#X obj 854 284 bng 25 250 50 0 empty empty ⬣ -611 37 0 87 #191919 #ffffff #191919;
#X obj 760 284 bng 25 250 50 0 empty empty ⬣ -611 37 0 87 #191919 #ffffff #191919;
#X obj 901 258 bng 25 250 50 0 empty empty ⬣ -611 37 0 87 #191919 #ffffff #191919;
#X obj 948 284 bng 25 250 50 0 empty empty ⬣ -611 37 0 87 #191919 #ffffff #191919;
#X obj 995 258 bng 25 250 50 0 empty empty ⬣ -611 37 0 87 #191919 #ffffff #191919;
#X obj 1089 258 bng 25 250 50 0 empty empty ⬣ -611 37 0 87 #191919 #ffffff #191919;
#X obj 1136 284 bng 25 250 50 0 empty empty ⬣ -611 37 0 87 #191919 #ffffff #191919;
#X obj 1042 284 bng 25 250 50 0 empty empty ⬣ -611 37 0 87 #191919 #ffffff #191919;
#X obj 619 311 bng 25 250 50 0 empty empty ⬣ -611 37 0 87 #191919 #ffffff #191919;
#X obj 666 337 bng 25 250 50 0 empty empty ⬣ -611 37 0 87 #191919 #ffffff #191919;
#X obj 713 311 bng 25 250 50 0 empty empty ⬣ -611 37 0 87 #191919 #ffffff #191919;
#X obj 807 311 bng 25 250 50 0 empty empty ⬣ -611 37 0 87 #191919 #ffffff #191919;
#X obj 854 337 bng 25 250 50 0 empty empty ⬣ -611 37 0 87 #191919 #ffffff #191919;
#X obj 760 337 bng 25 250 50 0 empty empty ⬣ -611 37 0 87 #191919 #ffffff #191919;
#X obj 901 311 bng 25 250 50 0 empty empty ⬣ -611 37 0 87 #191919 #ffffff #191919;
#X obj 948 337 bng 25 250 50 0 empty empty ⬣ -611 37 0 87 #191919 #ffffff #191919;
#X obj 995 311 bng 25 250 50 0 empty empty ⬣ -611 37 0 87 #191919 #ffffff #191919;
#X obj 1089 311 bng 25 250 50 0 empty empty ⬣ -611 37 0 87 #191919 #ffffff #191919;
#X obj 1136 337 bng 25 250 50 0 empty empty ⬣ -611 37 0 87 #191919 #ffffff #191919;
#X obj 1042 337 bng 25 250 50 0 empty empty ⬣ -611 37 0 87 #191919 #ffffff #191919;
#X obj 619 364 bng 25 250 50 0 empty empty ⬣ -611 37 0 87 #191919 #ffffff #191919;
#X obj 666 390 bng 25 250 50 0 empty empty ⬣ -611 37 0 87 #191919 #ffffff #191919;
#X obj 713 364 bng 25 250 50 0 empty empty ⬣ -611 37 0 87 #191919 #ffffff #191919;
#X obj 807 364 bng 25 250 50 0 empty empty ⬣ -611 37 0 87 #191919 #ffffff #191919;
#X obj 854 390 bng 25 250 50 0 empty empty ⬣ -611 37 0 87 #191919 #ffffff #191919;
#X obj 760 390 bng 25 250 50 0 empty empty ⬣ -611 37 0 87 #191919 #ffffff #191919;
#X obj 901 364 bng 25 250 50 0 empty empty ⬣ -611 37 0 87 #191919 #ffffff #191919;
#X obj 948 390 bng 25 250 50 0 empty empty ⬣ -611 37 0 87 #191919 #ffffff #191919;
#X obj 995 364 bng 25 250 50 0 empty empty ⬣ -611 37 0 87 #191919 #ffffff #191919;
#X obj 1089 364 bng 25 250 50 0 empty empty ⬣ -611 37 0 87 #191919 #ffffff #191919;
#X obj 1136 390 bng 25 250 50 0 empty empty ⬣ -611 37 0 87 #191919 #ffffff #191919;
#X obj 1042 390 bng 25 250 50 0 empty empty ⬣ -611 37 0 87 #191919 #ffffff #191919;
#X obj 619 417 bng 25 250 50 0 empty empty ⬣ -611 37 0 87 #191919 #ffffff #191919;
#X obj 713 417 bng 25 250 50 0 empty empty ⬣ -611 37 0 87 #191919 #ffffff #191919;
#X obj 807 417 bng 25 250 50 0 empty empty ⬣ -611 37 0 87 #191919 #ffffff #191919;
#X obj 901 417 bng 25 250 50 0 empty empty ⬣ -611 37 0 87 #191919 #ffffff #191919;
#X obj 995 417 bng 25 250 50 0 empty empty ⬣ -611 37 0 87 #191919 #ffffff #191919;
#X obj 1089 417 bng 25 250 50 0 empty empty ⬣ -611 37 0 87 #191919 #ffffff #191919;
#X obj 666 443 bng 25 250 50 0 empty empty ⬣ -611 37 0 87 #191919 #ffffff #191919;
#X obj 854 443 bng 25 250 50 0 empty empty ⬣ -611 37 0 87 #191919 #ffffff #191919;
#X obj 760 443 bng 25 250 50 0 empty empty ⬣ -611 37 0 87 #191919 #ffffff #191919;
#X obj 948 443 bng 25 250 50 0 empty empty ⬣ -611 37 0 87 #191919 #ffffff #191919;
#X obj 1136 443 bng 25 250 50 0 empty empty ⬣ -611 37 0 87 #191919 #ffffff #191919;
#X obj 1042 443 bng 25 250 50 0 empty empty ⬣ -611 37 0 87 #191919 #ffffff #191919;
#X obj 20 5 button 51 51 25 25 25 255 255 255 0;
#X obj 67 31 button 51 51 25 25 25 255 255 255 0;
#X obj 115 5 button 51 51 25 25 25 255 255 255 0;
#X obj 162 31 button 51 51 25 25 25 255 255 255 0;
#X obj 208 5 button 51 51 25 25 25 255 255 255 0;
#X obj 255 31 button 51 51 25 25 25 255 255 255 0;
#X obj 301 5 button 51 51 25 25 25 255 255 255 0;
#X obj 350 31 button 51 51 25 25 25 255 255 255 0;
#X obj 397 5 button 51 51 25 25 25 255 255 255 0;
#X obj 442 31 button 51 51 25 25 25 255 255 255 0;
#X obj 490 5 button 51 51 25 25 25 255 255 255 0;
#X obj 538 31 button 51 51 25 25 25 255 255 255 0;
#X obj 20 57 button 51 51 25 25 25 255 255 255 0;
#X obj 67 83 button 51 51 25 25 25 255 255 255 0;
#X obj 115 57 button 51 51 25 25 25 255 255 255 0;
#X obj 162 83 button 51 51 25 25 25 255 255 255 0;
#X obj 208 57 button 51 51 25 25 25 255 255 255 0;
#X obj 255 83 button 51 51 25 25 25 255 255 255 0;
#X obj 301 57 button 51 51 25 25 25 255 255 255 0;
#X obj 350 83 button 51 51 25 25 25 255 255 255 0;
#X obj 397 57 button 51 51 25 25 25 255 255 255 0;
#X obj 442 83 button 51 51 25 25 25 255 255 255 0;
#X obj 490 57 button 51 51 25 25 25 255 255 255 0;
#X obj 538 83 button 51 51 25 25 25 255 255 255 0;
#X obj 20 111 button 51 51 25 25 25 255 255 255 0;
#X obj 67 137 button 51 51 25 25 25 255 255 255 0;
#X obj 115 111 button 51 51 25 25 25 255 255 255 0;
#X obj 162 137 button 51 51 25 25 25 255 255 255 0;
#X obj 208 111 button 51 51 25 25 25 255 255 255 0;
#X obj 255 137 button 51 51 25 25 25 255 255 255 0;
#X obj 301 111 button 51 51 25 25 25 255 255 255 0;
#X obj 350 137 button 51 51 25 25 25 255 255 255 0;
#X obj 397 111 button 51 51 25 25 25 255 255 255 0;
#X obj 442 137 button 51 51 25 25 25 255 255 255 0;
#X obj 490 111 button 51 51 25 25 25 255 255 255 0;
#X obj 538 137 button 51 51 25 25 25 255 255 255 0;
#X obj 20 163 button 51 51 25 25 25 255 255 255 0;
#X obj 67 189 button 51 51 25 25 25 255 255 255 0;
#X obj 115 163 button 51 51 25 25 25 255 255 255 0;
#X obj 162 189 button 51 51 25 25 25 255 255 255 0;
#X obj 208 163 button 51 51 25 25 25 255 255 255 0;
#X obj 255 189 button 51 51 25 25 25 255 255 255 0;
#X obj 301 163 button 51 51 25 25 25 255 255 255 0;
#X obj 350 189 button 51 51 25 25 25 255 255 255 0;
#X obj 397 163 button 51 51 25 25 25 255 255 255 0;
#X obj 442 189 button 51 51 25 25 25 255 255 255 0;
#X obj 490 163 button 51 51 25 25 25 255 255 255 0;
#X obj 538 189 button 51 51 25 25 25 255 255 255 0;
#X obj 20 217 button 51 51 25 25 25 255 255 255 0;
#X obj 67 243 button 51 51 25 25 25 255 255 255 0;
#X obj 115 217 button 51 51 25 25 25 255 255 255 0;
#X obj 162 243 button 51 51 25 25 25 255 255 255 0;
#X obj 208 217 button 51 51 25 25 25 255 255 255 0;
#X obj 255 243 button 51 51 25 25 25 255 255 255 0;
#X obj 301 217 button 51 51 25 25 25 255 255 255 0;
#X obj 350 243 button 51 51 25 25 25 255 255 255 0;
#X obj 397 217 button 51 51 25 25 25 255 255 255 0;
#X obj 442 243 button 51 51 25 25 25 255 255 255 0;
#X obj 490 217 button 51 51 25 25 25 255 255 255 0;
#X obj 538 243 button 51 51 25 25 25 255 255 255 0;
#X obj 20 269 button 51 51 25 25 25 255 255 255 0;
#X obj 67 295 button 51 51 25 25 25 255 255 255 0;
#X obj 115 269 button 51 51 25 25 25 255 255 255 0;
#X obj 162 295 button 51 51 25 25 25 255 255 255 0;
#X obj 208 269 button 51 51 25 25 25 255 255 255 0;
#X obj 255 295 button 51 51 25 25 25 255 255 255 0;
#X obj 301 269 button 51 51 25 25 25 255 255 255 0;
#X obj 350 295 button 51 51 25 25 25 255 255 255 0;
#X obj 397 269 button 51 51 25 25 25 255 255 255 0;
#X obj 442 295 button 51 51 25 25 25 255 255 255 0;
#X obj 490 269 button 51 51 25 25 25 255 255 255 0;
#X obj 538 295 button 51 51 25 25 25 255 255 255 0;
#X obj 20 323 button 51 51 25 25 25 255 255 255 0;
#X obj 67 349 button 51 51 25 25 25 255 255 255 0;
#X obj 115 323 button 51 51 25 25 25 255 255 255 0;
#X obj 162 349 button 51 51 25 25 25 255 255 255 0;
#X obj 208 323 button 51 51 25 25 25 255 255 255 0;
#X obj 255 349 button 51 51 25 25 25 255 255 255 0;
#X obj 301 323 button 51 51 25 25 25 255 255 255 0;
#X obj 350 349 button 51 51 25 25 25 255 255 255 0;
#X obj 397 323 button 51 51 25 25 25 255 255 255 0;
#X obj 442 349 button 51 51 25 25 25 255 255 255 0;
#X obj 490 323 button 51 51 25 25 25 255 255 255 0;
#X obj 538 349 button 51 51 25 25 25 255 255 255 0;
#X obj 20 375 button 51 51 25 25 25 255 255 255 0;
#X obj 67 401 button 51 51 25 25 25 255 255 255 0;
#X obj 115 375 button 51 51 25 25 25 255 255 255 0;
#X obj 162 401 button 51 51 25 25 25 255 255 255 0;
#X obj 208 375 button 51 51 25 25 25 255 255 255 0;
#X obj 255 401 button 51 51 25 25 25 255 255 255 0;
#X obj 301 375 button 51 51 25 25 25 255 255 255 0;
#X obj 350 401 button 51 51 25 25 25 255 255 255 0;
#X obj 397 375 button 51 51 25 25 25 255 255 255 0;
#X obj 442 401 button 51 51 25 25 25 255 255 255 0;
#X obj 490 375 button 51 51 25 25 25 255 255 255 0;
#X obj 538 401 button 51 51 25 25 25 255 255 255 0;
#X obj 20 428 button 51 51 25 25 25 255 255 255 0;
#X obj 67 454 button 51 51 25 25 25 255 255 255 0;
#X obj 115 428 button 51 51 25 25 25 255 255 255 0;
#X obj 162 454 button 51 51 25 25 25 255 255 255 0;
#X obj 208 428 button 51 51 25 25 25 255 255 255 0;
#X obj 255 454 button 51 51 25 25 25 255 255 255 0;
#X obj 301 428 button 51 51 25 25 25 255 255 255 0;
#X obj 350 454 button 51 51 25 25 25 255 255 255 0;
#X obj 397 428 button 51 51 25 25 25 255 255 255 0;
#X obj 442 454 button 51 51 25 25 25 255 255 255 0;
#X obj 490 428 button 51 51 25 25 25 255 255 255 0;
#X obj 538 454 button 51 51 25 25 25 255 255 255 0;
#X coords 0 1 100 -1 611 511 1 0 0;
#X restore -1 -1 graph;
#N canvas 0 50 450 250 (subpatch) 1;
#X obj -31 -21 cnv 15 641 531 empty empty empty 20 12 0 14 #d1d1d1 #ffffff 0;
#X obj 619 -7 bng 25 250 50 0 empty empty ⬣ -611 37 0 87 #191919 #ffffff #191919;
#X obj 666 19 bng 25 250 50 0 empty empty ⬣ -611 37 0 87 #191919 #ffffff #191919;
#X obj 713 -7 bng 25 250 50 0 empty empty ⬣ -611 37 0 87 #191919 #ffffff #191919;
#X obj 807 -7 bng 25 250 50 0 empty empty ⬣ -611 37 0 87 #191919 #ffffff #191919;
#X obj 854 19 bng 25 250 50 0 empty empty ⬣ -611 37 0 87 #191919 #ffffff #191919;
#X obj 760 19 bng 25 250 50 0 empty empty ⬣ -611 37 0 87 #191919 #ffffff #191919;
#X obj 901 -7 bng 25 250 50 0 empty empty ⬣ -611 37 0 87 #191919 #ffffff #191919;
#X obj 948 19 bng 25 250 50 0 empty empty ⬣ -611 37 0 87 #191919 #ffffff #191919;
#X obj 995 -7 bng 25 250 50 0 empty empty ⬣ -611 37 0 87 #191919 #ffffff #191919;
#X obj 1089 -7 bng 25 250 50 0 empty empty ⬣ -611 37 0 87 #191919 #ffffff #191919;
#X obj 1136 19 bng 25 250 50 0 empty empty ⬣ -611 37 0 87 #191919 #ffffff #191919;
#X obj 1042 19 bng 25 250 50 0 empty empty ⬣ -611 37 0 87 #191919 #ffffff #191919;
#X obj 619 46 bng 25 250 50 0 empty empty ⬣ -611 37 0 87 #191919 #ffffff #191919;
#X obj 666 72 bng 25 250 50 0 empty empty ⬣ -611 37 0 87 #191919 #ffffff #191919;
#X obj 713 46 bng 25 250 50 0 empty empty ⬣ -611 37 0 87 #191919 #ffffff #191919;
#X obj 807 46 bng 25 250 50 0 empty empty ⬣ -611 37 0 87 #191919 #ffffff #191919;
#X obj 854 72 bng 25 250 50 0 empty empty ⬣ -611 37 0 87 #191919 #ffffff #191919;
#X obj 760 72 bng 25 250 50 0 empty empty ⬣ -611 37 0 87 #191919 #ffffff #191919;
#X obj 901 46 bng 25 250 50 0 empty empty ⬣ -611 37 0 87 #191919 #ffffff #191919;
#X obj 948 72 bng 25 250 50 0 empty empty ⬣ -611 37 0 87 #191919 #ffffff #191919;
#X obj 995 46 bng 25 250 50 0 empty empty ⬣ -611 37 0 87 #191919 #ffffff #191919;
#X obj 1089 46 bng 25 250 50 0 empty empty ⬣ -611 37 0 87 #191919 #ffffff #191919;
#X obj 1136 72 bng 25 250 50 0 empty empty ⬣ -611 37 0 87 #191919 #ffffff #191919;
#X obj 1042 72 bng 25 250 50 0 empty empty ⬣ -611 37 0 87 #191919 #ffffff #191919;
#X obj 619 99 bng 25 250 50 0 empty empty ⬣ -611 37 0 87 #191919 #ffffff #191919;
#X obj 666 125 bng 25 250 50 0 empty empty ⬣ -611 37 0 87 #191919 #ffffff #191919;
#X obj 713 99 bng 25 250 50 0 empty empty ⬣ -611 37 0 87 #191919 #ffffff #191919;
#X obj 807 99 bng 25 250 50 0 empty empty ⬣ -611 37 0 87 #191919 #ffffff #191919;
#X obj 854 125 bng 25 250 50 0 empty empty ⬣ -611 37 0 87 #191919 #ffffff #191919;
#X obj 760 125 bng 25 250 50 0 empty empty ⬣ -611 37 0 87 #191919 #ffffff #191919;
#X obj 901 99 bng 25 250 50 0 empty empty ⬣ -611 37 0 87 #191919 #ffffff #191919;
#X obj 948 125 bng 25 250 50 0 empty empty ⬣ -611 37 0 87 #191919 #ffffff #191919;
#X obj 995 99 bng 25 250 50 0 empty empty ⬣ -611 37 0 87 #191919 #ffffff #191919;
#X obj 1089 99 bng 25 250 50 0 empty empty ⬣ -611 37 0 87 #191919 #ffffff #191919;
#X obj 1136 125 bng 25 250 50 0 empty empty ⬣ -611 37 0 87 #191919 #ffffff #191919;
#X obj 1042 125 bng 25 250 50 0 empty empty ⬣ -611 37 0 87 #191919 #ffffff #191919;
#X obj 619 152 bng 25 250 50 0 empty empty ⬣ -611 37 0 87 #191919 #ffffff #191919;
#X obj 666 178 bng 25 250 50 0 empty empty ⬣ -611 37 0 87 #191919 #ffffff #191919;
#X obj 713 152 bng 25 250 50 0 empty empty ⬣ -611 37 0 87 #191919 #ffffff #191919;
#X obj 807 152 bng 25 250 50 0 empty empty ⬣ -611 37 0 87 #191919 #ffffff #191919;
#X obj 854 178 bng 25 250 50 0 empty empty ⬣ -611 37 0 87 #191919 #ffffff #191919;
#X obj 760 178 bng 25 250 50 0 empty empty ⬣ -611 37 0 87 #191919 #ffffff #191919;
#X obj 901 152 bng 25 250 50 0 empty empty ⬣ -611 37 0 87 #191919 #ffffff #191919;
#X obj 948 178 bng 25 250 50 0 empty empty ⬣ -611 37 0 87 #191919 #ffffff #191919;
#X obj 995 152 bng 25 250 50 0 empty empty ⬣ -611 37 0 87 #191919 #ffffff #191919;
#X obj 1089 152 bng 25 250 50 0 empty empty ⬣ -611 37 0 87 #191919 #ffffff #191919;
#X obj 1136 178 bng 25 250 50 0 empty empty ⬣ -611 37 0 87 #191919 #ffffff #191919;
#X obj 1042 178 bng 25 250 50 0 empty empty ⬣ -611 37 0 87 #191919 #ffffff #191919;
#X obj 619 205 bng 25 250 50 0 empty empty ⬣ -611 37 0 87 #191919 #ffffff #191919;
#X obj 666 231 bng 25 250 50 0 empty empty ⬣ -611 37 0 87 #191919 #ffffff #191919;
#X obj 713 205 bng 25 250 50 0 empty empty ⬣ -611 37 0 87 #191919 #ffffff #191919;
#X obj 807 205 bng 25 250 50 0 empty empty ⬣ -611 37 0 87 #191919 #ffffff #191919;
#X obj 854 231 bng 25 250 50 0 empty empty ⬣ -611 37 0 87 #191919 #ffffff #191919;
#X obj 760 231 bng 25 250 50 0 empty empty ⬣ -611 37 0 87 #191919 #ffffff #191919;
#X obj 901 205 bng 25 250 50 0 empty empty ⬣ -611 37 0 87 #191919 #ffffff #191919;
#X obj 948 231 bng 25 250 50 0 empty empty ⬣ -611 37 0 87 #191919 #ffffff #191919;
#X obj 995 205 bng 25 250 50 0 empty empty ⬣ -611 37 0 87 #191919 #ffffff #191919;
#X obj 1089 205 bng 25 250 50 0 empty empty ⬣ -611 37 0 87 #191919 #ffffff #191919;
#X obj 1136 231 bng 25 250 50 0 empty empty ⬣ -611 37 0 87 #191919 #ffffff #191919;
#X obj 1042 231 bng 25 250 50 0 empty empty ⬣ -611 37 0 87 #191919 #ffffff #191919;
#X obj 619 258 bng 25 250 50 0 empty empty ⬣ -611 37 0 87 #191919 #ffffff #191919;
#X obj 666 284 bng 25 250 50 0 empty empty ⬣ -611 37 0 87 #191919 #ffffff #191919;
#X obj 713 258 bng 25 250 50 0 empty empty ⬣ -611 37 0 87 #191919 #ffffff #191919;
#X obj 807 258 bng 25 250 50 0 empty empty ⬣ -611 37 0 87 #191919 #ffffff #191919;
#X obj 854 284 bng 25 250 50 0 empty empty ⬣ -611 37 0 87 #191919 #ffffff #191919;
#X obj 760 284 bng 25 250 50 0 empty empty ⬣ -611 37 0 87 #191919 #ffffff #191919;
#X obj 901 258 bng 25 250 50 0 empty empty ⬣ -611 37 0 87 #191919 #ffffff #191919;
#X obj 948 284 bng 25 250 50 0 empty empty ⬣ -611 37 0 87 #191919 #ffffff #191919;
#X obj 995 258 bng 25 250 50 0 empty empty ⬣ -611 37 0 87 #191919 #ffffff #191919;
#X obj 1089 258 bng 25 250 50 0 empty empty ⬣ -611 37 0 87 #191919 #ffffff #191919;
#X obj 1136 284 bng 25 250 50 0 empty empty ⬣ -611 37 0 87 #191919 #ffffff #191919;
#X obj 1042 284 bng 25 250 50 0 empty empty ⬣ -611 37 0 87 #191919 #ffffff #191919;
#X obj 619 311 bng 25 250 50 0 empty empty ⬣ -611 37 0 87 #191919 #ffffff #191919;
#X obj 666 337 bng 25 250 50 0 empty empty ⬣ -611 37 0 87 #191919 #ffffff #191919;
#X obj 713 311 bng 25 250 50 0 empty empty ⬣ -611 37 0 87 #191919 #ffffff #191919;
#X obj 807 311 bng 25 250 50 0 empty empty ⬣ -611 37 0 87 #191919 #ffffff #191919;
#X obj 854 337 bng 25 250 50 0 empty empty ⬣ -611 37 0 87 #191919 #ffffff #191919;
#X obj 760 337 bng 25 250 50 0 empty empty ⬣ -611 37 0 87 #191919 #ffffff #191919;
#X obj 901 311 bng 25 250 50 0 empty empty ⬣ -611 37 0 87 #191919 #ffffff #191919;
#X obj 948 337 bng 25 250 50 0 empty empty ⬣ -611 37 0 87 #191919 #ffffff #191919;
#X obj 995 311 bng 25 250 50 0 empty empty ⬣ -611 37 0 87 #191919 #ffffff #191919;
#X obj 1089 311 bng 25 250 50 0 empty empty ⬣ -611 37 0 87 #191919 #ffffff #191919;
#X obj 1136 337 bng 25 250 50 0 empty empty ⬣ -611 37 0 87 #191919 #ffffff #191919;
#X obj 1042 337 bng 25 250 50 0 empty empty ⬣ -611 37 0 87 #191919 #ffffff #191919;
#X obj 619 364 bng 25 250 50 0 empty empty ⬣ -611 37 0 87 #191919 #ffffff #191919;
#X obj 666 390 bng 25 250 50 0 empty empty ⬣ -611 37 0 87 #191919 #ffffff #191919;
#X obj 713 364 bng 25 250 50 0 empty empty ⬣ -611 37 0 87 #191919 #ffffff #191919;
#X obj 807 364 bng 25 250 50 0 empty empty ⬣ -611 37 0 87 #191919 #ffffff #191919;
#X obj 854 390 bng 25 250 50 0 empty empty ⬣ -611 37 0 87 #191919 #ffffff #191919;
#X obj 760 390 bng 25 250 50 0 empty empty ⬣ -611 37 0 87 #191919 #ffffff #191919;
#X obj 901 364 bng 25 250 50 0 empty empty ⬣ -611 37 0 87 #191919 #ffffff #191919;
#X obj 948 390 bng 25 250 50 0 empty empty ⬣ -611 37 0 87 #191919 #ffffff #191919;
#X obj 995 364 bng 25 250 50 0 empty empty ⬣ -611 37 0 87 #191919 #ffffff #191919;
#X obj 1089 364 bng 25 250 50 0 empty empty ⬣ -611 37 0 87 #191919 #ffffff #191919;
#X obj 1136 390 bng 25 250 50 0 empty empty ⬣ -611 37 0 87 #191919 #ffffff #191919;
#X obj 1042 390 bng 25 250 50 0 empty empty ⬣ -611 37 0 87 #191919 #ffffff #191919;
#X obj 619 417 bng 25 250 50 0 empty empty ⬣ -611 37 0 87 #191919 #ffffff #191919;
#X obj 713 417 bng 25 250 50 0 empty empty ⬣ -611 37 0 87 #191919 #ffffff #191919;
#X obj 807 417 bng 25 250 50 0 empty empty ⬣ -611 37 0 87 #191919 #ffffff #191919;
#X obj 901 417 bng 25 250 50 0 empty empty ⬣ -611 37 0 87 #191919 #ffffff #191919;
#X obj 995 417 bng 25 250 50 0 empty empty ⬣ -611 37 0 87 #191919 #ffffff #191919;
#X obj 1089 417 bng 25 250 50 0 empty empty ⬣ -611 37 0 87 #191919 #ffffff #191919;
#X obj 666 443 bng 25 250 50 0 empty empty ⬣ -611 37 0 87 #191919 #ffffff #191919;
#X obj 854 443 bng 25 250 50 0 empty empty ⬣ -611 37 0 87 #191919 #ffffff #191919;
#X obj 760 443 bng 25 250 50 0 empty empty ⬣ -611 37 0 87 #191919 #ffffff #191919;
#X obj 948 443 bng 25 250 50 0 empty empty ⬣ -611 37 0 87 #191919 #ffffff #191919;
#X obj 1136 443 bng 25 250 50 0 empty empty ⬣ -611 37 0 87 #191919 #ffffff #191919;
#X obj 1042 443 bng 25 250 50 0 empty empty ⬣ -611 37 0 87 #191919 #ffffff #191919;
#X obj -191 -141 pitch2note;
#X obj -191 -181 + 60;
#X msg -191 -111 set \$1;
#X msg -251 -181 sharp;
#X msg -291 -181 flat;
#X obj -191 -301 bng 25 250 50 0 empty empty empty 17 7 0 10 #191919 #ffffff #ffffff;
#X obj 80 472 note 0 14 Inter empty 0 255 255 255 0 25 25 25 0 0 C4;
#X obj 175 472 note 0 14 Inter empty 0 255 255 255 0 25 25 25 0 0 C#4;
#X obj 269 472 note 0 14 Inter empty 0 255 255 255 0 25 25 25 0 0 D4;
#X obj 364 472 note 0 14 Inter empty 0 255 255 255 0 25 25 25 0 0 D#4;
#X obj 454 472 note 0 14 Inter empty 0 255 255 255 0 25 25 25 0 0 E4;
#X obj 549 472 note 0 14 Inter empty 0 255 255 255 0 25 25 25 0 0 F4;
#X obj 30 446 note 0 14 Inter empty 0 255 255 255 0 25 25 25 0 0 D#4;
#X obj 128 447 note 0 14 Inter empty 0 255 255 255 0 25 25 25 0 0 E4;
#X obj 222 447 note 0 14 Inter empty 0 255 255 255 0 25 25 25 0 0 F4;
#X obj 313 446 note 0 14 Inter empty 0 255 255 255 0 25 25 25 0 0 F#4;
#X obj 407 447 note 0 14 Inter empty 0 255 255 255 0 25 25 25 0 0 G4;
#X obj 502 447 note 0 14 Inter empty 0 255 255 255 0 25 25 25 0 0 G#4;
#X obj 80 418 note 0 14 Inter empty 0 255 255 255 0 25 25 25 0 0 G4;
#X obj 175 418 note 0 14 Inter empty 0 255 255 255 0 25 25 25 0 0 G#4;
#X obj 269 418 note 0 14 Inter empty 0 255 255 255 0 25 25 25 0 0 A4;
#X obj 364 418 note 0 14 Inter empty 0 255 255 255 0 25 25 25 0 0 A#4;
#X obj 454 418 note 0 14 Inter empty 0 255 255 255 0 25 25 25 0 0 B4;
#X obj 549 418 note 0 14 Inter empty 0 255 255 255 0 25 25 25 0 0 C5;
#X obj 33 393 note 0 14 Inter empty 0 255 255 255 0 25 25 25 0 0 A#4;
#X obj 128 393 note 0 14 Inter empty 0 255 255 255 0 25 25 25 0 0 B4;
#X obj 222 393 note 0 14 Inter empty 0 255 255 255 0 25 25 25 0 0 C5;
#X obj 317 393 note 0 14 Inter empty 0 255 255 255 0 25 25 25 0 0 C#5;
#X obj 407 393 note 0 14 Inter empty 0 255 255 255 0 25 25 25 0 0 D5;
#X obj 502 393 note 0 14 Inter empty 0 255 255 255 0 25 25 25 0 0 D#5;
#X obj 80 366 note 0 14 Inter empty 0 255 255 255 0 25 25 25 0 0 C4;
#X obj 175 366 note 0 14 Inter empty 0 255 255 255 0 25 25 25 0 0 C4;
#X obj 269 366 note 0 14 Inter empty 0 255 255 255 0 25 25 25 0 0 C4;
#X obj 364 366 note 0 14 Inter empty 0 255 255 255 0 25 25 25 0 0 C4;
#X obj 454 366 note 0 14 Inter empty 0 255 255 255 0 25 25 25 0 0 C4;
#X obj 549 366 note 0 14 Inter empty 0 255 255 255 0 25 25 25 0 0 C4;
#X obj 33 341 note 0 14 Inter empty 0 255 255 255 0 25 25 25 0 0 C4;
#X obj 128 341 note 0 14 Inter empty 0 255 255 255 0 25 25 25 0 0 C4;
#X obj 222 341 note 0 14 Inter empty 0 255 255 255 0 25 25 25 0 0 C4;
#X obj 317 341 note 0 14 Inter empty 0 255 255 255 0 25 25 25 0 0 C4;
#X obj 407 341 note 0 14 Inter empty 0 255 255 255 0 25 25 25 0 0 C4;
#X obj 502 341 note 0 14 Inter empty 0 255 255 255 0 25 25 25 0 0 C4;
#X obj 80 312 note 0 14 Inter empty 0 255 255 255 0 25 25 25 0 0 C4;
#X obj 175 312 note 0 14 Inter empty 0 255 255 255 0 25 25 25 0 0 C4;
#X obj 269 312 note 0 14 Inter empty 0 255 255 255 0 25 25 25 0 0 C4;
#X obj 364 312 note 0 14 Inter empty 0 255 255 255 0 25 25 25 0 0 C4;
#X obj 454 312 note 0 14 Inter empty 0 255 255 255 0 25 25 25 0 0 C4;
#X obj 549 312 note 0 14 Inter empty 0 255 255 255 0 25 25 25 0 0 C4;
#X obj 33 287 note 0 14 Inter empty 0 255 255 255 0 25 25 25 0 0 C4;
#X obj 128 287 note 0 14 Inter empty 0 255 255 255 0 25 25 25 0 0 C4;
#X obj 222 287 note 0 14 Inter empty 0 255 255 255 0 25 25 25 0 0 C4;
#X obj 317 287 note 0 14 Inter empty 0 255 255 255 0 25 25 25 0 0 C4;
#X obj 407 287 note 0 14 Inter empty 0 255 255 255 0 25 25 25 0 0 C4;
#X obj 502 287 note 0 14 Inter empty 0 255 255 255 0 25 25 25 0 0 C4;
#X obj 80 259 note 0 14 Inter empty 0 255 255 255 0 25 25 25 0 0 C4;
#X obj 175 259 note 0 14 Inter empty 0 255 255 255 0 25 25 25 0 0 C4;
#X obj 269 259 note 0 14 Inter empty 0 255 255 255 0 25 25 25 0 0 C4;
#X obj 364 259 note 0 14 Inter empty 0 255 255 255 0 25 25 25 0 0 C4;
#X obj 454 259 note 0 14 Inter empty 0 255 255 255 0 25 25 25 0 0 C4;
#X obj 549 259 note 0 14 Inter empty 0 255 255 255 0 25 25 25 0 0 C4;
#X obj 33 234 note 0 14 Inter empty 0 255 255 255 0 25 25 25 0 0 C4;
#X obj 128 234 note 0 14 Inter empty 0 255 255 255 0 25 25 25 0 0 C4;
#X obj 222 234 note 0 14 Inter empty 0 255 255 255 0 25 25 25 0 0 C4;
#X obj 317 234 note 0 14 Inter empty 0 255 255 255 0 25 25 25 0 0 C4;
#X obj 407 234 note 0 14 Inter empty 0 255 255 255 0 25 25 25 0 0 C4;
#X obj 502 234 note 0 14 Inter empty 0 255 255 255 0 25 25 25 0 0 C4;
#X obj 80 205 note 0 14 Inter empty 0 255 255 255 0 25 25 25 0 0 C4;
#X obj 175 205 note 0 14 Inter empty 0 255 255 255 0 25 25 25 0 0 C4;
#X obj 269 205 note 0 14 Inter empty 0 255 255 255 0 25 25 25 0 0 C4;
#X obj 364 205 note 0 14 Inter empty 0 255 255 255 0 25 25 25 0 0 C4;
#X obj 454 205 note 0 14 Inter empty 0 255 255 255 0 25 25 25 0 0 C4;
#X obj 549 205 note 0 14 Inter empty 0 255 255 255 0 25 25 25 0 0 C4;
#X obj 33 180 note 0 14 Inter empty 0 255 255 255 0 25 25 25 0 0 C4;
#X obj 128 180 note 0 14 Inter empty 0 255 255 255 0 25 25 25 0 0 C4;
#X obj 222 180 note 0 14 Inter empty 0 255 255 255 0 25 25 25 0 0 C4;
#X obj 317 180 note 0 14 Inter empty 0 255 255 255 0 25 25 25 0 0 C4;
#X obj 407 180 note 0 14 Inter empty 0 255 255 255 0 25 25 25 0 0 C4;
#X obj 502 180 note 0 14 Inter empty 0 255 255 255 0 25 25 25 0 0 C4;
#X obj 80 153 note 0 14 Inter empty 0 255 255 255 0 25 25 25 0 0 C4;
#X obj 175 153 note 0 14 Inter empty 0 255 255 255 0 25 25 25 0 0 C4;
#X obj 269 153 note 0 14 Inter empty 0 255 255 255 0 25 25 25 0 0 C4;
#X obj 364 153 note 0 14 Inter empty 0 255 255 255 0 25 25 25 0 0 C4;
#X obj 454 153 note 0 14 Inter empty 0 255 255 255 0 25 25 25 0 0 C4;
#X obj 549 153 note 0 14 Inter empty 0 255 255 255 0 25 25 25 0 0 C4;
#X obj 33 128 note 0 14 Inter empty 0 255 255 255 0 25 25 25 0 0 C4;
#X obj 128 128 note 0 14 Inter empty 0 255 255 255 0 25 25 25 0 0 C4;
#X obj 222 128 note 0 14 Inter empty 0 255 255 255 0 25 25 25 0 0 C4;
#X obj 317 128 note 0 14 Inter empty 0 255 255 255 0 25 25 25 0 0 C4;
#X obj 407 128 note 0 14 Inter empty 0 255 255 255 0 25 25 25 0 0 C4;
#X obj 502 128 note 0 14 Inter empty 0 255 255 255 0 25 25 25 0 0 C4;
#X obj 80 99 note 0 14 Inter empty 0 255 255 255 0 25 25 25 0 0 C4;
#X obj 175 99 note 0 14 Inter empty 0 255 255 255 0 25 25 25 0 0 C4;
#X obj 269 99 note 0 14 Inter empty 0 255 255 255 0 25 25 25 0 0 C4;
#X obj 364 99 note 0 14 Inter empty 0 255 255 255 0 25 25 25 0 0 C4;
#X obj 454 99 note 0 14 Inter empty 0 255 255 255 0 25 25 25 0 0 C4;
#X obj 549 99 note 0 14 Inter empty 0 255 255 255 0 25 25 25 0 0 C4;
#X obj 33 74 note 0 14 Inter empty 0 255 255 255 0 25 25 25 0 0 C4;
#X obj 128 74 note 0 14 Inter empty 0 255 255 255 0 25 25 25 0 0 C4;
#X obj 222 74 note 0 14 Inter empty 0 255 255 255 0 25 25 25 0 0 C4;
#X obj 317 74 note 0 14 Inter empty 0 255 255 255 0 25 25 25 0 0 C4;
#X obj 407 74 note 0 14 Inter empty 0 255 255 255 0 25 25 25 0 0 C4;
#X obj 502 74 note 0 14 Inter empty 0 255 255 255 0 25 25 25 0 0 C4;
#X obj 80 45 note 0 14 Inter empty 0 255 255 255 0 25 25 25 0 0 C4;
#X obj 175 45 note 0 14 Inter empty 0 255 255 255 0 25 25 25 0 0 C4;
#X obj 269 45 note 0 14 Inter empty 0 255 255 255 0 25 25 25 0 0 C4;
#X obj 364 45 note 0 14 Inter empty 0 255 255 255 0 25 25 25 0 0 C4;
#X obj 454 45 note 0 14 Inter empty 0 255 255 255 0 25 25 25 0 0 C4;
#X obj 549 45 note 0 14 Inter empty 0 255 255 255 0 25 25 25 0 0 C4;
#X obj 33 20 note 0 14 Inter empty 0 255 255 255 0 25 25 25 0 0 C4;
#X obj 128 20 note 0 14 Inter empty 0 255 255 255 0 25 25 25 0 0 C4;
#X obj 222 20 note 0 14 Inter empty 0 255 255 255 0 25 25 25 0 0 C4;
#X obj 317 20 note 0 14 Inter empty 0 255 255 255 0 25 25 25 0 0 C4;
#X obj 407 20 note 0 14 Inter empty 0 255 255 255 0 25 25 25 0 0 C4;
#X obj 502 20 note 0 14 Inter empty 0 255 255 255 0 25 25 25 0 0 C4;
#X obj -191 -261 loop 0 108;
#X obj -191 -221 t f f;
#X obj -191 -71 router 108, f 282;
#X connect 109 0 111 0 empty;
#X connect 110 0 109 0 empty;
#X connect 111 0 225 0 empty;
#X connect 112 0 109 0 empty;
#X connect 113 0 109 0 empty;
#X connect 114 0 223 0 empty;
#X connect 223 0 224 0 empty;
#X connect 224 0 110 0 empty;
#X connect 224 1 225 1 empty;
#X connect 225 0 115 0 empty;
#X connect 225 1 116 0 empty;
#X connect 225 2 117 0 empty;
#X connect 225 3 118 0 empty;
#X connect 225 3 121 0 empty;
#X connect 225 4 119 0 empty;
#X connect 225 4 122 0 empty;
#X connect 225 5 120 0 empty;
#X connect 225 5 123 0 empty;
#X connect 225 6 124 0 empty;
#X connect 225 7 125 0 empty;
#X connect 225 7 127 0 empty;
#X connect 225 8 126 0 empty;
#X connect 225 8 128 0 empty;
#X connect 225 9 129 0 empty;
#X connect 225 10 130 0 empty;
#X connect 225 10 133 0 empty;
#X connect 225 11 131 0 empty;
#X connect 225 11 134 0 empty;
#X connect 225 12 132 0 empty;
#X connect 225 12 135 0 empty;
#X connect 225 13 136 0 empty;
#X connect 225 14 137 0 empty;
#X connect 225 15 138 0 empty;
#X coords 0 1 100 -1 611 511 1 0 0;
#X restore 639 -1 graph;
