#N canvas 827 239 610 510 12;
#N canvas 0 50 450 250 (subpatch) 1;
#X obj 20 5 pad 51 51 255 255 255;
#X obj 115 5 pad 51 51 255 255 255;
#X obj 208 5 pad 51 51 255 255 255;
#X obj 301 5 pad 51 51 255 255 255;
#X obj 397 5 pad 51 51 255 255 255;
#X obj 490 5 pad 51 51 255 255 255;
#X obj 67 31 pad 51 51 255 255 255;
#X obj 162 31 pad 51 51 255 255 255;
#X obj 255 29 pad 51 51 255 255 255;
#X obj 350 31 pad 51 51 255 255 255;
#X obj 442 31 pad 51 51 255 255 255;
#X obj 538 31 pad 51 51 255 255 255;
#X obj 20 57 pad 51 51 255 255 255;
#X obj 115 57 pad 51 51 255 255 255;
#X obj 208 57 pad 51 51 255 255 255;
#X obj 301 57 pad 51 51 255 255 255;
#X obj 397 57 pad 51 51 255 255 255;
#X obj 490 57 pad 51 51 255 255 255;
#X obj 67 83 pad 51 51 255 255 255;
#X obj 162 83 pad 51 51 255 255 255;
#X obj 255 81 pad 51 51 255 255 255;
#X obj 350 83 pad 51 51 255 255 255;
#X obj 442 83 pad 51 51 255 255 255;
#X obj 538 83 pad 51 51 255 255 255;
#X obj 20 111 pad 51 51 255 255 255;
#X obj 115 111 pad 51 51 255 255 255;
#X obj 208 111 pad 51 51 255 255 255;
#X obj 301 111 pad 51 51 255 255 255;
#X obj 397 111 pad 51 51 255 255 255;
#X obj 490 111 pad 51 51 255 255 255;
#X obj 67 137 pad 51 51 255 255 255;
#X obj 162 137 pad 51 51 255 255 255;
#X obj 255 135 pad 51 51 255 255 255;
#X obj 350 137 pad 51 51 255 255 255;
#X obj 442 137 pad 51 51 255 255 255;
#X obj 538 137 pad 51 51 255 255 255;
#X obj 20 163 pad 51 51 255 255 255;
#X obj 115 163 pad 51 51 255 255 255;
#X obj 208 163 pad 51 51 255 255 255;
#X obj 301 163 pad 51 51 255 255 255;
#X obj 397 163 pad 51 51 255 255 255;
#X obj 490 163 pad 51 51 255 255 255;
#X obj 67 189 pad 51 51 255 255 255;
#X obj 162 189 pad 51 51 255 255 255;
#X obj 255 187 pad 51 51 255 255 255;
#X obj 350 189 pad 51 51 255 255 255;
#X obj 442 189 pad 51 51 255 255 255;
#X obj 538 189 pad 51 51 255 255 255;
#X obj 20 217 pad 51 51 255 255 255;
#X obj 115 217 pad 51 51 255 255 255;
#X obj 208 217 pad 51 51 255 255 255;
#X obj 301 217 pad 51 51 255 255 255;
#X obj 397 217 pad 51 51 255 255 255;
#X obj 490 217 pad 51 51 255 255 255;
#X obj 67 243 pad 51 51 255 255 255;
#X obj 162 243 pad 51 51 255 255 255;
#X obj 255 241 pad 51 51 255 255 255;
#X obj 350 243 pad 51 51 255 255 255;
#X obj 442 243 pad 51 51 255 255 255;
#X obj 538 243 pad 51 51 255 255 255;
#X obj 20 269 pad 51 51 255 255 255;
#X obj 115 269 pad 51 51 255 255 255;
#X obj 208 269 pad 51 51 255 255 255;
#X obj 301 269 pad 51 51 255 255 255;
#X obj 397 269 pad 51 51 255 255 255;
#X obj 490 269 pad 51 51 255 255 255;
#X obj 67 295 pad 51 51 255 255 255;
#X obj 162 295 pad 51 51 255 255 255;
#X obj 255 293 pad 51 51 255 255 255;
#X obj 350 295 pad 51 51 255 255 255;
#X obj 442 295 pad 51 51 255 255 255;
#X obj 538 295 pad 51 51 255 255 255;
#X obj 20 323 pad 51 51 255 255 255;
#X obj 115 323 pad 51 51 255 255 255;
#X obj 208 323 pad 51 51 255 255 255;
#X obj 301 323 pad 51 51 255 255 255;
#X obj 397 323 pad 51 51 255 255 255;
#X obj 490 323 pad 51 51 255 255 255;
#X obj 67 349 pad 51 51 255 255 255;
#X obj 162 349 pad 51 51 255 255 255;
#X obj 255 347 pad 51 51 255 255 255;
#X obj 350 349 pad 51 51 255 255 255;
#X obj 442 349 pad 51 51 255 255 255;
#X obj 538 349 pad 51 51 255 255 255;
#X obj 20 375 pad 51 51 255 255 255;
#X obj 115 375 pad 51 51 255 255 255;
#X obj 208 375 pad 51 51 255 255 255;
#X obj 301 375 pad 51 51 255 255 255;
#X obj 397 375 pad 51 51 255 255 255;
#X obj 490 375 pad 51 51 255 255 255;
#X obj 67 401 pad 51 51 255 255 255;
#X obj 162 401 pad 51 51 255 255 255;
#X obj 255 399 pad 51 51 255 255 255;
#X obj 350 401 pad 51 51 255 255 255;
#X obj 442 401 pad 51 51 255 255 255;
#X obj 538 401 pad 51 51 255 255 255;
#X obj 20 428 pad 51 51 255 255 255;
#X obj 115 428 pad 51 51 255 255 255;
#X obj 208 428 pad 51 51 255 255 255;
#X obj 301 428 pad 51 51 255 255 255;
#X obj 397 428 pad 51 51 255 255 255;
#X obj 490 428 pad 51 51 255 255 255;
#X obj 67 454 pad 51 51 255 255 255;
#X obj 162 454 pad 51 51 255 255 255;
#X obj 255 452 pad 51 51 255 255 255;
#X obj 350 454 pad 51 51 255 255 255;
#X obj 442 454 pad 51 51 255 255 255;
#X obj 538 454 pad 51 51 255 255 255;
#X obj -31 -21 cnv 15 641 531 empty empty empty 20 12 0 14 #d1d1d1 #ffffff 0;
#X obj 619 -7 bng 25 250 50 0 empty empty ⬣ -611 37 0 87 #191919 #ffffff #191919;
#X obj 666 19 bng 25 250 50 0 empty empty ⬣ -611 37 0 87 #191919 #ffffff #191919;
#X obj 713 -7 bng 25 250 50 0 empty empty ⬣ -611 37 0 87 #191919 #ffffff #191919;
#X obj 807 -7 bng 25 250 50 0 empty empty ⬣ -611 37 0 87 #191919 #ffffff #191919;
#X obj 854 19 bng 25 250 50 0 empty empty ⬣ -611 37 0 87 #191919 #ffffff #191919;
#X obj 760 19 bng 25 250 50 0 empty empty ⬣ -611 37 0 87 #191919 #ffffff #191919;
#X obj 901 -7 bng 25 250 50 0 empty empty ⬣ -611 37 0 87 #191919 #ffffff #191919;
#X obj 948 19 bng 25 250 50 0 empty empty ⬣ -611 37 0 87 #191919 #ffffff #191919;
#X obj 995 -7 bng 25 250 50 0 empty empty ⬣ -611 37 0 87 #191919 #ffffff #191919;
#X obj 1089 -7 bng 25 250 50 0 empty empty ⬣ -611 37 0 87 #191919 #ffffff #191919;
#X obj 1136 19 bng 25 250 50 0 empty empty ⬣ -611 37 0 87 #191919 #ffffff #191919;
#X obj 1042 19 bng 25 250 50 0 empty empty ⬣ -611 37 0 87 #191919 #ffffff #191919;
#X obj 619 46 bng 25 250 50 0 empty empty ⬣ -611 37 0 87 #191919 #ffffff #191919;
#X obj 666 72 bng 25 250 50 0 empty empty ⬣ -611 37 0 87 #191919 #ffffff #191919;
#X obj 713 46 bng 25 250 50 0 empty empty ⬣ -611 37 0 87 #191919 #ffffff #191919;
#X obj 807 46 bng 25 250 50 0 empty empty ⬣ -611 37 0 87 #191919 #ffffff #191919;
#X obj 854 72 bng 25 250 50 0 empty empty ⬣ -611 37 0 87 #191919 #ffffff #191919;
#X obj 760 72 bng 25 250 50 0 empty empty ⬣ -611 37 0 87 #191919 #ffffff #191919;
#X obj 901 46 bng 25 250 50 0 empty empty ⬣ -611 37 0 87 #191919 #ffffff #191919;
#X obj 948 72 bng 25 250 50 0 empty empty ⬣ -611 37 0 87 #191919 #ffffff #191919;
#X obj 995 46 bng 25 250 50 0 empty empty ⬣ -611 37 0 87 #191919 #ffffff #191919;
#X obj 1089 46 bng 25 250 50 0 empty empty ⬣ -611 37 0 87 #191919 #ffffff #191919;
#X obj 1136 72 bng 25 250 50 0 empty empty ⬣ -611 37 0 87 #191919 #ffffff #191919;
#X obj 1042 72 bng 25 250 50 0 empty empty ⬣ -611 37 0 87 #191919 #ffffff #191919;
#X obj 619 99 bng 25 250 50 0 empty empty ⬣ -611 37 0 87 #191919 #ffffff #191919;
#X obj 666 125 bng 25 250 50 0 empty empty ⬣ -611 37 0 87 #191919 #ffffff #191919;
#X obj 713 99 bng 25 250 50 0 empty empty ⬣ -611 37 0 87 #191919 #ffffff #191919;
#X obj 807 99 bng 25 250 50 0 empty empty ⬣ -611 37 0 87 #191919 #ffffff #191919;
#X obj 854 125 bng 25 250 50 0 empty empty ⬣ -611 37 0 87 #191919 #ffffff #191919;
#X obj 760 125 bng 25 250 50 0 empty empty ⬣ -611 37 0 87 #191919 #ffffff #191919;
#X obj 901 99 bng 25 250 50 0 empty empty ⬣ -611 37 0 87 #191919 #ffffff #191919;
#X obj 948 125 bng 25 250 50 0 empty empty ⬣ -611 37 0 87 #191919 #ffffff #191919;
#X obj 995 99 bng 25 250 50 0 empty empty ⬣ -611 37 0 87 #191919 #ffffff #191919;
#X obj 1089 99 bng 25 250 50 0 empty empty ⬣ -611 37 0 87 #191919 #ffffff #191919;
#X obj 1136 125 bng 25 250 50 0 empty empty ⬣ -611 37 0 87 #191919 #ffffff #191919;
#X obj 1042 125 bng 25 250 50 0 empty empty ⬣ -611 37 0 87 #191919 #ffffff #191919;
#X obj 619 152 bng 25 250 50 0 empty empty ⬣ -611 37 0 87 #191919 #ffffff #191919;
#X obj 666 178 bng 25 250 50 0 empty empty ⬣ -611 37 0 87 #191919 #ffffff #191919;
#X obj 713 152 bng 25 250 50 0 empty empty ⬣ -611 37 0 87 #191919 #ffffff #191919;
#X obj 807 152 bng 25 250 50 0 empty empty ⬣ -611 37 0 87 #191919 #ffffff #191919;
#X obj 854 178 bng 25 250 50 0 empty empty ⬣ -611 37 0 87 #191919 #ffffff #191919;
#X obj 760 178 bng 25 250 50 0 empty empty ⬣ -611 37 0 87 #191919 #ffffff #191919;
#X obj 901 152 bng 25 250 50 0 empty empty ⬣ -611 37 0 87 #191919 #ffffff #191919;
#X obj 948 178 bng 25 250 50 0 empty empty ⬣ -611 37 0 87 #191919 #ffffff #191919;
#X obj 995 152 bng 25 250 50 0 empty empty ⬣ -611 37 0 87 #191919 #ffffff #191919;
#X obj 1089 152 bng 25 250 50 0 empty empty ⬣ -611 37 0 87 #191919 #ffffff #191919;
#X obj 1136 178 bng 25 250 50 0 empty empty ⬣ -611 37 0 87 #191919 #ffffff #191919;
#X obj 1042 178 bng 25 250 50 0 empty empty ⬣ -611 37 0 87 #191919 #ffffff #191919;
#X obj 619 205 bng 25 250 50 0 empty empty ⬣ -611 37 0 87 #191919 #ffffff #191919;
#X obj 666 231 bng 25 250 50 0 empty empty ⬣ -611 37 0 87 #191919 #ffffff #191919;
#X obj 713 205 bng 25 250 50 0 empty empty ⬣ -611 37 0 87 #191919 #ffffff #191919;
#X obj 807 205 bng 25 250 50 0 empty empty ⬣ -611 37 0 87 #191919 #ffffff #191919;
#X obj 854 231 bng 25 250 50 0 empty empty ⬣ -611 37 0 87 #191919 #ffffff #191919;
#X obj 760 231 bng 25 250 50 0 empty empty ⬣ -611 37 0 87 #191919 #ffffff #191919;
#X obj 901 205 bng 25 250 50 0 empty empty ⬣ -611 37 0 87 #191919 #ffffff #191919;
#X obj 948 231 bng 25 250 50 0 empty empty ⬣ -611 37 0 87 #191919 #ffffff #191919;
#X obj 995 205 bng 25 250 50 0 empty empty ⬣ -611 37 0 87 #191919 #ffffff #191919;
#X obj 1089 205 bng 25 250 50 0 empty empty ⬣ -611 37 0 87 #191919 #ffffff #191919;
#X obj 1136 231 bng 25 250 50 0 empty empty ⬣ -611 37 0 87 #191919 #ffffff #191919;
#X obj 1042 231 bng 25 250 50 0 empty empty ⬣ -611 37 0 87 #191919 #ffffff #191919;
#X obj 619 258 bng 25 250 50 0 empty empty ⬣ -611 37 0 87 #191919 #ffffff #191919;
#X obj 666 284 bng 25 250 50 0 empty empty ⬣ -611 37 0 87 #191919 #ffffff #191919;
#X obj 713 258 bng 25 250 50 0 empty empty ⬣ -611 37 0 87 #191919 #ffffff #191919;
#X obj 807 258 bng 25 250 50 0 empty empty ⬣ -611 37 0 87 #191919 #ffffff #191919;
#X obj 854 284 bng 25 250 50 0 empty empty ⬣ -611 37 0 87 #191919 #ffffff #191919;
#X obj 760 284 bng 25 250 50 0 empty empty ⬣ -611 37 0 87 #191919 #ffffff #191919;
#X obj 901 258 bng 25 250 50 0 empty empty ⬣ -611 37 0 87 #191919 #ffffff #191919;
#X obj 948 284 bng 25 250 50 0 empty empty ⬣ -611 37 0 87 #191919 #ffffff #191919;
#X obj 995 258 bng 25 250 50 0 empty empty ⬣ -611 37 0 87 #191919 #ffffff #191919;
#X obj 1089 258 bng 25 250 50 0 empty empty ⬣ -611 37 0 87 #191919 #ffffff #191919;
#X obj 1136 284 bng 25 250 50 0 empty empty ⬣ -611 37 0 87 #191919 #ffffff #191919;
#X obj 1042 284 bng 25 250 50 0 empty empty ⬣ -611 37 0 87 #191919 #ffffff #191919;
#X obj 619 311 bng 25 250 50 0 empty empty ⬣ -611 37 0 87 #191919 #ffffff #191919;
#X obj 666 337 bng 25 250 50 0 empty empty ⬣ -611 37 0 87 #191919 #ffffff #191919;
#X obj 713 311 bng 25 250 50 0 empty empty ⬣ -611 37 0 87 #191919 #ffffff #191919;
#X obj 807 311 bng 25 250 50 0 empty empty ⬣ -611 37 0 87 #191919 #ffffff #191919;
#X obj 854 337 bng 25 250 50 0 empty empty ⬣ -611 37 0 87 #191919 #ffffff #191919;
#X obj 760 337 bng 25 250 50 0 empty empty ⬣ -611 37 0 87 #191919 #ffffff #191919;
#X obj 901 311 bng 25 250 50 0 empty empty ⬣ -611 37 0 87 #191919 #ffffff #191919;
#X obj 948 337 bng 25 250 50 0 empty empty ⬣ -611 37 0 87 #191919 #ffffff #191919;
#X obj 995 311 bng 25 250 50 0 empty empty ⬣ -611 37 0 87 #191919 #ffffff #191919;
#X obj 1089 311 bng 25 250 50 0 empty empty ⬣ -611 37 0 87 #191919 #ffffff #191919;
#X obj 1136 337 bng 25 250 50 0 empty empty ⬣ -611 37 0 87 #191919 #ffffff #191919;
#X obj 1042 337 bng 25 250 50 0 empty empty ⬣ -611 37 0 87 #191919 #ffffff #191919;
#X obj 619 364 bng 25 250 50 0 empty empty ⬣ -611 37 0 87 #191919 #ffffff #191919;
#X obj 666 390 bng 25 250 50 0 empty empty ⬣ -611 37 0 87 #191919 #ffffff #191919;
#X obj 713 364 bng 25 250 50 0 empty empty ⬣ -611 37 0 87 #191919 #ffffff #191919;
#X obj 807 364 bng 25 250 50 0 empty empty ⬣ -611 37 0 87 #191919 #ffffff #191919;
#X obj 854 390 bng 25 250 50 0 empty empty ⬣ -611 37 0 87 #191919 #ffffff #191919;
#X obj 760 390 bng 25 250 50 0 empty empty ⬣ -611 37 0 87 #191919 #ffffff #191919;
#X obj 901 364 bng 25 250 50 0 empty empty ⬣ -611 37 0 87 #191919 #ffffff #191919;
#X obj 948 390 bng 25 250 50 0 empty empty ⬣ -611 37 0 87 #191919 #ffffff #191919;
#X obj 995 364 bng 25 250 50 0 empty empty ⬣ -611 37 0 87 #191919 #ffffff #191919;
#X obj 1089 364 bng 25 250 50 0 empty empty ⬣ -611 37 0 87 #191919 #ffffff #191919;
#X obj 1136 390 bng 25 250 50 0 empty empty ⬣ -611 37 0 87 #191919 #ffffff #191919;
#X obj 1042 390 bng 25 250 50 0 empty empty ⬣ -611 37 0 87 #191919 #ffffff #191919;
#X obj 619 417 bng 25 250 50 0 empty empty ⬣ -611 37 0 87 #191919 #ffffff #191919;
#X obj 713 417 bng 25 250 50 0 empty empty ⬣ -611 37 0 87 #191919 #ffffff #191919;
#X obj 807 417 bng 25 250 50 0 empty empty ⬣ -611 37 0 87 #191919 #ffffff #191919;
#X obj 901 417 bng 25 250 50 0 empty empty ⬣ -611 37 0 87 #191919 #ffffff #191919;
#X obj 995 417 bng 25 250 50 0 empty empty ⬣ -611 37 0 87 #191919 #ffffff #191919;
#X obj 1089 417 bng 25 250 50 0 empty empty ⬣ -611 37 0 87 #191919 #ffffff #191919;
#X obj 666 443 bng 25 250 50 0 empty empty ⬣ -611 37 0 87 #191919 #ffffff #191919;
#X obj 854 443 bng 25 250 50 0 empty empty ⬣ -611 37 0 87 #191919 #ffffff #191919;
#X obj 760 443 bng 25 250 50 0 empty empty ⬣ -611 37 0 87 #191919 #ffffff #191919;
#X obj 948 443 bng 25 250 50 0 empty empty ⬣ -611 37 0 87 #191919 #ffffff #191919;
#X obj 1137 443 bng 25 250 50 0 empty empty ⬣ -611 37 0 87 #191919 #ffffff #191919;
#X obj 1042 443 bng 25 250 50 0 empty empty ⬣ -611 37 0 87 #191919 #ffffff #191919;
#N canvas 0 50 450 250 (subpatch) 1;
#X obj -191 -131 pitch2note;
#X msg -191 -101 set \$1;
#X obj 80 472 note 0 14 Inter empty 0 255 255 255 0 25 25 25 0 0 C1;
#X obj 175 472 note 0 14 Inter empty 0 255 255 255 0 25 25 25 0 0 C#1;
#X obj 269 472 note 0 14 Inter empty 0 255 255 255 0 25 25 25 0 0 D1;
#X obj 364 472 note 0 14 Inter empty 0 255 255 255 0 25 25 25 0 0 D#1;
#X obj 454 472 note 0 14 Inter empty 0 255 255 255 0 25 25 25 0 0 E1;
#X obj 549 472 note 0 14 Inter empty 0 255 255 255 0 25 25 25 0 0 F1;
#X obj 30 446 note 0 14 Inter empty 0 255 255 255 0 25 25 25 0 0 D#1;
#X obj 128 447 note 0 14 Inter empty 0 255 255 255 0 25 25 25 0 0 E1;
#X obj 222 447 note 0 14 Inter empty 0 255 255 255 0 25 25 25 0 0 F1;
#X obj 313 446 note 0 14 Inter empty 0 255 255 255 0 25 25 25 0 0 F#1;
#X obj 407 447 note 0 14 Inter empty 0 255 255 255 0 25 25 25 0 0 G1;
#X obj 502 447 note 0 14 Inter empty 0 255 255 255 0 25 25 25 0 0 G#1;
#X obj 80 418 note 0 14 Inter empty 0 255 255 255 0 25 25 25 0 0 G1;
#X obj 175 418 note 0 14 Inter empty 0 255 255 255 0 25 25 25 0 0 G#1;
#X obj 269 418 note 0 14 Inter empty 0 255 255 255 0 25 25 25 0 0 A1;
#X obj 364 418 note 0 14 Inter empty 0 255 255 255 0 25 25 25 0 0 A#1;
#X obj 454 418 note 0 14 Inter empty 0 255 255 255 0 25 25 25 0 0 B1;
#X obj 549 418 note 0 14 Inter empty 0 255 255 255 0 25 25 25 0 0 C2;
#X obj 33 393 note 0 14 Inter empty 0 255 255 255 0 25 25 25 0 0 A#1;
#X obj 128 393 note 0 14 Inter empty 0 255 255 255 0 25 25 25 0 0 B1;
#X obj 222 393 note 0 14 Inter empty 0 255 255 255 0 25 25 25 0 0 C2;
#X obj 317 393 note 0 14 Inter empty 0 255 255 255 0 25 25 25 0 0 C#2;
#X obj 407 393 note 0 14 Inter empty 0 255 255 255 0 25 25 25 0 0 D2;
#X obj 502 393 note 0 14 Inter empty 0 255 255 255 0 25 25 25 0 0 D#2;
#X obj 80 366 note 0 14 Inter empty 0 255 255 255 0 25 25 25 0 0 D2;
#X obj 175 366 note 0 14 Inter empty 0 255 255 255 0 25 25 25 0 0 D#2;
#X obj 269 366 note 0 14 Inter empty 0 255 255 255 0 25 25 25 0 0 E2;
#X obj 364 366 note 0 14 Inter empty 0 255 255 255 0 25 25 25 0 0 F2;
#X obj 454 366 note 0 14 Inter empty 0 255 255 255 0 25 25 25 0 0 F#2;
#X obj 549 366 note 0 14 Inter empty 0 255 255 255 0 25 25 25 0 0 G2;
#X obj 33 341 note 0 14 Inter empty 0 255 255 255 0 25 25 25 0 0 F2;
#X obj 128 341 note 0 14 Inter empty 0 255 255 255 0 25 25 25 0 0 F#2;
#X obj 222 341 note 0 14 Inter empty 0 255 255 255 0 25 25 25 0 0 G2;
#X obj 317 341 note 0 14 Inter empty 0 255 255 255 0 25 25 25 0 0 G#2;
#X obj 407 341 note 0 14 Inter empty 0 255 255 255 0 25 25 25 0 0 A2;
#X obj 502 341 note 0 14 Inter empty 0 255 255 255 0 25 25 25 0 0 A#2;
#X obj 80 312 note 0 14 Inter empty 0 255 255 255 0 25 25 25 0 0 A2;
#X obj 175 312 note 0 14 Inter empty 0 255 255 255 0 25 25 25 0 0 A#2;
#X obj 269 312 note 0 14 Inter empty 0 255 255 255 0 25 25 25 0 0 B2;
#X obj 364 312 note 0 14 Inter empty 0 255 255 255 0 25 25 25 0 0 C3;
#X obj 454 312 note 0 14 Inter empty 0 255 255 255 0 25 25 25 0 0 C#3;
#X obj 549 312 note 0 14 Inter empty 0 255 255 255 0 25 25 25 0 0 D3;
#X obj 33 287 note 0 14 Inter empty 0 255 255 255 0 25 25 25 0 0 C3;
#X obj 128 287 note 0 14 Inter empty 0 255 255 255 0 25 25 25 0 0 C#3;
#X obj 222 287 note 0 14 Inter empty 0 255 255 255 0 25 25 25 0 0 D3;
#X obj 317 287 note 0 14 Inter empty 0 255 255 255 0 25 25 25 0 0 D#3;
#X obj 407 287 note 0 14 Inter empty 0 255 255 255 0 25 25 25 0 0 E3;
#X obj 502 287 note 0 14 Inter empty 0 255 255 255 0 25 25 25 0 0 F3;
#X obj 80 259 note 0 14 Inter empty 0 255 255 255 0 25 25 25 0 0 E3;
#X obj 175 259 note 0 14 Inter empty 0 255 255 255 0 25 25 25 0 0 F3;
#X obj 269 259 note 0 14 Inter empty 0 255 255 255 0 25 25 25 0 0 F#3;
#X obj 364 259 note 0 14 Inter empty 0 255 255 255 0 25 25 25 0 0 G3;
#X obj 454 259 note 0 14 Inter empty 0 255 255 255 0 25 25 25 0 0 G#3;
#X obj 549 259 note 0 14 Inter empty 0 255 255 255 0 25 25 25 0 0 A3;
#X obj 33 234 note 0 14 Inter empty 0 255 255 255 0 25 25 25 0 0 G3;
#X obj 128 234 note 0 14 Inter empty 0 255 255 255 0 25 25 25 0 0 G#3;
#X obj 222 234 note 0 14 Inter empty 0 255 255 255 0 25 25 25 0 0 A3;
#X obj 317 234 note 0 14 Inter empty 0 255 255 255 0 25 25 25 0 0 A#3;
#X obj 407 234 note 0 14 Inter empty 0 255 255 255 0 25 25 25 0 0 B3;
#X obj 502 234 note 0 14 Inter empty 0 255 255 255 0 25 25 25 0 0 C4;
#X obj 80 205 note 0 14 Inter empty 0 255 255 255 0 25 25 25 0 0 B3;
#X obj 175 205 note 0 14 Inter empty 0 255 255 255 0 25 25 25 0 0 C4;
#X obj 269 205 note 0 14 Inter empty 0 255 255 255 0 25 25 25 0 0 C#4;
#X obj 364 205 note 0 14 Inter empty 0 255 255 255 0 25 25 25 0 0 D4;
#X obj 454 205 note 0 14 Inter empty 0 255 255 255 0 25 25 25 0 0 D#4;
#X obj 549 205 note 0 14 Inter empty 0 255 255 255 0 25 25 25 0 0 E4;
#X obj 33 180 note 0 14 Inter empty 0 255 255 255 0 25 25 25 0 0 D4;
#X obj 128 180 note 0 14 Inter empty 0 255 255 255 0 25 25 25 0 0 D#4;
#X obj 222 180 note 0 14 Inter empty 0 255 255 255 0 25 25 25 0 0 E4;
#X obj 317 180 note 0 14 Inter empty 0 255 255 255 0 25 25 25 0 0 F4;
#X obj 407 180 note 0 14 Inter empty 0 255 255 255 0 25 25 25 0 0 F#4;
#X obj 502 180 note 0 14 Inter empty 0 255 255 255 0 25 25 25 0 0 G4;
#X obj 80 153 note 0 14 Inter empty 0 255 255 255 0 25 25 25 0 0 F#4;
#X obj 175 153 note 0 14 Inter empty 0 255 255 255 0 25 25 25 0 0 G4;
#X obj 269 153 note 0 14 Inter empty 0 255 255 255 0 25 25 25 0 0 G#4;
#X obj 364 153 note 0 14 Inter empty 0 255 255 255 0 25 25 25 0 0 A4;
#X obj 454 153 note 0 14 Inter empty 0 255 255 255 0 25 25 25 0 0 A#4;
#X obj 549 153 note 0 14 Inter empty 0 255 255 255 0 25 25 25 0 0 B4;
#X obj 33 128 note 0 14 Inter empty 0 255 255 255 0 25 25 25 0 0 A4;
#X obj 128 128 note 0 14 Inter empty 0 255 255 255 0 25 25 25 0 0 A#4;
#X obj 222 128 note 0 14 Inter empty 0 255 255 255 0 25 25 25 0 0 B4;
#X obj 317 128 note 0 14 Inter empty 0 255 255 255 0 25 25 25 0 0 C5;
#X obj 407 128 note 0 14 Inter empty 0 255 255 255 0 25 25 25 0 0 C#5;
#X obj 502 128 note 0 14 Inter empty 0 255 255 255 0 25 25 25 0 0 D5;
#X obj 80 99 note 0 14 Inter empty 0 255 255 255 0 25 25 25 0 0 C#5;
#X obj 175 99 note 0 14 Inter empty 0 255 255 255 0 25 25 25 0 0 D5;
#X obj 269 99 note 0 14 Inter empty 0 255 255 255 0 25 25 25 0 0 D#5;
#X obj 364 99 note 0 14 Inter empty 0 255 255 255 0 25 25 25 0 0 E5;
#X obj 454 99 note 0 14 Inter empty 0 255 255 255 0 25 25 25 0 0 F5;
#X obj 549 99 note 0 14 Inter empty 0 255 255 255 0 25 25 25 0 0 F#5;
#X obj 33 74 note 0 14 Inter empty 0 255 255 255 0 25 25 25 0 0 E5;
#X obj 128 74 note 0 14 Inter empty 0 255 255 255 0 25 25 25 0 0 F5;
#X obj 222 74 note 0 14 Inter empty 0 255 255 255 0 25 25 25 0 0 F#5;
#X obj 317 74 note 0 14 Inter empty 0 255 255 255 0 25 25 25 0 0 G5;
#X obj 407 74 note 0 14 Inter empty 0 255 255 255 0 25 25 25 0 0 G#5;
#X obj 502 74 note 0 14 Inter empty 0 255 255 255 0 25 25 25 0 0 A5;
#X obj 80 45 note 0 14 Inter empty 0 255 255 255 0 25 25 25 0 0 G#5;
#X obj 175 45 note 0 14 Inter empty 0 255 255 255 0 25 25 25 0 0 A5;
#X obj 269 45 note 0 14 Inter empty 0 255 255 255 0 25 25 25 0 0 A#5;
#X obj 364 45 note 0 14 Inter empty 0 255 255 255 0 25 25 25 0 0 B5;
#X obj 454 45 note 0 14 Inter empty 0 255 255 255 0 25 25 25 0 0 C6;
#X obj 549 45 note 0 14 Inter empty 0 255 255 255 0 25 25 25 0 0 C#6;
#X obj 33 20 note 0 14 Inter empty 0 255 255 255 0 25 25 25 0 0 B5;
#X obj 128 20 note 0 14 Inter empty 0 255 255 255 0 25 25 25 0 0 C6;
#X obj 222 20 note 0 14 Inter empty 0 255 255 255 0 25 25 25 0 0 C#6;
#X obj 317 20 note 0 14 Inter empty 0 255 255 255 0 25 25 25 0 0 D6;
#X obj 407 20 note 0 14 Inter empty 0 255 255 255 0 25 25 25 0 0 D#6;
#X obj 502 20 note 0 14 Inter empty 0 255 255 255 0 25 25 25 0 0 E6;
#X obj -191 -281 t f f;
#X obj -191 -71 router 65, f 167;
#X obj -191 -201 + 24;
#X obj -191 -231 +;
#X obj -131 -441 r transpose;
#X obj -131 -351 t b f;
#X obj -191 -311 loop 65;
#X obj -31 -351 t b a;
#X obj -31 -381 r accidentals;
#X obj -131 -411 int;
#X obj -131 -381 change;
#X connect 0 0 1 0 empty;
#X connect 1 0 111 0 empty;
#X connect 110 0 113 0 empty;
#X connect 110 1 111 1 empty;
#X connect 111 0 2 0 empty;
#X connect 111 1 3 0 empty;
#X connect 111 2 4 0 empty;
#X connect 111 3 5 0 empty;
#X connect 111 3 8 0 empty;
#X connect 111 4 6 0 empty;
#X connect 111 4 9 0 empty;
#X connect 111 5 7 0 empty;
#X connect 111 5 10 0 empty;
#X connect 111 6 11 0 empty;
#X connect 111 7 12 0 empty;
#X connect 111 7 14 0 empty;
#X connect 111 8 13 0 empty;
#X connect 111 8 15 0 empty;
#X connect 111 9 16 0 empty;
#X connect 111 10 17 0 empty;
#X connect 111 10 20 0 empty;
#X connect 111 11 18 0 empty;
#X connect 111 11 21 0 empty;
#X connect 111 12 19 0 empty;
#X connect 111 12 22 0 empty;
#X connect 111 13 23 0 empty;
#X connect 111 14 24 0 empty;
#X connect 111 14 26 0 empty;
#X connect 111 15 25 0 empty;
#X connect 111 15 27 0 empty;
#X connect 111 16 28 0 empty;
#X connect 111 17 29 0 empty;
#X connect 111 17 32 0 empty;
#X connect 111 18 30 0 empty;
#X connect 111 18 33 0 empty;
#X connect 111 19 31 0 empty;
#X connect 111 19 34 0 empty;
#X connect 111 20 35 0 empty;
#X connect 111 21 36 0 empty;
#X connect 111 21 38 0 empty;
#X connect 111 22 37 0 empty;
#X connect 111 22 39 0 empty;
#X connect 111 23 40 0 empty;
#X connect 111 24 41 0 empty;
#X connect 111 24 44 0 empty;
#X connect 111 25 42 0 empty;
#X connect 111 25 45 0 empty;
#X connect 111 26 43 0 empty;
#X connect 111 26 46 0 empty;
#X connect 111 27 47 0 empty;
#X connect 111 28 48 0 empty;
#X connect 111 28 50 0 empty;
#X connect 111 29 49 0 empty;
#X connect 111 29 51 0 empty;
#X connect 111 30 52 0 empty;
#X connect 111 31 53 0 empty;
#X connect 111 31 56 0 empty;
#X connect 111 32 54 0 empty;
#X connect 111 32 57 0 empty;
#X connect 111 33 55 0 empty;
#X connect 111 33 58 0 empty;
#X connect 111 34 59 0 empty;
#X connect 111 35 60 0 empty;
#X connect 111 35 62 0 empty;
#X connect 111 36 61 0 empty;
#X connect 111 36 63 0 empty;
#X connect 111 37 64 0 empty;
#X connect 111 38 65 0 empty;
#X connect 111 38 68 0 empty;
#X connect 111 39 66 0 empty;
#X connect 111 39 69 0 empty;
#X connect 111 40 67 0 empty;
#X connect 111 40 70 0 empty;
#X connect 111 41 71 0 empty;
#X connect 111 42 72 0 empty;
#X connect 111 42 74 0 empty;
#X connect 111 43 73 0 empty;
#X connect 111 43 75 0 empty;
#X connect 111 44 76 0 empty;
#X connect 111 45 77 0 empty;
#X connect 111 45 80 0 empty;
#X connect 111 46 78 0 empty;
#X connect 111 46 81 0 empty;
#X connect 111 47 79 0 empty;
#X connect 111 47 82 0 empty;
#X connect 111 48 83 0 empty;
#X connect 111 49 84 0 empty;
#X connect 111 49 86 0 empty;
#X connect 111 50 85 0 empty;
#X connect 111 50 87 0 empty;
#X connect 111 51 88 0 empty;
#X connect 111 52 89 0 empty;
#X connect 111 52 92 0 empty;
#X connect 111 53 90 0 empty;
#X connect 111 53 93 0 empty;
#X connect 111 54 91 0 empty;
#X connect 111 54 94 0 empty;
#X connect 111 55 95 0 empty;
#X connect 111 56 96 0 empty;
#X connect 111 56 98 0 empty;
#X connect 111 57 97 0 empty;
#X connect 111 57 99 0 empty;
#X connect 111 58 100 0 empty;
#X connect 111 59 101 0 empty;
#X connect 111 59 104 0 empty;
#X connect 111 60 102 0 empty;
#X connect 111 60 105 0 empty;
#X connect 111 61 103 0 empty;
#X connect 111 61 106 0 empty;
#X connect 111 62 107 0 empty;
#X connect 111 63 108 0 empty;
#X connect 111 64 109 0 empty;
#X connect 112 0 0 0 empty;
#X connect 113 0 112 0 empty;
#X connect 114 0 119 0 empty;
#X connect 115 0 116 0 empty;
#X connect 115 1 113 1 empty;
#X connect 116 0 110 0 empty;
#X connect 117 0 116 0 empty;
#X connect 117 1 0 0 empty;
#X connect 118 0 117 0 empty;
#X connect 119 0 120 0 empty;
#X connect 120 0 115 0 empty;
#X coords 0 1 100 -1 617 527 1 0 0;
#X restore -7 -17 graph;
#X obj 69 1089 butt 0;
#X obj 161 1089 butt 1;
#X obj 259 1089 butt 2;
#X obj 351 1089 butt 3;
#X obj 449 1089 butt 4;
#X obj 541 1089 butt 5;
#X obj 29 1049 butt 3;
#X obj 121 1049 butt 4;
#X obj 219 1049 butt 5;
#X obj 311 1049 butt 6;
#X obj 409 1049 butt 7;
#X obj 501 1049 butt 8;
#X obj 69 1009 butt 7;
#X obj 161 1009 butt 8;
#X obj 259 1009 butt 9;
#X obj 351 1009 butt 10;
#X obj 449 1009 butt 11;
#X obj 541 1009 butt 12;
#X obj 29 979 butt 10;
#X obj 121 979 butt 11;
#X obj 219 979 butt 12;
#X obj 311 979 butt 13;
#X obj 409 979 butt 14;
#X obj 501 979 butt 15;
#X obj 69 949 butt 14;
#X obj 161 949 butt 15;
#X obj 259 949 butt 16;
#X obj 351 949 butt 17;
#X obj 449 949 butt 18;
#X obj 541 949 butt 19;
#X obj 29 919 butt 17;
#X obj 121 919 butt 18;
#X obj 219 919 butt 19;
#X obj 311 919 butt 20;
#X obj 409 919 butt 21;
#X obj 501 919 butt 22;
#X obj 69 889 butt 21;
#X obj 161 889 butt 22;
#X obj 259 889 butt 23;
#X obj 351 889 butt 24;
#X obj 449 889 butt 25;
#X obj 541 889 butt 26;
#X obj 29 859 butt 24;
#X obj 121 859 butt 25;
#X obj 219 859 butt 26;
#X obj 311 859 butt 27;
#X obj 409 859 butt 28;
#X obj 501 859 butt 29;
#X obj 69 829 butt 28;
#X obj 161 829 butt 29;
#X obj 259 829 butt 30;
#X obj 351 829 butt 31;
#X obj 449 829 butt 32;
#X obj 541 829 butt 33;
#X obj 29 799 butt 31;
#X obj 121 799 butt 32;
#X obj 219 799 butt 33;
#X obj 311 799 butt 34;
#X obj 409 799 butt 35;
#X obj 501 799 butt 36;
#X obj 69 769 butt 35;
#X obj 161 769 butt 36;
#X obj 259 769 butt 37;
#X obj 351 769 butt 38;
#X obj 449 769 butt 39;
#X obj 541 769 butt 40;
#X obj 29 739 butt 38;
#X obj 121 739 butt 39;
#X obj 219 739 butt 40;
#X obj 311 739 butt 41;
#X obj 409 739 butt 42;
#X obj 501 739 butt 43;
#X obj 69 709 butt 42;
#X obj 161 709 butt 43;
#X obj 259 709 butt 44;
#X obj 351 709 butt 45;
#X obj 449 709 butt 46;
#X obj 541 709 butt 47;
#X obj 29 679 butt 45;
#X obj 119 679 butt 46;
#X obj 219 679 butt 47;
#X obj 311 679 butt 48;
#X obj 409 679 butt 49;
#X obj 501 679 butt 50;
#X obj 69 649 butt 49;
#X obj 161 649 butt 50;
#X obj 259 649 butt 51;
#X obj 351 649 butt 52;
#X obj 449 649 butt 53;
#X obj 541 649 butt 54;
#X obj 29 619 butt 52;
#X obj 121 619 butt 53;
#X obj 219 619 butt 54;
#X obj 311 619 butt 55;
#X obj 409 619 butt 56;
#X obj 501 619 butt 57;
#X obj 69 589 butt 56;
#X obj 161 589 butt 57;
#X obj 259 589 butt 58;
#X obj 351 589 butt 59;
#X obj 449 589 butt 60;
#X obj 541 589 butt 61;
#X obj 29 559 butt 59;
#X obj 121 559 butt 60;
#X obj 219 559 butt 61;
#X obj 311 559 butt 62;
#X obj 409 559 butt 63;
#X obj 501 559 butt 64;
#X connect 0 0 320 0 empty;
#X connect 1 0 321 0 empty;
#X connect 2 0 322 0 empty;
#X connect 3 0 323 0 empty;
#X connect 4 0 324 0 empty;
#X connect 5 0 325 0 empty;
#X connect 6 0 314 0 empty;
#X connect 7 0 315 0 empty;
#X connect 8 0 316 0 empty;
#X connect 9 0 317 0 empty;
#X connect 10 0 318 0 empty;
#X connect 11 0 319 0 empty;
#X connect 12 0 308 0 empty;
#X connect 13 0 309 0 empty;
#X connect 14 0 310 0 empty;
#X connect 15 0 311 0 empty;
#X connect 16 0 312 0 empty;
#X connect 17 0 313 0 empty;
#X connect 18 0 302 0 empty;
#X connect 19 0 303 0 empty;
#X connect 20 0 304 0 empty;
#X connect 21 0 305 0 empty;
#X connect 22 0 306 0 empty;
#X connect 23 0 307 0 empty;
#X connect 24 0 296 0 empty;
#X connect 25 0 297 0 empty;
#X connect 26 0 298 0 empty;
#X connect 27 0 299 0 empty;
#X connect 28 0 300 0 empty;
#X connect 29 0 301 0 empty;
#X connect 30 0 290 0 empty;
#X connect 31 0 291 0 empty;
#X connect 32 0 292 0 empty;
#X connect 33 0 293 0 empty;
#X connect 34 0 294 0 empty;
#X connect 35 0 295 0 empty;
#X connect 36 0 284 0 empty;
#X connect 37 0 285 0 empty;
#X connect 38 0 286 0 empty;
#X connect 39 0 287 0 empty;
#X connect 40 0 288 0 empty;
#X connect 41 0 289 0 empty;
#X connect 42 0 278 0 empty;
#X connect 43 0 279 0 empty;
#X connect 44 0 280 0 empty;
#X connect 45 0 281 0 empty;
#X connect 46 0 282 0 empty;
#X connect 47 0 283 0 empty;
#X connect 48 0 272 0 empty;
#X connect 49 0 273 0 empty;
#X connect 50 0 274 0 empty;
#X connect 51 0 275 0 empty;
#X connect 52 0 276 0 empty;
#X connect 53 0 277 0 empty;
#X connect 54 0 266 0 empty;
#X connect 55 0 267 0 empty;
#X connect 56 0 268 0 empty;
#X connect 57 0 269 0 empty;
#X connect 58 0 270 0 empty;
#X connect 59 0 271 0 empty;
#X connect 60 0 260 0 empty;
#X connect 61 0 261 0 empty;
#X connect 62 0 262 0 empty;
#X connect 63 0 263 0 empty;
#X connect 64 0 264 0 empty;
#X connect 65 0 265 0 empty;
#X connect 66 0 254 0 empty;
#X connect 67 0 255 0 empty;
#X connect 68 0 256 0 empty;
#X connect 69 0 257 0 empty;
#X connect 70 0 258 0 empty;
#X connect 71 0 259 0 empty;
#X connect 72 0 248 0 empty;
#X connect 73 0 249 0 empty;
#X connect 74 0 250 0 empty;
#X connect 75 0 251 0 empty;
#X connect 76 0 252 0 empty;
#X connect 77 0 253 0 empty;
#X connect 78 0 242 0 empty;
#X connect 79 0 243 0 empty;
#X connect 80 0 244 0 empty;
#X connect 81 0 245 0 empty;
#X connect 82 0 246 0 empty;
#X connect 83 0 247 0 empty;
#X connect 84 0 236 0 empty;
#X connect 85 0 237 0 empty;
#X connect 86 0 238 0 empty;
#X connect 87 0 239 0 empty;
#X connect 88 0 240 0 empty;
#X connect 89 0 241 0 empty;
#X connect 90 0 230 0 empty;
#X connect 91 0 231 0 empty;
#X connect 92 0 232 0 empty;
#X connect 93 0 233 0 empty;
#X connect 94 0 234 0 empty;
#X connect 95 0 235 0 empty;
#X connect 96 0 224 0 empty;
#X connect 97 0 225 0 empty;
#X connect 98 0 226 0 empty;
#X connect 99 0 227 0 empty;
#X connect 100 0 228 0 empty;
#X connect 101 0 229 0 empty;
#X connect 102 0 218 0 empty;
#X connect 103 0 219 0 empty;
#X connect 104 0 220 0 empty;
#X connect 105 0 221 0 empty;
#X connect 106 0 222 0 empty;
#X connect 107 0 223 0 empty;
#X connect 218 1 211 0 empty;
#X connect 219 1 213 0 empty;
#X connect 220 1 212 0 empty;
#X connect 221 1 214 0 empty;
#X connect 222 1 216 0 empty;
#X connect 223 1 215 0 empty;
#X connect 224 1 205 0 empty;
#X connect 225 1 206 0 empty;
#X connect 226 1 207 0 empty;
#X connect 227 1 208 0 empty;
#X connect 228 1 209 0 empty;
#X connect 229 1 210 0 empty;
#X connect 230 1 194 0 empty;
#X connect 231 1 198 0 empty;
#X connect 232 1 197 0 empty;
#X connect 233 1 200 0 empty;
#X connect 234 1 204 0 empty;
#X connect 235 1 203 0 empty;
#X connect 236 1 193 0 empty;
#X connect 237 1 195 0 empty;
#X connect 238 1 196 0 empty;
#X connect 239 1 199 0 empty;
#X connect 240 1 201 0 empty;
#X connect 241 1 202 0 empty;
#X connect 242 1 182 0 empty;
#X connect 243 1 186 0 empty;
#X connect 244 1 185 0 empty;
#X connect 245 1 188 0 empty;
#X connect 246 1 192 0 empty;
#X connect 247 1 191 0 empty;
#X connect 248 1 181 0 empty;
#X connect 249 1 183 0 empty;
#X connect 250 1 184 0 empty;
#X connect 251 1 187 0 empty;
#X connect 252 1 189 0 empty;
#X connect 253 1 190 0 empty;
#X connect 254 1 170 0 empty;
#X connect 255 1 174 0 empty;
#X connect 256 1 173 0 empty;
#X connect 257 1 176 0 empty;
#X connect 258 1 180 0 empty;
#X connect 259 1 179 0 empty;
#X connect 260 1 169 0 empty;
#X connect 261 1 171 0 empty;
#X connect 262 1 172 0 empty;
#X connect 263 1 175 0 empty;
#X connect 264 1 177 0 empty;
#X connect 265 1 178 0 empty;
#X connect 266 1 158 0 empty;
#X connect 267 1 162 0 empty;
#X connect 268 1 161 0 empty;
#X connect 269 1 164 0 empty;
#X connect 270 1 168 0 empty;
#X connect 271 1 167 0 empty;
#X connect 272 1 157 0 empty;
#X connect 273 1 159 0 empty;
#X connect 274 1 160 0 empty;
#X connect 275 1 163 0 empty;
#X connect 276 1 165 0 empty;
#X connect 277 1 166 0 empty;
#X connect 278 1 146 0 empty;
#X connect 279 1 150 0 empty;
#X connect 280 1 149 0 empty;
#X connect 281 1 152 0 empty;
#X connect 282 1 156 0 empty;
#X connect 283 1 155 0 empty;
#X connect 284 1 145 0 empty;
#X connect 285 1 147 0 empty;
#X connect 286 1 148 0 empty;
#X connect 287 1 151 0 empty;
#X connect 288 1 153 0 empty;
#X connect 289 1 154 0 empty;
#X connect 290 1 134 0 empty;
#X connect 291 1 138 0 empty;
#X connect 292 1 137 0 empty;
#X connect 293 1 140 0 empty;
#X connect 294 1 144 0 empty;
#X connect 295 1 143 0 empty;
#X connect 296 1 133 0 empty;
#X connect 297 1 135 0 empty;
#X connect 298 1 136 0 empty;
#X connect 299 1 139 0 empty;
#X connect 300 1 141 0 empty;
#X connect 301 1 142 0 empty;
#X connect 302 1 122 0 empty;
#X connect 303 1 126 0 empty;
#X connect 304 1 125 0 empty;
#X connect 305 1 128 0 empty;
#X connect 306 1 132 0 empty;
#X connect 307 1 131 0 empty;
#X connect 308 1 121 0 empty;
#X connect 309 1 123 0 empty;
#X connect 310 1 124 0 empty;
#X connect 311 1 127 0 empty;
#X connect 312 1 129 0 empty;
#X connect 313 1 130 0 empty;
#X connect 314 1 110 0 empty;
#X connect 315 1 114 0 empty;
#X connect 316 1 113 0 empty;
#X connect 317 1 116 0 empty;
#X connect 318 1 120 0 empty;
#X connect 319 1 119 0 empty;
#X connect 320 1 109 0 empty;
#X connect 321 1 111 0 empty;
#X connect 322 1 112 0 empty;
#X connect 323 1 115 0 empty;
#X connect 324 1 117 0 empty;
#X connect 325 1 118 0 empty;
#X coords 0 1 100 -1 611 511 1 0 0;
#X restore -1 -1 graph;
#X obj 619 149 s transpose;
#X obj 619 119 nbx 4 18 -1e+37 1e+37 0 0 empty empty empty 0 -8 0 10 #191919 #ffffff #ffffff 0 256;
#X msg 679 229 sharp;
#X msg 639 229 flat;
#X msg 619 199 chromatic;
#X obj 619 269 s accidentals;
#X obj 619 359 s color;
#X msg 689 319 #ff003f;
#X msg 619 319 #ffacab;
#X obj 1999 1159 outlet;
#X obj 619 478 dac~;
#X obj 619 439 catch~ owout;
#X connect 2 0 1 0 empty;
#X connect 3 0 6 0 empty;
#X connect 4 0 6 0 empty;
#X connect 5 0 6 0 empty;
#X connect 8 0 7 0 empty;
#X connect 9 0 7 0 empty;
#X connect 12 0 11 0 empty;
#X connect 12 0 11 1 empty;
