#N canvas 827 239 610 510 12;
#N canvas 0 50 450 250 (subpatch) 1;
#X msg 709 -81 color #191919 #ffffff #191919;
#X obj -31 -21 cnv 15 641 531 empty empty empty 20 12 0 14 #d1d1d1 #ffffff 0;
#X obj 619 -7 bng 25 250 50 0 empty empty ⬣ -611 37 0 87 #191919 #ffffff #191919;
#X obj 666 19 bng 25 250 50 0 empty empty ⬣ -611 37 0 87 #191919 #ffffff #191919;
#X obj 713 -7 bng 25 250 50 0 empty empty ⬣ -611 37 0 87 #191919 #ffffff #191919;
#X obj 807 -7 bng 25 250 50 0 empty empty ⬣ -611 37 0 87 #191919 #ffffff #191919;
#X obj 854 19 bng 25 250 50 0 empty empty ⬣ -611 37 0 87 #191919 #ffffff #191919;
#X obj 760 19 bng 25 250 50 0 empty empty ⬣ -611 37 0 87 #191919 #ffffff #191919;
#X obj 901 -7 bng 25 250 50 0 empty empty ⬣ -611 37 0 87 #191919 #ffffff #191919;
#X obj 948 19 bng 25 250 50 0 empty empty ⬣ -611 37 0 87 #191919 #ffffff #191919;
#X obj 995 -7 bng 25 250 50 0 empty empty ⬣ -611 37 0 87 #191919 #ffffff #191919;
#X obj 1089 -7 bng 25 250 50 0 empty empty ⬣ -611 37 0 87 #191919 #ffffff #191919;
#X obj 1136 19 bng 25 250 50 0 empty empty ⬣ -611 37 0 87 #191919 #ffffff #191919;
#X obj 1042 19 bng 25 250 50 0 empty empty ⬣ -611 37 0 87 #191919 #ffffff #191919;
#X obj 619 46 bng 25 250 50 0 empty empty ⬣ -611 37 0 87 #191919 #ffffff #191919;
#X obj 666 72 bng 25 250 50 0 empty empty ⬣ -611 37 0 87 #191919 #ffffff #191919;
#X obj 713 46 bng 25 250 50 0 empty empty ⬣ -611 37 0 87 #191919 #ffffff #191919;
#X obj 807 46 bng 25 250 50 0 empty empty ⬣ -611 37 0 87 #191919 #ffffff #191919;
#X obj 854 72 bng 25 250 50 0 empty empty ⬣ -611 37 0 87 #191919 #ffffff #191919;
#X obj 760 72 bng 25 250 50 0 empty empty ⬣ -611 37 0 87 #191919 #ffffff #191919;
#X obj 901 46 bng 25 250 50 0 empty empty ⬣ -611 37 0 87 #191919 #ffffff #191919;
#X obj 948 72 bng 25 250 50 0 empty empty ⬣ -611 37 0 87 #191919 #ffffff #191919;
#X obj 995 46 bng 25 250 50 0 empty empty ⬣ -611 37 0 87 #191919 #ffffff #191919;
#X obj 1089 46 bng 25 250 50 0 empty empty ⬣ -611 37 0 87 #191919 #ffffff #191919;
#X obj 1136 72 bng 25 250 50 0 empty empty ⬣ -611 37 0 87 #191919 #ffffff #191919;
#X obj 1042 72 bng 25 250 50 0 empty empty ⬣ -611 37 0 87 #191919 #ffffff #191919;
#X obj 619 99 bng 25 250 50 0 empty empty ⬣ -611 37 0 87 #191919 #ffffff #191919;
#X obj 666 125 bng 25 250 50 0 empty empty ⬣ -611 37 0 87 #191919 #ffffff #191919;
#X obj 713 99 bng 25 250 50 0 empty empty ⬣ -611 37 0 87 #191919 #ffffff #191919;
#X obj 807 99 bng 25 250 50 0 empty empty ⬣ -611 37 0 87 #191919 #ffffff #191919;
#X obj 854 125 bng 25 250 50 0 empty empty ⬣ -611 37 0 87 #191919 #ffffff #191919;
#X obj 760 125 bng 25 250 50 0 empty empty ⬣ -611 37 0 87 #191919 #ffffff #191919;
#X obj 901 99 bng 25 250 50 0 empty empty ⬣ -611 37 0 87 #191919 #ffffff #191919;
#X obj 948 125 bng 25 250 50 0 empty empty ⬣ -611 37 0 87 #191919 #ffffff #191919;
#X obj 995 99 bng 25 250 50 0 empty empty ⬣ -611 37 0 87 #191919 #ffffff #191919;
#X obj 1089 99 bng 25 250 50 0 empty empty ⬣ -611 37 0 87 #191919 #ffffff #191919;
#X obj 1136 125 bng 25 250 50 0 empty empty ⬣ -611 37 0 87 #191919 #ffffff #191919;
#X obj 1042 125 bng 25 250 50 0 empty empty ⬣ -611 37 0 87 #191919 #ffffff #191919;
#X obj 619 152 bng 25 250 50 0 empty empty ⬣ -611 37 0 87 #191919 #ffffff #191919;
#X obj 666 178 bng 25 250 50 0 empty empty ⬣ -611 37 0 87 #191919 #ffffff #191919;
#X obj 713 152 bng 25 250 50 0 empty empty ⬣ -611 37 0 87 #191919 #ffffff #191919;
#X obj 807 152 bng 25 250 50 0 empty empty ⬣ -611 37 0 87 #191919 #ffffff #191919;
#X obj 854 178 bng 25 250 50 0 empty empty ⬣ -611 37 0 87 #191919 #ffffff #191919;
#X obj 760 178 bng 25 250 50 0 empty empty ⬣ -611 37 0 87 #191919 #ffffff #191919;
#X obj 901 152 bng 25 250 50 0 empty empty ⬣ -611 37 0 87 #191919 #ffffff #191919;
#X obj 948 178 bng 25 250 50 0 empty empty ⬣ -611 37 0 87 #191919 #ffffff #191919;
#X obj 995 152 bng 25 250 50 0 empty empty ⬣ -611 37 0 87 #191919 #ffffff #191919;
#X obj 1089 152 bng 25 250 50 0 empty empty ⬣ -611 37 0 87 #191919 #ffffff #191919;
#X obj 1136 178 bng 25 250 50 0 empty empty ⬣ -611 37 0 87 #191919 #ffffff #191919;
#X obj 1042 178 bng 25 250 50 0 empty empty ⬣ -611 37 0 87 #191919 #ffffff #191919;
#X obj 619 205 bng 25 250 50 0 empty empty ⬣ -611 37 0 87 #191919 #ffffff #191919;
#X obj 666 231 bng 25 250 50 0 empty empty ⬣ -611 37 0 87 #191919 #ffffff #191919;
#X obj 713 205 bng 25 250 50 0 empty empty ⬣ -611 37 0 87 #191919 #ffffff #191919;
#X obj 807 205 bng 25 250 50 0 empty empty ⬣ -611 37 0 87 #191919 #ffffff #191919;
#X obj 854 231 bng 25 250 50 0 empty empty ⬣ -611 37 0 87 #191919 #ffffff #191919;
#X obj 760 231 bng 25 250 50 0 empty empty ⬣ -611 37 0 87 #191919 #ffffff #191919;
#X obj 901 205 bng 25 250 50 0 empty empty ⬣ -611 37 0 87 #191919 #ffffff #191919;
#X obj 948 231 bng 25 250 50 0 empty empty ⬣ -611 37 0 87 #191919 #ffffff #191919;
#X obj 995 205 bng 25 250 50 0 empty empty ⬣ -611 37 0 87 #191919 #ffffff #191919;
#X obj 1089 205 bng 25 250 50 0 empty empty ⬣ -611 37 0 87 #191919 #ffffff #191919;
#X obj 1136 231 bng 25 250 50 0 empty empty ⬣ -611 37 0 87 #191919 #ffffff #191919;
#X obj 1042 231 bng 25 250 50 0 empty empty ⬣ -611 37 0 87 #191919 #ffffff #191919;
#X obj 619 258 bng 25 250 50 0 empty empty ⬣ -611 37 0 87 #191919 #ffffff #191919;
#X obj 666 284 bng 25 250 50 0 empty empty ⬣ -611 37 0 87 #191919 #ffffff #191919;
#X obj 713 258 bng 25 250 50 0 empty empty ⬣ -611 37 0 87 #191919 #ffffff #191919;
#X obj 807 258 bng 25 250 50 0 empty empty ⬣ -611 37 0 87 #191919 #ffffff #191919;
#X obj 854 284 bng 25 250 50 0 empty empty ⬣ -611 37 0 87 #191919 #ffffff #191919;
#X obj 760 284 bng 25 250 50 0 empty empty ⬣ -611 37 0 87 #191919 #ffffff #191919;
#X obj 901 258 bng 25 250 50 0 empty empty ⬣ -611 37 0 87 #191919 #ffffff #191919;
#X obj 948 284 bng 25 250 50 0 empty empty ⬣ -611 37 0 87 #191919 #ffffff #191919;
#X obj 995 258 bng 25 250 50 0 empty empty ⬣ -611 37 0 87 #191919 #ffffff #191919;
#X obj 1089 258 bng 25 250 50 0 empty empty ⬣ -611 37 0 87 #191919 #ffffff #191919;
#X obj 1136 284 bng 25 250 50 0 empty empty ⬣ -611 37 0 87 #191919 #ffffff #191919;
#X obj 1042 284 bng 25 250 50 0 empty empty ⬣ -611 37 0 87 #191919 #ffffff #191919;
#X obj 619 311 bng 25 250 50 0 empty empty ⬣ -611 37 0 87 #191919 #ffffff #191919;
#X obj 666 337 bng 25 250 50 0 empty empty ⬣ -611 37 0 87 #191919 #ffffff #191919;
#X obj 713 311 bng 25 250 50 0 empty empty ⬣ -611 37 0 87 #191919 #ffffff #191919;
#X obj 807 311 bng 25 250 50 0 empty empty ⬣ -611 37 0 87 #191919 #ffffff #191919;
#X obj 854 337 bng 25 250 50 0 empty empty ⬣ -611 37 0 87 #191919 #ffffff #191919;
#X obj 760 337 bng 25 250 50 0 empty empty ⬣ -611 37 0 87 #191919 #ffffff #191919;
#X obj 901 311 bng 25 250 50 0 empty empty ⬣ -611 37 0 87 #191919 #ffffff #191919;
#X obj 948 337 bng 25 250 50 0 empty empty ⬣ -611 37 0 87 #191919 #ffffff #191919;
#X obj 995 311 bng 25 250 50 0 empty empty ⬣ -611 37 0 87 #191919 #ffffff #191919;
#X obj 1089 311 bng 25 250 50 0 empty empty ⬣ -611 37 0 87 #191919 #ffffff #191919;
#X obj 1136 337 bng 25 250 50 0 empty empty ⬣ -611 37 0 87 #191919 #ffffff #191919;
#X obj 1042 337 bng 25 250 50 0 empty empty ⬣ -611 37 0 87 #191919 #ffffff #191919;
#X obj 619 364 bng 25 250 50 0 empty empty ⬣ -611 37 0 87 #191919 #ffffff #191919;
#X obj 666 390 bng 25 250 50 0 empty empty ⬣ -611 37 0 87 #191919 #ffffff #191919;
#X obj 713 364 bng 25 250 50 0 empty empty ⬣ -611 37 0 87 #191919 #ffffff #191919;
#X obj 807 364 bng 25 250 50 0 empty empty ⬣ -611 37 0 87 #191919 #ffffff #191919;
#X obj 854 390 bng 25 250 50 0 empty empty ⬣ -611 37 0 87 #191919 #ffffff #191919;
#X obj 760 390 bng 25 250 50 0 empty empty ⬣ -611 37 0 87 #191919 #ffffff #191919;
#X obj 901 364 bng 25 250 50 0 empty empty ⬣ -611 37 0 87 #191919 #ffffff #191919;
#X obj 948 390 bng 25 250 50 0 empty empty ⬣ -611 37 0 87 #191919 #ffffff #191919;
#X obj 995 364 bng 25 250 50 0 empty empty ⬣ -611 37 0 87 #191919 #ffffff #191919;
#X obj 1089 364 bng 25 250 50 0 empty empty ⬣ -611 37 0 87 #191919 #ffffff #191919;
#X obj 1136 390 bng 25 250 50 0 empty empty ⬣ -611 37 0 87 #191919 #ffffff #191919;
#X obj 1042 390 bng 25 250 50 0 empty empty ⬣ -611 37 0 87 #191919 #ffffff #191919;
#X obj 619 417 bng 25 250 50 0 empty empty ⬣ -611 37 0 87 #191919 #ffffff #191919;
#X obj 713 417 bng 25 250 50 0 empty empty ⬣ -611 37 0 87 #191919 #ffffff #191919;
#X obj 807 417 bng 25 250 50 0 empty empty ⬣ -611 37 0 87 #191919 #ffffff #191919;
#X obj 901 417 bng 25 250 50 0 empty empty ⬣ -611 37 0 87 #191919 #ffffff #191919;
#X obj 995 417 bng 25 250 50 0 empty empty ⬣ -611 37 0 87 #191919 #ffffff #191919;
#X obj 1089 417 bng 25 250 50 0 empty empty ⬣ -611 37 0 87 #191919 #ffffff #191919;
#X obj 666 443 bng 25 250 50 0 empty empty ⬣ -611 37 0 87 #191919 #ffffff #191919;
#X obj 854 443 bng 25 250 50 0 empty empty ⬣ -611 37 0 87 #191919 #ffffff #191919;
#X obj 760 443 bng 25 250 50 0 empty empty ⬣ -611 37 0 87 #191919 #ffffff #191919;
#X obj 948 443 bng 25 250 50 0 empty empty ⬣ -611 37 0 87 #191919 #ffffff #191919;
#X obj 1136 443 bng 25 250 50 0 empty empty ⬣ -611 37 0 87 #191919 #ffffff #191919;
#X obj 1042 443 bng 25 250 50 0 empty empty ⬣ -611 37 0 87 #191919 #ffffff #191919;
#N canvas 0 50 450 250 (subpatch) 1;
#X obj -191 -131 pitch2note;
#X msg -191 -101 set \$1;
#X msg -251 -171 sharp;
#X msg -291 -171 flat;
#X obj -191 -351 bng 25 250 50 0 empty empty empty 17 7 0 10 #191919 #ffffff #ffffff;
#X obj 80 472 note 0 14 Inter empty 0 255 255 255 0 25 25 25 0 0 C1;
#X obj 175 472 note 0 14 Inter empty 0 255 255 255 0 25 25 25 0 0 C#1;
#X obj 269 472 note 0 14 Inter empty 0 255 255 255 0 25 25 25 0 0 D1;
#X obj 364 472 note 0 14 Inter empty 0 255 255 255 0 25 25 25 0 0 D#1;
#X obj 454 472 note 0 14 Inter empty 0 255 255 255 0 25 25 25 0 0 E1;
#X obj 549 472 note 0 14 Inter empty 0 255 255 255 0 25 25 25 0 0 F1;
#X obj 30 446 note 0 14 Inter empty 0 255 255 255 0 25 25 25 0 0 D#1;
#X obj 128 447 note 0 14 Inter empty 0 255 255 255 0 25 25 25 0 0 E1;
#X obj 222 447 note 0 14 Inter empty 0 255 255 255 0 25 25 25 0 0 F1;
#X obj 313 446 note 0 14 Inter empty 0 255 255 255 0 25 25 25 0 0 F#1;
#X obj 407 447 note 0 14 Inter empty 0 255 255 255 0 25 25 25 0 0 G1;
#X obj 502 447 note 0 14 Inter empty 0 255 255 255 0 25 25 25 0 0 G#1;
#X obj 80 418 note 0 14 Inter empty 0 255 255 255 0 25 25 25 0 0 G1;
#X obj 175 418 note 0 14 Inter empty 0 255 255 255 0 25 25 25 0 0 G#1;
#X obj 269 418 note 0 14 Inter empty 0 255 255 255 0 25 25 25 0 0 A1;
#X obj 364 418 note 0 14 Inter empty 0 255 255 255 0 25 25 25 0 0 A#1;
#X obj 454 418 note 0 14 Inter empty 0 255 255 255 0 25 25 25 0 0 B1;
#X obj 549 418 note 0 14 Inter empty 0 255 255 255 0 25 25 25 0 0 C2;
#X obj 33 393 note 0 14 Inter empty 0 255 255 255 0 25 25 25 0 0 A#1;
#X obj 128 393 note 0 14 Inter empty 0 255 255 255 0 25 25 25 0 0 B1;
#X obj 222 393 note 0 14 Inter empty 0 255 255 255 0 25 25 25 0 0 C2;
#X obj 317 393 note 0 14 Inter empty 0 255 255 255 0 25 25 25 0 0 C#2;
#X obj 407 393 note 0 14 Inter empty 0 255 255 255 0 25 25 25 0 0 D2;
#X obj 502 393 note 0 14 Inter empty 0 255 255 255 0 25 25 25 0 0 D#2;
#X obj 80 366 note 0 14 Inter empty 0 255 255 255 0 25 25 25 0 0 D2;
#X obj 175 366 note 0 14 Inter empty 0 255 255 255 0 25 25 25 0 0 D#2;
#X obj 269 366 note 0 14 Inter empty 0 255 255 255 0 25 25 25 0 0 E2;
#X obj 364 366 note 0 14 Inter empty 0 255 255 255 0 25 25 25 0 0 F2;
#X obj 454 366 note 0 14 Inter empty 0 255 255 255 0 25 25 25 0 0 F#2;
#X obj 549 366 note 0 14 Inter empty 0 255 255 255 0 25 25 25 0 0 G2;
#X obj 33 341 note 0 14 Inter empty 0 255 255 255 0 25 25 25 0 0 F2;
#X obj 128 341 note 0 14 Inter empty 0 255 255 255 0 25 25 25 0 0 F#2;
#X obj 222 341 note 0 14 Inter empty 0 255 255 255 0 25 25 25 0 0 G2;
#X obj 317 341 note 0 14 Inter empty 0 255 255 255 0 25 25 25 0 0 G#2;
#X obj 407 341 note 0 14 Inter empty 0 255 255 255 0 25 25 25 0 0 A2;
#X obj 502 341 note 0 14 Inter empty 0 255 255 255 0 25 25 25 0 0 A#2;
#X obj 80 312 note 0 14 Inter empty 0 255 255 255 0 25 25 25 0 0 A2;
#X obj 175 312 note 0 14 Inter empty 0 255 255 255 0 25 25 25 0 0 A#2;
#X obj 269 312 note 0 14 Inter empty 0 255 255 255 0 25 25 25 0 0 B2;
#X obj 364 312 note 0 14 Inter empty 0 255 255 255 0 25 25 25 0 0 C3;
#X obj 454 312 note 0 14 Inter empty 0 255 255 255 0 25 25 25 0 0 C#3;
#X obj 549 312 note 0 14 Inter empty 0 255 255 255 0 25 25 25 0 0 D3;
#X obj 33 287 note 0 14 Inter empty 0 255 255 255 0 25 25 25 0 0 C3;
#X obj 128 287 note 0 14 Inter empty 0 255 255 255 0 25 25 25 0 0 C#3;
#X obj 222 287 note 0 14 Inter empty 0 255 255 255 0 25 25 25 0 0 D3;
#X obj 317 287 note 0 14 Inter empty 0 255 255 255 0 25 25 25 0 0 D#3;
#X obj 407 287 note 0 14 Inter empty 0 255 255 255 0 25 25 25 0 0 E3;
#X obj 502 287 note 0 14 Inter empty 0 255 255 255 0 25 25 25 0 0 F3;
#X obj 80 259 note 0 14 Inter empty 0 255 255 255 0 25 25 25 0 0 E3;
#X obj 175 259 note 0 14 Inter empty 0 255 255 255 0 25 25 25 0 0 F3;
#X obj 269 259 note 0 14 Inter empty 0 255 255 255 0 25 25 25 0 0 F#3;
#X obj 364 259 note 0 14 Inter empty 0 255 255 255 0 25 25 25 0 0 G3;
#X obj 454 259 note 0 14 Inter empty 0 255 255 255 0 25 25 25 0 0 G#3;
#X obj 549 259 note 0 14 Inter empty 0 255 255 255 0 25 25 25 0 0 A3;
#X obj 33 234 note 0 14 Inter empty 0 255 255 255 0 25 25 25 0 0 G3;
#X obj 128 234 note 0 14 Inter empty 0 255 255 255 0 25 25 25 0 0 G#3;
#X obj 222 234 note 0 14 Inter empty 0 255 255 255 0 25 25 25 0 0 A3;
#X obj 317 234 note 0 14 Inter empty 0 255 255 255 0 25 25 25 0 0 A#3;
#X obj 407 234 note 0 14 Inter empty 0 255 255 255 0 25 25 25 0 0 B3;
#X obj 502 234 note 0 14 Inter empty 0 255 255 255 0 25 25 25 0 0 C4;
#X obj 80 205 note 0 14 Inter empty 0 255 255 255 0 25 25 25 0 0 B3;
#X obj 175 205 note 0 14 Inter empty 0 255 255 255 0 25 25 25 0 0 C4;
#X obj 269 205 note 0 14 Inter empty 0 255 255 255 0 25 25 25 0 0 C#4;
#X obj 364 205 note 0 14 Inter empty 0 255 255 255 0 25 25 25 0 0 D4;
#X obj 454 205 note 0 14 Inter empty 0 255 255 255 0 25 25 25 0 0 D#4;
#X obj 549 205 note 0 14 Inter empty 0 255 255 255 0 25 25 25 0 0 E4;
#X obj 33 180 note 0 14 Inter empty 0 255 255 255 0 25 25 25 0 0 D4;
#X obj 128 180 note 0 14 Inter empty 0 255 255 255 0 25 25 25 0 0 D#4;
#X obj 222 180 note 0 14 Inter empty 0 255 255 255 0 25 25 25 0 0 E4;
#X obj 317 180 note 0 14 Inter empty 0 255 255 255 0 25 25 25 0 0 F4;
#X obj 407 180 note 0 14 Inter empty 0 255 255 255 0 25 25 25 0 0 F#4;
#X obj 502 180 note 0 14 Inter empty 0 255 255 255 0 25 25 25 0 0 G4;
#X obj 80 153 note 0 14 Inter empty 0 255 255 255 0 25 25 25 0 0 F#4;
#X obj 175 153 note 0 14 Inter empty 0 255 255 255 0 25 25 25 0 0 G4;
#X obj 269 153 note 0 14 Inter empty 0 255 255 255 0 25 25 25 0 0 G#4;
#X obj 364 153 note 0 14 Inter empty 0 255 255 255 0 25 25 25 0 0 A4;
#X obj 454 153 note 0 14 Inter empty 0 255 255 255 0 25 25 25 0 0 A#4;
#X obj 549 153 note 0 14 Inter empty 0 255 255 255 0 25 25 25 0 0 B4;
#X obj 33 128 note 0 14 Inter empty 0 255 255 255 0 25 25 25 0 0 A4;
#X obj 128 128 note 0 14 Inter empty 0 255 255 255 0 25 25 25 0 0 A#4;
#X obj 222 128 note 0 14 Inter empty 0 255 255 255 0 25 25 25 0 0 B4;
#X obj 317 128 note 0 14 Inter empty 0 255 255 255 0 25 25 25 0 0 C5;
#X obj 407 128 note 0 14 Inter empty 0 255 255 255 0 25 25 25 0 0 C#5;
#X obj 502 128 note 0 14 Inter empty 0 255 255 255 0 25 25 25 0 0 D5;
#X obj 80 99 note 0 14 Inter empty 0 255 255 255 0 25 25 25 0 0 C#5;
#X obj 175 99 note 0 14 Inter empty 0 255 255 255 0 25 25 25 0 0 D5;
#X obj 269 99 note 0 14 Inter empty 0 255 255 255 0 25 25 25 0 0 D#5;
#X obj 364 99 note 0 14 Inter empty 0 255 255 255 0 25 25 25 0 0 E5;
#X obj 454 99 note 0 14 Inter empty 0 255 255 255 0 25 25 25 0 0 F5;
#X obj 549 99 note 0 14 Inter empty 0 255 255 255 0 25 25 25 0 0 F#5;
#X obj 33 74 note 0 14 Inter empty 0 255 255 255 0 25 25 25 0 0 E5;
#X obj 128 74 note 0 14 Inter empty 0 255 255 255 0 25 25 25 0 0 F5;
#X obj 222 74 note 0 14 Inter empty 0 255 255 255 0 25 25 25 0 0 F#5;
#X obj 317 74 note 0 14 Inter empty 0 255 255 255 0 25 25 25 0 0 G5;
#X obj 407 74 note 0 14 Inter empty 0 255 255 255 0 25 25 25 0 0 G#5;
#X obj 502 74 note 0 14 Inter empty 0 255 255 255 0 25 25 25 0 0 A5;
#X obj 80 45 note 0 14 Inter empty 0 255 255 255 0 25 25 25 0 0 G#5;
#X obj 175 45 note 0 14 Inter empty 0 255 255 255 0 25 25 25 0 0 A5;
#X obj 269 45 note 0 14 Inter empty 0 255 255 255 0 25 25 25 0 0 A#5;
#X obj 364 45 note 0 14 Inter empty 0 255 255 255 0 25 25 25 0 0 B5;
#X obj 454 45 note 0 14 Inter empty 0 255 255 255 0 25 25 25 0 0 C6;
#X obj 549 45 note 0 14 Inter empty 0 255 255 255 0 25 25 25 0 0 C#6;
#X obj 33 20 note 0 14 Inter empty 0 255 255 255 0 25 25 25 0 0 B5;
#X obj 128 20 note 0 14 Inter empty 0 255 255 255 0 25 25 25 0 0 C6;
#X obj 222 20 note 0 14 Inter empty 0 255 255 255 0 25 25 25 0 0 C#6;
#X obj 317 20 note 0 14 Inter empty 0 255 255 255 0 25 25 25 0 0 D6;
#X obj 407 20 note 0 14 Inter empty 0 255 255 255 0 25 25 25 0 0 D#6;
#X obj 502 20 note 0 14 Inter empty 0 255 255 255 0 25 25 25 0 0 E6;
#X obj -191 -311 loop 0 108;
#X obj -191 -271 t f f;
#X obj -191 -71 router 65, f 167;
#X obj -191 -161 + 24;
#X obj -191 -191 +;
#X obj -171 -221 nbx 4 18 -1e+37 1e+37 0 0 empty empty empty 0 -8 0 10 #191919 #ffffff #ffffff 0 256;
#X connect 0 0 1 0 empty;
#X connect 1 0 115 0 empty;
#X connect 2 0 0 0 empty;
#X connect 3 0 0 0 empty;
#X connect 4 0 113 0 empty;
#X connect 113 0 114 0 empty;
#X connect 114 0 117 0 empty;
#X connect 114 1 115 1 empty;
#X connect 115 0 5 0 empty;
#X connect 115 1 6 0 empty;
#X connect 115 2 7 0 empty;
#X connect 115 3 8 0 empty;
#X connect 115 3 11 0 empty;
#X connect 115 4 9 0 empty;
#X connect 115 4 12 0 empty;
#X connect 115 5 10 0 empty;
#X connect 115 5 13 0 empty;
#X connect 115 6 14 0 empty;
#X connect 115 7 15 0 empty;
#X connect 115 7 17 0 empty;
#X connect 115 8 16 0 empty;
#X connect 115 8 18 0 empty;
#X connect 115 9 19 0 empty;
#X connect 115 10 20 0 empty;
#X connect 115 10 23 0 empty;
#X connect 115 11 21 0 empty;
#X connect 115 11 24 0 empty;
#X connect 115 12 22 0 empty;
#X connect 115 12 25 0 empty;
#X connect 115 13 26 0 empty;
#X connect 115 14 27 0 empty;
#X connect 115 14 29 0 empty;
#X connect 115 15 28 0 empty;
#X connect 115 15 30 0 empty;
#X connect 115 16 31 0 empty;
#X connect 115 17 32 0 empty;
#X connect 115 17 35 0 empty;
#X connect 115 18 33 0 empty;
#X connect 115 18 36 0 empty;
#X connect 115 19 34 0 empty;
#X connect 115 19 37 0 empty;
#X connect 115 20 38 0 empty;
#X connect 115 21 39 0 empty;
#X connect 115 21 41 0 empty;
#X connect 115 22 40 0 empty;
#X connect 115 22 42 0 empty;
#X connect 115 23 43 0 empty;
#X connect 115 24 44 0 empty;
#X connect 115 24 47 0 empty;
#X connect 115 25 45 0 empty;
#X connect 115 25 48 0 empty;
#X connect 115 26 46 0 empty;
#X connect 115 26 49 0 empty;
#X connect 115 27 50 0 empty;
#X connect 115 28 51 0 empty;
#X connect 115 28 53 0 empty;
#X connect 115 29 52 0 empty;
#X connect 115 29 54 0 empty;
#X connect 115 30 55 0 empty;
#X connect 115 31 56 0 empty;
#X connect 115 31 59 0 empty;
#X connect 115 32 57 0 empty;
#X connect 115 32 60 0 empty;
#X connect 115 33 58 0 empty;
#X connect 115 33 61 0 empty;
#X connect 115 34 62 0 empty;
#X connect 115 35 63 0 empty;
#X connect 115 35 65 0 empty;
#X connect 115 36 64 0 empty;
#X connect 115 36 66 0 empty;
#X connect 115 37 67 0 empty;
#X connect 115 38 68 0 empty;
#X connect 115 38 71 0 empty;
#X connect 115 39 69 0 empty;
#X connect 115 39 72 0 empty;
#X connect 115 40 70 0 empty;
#X connect 115 40 73 0 empty;
#X connect 115 41 74 0 empty;
#X connect 115 42 75 0 empty;
#X connect 115 42 77 0 empty;
#X connect 115 43 76 0 empty;
#X connect 115 43 78 0 empty;
#X connect 115 44 79 0 empty;
#X connect 115 45 80 0 empty;
#X connect 115 45 83 0 empty;
#X connect 115 46 81 0 empty;
#X connect 115 46 84 0 empty;
#X connect 115 47 82 0 empty;
#X connect 115 47 85 0 empty;
#X connect 115 48 86 0 empty;
#X connect 115 49 87 0 empty;
#X connect 115 49 89 0 empty;
#X connect 115 50 88 0 empty;
#X connect 115 50 90 0 empty;
#X connect 115 51 91 0 empty;
#X connect 115 52 92 0 empty;
#X connect 115 52 95 0 empty;
#X connect 115 53 93 0 empty;
#X connect 115 53 96 0 empty;
#X connect 115 54 94 0 empty;
#X connect 115 54 97 0 empty;
#X connect 115 55 98 0 empty;
#X connect 115 56 99 0 empty;
#X connect 115 56 101 0 empty;
#X connect 115 57 100 0 empty;
#X connect 115 57 102 0 empty;
#X connect 115 58 103 0 empty;
#X connect 115 59 104 0 empty;
#X connect 115 59 107 0 empty;
#X connect 115 60 105 0 empty;
#X connect 115 60 108 0 empty;
#X connect 115 61 106 0 empty;
#X connect 115 61 109 0 empty;
#X connect 115 62 110 0 empty;
#X connect 115 63 111 0 empty;
#X connect 115 64 112 0 empty;
#X connect 116 0 0 0 empty;
#X connect 117 0 116 0 empty;
#X connect 118 0 117 1 empty;
#X coords 0 1 100 -1 617 527 1 0 0;
#X restore -7 -17 graph;
#X obj 1180 -15 button 51 51 25 25 25 255 255 255 0;
#X obj 1227 11 button 51 51 25 25 25 255 255 255 0;
#X obj 1275 -15 button 51 51 25 25 25 255 255 255 0;
#X obj 1322 11 button 51 51 25 25 25 255 255 255 0;
#X obj 1368 -15 button 51 51 25 25 25 255 255 255 0;
#X obj 1415 11 button 51 51 25 25 25 255 255 255 0;
#X obj 1461 -15 button 51 51 25 25 25 255 255 255 0;
#X obj 1510 11 button 51 51 25 25 25 255 255 255 0;
#X obj 1557 -15 button 51 51 25 25 25 255 255 255 0;
#X obj 1602 11 button 51 51 25 25 25 255 255 255 0;
#X obj 1650 -15 button 51 51 25 25 25 255 255 255 0;
#X obj 1698 11 button 51 51 25 25 25 255 255 255 0;
#X obj 1180 37 button 51 51 25 25 25 255 255 255 0;
#X obj 1227 63 button 51 51 25 25 25 255 255 255 0;
#X obj 1275 37 button 51 51 25 25 25 255 255 255 0;
#X obj 1322 63 button 51 51 25 25 25 255 255 255 0;
#X obj 1368 37 button 51 51 25 25 25 255 255 255 0;
#X obj 1415 63 button 51 51 25 25 25 255 255 255 0;
#X obj 1461 37 button 51 51 25 25 25 255 255 255 0;
#X obj 1510 63 button 51 51 25 25 25 255 255 255 0;
#X obj 1557 37 button 51 51 25 25 25 255 255 255 0;
#X obj 1602 63 button 51 51 25 25 25 255 255 255 0;
#X obj 1650 37 button 51 51 25 25 25 255 255 255 0;
#X obj 1698 63 button 51 51 25 25 25 255 255 255 0;
#X obj 1180 91 button 51 51 25 25 25 255 255 255 0;
#X obj 1227 117 button 51 51 25 25 25 255 255 255 0;
#X obj 1275 91 button 51 51 25 25 25 255 255 255 0;
#X obj 1322 117 button 51 51 25 25 25 255 255 255 0;
#X obj 1368 91 button 51 51 25 25 25 255 255 255 0;
#X obj 1415 117 button 51 51 25 25 25 255 255 255 0;
#X obj 1461 91 button 51 51 25 25 25 255 255 255 0;
#X obj 1510 117 button 51 51 25 25 25 255 255 255 0;
#X obj 1557 91 button 51 51 25 25 25 255 255 255 0;
#X obj 1602 117 button 51 51 25 25 25 255 255 255 0;
#X obj 1650 91 button 51 51 25 25 25 255 255 255 0;
#X obj 1698 117 button 51 51 25 25 25 255 255 255 0;
#X obj 1180 143 button 51 51 25 25 25 255 255 255 0;
#X obj 1227 169 button 51 51 25 25 25 255 255 255 0;
#X obj 1275 143 button 51 51 25 25 25 255 255 255 0;
#X obj 1322 169 button 51 51 25 25 25 255 255 255 0;
#X obj 1368 143 button 51 51 25 25 25 255 255 255 0;
#X obj 1415 169 button 51 51 25 25 25 255 255 255 0;
#X obj 1461 143 button 51 51 25 25 25 255 255 255 0;
#X obj 1510 169 button 51 51 25 25 25 255 255 255 0;
#X obj 1557 143 button 51 51 25 25 25 255 255 255 0;
#X obj 1602 169 button 51 51 25 25 25 255 255 255 0;
#X obj 1650 143 button 51 51 25 25 25 255 255 255 0;
#X obj 1698 169 button 51 51 25 25 25 255 255 255 0;
#X obj 1180 197 button 51 51 25 25 25 255 255 255 0;
#X obj 1227 223 button 51 51 25 25 25 255 255 255 0;
#X obj 1275 197 button 51 51 25 25 25 255 255 255 0;
#X obj 1322 223 button 51 51 25 25 25 255 255 255 0;
#X obj 1368 197 button 51 51 25 25 25 255 255 255 0;
#X obj 1415 223 button 51 51 25 25 25 255 255 255 0;
#X obj 1461 197 button 51 51 25 25 25 255 255 255 0;
#X obj 1510 223 button 51 51 25 25 25 255 255 255 0;
#X obj 1557 197 button 51 51 25 25 25 255 255 255 0;
#X obj 1602 223 button 51 51 25 25 25 255 255 255 0;
#X obj 1650 197 button 51 51 25 25 25 255 255 255 0;
#X obj 1698 223 button 51 51 25 25 25 255 255 255 0;
#X obj 1180 249 button 51 51 25 25 25 255 255 255 0;
#X obj 1227 275 button 51 51 25 25 25 255 255 255 0;
#X obj 1275 249 button 51 51 25 25 25 255 255 255 0;
#X obj 1322 275 button 51 51 25 25 25 255 255 255 0;
#X obj 1368 249 button 51 51 25 25 25 255 255 255 0;
#X obj 1415 275 button 51 51 25 25 25 255 255 255 0;
#X obj 1461 249 button 51 51 25 25 25 255 255 255 0;
#X obj 1510 275 button 51 51 25 25 25 255 255 255 0;
#X obj 1557 249 button 51 51 25 25 25 255 255 255 0;
#X obj 1602 275 button 51 51 25 25 25 255 255 255 0;
#X obj 1650 249 button 51 51 25 25 25 255 255 255 0;
#X obj 1698 275 button 51 51 25 25 25 255 255 255 0;
#X obj 1180 303 button 51 51 25 25 25 255 255 255 0;
#X obj 1227 329 button 51 51 25 25 25 255 255 255 0;
#X obj 1275 303 button 51 51 25 25 25 255 255 255 0;
#X obj 1322 329 button 51 51 25 25 25 255 255 255 0;
#X obj 1368 303 button 51 51 25 25 25 255 255 255 0;
#X obj 1415 329 button 51 51 25 25 25 255 255 255 0;
#X obj 1461 303 button 51 51 25 25 25 255 255 255 0;
#X obj 1510 329 button 51 51 25 25 25 255 255 255 0;
#X obj 1557 303 button 51 51 25 25 25 255 255 255 0;
#X obj 1602 329 button 51 51 25 25 25 255 255 255 0;
#X obj 1650 303 button 51 51 25 25 25 255 255 255 0;
#X obj 1698 329 button 51 51 25 25 25 255 255 255 0;
#X obj 1180 355 button 51 51 25 25 25 255 255 255 0;
#X obj 1227 381 button 51 51 25 25 25 255 255 255 0;
#X obj 1275 355 button 51 51 25 25 25 255 255 255 0;
#X obj 1322 381 button 51 51 25 25 25 255 255 255 0;
#X obj 1368 355 button 51 51 25 25 25 255 255 255 0;
#X obj 1415 381 button 51 51 25 25 25 255 255 255 0;
#X obj 1461 355 button 51 51 25 25 25 255 255 255 0;
#X obj 1510 381 button 51 51 25 25 25 255 255 255 0;
#X obj 1557 355 button 51 51 25 25 25 255 255 255 0;
#X obj 1602 381 button 51 51 25 25 25 255 255 255 0;
#X obj 1650 355 button 51 51 25 25 25 255 255 255 0;
#X obj 1698 381 button 51 51 25 25 25 255 255 255 0;
#X obj 1180 408 button 51 51 25 25 25 255 255 255 0;
#X obj 1227 434 button 51 51 25 25 25 255 255 255 0;
#X obj 1275 408 button 51 51 25 25 25 255 255 255 0;
#X obj 1322 434 button 51 51 25 25 25 255 255 255 0;
#X obj 1368 408 button 51 51 25 25 25 255 255 255 0;
#X obj 1415 434 button 51 51 25 25 25 255 255 255 0;
#X obj 1461 408 button 51 51 25 25 25 255 255 255 0;
#X obj 1510 434 button 51 51 25 25 25 255 255 255 0;
#X obj 1557 408 button 51 51 25 25 25 255 255 255 0;
#X obj 1602 434 button 51 51 25 25 25 255 255 255 0;
#X obj 1650 408 button 51 51 25 25 25 255 255 255 0;
#X obj 1698 434 button 51 51 25 25 25 255 255 255 0;
#N canvas 0 50 446 490 butt 1;
#X obj 9 379 select 0 1;
#X msg 9 419 color #191919 #ffffff #191919;
#X msg 209 419 color #191919 #ffffff #ff003f;
#X obj 9 9 inlet;
#X obj 9 459 outlet;
#X obj 9 341 ||;
#X obj 22 304 t b f;
#X obj 29 54 &&;
#X obj 159 9 key;
#X obj 659 209 keyup;
#X obj 109 129 f;
#X obj 80 9 keyname;
#X obj 159 169 ==;
#X obj 79 269 &&;
#X obj 29 89 select 1;
#X obj 159 209 t b f;
#X text 459 238 we wanna actually hold until we get a keyup of the same key;
#X text 149 128 last key that was held while this butt was pressed;
#X connect 0 0 1 0 empty;
#X connect 0 1 2 0 empty;
#X connect 1 0 4 0 empty;
#X connect 2 0 4 0 empty;
#X connect 3 0 5 0 empty;
#X connect 3 0 7 0 empty;
#X connect 5 0 0 0 empty;
#X connect 6 0 5 0 empty;
#X connect 6 1 5 1 empty;
#X connect 7 0 14 0 empty;
#X connect 8 0 10 1 empty;
#X connect 8 0 12 0 empty;
#X connect 10 0 12 1 empty;
#X connect 11 0 7 1 empty;
#X connect 11 0 13 0 empty;
#X connect 12 0 15 0 empty;
#X connect 13 0 6 0 empty;
#X connect 14 0 10 0 empty;
#X connect 15 0 13 0 empty;
#X connect 15 1 13 1 empty;
#X restore 1189 519 pd butt;
#X connect 208 0 219 0 empty;
#X connect 219 0 104 0 empty;
#X coords 0 1 100 -1 611 511 1 0 0;
#X restore -1 -1 graph;
