#N canvas 827 239 600 500 12;
#N canvas 0 50 450 250 (subpatch) 1;
#X obj 29 -103 button 47 47 25 25 25 255 255 255 0;
#X msg 709 -81 color #191919 #ffffff #191919;
#X obj 3 -528 button 47 47 25 25 25 255 255 255 0;
#X obj 55 -528 button 47 47 25 25 25 255 255 255 0;
#X obj 107 -528 button 47 47 25 25 25 255 255 255 0;
#X obj 159 -528 button 47 47 25 25 25 255 255 255 0;
#X obj 211 -528 button 47 47 25 25 25 255 255 255 0;
#X obj 263 -529 button 47 47 25 25 25 255 255 255 0;
#X obj 315 -529 button 47 47 25 25 25 255 255 255 0;
#X obj 367 -529 button 47 47 25 25 25 255 255 255 0;
#X obj 418 -528 button 47 47 25 25 25 255 255 255 0;
#X obj 471 -528 button 47 47 25 25 25 255 255 255 0;
#X obj 523 -528 button 47 47 25 25 25 255 255 255 0;
#X obj 29 -479 button 47 47 25 25 25 255 255 255 0;
#X obj 81 -479 button 47 47 25 25 25 255 255 255 0;
#X obj 133 -479 button 47 47 25 25 25 255 255 255 0;
#X obj 185 -479 button 47 47 25 25 25 255 255 255 0;
#X obj 237 -479 button 47 47 25 25 25 255 255 255 0;
#X obj 289 -480 button 47 47 25 25 25 255 255 255 0;
#X obj 341 -480 button 47 47 25 25 25 255 255 255 0;
#X obj 393 -480 button 47 47 25 25 25 255 255 255 0;
#X obj 444 -479 button 47 47 25 25 25 255 255 255 0;
#X obj 497 -479 button 47 47 25 25 25 255 255 255 0;
#X obj 549 -479 button 47 47 25 25 25 255 255 255 0;
#X obj 3 -434 button 47 47 25 25 25 255 255 255 0;
#X obj 55 -434 button 47 47 25 25 25 255 255 255 0;
#X obj 107 -434 button 47 47 25 25 25 255 255 255 0;
#X obj 159 -434 button 47 47 25 25 25 255 255 255 0;
#X obj 211 -434 button 47 47 25 25 25 255 255 255 0;
#X obj 263 -435 button 47 47 25 25 25 255 255 255 0;
#X obj 315 -435 button 47 47 25 25 25 255 255 255 0;
#X obj 367 -435 button 47 47 25 25 25 255 255 255 0;
#X obj 418 -434 button 47 47 25 25 25 255 255 255 0;
#X obj 471 -434 button 47 47 25 25 25 255 255 255 0;
#X obj 523 -434 button 47 47 25 25 25 255 255 255 0;
#X obj 29 -385 button 47 47 25 25 25 255 255 255 0;
#X obj 81 -385 button 47 47 25 25 25 255 255 255 0;
#X obj 133 -385 button 47 47 25 25 25 255 255 255 0;
#X obj 185 -385 button 47 47 25 25 25 255 255 255 0;
#X obj 237 -385 button 47 47 25 25 25 255 255 255 0;
#X obj 289 -386 button 47 47 25 25 25 255 255 255 0;
#X obj 341 -386 button 47 47 25 25 25 255 255 255 0;
#X obj 393 -386 button 47 47 25 25 25 255 255 255 0;
#X obj 444 -385 button 47 47 25 25 25 255 255 255 0;
#X obj 497 -385 button 47 47 25 25 25 255 255 255 0;
#X obj 549 -385 button 47 47 25 25 25 255 255 255 0;
#X obj 3 -340 button 47 47 25 25 25 255 255 255 0;
#X obj 55 -340 button 47 47 25 25 25 255 255 255 0;
#X obj 107 -340 button 47 47 25 25 25 255 255 255 0;
#X obj 159 -340 button 47 47 25 25 25 255 255 255 0;
#X obj 211 -340 button 47 47 25 25 25 255 255 255 0;
#X obj 263 -341 button 47 47 25 25 25 255 255 255 0;
#X obj 315 -341 button 47 47 25 25 25 255 255 255 0;
#X obj 367 -341 button 47 47 25 25 25 255 255 255 0;
#X obj 418 -340 button 47 47 25 25 25 255 255 255 0;
#X obj 471 -340 button 47 47 25 25 25 255 255 255 0;
#X obj 523 -340 button 47 47 25 25 25 255 255 255 0;
#X obj 29 -291 button 47 47 25 25 25 255 255 255 0;
#X obj 81 -291 button 47 47 25 25 25 255 255 255 0;
#X obj 133 -291 button 47 47 25 25 25 255 255 255 0;
#X obj 185 -291 button 47 47 25 25 25 255 255 255 0;
#X obj 237 -291 button 47 47 25 25 25 255 255 255 0;
#X obj 289 -292 button 47 47 25 25 25 255 255 255 0;
#X obj 341 -292 button 47 47 25 25 25 255 255 255 0;
#X obj 393 -292 button 47 47 25 25 25 255 255 255 0;
#X obj 444 -291 button 47 47 25 25 25 255 255 255 0;
#X obj 497 -291 button 47 47 25 25 25 255 255 255 0;
#X obj 549 -291 button 47 47 25 25 25 255 255 255 0;
#X obj 3 -246 button 47 47 25 25 25 255 255 255 0;
#X obj 55 -246 button 47 47 25 25 25 255 255 255 0;
#X obj 107 -246 button 47 47 25 25 25 255 255 255 0;
#X obj 159 -246 button 47 47 25 25 25 255 255 255 0;
#X obj 211 -246 button 47 47 25 25 25 255 255 255 0;
#X obj 263 -247 button 47 47 25 25 25 255 255 255 0;
#X obj 315 -247 button 47 47 25 25 25 255 255 255 0;
#X obj 367 -247 button 47 47 25 25 25 255 255 255 0;
#X obj 418 -246 button 47 47 25 25 25 255 255 255 0;
#X obj 471 -246 button 47 47 25 25 25 255 255 255 0;
#X obj 523 -246 button 47 47 25 25 25 255 255 255 0;
#X obj 29 -197 button 47 47 25 25 25 255 255 255 0;
#X obj 81 -197 button 47 47 25 25 25 255 255 255 0;
#X obj 133 -197 button 47 47 25 25 25 255 255 255 0;
#X obj 185 -197 button 47 47 25 25 25 255 255 255 0;
#X obj 237 -197 button 47 47 25 25 25 255 255 255 0;
#X obj 289 -198 button 47 47 25 25 25 255 255 255 0;
#X obj 341 -198 button 47 47 25 25 25 255 255 255 0;
#X obj 393 -198 button 47 47 25 25 25 255 255 255 0;
#X obj 444 -197 button 47 47 25 25 25 255 255 255 0;
#X obj 497 -197 button 47 47 25 25 25 255 255 255 0;
#X obj 549 -197 button 47 47 25 25 25 255 255 255 0;
#X obj 3 -152 button 47 47 25 25 25 255 255 255 0;
#X obj 55 -152 button 47 47 25 25 25 255 255 255 0;
#X obj 107 -152 button 47 47 25 25 25 255 255 255 0;
#X obj 159 -152 button 47 47 25 25 25 255 255 255 0;
#X obj 211 -152 button 47 47 25 25 25 255 255 255 0;
#X obj 263 -153 button 47 47 25 25 25 255 255 255 0;
#X obj 315 -153 button 47 47 25 25 25 255 255 255 0;
#X obj 367 -153 button 47 47 25 25 25 255 255 255 0;
#X obj 418 -152 button 47 47 25 25 25 255 255 255 0;
#X obj 471 -152 button 47 47 25 25 25 255 255 255 0;
#X obj 523 -152 button 47 47 25 25 25 255 255 255 0;
#X obj 81 -103 button 47 47 25 25 25 255 255 255 0;
#X obj 133 -103 button 47 47 25 25 25 255 255 255 0;
#X obj 185 -103 button 47 47 25 25 25 255 255 255 0;
#X obj 237 -103 button 47 47 25 25 25 255 255 255 0;
#X obj 289 -104 button 47 47 25 25 25 255 255 255 0;
#X obj 341 -104 button 47 47 25 25 25 255 255 255 0;
#X obj 393 -104 button 47 47 25 25 25 255 255 255 0;
#X obj 444 -103 button 47 47 25 25 25 255 255 255 0;
#X obj 497 -103 button 47 47 25 25 25 255 255 255 0;
#X obj 549 -103 button 47 47 25 25 25 255 255 255 0;
#N canvas 0 50 450 300 click 1;
#X obj 29 129 select 0 1;
#X msg 29 169 color #191919 #ffffff #191919;
#X msg 229 169 color #191919 #ffffff #ff003f;
#X obj 29 29 inlet;
#X obj 29 249 outlet;
#X connect 0 0 1 0 empty;
#X connect 0 1 2 0 empty;
#X connect 1 0 4 0 empty;
#X connect 2 0 4 0 empty;
#X connect 3 0 0 0 empty;
#X restore 29 539 pd click;
#X obj -41 -31 cnv 15 641 531 empty empty empty 20 12 0 14 #d1d1d1 #ffffff 0;
#X obj 604 -1 bng 25 250 50 0 empty empty ⬢ -611 37 0 87 #191919 #ffffff #191919;
#X obj 656 -1 bng 25 250 50 0 empty empty ⬢ -611 37 0 87 #191919 #ffffff #191919;
#X obj 708 -1 bng 25 250 50 0 empty empty ⬢ -611 37 0 87 #191919 #ffffff #191919;
#X obj 760 -1 bng 25 250 50 0 empty empty ⬢ -611 37 0 87 #191919 #ffffff #191919;
#X obj 812 -1 bng 25 250 50 0 empty empty ⬢ -611 37 0 87 #191919 #ffffff #191919;
#X obj 864 -1 bng 25 250 50 0 empty empty ⬢ -611 37 0 87 #191919 #ffffff #191919;
#X obj 916 -1 bng 25 250 50 0 empty empty ⬢ -611 37 0 87 #191919 #ffffff #191919;
#X obj 968 -1 bng 25 250 50 0 empty empty ⬢ -611 37 0 87 #191919 #ffffff #191919;
#X obj 1020 -1 bng 25 250 50 0 empty empty ⬢ -611 37 0 87 #191919 #ffffff #191919;
#X obj 1072 -1 bng 25 250 50 0 empty empty ⬢ -611 37 0 87 #191919 #ffffff #191919;
#X obj 1124 -1 bng 25 250 50 0 empty empty ⬢ -611 37 0 87 #191919 #ffffff #191919;
#X obj 630 46 bng 25 250 50 0 empty empty ⬢ -611 37 0 87 #191919 #ffffff #191919;
#X obj 682 46 bng 25 250 50 0 empty empty ⬢ -611 37 0 87 #191919 #ffffff #191919;
#X obj 734 46 bng 25 250 50 0 empty empty ⬢ -611 37 0 87 #191919 #ffffff #191919;
#X obj 786 46 bng 25 250 50 0 empty empty ⬢ -611 37 0 87 #191919 #ffffff #191919;
#X obj 838 46 bng 25 250 50 0 empty empty ⬢ -611 37 0 87 #191919 #ffffff #191919;
#X obj 890 46 bng 25 250 50 0 empty empty ⬢ -611 37 0 87 #191919 #ffffff #191919;
#X obj 942 46 bng 25 250 50 0 empty empty ⬢ -611 37 0 87 #191919 #ffffff #191919;
#X obj 994 46 bng 25 250 50 0 empty empty ⬢ -611 37 0 87 #191919 #ffffff #191919;
#X obj 1046 46 bng 25 250 50 0 empty empty ⬢ -611 37 0 87 #191919 #ffffff #191919;
#X obj 1098 46 bng 25 250 50 0 empty empty ⬢ -611 37 0 87 #191919 #ffffff #191919;
#X obj 1150 46 bng 25 250 50 0 empty empty ⬢ -611 37 0 87 #191919 #ffffff #191919;
#X obj 604 93 bng 25 250 50 0 empty empty ⬢ -611 37 0 87 #191919 #ffffff #191919;
#X obj 656 93 bng 25 250 50 0 empty empty ⬢ -611 37 0 87 #191919 #ffffff #191919;
#X obj 708 93 bng 25 250 50 0 empty empty ⬢ -611 37 0 87 #191919 #ffffff #191919;
#X obj 760 93 bng 25 250 50 0 empty empty ⬢ -611 37 0 87 #191919 #ffffff #191919;
#X obj 812 93 bng 25 250 50 0 empty empty ⬢ -611 37 0 87 #191919 #ffffff #191919;
#X obj 864 93 bng 25 250 50 0 empty empty ⬢ -611 37 0 87 #191919 #ffffff #191919;
#X obj 916 93 bng 25 250 50 0 empty empty ⬢ -611 37 0 87 #191919 #ffffff #191919;
#X obj 968 93 bng 25 250 50 0 empty empty ⬢ -611 37 0 87 #191919 #ffffff #191919;
#X obj 1020 93 bng 25 250 50 0 empty empty ⬢ -611 37 0 87 #191919 #ffffff #191919;
#X obj 1072 93 bng 25 250 50 0 empty empty ⬢ -611 37 0 87 #191919 #ffffff #191919;
#X obj 1124 93 bng 25 250 50 0 empty empty ⬢ -611 37 0 87 #191919 #ffffff #191919;
#X obj 630 140 bng 25 250 50 0 empty empty ⬢ -611 37 0 87 #191919 #ffffff #191919;
#X obj 682 140 bng 25 250 50 0 empty empty ⬢ -611 37 0 87 #191919 #ffffff #191919;
#X obj 734 140 bng 25 250 50 0 empty empty ⬢ -611 37 0 87 #191919 #ffffff #191919;
#X obj 786 140 bng 25 250 50 0 empty empty ⬢ -611 37 0 87 #191919 #ffffff #191919;
#X obj 838 140 bng 25 250 50 0 empty empty ⬢ -611 37 0 87 #191919 #ffffff #191919;
#X obj 890 140 bng 25 250 50 0 empty empty ⬢ -611 37 0 87 #191919 #ffffff #191919;
#X obj 942 140 bng 25 250 50 0 empty empty ⬢ -611 37 0 87 #191919 #ffffff #191919;
#X obj 994 140 bng 25 250 50 0 empty empty ⬢ -611 37 0 87 #191919 #ffffff #191919;
#X obj 1046 140 bng 25 250 50 0 empty empty ⬢ -611 37 0 87 #191919 #ffffff #191919;
#X obj 1098 140 bng 25 250 50 0 empty empty ⬢ -611 37 0 87 #191919 #ffffff #191919;
#X obj 1150 140 bng 25 250 50 0 empty empty ⬢ -611 37 0 87 #191919 #ffffff #191919;
#X obj 604 187 bng 25 250 50 0 empty empty ⬢ -611 37 0 87 #191919 #ffffff #191919;
#X obj 656 187 bng 25 250 50 0 empty empty ⬢ -611 37 0 87 #191919 #ffffff #191919;
#X obj 708 187 bng 25 250 50 0 empty empty ⬢ -611 37 0 87 #191919 #ffffff #191919;
#X obj 760 187 bng 25 250 50 0 empty empty ⬢ -611 37 0 87 #191919 #ffffff #191919;
#X obj 812 187 bng 25 250 50 0 empty empty ⬢ -611 37 0 87 #191919 #ffffff #191919;
#X obj 864 187 bng 25 250 50 0 empty empty ⬢ -611 37 0 87 #191919 #ffffff #191919;
#X obj 916 187 bng 25 250 50 0 empty empty ⬢ -611 37 0 87 #191919 #ffffff #191919;
#X obj 968 187 bng 25 250 50 0 empty empty ⬢ -611 37 0 87 #191919 #ffffff #191919;
#X obj 1020 187 bng 25 250 50 0 empty empty ⬢ -611 37 0 87 #191919 #ffffff #191919;
#X obj 1072 187 bng 25 250 50 0 empty empty ⬢ -611 37 0 87 #191919 #ffffff #191919;
#X obj 1124 187 bng 25 250 50 0 empty empty ⬢ -611 37 0 87 #191919 #ffffff #191919;
#X obj 630 234 bng 25 250 50 0 empty empty ⬢ -611 37 0 87 #191919 #ffffff #191919;
#X obj 682 234 bng 25 250 50 0 empty empty ⬢ -611 37 0 87 #191919 #ffffff #191919;
#X obj 734 234 bng 25 250 50 0 empty empty ⬢ -611 37 0 87 #191919 #ffffff #191919;
#X obj 786 234 bng 25 250 50 0 empty empty ⬢ -611 37 0 87 #191919 #ffffff #191919;
#X obj 838 234 bng 25 250 50 0 empty empty ⬢ -611 37 0 87 #191919 #ffffff #191919;
#X obj 890 234 bng 25 250 50 0 empty empty ⬢ -611 37 0 87 #191919 #ffffff #191919;
#X obj 942 234 bng 25 250 50 0 empty empty ⬢ -611 37 0 87 #191919 #ffffff #191919;
#X obj 994 234 bng 25 250 50 0 empty empty ⬢ -611 37 0 87 #191919 #ffffff #191919;
#X obj 1046 234 bng 25 250 50 0 empty empty ⬢ -611 37 0 87 #191919 #ffffff #191919;
#X obj 1098 234 bng 25 250 50 0 empty empty ⬢ -611 37 0 87 #191919 #ffffff #191919;
#X obj 1150 234 bng 25 250 50 0 empty empty ⬢ -611 37 0 87 #191919 #ffffff #191919;
#X obj 604 281 bng 25 250 50 0 empty empty ⬢ -611 37 0 87 #191919 #ffffff #191919;
#X obj 656 281 bng 25 250 50 0 empty empty ⬢ -611 37 0 87 #191919 #ffffff #191919;
#X obj 708 281 bng 25 250 50 0 empty empty ⬢ -611 37 0 87 #191919 #ffffff #191919;
#X obj 760 281 bng 25 250 50 0 empty empty ⬢ -611 37 0 87 #191919 #ffffff #191919;
#X obj 812 281 bng 25 250 50 0 empty empty ⬢ -611 37 0 87 #191919 #ffffff #191919;
#X obj 864 281 bng 25 250 50 0 empty empty ⬢ -611 37 0 87 #191919 #ffffff #191919;
#X obj 916 281 bng 25 250 50 0 empty empty ⬢ -611 37 0 87 #191919 #ffffff #191919;
#X obj 968 281 bng 25 250 50 0 empty empty ⬢ -611 37 0 87 #191919 #ffffff #191919;
#X obj 1020 281 bng 25 250 50 0 empty empty ⬢ -611 37 0 87 #191919 #ffffff #191919;
#X obj 1072 281 bng 25 250 50 0 empty empty ⬢ -611 37 0 87 #191919 #ffffff #191919;
#X obj 1124 281 bng 25 250 50 0 empty empty ⬢ -611 37 0 87 #191919 #ffffff #191919;
#X obj 630 328 bng 25 250 50 0 empty empty ⬢ -611 37 0 87 #191919 #ffffff #191919;
#X obj 682 328 bng 25 250 50 0 empty empty ⬢ -611 37 0 87 #191919 #ffffff #191919;
#X obj 734 328 bng 25 250 50 0 empty empty ⬢ -611 37 0 87 #191919 #ffffff #191919;
#X obj 786 328 bng 25 250 50 0 empty empty ⬢ -611 37 0 87 #191919 #ffffff #191919;
#X obj 838 328 bng 25 250 50 0 empty empty ⬢ -611 37 0 87 #191919 #ffffff #191919;
#X obj 890 328 bng 25 250 50 0 empty empty ⬢ -611 37 0 87 #191919 #ffffff #191919;
#X obj 942 328 bng 25 250 50 0 empty empty ⬢ -611 37 0 87 #191919 #ffffff #191919;
#X obj 994 328 bng 25 250 50 0 empty empty ⬢ -611 37 0 87 #191919 #ffffff #191919;
#X obj 1046 328 bng 25 250 50 0 empty empty ⬢ -611 37 0 87 #191919 #ffffff #191919;
#X obj 1098 328 bng 25 250 50 0 empty empty ⬢ -611 37 0 87 #191919 #ffffff #191919;
#X obj 1150 328 bng 25 250 50 0 empty empty ⬢ -611 37 0 87 #191919 #ffffff #191919;
#X obj 604 375 bng 25 250 50 0 empty empty ⬢ -611 37 0 87 #191919 #ffffff #191919;
#X obj 656 375 bng 25 250 50 0 empty empty ⬢ -611 37 0 87 #191919 #ffffff #191919;
#X obj 708 375 bng 25 250 50 0 empty empty ⬢ -611 37 0 87 #191919 #ffffff #191919;
#X obj 760 375 bng 25 250 50 0 empty empty ⬢ -611 37 0 87 #191919 #ffffff #191919;
#X obj 812 375 bng 25 250 50 0 empty empty ⬢ -611 37 0 87 #191919 #ffffff #191919;
#X obj 864 375 bng 25 250 50 0 empty empty ⬢ -611 37 0 87 #191919 #ffffff #191919;
#X obj 916 375 bng 25 250 50 0 empty empty ⬢ -611 37 0 87 #191919 #ffffff #191919;
#X obj 968 375 bng 25 250 50 0 empty empty ⬢ -611 37 0 87 #191919 #ffffff #191919;
#X obj 1020 375 bng 25 250 50 0 empty empty ⬢ -611 37 0 87 #191919 #ffffff #191919;
#X obj 1072 375 bng 25 250 50 0 empty empty ⬢ -611 37 0 87 #191919 #ffffff #191919;
#X obj 1124 375 bng 25 250 50 0 empty empty ⬢ -611 37 0 87 #191919 #ffffff #191919;
#X obj 630 422 bng 25 250 50 0 empty empty ⬢ -611 37 0 87 #191919 #ffffff #191919;
#X obj 682 422 bng 25 250 50 0 empty empty ⬢ -611 37 0 87 #191919 #ffffff #191919;
#X obj 734 422 bng 25 250 50 0 empty empty ⬢ -611 37 0 87 #191919 #ffffff #191919;
#X obj 786 422 bng 25 250 50 0 empty empty ⬢ -611 37 0 87 #191919 #ffffff #191919;
#X obj 838 422 bng 25 250 50 0 empty empty ⬢ -611 37 0 87 #191919 #ffffff #191919;
#X obj 890 422 bng 25 250 50 0 empty empty ⬢ -611 37 0 87 #191919 #ffffff #191919;
#X obj 942 422 bng 25 250 50 0 empty empty ⬢ -611 37 0 87 #191919 #ffffff #191919;
#X obj 994 422 bng 25 250 50 0 empty empty ⬢ -611 37 0 87 #191919 #ffffff #191919;
#X obj 1046 422 bng 25 250 50 0 empty empty ⬢ -611 37 0 87 #191919 #ffffff #191919;
#X obj 1098 422 bng 25 250 50 0 empty empty ⬢ -611 37 0 87 #191919 #ffffff #191919;
#X obj 1150 422 bng 25 250 50 0 empty empty ⬢ -611 37 0 87 #191919 #ffffff #191919;
#X coords 0 1 100 -1 601 501 1 0 0;
#X restore -1 -1 graph;
#N canvas 0 50 450 250 (subpatch) 1;
#X obj -41 -31 cnv 15 641 531 empty empty empty 20 12 0 14 #d1d1d1 #ffffff 0;
#X obj 604 -1 bng 25 250 50 0 empty empty ⬣ -611 37 0 87 #191919 #ffffff #191919;
#X obj 656 -1 bng 25 250 50 0 empty empty ⬣ -611 37 0 87 #191919 #ffffff #191919;
#X obj 708 -1 bng 25 250 50 0 empty empty ⬢ -611 37 0 87 #191919 #ffffff #191919;
#X obj 760 -1 bng 25 250 50 0 empty empty ⬢ -611 37 0 87 #191919 #ffffff #191919;
#X obj 812 -1 bng 25 250 50 0 empty empty ⬢ -611 37 0 87 #191919 #ffffff #191919;
#X obj 864 -1 bng 25 250 50 0 empty empty ⬢ -611 37 0 87 #191919 #ffffff #191919;
#X obj 916 -1 bng 25 250 50 0 empty empty ⬢ -611 37 0 87 #191919 #ffffff #191919;
#X obj 968 -1 bng 25 250 50 0 empty empty ⬢ -611 37 0 87 #191919 #ffffff #191919;
#X obj 1020 -1 bng 25 250 50 0 empty empty ⬢ -611 37 0 87 #191919 #ffffff #191919;
#X obj 1072 -1 bng 25 250 50 0 empty empty ⬢ -611 37 0 87 #191919 #ffffff #191919;
#X obj 1124 -1 bng 25 250 50 0 empty empty ⬢ -611 37 0 87 #191919 #ffffff #191919;
#X obj 630 46 bng 25 250 50 0 empty empty ⬢ -611 37 0 87 #191919 #ffffff #191919;
#X obj 682 46 bng 25 250 50 0 empty empty ⬢ -611 37 0 87 #191919 #ffffff #191919;
#X obj 734 46 bng 25 250 50 0 empty empty ⬢ -611 37 0 87 #191919 #ffffff #191919;
#X obj 786 46 bng 25 250 50 0 empty empty ⬢ -611 37 0 87 #191919 #ffffff #191919;
#X obj 838 46 bng 25 250 50 0 empty empty ⬢ -611 37 0 87 #191919 #ffffff #191919;
#X obj 890 46 bng 25 250 50 0 empty empty ⬢ -611 37 0 87 #191919 #ffffff #191919;
#X obj 942 46 bng 25 250 50 0 empty empty ⬢ -611 37 0 87 #191919 #ffffff #191919;
#X obj 994 46 bng 25 250 50 0 empty empty ⬢ -611 37 0 87 #191919 #ffffff #191919;
#X obj 1046 46 bng 25 250 50 0 empty empty ⬢ -611 37 0 87 #191919 #ffffff #191919;
#X obj 1098 46 bng 25 250 50 0 empty empty ⬢ -611 37 0 87 #191919 #ffffff #191919;
#X obj 1150 46 bng 25 250 50 0 empty empty ⬢ -611 37 0 87 #191919 #ffffff #191919;
#X obj 604 93 bng 25 250 50 0 empty empty ⬢ -611 37 0 87 #191919 #ffffff #191919;
#X obj 656 93 bng 25 250 50 0 empty empty ⬢ -611 37 0 87 #191919 #ffffff #191919;
#X obj 708 93 bng 25 250 50 0 empty empty ⬢ -611 37 0 87 #191919 #ffffff #191919;
#X obj 760 93 bng 25 250 50 0 empty empty ⬢ -611 37 0 87 #191919 #ffffff #191919;
#X obj 812 93 bng 25 250 50 0 empty empty ⬢ -611 37 0 87 #191919 #ffffff #191919;
#X obj 864 93 bng 25 250 50 0 empty empty ⬢ -611 37 0 87 #191919 #ffffff #191919;
#X obj 916 93 bng 25 250 50 0 empty empty ⬢ -611 37 0 87 #191919 #ffffff #191919;
#X obj 968 93 bng 25 250 50 0 empty empty ⬢ -611 37 0 87 #191919 #ffffff #191919;
#X obj 1020 93 bng 25 250 50 0 empty empty ⬢ -611 37 0 87 #191919 #ffffff #191919;
#X obj 1072 93 bng 25 250 50 0 empty empty ⬢ -611 37 0 87 #191919 #ffffff #191919;
#X obj 1124 93 bng 25 250 50 0 empty empty ⬢ -611 37 0 87 #191919 #ffffff #191919;
#X obj 630 140 bng 25 250 50 0 empty empty ⬢ -611 37 0 87 #191919 #ffffff #191919;
#X obj 682 140 bng 25 250 50 0 empty empty ⬢ -611 37 0 87 #191919 #ffffff #191919;
#X obj 734 140 bng 25 250 50 0 empty empty ⬢ -611 37 0 87 #191919 #ffffff #191919;
#X obj 786 140 bng 25 250 50 0 empty empty ⬢ -611 37 0 87 #191919 #ffffff #191919;
#X obj 838 140 bng 25 250 50 0 empty empty ⬢ -611 37 0 87 #191919 #ffffff #191919;
#X obj 890 140 bng 25 250 50 0 empty empty ⬢ -611 37 0 87 #191919 #ffffff #191919;
#X obj 942 140 bng 25 250 50 0 empty empty ⬢ -611 37 0 87 #191919 #ffffff #191919;
#X obj 994 140 bng 25 250 50 0 empty empty ⬢ -611 37 0 87 #191919 #ffffff #191919;
#X obj 1046 140 bng 25 250 50 0 empty empty ⬢ -611 37 0 87 #191919 #ffffff #191919;
#X obj 1098 140 bng 25 250 50 0 empty empty ⬢ -611 37 0 87 #191919 #ffffff #191919;
#X obj 1150 140 bng 25 250 50 0 empty empty ⬢ -611 37 0 87 #191919 #ffffff #191919;
#X obj 604 187 bng 25 250 50 0 empty empty ⬢ -611 37 0 87 #191919 #ffffff #191919;
#X obj 656 187 bng 25 250 50 0 empty empty ⬢ -611 37 0 87 #191919 #ffffff #191919;
#X obj 708 187 bng 25 250 50 0 empty empty ⬢ -611 37 0 87 #191919 #ffffff #191919;
#X obj 760 187 bng 25 250 50 0 empty empty ⬢ -611 37 0 87 #191919 #ffffff #191919;
#X obj 812 187 bng 25 250 50 0 empty empty ⬢ -611 37 0 87 #191919 #ffffff #191919;
#X obj 864 187 bng 25 250 50 0 empty empty ⬢ -611 37 0 87 #191919 #ffffff #191919;
#X obj 916 187 bng 25 250 50 0 empty empty ⬢ -611 37 0 87 #191919 #ffffff #191919;
#X obj 968 187 bng 25 250 50 0 empty empty ⬢ -611 37 0 87 #191919 #ffffff #191919;
#X obj 1020 187 bng 25 250 50 0 empty empty ⬢ -611 37 0 87 #191919 #ffffff #191919;
#X obj 1072 187 bng 25 250 50 0 empty empty ⬢ -611 37 0 87 #191919 #ffffff #191919;
#X obj 1124 187 bng 25 250 50 0 empty empty ⬢ -611 37 0 87 #191919 #ffffff #191919;
#X obj 630 234 bng 25 250 50 0 empty empty ⬢ -611 37 0 87 #191919 #ffffff #191919;
#X obj 682 234 bng 25 250 50 0 empty empty ⬢ -611 37 0 87 #191919 #ffffff #191919;
#X obj 734 234 bng 25 250 50 0 empty empty ⬢ -611 37 0 87 #191919 #ffffff #191919;
#X obj 786 234 bng 25 250 50 0 empty empty ⬢ -611 37 0 87 #191919 #ffffff #191919;
#X obj 838 234 bng 25 250 50 0 empty empty ⬢ -611 37 0 87 #191919 #ffffff #191919;
#X obj 890 234 bng 25 250 50 0 empty empty ⬢ -611 37 0 87 #191919 #ffffff #191919;
#X obj 942 234 bng 25 250 50 0 empty empty ⬢ -611 37 0 87 #191919 #ffffff #191919;
#X obj 994 234 bng 25 250 50 0 empty empty ⬢ -611 37 0 87 #191919 #ffffff #191919;
#X obj 1046 234 bng 25 250 50 0 empty empty ⬢ -611 37 0 87 #191919 #ffffff #191919;
#X obj 1098 234 bng 25 250 50 0 empty empty ⬢ -611 37 0 87 #191919 #ffffff #191919;
#X obj 1150 234 bng 25 250 50 0 empty empty ⬢ -611 37 0 87 #191919 #ffffff #191919;
#X obj 604 281 bng 25 250 50 0 empty empty ⬢ -611 37 0 87 #191919 #ffffff #191919;
#X obj 656 281 bng 25 250 50 0 empty empty ⬢ -611 37 0 87 #191919 #ffffff #191919;
#X obj 708 281 bng 25 250 50 0 empty empty ⬢ -611 37 0 87 #191919 #ffffff #191919;
#X obj 760 281 bng 25 250 50 0 empty empty ⬢ -611 37 0 87 #191919 #ffffff #191919;
#X obj 812 281 bng 25 250 50 0 empty empty ⬢ -611 37 0 87 #191919 #ffffff #191919;
#X obj 864 281 bng 25 250 50 0 empty empty ⬢ -611 37 0 87 #191919 #ffffff #191919;
#X obj 916 281 bng 25 250 50 0 empty empty ⬢ -611 37 0 87 #191919 #ffffff #191919;
#X obj 968 281 bng 25 250 50 0 empty empty ⬢ -611 37 0 87 #191919 #ffffff #191919;
#X obj 1020 281 bng 25 250 50 0 empty empty ⬢ -611 37 0 87 #191919 #ffffff #191919;
#X obj 1072 281 bng 25 250 50 0 empty empty ⬢ -611 37 0 87 #191919 #ffffff #191919;
#X obj 1124 281 bng 25 250 50 0 empty empty ⬢ -611 37 0 87 #191919 #ffffff #191919;
#X obj 630 328 bng 25 250 50 0 empty empty ⬢ -611 37 0 87 #191919 #ffffff #191919;
#X obj 682 328 bng 25 250 50 0 empty empty ⬢ -611 37 0 87 #191919 #ffffff #191919;
#X obj 734 328 bng 25 250 50 0 empty empty ⬢ -611 37 0 87 #191919 #ffffff #191919;
#X obj 786 328 bng 25 250 50 0 empty empty ⬢ -611 37 0 87 #191919 #ffffff #191919;
#X obj 838 328 bng 25 250 50 0 empty empty ⬢ -611 37 0 87 #191919 #ffffff #191919;
#X obj 890 328 bng 25 250 50 0 empty empty ⬢ -611 37 0 87 #191919 #ffffff #191919;
#X obj 942 328 bng 25 250 50 0 empty empty ⬢ -611 37 0 87 #191919 #ffffff #191919;
#X obj 994 328 bng 25 250 50 0 empty empty ⬢ -611 37 0 87 #191919 #ffffff #191919;
#X obj 1046 328 bng 25 250 50 0 empty empty ⬢ -611 37 0 87 #191919 #ffffff #191919;
#X obj 1098 328 bng 25 250 50 0 empty empty ⬢ -611 37 0 87 #191919 #ffffff #191919;
#X obj 1150 328 bng 25 250 50 0 empty empty ⬢ -611 37 0 87 #191919 #ffffff #191919;
#X obj 604 375 bng 25 250 50 0 empty empty ⬢ -611 37 0 87 #191919 #ffffff #191919;
#X obj 656 375 bng 25 250 50 0 empty empty ⬢ -611 37 0 87 #191919 #ffffff #191919;
#X obj 708 375 bng 25 250 50 0 empty empty ⬢ -611 37 0 87 #191919 #ffffff #191919;
#X obj 760 375 bng 25 250 50 0 empty empty ⬢ -611 37 0 87 #191919 #ffffff #191919;
#X obj 812 375 bng 25 250 50 0 empty empty ⬢ -611 37 0 87 #191919 #ffffff #191919;
#X obj 864 375 bng 25 250 50 0 empty empty ⬢ -611 37 0 87 #191919 #ffffff #191919;
#X obj 916 375 bng 25 250 50 0 empty empty ⬢ -611 37 0 87 #191919 #ffffff #191919;
#X obj 968 375 bng 25 250 50 0 empty empty ⬢ -611 37 0 87 #191919 #ffffff #191919;
#X obj 1020 375 bng 25 250 50 0 empty empty ⬢ -611 37 0 87 #191919 #ffffff #191919;
#X obj 1072 375 bng 25 250 50 0 empty empty ⬢ -611 37 0 87 #191919 #ffffff #191919;
#X obj 1124 375 bng 25 250 50 0 empty empty ⬢ -611 37 0 87 #191919 #ffffff #191919;
#X obj 630 422 bng 25 250 50 0 empty empty ⬢ -611 37 0 87 #191919 #ffffff #191919;
#X obj 682 422 bng 25 250 50 0 empty empty ⬢ -611 37 0 87 #191919 #ffffff #191919;
#X obj 734 422 bng 25 250 50 0 empty empty ⬢ -611 37 0 87 #191919 #ffffff #191919;
#X obj 786 422 bng 25 250 50 0 empty empty ⬢ -611 37 0 87 #191919 #ffffff #191919;
#X obj 838 422 bng 25 250 50 0 empty empty ⬢ -611 37 0 87 #191919 #ffffff #191919;
#X obj 890 422 bng 25 250 50 0 empty empty ⬢ -611 37 0 87 #191919 #ffffff #191919;
#X obj 942 422 bng 25 250 50 0 empty empty ⬢ -611 37 0 87 #191919 #ffffff #191919;
#X obj 994 422 bng 25 250 50 0 empty empty ⬢ -611 37 0 87 #191919 #ffffff #191919;
#X obj 1046 422 bng 25 250 50 0 empty empty ⬢ -611 37 0 87 #191919 #ffffff #191919;
#X obj 1098 422 bng 25 250 50 0 empty empty ⬢ -611 37 0 87 #191919 #ffffff #191919;
#X obj 1150 422 bng 25 250 50 0 empty empty ⬢ -611 37 0 87 #191919 #ffffff #191919;
#X obj 39 449 note 0 14 Inter empty 0 255 255 255 0 25 25 25 0 0 C4;
#X obj -191 -161 pitch2note;
#X obj -191 -201 + 60;
#X msg -191 -131 set \$1;
#X msg -251 -201 sharp;
#X msg -291 -201 flat;
#X obj -191 -241 loop 110;
#X obj -191 -281 bng 25 250 50 0 empty empty empty 17 7 0 10 #191919 #ffffff #ffffff;
#X obj -191 -91 router 110, f 282;
#X obj 90 449 note 0 14 Inter empty 0 255 255 255 0 25 25 25 0 0 C4;
#X obj 142 449 note 0 14 Inter empty 0 255 255 255 0 25 25 25 0 0 C4;
#X obj 194 449 note 0 14 Inter empty 0 255 255 255 0 25 25 25 0 0 C4;
#X obj 249 449 note 0 14 Inter empty 0 255 255 255 0 25 25 25 0 0 C4;
#X obj 299 449 note 0 14 Inter empty 0 255 255 255 0 25 25 25 0 0 C4;
#X obj 349 449 note 0 14 Inter empty 0 255 255 255 0 25 25 25 0 0 C4;
#X obj 400 449 note 0 14 Inter empty 0 255 255 255 0 25 25 25 0 0 C4;
#X obj 452 449 note 0 14 Inter empty 0 255 255 255 0 25 25 25 0 0 C4;
#X obj 504 449 note 0 14 Inter empty 0 255 255 255 0 25 25 25 0 0 C4;
#X obj 559 449 note 0 14 Inter empty 0 255 255 255 0 25 25 25 0 0 C4;
#X obj 12 404 note 0 14 Inter empty 0 255 255 255 0 25 25 25 0 0 C4;
#X obj 63 404 note 0 14 Inter empty 0 255 255 255 0 25 25 25 0 0 C4;
#X obj 115 404 note 0 14 Inter empty 0 255 255 255 0 25 25 25 0 0 C4;
#X obj 167 404 note 0 14 Inter empty 0 255 255 255 0 25 25 25 0 0 C4;
#X obj 222 404 note 0 14 Inter empty 0 255 255 255 0 25 25 25 0 0 C4;
#X obj 272 404 note 0 14 Inter empty 0 255 255 255 0 25 25 25 0 0 C4;
#X obj 322 404 note 0 14 Inter empty 0 255 255 255 0 25 25 25 0 0 C4;
#X obj 373 404 note 0 14 Inter empty 0 255 255 255 0 25 25 25 0 0 C4;
#X obj 425 404 note 0 14 Inter empty 0 255 255 255 0 25 25 25 0 0 C4;
#X obj 477 404 note 0 14 Inter empty 0 255 255 255 0 25 25 25 0 0 C4;
#X obj 532 404 note 0 14 Inter empty 0 255 255 255 0 25 25 25 0 0 C4;
#X obj 39 355 note 0 14 Inter empty 0 255 255 255 0 25 25 25 0 0 C4;
#X obj 90 355 note 0 14 Inter empty 0 255 255 255 0 25 25 25 0 0 C4;
#X obj 142 355 note 0 14 Inter empty 0 255 255 255 0 25 25 25 0 0 C4;
#X obj 194 355 note 0 14 Inter empty 0 255 255 255 0 25 25 25 0 0 C4;
#X obj 249 355 note 0 14 Inter empty 0 255 255 255 0 25 25 25 0 0 C4;
#X obj 299 355 note 0 14 Inter empty 0 255 255 255 0 25 25 25 0 0 C4;
#X obj 349 355 note 0 14 Inter empty 0 255 255 255 0 25 25 25 0 0 C4;
#X obj 400 355 note 0 14 Inter empty 0 255 255 255 0 25 25 25 0 0 C4;
#X obj 452 355 note 0 14 Inter empty 0 255 255 255 0 25 25 25 0 0 C4;
#X obj 504 355 note 0 14 Inter empty 0 255 255 255 0 25 25 25 0 0 C4;
#X obj 559 355 note 0 14 Inter empty 0 255 255 255 0 25 25 25 0 0 C4;
#X obj 12 310 note 0 14 Inter empty 0 255 255 255 0 25 25 25 0 0 C4;
#X obj 63 310 note 0 14 Inter empty 0 255 255 255 0 25 25 25 0 0 C4;
#X obj 115 310 note 0 14 Inter empty 0 255 255 255 0 25 25 25 0 0 C4;
#X obj 167 310 note 0 14 Inter empty 0 255 255 255 0 25 25 25 0 0 C4;
#X obj 222 310 note 0 14 Inter empty 0 255 255 255 0 25 25 25 0 0 C4;
#X obj 272 310 note 0 14 Inter empty 0 255 255 255 0 25 25 25 0 0 C4;
#X obj 322 310 note 0 14 Inter empty 0 255 255 255 0 25 25 25 0 0 C4;
#X obj 373 310 note 0 14 Inter empty 0 255 255 255 0 25 25 25 0 0 C4;
#X obj 425 310 note 0 14 Inter empty 0 255 255 255 0 25 25 25 0 0 C4;
#X obj 477 310 note 0 14 Inter empty 0 255 255 255 0 25 25 25 0 0 C4;
#X obj 532 310 note 0 14 Inter empty 0 255 255 255 0 25 25 25 0 0 C4;
#X obj 40 261 note 0 14 Inter empty 0 255 255 255 0 25 25 25 0 0 C4;
#X obj 91 261 note 0 14 Inter empty 0 255 255 255 0 25 25 25 0 0 C4;
#X obj 143 261 note 0 14 Inter empty 0 255 255 255 0 25 25 25 0 0 C4;
#X obj 195 261 note 0 14 Inter empty 0 255 255 255 0 25 25 25 0 0 C4;
#X obj 250 261 note 0 14 Inter empty 0 255 255 255 0 25 25 25 0 0 C4;
#X obj 300 261 note 0 14 Inter empty 0 255 255 255 0 25 25 25 0 0 C4;
#X obj 350 261 note 0 14 Inter empty 0 255 255 255 0 25 25 25 0 0 C4;
#X obj 401 261 note 0 14 Inter empty 0 255 255 255 0 25 25 25 0 0 C4;
#X obj 453 261 note 0 14 Inter empty 0 255 255 255 0 25 25 25 0 0 C4;
#X obj 505 261 note 0 14 Inter empty 0 255 255 255 0 25 25 25 0 0 C4;
#X obj 560 261 note 0 14 Inter empty 0 255 255 255 0 25 25 25 0 0 C4;
#X obj 13 216 note 0 14 Inter empty 0 255 255 255 0 25 25 25 0 0 C4;
#X obj 64 216 note 0 14 Inter empty 0 255 255 255 0 25 25 25 0 0 C4;
#X obj 116 216 note 0 14 Inter empty 0 255 255 255 0 25 25 25 0 0 C4;
#X obj 168 216 note 0 14 Inter empty 0 255 255 255 0 25 25 25 0 0 C4;
#X obj 223 216 note 0 14 Inter empty 0 255 255 255 0 25 25 25 0 0 C4;
#X obj 273 216 note 0 14 Inter empty 0 255 255 255 0 25 25 25 0 0 C4;
#X obj 323 216 note 0 14 Inter empty 0 255 255 255 0 25 25 25 0 0 C4;
#X obj 374 216 note 0 14 Inter empty 0 255 255 255 0 25 25 25 0 0 C4;
#X obj 426 216 note 0 14 Inter empty 0 255 255 255 0 25 25 25 0 0 C4;
#X obj 478 216 note 0 14 Inter empty 0 255 255 255 0 25 25 25 0 0 C4;
#X obj 533 216 note 0 14 Inter empty 0 255 255 255 0 25 25 25 0 0 C4;
#X obj 40 167 note 0 14 Inter empty 0 255 255 255 0 25 25 25 0 0 C4;
#X obj 91 167 note 0 14 Inter empty 0 255 255 255 0 25 25 25 0 0 C4;
#X obj 143 167 note 0 14 Inter empty 0 255 255 255 0 25 25 25 0 0 C4;
#X obj 195 167 note 0 14 Inter empty 0 255 255 255 0 25 25 25 0 0 C4;
#X obj 250 167 note 0 14 Inter empty 0 255 255 255 0 25 25 25 0 0 C4;
#X obj 300 167 note 0 14 Inter empty 0 255 255 255 0 25 25 25 0 0 C4;
#X obj 350 167 note 0 14 Inter empty 0 255 255 255 0 25 25 25 0 0 C4;
#X obj 401 167 note 0 14 Inter empty 0 255 255 255 0 25 25 25 0 0 C4;
#X obj 453 167 note 0 14 Inter empty 0 255 255 255 0 25 25 25 0 0 C4;
#X obj 505 167 note 0 14 Inter empty 0 255 255 255 0 25 25 25 0 0 C4;
#X obj 560 167 note 0 14 Inter empty 0 255 255 255 0 25 25 25 0 0 C4;
#X obj 13 122 note 0 14 Inter empty 0 255 255 255 0 25 25 25 0 0 C4;
#X obj 64 122 note 0 14 Inter empty 0 255 255 255 0 25 25 25 0 0 C4;
#X obj 116 122 note 0 14 Inter empty 0 255 255 255 0 25 25 25 0 0 C4;
#X obj 168 122 note 0 14 Inter empty 0 255 255 255 0 25 25 25 0 0 C4;
#X obj 223 122 note 0 14 Inter empty 0 255 255 255 0 25 25 25 0 0 C4;
#X obj 273 122 note 0 14 Inter empty 0 255 255 255 0 25 25 25 0 0 C4;
#X obj 323 122 note 0 14 Inter empty 0 255 255 255 0 25 25 25 0 0 C4;
#X obj 374 122 note 0 14 Inter empty 0 255 255 255 0 25 25 25 0 0 C4;
#X obj 426 122 note 0 14 Inter empty 0 255 255 255 0 25 25 25 0 0 C4;
#X obj 478 122 note 0 14 Inter empty 0 255 255 255 0 25 25 25 0 0 C4;
#X obj 533 122 note 0 14 Inter empty 0 255 255 255 0 25 25 25 0 0 C4;
#X obj 40 73 note 0 14 Inter empty 0 255 255 255 0 25 25 25 0 0 C4;
#X obj 91 73 note 0 14 Inter empty 0 255 255 255 0 25 25 25 0 0 C4;
#X obj 143 73 note 0 14 Inter empty 0 255 255 255 0 25 25 25 0 0 C4;
#X obj 195 73 note 0 14 Inter empty 0 255 255 255 0 25 25 25 0 0 C4;
#X obj 250 73 note 0 14 Inter empty 0 255 255 255 0 25 25 25 0 0 C4;
#X obj 300 73 note 0 14 Inter empty 0 255 255 255 0 25 25 25 0 0 C4;
#X obj 350 73 note 0 14 Inter empty 0 255 255 255 0 25 25 25 0 0 C4;
#X obj 401 73 note 0 14 Inter empty 0 255 255 255 0 25 25 25 0 0 C4;
#X obj 453 73 note 0 14 Inter empty 0 255 255 255 0 25 25 25 0 0 C4;
#X obj 505 73 note 0 14 Inter empty 0 255 255 255 0 25 25 25 0 0 C4;
#X obj 560 73 note 0 14 Inter empty 0 255 255 255 0 25 25 25 0 0 C4;
#X obj 13 28 note 0 14 Inter empty 0 255 255 255 0 25 25 25 0 0 C4;
#X obj 64 28 note 0 14 Inter empty 0 255 255 255 0 25 25 25 0 0 C4;
#X obj 116 28 note 0 14 Inter empty 0 255 255 255 0 25 25 25 0 0 C4;
#X obj 168 28 note 0 14 Inter empty 0 255 255 255 0 25 25 25 0 0 C4;
#X obj 223 28 note 0 14 Inter empty 0 255 255 255 0 25 25 25 0 0 C4;
#X obj 273 28 note 0 14 Inter empty 0 255 255 255 0 25 25 25 0 0 C4;
#X obj 323 28 note 0 14 Inter empty 0 255 255 255 0 25 25 25 0 0 C4;
#X obj 374 28 note 0 14 Inter empty 0 255 255 255 0 25 25 25 0 0 C4;
#X obj 426 28 note 0 14 Inter empty 0 255 255 255 0 25 25 25 0 0 C4;
#X obj 478 28 note 0 14 Inter empty 0 255 255 255 0 25 25 25 0 0 C4;
#X obj 533 28 note 0 14 Inter empty 0 255 255 255 0 25 25 25 0 0 C4;
#X connect 112 0 114 0 empty;
#X connect 113 0 112 0 empty;
#X connect 114 0 119 0 empty;
#X connect 115 0 112 0 empty;
#X connect 116 0 112 0 empty;
#X connect 117 0 113 0 empty;
#X connect 117 0 119 1 empty;
#X connect 118 0 117 0 empty;
#X connect 119 0 111 0 empty;
#X coords 0 1 100 -1 601 501 1 0 0;
#X restore 609 -1 graph;
