#N canvas 827 239 527 327 12;
#X obj 79 209 osc~;
#X obj 79 139 mtof;
#X obj 159 19 r x-\$1;
#X obj 299 19 r y-\$1;
#X text 379 28 \$1 is the \$0 of the butt;
#X obj 79 69 \$2;
#X obj 79 19 loadbang;
#X obj 79 99 + 24;
#X obj 79 289 outlet~;
#X obj 79 249 *~ 1;
#X obj 299 49 - 25;
#X obj 159 49 - 25;
#X obj 299 79 / 100;
#X obj 299 109 + 1;
#X obj 159 79 / 100;
#X obj 159 109 expr pow(2 \, $f1/12);
#X obj 79 179 * 1;
#X obj 159 139 t b f;
#X connect 0 0 9 0 empty;
#X connect 1 0 16 0 empty;
#X connect 2 0 11 0 empty;
#X connect 3 0 10 0 empty;
#X connect 5 0 7 0 empty;
#X connect 6 0 5 0 empty;
#X connect 7 0 1 0 empty;
#X connect 9 0 8 0 empty;
#X connect 10 0 12 0 empty;
#X connect 11 0 14 0 empty;
#X connect 12 0 13 0 empty;
#X connect 13 0 9 1 empty;
#X connect 14 0 15 0 empty;
#X connect 15 0 17 0 empty;
#X connect 16 0 0 0 empty;
#X connect 17 0 16 0 empty;
#X connect 17 1 16 1 empty;
