#N canvas 827 239 527 327 12;
#X obj 149 269 dac~;
#X obj 178 187 nbx 4 18 0 8000 0 1 empty empty empty 0 -8 0 10 #191919 #ffffff #ffffff 41 256;
#X obj 234 187 nbx 4 18 0 8000 0 1 empty empty empty 0 -8 0 10 #191919 #ffffff #ffffff 576 256;
#X obj 288 187 nbx 4 18 0 1 0 1 empty empty empty 0 -8 0 10 #191919 #ffffff #ffffff 0.6 256;
#X obj 342 187 nbx 4 18 0 8000 0 1 empty empty empty 0 -8 0 10 #191919 #ffffff #ffffff 515 256;
#X obj 149 29 r owo-note;
#X obj 178 59 r owo-vel;
#X obj 149 229 clone -s 1 synth-abs 8;
#X text 179 168 ---------------adsr------------------;
#X obj 149 89 poly 8;
#X obj 149 129 pack f f f f f;
#X obj 219 89 r owo-bend;
#X obj 309 89 r owo-amp;
#X connect 1 0 7 1 empty;
#X connect 2 0 7 2 empty;
#X connect 3 0 7 3 empty;
#X connect 4 0 7 4 empty;
#X connect 5 0 9 0 empty;
#X connect 6 0 9 1 empty;
#X connect 7 0 0 0 empty;
#X connect 7 0 0 1 empty;
#X connect 9 0 10 0 empty;
#X connect 9 1 10 1 empty;
#X connect 9 2 10 2 empty;
#X connect 10 0 7 0 empty;
#X connect 11 0 10 3 empty;
#X connect 12 0 10 4 empty;
