#N canvas 827 239 527 327 12;
#X obj 79 149 osc~;
#X obj 79 199 *~;
#X obj 79 99 mtof;
#X obj 79 19 inlet;
#X obj 79 59 unpack f f;
#X obj 129 149 adsr~ \$1 \$2 \$3 \$4;
#X obj 79 239 throw~ owout;
#X connect 0 0 1 0 empty;
#X connect 1 0 6 0 empty;
#X connect 2 0 0 0 empty;
#X connect 3 0 4 0 empty;
#X connect 4 0 2 0 empty;
#X connect 4 1 5 0 empty;
#X connect 5 0 1 1 empty;
