#N canvas 827 239 527 327 12;
#X obj 149 269 dac~;
#X obj 178 187 nbx 4 18 0 8000 0 1 empty empty empty 0 -8 0 10 #191919 #ffffff #ffffff 41 256;
#X obj 234 187 nbx 4 18 0 8000 0 1 empty empty empty 0 -8 0 10 #191919 #ffffff #ffffff 576 256;
#X obj 288 187 nbx 4 18 0 1 0 1 empty empty empty 0 -8 0 10 #191919 #ffffff #ffffff 0.6 256;
#X obj 342 187 nbx 4 18 0 8000 0 1 empty empty empty 0 -8 0 10 #191919 #ffffff #ffffff 515 256;
#X obj 149 89 poly;
#X obj 149 129 pack f f f;
#X obj 149 29 r owo-note;
#X obj 178 59 r owo-vel;
#X obj 149 229 clone -s 1 synth-abs 8;
#X text 179 168 ---------------adsr------------------;
#X connect 1 0 9 1 empty;
#X connect 2 0 9 2 empty;
#X connect 3 0 9 3 empty;
#X connect 4 0 9 4 empty;
#X connect 5 0 6 0 empty;
#X connect 5 1 6 1 empty;
#X connect 5 2 6 2 empty;
#X connect 6 0 9 0 empty;
#X connect 7 0 5 0 empty;
#X connect 8 0 5 1 empty;
#X connect 9 0 0 0 empty;
#X connect 9 0 0 1 empty;
