#N canvas 827 239 527 327 12;
#X obj 79 149 osc~;
#X obj 79 199 *~;
#X obj 259 149 adsr~;
#X obj 79 99 mtof;
#X obj 79 249 outlet~;
#X obj 79 19 inlet;
#X obj 229 29 inlet~;
#X obj 279 29 inlet~;
#X obj 332 29 inlet~;
#X obj 385 29 inlet~;
#X obj 79 59 unpack f f;
#X connect 0 0 1 0 empty;
#X connect 1 0 4 0 empty;
#X connect 2 0 1 1 empty;
#X connect 3 0 0 0 empty;
#X connect 5 0 10 0 empty;
#X connect 6 0 2 1 empty;
#X connect 7 0 2 2 empty;
#X connect 8 0 2 3 empty;
#X connect 9 0 2 4 empty;
#X connect 10 0 3 0 empty;
#X connect 10 1 2 0 empty;
