#N canvas 827 239 527 327 12;
#X obj 79 199 osc~;
#X obj 79 239 *~;
#X obj 259 149 adsr~;
#X obj 79 99 mtof;
#X obj 79 299 outlet~;
#X obj 79 19 inlet;
#X obj 229 29 inlet~;
#X obj 279 29 inlet~;
#X obj 332 29 inlet~;
#X obj 385 29 inlet~;
#X obj 79 59 unpack f f f f;
#X obj 79 269 *~;
#X obj 89 132 t b f;
#X obj 79 169 *;
#X connect 0 0 1 0 empty;
#X connect 1 0 11 0 empty;
#X connect 2 0 1 1 empty;
#X connect 3 0 13 0 empty;
#X connect 5 0 10 0 empty;
#X connect 6 0 2 1 empty;
#X connect 7 0 2 2 empty;
#X connect 8 0 2 3 empty;
#X connect 9 0 2 4 empty;
#X connect 10 0 3 0 empty;
#X connect 10 1 2 0 empty;
#X connect 10 2 12 0 empty;
#X connect 10 3 11 1 empty;
#X connect 11 0 4 0 empty;
#X connect 12 0 13 0 empty;
#X connect 12 1 13 1 empty;
#X connect 13 0 0 0 empty;
