#N canvas 827 239 527 327 12;
#X obj 79 199 osc~;
#X obj 79 249 *~;
#X obj 79 159 mtof;
#X obj 239 29 r x-\$1;
#X obj 299 29 r y-\$1;
#X text 379 28 \$1 is the \$0 of the butt;
#X obj 79 69 \$2;
#X obj 79 19 loadbang;
#X obj 79 99 + 24;
#X obj 189 199 adsr~ \$3 \$4 \$5 \$6;
#X obj 79 289 outlet~;
#X msg 189 149 127;
#X obj 239 119 r low-\$1;
#X msg 239 149 0;
#X connect 0 0 1 0 empty;
#X connect 1 0 10 0 empty;
#X connect 2 0 0 0 empty;
#X connect 6 0 8 0 empty;
#X connect 7 0 6 0 empty;
#X connect 7 0 11 0 empty;
#X connect 8 0 2 0 empty;
#X connect 9 0 1 1 empty;
#X connect 11 0 9 0 empty;
#X connect 12 0 13 0 empty;
#X connect 13 0 9 0 empty;
