#N canvas 827 239 527 327 12;
#N canvas 0 50 450 300 exp 1;
#X obj 129 39 osc~ 440;
#X obj 204 39 osc~ 440;
#X obj 279 39 osc~ 440;
#X obj 354 39 osc~ 440;
#X obj 429 39 osc~ 440;
#X obj 504 39 osc~ 440;
#X obj 529 99 osc~ 440;
#X obj 549 159 osc~ 440;
#X obj 129 259 expr~ $v1*$v2*$v3*$v4*$v5*$v6*$v7*$v8;
#X obj 129 319 outlet~;
#X connect 0 0 8 0 empty;
#X connect 1 0 8 1 empty;
#X connect 2 0 8 2 empty;
#X connect 3 0 8 3 empty;
#X connect 4 0 8 4 empty;
#X connect 5 0 8 5 empty;
#X connect 6 0 8 6 empty;
#X connect 7 0 8 7 empty;
#X connect 8 0 9 0 empty;
#X restore 9 9 pd exp;
