#N canvas 827 239 527 327 12;
#N canvas 0 50 450 300 mult 1;
#X obj 9 9 osc~ 440;
#X obj 84 9 osc~ 440;
#X obj 49 59 *~;
#X obj 159 9 osc~ 440;
#X obj 234 9 osc~ 440;
#X obj 309 9 osc~ 440;
#X obj 384 9 osc~ 440;
#X obj 99 99 *~;
#X obj 169 139 *~;
#X obj 219 169 *~;
#X obj 279 209 *~;
#X obj 419 49 osc~ 440;
#X obj 449 89 osc~ 440;
#X obj 321 249 *~;
#X obj 363 289 *~;
#X obj 359 329 outlet~;
#X connect 0 0 2 0 empty;
#X connect 1 0 2 1 empty;
#X connect 2 0 7 0 empty;
#X connect 3 0 7 1 empty;
#X connect 4 0 8 1 empty;
#X connect 5 0 9 1 empty;
#X connect 6 0 10 1 empty;
#X connect 7 0 8 0 empty;
#X connect 8 0 9 0 empty;
#X connect 9 0 10 0 empty;
#X connect 10 0 13 0 empty;
#X connect 11 0 13 1 empty;
#X connect 12 0 14 1 empty;
#X connect 13 0 14 0 empty;
#X connect 14 0 15 0 empty;
#X restore 9 9 pd mult;
