#N canvas 827 239 530 430 12;
#X msg 249 269 resize \$1;
#X obj 389 229 nbx 4 18 -1e+37 1e+37 0 0 empty empty empty 0 -8 0 10 #191919 #d4d4d4 #d4d4d4 0 256;
#X obj 299 389 dac~;
#X msg 149 239 all bang;
#X obj 229 299 clone g 4;
#X obj 299 349 /~ 1;
#X msg 59 139 all f \$1;
#X msg 59 194 all p \$1;
#X msg 59 249 all d \$1;
#X msg 59 309 all a \$1;
#X obj 339 49 nbx 4 18 0 1e+37 0 1 empty empty empty 0 -8 0 10 #191919 #d4d4d4 #d4d4d4 71 256;
#X obj 59 171 nbx 4 18 0 1 0 1 empty empty empty 0 -8 0 10 #191919 #d4d4d4 #d4d4d4 -0 256;
#X obj 59 226 nbx 4 18 0 64000 0 1 empty empty empty 0 -8 0 10 #191919 #d4d4d4 #d4d4d4 2077 256;
#X obj 59 286 nbx 4 18 0 2 0 1 empty empty empty 0 -8 0 10 #191919 #d4d4d4 #d4d4d4 1 256;
#X obj 189 -1 until;
#X msg 419 269 set \$1;
#X msg 189 -61 52;
#X obj 199 69 f;
#X obj 239 69 + 1;
#X obj 189 -31 t f b;
#X obj 189 29 t b b b;
#X msg 229 229 \$1 f \$2;
#X obj 179 189 pack f f;
#X msg 249 29 0;
#X obj 319 79 *;
#X obj 359 79 nbx 4 18 -1e+37 1e+37 0 1 empty empty empty 0 -8 0 10 #191919 #d4d4d4 #d4d4d4 58 256;
#X obj -51 39 metro 1 120 permin;
#X obj -47 6 tgl 25 0 empty empty empty 17 7 0 10 #191919 #d4d4d4 #d4d4d4 0 1;
#X obj -71 149 until;
#X obj -61 219 f;
#X obj -21 219 + 1;
#X obj -71 119 t f b;
#X obj -71 179 t b b b;
#X msg -11 179 0;
#X msg -71 89 25;
#X msg -61 289 \$1 bang;
#X obj -61 259 + 8;
#X obj 339 189 pack f f;
#X msg 309 229 \$1 d \$2;
#X obj 409 159 *;
#X obj 432 130 nbx 4 18 -1e+37 1e+37 0 1 empty empty empty 0 -8 0 10 #191919 #d4d4d4 #d4d4d4 14 256;
#X obj 449 159 nbx 4 18 0 64000 0 1 empty empty empty 0 -8 0 10 #191919 #d4d4d4 #d4d4d4 2 256;
#X obj 409 189 *;
#X text 149 168 triggers!;
#X obj 329 119 +;
#X connect 0 0 4 0;
#X connect 1 0 5 1 32.................y....f+++++L....3++++aF....;
#X connect 1 0 0 0 32.................K....r6++++B....69+++aA....;
#X connect 1 0 15 0;
#X connect 3 0 4 0 32.................R.....E...fD....PA...fB....;
#X connect 4 0 5 0;
#X connect 5 0 2 1;
#X connect 5 0 2 0;
#X connect 6 0 4 0 64.................G....7B...vA....u....bA...fQ....W....XD...fc....LB...XG....i....LB....;
#X connect 7 0 4 0 64.................F....TC...fA....0....TA...fQ....U....XD...vO....LB...7C....i....UA....;
#X connect 8 0 4 0 48.................I....7B...PB....u....XA....i....V....vH...fG....;
#X connect 9 0 4 0 48.................L....LE....C....SA...n8+++Oi....Z++++yH...v3++++;
#X connect 10 0 24 1;
#X connect 11 0 7 0;
#X connect 12 0 8 0;
#X connect 13 0 9 0;
#X connect 14 0 20 0;
#X connect 15 0 16 0 48.................O....PE...vC....TA...ro++++F++++a5+++uw++++n9+++;
#X connect 16 0 19 0;
#X connect 17 0 18 0;
#X connect 17 0 22 0;
#X connect 17 0 24 0;
#X connect 17 0 37 0;
#X connect 17 0 39 0;
#X connect 18 0 17 1;
#X connect 19 0 14 0;
#X connect 19 1 23 0;
#X connect 20 0 17 0;
#X connect 21 0 4 0;
#X connect 22 0 21 0;
#X connect 23 0 17 1;
#X connect 24 0 44 0;
#X connect 25 0 44 1;
#X connect 27 0 26 0;
#X connect 28 0 32 0;
#X connect 29 0 30 0;
#X connect 29 0 36 0;
#X connect 30 0 29 1;
#X connect 31 0 28 0;
#X connect 31 1 33 0;
#X connect 32 0 29 0;
#X connect 33 0 29 1;
#X connect 34 0 31 0;
#X connect 35 0 4 0;
#X connect 36 0 35 0;
#X connect 37 0 38 0;
#X connect 38 0 4 0;
#X connect 39 0 42 0;
#X connect 40 0 39 1;
#X connect 41 0 42 1;
#X connect 42 0 37 1;
#X connect 44 0 22 1;
