#N canvas 827 239 530 430 12;
#X msg 249 269 resize \$1;
#X obj 319 229 nbx 4 18 -1e+37 1e+37 0 0 empty empty empty 0 -8 0 10 #191919 #d4d4d4 #d4d4d4 0 256;
#X obj 299 389 dac~;
#X msg 149 239 all bang;
#X obj 229 299 clone g 4;
#X obj 299 349 /~ 1;
#X msg 59 139 all f \$1;
#X msg 59 194 all p \$1;
#X msg 59 249 all d \$1;
#X msg 59 309 all a \$1;
#X obj 59 116 nbx 4 18 0 1e+37 0 1 empty empty empty 0 -8 0 10 #191919 #d4d4d4 #d4d4d4 0 256;
#X obj 59 171 nbx 4 18 0 1 0 1 empty empty empty 0 -8 0 10 #191919 #d4d4d4 #d4d4d4 0 256;
#X obj 59 226 nbx 4 18 0 64 0 1 empty empty empty 0 -8 0 10 #191919 #d4d4d4 #d4d4d4 0 256;
#X obj 59 286 nbx 4 18 0 2 0 1 empty empty empty 0 -8 0 10 #191919 #d4d4d4 #d4d4d4 0 256;
#X obj 169 79 until;
#X msg 349 269 set \$1;
#X msg 169 19 16;
#X obj 229 159 f;
#X obj 269 159 + 1;
#X obj 169 49 t f b;
#X obj 169 109 t b b b;
#X connect 0 0 4 0;
#X connect 1 0 5 1 32.................y....f+++++L....3++++aF....;
#X connect 1 0 0 0 32.................K....r6++++B....69+++aA....;
#X connect 1 0 15 0;
#X connect 3 0 4 0 32.................R.....E...fD....PA...fB....;
#X connect 4 0 5 0;
#X connect 5 0 2 1;
#X connect 5 0 2 0;
#X connect 6 0 4 0 64.................G....7B...vA....u....bA...fQ....W....XD...fc....LB...XG....i....LB....;
#X connect 7 0 4 0 64.................F....TC...fA....0....TA...fQ....U....XD...vO....LB...7C....i....UA....;
#X connect 8 0 4 0 48.................I....7B...PB....u....XA....i....V....vH...fG....;
#X connect 9 0 4 0 48.................L....LE....C....SA...n8+++Oi....Z++++yH...v3++++;
#X connect 10 0 6 0;
#X connect 11 0 7 0;
#X connect 12 0 8 0;
#X connect 13 0 9 0;
#X connect 14 0 20 0;
#X connect 15 0 16 0 48.................O....LC...vC....y....ft+++eS++++n6+++2z++++79+++;
#X connect 16 0 19 0;
#X connect 17 0 18 0;
#X connect 18 0 17 1;
#X connect 19 0 14 0;
#X connect 20 0 17 0;
