#N canvas 827 239 530 390 12;
#X obj 79 139 osc~;
#X obj 119 19 inlet;
#X obj 169 209 line 0 1;
#X obj 169 239 exp;
#X obj 159 349 outlet~;
#X msg 149 89 set 0 \, addcomma \, add2 -10 \$1;
#X msg 169 179 0 \, -10 0;
#X obj 79 279 *~ 0;
#X obj 289 289 *~ 1;
#X obj 119 49 route f p d bang a;
#X connect 0 0 7 0;
#X connect 1 0 9 0;
#X connect 2 0 3 0;
#X connect 3 0 7 1;
#X connect 5 0 6 0;
#X connect 6 0 2 0;
#X connect 7 0 8 0;
#X connect 8 0 4 0;
#X connect 9 0 0 0;
#X connect 9 1 0 1;
#X connect 9 2 5 0;
#X connect 9 3 6 0;
#X connect 9 4 8 1;
