#N canvas 827 239 527 327 12;
#X obj 289 109 savestate;
#N canvas 0 50 450 250 (subpatch) 0;
#X array internal1 9 float 2;
#X coords 0 1 9 -1 200 140 1;
#X restore -1 19 graph;
#N canvas 0 50 450 250 (subpatch) 0;
#X array internal2 9 float 2;
#X coords 0 1 9 -1 200 140 1;
#X restore -1 169 graph;
#X obj 239 359 array set internal1;
#X obj 439 259 array get internal1;
#X obj 429 309 array get internal2;
#X obj 399 189 t b b;
#X obj 369 359 array set internal2;
#X obj 289 269 router;
#X obj 289 139 t b a;
#X msg 319 239 1;
#X connect 0 0 9 0 empty;
#X connect 0 1 6 0 empty;
#X connect 4 0 0 0 empty;
#X connect 5 0 0 0 empty;
#X connect 6 0 5 0 empty;
#X connect 6 1 4 0 empty;
#X connect 8 0 3 0 empty;
#X connect 8 1 7 0 empty;
#X connect 9 0 10 0 empty;
#X connect 9 1 8 0 empty;
#X connect 10 0 8 1 empty;
#X coords 0 0 1 1 201 311 1 0 0;
