#N canvas 827 239 527 327 12;
#N canvas 0 50 450 250 (subpatch) 0;
#X text 0 0 plugdatainfo <?xml version="1.0" encoding="UTF-8"?> <plugdatainfo/>;
#X coords 0 1 100 -1 1 1 1;
#X restore 0 0 graph;
#X obj 218 204 svfilter~;
#X obj 218 85 lorenz~;
#X obj 218 335 dac~;
#X obj 241 127 nbx 4 18 -1e+37 1e+37 0 1 empty empty empty 0 -8 0 10 #191919 #ffffff #ffffff 6140 256;
#X obj 265 159 nbx 4 18 -1e+37 1e+37 0 1 empty empty empty 0 -8 0 10 #191919 #ffffff #ffffff 0.5 256;
#X obj 218 289 downsample~ 14000;
#X obj 237 260 downsample~ 14000;
#X connect 1 0 6 0;
#X connect 1 0 7 0;
#X connect 2 0 1 0;
#X connect 4 0 1 1;
#X connect 5 0 1 2;
#X connect 6 0 3 0;
#X connect 7 0 3 1;
