#N canvas 827 239 706 327 12;
#X msg 9 39 n \$1;
#X obj 9 9 nbx 4 18 -1e+37 1e+37 0 1 empty empty empty 0 -8 0 10 #191919 #ffffff #ffffff 64 256;
#X msg 129 39 height \$1;
#X obj 128 9 nbx 4 18 -1e+37 1e+37 0 1 empty empty empty 0 -8 0 10 #191919 #ffffff #ffffff 240 256;
#X msg 209 39 uni \$1;
#X obj 209 3 tgl 25 1 empty empty empty 17 7 0 10 #191919 #ffffff #ffffff 0 1;
#X obj 58 9 nbx 4 18 -1e+37 1e+37 0 1 empty empty empty 0 -8 0 10 #191919 #ffffff #ffffff 470 256;
#X msg 59 39 width \$1;
#X msg 269 39 spacing \$1;
#X obj 269 9 nbx 4 18 -1e+37 1e+37 0 1 empty empty empty 0 -8 0 10 #191919 #ffffff #ffffff 3 256;
#X msg 529 39 rndclr;
#X msg 589 39 restore;
#X obj 439 2 tgl 25 1 empty empty empty 17 7 0 10 #191919 #ffffff #ffffff 1 1;
#X msg 439 39 coloring \$1;
#X msg 359 39 xoffset \$1;
#X obj 359 9 nbx 4 18 -1e+37 1e+37 0 1 empty empty empty 0 -8 0 10 #191919 #ffffff #ffffff 3 256;
#X obj 489 299 array define -k arr;
#A resize 64;
#A 0 0.925 0.9 0.85 0.833333 0.825 0.783333 0.75 0.725 0.691667 0.658333 0.633333 0.591667 0.566667 0.525 0.491667 0.458333 0.441667 0.408333 0.366667 0.341667 0.308333 0.275 0.25 0.216667 0.2 0.166667 0.15 0.116667 0.1 0.0833334 0.0666667 0.0333333 0.0166667 -0.00833333 -0.0333334 -0.05 -0.075 -0.0916666 -0.116667 -0.141667 -0.183333 -0.208333 -0.216667 -0.266667 -0.291667 -0.333333 -0.375 -0.416667 -0.45 -0.491667 -0.516667 -0.575 -0.625 -0.666667 -0.683333 -0.725 -0.766667 -0.808333 -0.825 -0.841667 -0.858333 -0.891667 -0.933333 -0.975;
#X obj 9 79 slidarr arr;
#X obj 549 119 nbx 4 18 15 1e+37 0 0 empty empty empty 0 -8 0 10 #191919 #ffffff #ffffff 0 256;
#X obj 489 109 tgl 25 0 empty empty empty 17 7 0 10 #191919 #ffffff #ffffff 0 1;
#X obj 569 269 dac~;
#X obj 489 209 readsf~ 2;
#X obj 509 149 metro 40;
#X obj 489 269 tabsend~;
#X msg 589 209 set arr;
#X msg 509 179 open [REDACTED];
#X connect 0 0 17 0 32.................O.........vC.........3A....;
#X connect 1 0 0 0 empty;
#X connect 1 0 11 0 32.................I....Pj...PB....DI...v.....;
#X connect 2 0 17 0 32.................O....j3++++C....I9+++6A....;
#X connect 3 0 2 0 empty;
#X connect 3 0 11 0 32.................I....zb...PB....MG...v.....;
#X connect 4 0 17 0 32.................O....jy++++C....47+++6A....;
#X connect 5 0 4 0 empty;
#X connect 5 0 11 0 32.................H....vW....B....7E...r.....;
#X connect 6 0 7 0 empty;
#X connect 6 0 11 0 32.................I....3f...PB....NH...v.....;
#X connect 7 0 17 0 32.................O....77++++C....O++++6A....;
#X connect 8 0 17 0 32.................O....zu++++C....86+++6A....;
#X connect 9 0 8 0 empty;
#X connect 9 0 11 0 32.................I.....T...PB.....E...v.....;
#X connect 10 0 17 0 32.................O....je++++C....42+++6A....;
#X connect 11 0 17 0 32.................O....za++++C....81+++6A....;
#X connect 12 0 13 0 empty;
#X connect 13 0 17 0 32.................O....Lk++++C....S4+++6A....;
#X connect 14 0 17 0 32.................O....Lp++++C....i5+++6A....;
#X connect 15 0 14 0 empty;
#X connect 15 0 11 0 32.................I....XN...PB....lC...v.....;
#X connect 18 0 22 1 empty;
#X connect 19 0 22 0 empty;
#X connect 19 0 21 0 empty;
#X connect 21 0 20 0 empty;
#X connect 21 0 23 0 empty;
#X connect 21 1 20 1 empty;
#X connect 22 0 11 0 48.................E....fH...PA....HB...b2+++OT....28+++CE...ve++++;
#X connect 24 0 23 0 empty;
#X connect 25 0 21 0 empty;
#X connect 25 0 24 0 empty;
