#N canvas 827 239 757 327 12;
#X obj 9 79 slidarr arr;
#A saved 64 0 512 240 1 2 1 1 #191919;
#X obj 289 -1 tgl 25 0 empty empty empty 17 7 0 10 #191919 #ffffff #ffffff 0 1;
#X obj 559 119 dac~;
#X obj 534 69 readsf~ 2;
#X msg 289 53 sync;
#X obj 289 29 metro 16.666;
#X msg 549 39 open breathe.exe.007.wav;
#X obj 534 299 tabsend~ arr;
#N canvas 0 50 450 250 (subpatch) 0;
#X array arr-r 64 float 2;
#X coords 0 360 64 0 84 42 1;
#X restore 9 23 graph;
#N canvas 0 50 450 250 (subpatch) 0;
#X array arr-g 64 float 2;
#X coords 0 100 64 0 84 42 1;
#X restore 99 23 graph;
#N canvas 0 50 450 250 (subpatch) 0;
#X array arr-b 64 float 2;
#X coords 0 50 64 0 84 42 1;
#X restore 189 23 graph;
#X obj 619 109 +~ 1;
#X obj 619 139 /~ 2;
#X obj 649 169 *~ 100;
#X obj 649 199 tabsend~ arr-g;
#X obj 619 277 tabsend~ arr-r;
#X obj 619 227 *~ 1400;
#X obj 619 252 modulo~ 360;
#X obj 569 9 array define arr;
#X connect 1 0 5 0 empty;
#X connect 1 0 3 0 32.................C....3F...v.....tA...zB....;
#X connect 3 0 2 0 empty;
#X connect 3 0 7 0 empty;
#X connect 3 1 2 1 empty;
#X connect 3 1 11 0 empty;
#X connect 4 0 0 0 32.................B....zk+++u.....c4+++a.....;
#X connect 5 0 4 0 empty;
#X connect 6 0 3 0 32.................F....jF...fA....oA...n.....;
#X connect 11 0 12 0 empty;
#X connect 12 0 13 0 empty;
#X connect 12 0 16 0 empty;
#X connect 13 0 14 0 empty;
#X connect 16 0 17 0 empty;
#X connect 17 0 15 0 empty;
