#N canvas 827 239 706 327 12;
#X obj 9 9 nbx 4 18 -1e+37 1e+37 0 0 empty empty empty 0 -8 0 10 #191919 #ffffff #ffffff 0 256;
#X msg 159 44 height \$1;
#X obj 158 9 nbx 4 18 -1e+37 1e+37 0 0 empty empty empty 0 -8 0 10 #191919 #ffffff #ffffff 0 256;
#X msg 239 44 uni \$1;
#X obj 239 3 tgl 25 0 empty empty empty 17 7 0 10 #191919 #ffffff #ffffff 0 1;
#X obj 88 9 nbx 4 18 -1e+37 1e+37 0 0 empty empty empty 0 -8 0 10 #191919 #ffffff #ffffff 0 256;
#X msg 89 44 width \$1;
#X msg 299 44 spacing \$1;
#X obj 299 9 nbx 4 18 -1e+37 1e+37 0 0 empty empty empty 0 -8 0 10 #191919 #ffffff #ffffff 0 256;
#X msg 559 44 rndclr;
#X msg 619 44 restore;
#X obj 469 2 tgl 25 0 empty empty empty 17 7 0 10 #191919 #ffffff #ffffff 0 1;
#X msg 469 44 coloring \$1;
#X msg 389 44 xoffset \$1;
#X obj 389 9 nbx 4 18 -1e+37 1e+37 0 0 empty empty empty 0 -8 0 10 #191919 #ffffff #ffffff 0 256;
#X obj 489 289 array define -k arr;
#A resize 64;
#A 0 0.925 0.9 0.85 0.833333 0.825 0.783333 0.75 0.725 0.691667 0.658333 0.633333 0.591667 0.566667 0.525 0.491667 0.458333 0.441667 0.408333 0.366667 0.341667 0.308333 0.275 0.25 0.216667 0.2 0.166667 0.15 0.116667 0.1 0.0833334 0.0666667 0.0333333 0.0166667 -0.00833333 -0.0333334 -0.05 -0.075 -0.0916666 -0.116667 -0.141667 -0.183333 -0.208333 -0.216667 -0.266667 -0.291667 -0.333333 -0.375 -0.416667 -0.45 -0.491667 -0.516667 -0.575 -0.625 -0.666667 -0.683333 -0.725 -0.766667 -0.808333 -0.825 -0.841667 -0.858333 -0.891667 -0.933333 -0.975;
#X obj 9 79 slidarr arr;
#X obj 549 99 nbx 4 18 15 1e+37 0 0 empty empty empty 0 -8 0 10 #191919 #ffffff #ffffff 0 256;
#X obj 489 89 tgl 25 0 empty empty empty 17 7 0 10 #191919 #ffffff #ffffff 0 1;
#X obj 489 249 dac~;
#X obj 489 209 readsf~ 2;
#X obj 569 249 tabsend~;
#X msg 569 209 set arr;
#X msg 509 169 open [REDACTED];
#X msg 9 44 resize \$1;
#X obj 509 129 metro 15;
#X connect 0 0 24 0 empty;
#X connect 0 0 10 0 32.................I....Pj...PB....DI...v.....;
#X connect 1 0 16 0 32.................G....r1++++A....q8++++.....;
#X connect 2 0 1 0 empty;
#X connect 2 0 10 0 32.................I....zb...PB....MG...v.....;
#X connect 3 0 16 0 32.................G....rw++++A....a7++++.....;
#X connect 4 0 3 0 empty;
#X connect 4 0 10 0 32.................H....vW....B....7E...r.....;
#X connect 5 0 6 0 empty;
#X connect 5 0 10 0 32.................I....3f...PB....NH...v.....;
#X connect 6 0 16 0 32.................G....D6++++A....w9++++.....;
#X connect 7 0 16 0 32.................G....7s++++A....e6++++.....;
#X connect 8 0 7 0 empty;
#X connect 8 0 10 0 32.................I.....T...PB.....E...v.....;
#X connect 9 0 16 0 32.................G....rc++++A....a2++++.....;
#X connect 10 0 16 0 32.................G....7Y++++A....e1++++.....;
#X connect 11 0 12 0 empty;
#X connect 12 0 16 0 32.................G....Ti++++A....03++++.....;
#X connect 13 0 16 0 32.................G....Tn++++A....E5++++.....;
#X connect 14 0 13 0 empty;
#X connect 14 0 10 0 32.................I....XN...PB....lC...v.....;
#X connect 17 0 25 1 empty;
#X connect 18 0 20 0 empty;
#X connect 18 0 25 0 empty;
#X connect 20 0 19 0 empty;
#X connect 20 0 21 0 empty;
#X connect 20 1 19 1 empty;
#X connect 22 0 21 0 empty;
#X connect 23 0 20 0 empty;
#X connect 23 0 22 0 empty;
#X connect 24 0 16 0 32.................O.........vC.........3A....;
#X connect 25 0 10 0 48.................H....vJ....B....rB...r3+++ua....K9+++6F....l++++;
