#N canvas 827 239 520 420 12;
#X obj 1 1 pad 470 240 255 255 255;
#X obj -1 -1 cnv 15 472 242 empty bg\$0 empty 20 12 0 14 #191919 #ffffff 0;
#N canvas 0 50 450 300 sliders_\$0 1;
#X obj 3 79 cnv 2 5 41 empty sl01091 empty 20 12 0 14 #ffffff #ffffff 0;
#X obj 10 79 cnv 2 5 41 empty sl11091 empty 20 12 0 14 #ffffff #ffffff 0;
#X obj 17 79 cnv 2 5 41 empty sl21091 empty 20 12 0 14 #ffffff #ffffff 0;
#X obj 25 79 cnv 2 5 41 empty sl31091 empty 20 12 0 14 #ffffff #ffffff 0;
#X obj 32 81 cnv 2 5 39 empty sl41091 empty 20 12 0 14 #ffffff #ffffff 0;
#X obj 39 82 cnv 2 5 38 empty sl51091 empty 20 12 0 14 #ffffff #ffffff 0;
#X obj 47 84 cnv 2 5 36 empty sl61091 empty 20 12 0 14 #ffffff #ffffff 0;
#X obj 54 87 cnv 2 5 33 empty sl71091 empty 20 12 0 14 #ffffff #ffffff 0;
#X obj 61 88 cnv 2 5 32 empty sl81091 empty 20 12 0 14 #ffffff #ffffff 0;
#X obj 69 93 cnv 2 5 27 empty sl91091 empty 20 12 0 14 #ffffff #ffffff 0;
#X obj 76 96 cnv 2 5 24 empty sl101091 empty 20 12 0 14 #ffffff #ffffff 0;
#X obj 83 105 cnv 2 5 15 empty sl111091 empty 20 12 0 14 #ffffff #ffffff 0;
#X obj 91 109 cnv 2 5 11 empty sl121091 empty 20 12 0 14 #ffffff #ffffff 0;
#X obj 98 117 cnv 2 5 3 empty sl131091 empty 20 12 0 14 #ffffff #ffffff 0;
#X obj 105 120 cnv 2 5 2 empty sl141091 empty 20 12 0 14 #ffffff #ffffff 0;
#X obj 113 120 cnv 2 5 5 empty sl151091 empty 20 12 0 14 #ffffff #ffffff 0;
#X obj 120 120 cnv 2 5 10 empty sl161091 empty 20 12 0 14 #ffffff #ffffff 0;
#X obj 127 120 cnv 2 5 15 empty sl171091 empty 20 12 0 14 #ffffff #ffffff 0;
#X obj 135 120 cnv 2 5 20 empty sl181091 empty 20 12 0 14 #ffffff #ffffff 0;
#X obj 142 120 cnv 2 5 23 empty sl191091 empty 20 12 0 14 #ffffff #ffffff 0;
#X obj 149 120 cnv 2 5 27 empty sl201091 empty 20 12 0 14 #ffffff #ffffff 0;
#X obj 157 120 cnv 2 5 27 empty sl211091 empty 20 12 0 14 #ffffff #ffffff 0;
#X obj 164 120 cnv 2 5 30 empty sl221091 empty 20 12 0 14 #ffffff #ffffff 0;
#X obj 171 120 cnv 2 5 32 empty sl231091 empty 20 12 0 14 #ffffff #ffffff 0;
#X obj 179 120 cnv 2 5 33 empty sl241091 empty 20 12 0 14 #ffffff #ffffff 0;
#X obj 186 120 cnv 2 5 33 empty sl251091 empty 20 12 0 14 #ffffff #ffffff 0;
#X obj 193 120 cnv 2 5 33 empty sl261091 empty 20 12 0 14 #ffffff #ffffff 0;
#X obj 201 120 cnv 2 5 33 empty sl271091 empty 20 12 0 14 #ffffff #ffffff 0;
#X obj 208 120 cnv 2 5 33 empty sl281091 empty 20 12 0 14 #ffffff #ffffff 0;
#X obj 215 120 cnv 2 5 33 empty sl291091 empty 20 12 0 14 #ffffff #ffffff 0;
#X obj 223 120 cnv 2 5 30 empty sl301091 empty 20 12 0 14 #ffffff #ffffff 0;
#X obj 230 120 cnv 2 5 29 empty sl311091 empty 20 12 0 14 #ffffff #ffffff 0;
#X obj 238 120 cnv 2 5 24 empty sl321091 empty 20 12 0 14 #ffffff #ffffff 0;
#X obj 245 120 cnv 2 5 21 empty sl331091 empty 20 12 0 14 #ffffff #ffffff 0;
#X obj 252 120 cnv 2 5 14 empty sl341091 empty 20 12 0 14 #ffffff #ffffff 0;
#X obj 260 120 cnv 2 5 9 empty sl351091 empty 20 12 0 14 #ffffff #ffffff 0;
#X obj 267 120 cnv 2 5 2 empty sl361091 empty 20 12 0 14 #ffffff #ffffff 0;
#X obj 274 117 cnv 2 5 3 empty sl371091 empty 20 12 0 14 #ffffff #ffffff 0;
#X obj 282 110 cnv 2 5 10 empty sl381091 empty 20 12 0 14 #ffffff #ffffff 0;
#X obj 289 105 cnv 2 5 15 empty sl391091 empty 20 12 0 14 #ffffff #ffffff 0;
#X obj 296 99 cnv 2 5 21 empty sl401091 empty 20 12 0 14 #ffffff #ffffff 0;
#X obj 304 91 cnv 2 5 29 empty sl411091 empty 20 12 0 14 #ffffff #ffffff 0;
#X obj 311 88 cnv 2 5 32 empty sl421091 empty 20 12 0 14 #ffffff #ffffff 0;
#X obj 318 82 cnv 2 5 38 empty sl431091 empty 20 12 0 14 #ffffff #ffffff 0;
#X obj 326 81 cnv 2 5 39 empty sl441091 empty 20 12 0 14 #ffffff #ffffff 0;
#X obj 333 81 cnv 2 5 39 empty sl451091 empty 20 12 0 14 #ffffff #ffffff 0;
#X obj 340 78 cnv 2 5 42 empty sl461091 empty 20 12 0 14 #ffffff #ffffff 0;
#X obj 348 78 cnv 2 5 42 empty sl471091 empty 20 12 0 14 #ffffff #ffffff 0;
#X obj 355 78 cnv 2 5 42 empty sl481091 empty 20 12 0 14 #ffffff #ffffff 0;
#X obj 362 78 cnv 2 5 42 empty sl491091 empty 20 12 0 14 #ffffff #ffffff 0;
#X obj 370 78 cnv 2 5 42 empty sl501091 empty 20 12 0 14 #ffffff #ffffff 0;
#X obj 377 78 cnv 2 5 42 empty sl511091 empty 20 12 0 14 #ffffff #ffffff 0;
#X obj 384 78 cnv 2 5 42 empty sl521091 empty 20 12 0 14 #ffffff #ffffff 0;
#X obj 392 78 cnv 2 5 42 empty sl531091 empty 20 12 0 14 #ffffff #ffffff 0;
#X obj 399 78 cnv 2 5 42 empty sl541091 empty 20 12 0 14 #ffffff #ffffff 0;
#X obj 406 81 cnv 2 5 39 empty sl551091 empty 20 12 0 14 #ffffff #ffffff 0;
#X obj 414 87 cnv 2 5 33 empty sl561091 empty 20 12 0 14 #ffffff #ffffff 0;
#X obj 421 87 cnv 2 5 33 empty sl571091 empty 20 12 0 14 #ffffff #ffffff 0;
#X obj 428 87 cnv 2 5 33 empty sl581091 empty 20 12 0 14 #ffffff #ffffff 0;
#X obj 436 87 cnv 2 5 33 empty sl591091 empty 20 12 0 14 #ffffff #ffffff 0;
#X obj 443 91 cnv 2 5 29 empty sl601091 empty 20 12 0 14 #ffffff #ffffff 0;
#X obj 450 96 cnv 2 5 24 empty sl611091 empty 20 12 0 14 #ffffff #ffffff 0;
#X obj 458 96 cnv 2 5 24 empty sl621091 empty 20 12 0 14 #ffffff #ffffff 0;
#X obj 465 118 cnv 2 5 2 empty sl631091 empty 20 12 0 14 #ffffff #ffffff 0;
#X coords 0 0 1 1 472 242 2 0 0;
#X restore -1 -1 pd sliders_\$0;
#N canvas 0 50 380 410 construct 1;
#X msg 319 339 clear;
#X obj 19 109 loop;
#X obj 35 249 +;
#N canvas 0 50 450 300 calc-y-pos 0;
#X obj 39 269 outlet;
#X obj 139 99 / 2;
#X obj 39 69 select 0;
#X obj 39 179 f;
#X obj 79 109 b;
#X obj 199 169 f;
#X obj 209 29 r height_\$0;
#X obj 39 19 r uni_\$0;
#X connect 1 0 3 1 empty;
#X connect 2 0 3 0 empty;
#X connect 2 1 4 0 empty;
#X connect 3 0 0 0 empty;
#X connect 4 0 5 0 empty;
#X connect 5 0 0 0 empty;
#X connect 6 0 1 0 empty;
#X connect 6 0 5 1 empty;
#X connect 7 0 2 0 empty;
#X restore 81 249 pd calc-y-pos;
#X obj 19 163 t f f;
#X obj 189 249 -;
#X obj 129 119 swap;
#X obj 129 153 /;
#X obj 35 209 *;
#X obj 19 49 t f f b;
#X msg 19 319 obj \$2 \$3 cnv 2 \$4 0 empty sl\$1\$5 empty 20 12 0 14 #ffffff #ffffff 0, f 33;
#X obj 149 89 r width_\$0;
#X obj 19 19 r n_\$0;
#X obj 81 219 r xoffset_\$0;
#X obj 210 219 r spacing_\$0;
#X obj 199 189 s slider_width_\$0;
#X obj 19 369 s pd-sliders_\$0;
#X obj 19 289 pack f f f f \$0;
#X text 349 388 <3;
#X text 99 18 fill the graph area with evenly spaced cnv objects;
#X connect 0 0 16 0 32.................E....Ts+++eA....U6+++q.....;
#X connect 1 0 4 0 empty;
#X connect 2 0 17 1 empty;
#X connect 4 0 17 0 empty;
#X connect 4 1 8 0 32.................R....L....fD....C....PB....;
#X connect 5 0 17 3 32.................O....33++++C....N9+++SA....;
#X connect 6 0 7 0 empty;
#X connect 6 1 7 1 empty;
#X connect 7 0 8 1 32.................W....v5++++E....r9+++6B....;
#X connect 7 0 5 0 32.................l....vC...fI....7....vD....;
#X connect 7 0 15 0 32.................H....XD....B....FA....A....;
#X connect 8 0 2 0 empty;
#X connect 9 0 1 0 empty;
#X connect 9 1 6 0 32.................Q.....F...PD....fA...HC....;
#X connect 9 2 0 0 32.................F....7P...fA....OD...3P....;
#X connect 10 0 16 0 empty;
#X connect 11 0 6 1 empty;
#X connect 12 0 9 0 empty;
#X connect 13 0 2 1 32.................E....38+++eA....d++++q.....;
#X connect 14 0 5 1 empty;
#X connect 17 0 10 0 empty;
#X restore 509 159 pd construct;
#N canvas 0 50 450 300 resize 1;
#X msg 9 219 dim \$1 \$2;
#X obj 9 169 pack2;
#X obj 9 249 outlet;
#X obj 109 29 r height_\$0;
#X obj 9 29 r width_\$0;
#X msg 89 219 coords 0 0 1 1 \$1 \$2 2;
#X obj 139 119 + 2;
#X obj 89 119 + 2;
#X obj 89 249 s pd-sliders_\$0;
#X obj 89 169 pack2;
#X msg 239 219 coords 0 0 1 1 \$1 \$2 2;
#X obj 319 189 s bg\$0;
#X msg 319 159 vis_size \$1 \$2;
#X obj 239 249 s this\$1;
#X connect 0 0 2 0 empty;
#X connect 1 0 0 0 empty;
#X connect 3 0 1 1 empty;
#X connect 3 0 6 0 empty;
#X connect 4 0 1 0 empty;
#X connect 4 0 7 0 empty;
#X connect 5 0 8 0 empty;
#X connect 6 0 9 1 empty;
#X connect 7 0 9 0 empty;
#X connect 9 0 5 0 empty;
#X connect 9 0 10 0 empty;
#X connect 9 0 12 0 empty;
#X connect 10 0 13 0 empty;
#X connect 12 0 11 0 empty;
#X restore 9 -41 pd resize;
#N canvas 0 50 640 300 methods 1;
#N canvas 0 50 450 300 rndclr 0;
#X obj 129 9 inlet;
#X obj 129 119 rand.i 0 360;
#X msg 129 159 hsl \$1 100 50;
#X obj 129 49 loop;
#X obj 129 79 t b f;
#X obj 129 259 s;
#X msg 129 219 color \$1;
#X obj 129 189 colors;
#X obj 279 9 r n_\$0;
#X obj 269 129 pack f \$0;
#X msg 269 179 symbol sl\$1\$2;
#X connect 0 0 3 0 empty;
#X connect 1 0 2 0 empty;
#X connect 2 0 7 0 empty;
#X connect 3 0 4 0 empty;
#X connect 4 0 1 0 empty;
#X connect 4 1 9 0 empty;
#X connect 6 0 5 0 empty;
#X connect 7 0 6 0 empty;
#X connect 8 0 3 1 empty;
#X connect 9 0 10 0 empty;
#X connect 10 0 5 1 empty;
#X restore 259 129 pd rndclr;
#X obj 489 259 s coloring_\$0;
#X obj 134 259 s width_\$0;
#X obj 214 259 s height_\$0;
#X obj 69 259 s uni_\$0;
#X obj 9 259 s n_\$0;
#X obj 304 259 s spacing_\$0;
#X obj 9 9 inlet;
#X obj 304 96 s restore_\$0;
#X obj 9 79 max 1;
#X obj 399 259 s xoffset_\$0;
#X obj 469 29 loadbang;
#X text 469 8 and default arguments;
#X text 109 8 method routing;
#X obj 212 129 t b f;
#X obj 168 129 t b f;
#X obj 39 129 t b f;
#X obj 119 129 t b f;
#X obj 79 129 t b f;
#X obj 9 229 f;
#X obj 469 59 args;
#X obj 469 119 unpack s f f f f f f f;
#X obj 469 89 pack s 64 0 470 240 2 3 1;
#N canvas 0 50 450 300 bg 0;
#X obj 139 29 inlet;
#X msg 139 119 color \$1;
#X obj 139 179 s bg\$0;
#X text 209 118 set background cnv color;
#X obj 139 69 symbol;
#X connect 0 0 4 0 empty;
#X connect 1 0 2 0 empty;
#X connect 4 0 1 0 empty;
#X restore 349 69 pd bg;
#X obj 9 39 route resize uni width height spacing xoffset coloring rndclr restore bg fg, f 63;
#N canvas 0 50 450 300 fg 0;
#X obj 99 9 inlet;
#X obj 169 109 loop;
#X obj 169 139 t b f;
#X obj 89 259 s;
#X msg 89 199 color #ffffff;
#X obj 199 69 r n_\$0;
#X obj 179 179 pack f \$0;
#X msg 179 219 symbol sl\$1\$2;
#X obj 99 69 t b s;
#X msg 59 139 set color \$1;
#X text 169 8 loop through the sliders setting each one's color;
#X obj 99 37 symbol;
#X connect 0 0 11 0 empty;
#X connect 1 0 2 0 empty;
#X connect 2 0 4 0 empty;
#X connect 2 1 6 0 empty;
#X connect 4 0 3 0 empty;
#X connect 5 0 1 1 empty;
#X connect 6 0 7 0 empty;
#X connect 7 0 3 1 empty;
#X connect 8 0 1 0 empty;
#X connect 8 1 9 0 empty;
#X connect 9 0 4 0 empty;
#X connect 11 0 8 0 empty;
#X restore 399 69 pd fg;
#X connect 7 0 24 0 empty;
#X connect 9 0 19 0 empty;
#X connect 11 0 20 0 empty;
#X connect 14 0 19 0 empty;
#X connect 14 1 10 0 empty;
#X connect 15 0 19 0 empty;
#X connect 15 1 6 0 empty;
#X connect 16 0 19 0 empty;
#X connect 16 1 4 0 empty;
#X connect 17 0 19 0 empty;
#X connect 17 1 3 0 empty;
#X connect 18 0 19 0 empty;
#X connect 18 1 2 0 empty;
#X connect 19 0 5 0 empty;
#X connect 20 0 22 0 empty;
#X connect 21 0 8 0 empty;
#X connect 21 1 19 0 empty;
#X connect 21 2 4 0 empty;
#X connect 21 3 2 0 empty;
#X connect 21 4 3 0 empty;
#X connect 21 5 6 0 empty;
#X connect 21 6 10 0 empty;
#X connect 21 7 1 0 empty;
#X connect 22 0 21 0 empty;
#X connect 24 0 9 0 empty;
#X connect 24 1 16 0 empty;
#X connect 24 2 18 0 empty;
#X connect 24 3 17 0 empty;
#X connect 24 4 15 0 empty;
#X connect 24 5 14 0 empty;
#X connect 24 6 1 0 empty;
#X connect 24 7 0 0 empty;
#X connect 24 8 8 0 empty;
#X connect 24 9 23 0 empty;
#X connect 24 10 25 0 empty;
#X restore 129 319 pd methods;
#X obj 9 269 s pad_out_\$0;
#N canvas 0 50 520 440 move-slider 1;
#X obj 9 409 s;
#X obj 9 259 -;
#X msg 9 289 delta 0 \$1;
#X obj 80 234 * -1;
#X obj 9 229 t f f;
#X obj 80 197 moses 1;
#X msg 125 160 0;
#X obj 269 239 *;
#X obj 269 319 pack;
#X obj 80 319 pack;
#X msg 80 349 vis_size \$2 \$1;
#N canvas 0 50 450 300 set-pos 0;
#X obj 109 59 inlet;
#X obj 219 59 inlet;
#X obj 159 219 outlet;
#X msg 159 169 pos 465.656 120;
#X msg 219 109 set pos \$1 \$2;
#X text 389 278 moths;
#X connect 0 0 3 0 empty;
#X connect 1 0 4 0 empty;
#X connect 3 0 2 0 empty;
#X connect 4 0 3 0 empty;
#X restore 199 349 pd set-pos;
#X obj 269 279 +;
#X obj 80 92 * -1;
#X obj 399 159 f;
#X obj 399 189 t f f;
#X obj 80 124 t f b b b;
#X obj 79 59 *;
#X msg 409 349 symbol sl\$1\$2;
#X obj 109 9 r height_\$0;
#X obj 409 309 pack f \$0;
#X obj 409 129 r index_\$0;
#X obj 39 9 r yval_\$0;
#X obj 179 179 r slider_width_\$0;
#X obj 309 239 r xoffset_\$0;
#N canvas 0 50 450 300 calc-y-pos 0;
#X obj 39 269 outlet;
#X obj 139 99 / 2;
#X obj 39 69 select 0;
#X obj 39 179 f;
#X obj 79 109 b;
#X obj 159 169 f;
#X obj 219 19 r height_\$0;
#X obj 39 19 r uni_\$0;
#X connect 1 0 3 1 empty;
#X connect 2 0 3 0 empty;
#X connect 2 1 4 0 empty;
#X connect 3 0 0 0 empty;
#X connect 4 0 5 0 empty;
#X connect 5 0 0 0 empty;
#X connect 6 0 1 0 empty;
#X connect 6 0 5 1 empty;
#X connect 7 0 2 0 empty;
#X restore 309 279 pd calc-y-pos;
#X obj 119 279 -;
#X obj 169 239 r spacing_\$0;
#X text 479 408 :3;
#X text 239 18 scale and/or move [cnv] object \; index selects which one to move \; and y-value is the "slider" value;
#X connect 1 0 2 0 empty;
#X connect 2 0 0 0 empty;
#X connect 3 0 9 0 empty;
#X connect 4 0 1 1 empty;
#X connect 4 1 1 0 empty;
#X connect 5 0 4 0 empty;
#X connect 5 0 3 0 empty;
#X connect 5 1 9 0 empty;
#X connect 6 0 5 0 empty;
#X connect 7 0 12 0 empty;
#X connect 8 0 11 1 empty;
#X connect 9 0 10 0 empty;
#X connect 10 0 0 0 empty;
#X connect 11 0 0 0 empty;
#X connect 12 0 8 0 empty;
#X connect 13 0 16 0 empty;
#X connect 14 0 15 0 empty;
#X connect 15 0 7 0 empty;
#X connect 15 1 20 0 empty;
#X connect 16 0 5 0 empty;
#X connect 16 1 11 0 empty;
#X connect 16 2 6 0 empty;
#X connect 16 3 14 0 empty;
#X connect 17 0 13 0 empty;
#X connect 18 0 0 1 empty;
#X connect 19 0 17 1 empty;
#X connect 20 0 18 0 empty;
#X connect 21 0 14 1 empty;
#X connect 22 0 17 0 empty;
#X connect 23 0 26 0 empty;
#X connect 23 0 7 1 empty;
#X connect 24 0 12 1 empty;
#X connect 25 0 8 1 empty;
#X connect 26 0 9 1 empty;
#X connect 27 0 26 1 empty;
#X restore 509 129 pd move-slider;
#N canvas 0 50 380 384 draw 1;
#X obj 59 39 route click;
#X msg 289 249 resize \$1;
#X obj 199 179 /;
#X obj 108 69 unpack;
#X obj 59 179 /;
#X obj 59 99 spigot;
#X obj 49 259 - 0.5;
#X obj 199 299 int;
#X obj 59 9 r pad_out_\$0;
#X obj 49 359 s yval_\$0;
#X obj 219 349 s index_\$0;
#X obj 79 139 r height_\$0;
#X obj 229 109 r width_\$0;
#X obj 109 179 r uni_\$0;
#X obj 289 169 r n_\$0;
#X obj 109 229 router;
#X obj 69 299 * 2;
#X obj 199 259 *;
#X text 199 18 drawing on the pad \; and sending the result to the \; array and cnv objects;
#X obj 119 339 tabwrite \$1;
#X obj 289 279 s \$1;
#X connect 0 0 5 1 empty;
#X connect 0 1 3 0 empty;
#X connect 1 0 20 0 empty;
#X connect 2 0 17 0 empty;
#X connect 3 0 2 0 empty;
#X connect 3 1 5 0 empty;
#X connect 4 0 15 0 empty;
#X connect 5 0 4 0 empty;
#X connect 6 0 9 0 empty;
#X connect 6 0 16 0 empty;
#X connect 7 0 10 0 empty;
#X connect 7 0 19 1 empty;
#X connect 8 0 0 0 empty;
#X connect 11 0 4 1 empty;
#X connect 12 0 2 1 empty;
#X connect 13 0 15 1 empty;
#X connect 14 0 1 0 empty;
#X connect 14 0 17 1 empty;
#X connect 15 0 6 0 empty;
#X connect 15 1 9 0 empty;
#X connect 15 1 19 0 empty;
#X connect 16 0 19 0 empty;
#X connect 17 0 7 0 empty;
#X restore 509 99 pd draw;
#N canvas 0 50 450 300 color 1;
#X msg 39 169 hsl \$1 100 50;
#X msg 39 229 color \$1;
#X obj 39 199 colors;
#X obj 39 109 * 360;
#X obj 39 139 mod 360;
#X obj 39 19 r yval_\$0;
#X obj 39 79 spigot;
#X obj 69 49 r coloring_\$0;
#X obj 39 259 s;
#X msg 169 229 symbol sl\$1\$2;
#X obj 169 199 pack f \$0;
#X obj 169 169 r index_\$0;
#X text 119 8 what's even the point if you can't make your arrays gay af?;
#X connect 0 0 2 0 empty;
#X connect 1 0 8 0 empty;
#X connect 2 0 1 0 empty;
#X connect 3 0 4 0 empty;
#X connect 4 0 0 0 empty;
#X connect 5 0 6 0 empty;
#X connect 6 0 3 0 empty;
#X connect 7 0 6 1 empty;
#X connect 9 0 8 1 empty;
#X connect 10 0 9 0 empty;
#X connect 11 0 10 0 empty;
#X restore 509 69 pd color;
#X obj 129 289 inlet;
#N canvas 0 50 330 340 restore-from-arr 1;
#X obj 19 99 loop;
#X obj 59 59 r n_\$0;
#X obj 49 299 s yval_\$0;
#X obj 109 179 s index_\$0;
#X obj 19 139 t f f;
#X obj 19 259 / 2;
#X obj 199 179 r uni_\$0;
#X obj 19 219 router;
#X obj 19 19 r restore_\$0;
#X obj 19 179 tabread \$1;
#X obj 22 59 b;
#X text 139 238 loop the corresponding array \; (the array in the parent patch) \; and copy its contents to sliders \; this is triggered on creation \; and can be triggered using the \; "restore" message;
#X connect 0 0 4 0 empty;
#X connect 1 0 0 1 empty;
#X connect 4 0 9 0 empty;
#X connect 4 1 3 0 empty;
#X connect 5 0 2 0 empty;
#X connect 6 0 7 1 empty;
#X connect 7 0 5 0 empty;
#X connect 7 1 2 0 empty;
#X connect 8 0 10 0 empty;
#X connect 9 0 7 0 empty;
#X connect 10 0 0 0 empty;
#X restore 509 189 pd restore-from-arr;
#X obj 309 319 s index_\$0;
#X obj 229 319 s yval_\$0;
#X obj 309 289 inlet;
#X obj 229 289 inlet;
#X text 509 218 amy universe - 2023 \; github.com/tomara-x;
#X obj 349 249 namecanvas this\$1;
#X connect 0 0 6 0 empty;
#X connect 4 0 0 0 empty;
#X connect 10 0 5 0 empty;
#X connect 14 0 12 0 empty;
#X connect 15 0 13 0 empty;
#X coords 0 0 1 1 472 242 2 0 0;
