#N canvas 827 239 520 420 12;
#X obj 1 1 pad 470 240 255 255 255;
#X obj -1 -1 cnv 15 472 242 empty bg\$0 empty 20 12 0 14 #191919 #ffffff 0;
#N canvas 0 50 380 410 construct 1;
#X msg 319 339 clear;
#X obj 19 109 loop;
#X obj 35 249 +;
#N canvas 0 50 450 300 calc-y-pos 0;
#X obj 39 269 outlet;
#X obj 139 99 / 2;
#X obj 39 69 select 0;
#X obj 39 179 f;
#X obj 79 109 b;
#X obj 159 169 f;
#X obj 319 39 r height_\$0;
#X obj 39 19 r uni_\$0;
#X connect 1 0 3 1 empty;
#X connect 2 0 3 0 empty;
#X connect 2 1 4 0 empty;
#X connect 3 0 0 0 empty;
#X connect 4 0 5 0 empty;
#X connect 5 0 0 0 empty;
#X connect 6 0 1 0 empty;
#X connect 6 0 5 1 empty;
#X connect 7 0 2 0 empty;
#X restore 81 249 pd calc-y-pos;
#X obj 19 163 t f f;
#X obj 189 249 -;
#X obj 129 119 swap;
#X obj 129 153 /;
#X obj 35 209 *;
#X obj 19 49 t f f b;
#X msg 19 319 obj \$2 \$3 cnv 2 \$4 0 empty sl\$1\$5 empty 20 12 0 14 #ffffff #ffffff 0, f 33;
#X obj 149 89 r width_\$0;
#X obj 19 19 r n_\$0;
#X obj 81 219 r xoffset_\$0;
#X obj 210 219 r spacing_\$0;
#X obj 199 189 s slider_width_\$0;
#X obj 19 369 s pd-sliders_\$0;
#X obj 19 289 pack f f f f \$0;
#X connect 0 0 16 0 32.................E....Ts+++eA....U6+++q.....;
#X connect 1 0 4 0 empty;
#X connect 2 0 17 1 empty;
#X connect 3 0 17 2 32.................J....n9+++uB....p++++SA....;
#X connect 4 0 17 0 empty;
#X connect 4 1 8 0 32.................R....L....fD....C....PB....;
#X connect 5 0 17 3 32.................O....33++++C....N9+++SA....;
#X connect 6 0 7 0 empty;
#X connect 6 1 7 1 empty;
#X connect 7 0 8 1 32.................W....v5++++E....r9+++6B....;
#X connect 7 0 5 0 32.................l....vC...fI....7....vD....;
#X connect 7 0 15 0 32.................H....XD....B....FA....A....;
#X connect 8 0 2 0 empty;
#X connect 9 0 1 0 empty;
#X connect 9 1 6 0 32.................Q.....F...PD....fA...HC....;
#X connect 9 2 0 0 32.................F....7P...fA....OD...3P....;
#X connect 10 0 16 0 empty;
#X connect 11 0 6 1 empty;
#X connect 12 0 9 0 empty;
#X connect 13 0 2 1 32.................E....38+++eA....d++++q.....;
#X connect 14 0 5 1 empty;
#X connect 17 0 10 0 empty;
#X restore 509 159 pd construct;
#N canvas 0 50 450 300 resize 1;
#X msg 9 219 dim \$1 \$2;
#X obj 9 169 pack2;
#X obj 9 249 outlet;
#X obj 109 29 r height_\$0;
#X obj 9 29 r width_\$0;
#X msg 89 219 coords 0 0 1 1 \$1 \$2 2;
#X obj 139 119 + 2;
#X obj 89 119 + 2;
#X obj 89 249 s pd-sliders_\$0;
#X obj 89 169 pack2;
#X msg 239 219 coords 0 0 1 1 \$1 \$2 2;
#X obj 319 189 s bg\$0;
#X msg 319 159 vis_size \$1 \$2;
#X obj 239 249 s this\$1;
#X connect 0 0 2 0 empty;
#X connect 1 0 0 0 empty;
#X connect 3 0 1 1 empty;
#X connect 3 0 6 0 empty;
#X connect 4 0 1 0 empty;
#X connect 4 0 7 0 empty;
#X connect 5 0 8 0 empty;
#X connect 6 0 9 1 empty;
#X connect 7 0 9 0 empty;
#X connect 9 0 5 0 empty;
#X connect 9 0 10 0 empty;
#X connect 9 0 12 0 empty;
#X connect 10 0 13 0 empty;
#X connect 12 0 11 0 empty;
#X restore -1 -41 pd resize;
#N canvas 0 50 450 300 methods 1;
#X obj 9 119 nbx 4 18 1 1e+37 0 1 empty empty empty 0 -8 0 10 #191919 #ffffff #ffffff 64 256;
#X obj 87 69 nbx 4 18 0 1e+37 0 1 empty empty empty 0 -8 0 10 #191919 #ffffff #ffffff 240 256;
#X obj 48 95 nbx 4 18 0 1e+37 0 1 empty empty empty 0 -8 0 10 #191919 #ffffff #ffffff 470 256;
#N canvas 0 50 450 300 rndclr 0;
#X obj 129 9 inlet;
#X obj 129 119 rand.i 0 360;
#X msg 129 159 hsl \$1 100 50;
#X obj 129 49 loop;
#X obj 129 79 t b f;
#X obj 129 259 s;
#X msg 129 219 color \$1;
#X obj 129 189 colors;
#X obj 279 9 r n_\$0;
#X obj 269 129 pack f \$0;
#X msg 269 179 symbol sl\$1\$2;
#X connect 0 0 3 0 empty;
#X connect 1 0 2 0 empty;
#X connect 2 0 7 0 empty;
#X connect 3 0 4 0 empty;
#X connect 4 0 1 0 empty;
#X connect 4 1 9 0 empty;
#X connect 6 0 5 0 empty;
#X connect 7 0 6 0 empty;
#X connect 8 0 3 1 empty;
#X connect 9 0 10 0 empty;
#X connect 10 0 5 1 empty;
#X restore 282 129 pd rndclr;
#X obj 126 96 nbx 4 18 0 1 0 1 empty empty empty 0 -8 0 10 #191919 #ffffff #ffffff 0 256;
#X obj 243 159 s coloring_\$0;
#X obj 55 239 s width_\$0;
#X obj 130 239 s height_\$0;
#X obj 210 239 s uni_\$0;
#X obj 4 239 s n_\$0;
#X obj 204 99 nbx 4 18 0 1e+37 0 1 empty empty empty 0 -8 0 10 #191919 #ffffff #ffffff 2 256;
#X obj 165 69 nbx 4 18 0 1e+37 0 1 empty empty empty 0 -8 0 10 #191919 #ffffff #ffffff 2 256;
#X obj 271 239 s spacing_\$0;
#X obj 89 159 hot 6;
#X obj 9 9 inlet;
#X obj 9 39 route n width height uni spacing xoffset coloring rndclr restore;
#X obj 321 96 s restore_\$0;
#X obj 9 69 max 1;
#X obj 359 239 s xoffset_\$0;
#X connect 0 0 13 0 empty;
#X connect 1 0 13 2 empty;
#X connect 2 0 13 1 empty;
#X connect 4 0 13 3 empty;
#X connect 10 0 13 5 empty;
#X connect 11 0 13 4 empty;
#X connect 13 0 9 0 empty;
#X connect 13 1 6 0 empty;
#X connect 13 2 7 0 empty;
#X connect 13 3 8 0 empty;
#X connect 13 4 12 0 empty;
#X connect 13 5 18 0 empty;
#X connect 14 0 15 0 empty;
#X connect 15 0 17 0 empty;
#X connect 15 1 2 0 empty;
#X connect 15 2 1 0 empty;
#X connect 15 3 4 0 empty;
#X connect 15 4 11 0 empty;
#X connect 15 5 10 0 empty;
#X connect 15 6 5 0 empty;
#X connect 15 7 3 0 empty;
#X connect 15 8 16 0 empty;
#X connect 17 0 0 0 empty;
#X restore 149 -31 pd methods;
#X obj -1 249 s pad_out_\$0;
#N canvas 0 50 520 440 move-slider 1;
#X obj 9 409 s;
#X obj 9 259 -;
#X msg 9 289 delta 0 \$1;
#X obj 80 234 * -1;
#X obj 9 229 t f f;
#X obj 80 197 moses 1;
#X msg 125 160 0;
#X obj 269 239 *;
#X obj 269 319 pack;
#X obj 80 319 pack;
#X msg 80 349 vis_size \$2 \$1;
#N canvas 0 50 450 300 set-pos 0;
#X obj 109 59 inlet;
#X obj 219 59 inlet;
#X obj 159 219 outlet;
#X msg 159 169 pos 464.656 120;
#X msg 219 109 set pos \$1 \$2;
#X connect 0 0 3 0 empty;
#X connect 1 0 4 0 empty;
#X connect 3 0 2 0 empty;
#X connect 4 0 3 0 empty;
#X restore 199 349 pd set-pos;
#X obj 269 279 +;
#X obj 80 92 * -1;
#X obj 399 159 f;
#X obj 399 189 t f f;
#X obj 80 124 t f b b b;
#X obj 79 59 *;
#X msg 409 349 symbol sl\$1\$2;
#X obj 109 9 r height_\$0;
#X obj 409 309 pack f \$0;
#X obj 409 129 r index_\$0;
#X obj 39 9 r yval_\$0;
#X obj 179 179 r slider_width_\$0;
#X obj 309 239 r xoffset_\$0;
#N canvas 0 50 450 300 calc-y-pos 0;
#X obj 39 269 outlet;
#X obj 139 99 / 2;
#X obj 39 69 select 0;
#X obj 39 179 f;
#X obj 79 109 b;
#X obj 159 169 f;
#X obj 219 19 r height_\$0;
#X obj 39 19 r uni_\$0;
#X connect 1 0 3 1 empty;
#X connect 2 0 3 0 empty;
#X connect 2 1 4 0 empty;
#X connect 3 0 0 0 empty;
#X connect 4 0 5 0 empty;
#X connect 5 0 0 0 empty;
#X connect 6 0 1 0 empty;
#X connect 6 0 5 1 empty;
#X connect 7 0 2 0 empty;
#X restore 309 279 pd calc-y-pos;
#X obj 119 279 -;
#X obj 169 239 r spacing_\$0;
#X text 479 418 :3;
#X connect 1 0 2 0 empty;
#X connect 2 0 0 0 empty;
#X connect 3 0 9 0 empty;
#X connect 4 0 1 1 empty;
#X connect 4 1 1 0 empty;
#X connect 5 0 4 0 empty;
#X connect 5 0 3 0 empty;
#X connect 5 1 9 0 empty;
#X connect 6 0 5 0 empty;
#X connect 7 0 12 0 empty;
#X connect 8 0 11 1 empty;
#X connect 9 0 10 0 empty;
#X connect 10 0 0 0 empty;
#X connect 11 0 0 0 empty;
#X connect 12 0 8 0 empty;
#X connect 13 0 16 0 empty;
#X connect 14 0 15 0 empty;
#X connect 15 0 7 0 empty;
#X connect 15 1 20 0 empty;
#X connect 16 0 5 0 empty;
#X connect 16 1 11 0 empty;
#X connect 16 2 6 0 empty;
#X connect 16 3 14 0 empty;
#X connect 17 0 13 0 empty;
#X connect 18 0 0 1 empty;
#X connect 19 0 17 1 empty;
#X connect 20 0 18 0 empty;
#X connect 21 0 14 1 empty;
#X connect 22 0 17 0 empty;
#X connect 23 0 26 0 empty;
#X connect 23 0 7 1 empty;
#X connect 24 0 12 1 empty;
#X connect 25 0 8 1 empty;
#X connect 26 0 9 1 empty;
#X connect 27 0 26 1 empty;
#X restore 509 129 pd move-slider;
#N canvas 0 50 380 384 draw 1;
#X obj 59 39 route click;
#X msg 289 249 resize \$1;
#X obj 199 179 /;
#X obj 108 69 unpack;
#X obj 59 179 /;
#X obj 59 99 spigot;
#X obj 49 259 - 0.5;
#X obj 199 299 int;
#X obj 59 9 r pad_out_\$0;
#X obj 49 359 s yval_\$0;
#X obj 219 349 s index_\$0;
#X obj 79 139 r height_\$0;
#X obj 229 109 r width_\$0;
#X obj 109 179 r uni_\$0;
#X obj 289 169 r n_\$0;
#X obj 109 229 router;
#X obj 69 299 * 2;
#X obj 199 259 *;
#X text 199 18 drawing on the pad \; and sending the result to the \; array and cnv objects;
#X obj 119 339 tabwrite \$1;
#X obj 289 279 s \$1;
#X connect 0 0 5 1 empty;
#X connect 0 1 3 0 empty;
#X connect 1 0 20 0 empty;
#X connect 2 0 17 0 empty;
#X connect 3 0 2 0 empty;
#X connect 3 1 5 0 empty;
#X connect 4 0 15 0 empty;
#X connect 5 0 4 0 empty;
#X connect 6 0 9 0 empty;
#X connect 6 0 16 0 empty;
#X connect 7 0 10 0 empty;
#X connect 7 0 19 1 empty;
#X connect 8 0 0 0 empty;
#X connect 11 0 4 1 empty;
#X connect 12 0 2 1 empty;
#X connect 13 0 15 1 empty;
#X connect 14 0 1 0 empty;
#X connect 14 0 17 1 empty;
#X connect 15 0 6 0 empty;
#X connect 15 1 9 0 empty;
#X connect 15 1 19 0 empty;
#X connect 16 0 19 0 empty;
#X connect 17 0 7 0 empty;
#X restore 509 99 pd draw;
#N canvas 0 50 450 300 sliders_\$0 1;
#X obj 2 27 cnv 2 5 93 empty sl01086 empty 20 12 0 14 #00ff51 #ffffff 0;
#X obj 9 51 cnv 2 5 69 empty sl11086 empty 20 12 0 14 #44ff00 #ffffff 0;
#X obj 16 53 cnv 2 5 67 empty sl21086 empty 20 12 0 14 #51ff00 #ffffff 0;
#X obj 24 54 cnv 2 5 66 empty sl31086 empty 20 12 0 14 #59ff00 #ffffff 0;
#X obj 31 54 cnv 2 5 66 empty sl41086 empty 20 12 0 14 #59ff00 #ffffff 0;
#X obj 38 55 cnv 2 5 65 empty sl51086 empty 20 12 0 14 #5eff00 #ffffff 0;
#X obj 46 55 cnv 2 5 65 empty sl61086 empty 20 12 0 14 #5eff00 #ffffff 0;
#X obj 53 56 cnv 2 5 64 empty sl71086 empty 20 12 0 14 #66ff00 #ffffff 0;
#X obj 60 57 cnv 2 5 63 empty sl81086 empty 20 12 0 14 #6aff00 #ffffff 0;
#X obj 68 60 cnv 2 5 60 empty sl91086 empty 20 12 0 14 #7fff00 #ffffff 0;
#X obj 75 68 cnv 2 5 52 empty sl101086 empty 20 12 0 14 #b3ff00 #ffffff 0;
#X obj 82 76 cnv 2 5 44 empty sl111086 empty 20 12 0 14 #e1ff00 #ffffff 0;
#X obj 90 87 cnv 2 5 33 empty sl121086 empty 20 12 0 14 #ffd500 #ffffff 0;
#X obj 97 93 cnv 2 5 27 empty sl131086 empty 20 12 0 14 #ffaa00 #ffffff 0;
#X obj 104 109 cnv 2 5 11 empty sl141086 empty 20 12 0 14 #ff4800 #ffffff 0;
#X obj 112 120 cnv 2 5 1 empty sl151086 empty 20 12 0 14 #ff0009 #ffffff 0;
#X obj 119 120 cnv 2 5 12 empty sl161086 empty 20 12 0 14 #ff0051 #ffffff 0;
#X obj 126 120 cnv 2 5 21 empty sl171086 empty 20 12 0 14 #ff0084 #ffffff 0;
#X obj 134 96 cnv 2 5 24 empty sl181086 empty 20 12 0 14 #ff9900 #ffffff 0;
#X obj 141 120 cnv 2 5 34 empty sl191086 empty 20 12 0 14 #ff00d9 #ffffff 0;
#X obj 148 120 cnv 2 5 43 empty sl201086 empty 20 12 0 14 #ea00ff #ffffff 0;
#X obj 156 120 cnv 2 5 43 empty sl211086 empty 20 12 0 14 #ea00ff #ffffff 0;
#X obj 163 120 cnv 2 5 43 empty sl221086 empty 20 12 0 14 #ea00ff #ffffff 0;
#X obj 170 120 cnv 2 5 40 empty sl231086 empty 20 12 0 14 #fb00ff #ffffff 0;
#X obj 178 120 cnv 2 5 34 empty sl241086 empty 20 12 0 14 #ff00d9 #ffffff 0;
#X obj 185 120 cnv 2 5 21 empty sl251086 empty 20 12 0 14 #ff0084 #ffffff 0;
#X obj 192 120 cnv 2 5 3 empty sl261086 empty 20 12 0 14 #ff0015 #ffffff 0;
#X obj 200 105 cnv 2 5 15 empty sl271086 empty 20 12 0 14 #ff6200 #ffffff 0;
#X obj 207 92 cnv 2 5 28 empty sl281086 empty 20 12 0 14 #ffb200 #ffffff 0;
#X obj 214 74 cnv 2 5 46 empty sl291086 empty 20 12 0 14 #d5ff00 #ffffff 0;
#X obj 222 55 cnv 2 5 65 empty sl301086 empty 20 12 0 14 #5eff00 #ffffff 0;
#X obj 229 46 cnv 2 5 74 empty sl311086 empty 20 12 0 14 #22ff00 #ffffff 0;
#X obj 237 37 cnv 2 5 83 empty sl321086 empty 20 12 0 14 #00ff15 #ffffff 0;
#X obj 244 33 cnv 2 5 87 empty sl331086 empty 20 12 0 14 #00ff2a #ffffff 0;
#X obj 251 33 cnv 2 5 87 empty sl341086 empty 20 12 0 14 #00ff2a #ffffff 0;
#X obj 259 33 cnv 2 5 87 empty sl351086 empty 20 12 0 14 #00ff2a #ffffff 0;
#X obj 266 33 cnv 2 5 87 empty sl361086 empty 20 12 0 14 #00ff2a #ffffff 0;
#X obj 273 34 cnv 2 5 86 empty sl371086 empty 20 12 0 14 #00ff26 #ffffff 0;
#X obj 281 34 cnv 2 5 86 empty sl381086 empty 20 12 0 14 #00ff26 #ffffff 0;
#X obj 288 38 cnv 2 5 82 empty sl391086 empty 20 12 0 14 #00ff11 #ffffff 0;
#X obj 295 41 cnv 2 5 79 empty sl401086 empty 20 12 0 14 #04ff00 #ffffff 0;
#X obj 303 46 cnv 2 5 74 empty sl411086 empty 20 12 0 14 #22ff00 #ffffff 0;
#X obj 310 41 cnv 2 5 79 empty sl421086 empty 20 12 0 14 #04ff00 #ffffff 0;
#X obj 317 46 cnv 2 5 74 empty sl431086 empty 20 12 0 14 #22ff00 #ffffff 0;
#X obj 325 54 cnv 2 5 66 empty sl441086 empty 20 12 0 14 #59ff00 #ffffff 0;
#X obj 332 59 cnv 2 5 61 empty sl451086 empty 20 12 0 14 #7bff00 #ffffff 0;
#X obj 339 61 cnv 2 5 59 empty sl461086 empty 20 12 0 14 #88ff00 #ffffff 0;
#X obj 347 70 cnv 2 5 50 empty sl471086 empty 20 12 0 14 #bbff00 #ffffff 0;
#X obj 354 85 cnv 2 5 35 empty sl481086 empty 20 12 0 14 #ffe100 #ffffff 0;
#X obj 361 91 cnv 2 5 29 empty sl491086 empty 20 12 0 14 #ffbb00 #ffffff 0;
#X obj 369 101 cnv 2 5 19 empty sl501086 empty 20 12 0 14 #ff7700 #ffffff 0;
#X obj 376 114 cnv 2 5 6 empty sl511086 empty 20 12 0 14 #ff2a00 #ffffff 0;
#X obj 383 118 cnv 2 5 2 empty sl521086 empty 20 12 0 14 #ff0d00 #ffffff 0;
#X obj 391 120 cnv 2 5 3 empty sl531086 empty 20 12 0 14 #ff0015 #ffffff 0;
#X obj 398 120 cnv 2 5 16 empty sl541086 empty 20 12 0 14 #ff006a #ffffff 0;
#X obj 405 120 cnv 2 5 23 empty sl551086 empty 20 12 0 14 #ff0091 #ffffff 0;
#X obj 413 120 cnv 2 5 26 empty sl561086 empty 20 12 0 14 #ff00a6 #ffffff 0;
#X obj 420 120 cnv 2 5 35 empty sl571086 empty 20 12 0 14 #ff00e1 #ffffff 0;
#X obj 427 120 cnv 2 5 45 empty sl581086 empty 20 12 0 14 #dd00ff #ffffff 0;
#X obj 435 120 cnv 2 5 49 empty sl591086 empty 20 12 0 14 #c400ff #ffffff 0;
#X obj 442 120 cnv 2 5 58 empty sl601086 empty 20 12 0 14 #8c00ff #ffffff 0;
#X obj 449 120 cnv 2 5 63 empty sl611086 empty 20 12 0 14 #6a00ff #ffffff 0;
#X obj 457 120 cnv 2 5 68 empty sl621086 empty 20 12 0 14 #4c00ff #ffffff 0;
#X obj 464 120 cnv 2 5 72 empty sl631086 empty 20 12 0 14 #3300ff #ffffff 0;
#X coords 0 0 1 1 472 242 2 0 0;
#X restore -1 -1 pd sliders_\$0;
#N canvas 0 50 450 300 color 1;
#X msg 129 169 hsl \$1 100 50;
#X msg 129 229 color \$1;
#X obj 129 199 colors;
#X obj 129 109 * 360;
#X obj 129 139 mod 360;
#X obj 129 19 r yval_\$0;
#X obj 129 79 spigot;
#X obj 159 49 r coloring_\$0;
#X obj 129 259 s;
#X msg 259 229 symbol sl\$1\$2;
#X obj 259 199 pack f \$0;
#X obj 259 169 r index_\$0;
#X connect 0 0 2 0 empty;
#X connect 1 0 8 0 empty;
#X connect 2 0 1 0 empty;
#X connect 3 0 4 0 empty;
#X connect 4 0 0 0 empty;
#X connect 5 0 6 0 empty;
#X connect 6 0 3 0 empty;
#X connect 7 0 6 1 empty;
#X connect 9 0 8 1 empty;
#X connect 10 0 9 0 empty;
#X connect 11 0 10 0 empty;
#X restore 509 69 pd color;
#X obj 149 -61 inlet;
#N canvas 0 50 382 416 restore-from-arr 1;
#X obj 49 109 loop;
#X obj 119 59 r n_\$0;
#X obj 79 299 s yval_\$0;
#X obj 149 179 s index_\$0;
#X obj 49 139 t f f;
#X obj 49 259 / 2;
#X obj 249 179 r uni_\$0;
#X obj 49 219 router;
#X obj 49 29 r restore_\$0;
#X obj 49 179 tabread \$1;
#X connect 0 0 4 0 empty;
#X connect 1 0 0 1 empty;
#X connect 4 0 9 0 empty;
#X connect 4 1 3 0 empty;
#X connect 5 0 2 0 empty;
#X connect 6 0 7 1 empty;
#X connect 7 0 5 0 empty;
#X connect 7 1 2 0 empty;
#X connect 8 0 0 0 empty;
#X connect 9 0 7 0 empty;
#X restore 609 159 pd restore-from-arr;
#X obj 329 -31 s index_\$0;
#X obj 249 -31 s yval_\$0;
#X obj 329 -61 inlet;
#X obj 249 -61 inlet;
#X text 509 218 amy universe - 2023 \; github.com/tomara-x;
#X obj 349 249 namecanvas this\$1;
#X connect 0 0 5 0 empty;
#X connect 3 0 0 0 empty;
#X connect 10 0 4 0 empty;
#X connect 14 0 12 0 empty;
#X connect 15 0 13 0 empty;
#X coords 0 0 1 1 472 242 2 0 0;
