#N canvas 827 239 711 1220 12;
#X obj 9 9 nbx 4 18 -1e+37 1e+37 0 1 empty empty empty 0 -8 0 10 #191919 #ffffff #ffffff 53 256;
#X msg 219 39 height \$1;
#X obj 219 9 nbx 4 18 -1e+37 1e+37 0 1 empty empty empty 0 -8 0 10 #191919 #ffffff #ffffff 212 256;
#X msg 89 39 uni \$1;
#X obj 89 9 tgl 25 1 empty empty empty 17 7 0 10 #191919 #ffffff #ffffff 0 1;
#X obj 149 9 nbx 4 18 -1e+37 1e+37 0 1 empty empty empty 0 -8 0 10 #191919 #ffffff #ffffff 445 256;
#X msg 149 39 width \$1;
#X msg 299 39 spacing \$1;
#X obj 299 9 nbx 4 18 -1e+37 1e+37 0 1 empty empty empty 0 -8 0 10 #191919 #ffffff #ffffff 2 256;
#X msg 559 39 rndclr;
#X msg 619 39 restore;
#X obj 469 9 tgl 25 1 empty empty empty 17 7 0 10 #191919 #ffffff #ffffff 1 1;
#X msg 469 39 coloring \$1;
#X msg 389 39 xoffset \$1;
#X obj 389 9 nbx 4 18 -1e+37 1e+37 0 1 empty empty empty 0 -8 0 10 #191919 #ffffff #ffffff 3 256;
#X obj 569 269 array define -k hi;
#A resize 53;
#A 0 0.95283 0.933962 0.90566 0.886792 0.858491 0.820755 0.773585 0.716981 0.669811 0.613208 0.584906 0.528302 0.490566 0.443396 0.396226 0.349057 0.311321 0.283019 0.245283 0.179245 0.132075 0.113208 0.0849056 0.0660378 0.0471698 0.0283018 -0.0188679 -0.0471698 -0.0754717 -0.113208 -0.150943 -0.188679 -0.245283 -0.320755 -0.311321 -0.349057 -0.367925 -0.424528 -0.471698 -0.5 -0.54717 -0.566038 -0.613208 -0.641509 -0.698113 -0.716981 -0.773585 -0.811321 -0.839623 -0.877358 -0.896226 -0.933962 -0.962264;
#X msg 9 39 resize \$1;
#X text 529 138 name argument is required \; so it must be created like \; [slidarr name] \; and you need an array of \; the same name in the patch;
#X msg 519 79 bg #191919;
#X msg 519 109 fg #ffffff;
#X msg 609 79 bg #ffacab;
#X obj 19 109 slidarr hi;
#X text 9 328 ARGUMENTS: \; [slidarr name size uni width height spacing xoffset coloring] \; \; name: the name of this instance (you must create an array with the same name) (this is the only required argument) \; \; size: number of sliders (default 64) \; \; uni: 1 = unipolar \, 0 = bipolar (default 0) \; \; width/height: dimentions in pixels (default 470 x 240) \; \; spacing: spacing between the sliders in pixels (default 2) (can be negative) \; \; xoffset: offset along the x axit cause i'm too lazy to figure out what's going wrong there (default 3) (just eyeball it!) \; \; coloring: 1 makes the sliders change colors based on their value \, 0 keeps them static \; \;;
#X text 472 242 <-- this was created using [slidarr hi];
#X text 479 268 the array -->;
#X text 9 778 METHODS: \; NOTE: most of those won't update live \, so you probably wanna send the restore message after changing any of them \; \; resize <float>: set the number of sliders (this will also resize the corresponding array) \; \; uni <float>: 1=unipolar \, 0=bipolar \; \; width <float> /height <float>: dimentions in pixels \; \; spacing <float>: set the spacing between sliders \; \; xoffset <float>: offset all sliders along the x axis \; \; coloring <float>: 1 = sliders change color based on their y-value \, 0 = static color \; \; restore : read the values from the array. this is triggered on load \, so if the array keeps it's contents in patch they'll be displayed (you wanna send this after changing any of the above methods) \; \; rndclr: randomize the color for each slider (hue only) \; bg <symbol>: set the background color (in hex) (default #191919) \; fg <symbol>: set the foreground color \; \;;
#X text 9 638 INLETS: \; 1st: for the methods \; 2nd: set y-value of selected index \; 3rd: select index to write to \; \; NOTE: the second and third inlets work like tabwrite \, in unipolar mode \, the y value should be from 0 to 1 \, BUT \, in bipolar mode it takes a value from -0.5 to 0.5 (sorry) \; \;;
#X msg 609 109 fg #191919;
#X text 499 298 (useful for reading the values);
#X connect 0 0 16 0 empty;
#X connect 1 0 21 0 empty;
#X connect 2 0 1 0 empty;
#X connect 3 0 21 0 empty;
#X connect 4 0 3 0 empty;
#X connect 5 0 6 0 empty;
#X connect 6 0 21 0 empty;
#X connect 7 0 21 0 empty;
#X connect 8 0 7 0 empty;
#X connect 8 0 10 0 empty;
#X connect 10 0 21 0 empty;
#X connect 11 0 12 0 empty;
#X connect 12 0 21 0 empty;
#X connect 14 0 13 0 empty;
#X connect 16 0 21 0 empty;
#X connect 18 0 21 0 empty;
#X connect 19 0 21 0 empty;
#X connect 20 0 21 0 empty;
#X connect 27 0 21 0 empty;
