#N canvas 827 239 711 807 12;
#X obj 9 9 nbx 4 18 -1e+37 1e+37 0 1 empty empty empty 0 -8 0 10 #191919 #ffffff #ffffff 38 256;
#X msg 219 39 height \$1;
#X obj 219 9 nbx 4 18 -1e+37 1e+37 0 1 empty empty empty 0 -8 0 10 #191919 #ffffff #ffffff 240 256;
#X msg 89 39 uni \$1;
#X obj 89 9 tgl 25 1 empty empty empty 17 7 0 10 #191919 #ffffff #ffffff 0 1;
#X obj 149 9 nbx 4 18 -1e+37 1e+37 0 1 empty empty empty 0 -8 0 10 #191919 #ffffff #ffffff 472 256;
#X msg 149 39 width \$1;
#X msg 299 39 spacing \$1;
#X obj 299 9 nbx 4 18 -1e+37 1e+37 0 1 empty empty empty 0 -8 0 10 #191919 #ffffff #ffffff 2 256;
#X msg 559 39 rndclr;
#X msg 619 39 restore;
#X obj 469 9 tgl 25 1 empty empty empty 17 7 0 10 #191919 #ffffff #ffffff 0 1;
#X msg 469 39 coloring \$1;
#X msg 389 39 xoffset \$1;
#X obj 389 9 nbx 4 18 -1e+37 1e+37 0 1 empty empty empty 0 -8 0 10 #191919 #ffffff #ffffff 3 256;
#X obj 539 299 array define -k hi;
#A resize 64;
#A 0 0.341667 0.341667 0.341667 0.341667 0.333333 0.316667 0.3 0.283333 0.266667 0.233333 0.2 0.125 0.0916667 0.0333333 -0.0166667 -0.0416667 -0.0916666 -0.133333 -0.166667 -0.191667 -0.225 -0.233333 -0.258333 -0.266667 -0.283333 -0.283333 -0.283333 -0.283333 -0.283333 -0.283333 -0.258333 -0.241667 -0.2 -0.175 -0.116667 -0.0833333 -0.0166667 0.025 0.0833334 0.125 0.183333 0.241667 0.266667 0.316667 0.325 0.333333 0.35 0.358333 0.358333 0.358333 0.358333 0.358333 0.358333 0.358333 0.35 0.333333 0.283333 0.283333 0.283333 0.275 0.241667 0.208333 0.2 0.0166667;
#X text 9 328 args: \; [slidarr name size uni width height spacing xoffset coloring] \; \; name: the name of this instance (you must create an array with the same name) (this is the only required argument) \; \; size: number of sliders (default 64) \; \; uni: 1 = unipolar \, 0 = bipolar (default 0) \; \; width/height: dimentions in pixels (default 470 x 240) \; \; spacing: spacing between the sliders in pixels (default 2) (can be negative) \; \; xoffset: offset along the x axit cause i'm too lazy to figure out what's going wrong there (default 3) (just eyeball it!) \; \; coloring: 1 makes the sliders change colors based on their value \, 0 keeps them static \;;
#X text 9 648 methods: \; resize <float>: resize (this will also resize the corresponding array) \; \; bg <symbol>: set the background color (in hex) (default #191919) \; fg <symbol>: set the foreground color \; rndclr: randomize the color for each slider (hue only) \; restore : read the values from the array (in case you write to the array and want to refresh the slidarr) (fun oscope time!);
#X msg 9 39 resize \$1;
#X text 529 198 name argument is required \; so it must be created like \; [slidarr name] \; and you need an array of \; the same name in the patch;
#X msg 519 79 bg #191919;
#X msg 519 109 fg #ffffff;
#X msg 609 79 bg #ffacab;
#X msg 609 109 fg #191919;
#X obj 19 89 slidarr hi;
#X connect 0 0 18 0 empty;
#X connect 2 0 1 0 empty;
#X connect 4 0 3 0 empty;
#X connect 5 0 6 0 empty;
#X connect 8 0 7 0 empty;
#X connect 11 0 12 0 empty;
#X connect 12 0 24 0 empty;
#X connect 14 0 13 0 empty;
#X connect 20 0 24 0 empty;
#X connect 21 0 24 0 empty;
#X connect 22 0 24 0 empty;
#X connect 23 0 24 0 empty;
