#N canvas 827 239 520 420 12;
#X obj 1 1 pad 470 240 255 255 255;
#X obj -1 -1 cnv 15 472 242 empty bg\$0 empty 20 12 0 14 #191919 #ffffff 0;
#N canvas 0 50 450 300 sliders_\$0 1;
#X obj 3 7 cnv 2 5 113 empty sl01049 empty 20 12 0 14 #ff002f #ffffff 0;
#X obj 10 12 cnv 2 5 108 empty sl11049 empty 20 12 0 14 #ff0048 #ffffff 0;
#X obj 17 16 cnv 2 5 104 empty sl21049 empty 20 12 0 14 #ff0066 #ffffff 0;
#X obj 25 21 cnv 2 5 99 empty sl31049 empty 20 12 0 14 #ff0084 #ffffff 0;
#X obj 32 25 cnv 2 5 95 empty sl41049 empty 20 12 0 14 #ff0099 #ffffff 0;
#X obj 39 30 cnv 2 5 90 empty sl51049 empty 20 12 0 14 #ff00bb #ffffff 0;
#X obj 47 24 cnv 2 5 96 empty sl61049 empty 20 12 0 14 #ff0095 #ffffff 0;
#X obj 54 34 cnv 2 5 86 empty sl71049 empty 20 12 0 14 #ff00d9 #ffffff 0;
#X obj 61 36 cnv 2 5 84 empty sl81049 empty 20 12 0 14 #ff00e6 #ffffff 0;
#X obj 69 39 cnv 2 5 81 empty sl91049 empty 20 12 0 14 #ff00f7 #ffffff 0;
#X obj 76 46 cnv 2 5 74 empty sl101049 empty 20 12 0 14 #d900ff #ffffff 0;
#X obj 83 48 cnv 2 5 72 empty sl111049 empty 20 12 0 14 #d000ff #ffffff 0;
#X obj 91 51 cnv 2 5 69 empty sl121049 empty 20 12 0 14 #bb00ff #ffffff 0;
#X obj 98 52 cnv 2 5 68 empty sl131049 empty 20 12 0 14 #b300ff #ffffff 0;
#X obj 105 58 cnv 2 5 62 empty sl141049 empty 20 12 0 14 #9100ff #ffffff 0;
#X obj 113 12 cnv 2 5 108 empty sl151049 empty 20 12 0 14 #ff004d #ffffff 0;
#X obj 120 64 cnv 2 5 56 empty sl161049 empty 20 12 0 14 #6600ff #ffffff 0;
#X obj 127 60 cnv 2 5 60 empty sl171049 empty 20 12 0 14 #8000ff #ffffff 0;
#X obj 135 75 cnv 2 5 45 empty sl181049 empty 20 12 0 14 #2200ff #ffffff 0;
#X obj 142 78 cnv 2 5 42 empty sl191049 empty 20 12 0 14 #0d00ff #ffffff 0;
#X obj 149 79 cnv 2 5 41 empty sl201049 empty 20 12 0 14 #0400ff #ffffff 0;
#X obj 157 84 cnv 2 5 36 empty sl211049 empty 20 12 0 14 #0015ff #ffffff 0;
#X obj 164 87 cnv 2 5 33 empty sl221049 empty 20 12 0 14 #002bff #ffffff 0;
#X obj 171 91 cnv 2 5 29 empty sl231049 empty 20 12 0 14 #0048ff #ffffff 0;
#X obj 179 94 cnv 2 5 26 empty sl241049 empty 20 12 0 14 #0059ff #ffffff 0;
#X obj 186 97 cnv 2 5 23 empty sl251049 empty 20 12 0 14 #006fff #ffffff 0;
#X obj 193 100 cnv 2 5 20 empty sl261049 empty 20 12 0 14 #0080ff #ffffff 0;
#X obj 201 102 cnv 2 5 18 empty sl271049 empty 20 12 0 14 #0088ff #ffffff 0;
#X obj 208 103 cnv 2 5 17 empty sl281049 empty 20 12 0 14 #0095ff #ffffff 0;
#X obj 215 106 cnv 2 5 14 empty sl291049 empty 20 12 0 14 #00a6ff #ffffff 0;
#X obj 223 109 cnv 2 5 11 empty sl301049 empty 20 12 0 14 #00bbff #ffffff 0;
#X obj 230 114 cnv 2 5 6 empty sl311049 empty 20 12 0 14 #00d5ff #ffffff 0;
#X obj 238 116 cnv 2 5 4 empty sl321049 empty 20 12 0 14 #00e1ff #ffffff 0;
#X obj 245 119 cnv 2 5 1 empty sl331049 empty 20 12 0 14 #00f2ff #ffffff 0;
#X obj 252 120 cnv 2 5 1 empty sl341049 empty 20 12 0 14 #00fff6 #ffffff 0;
#X obj 260 120 cnv 2 5 4 empty sl351049 empty 20 12 0 14 #00ffe1 #ffffff 0;
#X obj 267 120 cnv 2 5 6 empty sl361049 empty 20 12 0 14 #00ffd9 #ffffff 0;
#X obj 274 120 cnv 2 5 9 empty sl371049 empty 20 12 0 14 #00ffbf #ffffff 0;
#X obj 282 120 cnv 2 5 12 empty sl381049 empty 20 12 0 14 #00ffaa #ffffff 0;
#X obj 289 120 cnv 2 5 15 empty sl391049 empty 20 12 0 14 #00ff99 #ffffff 0;
#X obj 296 120 cnv 2 5 21 empty sl401049 empty 20 12 0 14 #00ff73 #ffffff 0;
#X obj 304 120 cnv 2 5 26 empty sl411049 empty 20 12 0 14 #00ff55 #ffffff 0;
#X obj 311 120 cnv 2 5 32 empty sl421049 empty 20 12 0 14 #00ff2f #ffffff 0;
#X obj 318 120 cnv 2 5 35 empty sl431049 empty 20 12 0 14 #00ff1e #ffffff 0;
#X obj 326 120 cnv 2 5 38 empty sl441049 empty 20 12 0 14 #00ff08 #ffffff 0;
#X obj 333 120 cnv 2 5 41 empty sl451049 empty 20 12 0 14 #09ff00 #ffffff 0;
#X obj 340 120 cnv 2 5 45 empty sl461049 empty 20 12 0 14 #26ff00 #ffffff 0;
#X obj 348 120 cnv 2 5 50 empty sl471049 empty 20 12 0 14 #44ff00 #ffffff 0;
#X obj 355 120 cnv 2 5 54 empty sl481049 empty 20 12 0 14 #62ff00 #ffffff 0;
#X obj 362 120 cnv 2 5 59 empty sl491049 empty 20 12 0 14 #7bff00 #ffffff 0;
#X obj 370 120 cnv 2 5 62 empty sl501049 empty 20 12 0 14 #95ff00 #ffffff 0;
#X obj 377 120 cnv 2 5 66 empty sl511049 empty 20 12 0 14 #aeff00 #ffffff 0;
#X obj 384 120 cnv 2 5 71 empty sl521049 empty 20 12 0 14 #c8ff00 #ffffff 0;
#X obj 392 120 cnv 2 5 75 empty sl531049 empty 20 12 0 14 #e1ff00 #ffffff 0;
#X obj 399 120 cnv 2 5 78 empty sl541049 empty 20 12 0 14 #fbff00 #ffffff 0;
#X obj 406 120 cnv 2 5 84 empty sl551049 empty 20 12 0 14 #ffdd00 #ffffff 0;
#X obj 414 120 cnv 2 5 93 empty sl561049 empty 20 12 0 14 #ffa600 #ffffff 0;
#X obj 421 120 cnv 2 5 96 empty sl571049 empty 20 12 0 14 #ff9500 #ffffff 0;
#X obj 428 120 cnv 2 5 99 empty sl581049 empty 20 12 0 14 #ff8000 #ffffff 0;
#X obj 436 120 cnv 2 5 107 empty sl591049 empty 20 12 0 14 #ff5100 #ffffff 0;
#X obj 443 120 cnv 2 5 108 empty sl601049 empty 20 12 0 14 #ff4400 #ffffff 0;
#X obj 450 120 cnv 2 5 114 empty sl611049 empty 20 12 0 14 #ff1e00 #ffffff 0;
#X obj 458 120 cnv 2 5 111 empty sl621049 empty 20 12 0 14 #ff3300 #ffffff 0;
#X obj 465 11 cnv 2 5 109 empty sl631049 empty 20 12 0 14 #ff0048 #ffffff 0;
#X coords 0 0 1 1 472 242 2 0 0;
#X restore -1 -1 pd sliders_\$0;
#N canvas 0 50 380 410 construct 1;
#X msg 319 339 clear;
#X obj 19 109 loop;
#X obj 35 249 +;
#N canvas 0 50 450 300 calc-y-pos 0;
#X obj 39 269 outlet;
#X obj 139 99 / 2;
#X obj 39 69 select 0;
#X obj 39 179 f;
#X obj 79 109 b;
#X obj 199 169 f;
#X obj 209 29 r height_\$0;
#X obj 39 19 r uni_\$0;
#X connect 1 0 3 1 empty;
#X connect 2 0 3 0 empty;
#X connect 2 1 4 0 empty;
#X connect 3 0 0 0 empty;
#X connect 4 0 5 0 empty;
#X connect 5 0 0 0 empty;
#X connect 6 0 1 0 empty;
#X connect 6 0 5 1 empty;
#X connect 7 0 2 0 empty;
#X restore 81 249 pd calc-y-pos;
#X obj 19 163 t f f;
#X obj 189 249 -;
#X obj 129 119 swap;
#X obj 129 153 /;
#X obj 35 209 *;
#X obj 19 49 t f f b;
#X msg 19 319 obj \$2 \$3 cnv 2 \$4 0 empty sl\$1\$5 empty 20 12 0 14 #ffffff #ffffff 0, f 33;
#X obj 149 89 r width_\$0;
#X obj 19 19 r n_\$0;
#X obj 81 219 r xoffset_\$0;
#X obj 210 219 r spacing_\$0;
#X obj 199 189 s slider_width_\$0;
#X obj 19 369 s pd-sliders_\$0;
#X obj 19 289 pack f f f f \$0;
#X text 349 388 <3;
#X text 99 18 fill the graph area with evenly spaced cnv objects;
#X connect 0 0 16 0 32.................E....Ts+++eA....U6+++q.....;
#X connect 1 0 4 0 empty;
#X connect 2 0 17 1 empty;
#X connect 4 0 17 0 empty;
#X connect 4 1 8 0 32.................R....L....fD....C....PB....;
#X connect 5 0 17 3 32.................O....33++++C....N9+++SA....;
#X connect 6 0 7 0 empty;
#X connect 6 1 7 1 empty;
#X connect 7 0 8 1 32.................W....v5++++E....r9+++6B....;
#X connect 7 0 5 0 32.................l....vC...fI....7....vD....;
#X connect 7 0 15 0 32.................H....XD....B....FA....A....;
#X connect 8 0 2 0 empty;
#X connect 9 0 1 0 empty;
#X connect 9 1 6 0 32.................Q.....F...PD....fA...HC....;
#X connect 9 2 0 0 32.................F....7P...fA....OD...3P....;
#X connect 10 0 16 0 empty;
#X connect 11 0 6 1 empty;
#X connect 12 0 9 0 empty;
#X connect 13 0 2 1 32.................E....38+++eA....d++++q.....;
#X connect 14 0 5 1 empty;
#X connect 17 0 10 0 empty;
#X restore 509 159 pd construct;
#N canvas 0 50 450 300 resize 1;
#X msg 9 219 dim \$1 \$2;
#X obj 9 169 pack2;
#X obj 9 249 outlet;
#X obj 109 29 r height_\$0;
#X obj 9 29 r width_\$0;
#X msg 89 219 coords 0 0 1 1 \$1 \$2 2;
#X obj 139 119 + 2;
#X obj 89 119 + 2;
#X obj 89 249 s pd-sliders_\$0;
#X obj 89 169 pack2;
#X msg 239 219 coords 0 0 1 1 \$1 \$2 2;
#X obj 319 189 s bg\$0;
#X msg 319 159 vis_size \$1 \$2;
#X obj 239 249 s this\$1;
#X connect 0 0 2 0 empty;
#X connect 1 0 0 0 empty;
#X connect 3 0 1 1 empty;
#X connect 3 0 6 0 empty;
#X connect 4 0 1 0 empty;
#X connect 4 0 7 0 empty;
#X connect 5 0 8 0 empty;
#X connect 6 0 9 1 empty;
#X connect 7 0 9 0 empty;
#X connect 9 0 5 0 empty;
#X connect 9 0 10 0 empty;
#X connect 9 0 12 0 empty;
#X connect 10 0 13 0 empty;
#X connect 12 0 11 0 empty;
#X restore 9 -41 pd resize;
#N canvas 0 50 640 300 methods 1;
#N canvas 0 50 450 300 rndclr 0;
#X obj 129 9 inlet;
#X obj 129 119 rand.i 0 360;
#X msg 129 159 hsl \$1 100 50;
#X obj 129 49 loop;
#X obj 129 79 t b f;
#X obj 129 259 s;
#X msg 129 219 color \$1;
#X obj 129 189 colors;
#X obj 279 9 r n_\$0;
#X obj 269 129 pack f \$0;
#X msg 269 179 symbol sl\$1\$2;
#X connect 0 0 3 0 empty;
#X connect 1 0 2 0 empty;
#X connect 2 0 7 0 empty;
#X connect 3 0 4 0 empty;
#X connect 4 0 1 0 empty;
#X connect 4 1 9 0 empty;
#X connect 6 0 5 0 empty;
#X connect 7 0 6 0 empty;
#X connect 8 0 3 1 empty;
#X connect 9 0 10 0 empty;
#X connect 10 0 5 1 empty;
#X restore 276 129 pd rndclr;
#X obj 489 259 s coloring_\$0;
#X obj 134 259 s width_\$0;
#X obj 214 259 s height_\$0;
#X obj 69 259 s uni_\$0;
#X obj 9 259 s n_\$0;
#X obj 304 259 s spacing_\$0;
#X obj 9 9 inlet;
#X obj 315 96 s restore_\$0;
#X obj 9 79 max 1;
#X obj 399 259 s xoffset_\$0;
#X obj 469 29 loadbang;
#X text 469 8 and default arguments;
#X text 109 8 method routing;
#X obj 222 129 t b f;
#X obj 178 129 t b f;
#X obj 39 129 t b f;
#X obj 79 129 t b f;
#X obj 9 229 f;
#X obj 469 59 args;
#X obj 469 119 unpack s f f f f f f f;
#X obj 469 89 pack s 64 0 470 240 2 3 1;
#N canvas 0 50 450 300 bg 0;
#X obj 139 29 inlet;
#X msg 139 119 color \$1;
#X obj 139 179 s bg\$0;
#X text 209 118 set background cnv color;
#X obj 139 69 symbol;
#X connect 0 0 4 0 empty;
#X connect 1 0 2 0 empty;
#X connect 4 0 1 0 empty;
#X restore 349 69 pd bg;
#X obj 9 39 route resize uni width height spacing xoffset coloring rndclr restore bg fg, f 63;
#N canvas 0 50 450 300 fg 0;
#X obj 99 9 inlet;
#X obj 169 109 loop;
#X obj 169 139 t b f;
#X obj 89 259 s;
#X msg 89 199 color #ffffff;
#X obj 199 69 r n_\$0;
#X obj 179 179 pack f \$0;
#X msg 179 219 symbol sl\$1\$2;
#X obj 99 69 t b s;
#X msg 59 139 set color \$1;
#X text 169 8 loop through the sliders setting each one's color;
#X obj 99 37 symbol;
#X connect 0 0 11 0 empty;
#X connect 1 0 2 0 empty;
#X connect 2 0 4 0 empty;
#X connect 2 1 6 0 empty;
#X connect 4 0 3 0 empty;
#X connect 5 0 1 1 empty;
#X connect 6 0 7 0 empty;
#X connect 7 0 3 1 empty;
#X connect 8 0 1 0 empty;
#X connect 8 1 9 0 empty;
#X connect 9 0 4 0 empty;
#X connect 11 0 8 0 empty;
#X restore 399 69 pd fg;
#X obj 69 229 f;
#X obj 119 129 t b b f;
#X text 119 218 bad amy;
#X connect 7 0 23 0 empty;
#X connect 9 0 18 0 empty;
#X connect 11 0 19 0 empty;
#X connect 14 0 18 0 empty;
#X connect 14 1 10 0 empty;
#X connect 15 0 18 0 empty;
#X connect 15 1 6 0 empty;
#X connect 16 0 18 0 empty;
#X connect 16 1 25 0 empty;
#X connect 17 0 18 0 empty;
#X connect 17 1 2 0 empty;
#X connect 18 0 5 0 empty;
#X connect 19 0 21 0 empty;
#X connect 20 0 8 0 empty;
#X connect 20 1 18 0 empty;
#X connect 20 2 25 0 empty;
#X connect 20 3 2 0 empty;
#X connect 20 4 3 0 empty;
#X connect 20 5 6 0 empty;
#X connect 20 6 10 0 empty;
#X connect 20 7 1 0 empty;
#X connect 21 0 20 0 empty;
#X connect 23 0 9 0 empty;
#X connect 23 1 16 0 empty;
#X connect 23 2 17 0 empty;
#X connect 23 3 26 0 empty;
#X connect 23 4 15 0 empty;
#X connect 23 5 14 0 empty;
#X connect 23 6 1 0 empty;
#X connect 23 7 0 0 empty;
#X connect 23 8 8 0 empty;
#X connect 23 9 22 0 empty;
#X connect 23 10 24 0 empty;
#X connect 25 0 4 0 empty;
#X connect 26 0 18 0 empty;
#X connect 26 1 25 0 empty;
#X connect 26 2 3 0 empty;
#X restore 129 319 pd methods;
#X obj 9 269 s pad_out_\$0;
#N canvas 0 50 520 440 move-slider 1;
#X obj 9 409 s;
#X obj 9 259 -;
#X msg 9 289 delta 0 \$1;
#X obj 89 249 * -1;
#X obj 9 229 t f f;
#X obj 120 197 moses 1;
#X msg 165 160 0;
#X obj 269 239 *;
#X obj 269 319 pack;
#X obj 110 319 pack;
#X msg 110 349 vis_size \$2 \$1;
#N canvas 0 50 450 300 set-pos 1;
#X obj 109 59 inlet;
#X obj 219 59 inlet;
#X obj 159 219 outlet;
#X msg 159 169 pos 127.844 120;
#X msg 219 109 set pos \$1 \$2;
#X text 389 278 moths;
#X connect 0 0 3 0 empty;
#X connect 1 0 4 0 empty;
#X connect 3 0 2 0 empty;
#X connect 4 0 3 0 empty;
#X restore 219 349 pd set-pos;
#X obj 269 279 +;
#X obj 120 96 * -1;
#X obj 399 159 f;
#X obj 399 189 t f f;
#X obj 120 124 t f b b b;
#X obj 120 66 *;
#X msg 409 349 symbol sl\$1\$2;
#X obj 129 29 r height_\$0;
#X obj 409 309 pack f \$0;
#X obj 409 129 r index_\$0;
#X obj 9 9 r yval_\$0;
#X obj 199 189 r slider_width_\$0;
#X obj 309 239 r xoffset_\$0;
#N canvas 0 50 450 300 calc-y-pos 1;
#X obj 39 269 outlet;
#X obj 139 99 / 2;
#X obj 39 69 select 0;
#X obj 39 179 f;
#X obj 79 109 b;
#X obj 159 169 f;
#X obj 219 19 r height_\$0;
#X obj 39 19 r uni_\$0;
#X connect 1 0 3 1 empty;
#X connect 2 0 3 0 empty;
#X connect 2 1 4 0 empty;
#X connect 3 0 0 0 empty;
#X connect 4 0 5 0 empty;
#X connect 5 0 0 0 empty;
#X connect 6 0 1 0 empty;
#X connect 6 0 5 1 empty;
#X connect 7 0 2 0 empty;
#X restore 309 279 pd calc-y-pos;
#X obj 159 279 -;
#X obj 179 239 r spacing_\$0;
#X text 479 408 :3;
#X text 239 18 scale and/or move [cnv] object \; index selects which one to move \; and y-value is the "slider" value;
#X obj 39 39 r uni_\$0;
#X obj 9 69 router;
#X obj 9 105 - 0.5;
#X connect 1 0 2 0 empty;
#X connect 2 0 0 0 empty;
#X connect 3 0 9 0 empty;
#X connect 4 0 1 1 empty;
#X connect 4 1 1 0 empty;
#X connect 5 0 4 0 empty;
#X connect 5 0 3 0 empty;
#X connect 5 1 9 0 empty;
#X connect 6 0 5 0 empty;
#X connect 7 0 12 0 empty;
#X connect 8 0 11 1 empty;
#X connect 9 0 10 0 empty;
#X connect 10 0 0 0 empty;
#X connect 11 0 0 0 empty;
#X connect 12 0 8 0 empty;
#X connect 13 0 16 0 empty;
#X connect 14 0 15 0 empty;
#X connect 15 0 7 0 empty;
#X connect 15 1 20 0 empty;
#X connect 16 0 5 0 empty;
#X connect 16 1 11 0 empty;
#X connect 16 2 6 0 empty;
#X connect 16 3 14 0 empty;
#X connect 17 0 13 0 empty;
#X connect 18 0 0 1 empty;
#X connect 19 0 17 1 empty;
#X connect 20 0 18 0 empty;
#X connect 21 0 14 1 empty;
#X connect 22 0 31 0 empty;
#X connect 23 0 26 0 empty;
#X connect 23 0 7 1 empty;
#X connect 24 0 12 1 empty;
#X connect 25 0 8 1 empty;
#X connect 26 0 9 1 empty;
#X connect 27 0 26 1 empty;
#X connect 30 0 31 1 empty;
#X connect 31 0 32 0 empty;
#X connect 31 1 17 0 empty;
#X connect 32 0 17 0 empty;
#X restore 509 129 pd move-slider;
#N canvas 0 50 380 384 draw 1;
#X obj 59 39 route click;
#X msg 299 249 resize \$1;
#X obj 249 179 /;
#X obj 108 69 unpack;
#X obj 59 169 /;
#X obj 59 99 spigot;
#X obj 249 299 int;
#X obj 59 9 r pad_out_\$0;
#X obj 29 349 s yval_\$0;
#X obj 269 349 s index_\$0;
#X obj 79 129 r height_\$0;
#X obj 279 109 r width_\$0;
#X obj 299 169 r n_\$0;
#X obj 249 259 *;
#X text 199 18 drawing on the pad \; and sending the result to the \; array and cnv objects;
#X obj 169 349 tabwrite \$1;
#X obj 299 279 s \$1;
#X obj 109 169 r uni_\$0;
#X obj 59 209 router;
#X obj 79 279 - 0.5;
#X obj 79 309 * 2;
#X connect 0 0 5 1 empty;
#X connect 0 1 3 0 empty;
#X connect 1 0 16 0 empty;
#X connect 2 0 13 0 empty;
#X connect 3 0 2 0 empty;
#X connect 3 1 5 0 empty;
#X connect 4 0 18 0 empty;
#X connect 5 0 4 0 empty;
#X connect 6 0 9 0 empty;
#X connect 6 0 15 1 empty;
#X connect 7 0 0 0 empty;
#X connect 10 0 4 1 empty;
#X connect 11 0 2 1 empty;
#X connect 12 0 1 0 empty;
#X connect 12 0 13 1 empty;
#X connect 13 0 6 0 empty;
#X connect 17 0 18 1 empty;
#X connect 18 0 19 0 empty;
#X connect 18 0 8 0 empty;
#X connect 18 1 8 0 empty;
#X connect 18 1 15 0 empty;
#X connect 19 0 20 0 empty;
#X connect 20 0 15 0 empty;
#X restore 509 99 pd draw;
#N canvas 0 50 450 300 color 1;
#X msg 39 169 hsl \$1 100 50;
#X msg 39 229 color \$1;
#X obj 39 199 colors;
#X obj 39 109 * 360;
#X obj 39 139 mod 360;
#X obj 39 19 r yval_\$0;
#X obj 39 79 spigot;
#X obj 69 49 r coloring_\$0;
#X obj 39 259 s;
#X msg 169 229 symbol sl\$1\$2;
#X obj 169 199 pack f \$0;
#X obj 169 169 r index_\$0;
#X text 119 8 what's even the point if you can't make your arrays gay af?;
#X connect 0 0 2 0 empty;
#X connect 1 0 8 0 empty;
#X connect 2 0 1 0 empty;
#X connect 3 0 4 0 empty;
#X connect 4 0 0 0 empty;
#X connect 5 0 6 0 empty;
#X connect 6 0 3 0 empty;
#X connect 7 0 6 1 empty;
#X connect 9 0 8 1 empty;
#X connect 10 0 9 0 empty;
#X connect 11 0 10 0 empty;
#X restore 509 69 pd color;
#X obj 129 279 inlet;
#N canvas 0 50 330 340 restore-from-arr 1;
#X obj 19 89 loop;
#X obj 59 49 r n_\$0;
#X obj 69 309 s yval_\$0;
#X obj 219 189 s index_\$0;
#X obj 19 129 t f f;
#X obj 19 9 r restore_\$0;
#X obj 19 179 tabread \$1;
#X obj 22 49 b;
#X text 139 238 loop the corresponding array \; (the array in the parent patch) \; and copy its contents to sliders \; this is triggered on creation \; and can be triggered using the \; "restore" message;
#X obj 109 179 r uni_\$0;
#X obj 19 219 router;
#X obj 19 249 / 2;
#X obj 19 279 + 0.5;
#X connect 0 0 4 0 empty;
#X connect 1 0 0 1 empty;
#X connect 4 0 6 0 empty;
#X connect 4 1 3 0 empty;
#X connect 5 0 7 0 empty;
#X connect 6 0 10 0 empty;
#X connect 7 0 0 0 empty;
#X connect 9 0 10 1 empty;
#X connect 10 0 11 0 empty;
#X connect 10 1 2 0 empty;
#X connect 11 0 12 0 empty;
#X connect 12 0 2 0 empty;
#X restore 509 189 pd restore-from-arr;
#X obj 359 319 s index_\$0;
#X obj 359 279 inlet;
#X obj 219 279 inlet;
#X text 509 218 amy universe - 2023 \; github.com/tomara-x;
#X obj 349 249 namecanvas this\$1;
#N canvas 0 50 450 300 yval 1;
#X obj 159 29 inlet;
#X obj 209 229 s yval_\$0;
#X obj 217 61 r uni_\$0;
#X obj 177 91 router;
#X obj 139 189 + 0.5;
#X obj 146 146 / 2;
#X connect 0 0 3 0 empty;
#X connect 2 0 3 1 empty;
#X connect 3 0 5 0 empty;
#X connect 3 1 1 0 empty;
#X connect 4 0 1 0 empty;
#X connect 5 0 4 0 empty;
#X restore 219 319 pd yval;
#X obj 279 319 tabwrite \$1;
#X connect 0 0 6 0 empty;
#X connect 4 0 0 0 empty;
#X connect 10 0 5 0 empty;
#X connect 13 0 12 0 empty;
#X connect 13 0 18 1 empty;
#X connect 14 0 17 0 empty;
#X connect 14 0 18 0 empty;
#X coords 0 0 1 1 472 242 2 0 0;
