#N canvas 827 239 520 420 12;
#N canvas 0 50 450 300 arr_subpatch_\$0 1;
#N canvas 0 50 450 300 arr-graph_\$0 0;
#X array \$1 64 float 2;
#X coords 0 -1 100 1 514 258 1;
#X restore -1 -1 pd arr-graph_\$0;
#X coords 0 -1 100 1 514 258 2 0 0;
#X restore -1 -1 pd arr_subpatch_\$0;
#X obj -1 -1 cnv 15 514 258 empty bg\$0 empty 20 12 0 14 #191919 #ffffff 0;
#N canvas 0 50 450 300 sliders_\$0 1;
#X obj 3 128 cnv 2 4 1 empty sl01030 empty 20 12 0 14 #5bcefa #ffffff 0;
#X obj 11 128 cnv 2 4 1 empty sl11030 empty 20 12 0 14 #5bcefa #ffffff 0;
#X obj 19 110 cnv 2 4 18 empty sl21030 empty 20 12 0 14 #5bcefa #ffffff 0;
#X obj 27 107 cnv 2 4 21 empty sl31030 empty 20 12 0 14 #5bcefa #ffffff 0;
#X obj 35 128 cnv 2 4 4 empty sl41030 empty 20 12 0 14 #5bcefa #ffffff 0;
#X obj 43 128 cnv 2 4 12 empty sl51030 empty 20 12 0 14 #5bcefa #ffffff 0;
#X obj 51 128 cnv 2 4 16 empty sl61030 empty 20 12 0 14 #5bcefa #ffffff 0;
#X obj 59 128 cnv 2 4 21 empty sl71030 empty 20 12 0 14 #5bcefa #ffffff 0;
#X obj 67 128 cnv 2 4 22 empty sl81030 empty 20 12 0 14 #5bcefa #ffffff 0;
#X obj 75 128 cnv 2 4 22 empty sl91030 empty 20 12 0 14 #5bcefa #ffffff 0;
#X obj 83 128 cnv 2 4 22 empty sl101030 empty 20 12 0 14 #5bcefa #ffffff 0;
#X obj 91 128 cnv 2 4 18 empty sl111030 empty 20 12 0 14 #ffacab #ffffff 0;
#X obj 99 128 cnv 2 4 12 empty sl121030 empty 20 12 0 14 #ffacab #ffffff 0;
#X obj 107 128 cnv 2 4 8 empty sl131030 empty 20 12 0 14 #ffacab #ffffff 0;
#X obj 115 128 cnv 2 4 1 empty sl141030 empty 20 12 0 14 #ffacab #ffffff 0;
#X obj 123 122 cnv 2 4 6 empty sl151030 empty 20 12 0 14 #ffacab #ffffff 0;
#X obj 131 114 cnv 2 4 14 empty sl161030 empty 20 12 0 14 #ffacab #ffffff 0;
#X obj 139 105 cnv 2 4 23 empty sl171030 empty 20 12 0 14 #ffacab #ffffff 0;
#X obj 147 97 cnv 2 4 31 empty sl181030 empty 20 12 0 14 #ffacab #ffffff 0;
#X obj 155 87 cnv 2 4 41 empty sl191030 empty 20 12 0 14 #ffacab #ffffff 0;
#X obj 163 81 cnv 2 4 47 empty sl201030 empty 20 12 0 14 #ffacab #ffffff 0;
#X obj 171 78 cnv 2 4 50 empty sl211030 empty 20 12 0 14 #ffffff #ffffff 0;
#X obj 179 79 cnv 2 4 49 empty sl221030 empty 20 12 0 14 #ffffff #ffffff 0;
#X obj 187 84 cnv 2 4 44 empty sl231030 empty 20 12 0 14 #ffffff #ffffff 0;
#X obj 195 89 cnv 2 4 39 empty sl241030 empty 20 12 0 14 #ffffff #ffffff 0;
#X obj 203 100 cnv 2 4 28 empty sl251030 empty 20 12 0 14 #ffffff #ffffff 0;
#X obj 211 119 cnv 2 4 9 empty sl261030 empty 20 12 0 14 #ffffff #ffffff 0;
#X obj 219 128 cnv 2 4 7 empty sl271030 empty 20 12 0 14 #ffffff #ffffff 0;
#X obj 227 128 cnv 2 4 38 empty sl281030 empty 20 12 0 14 #ffffff #ffffff 0;
#X obj 235 128 cnv 2 4 42 empty sl291030 empty 20 12 0 14 #ffffff #ffffff 0;
#X obj 243 128 cnv 2 4 45 empty sl301030 empty 20 12 0 14 #ffffff #ffffff 0;
#X obj 251 128 cnv 2 4 46 empty sl311030 empty 20 12 0 14 #ffffff #ffffff 0;
#X obj 259 128 cnv 2 4 46 empty sl321030 empty 20 12 0 14 #ffffff #ffffff 0;
#X obj 267 128 cnv 2 4 46 empty sl331030 empty 20 12 0 14 #ffffff #ffffff 0;
#X obj 275 128 cnv 2 4 35 empty sl341030 empty 20 12 0 14 #ffffff #ffffff 0;
#X obj 283 128 cnv 2 4 35 empty sl351030 empty 20 12 0 14 #ffacab #ffffff 0;
#X obj 291 128 cnv 2 4 36 empty sl361030 empty 20 12 0 14 #ffacab #ffffff 0;
#X obj 299 128 cnv 2 4 38 empty sl371030 empty 20 12 0 14 #ffacab #ffffff 0;
#X obj 307 128 cnv 2 4 40 empty sl381030 empty 20 12 0 14 #ffacab #ffffff 0;
#X obj 315 128 cnv 2 4 41 empty sl391030 empty 20 12 0 14 #ffacab #ffffff 0;
#X obj 323 128 cnv 2 4 44 empty sl401030 empty 20 12 0 14 #ffacab #ffffff 0;
#X obj 331 128 cnv 2 4 44 empty sl411030 empty 20 12 0 14 #ffacab #ffffff 0;
#X obj 339 128 cnv 2 4 45 empty sl421030 empty 20 12 0 14 #ffacab #ffffff 0;
#X obj 347 128 cnv 2 4 45 empty sl431030 empty 20 12 0 14 #ffacab #ffffff 0;
#X obj 355 128 cnv 2 4 45 empty sl441030 empty 20 12 0 14 #ffacab #ffffff 0;
#X obj 363 128 cnv 2 4 45 empty sl451030 empty 20 12 0 14 #ffacab #ffffff 0;
#X obj 371 128 cnv 2 4 45 empty sl461030 empty 20 12 0 14 #5bcefa #ffffff 0;
#X obj 379 128 cnv 2 4 45 empty sl471030 empty 20 12 0 14 #5bcefa #ffffff 0;
#X obj 387 128 cnv 2 4 45 empty sl481030 empty 20 12 0 14 #5bcefa #ffffff 0;
#X obj 395 128 cnv 2 4 45 empty sl491030 empty 20 12 0 14 #5bcefa #ffffff 0;
#X obj 403 128 cnv 2 4 45 empty sl501030 empty 20 12 0 14 #5bcefa #ffffff 0;
#X obj 411 128 cnv 2 4 45 empty sl511030 empty 20 12 0 14 #5bcefa #ffffff 0;
#X obj 419 128 cnv 2 4 45 empty sl521030 empty 20 12 0 14 #5bcefa #ffffff 0;
#X obj 427 128 cnv 2 4 45 empty sl531030 empty 20 12 0 14 #5bcefa #ffffff 0;
#X obj 435 128 cnv 2 4 45 empty sl541030 empty 20 12 0 14 #5bcefa #ffffff 0;
#X obj 443 128 cnv 2 4 45 empty sl551030 empty 20 12 0 14 #5bcefa #ffffff 0;
#X obj 451 128 cnv 2 4 45 empty sl561030 empty 20 12 0 14 #5bcefa #ffffff 0;
#X obj 459 128 cnv 2 4 45 empty sl571030 empty 20 12 0 14 #5bcefa #ffffff 0;
#X obj 467 128 cnv 2 4 45 empty sl581030 empty 20 12 0 14 #5bcefa #ffffff 0;
#X obj 475 128 cnv 2 4 44 empty sl591030 empty 20 12 0 14 #5bcefa #ffffff 0;
#X obj 483 128 cnv 2 4 43 empty sl601030 empty 20 12 0 14 #5bcefa #ffffff 0;
#X obj 491 128 cnv 2 4 40 empty sl611030 empty 20 12 0 14 #5bcefa #ffffff 0;
#X obj 499 128 cnv 2 4 36 empty sl621030 empty 20 12 0 14 #5bcefa #ffffff 0;
#X obj 507 128 cnv 2 4 34 empty sl631030 empty 20 12 0 14 #5bcefa #ffffff 0;
#X coords 0 0 1 1 514 258 2 0 0;
#X restore 0 0 pd sliders_\$0;
#N canvas 0 50 380 410 construct 1;
#X msg 319 339 clear;
#X obj 19 109 loop;
#X obj 35 249 +;
#N canvas 0 50 450 300 calc-y-pos 0;
#X obj 39 269 outlet;
#X obj 139 99 / 2;
#X obj 39 69 select 0;
#X obj 39 179 f;
#X obj 79 109 b;
#X obj 199 169 f;
#X obj 209 29 r height_\$0;
#X obj 39 19 r uni_\$0;
#X connect 1 0 3 1 empty;
#X connect 2 0 3 0 empty;
#X connect 2 1 4 0 empty;
#X connect 3 0 0 0 empty;
#X connect 4 0 5 0 empty;
#X connect 5 0 0 0 empty;
#X connect 6 0 1 0 empty;
#X connect 6 0 5 1 empty;
#X connect 7 0 2 0 empty;
#X restore 81 249 pd calc-y-pos;
#X obj 19 163 t f f;
#X obj 189 249 -;
#X obj 129 119 swap;
#X obj 129 153 /;
#X obj 35 209 *;
#X msg 19 319 obj \$2 \$3 cnv 2 \$4 0 empty sl\$1\$5 empty 20 12 0 14 #ffffff #ffffff 0, f 33;
#X obj 149 89 r width_\$0;
#X obj 19 9 r n_\$0;
#X obj 81 219 r xoffset_\$0;
#X obj 210 219 r spacing_\$0;
#X obj 199 189 s slider_width_\$0;
#X obj 19 369 s pd-sliders_\$0;
#X obj 19 289 pack f f f f \$0;
#X text 349 388 <3;
#X text 99 18 fill the graph area with evenly spaced cnv objects;
#X obj 19 49 t f f b;
#X connect 0 0 15 0 32.................E....Ts+++eA....U6+++q.....;
#X connect 1 0 4 0 empty;
#X connect 2 0 16 1 empty;
#X connect 3 0 16 2 32.................G....P9++++A....j++++SA....;
#X connect 4 0 16 0 empty;
#X connect 4 1 8 0 32.................R....L....fD....C....PB....;
#X connect 5 0 16 3 32.................O....33++++C....N9+++SA....;
#X connect 6 0 7 0 empty;
#X connect 6 1 7 1 empty;
#X connect 7 0 8 1 32.................W....v5++++E....r9+++6B....;
#X connect 7 0 5 0 32.................l....vC...fI....7....vD....;
#X connect 7 0 14 0 32.................H....XD....B....FA....A....;
#X connect 8 0 2 0 empty;
#X connect 9 0 15 0 empty;
#X connect 10 0 6 1 empty;
#X connect 11 0 19 0 empty;
#X connect 12 0 2 1 32.................E....38+++eA....d++++q.....;
#X connect 13 0 5 1 empty;
#X connect 16 0 9 0 empty;
#X connect 19 0 1 0 empty;
#X connect 19 1 6 0 32.................Q.....F...PD....fA...HC....;
#X connect 19 2 0 0 32.................F....7P...fA....OD...3P....;
#X restore 539 209 pd construct;
#N canvas 0 50 450 300 resize 1;
#X obj 109 29 r height_\$0;
#X obj 9 29 r width_\$0;
#X msg 189 219 coords 0 0 1 1 \$1 \$2 2;
#X obj 79 119 + 2;
#X obj 29 119 + 2;
#X obj 189 249 s pd-sliders_\$0;
#X obj 29 169 pack2;
#X msg 339 219 coords 0 0 1 1 \$1 \$2 2;
#X obj 489 249 s bg\$0;
#X msg 489 219 vis_size \$1 \$2;
#X obj 339 249 s this\$1;
#X text 189 278 the graph (with the sliders);
#X text 339 168 the bounds of the abstraction itself;
#X text 489 278 the background cnv object;
#X obj 179 369 s pd-arr-graph_\$0;
#X obj 29 369 s pd-arr_subpatch_\$0;
#X text 19 408 the underlying array \, i put it inside a subpatch so it updates (future plugdata might not need this), f 40;
#X msg 29 319 coords 0 1 100 -1 \$1 \$2 2;
#X connect 0 0 3 0 empty;
#X connect 1 0 4 0 empty;
#X connect 2 0 5 0 empty;
#X connect 3 0 6 1 empty;
#X connect 4 0 6 0 empty;
#X connect 6 0 2 0 empty;
#X connect 6 0 7 0 empty;
#X connect 6 0 9 0 empty;
#X connect 6 0 17 0 empty;
#X connect 7 0 10 0 empty;
#X connect 9 0 8 0 empty;
#X connect 17 0 14 0 empty;
#X connect 17 0 15 0 empty;
#X restore 539 119 pd resize;
#N canvas 0 50 730 280 methods 1;
#X obj 185 209 s width_\$0;
#X obj 262 209 s height_\$0;
#X obj 122 209 s uni_\$0;
#X obj 69 209 s n_\$0;
#X obj 344 209 s spacing_\$0;
#X obj 39 9 inlet;
#X obj 39 89 max 1;
#X obj 435 209 s xoffset_\$0;
#X obj 262 89 t b f;
#X obj 223 89 t b f;
#X obj 89 89 t b f;
#X obj 128 89 t b f;
#X obj 69 149 f;
#X obj 122 179 f;
#X obj 167 89 t b b f;
#X obj 522 209 s setbg_\$0;
#X obj 359 79 s fg_\$0;
#N canvas 0 50 710 395 savestate 1;
#X obj 105 89 savestate;
#X obj 139 359 outlet;
#X obj 40 19 r n_\$0;
#X obj 91 19 r uni_\$0;
#X obj 152 19 r width_\$0;
#X obj 228 19 r height_\$0;
#X obj 308 19 r spacing_\$0;
#X obj 397 19 r xoffset_\$0;
#X obj 188 359 outlet;
#X obj 237 359 outlet;
#X obj 286 359 outlet;
#X obj 335 359 outlet;
#X obj 384 359 outlet;
#X obj 319 129 list store;
#X obj 439 329 symbol #191919;
#X obj 439 359 outlet;
#X obj 482 19 r setbg_\$0;
#X obj 161 119 t b b;
#X obj 119 209 router;
#X msg 143 182 1;
#X obj 197 219 list store;
#X text 389 178 this way we have a list to modify;
#N canvas 0 50 461 439 color-loop 0;
#X obj 19 9 inlet;
#X obj 19 149 until;
#X obj 106 269 list store;
#X obj 19 103 t b b l, f 21;
#X obj 19 189 f;
#X obj 69 189 + 1;
#X msg 82 139 0;
#X msg 89 229 get \$1;
#X obj 19 238 t f f;
#X obj 19 409 s fg_\$0;
#X obj 19 379 pack f s;
#X obj 106 299 route 0;
#X msg 53 336 symbol #ffffff;
#X text 189 178 <- kinda stolen from list-help.pd (the loop part);
#X obj 19 69 list store;
#X obj 19 39 t b l;
#X obj 109 29 r referesh-colors_\$0;
#X connect 0 0 15 0 empty;
#X connect 1 0 4 0 empty;
#X connect 2 0 11 0 empty;
#X connect 2 1 1 1 empty;
#X connect 3 0 1 0 empty;
#X connect 3 1 6 0 empty;
#X connect 3 2 2 1 empty;
#X connect 4 0 5 0 empty;
#X connect 4 0 8 0 empty;
#X connect 5 0 4 1 empty;
#X connect 6 0 4 1 empty;
#X connect 7 0 2 0 empty;
#X connect 8 0 10 0 empty;
#X connect 8 1 7 0 empty;
#X connect 10 0 9 0 empty;
#X connect 11 0 12 0 empty;
#X connect 11 1 10 1 empty;
#X connect 12 0 10 1 empty;
#X connect 14 0 3 0 empty;
#X connect 15 0 14 0 empty;
#X connect 15 1 14 1 empty;
#X connect 16 0 14 0 empty;
#X restore 143 249 pd color-loop;
#X obj 9 359 array define tmp\$0;
#X msg 9 329 resize \$1;
#X obj 276 179 array get tmp\$0;
#X obj 105 139 t b l b;
#N canvas 0 50 450 300 get-list 0;
#X obj 189 279 outlet;
#X msg 189 239 set \$1 \$2;
#X obj 189 49 r fg_\$0;
#X obj 189 89 t l l;
#X obj 262 156 expr $f1 >= 0 && $f1 < $f2;
#X msg 262 129 \$1;
#X obj 189 179 spigot;
#X obj 399 119 r n_\$0;
#X connect 1 0 0 0 empty;
#X connect 2 0 3 0 empty;
#X connect 3 0 6 0 empty;
#X connect 3 1 5 0 empty;
#X connect 4 0 6 1 empty;
#X connect 5 0 4 0 empty;
#X connect 6 0 1 0 empty;
#X connect 7 0 4 1 empty;
#X restore 197 179 pd get-list;
#X obj 559 19 r syncmetro_\$0;
#X obj 559 359 outlet;
#X obj 440 239 loadbang;
#X obj 358 89 pack2 100 0 400 200 2 3 s 40;
#X obj 559 329 40;
#X obj 384 329 3;
#X obj 335 329 2;
#X obj 286 329 200;
#X obj 237 329 400;
#X obj 188 329 0;
#X obj 139 329 100;
#X obj 440 269 t b b b b b b b b;
#X text 520 248 init the defaults (for creation);
#X obj 119 279 unpack f f f f f f s f;
#X connect 0 0 26 0 empty;
#X connect 0 1 17 0 empty;
#X connect 2 0 31 0 empty;
#X connect 3 0 31 1 empty;
#X connect 4 0 31 2 empty;
#X connect 5 0 31 3 empty;
#X connect 6 0 31 4 empty;
#X connect 7 0 31 5 empty;
#X connect 13 0 0 0 empty;
#X connect 14 0 15 0 empty;
#X connect 16 0 31 6 empty;
#X connect 17 0 20 0 empty;
#X connect 17 1 13 0 empty;
#X connect 18 0 41 0 empty;
#X connect 18 1 22 0 empty;
#X connect 19 0 18 1 empty;
#X connect 20 0 0 0 empty;
#X connect 24 0 23 0 empty;
#X connect 25 0 20 1 empty;
#X connect 26 0 19 0 empty;
#X connect 26 1 18 0 empty;
#X connect 26 2 25 0 empty;
#X connect 27 0 20 0 empty;
#X connect 28 0 31 7 empty;
#X connect 30 0 39 0 empty;
#X connect 31 0 13 1 empty;
#X connect 32 0 29 0 empty;
#X connect 33 0 12 0 empty;
#X connect 34 0 11 0 empty;
#X connect 35 0 10 0 empty;
#X connect 36 0 9 0 empty;
#X connect 37 0 8 0 empty;
#X connect 38 0 1 0 empty;
#X connect 39 0 38 0 empty;
#X connect 39 1 37 0 empty;
#X connect 39 2 36 0 empty;
#X connect 39 3 35 0 empty;
#X connect 39 4 34 0 empty;
#X connect 39 5 33 0 empty;
#X connect 39 6 14 0 empty;
#X connect 39 7 32 0 empty;
#X connect 41 0 24 0 empty;
#X connect 41 0 38 0 empty;
#X connect 41 1 37 0 empty;
#X connect 41 2 36 0 empty;
#X connect 41 3 35 0 empty;
#X connect 41 4 34 0 empty;
#X connect 41 5 33 0 empty;
#X connect 41 6 14 0 empty;
#X connect 41 7 32 0 empty;
#X restore 479 79 pd savestate;
#X obj 39 39 route resize uni width height spacing xoffset bg fg syncmetro, f 56;
#X obj 609 209 s syncmetro_\$0;
#X obj 29 239 s referesh-colors_\$0;
#X obj 29 179 t b f;
#X connect 5 0 18 0 empty;
#X connect 6 0 12 0 empty;
#X connect 8 0 12 0 empty;
#X connect 8 1 7 0 empty;
#X connect 9 0 12 0 empty;
#X connect 9 1 4 0 empty;
#X connect 10 0 12 0 empty;
#X connect 10 1 13 0 empty;
#X connect 11 0 12 0 empty;
#X connect 11 1 0 0 empty;
#X connect 12 0 21 0 empty;
#X connect 13 0 2 0 empty;
#X connect 14 0 12 0 empty;
#X connect 14 1 13 0 empty;
#X connect 14 2 1 0 empty;
#X connect 17 0 12 0 empty;
#X connect 17 1 13 0 empty;
#X connect 17 2 0 0 empty;
#X connect 17 3 1 0 empty;
#X connect 17 4 4 0 empty;
#X connect 17 5 7 0 empty;
#X connect 17 6 15 0 empty;
#X connect 17 7 19 0 empty;
#X connect 18 0 6 0 empty;
#X connect 18 1 10 0 empty;
#X connect 18 2 11 0 empty;
#X connect 18 3 14 0 empty;
#X connect 18 4 9 0 empty;
#X connect 18 5 8 0 empty;
#X connect 18 6 15 0 empty;
#X connect 18 7 16 0 empty;
#X connect 18 8 19 0 empty;
#X connect 21 0 20 0 empty;
#X connect 21 1 3 0 empty;
#X restore 539 39 pd methods;
#N canvas 0 50 520 440 move-slider 1;
#X obj 69 409 s;
#X obj 69 289 -;
#X msg 69 319 delta 0 \$1;
#X obj 129 249 * -1;
#X obj 69 259 t f f;
#X obj 130 217 moses 1;
#X msg 166 172 0;
#X obj 299 239 *;
#X obj 299 319 pack;
#X obj 150 319 pack;
#X msg 150 349 vis_size \$2 \$1;
#N canvas 0 50 450 300 set-pos 0;
#X obj 109 59 inlet;
#X obj 219 59 inlet;
#X obj 159 219 outlet;
#X msg 159 169 pos 507 128;
#X msg 219 109 set pos \$1 \$2;
#X text 389 278 moths;
#X connect 0 0 3 0 empty;
#X connect 1 0 4 0 empty;
#X connect 3 0 2 0 empty;
#X connect 4 0 3 0 empty;
#X restore 249 349 pd set-pos;
#X obj 299 279 +;
#X obj 130 106 * -1;
#X obj 399 179 f;
#X obj 399 209 t f f;
#X obj 130 76 *;
#X msg 409 349 symbol sl\$1\$2;
#X obj 139 39 r height_\$0;
#X obj 409 309 pack f \$0;
#X obj 409 149 r index_\$0;
#X obj 9 9 r yval_\$0;
#X obj 199 189 r slider_width_\$0;
#X obj 339 239 r xoffset_\$0;
#N canvas 0 50 450 300 calc-y-pos 0;
#X obj 39 269 outlet;
#X obj 139 99 / 2;
#X obj 39 69 select 0;
#X obj 39 179 f;
#X obj 79 109 b;
#X obj 159 169 f;
#X obj 219 19 r height_\$0;
#X obj 39 19 r uni_\$0;
#X connect 1 0 3 1 empty;
#X connect 2 0 3 0 empty;
#X connect 2 1 4 0 empty;
#X connect 3 0 0 0 empty;
#X connect 4 0 5 0 empty;
#X connect 5 0 0 0 empty;
#X connect 6 0 1 0 empty;
#X connect 6 0 5 1 empty;
#X connect 7 0 2 0 empty;
#X restore 339 279 pd calc-y-pos;
#X obj 199 279 -;
#X obj 209 239 r spacing_\$0;
#X text 479 408 :3;
#X text 239 18 scale and/or move [cnv] object \; index selects which one to move \; and y-value is the "slider" value;
#X obj 59 39 r uni_\$0;
#X obj 29 69 router;
#X obj 29 105 - 0.5;
#X obj 129 139 t f b b b;
#X connect 1 0 2 0 empty;
#X connect 2 0 0 0 empty;
#X connect 3 0 9 0 empty;
#X connect 4 0 1 1 empty;
#X connect 4 1 1 0 empty;
#X connect 5 0 4 0 empty;
#X connect 5 0 3 0 empty;
#X connect 5 1 9 0 empty;
#X connect 6 0 5 0 empty;
#X connect 7 0 12 0 empty;
#X connect 8 0 11 1 empty;
#X connect 9 0 10 0 empty;
#X connect 10 0 0 0 empty;
#X connect 11 0 0 0 empty;
#X connect 12 0 8 0 empty;
#X connect 13 0 32 0 empty;
#X connect 14 0 15 0 empty;
#X connect 15 0 7 0 empty;
#X connect 15 1 19 0 empty;
#X connect 16 0 13 0 empty;
#X connect 17 0 0 1 empty;
#X connect 18 0 16 1 empty;
#X connect 19 0 17 0 empty;
#X connect 20 0 14 1 empty;
#X connect 21 0 30 0 empty;
#X connect 22 0 25 0 empty;
#X connect 22 0 7 1 empty;
#X connect 23 0 12 1 empty;
#X connect 24 0 8 1 empty;
#X connect 25 0 9 1 empty;
#X connect 26 0 25 1 empty;
#X connect 29 0 30 1 empty;
#X connect 30 0 31 0 empty;
#X connect 30 1 16 0 empty;
#X connect 31 0 16 0 empty;
#X connect 32 0 5 0 empty;
#X connect 32 1 11 0 empty;
#X connect 32 2 6 0 empty;
#X connect 32 3 14 0 empty;
#X restore 539 179 pd move-slider;
#X obj 539 9 inlet;
#X text 539 288 amy universe - 2023 \; github.com/tomara-x;
#X obj 539 239 namecanvas this\$1;
#N canvas 0 50 450 300 bg 1;
#X msg 139 119 color \$1;
#X obj 139 179 s bg\$0;
#X text 209 118 set background cnv color;
#X obj 139 69 symbol;
#X obj 139 29 r setbg_\$0;
#X connect 0 0 1 0 empty;
#X connect 3 0 0 0 empty;
#X connect 4 0 3 0 empty;
#X restore 539 149 pd bg;
#N canvas 0 50 450 300 sync 1;
#X obj 129 199 s index_\$0;
#N canvas 0 50 450 300 yval 0;
#X obj 159 29 inlet;
#X obj 209 229 s yval_\$0;
#X obj 217 61 r uni_\$0;
#X obj 177 91 router;
#X obj 139 189 + 0.5;
#X obj 146 146 / 2;
#X connect 0 0 3 0 empty;
#X connect 2 0 3 1 empty;
#X connect 3 0 5 0 empty;
#X connect 3 1 1 0 empty;
#X connect 4 0 1 0 empty;
#X connect 5 0 4 0 empty;
#X restore 29 249 pd yval;
#X obj 29 172 t f f;
#X obj 29 202 tabread \$1;
#X obj 29 79 metro 40;
#X obj 149 149 array size \$1;
#X obj 147 95 r n_\$0;
#X obj 29 19 loadbang;
#X obj 119 19 r syncmetro_\$0;
#X obj 119 49 max 15;
#X text 179 48 you don't need more than 60fps!;
#X obj 29 142 loop 64;
#X connect 2 0 3 0 empty;
#X connect 2 1 0 0 empty;
#X connect 3 0 1 0 empty;
#X connect 4 0 11 0 empty;
#X connect 6 0 5 0 empty;
#X connect 6 0 11 1 empty;
#X connect 7 0 4 0 empty;
#X connect 8 0 9 0 empty;
#X connect 9 0 4 1 empty;
#X connect 11 0 2 0 empty;
#X restore 539 89 pd sync;
#N canvas 0 50 450 300 fg 1;
#X obj 79 29 r fg_\$0;
#X msg 79 199 color \$1;
#X obj 79 239 s;
#X msg 149 199 symbol sl\$1\$2;
#X msg 79 79 \$2 \$1;
#X obj 149 169 pack f \$0;
#X obj 79 119 unpack s f;
#X connect 0 0 4 0 empty;
#X connect 1 0 2 0 empty;
#X connect 3 0 2 1 empty;
#X connect 4 0 6 0 empty;
#X connect 5 0 3 0 empty;
#X connect 6 0 1 0 empty;
#X connect 6 1 5 0 empty;
#X restore 589 149 pd fg;
#X connect 7 0 5 0 empty;
#X coords 0 0 1 1 514 258 2 0 0;
