#N canvas 827 239 520 420 12;
#X obj -1 -1 cnv 15 514 258 empty bg\$0 empty 20 12 0 14 #191919 #ffffff 0;
#N canvas 0 50 450 300 sliders_\$0 1;
#X obj 3 71 cnv 2 5 57 empty sl01006 empty 20 12 0 14 #ffacab #ffffff 0;
#X obj 11 75 cnv 2 5 53 empty sl11006 empty 20 12 0 14 #ffacab #ffffff 0;
#X obj 19 83 cnv 2 5 45 empty sl21006 empty 20 12 0 14 #ffacab #ffffff 0;
#X obj 27 87 cnv 2 5 41 empty sl31006 empty 20 12 0 14 #ffacab #ffffff 0;
#X obj 35 91 cnv 2 5 37 empty sl41006 empty 20 12 0 14 #ffacab #ffffff 0;
#X obj 43 99 cnv 2 5 29 empty sl51006 empty 20 12 0 14 #ffacab #ffffff 0;
#X obj 51 69 cnv 2 5 59 empty sl61006 empty 20 12 0 14 #ffacab #ffffff 0;
#X obj 59 51 cnv 2 5 77 empty sl71006 empty 20 12 0 14 #ffacab #ffffff 0;
#X obj 67 47 cnv 2 5 81 empty sl81006 empty 20 12 0 14 #ffacab #ffffff 0;
#X obj 75 46 cnv 2 5 82 empty sl91006 empty 20 12 0 14 #ffffff #ffffff 0;
#X obj 83 46 cnv 2 5 82 empty sl101006 empty 20 12 0 14 #ffffff #ffffff 0;
#X obj 91 46 cnv 2 5 82 empty sl111006 empty 20 12 0 14 #ffffff #ffffff 0;
#X obj 99 48 cnv 2 5 80 empty sl121006 empty 20 12 0 14 #ffffff #ffffff 0;
#X obj 107 52 cnv 2 5 76 empty sl131006 empty 20 12 0 14 #ffffff #ffffff 0;
#X obj 115 58 cnv 2 5 70 empty sl141006 empty 20 12 0 14 #ffffff #ffffff 0;
#X obj 123 62 cnv 2 5 66 empty sl151006 empty 20 12 0 14 #ffffff #ffffff 0;
#X obj 131 69 cnv 2 5 59 empty sl161006 empty 20 12 0 14 #ffffff #ffffff 0;
#X obj 139 81 cnv 2 5 47 empty sl171006 empty 20 12 0 14 #ffffff #ffffff 0;
#X obj 147 87 cnv 2 5 41 empty sl181006 empty 20 12 0 14 #ffffff #ffffff 0;
#X obj 155 93 cnv 2 5 35 empty sl191006 empty 20 12 0 14 #ffffff #ffffff 0;
#X obj 163 106 cnv 2 5 22 empty sl201006 empty 20 12 0 14 #ffffff #ffffff 0;
#X obj 171 115 cnv 2 5 13 empty sl211006 empty 20 12 0 14 #ffffff #ffffff 0;
#X obj 179 128 cnv 2 5 5 empty sl221006 empty 20 12 0 14 #ffffff #ffffff 0;
#X obj 187 128 cnv 2 5 17 empty sl231006 empty 20 12 0 14 #5bcefa #ffffff 0;
#X obj 195 128 cnv 2 5 34 empty sl241006 empty 20 12 0 14 #5bcefa #ffffff 0;
#X obj 203 128 cnv 2 5 38 empty sl251006 empty 20 12 0 14 #5bcefa #ffffff 0;
#X obj 211 128 cnv 2 5 53 empty sl261006 empty 20 12 0 14 #5bcefa #ffffff 0;
#X obj 219 128 cnv 2 5 61 empty sl271006 empty 20 12 0 14 #5bcefa #ffffff 0;
#X obj 227 128 cnv 2 5 67 empty sl281006 empty 20 12 0 14 #5bcefa #ffffff 0;
#X obj 235 128 cnv 2 5 70 empty sl291006 empty 20 12 0 14 #5bcefa #ffffff 0;
#X obj 243 128 cnv 2 5 70 empty sl301006 empty 20 12 0 14 #5bcefa #ffffff 0;
#X obj 251 128 cnv 2 5 70 empty sl311006 empty 20 12 0 14 #5bcefa #ffffff 0;
#X obj 259 128 cnv 2 5 64 empty sl321006 empty 20 12 0 14 #5bcefa #ffffff 0;
#X obj 267 128 cnv 2 5 60 empty sl331006 empty 20 12 0 14 #5bcefa #ffffff 0;
#X obj 275 128 cnv 2 5 49 empty sl341006 empty 20 12 0 14 #5bcefa #ffffff 0;
#X obj 283 128 cnv 2 5 42 empty sl351006 empty 20 12 0 14 #5bcefa #ffffff 0;
#X obj 291 128 cnv 2 5 29 empty sl361006 empty 20 12 0 14 #ffffff #ffffff 0;
#X obj 299 128 cnv 2 5 12 empty sl371006 empty 20 12 0 14 #ffffff #ffffff 0;
#X obj 307 123 cnv 2 5 5 empty sl381006 empty 20 12 0 14 #ffffff #ffffff 0;
#X obj 315 105 cnv 2 5 23 empty sl391006 empty 20 12 0 14 #ffffff #ffffff 0;
#X obj 323 93 cnv 2 5 35 empty sl401006 empty 20 12 0 14 #ffffff #ffffff 0;
#X obj 331 74 cnv 2 5 54 empty sl411006 empty 20 12 0 14 #ffffff #ffffff 0;
#X obj 339 67 cnv 2 5 61 empty sl421006 empty 20 12 0 14 #ffffff #ffffff 0;
#X obj 347 67 cnv 2 5 61 empty sl431006 empty 20 12 0 14 #ffffff #ffffff 0;
#X obj 355 67 cnv 2 5 61 empty sl441006 empty 20 12 0 14 #ffffff #ffffff 0;
#X obj 363 67 cnv 2 5 61 empty sl451006 empty 20 12 0 14 #ffffff #ffffff 0;
#X obj 371 67 cnv 2 5 61 empty sl461006 empty 20 12 0 14 #ffffff #ffffff 0;
#X obj 379 68 cnv 2 5 60 empty sl471006 empty 20 12 0 14 #ffffff #ffffff 0;
#X obj 387 71 cnv 2 5 57 empty sl481006 empty 20 12 0 14 #ffffff #ffffff 0;
#X obj 395 74 cnv 2 5 54 empty sl491006 empty 20 12 0 14 #ffffff #ffffff 0;
#X obj 403 78 cnv 2 5 50 empty sl501006 empty 20 12 0 14 #ffffff #ffffff 0;
#X obj 411 84 cnv 2 5 44 empty sl511006 empty 20 12 0 14 #ffffff #ffffff 0;
#X obj 419 64 cnv 2 5 64 empty sl521006 empty 20 12 0 14 #ffffff #ffffff 0;
#X obj 427 64 cnv 2 5 64 empty sl531006 empty 20 12 0 14 #ffffff #ffffff 0;
#X obj 435 65 cnv 2 5 63 empty sl541006 empty 20 12 0 14 #ffffff #ffffff 0;
#X obj 443 67 cnv 2 5 61 empty sl551006 empty 20 12 0 14 #ffffff #ffffff 0;
#X obj 451 67 cnv 2 5 61 empty sl561006 empty 20 12 0 14 #ffffff #ffffff 0;
#X obj 459 68 cnv 2 5 60 empty sl571006 empty 20 12 0 14 #ffffff #ffffff 0;
#X obj 467 69 cnv 2 5 59 empty sl581006 empty 20 12 0 14 #ffffff #ffffff 0;
#X obj 475 71 cnv 2 5 57 empty sl591006 empty 20 12 0 14 #ffffff #ffffff 0;
#X obj 483 72 cnv 2 5 56 empty sl601006 empty 20 12 0 14 #ffffff #ffffff 0;
#X obj 491 75 cnv 2 5 53 empty sl611006 empty 20 12 0 14 #ffffff #ffffff 0;
#X obj 499 78 cnv 2 5 50 empty sl621006 empty 20 12 0 14 #ffffff #ffffff 0;
#X obj 507 84 cnv 2 5 44 empty sl631006 empty 20 12 0 14 #ffffff #ffffff 0;
#X coords 0 0 1 1 514 258 2 0 0;
#X restore 0 0 pd sliders_\$0;
#N canvas 0 50 380 410 construct 1;
#X msg 319 339 clear;
#X obj 19 109 loop;
#X obj 35 249 +;
#N canvas 0 50 450 300 calc-y-pos 0;
#X obj 39 269 outlet;
#X obj 139 99 / 2;
#X obj 39 69 select 0;
#X obj 39 179 f;
#X obj 79 109 b;
#X obj 199 169 f;
#X obj 209 29 r height_\$0;
#X obj 39 19 r uni_\$0;
#X connect 1 0 3 1 empty;
#X connect 2 0 3 0 empty;
#X connect 2 1 4 0 empty;
#X connect 3 0 0 0 empty;
#X connect 4 0 5 0 empty;
#X connect 5 0 0 0 empty;
#X connect 6 0 1 0 empty;
#X connect 6 0 5 1 empty;
#X connect 7 0 2 0 empty;
#X restore 81 249 pd calc-y-pos;
#X obj 19 163 t f f;
#X obj 189 249 -;
#X obj 129 119 swap;
#X obj 129 153 /;
#X obj 35 209 *;
#X msg 19 319 obj \$2 \$3 cnv 2 \$4 0 empty sl\$1\$5 empty 20 12 0 14 #ffffff #ffffff 0, f 33;
#X obj 149 89 r width_\$0;
#X obj 19 9 r n_\$0;
#X obj 81 219 r xoffset_\$0;
#X obj 210 219 r spacing_\$0;
#X obj 199 189 s slider_width_\$0;
#X obj 19 369 s pd-sliders_\$0;
#X obj 19 289 pack f f f f \$0;
#X text 349 388 <3;
#X text 99 18 fill the graph area with evenly spaced cnv objects;
#X obj 19 49 t f f b;
#X connect 0 0 15 0 32.................E....Ts+++eA....U6+++q.....;
#X connect 1 0 4 0 empty;
#X connect 2 0 16 1 empty;
#X connect 3 0 16 2 32.................G....P9++++A....j++++SA....;
#X connect 4 0 16 0 empty;
#X connect 4 1 8 0 32.................R....L....fD....C....PB....;
#X connect 5 0 16 3 32.................O....33++++C....N9+++SA....;
#X connect 6 0 7 0 empty;
#X connect 6 1 7 1 empty;
#X connect 7 0 8 1 32.................W....v5++++E....r9+++6B....;
#X connect 7 0 5 0 32.................l....vC...fI....7....vD....;
#X connect 7 0 14 0 32.................H....XD....B....FA....A....;
#X connect 8 0 2 0 empty;
#X connect 9 0 15 0 empty;
#X connect 10 0 6 1 empty;
#X connect 11 0 19 0 empty;
#X connect 12 0 2 1 32.................E....38+++eA....d++++q.....;
#X connect 13 0 5 1 empty;
#X connect 16 0 9 0 empty;
#X connect 19 0 1 0 empty;
#X connect 19 1 6 0 32.................Q.....F...PD....fA...HC....;
#X connect 19 2 0 0 32.................F....7P...fA....OD...3P....;
#X restore 539 209 pd construct;
#N canvas 0 50 450 300 resize 1;
#X obj 109 29 r height_\$0;
#X obj 9 29 r width_\$0;
#X msg 29 219 coords 0 0 1 1 \$1 \$2 2;
#X obj 79 119 + 2;
#X obj 29 119 + 2;
#X obj 29 249 s pd-sliders_\$0;
#X obj 29 169 pack2;
#X msg 179 219 coords 0 0 1 1 \$1 \$2 2;
#X obj 329 249 s bg\$0;
#X msg 329 219 vis_size \$1 \$2;
#X obj 179 249 s this\$1;
#X text 29 278 the graph (with the sliders);
#X text 179 168 the bounds of the abstraction itself;
#X text 329 278 the background cnv object;
#X connect 0 0 3 0 empty;
#X connect 1 0 4 0 empty;
#X connect 2 0 5 0 empty;
#X connect 3 0 6 1 empty;
#X connect 4 0 6 0 empty;
#X connect 6 0 2 0 empty;
#X connect 6 0 7 0 empty;
#X connect 6 0 9 0 empty;
#X connect 7 0 10 0 empty;
#X connect 9 0 8 0 empty;
#X restore 539 119 pd resize;
#N canvas 0 50 800 300 methods 1;
#X obj 155 209 s width_\$0;
#X obj 232 209 s height_\$0;
#X obj 92 209 s uni_\$0;
#X obj 39 209 s n_\$0;
#X obj 314 209 s spacing_\$0;
#X obj 39 9 inlet;
#X obj 39 89 max 1;
#X obj 405 209 s xoffset_\$0;
#X obj 262 89 t b f;
#X obj 223 89 t b f;
#X obj 89 89 t b f;
#X obj 128 89 t b f;
#X obj 39 179 f;
#X obj 92 179 f;
#X obj 167 89 t b b f;
#X obj 492 209 s setbg_\$0;
#X obj 359 79 s fg_\$0;
#N canvas 0 50 710 395 savestate 0;
#X obj 19 89 savestate;
#X obj 139 359 outlet;
#X obj 138 19 r n_\$0;
#X obj 198 19 r uni_\$0;
#X obj 268 19 r width_\$0;
#X obj 348 19 r height_\$0;
#X obj 438 19 r spacing_\$0;
#X obj 538 19 r xoffset_\$0;
#X obj 188 359 outlet;
#X obj 237 359 outlet;
#X obj 286 359 outlet;
#X obj 335 359 outlet;
#X obj 384 359 outlet;
#X obj 319 129 list store;
#X obj 439 329 symbol #191919;
#X obj 439 359 outlet;
#X obj 628 19 r setbg_\$0;
#X obj 65 129 t b b;
#X obj 21 228 router;
#X msg 52 194 1;
#X obj 289 249 list store;
#X text 479 208 this way we have a list to modify;
#N canvas 0 50 450 300 color-loop 0;
#X obj 209 9 inlet;
#X obj 209 129 until;
#X obj 296 249 list store;
#X obj 209 83 t b b l, f 21;
#X obj 209 169 f;
#X obj 259 169 + 1;
#X msg 272 119 0;
#X msg 279 209 get \$1;
#X obj 209 218 t f f;
#X obj 209 389 s fg_\$0;
#X obj 209 359 pack f s;
#X obj 296 279 route 0;
#X msg 243 316 symbol #ffffff;
#X text 379 158 <- kinda stolen from list-help.pd (the loop part);
#X connect 0 0 3 0 empty;
#X connect 1 0 4 0 empty;
#X connect 2 0 11 0 empty;
#X connect 2 1 1 1 empty;
#X connect 3 0 1 0 empty;
#X connect 3 1 6 0 empty;
#X connect 3 2 2 1 empty;
#X connect 4 0 5 0 empty;
#X connect 4 0 8 0 empty;
#X connect 5 0 4 1 empty;
#X connect 6 0 4 1 empty;
#X connect 7 0 2 0 empty;
#X connect 8 0 10 0 empty;
#X connect 8 1 7 0 empty;
#X connect 10 0 9 0 empty;
#X connect 11 0 12 0 empty;
#X connect 11 1 10 1 empty;
#X connect 12 0 10 1 empty;
#X restore 139 269 pd color-loop;
#X obj 9 359 array define tmp\$0;
#X msg 9 329 resize \$1;
#X obj 368 209 array get tmp\$0;
#X obj 19 159 t b l b;
#N canvas 0 50 450 300 get-list 0;
#X obj 189 279 outlet;
#X msg 189 239 set \$1 \$2;
#X obj 189 49 r fg_\$0;
#X obj 189 89 t l l;
#X obj 262 156 expr $f1 >= 0 && $f1 < $f2;
#X msg 262 129 \$1;
#X obj 189 179 spigot;
#X obj 399 119 r n_\$0;
#X connect 1 0 0 0 empty;
#X connect 2 0 3 0 empty;
#X connect 3 0 6 0 empty;
#X connect 3 1 5 0 empty;
#X connect 4 0 6 1 empty;
#X connect 5 0 4 0 empty;
#X connect 6 0 1 0 empty;
#X connect 7 0 4 1 empty;
#X restore 289 209 pd get-list;
#X obj 358 99 pack2 64 0 470 240 2 3 s 40;
#X obj 719 19 r syncmetro_\$0;
#X obj 559 359 outlet;
#X obj 119 299 unpack f f f f f f s f;
#X connect 0 0 26 0 empty;
#X connect 0 1 17 0 empty;
#X connect 2 0 28 0 empty;
#X connect 3 0 28 1 empty;
#X connect 4 0 28 2 empty;
#X connect 5 0 28 3 empty;
#X connect 6 0 28 4 empty;
#X connect 7 0 28 5 empty;
#X connect 13 0 0 0 empty;
#X connect 14 0 15 0 empty;
#X connect 16 0 28 6 empty;
#X connect 17 0 20 0 empty;
#X connect 17 1 13 0 empty;
#X connect 18 0 31 0 empty;
#X connect 18 1 22 0 empty;
#X connect 19 0 18 1 empty;
#X connect 20 0 0 0 empty;
#X connect 24 0 23 0 empty;
#X connect 25 0 20 1 empty;
#X connect 26 0 19 0 empty;
#X connect 26 1 18 0 empty;
#X connect 26 2 25 0 empty;
#X connect 27 0 20 0 empty;
#X connect 28 0 13 1 empty;
#X connect 29 0 28 7 empty;
#X connect 31 0 1 0 empty;
#X connect 31 0 24 0 empty;
#X connect 31 1 8 0 empty;
#X connect 31 2 9 0 empty;
#X connect 31 3 10 0 empty;
#X connect 31 4 11 0 empty;
#X connect 31 5 12 0 empty;
#X connect 31 6 14 0 empty;
#X connect 31 7 30 0 empty;
#X restore 479 79 pd savestate;
#X obj 39 39 route resize uni width height spacing xoffset bg fg syncmetro, f 56;
#X obj 579 209 s syncmetro_\$0;
#X connect 5 0 18 0 empty;
#X connect 6 0 12 0 empty;
#X connect 8 0 12 0 empty;
#X connect 8 1 7 0 empty;
#X connect 9 0 12 0 empty;
#X connect 9 1 4 0 empty;
#X connect 10 0 12 0 empty;
#X connect 10 1 13 0 empty;
#X connect 11 0 12 0 empty;
#X connect 11 1 0 0 empty;
#X connect 12 0 3 0 empty;
#X connect 13 0 2 0 empty;
#X connect 14 0 12 0 empty;
#X connect 14 1 13 0 empty;
#X connect 14 2 1 0 empty;
#X connect 17 0 12 0 empty;
#X connect 17 1 13 0 empty;
#X connect 17 2 0 0 empty;
#X connect 17 3 1 0 empty;
#X connect 17 4 4 0 empty;
#X connect 17 5 7 0 empty;
#X connect 17 6 15 0 empty;
#X connect 17 7 19 0 empty;
#X connect 18 0 6 0 empty;
#X connect 18 1 10 0 empty;
#X connect 18 2 11 0 empty;
#X connect 18 3 14 0 empty;
#X connect 18 4 9 0 empty;
#X connect 18 5 8 0 empty;
#X connect 18 6 15 0 empty;
#X connect 18 7 16 0 empty;
#X connect 18 8 19 0 empty;
#X restore 539 39 pd methods;
#N canvas 0 50 520 440 move-slider 1;
#X obj 69 409 s;
#X obj 69 289 -;
#X msg 69 319 delta 0 \$1;
#X obj 129 249 * -1;
#X obj 69 259 t f f;
#X obj 130 217 moses 1;
#X msg 166 172 0;
#X obj 299 239 *;
#X obj 299 319 pack;
#X obj 150 319 pack;
#X msg 150 349 vis_size \$2 \$1;
#N canvas 0 50 450 300 set-pos 0;
#X obj 109 59 inlet;
#X obj 219 59 inlet;
#X obj 159 219 outlet;
#X msg 159 169 pos 507 128;
#X msg 219 109 set pos \$1 \$2;
#X text 389 278 moths;
#X connect 0 0 3 0 empty;
#X connect 1 0 4 0 empty;
#X connect 3 0 2 0 empty;
#X connect 4 0 3 0 empty;
#X restore 249 349 pd set-pos;
#X obj 299 279 +;
#X obj 130 106 * -1;
#X obj 399 179 f;
#X obj 399 209 t f f;
#X obj 130 76 *;
#X msg 409 349 symbol sl\$1\$2;
#X obj 139 39 r height_\$0;
#X obj 409 309 pack f \$0;
#X obj 409 149 r index_\$0;
#X obj 9 9 r yval_\$0;
#X obj 199 189 r slider_width_\$0;
#X obj 339 239 r xoffset_\$0;
#N canvas 0 50 450 300 calc-y-pos 0;
#X obj 39 269 outlet;
#X obj 139 99 / 2;
#X obj 39 69 select 0;
#X obj 39 179 f;
#X obj 79 109 b;
#X obj 159 169 f;
#X obj 219 19 r height_\$0;
#X obj 39 19 r uni_\$0;
#X connect 1 0 3 1 empty;
#X connect 2 0 3 0 empty;
#X connect 2 1 4 0 empty;
#X connect 3 0 0 0 empty;
#X connect 4 0 5 0 empty;
#X connect 5 0 0 0 empty;
#X connect 6 0 1 0 empty;
#X connect 6 0 5 1 empty;
#X connect 7 0 2 0 empty;
#X restore 339 279 pd calc-y-pos;
#X obj 199 279 -;
#X obj 209 239 r spacing_\$0;
#X text 479 408 :3;
#X text 239 18 scale and/or move [cnv] object \; index selects which one to move \; and y-value is the "slider" value;
#X obj 59 39 r uni_\$0;
#X obj 29 69 router;
#X obj 29 105 - 0.5;
#X obj 129 139 t f b b b;
#X connect 1 0 2 0 empty;
#X connect 2 0 0 0 empty;
#X connect 3 0 9 0 empty;
#X connect 4 0 1 1 empty;
#X connect 4 1 1 0 empty;
#X connect 5 0 4 0 empty;
#X connect 5 0 3 0 empty;
#X connect 5 1 9 0 empty;
#X connect 6 0 5 0 empty;
#X connect 7 0 12 0 empty;
#X connect 8 0 11 1 empty;
#X connect 9 0 10 0 empty;
#X connect 10 0 0 0 empty;
#X connect 11 0 0 0 empty;
#X connect 12 0 8 0 empty;
#X connect 13 0 32 0 empty;
#X connect 14 0 15 0 empty;
#X connect 15 0 7 0 empty;
#X connect 15 1 19 0 empty;
#X connect 16 0 13 0 empty;
#X connect 17 0 0 1 empty;
#X connect 18 0 16 1 empty;
#X connect 19 0 17 0 empty;
#X connect 20 0 14 1 empty;
#X connect 21 0 30 0 empty;
#X connect 22 0 25 0 empty;
#X connect 22 0 7 1 empty;
#X connect 23 0 12 1 empty;
#X connect 24 0 8 1 empty;
#X connect 25 0 9 1 empty;
#X connect 26 0 25 1 empty;
#X connect 29 0 30 1 empty;
#X connect 30 0 31 0 empty;
#X connect 30 1 16 0 empty;
#X connect 31 0 16 0 empty;
#X connect 32 0 5 0 empty;
#X connect 32 1 11 0 empty;
#X connect 32 2 6 0 empty;
#X connect 32 3 14 0 empty;
#X restore 539 179 pd move-slider;
#X obj 539 9 inlet;
#X text 539 288 amy universe - 2023 \; github.com/tomara-x;
#X obj 539 239 namecanvas this\$1;
#N canvas 0 50 450 300 bg 1;
#X msg 139 119 color \$1;
#X obj 139 179 s bg\$0;
#X text 209 118 set background cnv color;
#X obj 139 69 symbol;
#X obj 139 29 r setbg_\$0;
#X connect 0 0 1 0 empty;
#X connect 3 0 0 0 empty;
#X connect 4 0 3 0 empty;
#X restore 539 149 pd bg;
#N canvas 0 50 450 300 sync 1;
#X obj 129 199 s index_\$0;
#N canvas 0 50 450 300 yval 1;
#X obj 159 29 inlet;
#X obj 209 229 s yval_\$0;
#X obj 217 61 r uni_\$0;
#X obj 177 91 router;
#X obj 139 189 + 0.5;
#X obj 146 146 / 2;
#X connect 0 0 3 0 empty;
#X connect 2 0 3 1 empty;
#X connect 3 0 5 0 empty;
#X connect 3 1 1 0 empty;
#X connect 4 0 1 0 empty;
#X connect 5 0 4 0 empty;
#X restore 29 249 pd yval;
#X obj 29 172 t f f;
#X obj 29 202 tabread \$1;
#X obj 29 79 metro 40;
#X obj 149 149 array size \$1;
#X obj 147 95 r n_\$0;
#X obj 29 19 loadbang;
#X obj 29 142 loop;
#X obj 119 19 r syncmetro_\$0;
#X obj 119 49 max 15;
#X text 179 48 you don't need more than 60fps!;
#X connect 2 0 3 0 empty;
#X connect 2 1 0 0 empty;
#X connect 3 0 1 0 empty;
#X connect 4 0 8 0 empty;
#X connect 6 0 5 0 empty;
#X connect 6 0 8 1 empty;
#X connect 7 0 4 0 empty;
#X connect 8 0 2 0 empty;
#X connect 9 0 10 0 empty;
#X connect 10 0 4 1 empty;
#X restore 539 89 pd sync;
#N canvas 0 50 450 300 fg 1;
#X obj 79 29 r fg_\$0;
#X msg 79 199 color \$1;
#X obj 79 239 s;
#X msg 149 199 symbol sl\$1\$2;
#X msg 79 79 \$2 \$1;
#X obj 149 169 pack f \$0;
#X obj 79 119 unpack s f;
#X connect 0 0 4 0 empty;
#X connect 1 0 2 0 empty;
#X connect 3 0 2 1 empty;
#X connect 4 0 6 0 empty;
#X connect 5 0 3 0 empty;
#X connect 6 0 1 0 empty;
#X connect 6 1 5 0 empty;
#X restore 589 149 pd fg;
#X connect 6 0 4 0 empty;
#X coords 0 0 1 1 514 258 2 0 0;
