#N canvas 827 239 520 420 12;
#X obj 1 1 pad 470 240 255 255 255;
#X obj -1 -1 cnv 15 472 242 empty bg\$0 empty 20 12 0 14 #191919 #ffffff 0;
#N canvas 0 50 380 410 construct 1;
#X msg 319 339 clear;
#X obj 19 109 loop;
#X obj 35 249 +;
#N canvas 0 50 450 300 calc-y-pos 0;
#X obj 39 269 outlet;
#X obj 139 99 / 2;
#X obj 39 69 select 0;
#X obj 39 179 f;
#X obj 79 109 b;
#X obj 159 169 f;
#X obj 319 39 r height_\$0;
#X obj 39 19 r uni_\$0;
#X connect 1 0 3 1 empty;
#X connect 2 0 3 0 empty;
#X connect 2 1 4 0 empty;
#X connect 3 0 0 0 empty;
#X connect 4 0 5 0 empty;
#X connect 5 0 0 0 empty;
#X connect 6 0 1 0 empty;
#X connect 6 0 5 1 empty;
#X connect 7 0 2 0 empty;
#X restore 81 249 pd calc-y-pos;
#X obj 19 163 t f f;
#X obj 189 249 -;
#X obj 129 119 swap;
#X obj 129 153 /;
#X obj 35 209 *;
#X obj 19 49 t f f b;
#X msg 19 319 obj \$2 \$3 cnv 2 \$4 0 empty sl\$1\$5 empty 20 12 0 14 #ffffff #ffffff 0, f 33;
#X obj 149 89 r width_\$0;
#X obj 19 19 r n_\$0;
#X obj 81 219 r xoffset_\$0;
#X obj 210 219 r spacing_\$0;
#X obj 199 189 s slider_width_\$0;
#X obj 19 369 s pd-sliders_\$0;
#X obj 19 289 pack f f f f \$0;
#X text 349 388 <3;
#X text 99 18 fill the graph area with evenly spaced cnv objects;
#X connect 0 0 16 0 32.................E....Ts+++eA....U6+++q.....;
#X connect 1 0 4 0 empty;
#X connect 2 0 17 1 empty;
#X connect 3 0 17 2 32.................J....n9+++uB....p++++SA....;
#X connect 4 0 17 0 empty;
#X connect 4 1 8 0 32.................R....L....fD....C....PB....;
#X connect 5 0 17 3 32.................O....33++++C....N9+++SA....;
#X connect 6 0 7 0 empty;
#X connect 6 1 7 1 empty;
#X connect 7 0 8 1 32.................W....v5++++E....r9+++6B....;
#X connect 7 0 5 0 32.................l....vC...fI....7....vD....;
#X connect 7 0 15 0 32.................H....XD....B....FA....A....;
#X connect 8 0 2 0 empty;
#X connect 9 0 1 0 empty;
#X connect 9 1 6 0 32.................Q.....F...PD....fA...HC....;
#X connect 9 2 0 0 32.................F....7P...fA....OD...3P....;
#X connect 10 0 16 0 empty;
#X connect 11 0 6 1 empty;
#X connect 12 0 9 0 empty;
#X connect 13 0 2 1 32.................E....38+++eA....d++++q.....;
#X connect 14 0 5 1 empty;
#X connect 17 0 10 0 empty;
#X restore 509 159 pd construct;
#N canvas 0 50 450 300 resize 1;
#X msg 9 219 dim \$1 \$2;
#X obj 9 169 pack2;
#X obj 9 249 outlet;
#X obj 109 29 r height_\$0;
#X obj 9 29 r width_\$0;
#X msg 89 219 coords 0 0 1 1 \$1 \$2 2;
#X obj 139 119 + 2;
#X obj 89 119 + 2;
#X obj 89 249 s pd-sliders_\$0;
#X obj 89 169 pack2;
#X msg 239 219 coords 0 0 1 1 \$1 \$2 2;
#X obj 319 189 s bg\$0;
#X msg 319 159 vis_size \$1 \$2;
#X obj 239 249 s this\$1;
#X connect 0 0 2 0 empty;
#X connect 1 0 0 0 empty;
#X connect 3 0 1 1 empty;
#X connect 3 0 6 0 empty;
#X connect 4 0 1 0 empty;
#X connect 4 0 7 0 empty;
#X connect 5 0 8 0 empty;
#X connect 6 0 9 1 empty;
#X connect 7 0 9 0 empty;
#X connect 9 0 5 0 empty;
#X connect 9 0 10 0 empty;
#X connect 9 0 12 0 empty;
#X connect 10 0 13 0 empty;
#X connect 12 0 11 0 empty;
#X restore -1 -41 pd resize;
#N canvas 0 50 450 300 methods 1;
#N canvas 0 50 450 300 rndclr 1;
#X obj 129 9 inlet;
#X obj 129 119 rand.i 0 360;
#X msg 129 159 hsl \$1 100 50;
#X obj 129 49 loop;
#X obj 129 79 t b f;
#X obj 129 259 s;
#X msg 129 219 color \$1;
#X obj 129 189 colors;
#X obj 279 9 r n_\$0;
#X obj 269 129 pack f \$0;
#X msg 269 179 symbol sl\$1\$2;
#X connect 0 0 3 0 empty;
#X connect 1 0 2 0 empty;
#X connect 2 0 7 0 empty;
#X connect 3 0 4 0 empty;
#X connect 4 0 1 0 empty;
#X connect 4 1 9 0 empty;
#X connect 6 0 5 0 empty;
#X connect 7 0 6 0 empty;
#X connect 8 0 3 1 empty;
#X connect 9 0 10 0 empty;
#X connect 10 0 5 1 empty;
#X restore 282 129 pd rndclr;
#X obj 243 159 s coloring_\$0;
#X obj 55 239 s width_\$0;
#X obj 130 239 s height_\$0;
#X obj 210 239 s uni_\$0;
#X obj 4 239 s n_\$0;
#X obj 271 239 s spacing_\$0;
#X obj 89 159 hot 6;
#X obj 9 9 inlet;
#X obj 9 39 route n width height uni spacing xoffset coloring rndclr restore;
#X obj 321 96 s restore_\$0;
#X obj 9 69 max 1;
#X obj 359 239 s xoffset_\$0;
#X connect 7 0 5 0 empty;
#X connect 7 1 2 0 empty;
#X connect 7 2 3 0 empty;
#X connect 7 3 4 0 empty;
#X connect 7 4 6 0 empty;
#X connect 7 5 12 0 empty;
#X connect 8 0 9 0 empty;
#X connect 9 0 11 0 empty;
#X connect 9 1 7 1 empty;
#X connect 9 2 7 2 empty;
#X connect 9 3 7 3 empty;
#X connect 9 4 7 4 empty;
#X connect 9 5 7 5 empty;
#X connect 9 6 1 0 empty;
#X connect 9 7 0 0 empty;
#X connect 9 8 10 0 empty;
#X connect 11 0 7 0 empty;
#X restore 149 -31 pd methods;
#X obj -1 249 s pad_out_\$0;
#N canvas 0 50 520 440 move-slider 1;
#X obj 9 409 s;
#X obj 9 259 -;
#X msg 9 289 delta 0 \$1;
#X obj 80 234 * -1;
#X obj 9 229 t f f;
#X obj 80 197 moses 1;
#X msg 125 160 0;
#X obj 269 239 *;
#X obj 269 319 pack;
#X obj 80 319 pack;
#X msg 80 349 vis_size \$2 \$1;
#N canvas 0 50 450 300 set-pos 0;
#X obj 109 59 inlet;
#X obj 219 59 inlet;
#X obj 159 219 outlet;
#X msg 159 169 pos 465.656 120;
#X msg 219 109 set pos \$1 \$2;
#X text 389 278 moths;
#X connect 0 0 3 0 empty;
#X connect 1 0 4 0 empty;
#X connect 3 0 2 0 empty;
#X connect 4 0 3 0 empty;
#X restore 199 349 pd set-pos;
#X obj 269 279 +;
#X obj 80 92 * -1;
#X obj 399 159 f;
#X obj 399 189 t f f;
#X obj 80 124 t f b b b;
#X obj 79 59 *;
#X msg 409 349 symbol sl\$1\$2;
#X obj 109 9 r height_\$0;
#X obj 409 309 pack f \$0;
#X obj 409 129 r index_\$0;
#X obj 39 9 r yval_\$0;
#X obj 179 179 r slider_width_\$0;
#X obj 309 239 r xoffset_\$0;
#N canvas 0 50 450 300 calc-y-pos 0;
#X obj 39 269 outlet;
#X obj 139 99 / 2;
#X obj 39 69 select 0;
#X obj 39 179 f;
#X obj 79 109 b;
#X obj 159 169 f;
#X obj 219 19 r height_\$0;
#X obj 39 19 r uni_\$0;
#X connect 1 0 3 1 empty;
#X connect 2 0 3 0 empty;
#X connect 2 1 4 0 empty;
#X connect 3 0 0 0 empty;
#X connect 4 0 5 0 empty;
#X connect 5 0 0 0 empty;
#X connect 6 0 1 0 empty;
#X connect 6 0 5 1 empty;
#X connect 7 0 2 0 empty;
#X restore 309 279 pd calc-y-pos;
#X obj 119 279 -;
#X obj 169 239 r spacing_\$0;
#X text 479 408 :3;
#X text 239 18 scale and/or move [cnv] object \; index selects which one to move \; and y-value is the "slider" value;
#X connect 1 0 2 0 empty;
#X connect 2 0 0 0 empty;
#X connect 3 0 9 0 empty;
#X connect 4 0 1 1 empty;
#X connect 4 1 1 0 empty;
#X connect 5 0 4 0 empty;
#X connect 5 0 3 0 empty;
#X connect 5 1 9 0 empty;
#X connect 6 0 5 0 empty;
#X connect 7 0 12 0 empty;
#X connect 8 0 11 1 empty;
#X connect 9 0 10 0 empty;
#X connect 10 0 0 0 empty;
#X connect 11 0 0 0 empty;
#X connect 12 0 8 0 empty;
#X connect 13 0 16 0 empty;
#X connect 14 0 15 0 empty;
#X connect 15 0 7 0 empty;
#X connect 15 1 20 0 empty;
#X connect 16 0 5 0 empty;
#X connect 16 1 11 0 empty;
#X connect 16 2 6 0 empty;
#X connect 16 3 14 0 empty;
#X connect 17 0 13 0 empty;
#X connect 18 0 0 1 empty;
#X connect 19 0 17 1 empty;
#X connect 20 0 18 0 empty;
#X connect 21 0 14 1 empty;
#X connect 22 0 17 0 empty;
#X connect 23 0 26 0 empty;
#X connect 23 0 7 1 empty;
#X connect 24 0 12 1 empty;
#X connect 25 0 8 1 empty;
#X connect 26 0 9 1 empty;
#X connect 27 0 26 1 empty;
#X restore 509 129 pd move-slider;
#N canvas 0 50 380 384 draw 1;
#X obj 59 39 route click;
#X msg 289 249 resize \$1;
#X obj 199 179 /;
#X obj 108 69 unpack;
#X obj 59 179 /;
#X obj 59 99 spigot;
#X obj 49 259 - 0.5;
#X obj 199 299 int;
#X obj 59 9 r pad_out_\$0;
#X obj 49 359 s yval_\$0;
#X obj 219 349 s index_\$0;
#X obj 79 139 r height_\$0;
#X obj 229 109 r width_\$0;
#X obj 109 179 r uni_\$0;
#X obj 289 169 r n_\$0;
#X obj 109 229 router;
#X obj 69 299 * 2;
#X obj 199 259 *;
#X text 199 18 drawing on the pad \; and sending the result to the \; array and cnv objects;
#X obj 119 339 tabwrite \$1;
#X obj 289 279 s \$1;
#X connect 0 0 5 1 empty;
#X connect 0 1 3 0 empty;
#X connect 1 0 20 0 empty;
#X connect 2 0 17 0 empty;
#X connect 3 0 2 0 empty;
#X connect 3 1 5 0 empty;
#X connect 4 0 15 0 empty;
#X connect 5 0 4 0 empty;
#X connect 6 0 9 0 empty;
#X connect 6 0 16 0 empty;
#X connect 7 0 10 0 empty;
#X connect 7 0 19 1 empty;
#X connect 8 0 0 0 empty;
#X connect 11 0 4 1 empty;
#X connect 12 0 2 1 empty;
#X connect 13 0 15 1 empty;
#X connect 14 0 1 0 empty;
#X connect 14 0 17 1 empty;
#X connect 15 0 6 0 empty;
#X connect 15 1 9 0 empty;
#X connect 15 1 19 0 empty;
#X connect 16 0 19 0 empty;
#X connect 17 0 7 0 empty;
#X restore 509 99 pd draw;
#N canvas 0 50 450 300 sliders_\$0 1;
#X obj 3 2 cnv 2 5 118 empty sl01012 empty 20 12 0 14 #00fff2 #ffffff 0;
#X obj 10 15 cnv 2 5 105 empty sl11012 empty 20 12 0 14 #00ff9d #ffffff 0;
#X obj 17 14 cnv 2 5 106 empty sl21012 empty 20 12 0 14 #00ffa6 #ffffff 0;
#X obj 25 22 cnv 2 5 98 empty sl31012 empty 20 12 0 14 #00ff73 #ffffff 0;
#X obj 32 27 cnv 2 5 93 empty sl41012 empty 20 12 0 14 #00ff51 #ffffff 0;
#X obj 39 33 cnv 2 5 87 empty sl51012 empty 20 12 0 14 #00ff2a #ffffff 0;
#X obj 47 40 cnv 2 5 80 empty sl61012 empty 20 12 0 14 #00ff04 #ffffff 0;
#X obj 54 43 cnv 2 5 77 empty sl71012 empty 20 12 0 14 #15ff00 #ffffff 0;
#X obj 61 46 cnv 2 5 74 empty sl81012 empty 20 12 0 14 #26ff00 #ffffff 0;
#X obj 69 52 cnv 2 5 68 empty sl91012 empty 20 12 0 14 #4dff00 #ffffff 0;
#X obj 76 57 cnv 2 5 63 empty sl101012 empty 20 12 0 14 #6aff00 #ffffff 0;
#X obj 83 61 cnv 2 5 59 empty sl111012 empty 20 12 0 14 #88ff00 #ffffff 0;
#X obj 91 65 cnv 2 5 55 empty sl121012 empty 20 12 0 14 #a2ff00 #ffffff 0;
#X obj 98 72 cnv 2 5 48 empty sl131012 empty 20 12 0 14 #c8ff00 #ffffff 0;
#X obj 105 75 cnv 2 5 45 empty sl141012 empty 20 12 0 14 #e1ff00 #ffffff 0;
#X obj 113 78 cnv 2 5 42 empty sl151012 empty 20 12 0 14 #f2ff00 #ffffff 0;
#X obj 120 81 cnv 2 5 39 empty sl161012 empty 20 12 0 14 #fff700 #ffffff 0;
#X obj 127 86 cnv 2 5 34 empty sl171012 empty 20 12 0 14 #ffdd00 #ffffff 0;
#X obj 135 89 cnv 2 5 31 empty sl181012 empty 20 12 0 14 #ffc400 #ffffff 0;
#X obj 142 92 cnv 2 5 28 empty sl191012 empty 20 12 0 14 #ffb200 #ffffff 0;
#X obj 149 96 cnv 2 5 24 empty sl201012 empty 20 12 0 14 #ff9900 #ffffff 0;
#X obj 157 99 cnv 2 5 21 empty sl211012 empty 20 12 0 14 #ff8800 #ffffff 0;
#X obj 164 102 cnv 2 5 18 empty sl221012 empty 20 12 0 14 #ff7700 #ffffff 0;
#X obj 171 102 cnv 2 5 18 empty sl231012 empty 20 12 0 14 #ff7700 #ffffff 0;
#X obj 179 104 cnv 2 5 16 empty sl241012 empty 20 12 0 14 #ff6a00 #ffffff 0;
#X obj 186 105 cnv 2 5 15 empty sl251012 empty 20 12 0 14 #ff5e00 #ffffff 0;
#X obj 193 107 cnv 2 5 13 empty sl261012 empty 20 12 0 14 #ff5100 #ffffff 0;
#X obj 201 110 cnv 2 5 10 empty sl271012 empty 20 12 0 14 #ff4000 #ffffff 0;
#X obj 208 114 cnv 2 5 6 empty sl281012 empty 20 12 0 14 #ff2a00 #ffffff 0;
#X obj 215 117 cnv 2 5 3 empty sl291012 empty 20 12 0 14 #ff1500 #ffffff 0;
#X obj 223 120 cnv 2 5 1 empty sl301012 empty 20 12 0 14 #ff0400 #ffffff 0;
#X obj 230 120 cnv 2 5 2 empty sl311012 empty 20 12 0 14 #ff0011 #ffffff 0;
#X obj 238 120 cnv 2 5 6 empty sl321012 empty 20 12 0 14 #ff0026 #ffffff 0;
#X obj 245 120 cnv 2 5 8 empty sl331012 empty 20 12 0 14 #ff0037 #ffffff 0;
#X obj 252 120 cnv 2 5 12 empty sl341012 empty 20 12 0 14 #ff004d #ffffff 0;
#X obj 260 120 cnv 2 5 16 empty sl351012 empty 20 12 0 14 #ff006a #ffffff 0;
#X obj 267 120 cnv 2 5 20 empty sl361012 empty 20 12 0 14 #ff007f #ffffff 0;
#X obj 274 120 cnv 2 5 21 empty sl371012 empty 20 12 0 14 #ff0084 #ffffff 0;
#X obj 282 120 cnv 2 5 25 empty sl381012 empty 20 12 0 14 #ff00a2 #ffffff 0;
#X obj 289 120 cnv 2 5 29 empty sl391012 empty 20 12 0 14 #ff00b7 #ffffff 0;
#X obj 296 120 cnv 2 5 32 empty sl401012 empty 20 12 0 14 #ff00d0 #ffffff 0;
#X obj 304 120 cnv 2 5 35 empty sl411012 empty 20 12 0 14 #ff00dd #ffffff 0;
#X obj 311 120 cnv 2 5 38 empty sl421012 empty 20 12 0 14 #ff00f2 #ffffff 0;
#X obj 318 120 cnv 2 5 42 empty sl431012 empty 20 12 0 14 #f200ff #ffffff 0;
#X obj 326 120 cnv 2 5 45 empty sl441012 empty 20 12 0 14 #e100ff #ffffff 0;
#X obj 333 120 cnv 2 5 47 empty sl451012 empty 20 12 0 14 #d000ff #ffffff 0;
#X obj 340 120 cnv 2 5 52 empty sl461012 empty 20 12 0 14 #b300ff #ffffff 0;
#X obj 348 120 cnv 2 5 54 empty sl471012 empty 20 12 0 14 #a600ff #ffffff 0;
#X obj 355 120 cnv 2 5 57 empty sl481012 empty 20 12 0 14 #9500ff #ffffff 0;
#X obj 362 120 cnv 2 5 61 empty sl491012 empty 20 12 0 14 #7b00ff #ffffff 0;
#X obj 370 120 cnv 2 5 66 empty sl501012 empty 20 12 0 14 #5900ff #ffffff 0;
#X obj 377 120 cnv 2 5 70 empty sl511012 empty 20 12 0 14 #4000ff #ffffff 0;
#X obj 384 120 cnv 2 5 74 empty sl521012 empty 20 12 0 14 #2600ff #ffffff 0;
#X obj 392 120 cnv 2 5 78 empty sl531012 empty 20 12 0 14 #1100ff #ffffff 0;
#X obj 399 120 cnv 2 5 82 empty sl541012 empty 20 12 0 14 #000dff #ffffff 0;
#X obj 406 120 cnv 2 5 85 empty sl551012 empty 20 12 0 14 #001eff #ffffff 0;
#X obj 414 120 cnv 2 5 90 empty sl561012 empty 20 12 0 14 #0040ff #ffffff 0;
#X obj 421 120 cnv 2 5 93 empty sl571012 empty 20 12 0 14 #0051ff #ffffff 0;
#X obj 428 120 cnv 2 5 99 empty sl581012 empty 20 12 0 14 #0077ff #ffffff 0;
#X obj 436 120 cnv 2 5 103 empty sl591012 empty 20 12 0 14 #0091ff #ffffff 0;
#X obj 443 120 cnv 2 5 107 empty sl601012 empty 20 12 0 14 #00aaff #ffffff 0;
#X obj 450 120 cnv 2 5 110 empty sl611012 empty 20 12 0 14 #00bfff #ffffff 0;
#X obj 458 120 cnv 2 5 114 empty sl621012 empty 20 12 0 14 #00d9ff #ffffff 0;
#X obj 465 120 cnv 2 5 118 empty sl631012 empty 20 12 0 14 #00f2ff #ffffff 0;
#X coords 0 0 1 1 472 242 2 0 0;
#X restore -1 -1 pd sliders_\$0;
#N canvas 0 50 450 300 color 1;
#X msg 39 169 hsl \$1 100 50;
#X msg 39 229 color \$1;
#X obj 39 199 colors;
#X obj 39 109 * 360;
#X obj 39 139 mod 360;
#X obj 39 19 r yval_\$0;
#X obj 39 79 spigot;
#X obj 69 49 r coloring_\$0;
#X obj 39 259 s;
#X msg 169 229 symbol sl\$1\$2;
#X obj 169 199 pack f \$0;
#X obj 169 169 r index_\$0;
#X text 119 8 what's even the point if you can't make your arrays gay af?;
#X connect 0 0 2 0 empty;
#X connect 1 0 8 0 empty;
#X connect 2 0 1 0 empty;
#X connect 3 0 4 0 empty;
#X connect 4 0 0 0 empty;
#X connect 5 0 6 0 empty;
#X connect 6 0 3 0 empty;
#X connect 7 0 6 1 empty;
#X connect 9 0 8 1 empty;
#X connect 10 0 9 0 empty;
#X connect 11 0 10 0 empty;
#X restore 509 69 pd color;
#X obj 149 -61 inlet;
#N canvas 0 50 382 416 restore-from-arr 1;
#X obj 49 109 loop;
#X obj 119 59 r n_\$0;
#X obj 79 299 s yval_\$0;
#X obj 149 179 s index_\$0;
#X obj 49 139 t f f;
#X obj 49 259 / 2;
#X obj 249 179 r uni_\$0;
#X obj 49 219 router;
#X obj 49 29 r restore_\$0;
#X obj 49 179 tabread \$1;
#X connect 0 0 4 0 empty;
#X connect 1 0 0 1 empty;
#X connect 4 0 9 0 empty;
#X connect 4 1 3 0 empty;
#X connect 5 0 2 0 empty;
#X connect 6 0 7 1 empty;
#X connect 7 0 5 0 empty;
#X connect 7 1 2 0 empty;
#X connect 8 0 0 0 empty;
#X connect 9 0 7 0 empty;
#X restore 609 159 pd restore-from-arr;
#X obj 329 -31 s index_\$0;
#X obj 249 -31 s yval_\$0;
#X obj 329 -61 inlet;
#X obj 249 -61 inlet;
#X text 509 218 amy universe - 2023 \; github.com/tomara-x;
#X obj 349 249 namecanvas this\$1;
#X connect 0 0 5 0 empty;
#X connect 3 0 0 0 empty;
#X connect 10 0 4 0 empty;
#X connect 14 0 12 0 empty;
#X connect 15 0 13 0 empty;
#X coords 0 0 1 1 472 242 2 0 0;
