#N canvas 827 239 520 420 12;
#X obj 1 1 pad 470 240 255 255 255;
#X obj -1 -1 cnv 15 472 242 empty bg\$0 empty 20 12 0 14 #191919 #ffffff 0;
#N canvas 0 50 450 300 sliders_\$0 1;
#X obj 3 0 cnv 2 5 1 empty sl01106 empty 20 12 0 14 #ffffff #ffffff 0;
#X obj 10 0 cnv 2 5 1 empty sl11106 empty 20 12 0 14 #ffffff #ffffff 0;
#X obj 17 0 cnv 2 5 1 empty sl21106 empty 20 12 0 14 #ffffff #ffffff 0;
#X obj 25 0 cnv 2 5 1 empty sl31106 empty 20 12 0 14 #ffffff #ffffff 0;
#X obj 32 0 cnv 2 5 1 empty sl41106 empty 20 12 0 14 #ffffff #ffffff 0;
#X obj 39 0 cnv 2 5 1 empty sl51106 empty 20 12 0 14 #ffffff #ffffff 0;
#X obj 47 0 cnv 2 5 1 empty sl61106 empty 20 12 0 14 #ffffff #ffffff 0;
#X obj 54 0 cnv 2 5 1 empty sl71106 empty 20 12 0 14 #ffffff #ffffff 0;
#X obj 61 0 cnv 2 5 1 empty sl81106 empty 20 12 0 14 #ffffff #ffffff 0;
#X obj 69 0 cnv 2 5 1 empty sl91106 empty 20 12 0 14 #ffffff #ffffff 0;
#X obj 76 0 cnv 2 5 1 empty sl101106 empty 20 12 0 14 #ffffff #ffffff 0;
#X obj 83 0 cnv 2 5 1 empty sl111106 empty 20 12 0 14 #ffffff #ffffff 0;
#X obj 91 0 cnv 2 5 1 empty sl121106 empty 20 12 0 14 #ffffff #ffffff 0;
#X obj 98 0 cnv 2 5 1 empty sl131106 empty 20 12 0 14 #ffffff #ffffff 0;
#X obj 105 0 cnv 2 5 1 empty sl141106 empty 20 12 0 14 #ffffff #ffffff 0;
#X obj 113 0 cnv 2 5 1 empty sl151106 empty 20 12 0 14 #ffffff #ffffff 0;
#X obj 120 0 cnv 2 5 1 empty sl161106 empty 20 12 0 14 #ffffff #ffffff 0;
#X obj 127 0 cnv 2 5 1 empty sl171106 empty 20 12 0 14 #ffffff #ffffff 0;
#X obj 135 0 cnv 2 5 1 empty sl181106 empty 20 12 0 14 #ffffff #ffffff 0;
#X obj 142 0 cnv 2 5 1 empty sl191106 empty 20 12 0 14 #ffffff #ffffff 0;
#X obj 149 0 cnv 2 5 1 empty sl201106 empty 20 12 0 14 #ffffff #ffffff 0;
#X obj 157 0 cnv 2 5 1 empty sl211106 empty 20 12 0 14 #ffffff #ffffff 0;
#X obj 164 0 cnv 2 5 1 empty sl221106 empty 20 12 0 14 #ffffff #ffffff 0;
#X obj 171 0 cnv 2 5 1 empty sl231106 empty 20 12 0 14 #ffffff #ffffff 0;
#X obj 179 0 cnv 2 5 1 empty sl241106 empty 20 12 0 14 #ffffff #ffffff 0;
#X obj 186 0 cnv 2 5 1 empty sl251106 empty 20 12 0 14 #ffffff #ffffff 0;
#X obj 193 0 cnv 2 5 1 empty sl261106 empty 20 12 0 14 #ffffff #ffffff 0;
#X obj 201 0 cnv 2 5 1 empty sl271106 empty 20 12 0 14 #ffffff #ffffff 0;
#X obj 208 0 cnv 2 5 1 empty sl281106 empty 20 12 0 14 #ffffff #ffffff 0;
#X obj 215 0 cnv 2 5 1 empty sl291106 empty 20 12 0 14 #ffffff #ffffff 0;
#X obj 223 0 cnv 2 5 1 empty sl301106 empty 20 12 0 14 #ffffff #ffffff 0;
#X obj 230 0 cnv 2 5 1 empty sl311106 empty 20 12 0 14 #ffffff #ffffff 0;
#X obj 238 0 cnv 2 5 1 empty sl321106 empty 20 12 0 14 #ffffff #ffffff 0;
#X obj 245 0 cnv 2 5 1 empty sl331106 empty 20 12 0 14 #ffffff #ffffff 0;
#X obj 252 0 cnv 2 5 1 empty sl341106 empty 20 12 0 14 #ffffff #ffffff 0;
#X obj 260 0 cnv 2 5 1 empty sl351106 empty 20 12 0 14 #ffffff #ffffff 0;
#X obj 267 0 cnv 2 5 1 empty sl361106 empty 20 12 0 14 #ffffff #ffffff 0;
#X obj 274 0 cnv 2 5 1 empty sl371106 empty 20 12 0 14 #ffffff #ffffff 0;
#X obj 282 0 cnv 2 5 1 empty sl381106 empty 20 12 0 14 #ffffff #ffffff 0;
#X obj 289 0 cnv 2 5 1 empty sl391106 empty 20 12 0 14 #ffffff #ffffff 0;
#X obj 296 0 cnv 2 5 1 empty sl401106 empty 20 12 0 14 #ffffff #ffffff 0;
#X obj 304 0 cnv 2 5 1 empty sl411106 empty 20 12 0 14 #ffffff #ffffff 0;
#X obj 311 0 cnv 2 5 1 empty sl421106 empty 20 12 0 14 #ffffff #ffffff 0;
#X obj 318 0 cnv 2 5 1 empty sl431106 empty 20 12 0 14 #ffffff #ffffff 0;
#X obj 326 0 cnv 2 5 1 empty sl441106 empty 20 12 0 14 #ffffff #ffffff 0;
#X obj 333 0 cnv 2 5 1 empty sl451106 empty 20 12 0 14 #ffffff #ffffff 0;
#X obj 340 0 cnv 2 5 1 empty sl461106 empty 20 12 0 14 #ffffff #ffffff 0;
#X obj 348 0 cnv 2 5 1 empty sl471106 empty 20 12 0 14 #ffffff #ffffff 0;
#X obj 355 0 cnv 2 5 1 empty sl481106 empty 20 12 0 14 #ffffff #ffffff 0;
#X obj 362 0 cnv 2 5 1 empty sl491106 empty 20 12 0 14 #ffffff #ffffff 0;
#X obj 370 0 cnv 2 5 1 empty sl501106 empty 20 12 0 14 #ffffff #ffffff 0;
#X obj 377 0 cnv 2 5 1 empty sl511106 empty 20 12 0 14 #ffffff #ffffff 0;
#X obj 384 0 cnv 2 5 1 empty sl521106 empty 20 12 0 14 #ffffff #ffffff 0;
#X obj 392 0 cnv 2 5 1 empty sl531106 empty 20 12 0 14 #ffffff #ffffff 0;
#X obj 399 0 cnv 2 5 1 empty sl541106 empty 20 12 0 14 #ffffff #ffffff 0;
#X obj 406 0 cnv 2 5 1 empty sl551106 empty 20 12 0 14 #ffffff #ffffff 0;
#X obj 414 0 cnv 2 5 1 empty sl561106 empty 20 12 0 14 #ffffff #ffffff 0;
#X obj 421 0 cnv 2 5 1 empty sl571106 empty 20 12 0 14 #ffffff #ffffff 0;
#X obj 428 0 cnv 2 5 1 empty sl581106 empty 20 12 0 14 #ffffff #ffffff 0;
#X obj 436 0 cnv 2 5 1 empty sl591106 empty 20 12 0 14 #ffffff #ffffff 0;
#X obj 443 0 cnv 2 5 1 empty sl601106 empty 20 12 0 14 #ffffff #ffffff 0;
#X obj 450 0 cnv 2 5 1 empty sl611106 empty 20 12 0 14 #ffffff #ffffff 0;
#X obj 458 0 cnv 2 5 1 empty sl621106 empty 20 12 0 14 #ffffff #ffffff 0;
#X obj 465 0 cnv 2 5 1 empty sl631106 empty 20 12 0 14 #ffffff #ffffff 0;
#X coords 0 0 1 1 472 242 2 0 0;
#X restore -1 -1 pd sliders_\$0;
#N canvas 0 50 380 410 construct 1;
#X msg 319 339 clear;
#X obj 19 109 loop;
#X obj 35 249 +;
#N canvas 0 50 450 300 calc-y-pos 0;
#X obj 39 269 outlet;
#X obj 139 99 / 2;
#X obj 39 69 select 0;
#X obj 39 179 f;
#X obj 79 109 b;
#X obj 199 169 f;
#X obj 209 29 r height_\$0;
#X obj 39 19 r uni_\$0;
#X connect 1 0 3 1 empty;
#X connect 2 0 3 0 empty;
#X connect 2 1 4 0 empty;
#X connect 3 0 0 0 empty;
#X connect 4 0 5 0 empty;
#X connect 5 0 0 0 empty;
#X connect 6 0 1 0 empty;
#X connect 6 0 5 1 empty;
#X connect 7 0 2 0 empty;
#X restore 81 249 pd calc-y-pos;
#X obj 19 163 t f f;
#X obj 189 249 -;
#X obj 129 119 swap;
#X obj 129 153 /;
#X obj 35 209 *;
#X obj 19 49 t f f b;
#X msg 19 319 obj \$2 \$3 cnv 2 \$4 0 empty sl\$1\$5 empty 20 12 0 14 #ffffff #ffffff 0, f 33;
#X obj 149 89 r width_\$0;
#X obj 19 19 r n_\$0;
#X obj 81 219 r xoffset_\$0;
#X obj 210 219 r spacing_\$0;
#X obj 199 189 s slider_width_\$0;
#X obj 19 369 s pd-sliders_\$0;
#X obj 19 289 pack f f f f \$0;
#X text 349 388 <3;
#X text 99 18 fill the graph area with evenly spaced cnv objects;
#X connect 0 0 16 0 32.................E....Ts+++eA....U6+++q.....;
#X connect 1 0 4 0 empty;
#X connect 2 0 17 1 empty;
#X connect 4 0 17 0 empty;
#X connect 4 1 8 0 32.................R....L....fD....C....PB....;
#X connect 5 0 17 3 32.................O....33++++C....N9+++SA....;
#X connect 6 0 7 0 empty;
#X connect 6 1 7 1 empty;
#X connect 7 0 8 1 32.................W....v5++++E....r9+++6B....;
#X connect 7 0 5 0 32.................l....vC...fI....7....vD....;
#X connect 7 0 15 0 32.................H....XD....B....FA....A....;
#X connect 8 0 2 0 empty;
#X connect 9 0 1 0 empty;
#X connect 9 1 6 0 32.................Q.....F...PD....fA...HC....;
#X connect 9 2 0 0 32.................F....7P...fA....OD...3P....;
#X connect 10 0 16 0 empty;
#X connect 11 0 6 1 empty;
#X connect 12 0 9 0 empty;
#X connect 13 0 2 1 32.................E....38+++eA....d++++q.....;
#X connect 14 0 5 1 empty;
#X connect 17 0 10 0 empty;
#X restore 509 159 pd construct;
#N canvas 0 50 450 300 resize 1;
#X msg 9 219 dim \$1 \$2;
#X obj 9 169 pack2;
#X obj 9 249 outlet;
#X obj 109 29 r height_\$0;
#X obj 9 29 r width_\$0;
#X msg 89 219 coords 0 0 1 1 \$1 \$2 2;
#X obj 139 119 + 2;
#X obj 89 119 + 2;
#X obj 89 249 s pd-sliders_\$0;
#X obj 89 169 pack2;
#X msg 239 219 coords 0 0 1 1 \$1 \$2 2;
#X obj 319 189 s bg\$0;
#X msg 319 159 vis_size \$1 \$2;
#X obj 239 249 s this\$1;
#X connect 0 0 2 0 empty;
#X connect 1 0 0 0 empty;
#X connect 3 0 1 1 empty;
#X connect 3 0 6 0 empty;
#X connect 4 0 1 0 empty;
#X connect 4 0 7 0 empty;
#X connect 5 0 8 0 empty;
#X connect 6 0 9 1 empty;
#X connect 7 0 9 0 empty;
#X connect 9 0 5 0 empty;
#X connect 9 0 10 0 empty;
#X connect 9 0 12 0 empty;
#X connect 10 0 13 0 empty;
#X connect 12 0 11 0 empty;
#X restore 9 -41 pd resize;
#N canvas 0 50 640 300 methods 1;
#N canvas 0 50 450 300 rndclr 1;
#X obj 129 9 inlet;
#X obj 129 119 rand.i 0 360;
#X msg 129 159 hsl \$1 100 50;
#X obj 129 49 loop;
#X obj 129 79 t b f;
#X obj 129 259 s;
#X msg 129 219 color \$1;
#X obj 129 189 colors;
#X obj 279 9 r n_\$0;
#X obj 269 129 pack f \$0;
#X msg 269 179 symbol sl\$1\$2;
#X connect 0 0 3 0 empty;
#X connect 1 0 2 0 empty;
#X connect 2 0 7 0 empty;
#X connect 3 0 4 0 empty;
#X connect 4 0 1 0 empty;
#X connect 4 1 9 0 empty;
#X connect 6 0 5 0 empty;
#X connect 7 0 6 0 empty;
#X connect 8 0 3 1 empty;
#X connect 9 0 10 0 empty;
#X connect 10 0 5 1 empty;
#X restore 276 129 pd rndclr;
#X obj 489 259 s coloring_\$0;
#X obj 134 259 s width_\$0;
#X obj 214 259 s height_\$0;
#X obj 69 259 s uni_\$0;
#X obj 9 259 s n_\$0;
#X obj 304 259 s spacing_\$0;
#X obj 9 9 inlet;
#X obj 315 96 s restore_\$0;
#X obj 9 79 max 1;
#X obj 399 259 s xoffset_\$0;
#X obj 469 29 loadbang;
#X text 469 8 and default arguments;
#X text 109 8 method routing;
#X obj 222 129 t b f;
#X obj 178 129 t b f;
#X obj 39 129 t b f;
#X obj 79 129 t b f;
#X obj 9 229 f;
#X obj 469 59 args;
#X obj 469 119 unpack s f f f f f f f;
#X obj 469 89 pack s 64 0 470 240 2 3 1;
#N canvas 0 50 450 300 bg 1;
#X obj 139 29 inlet;
#X msg 139 119 color \$1;
#X obj 139 179 s bg\$0;
#X text 209 118 set background cnv color;
#X obj 139 69 symbol;
#X connect 0 0 4 0 empty;
#X connect 1 0 2 0 empty;
#X connect 4 0 1 0 empty;
#X restore 349 69 pd bg;
#X obj 9 39 route resize uni width height spacing xoffset coloring rndclr restore bg fg, f 63;
#N canvas 0 50 450 300 fg 1;
#X obj 99 9 inlet;
#X obj 169 109 loop;
#X obj 169 139 t b f;
#X obj 89 259 s;
#X msg 89 199 color #ffffff;
#X obj 199 69 r n_\$0;
#X obj 179 179 pack f \$0;
#X msg 179 219 symbol sl\$1\$2;
#X obj 99 69 t b s;
#X msg 59 139 set color \$1;
#X text 169 8 loop through the sliders setting each one's color;
#X obj 99 37 symbol;
#X connect 0 0 11 0 empty;
#X connect 1 0 2 0 empty;
#X connect 2 0 4 0 empty;
#X connect 2 1 6 0 empty;
#X connect 4 0 3 0 empty;
#X connect 5 0 1 1 empty;
#X connect 6 0 7 0 empty;
#X connect 7 0 3 1 empty;
#X connect 8 0 1 0 empty;
#X connect 8 1 9 0 empty;
#X connect 9 0 4 0 empty;
#X connect 11 0 8 0 empty;
#X restore 399 69 pd fg;
#X obj 69 229 f;
#X obj 119 129 t b b f;
#X text 119 218 bad amy;
#X connect 7 0 23 0 empty;
#X connect 9 0 18 0 empty;
#X connect 11 0 19 0 empty;
#X connect 14 0 18 0 empty;
#X connect 14 1 10 0 empty;
#X connect 15 0 18 0 empty;
#X connect 15 1 6 0 empty;
#X connect 16 0 18 0 empty;
#X connect 16 1 25 0 empty;
#X connect 17 0 18 0 empty;
#X connect 17 1 2 0 empty;
#X connect 18 0 5 0 empty;
#X connect 19 0 21 0 empty;
#X connect 20 0 8 0 empty;
#X connect 20 1 18 0 empty;
#X connect 20 2 25 0 empty;
#X connect 20 3 2 0 empty;
#X connect 20 4 3 0 empty;
#X connect 20 5 6 0 empty;
#X connect 20 6 10 0 empty;
#X connect 20 7 1 0 empty;
#X connect 21 0 20 0 empty;
#X connect 23 0 9 0 empty;
#X connect 23 1 16 0 empty;
#X connect 23 2 17 0 empty;
#X connect 23 3 26 0 empty;
#X connect 23 4 15 0 empty;
#X connect 23 5 14 0 empty;
#X connect 23 6 1 0 empty;
#X connect 23 7 0 0 empty;
#X connect 23 8 8 0 empty;
#X connect 23 9 22 0 empty;
#X connect 23 10 24 0 empty;
#X connect 25 0 4 0 empty;
#X connect 26 0 18 0 empty;
#X connect 26 1 25 0 empty;
#X connect 26 2 3 0 empty;
#X restore 129 319 pd methods;
#X obj 9 269 s pad_out_\$0;
#N canvas 0 50 520 440 move-slider 1;
#X obj 9 409 s;
#X obj 9 259 -;
#X msg 9 289 delta 0 \$1;
#X obj 80 234 * -1;
#X obj 9 229 t f f;
#X obj 80 197 moses 1;
#X msg 125 160 0;
#X obj 269 239 *;
#X obj 269 319 pack;
#X obj 80 319 pack;
#X msg 80 349 vis_size \$2 \$1;
#N canvas 0 50 450 300 set-pos 0;
#X obj 109 59 inlet;
#X obj 219 59 inlet;
#X obj 159 219 outlet;
#X msg 159 169 pos 465.656 120;
#X msg 219 109 set pos \$1 \$2;
#X text 389 278 moths;
#X connect 0 0 3 0 empty;
#X connect 1 0 4 0 empty;
#X connect 3 0 2 0 empty;
#X connect 4 0 3 0 empty;
#X restore 199 349 pd set-pos;
#X obj 269 279 +;
#X obj 80 92 * -1;
#X obj 399 159 f;
#X obj 399 189 t f f;
#X obj 80 124 t f b b b;
#X obj 79 59 *;
#X msg 409 349 symbol sl\$1\$2;
#X obj 109 9 r height_\$0;
#X obj 409 309 pack f \$0;
#X obj 409 129 r index_\$0;
#X obj 39 9 r yval_\$0;
#X obj 179 179 r slider_width_\$0;
#X obj 309 239 r xoffset_\$0;
#N canvas 0 50 450 300 calc-y-pos 0;
#X obj 39 269 outlet;
#X obj 139 99 / 2;
#X obj 39 69 select 0;
#X obj 39 179 f;
#X obj 79 109 b;
#X obj 159 169 f;
#X obj 219 19 r height_\$0;
#X obj 39 19 r uni_\$0;
#X connect 1 0 3 1 empty;
#X connect 2 0 3 0 empty;
#X connect 2 1 4 0 empty;
#X connect 3 0 0 0 empty;
#X connect 4 0 5 0 empty;
#X connect 5 0 0 0 empty;
#X connect 6 0 1 0 empty;
#X connect 6 0 5 1 empty;
#X connect 7 0 2 0 empty;
#X restore 309 279 pd calc-y-pos;
#X obj 119 279 -;
#X obj 169 239 r spacing_\$0;
#X text 479 408 :3;
#X text 239 18 scale and/or move [cnv] object \; index selects which one to move \; and y-value is the "slider" value;
#X connect 1 0 2 0 empty;
#X connect 2 0 0 0 empty;
#X connect 3 0 9 0 empty;
#X connect 4 0 1 1 empty;
#X connect 4 1 1 0 empty;
#X connect 5 0 4 0 empty;
#X connect 5 0 3 0 empty;
#X connect 5 1 9 0 empty;
#X connect 6 0 5 0 empty;
#X connect 7 0 12 0 empty;
#X connect 8 0 11 1 empty;
#X connect 9 0 10 0 empty;
#X connect 10 0 0 0 empty;
#X connect 11 0 0 0 empty;
#X connect 12 0 8 0 empty;
#X connect 13 0 16 0 empty;
#X connect 14 0 15 0 empty;
#X connect 15 0 7 0 empty;
#X connect 15 1 20 0 empty;
#X connect 16 0 5 0 empty;
#X connect 16 1 11 0 empty;
#X connect 16 2 6 0 empty;
#X connect 16 3 14 0 empty;
#X connect 17 0 13 0 empty;
#X connect 18 0 0 1 empty;
#X connect 19 0 17 1 empty;
#X connect 20 0 18 0 empty;
#X connect 21 0 14 1 empty;
#X connect 22 0 17 0 empty;
#X connect 23 0 26 0 empty;
#X connect 23 0 7 1 empty;
#X connect 24 0 12 1 empty;
#X connect 25 0 8 1 empty;
#X connect 26 0 9 1 empty;
#X connect 27 0 26 1 empty;
#X restore 509 129 pd move-slider;
#N canvas 0 50 380 384 draw 1;
#X obj 59 39 route click;
#X msg 289 249 resize \$1;
#X obj 199 179 /;
#X obj 108 69 unpack;
#X obj 59 179 /;
#X obj 59 99 spigot;
#X obj 49 259 - 0.5;
#X obj 199 299 int;
#X obj 59 9 r pad_out_\$0;
#X obj 49 359 s yval_\$0;
#X obj 219 349 s index_\$0;
#X obj 79 139 r height_\$0;
#X obj 229 109 r width_\$0;
#X obj 109 179 r uni_\$0;
#X obj 289 169 r n_\$0;
#X obj 109 229 router;
#X obj 69 299 * 2;
#X obj 199 259 *;
#X text 199 18 drawing on the pad \; and sending the result to the \; array and cnv objects;
#X obj 119 339 tabwrite \$1;
#X obj 289 279 s \$1;
#X connect 0 0 5 1 empty;
#X connect 0 1 3 0 empty;
#X connect 1 0 20 0 empty;
#X connect 2 0 17 0 empty;
#X connect 3 0 2 0 empty;
#X connect 3 1 5 0 empty;
#X connect 4 0 15 0 empty;
#X connect 5 0 4 0 empty;
#X connect 6 0 9 0 empty;
#X connect 6 0 16 0 empty;
#X connect 7 0 10 0 empty;
#X connect 7 0 19 1 empty;
#X connect 8 0 0 0 empty;
#X connect 11 0 4 1 empty;
#X connect 12 0 2 1 empty;
#X connect 13 0 15 1 empty;
#X connect 14 0 1 0 empty;
#X connect 14 0 17 1 empty;
#X connect 15 0 6 0 empty;
#X connect 15 1 9 0 empty;
#X connect 15 1 19 0 empty;
#X connect 16 0 19 0 empty;
#X connect 17 0 7 0 empty;
#X restore 509 99 pd draw;
#N canvas 0 50 450 300 color 1;
#X msg 39 169 hsl \$1 100 50;
#X msg 39 229 color \$1;
#X obj 39 199 colors;
#X obj 39 109 * 360;
#X obj 39 139 mod 360;
#X obj 39 19 r yval_\$0;
#X obj 39 79 spigot;
#X obj 69 49 r coloring_\$0;
#X obj 39 259 s;
#X msg 169 229 symbol sl\$1\$2;
#X obj 169 199 pack f \$0;
#X obj 169 169 r index_\$0;
#X text 119 8 what's even the point if you can't make your arrays gay af?;
#X connect 0 0 2 0 empty;
#X connect 1 0 8 0 empty;
#X connect 2 0 1 0 empty;
#X connect 3 0 4 0 empty;
#X connect 4 0 0 0 empty;
#X connect 5 0 6 0 empty;
#X connect 6 0 3 0 empty;
#X connect 7 0 6 1 empty;
#X connect 9 0 8 1 empty;
#X connect 10 0 9 0 empty;
#X connect 11 0 10 0 empty;
#X restore 509 69 pd color;
#X obj 129 289 inlet;
#N canvas 0 50 330 340 restore-from-arr 1;
#X obj 19 99 loop;
#X obj 59 59 r n_\$0;
#X obj 49 299 s yval_\$0;
#X obj 109 179 s index_\$0;
#X obj 19 139 t f f;
#X obj 19 259 / 2;
#X obj 199 179 r uni_\$0;
#X obj 19 219 router;
#X obj 19 19 r restore_\$0;
#X obj 19 179 tabread \$1;
#X obj 22 59 b;
#X text 139 238 loop the corresponding array \; (the array in the parent patch) \; and copy its contents to sliders \; this is triggered on creation \; and can be triggered using the \; "restore" message;
#X connect 0 0 4 0 empty;
#X connect 1 0 0 1 empty;
#X connect 4 0 9 0 empty;
#X connect 4 1 3 0 empty;
#X connect 5 0 2 0 empty;
#X connect 6 0 7 1 empty;
#X connect 7 0 5 0 empty;
#X connect 7 1 2 0 empty;
#X connect 8 0 10 0 empty;
#X connect 9 0 7 0 empty;
#X connect 10 0 0 0 empty;
#X restore 509 189 pd restore-from-arr;
#X obj 309 319 s index_\$0;
#X obj 229 319 s yval_\$0;
#X obj 309 289 inlet;
#X obj 229 289 inlet;
#X text 509 218 amy universe - 2023 \; github.com/tomara-x;
#X obj 349 249 namecanvas this\$1;
#X connect 0 0 6 0 empty;
#X connect 4 0 0 0 empty;
#X connect 10 0 5 0 empty;
#X connect 14 0 12 0 empty;
#X connect 15 0 13 0 empty;
#X coords 0 0 1 1 472 242 1;
