#N canvas 827 239 520 420 12;
#X obj 1 1 pad 470 240 255 255 255;
#X obj -1 -1 cnv 15 472 242 empty bg\$0 empty 20 12 0 14 #191919 #ffffff 0;
#N canvas 0 50 450 300 sliders_\$0 1;
#X obj 3 120 cnv 2 5 1 empty sl01015 empty 20 12 0 14 #ffffff #ffffff 0;
#X obj 10 120 cnv 2 5 1 empty sl11015 empty 20 12 0 14 #ffffff #ffffff 0;
#X obj 17 120 cnv 2 5 1 empty sl21015 empty 20 12 0 14 #ffffff #ffffff 0;
#X obj 25 120 cnv 2 5 1 empty sl31015 empty 20 12 0 14 #ffffff #ffffff 0;
#X obj 32 120 cnv 2 5 1 empty sl41015 empty 20 12 0 14 #ffffff #ffffff 0;
#X obj 39 120 cnv 2 5 1 empty sl51015 empty 20 12 0 14 #ffffff #ffffff 0;
#X obj 47 120 cnv 2 5 1 empty sl61015 empty 20 12 0 14 #ffffff #ffffff 0;
#X obj 54 120 cnv 2 5 1 empty sl71015 empty 20 12 0 14 #ffffff #ffffff 0;
#X obj 61 120 cnv 2 5 1 empty sl81015 empty 20 12 0 14 #ffffff #ffffff 0;
#X obj 69 120 cnv 2 5 1 empty sl91015 empty 20 12 0 14 #ffffff #ffffff 0;
#X obj 76 120 cnv 2 5 1 empty sl101015 empty 20 12 0 14 #ffffff #ffffff 0;
#X obj 83 120 cnv 2 5 1 empty sl111015 empty 20 12 0 14 #ffffff #ffffff 0;
#X obj 91 120 cnv 2 5 1 empty sl121015 empty 20 12 0 14 #ffffff #ffffff 0;
#X obj 98 120 cnv 2 5 1 empty sl131015 empty 20 12 0 14 #ffffff #ffffff 0;
#X obj 105 120 cnv 2 5 1 empty sl141015 empty 20 12 0 14 #ffffff #ffffff 0;
#X obj 113 120 cnv 2 5 1 empty sl151015 empty 20 12 0 14 #ffffff #ffffff 0;
#X obj 120 120 cnv 2 5 1 empty sl161015 empty 20 12 0 14 #ffffff #ffffff 0;
#X obj 127 120 cnv 2 5 1 empty sl171015 empty 20 12 0 14 #ffffff #ffffff 0;
#X obj 135 120 cnv 2 5 1 empty sl181015 empty 20 12 0 14 #ffffff #ffffff 0;
#X obj 142 120 cnv 2 5 1 empty sl191015 empty 20 12 0 14 #ffffff #ffffff 0;
#X obj 149 120 cnv 2 5 1 empty sl201015 empty 20 12 0 14 #ffffff #ffffff 0;
#X obj 157 120 cnv 2 5 1 empty sl211015 empty 20 12 0 14 #ffffff #ffffff 0;
#X obj 164 120 cnv 2 5 1 empty sl221015 empty 20 12 0 14 #ffffff #ffffff 0;
#X obj 171 120 cnv 2 5 1 empty sl231015 empty 20 12 0 14 #ffffff #ffffff 0;
#X obj 179 120 cnv 2 5 1 empty sl241015 empty 20 12 0 14 #ffffff #ffffff 0;
#X obj 186 120 cnv 2 5 1 empty sl251015 empty 20 12 0 14 #ffffff #ffffff 0;
#X obj 193 120 cnv 2 5 1 empty sl261015 empty 20 12 0 14 #ffffff #ffffff 0;
#X obj 201 120 cnv 2 5 1 empty sl271015 empty 20 12 0 14 #ffffff #ffffff 0;
#X obj 208 120 cnv 2 5 1 empty sl281015 empty 20 12 0 14 #ffffff #ffffff 0;
#X obj 215 120 cnv 2 5 1 empty sl291015 empty 20 12 0 14 #ffffff #ffffff 0;
#X obj 223 120 cnv 2 5 1 empty sl301015 empty 20 12 0 14 #ffffff #ffffff 0;
#X obj 230 120 cnv 2 5 1 empty sl311015 empty 20 12 0 14 #ffffff #ffffff 0;
#X obj 238 120 cnv 2 5 1 empty sl321015 empty 20 12 0 14 #ffffff #ffffff 0;
#X obj 245 120 cnv 2 5 1 empty sl331015 empty 20 12 0 14 #ffffff #ffffff 0;
#X obj 252 120 cnv 2 5 1 empty sl341015 empty 20 12 0 14 #ffffff #ffffff 0;
#X obj 260 120 cnv 2 5 1 empty sl351015 empty 20 12 0 14 #ffffff #ffffff 0;
#X obj 267 120 cnv 2 5 1 empty sl361015 empty 20 12 0 14 #ffffff #ffffff 0;
#X obj 274 120 cnv 2 5 1 empty sl371015 empty 20 12 0 14 #ffffff #ffffff 0;
#X obj 282 120 cnv 2 5 1 empty sl381015 empty 20 12 0 14 #ffffff #ffffff 0;
#X obj 289 120 cnv 2 5 1 empty sl391015 empty 20 12 0 14 #ffffff #ffffff 0;
#X obj 296 120 cnv 2 5 1 empty sl401015 empty 20 12 0 14 #ffffff #ffffff 0;
#X obj 304 120 cnv 2 5 1 empty sl411015 empty 20 12 0 14 #ffffff #ffffff 0;
#X obj 311 120 cnv 2 5 1 empty sl421015 empty 20 12 0 14 #ffffff #ffffff 0;
#X obj 318 120 cnv 2 5 1 empty sl431015 empty 20 12 0 14 #ffffff #ffffff 0;
#X obj 326 120 cnv 2 5 1 empty sl441015 empty 20 12 0 14 #ffffff #ffffff 0;
#X obj 333 120 cnv 2 5 1 empty sl451015 empty 20 12 0 14 #ffffff #ffffff 0;
#X obj 340 120 cnv 2 5 1 empty sl461015 empty 20 12 0 14 #ffffff #ffffff 0;
#X obj 348 120 cnv 2 5 1 empty sl471015 empty 20 12 0 14 #ffffff #ffffff 0;
#X obj 355 120 cnv 2 5 1 empty sl481015 empty 20 12 0 14 #ffffff #ffffff 0;
#X obj 362 120 cnv 2 5 1 empty sl491015 empty 20 12 0 14 #ffffff #ffffff 0;
#X obj 370 120 cnv 2 5 1 empty sl501015 empty 20 12 0 14 #ffffff #ffffff 0;
#X obj 377 120 cnv 2 5 1 empty sl511015 empty 20 12 0 14 #ffffff #ffffff 0;
#X obj 384 120 cnv 2 5 1 empty sl521015 empty 20 12 0 14 #ffffff #ffffff 0;
#X obj 392 120 cnv 2 5 1 empty sl531015 empty 20 12 0 14 #ffffff #ffffff 0;
#X obj 399 120 cnv 2 5 1 empty sl541015 empty 20 12 0 14 #ffffff #ffffff 0;
#X obj 406 120 cnv 2 5 1 empty sl551015 empty 20 12 0 14 #ffffff #ffffff 0;
#X obj 414 120 cnv 2 5 1 empty sl561015 empty 20 12 0 14 #ffffff #ffffff 0;
#X obj 421 120 cnv 2 5 1 empty sl571015 empty 20 12 0 14 #ffffff #ffffff 0;
#X obj 428 120 cnv 2 5 1 empty sl581015 empty 20 12 0 14 #ffffff #ffffff 0;
#X obj 436 120 cnv 2 5 1 empty sl591015 empty 20 12 0 14 #ffffff #ffffff 0;
#X obj 443 120 cnv 2 5 1 empty sl601015 empty 20 12 0 14 #ffffff #ffffff 0;
#X obj 450 120 cnv 2 5 1 empty sl611015 empty 20 12 0 14 #ffffff #ffffff 0;
#X obj 458 120 cnv 2 5 1 empty sl621015 empty 20 12 0 14 #ffffff #ffffff 0;
#X obj 465 120 cnv 2 5 1 empty sl631015 empty 20 12 0 14 #ffffff #ffffff 0;
#X coords 0 0 1 1 472 242 2 0 0;
#X restore -1 -1 pd sliders_\$0;
#N canvas 0 50 380 410 construct 1;
#X msg 319 339 clear;
#X obj 19 109 loop;
#X obj 35 249 +;
#N canvas 0 50 450 300 calc-y-pos 0;
#X obj 39 269 outlet;
#X obj 139 99 / 2;
#X obj 39 69 select 0;
#X obj 39 179 f;
#X obj 79 109 b;
#X obj 199 169 f;
#X obj 209 29 r height_\$0;
#X obj 39 19 r uni_\$0;
#X connect 1 0 3 1 empty;
#X connect 2 0 3 0 empty;
#X connect 2 1 4 0 empty;
#X connect 3 0 0 0 empty;
#X connect 4 0 5 0 empty;
#X connect 5 0 0 0 empty;
#X connect 6 0 1 0 empty;
#X connect 6 0 5 1 empty;
#X connect 7 0 2 0 empty;
#X restore 81 249 pd calc-y-pos;
#X obj 19 163 t f f;
#X obj 189 249 -;
#X obj 129 119 swap;
#X obj 129 153 /;
#X obj 35 209 *;
#X obj 19 49 t f f b;
#X msg 19 319 obj \$2 \$3 cnv 2 \$4 0 empty sl\$1\$5 empty 20 12 0 14 #ffffff #ffffff 0, f 33;
#X obj 149 89 r width_\$0;
#X obj 19 19 r n_\$0;
#X obj 81 219 r xoffset_\$0;
#X obj 210 219 r spacing_\$0;
#X obj 199 189 s slider_width_\$0;
#X obj 19 369 s pd-sliders_\$0;
#X obj 19 289 pack f f f f \$0;
#X text 349 388 <3;
#X text 99 18 fill the graph area with evenly spaced cnv objects;
#X connect 0 0 16 0 32.................E....Ts+++eA....U6+++q.....;
#X connect 1 0 4 0 empty;
#X connect 2 0 17 1 empty;
#X connect 3 0 17 2 32.................G....P9++++A....j++++SA....;
#X connect 4 0 17 0 empty;
#X connect 4 1 8 0 32.................R....L....fD....C....PB....;
#X connect 5 0 17 3 32.................O....33++++C....N9+++SA....;
#X connect 6 0 7 0 empty;
#X connect 6 1 7 1 empty;
#X connect 7 0 8 1 32.................W....v5++++E....r9+++6B....;
#X connect 7 0 5 0 32.................l....vC...fI....7....vD....;
#X connect 7 0 15 0 32.................H....XD....B....FA....A....;
#X connect 8 0 2 0 empty;
#X connect 9 0 1 0 empty;
#X connect 9 1 6 0 32.................Q.....F...PD....fA...HC....;
#X connect 9 2 0 0 32.................F....7P...fA....OD...3P....;
#X connect 10 0 16 0 empty;
#X connect 11 0 6 1 empty;
#X connect 12 0 9 0 empty;
#X connect 13 0 2 1 32.................E....38+++eA....d++++q.....;
#X connect 14 0 5 1 empty;
#X connect 17 0 10 0 empty;
#X restore 509 159 pd construct;
#N canvas 0 50 450 300 resize 1;
#X msg 9 219 dim \$1 \$2;
#X obj 9 169 pack2;
#X obj 9 249 outlet;
#X obj 109 29 r height_\$0;
#X obj 9 29 r width_\$0;
#X msg 89 219 coords 0 0 1 1 \$1 \$2 2;
#X obj 139 119 + 2;
#X obj 89 119 + 2;
#X obj 89 249 s pd-sliders_\$0;
#X obj 89 169 pack2;
#X msg 239 219 coords 0 0 1 1 \$1 \$2 2;
#X obj 319 189 s bg\$0;
#X msg 319 159 vis_size \$1 \$2;
#X obj 239 249 s this\$1;
#X connect 0 0 2 0 empty;
#X connect 1 0 0 0 empty;
#X connect 3 0 1 1 empty;
#X connect 3 0 6 0 empty;
#X connect 4 0 1 0 empty;
#X connect 4 0 7 0 empty;
#X connect 5 0 8 0 empty;
#X connect 6 0 9 1 empty;
#X connect 7 0 9 0 empty;
#X connect 9 0 5 0 empty;
#X connect 9 0 10 0 empty;
#X connect 9 0 12 0 empty;
#X connect 10 0 13 0 empty;
#X connect 12 0 11 0 empty;
#X restore 9 -41 pd resize;
#N canvas 0 50 640 300 methods 1;
#X obj 254 259 s width_\$0;
#X obj 334 259 s height_\$0;
#X obj 189 259 s uni_\$0;
#X obj 129 259 s n_\$0;
#X obj 424 259 s spacing_\$0;
#X obj 9 9 inlet;
#X obj 54 129 max 1;
#X obj 519 259 s xoffset_\$0;
#X obj 319 129 t b f;
#X obj 269 129 t b f;
#X obj 109 129 t b f;
#X obj 159 129 t b f;
#X obj 54 179 f;
#N canvas 0 50 450 300 bg 1;
#X obj 139 29 inlet;
#X msg 139 119 color \$1;
#X obj 139 179 s bg\$0;
#X text 209 118 set background cnv color;
#X obj 139 69 symbol;
#X connect 0 0 4 0 empty;
#X connect 1 0 2 0 empty;
#X connect 4 0 1 0 empty;
#X restore 373 69 pd bg;
#N canvas 0 50 450 300 fg 1;
#X obj 99 9 inlet;
#X obj 169 109 loop;
#X obj 169 139 t b f;
#X obj 89 259 s;
#X msg 89 199 color #ffffff;
#X obj 199 69 r n_\$0;
#X obj 179 179 pack f \$0;
#X msg 179 219 symbol sl\$1\$2;
#X obj 99 69 t b s;
#X msg 59 139 set color \$1;
#X text 169 8 loop through the sliders setting each one's color;
#X obj 99 37 symbol;
#X connect 0 0 11 0 empty;
#X connect 1 0 2 0 empty;
#X connect 2 0 4 0 empty;
#X connect 2 1 6 0 empty;
#X connect 4 0 3 0 empty;
#X connect 5 0 1 1 empty;
#X connect 6 0 7 0 empty;
#X connect 7 0 3 1 empty;
#X connect 8 0 1 0 empty;
#X connect 8 1 9 0 empty;
#X connect 9 0 4 0 empty;
#X connect 11 0 8 0 empty;
#X restore 419 69 pd fg;
#X obj 179 209 f;
#X obj 209 129 t b b f;
#N canvas 0 50 318 395 args-and-savestate 1;
#X obj 149 229 args;
#X obj 9 159 savestate;
#X obj 9 359 outlet;
#X obj 99 16 r n_\$0;
#X obj 124 39 r uni_\$0;
#X obj 150 62 r width_\$0;
#X obj 175 85 r height_\$0;
#X obj 201 108 r spacing_\$0;
#X obj 227 131 r xoffset_\$0;
#X obj 58 359 outlet;
#X obj 107 359 outlet;
#X obj 156 359 outlet;
#X obj 205 359 outlet;
#X obj 254 359 outlet;
#X obj 9 199 t l b;
#X obj 149 259 pack s 64 0 470 240 2 3;
#X obj 149 289 unpack s f f f f f f;
#X obj 9 289 unpack f f f f f f;
#X obj 55 189 list store;
#X obj 99 159 pack2 64 0 470 240 2 3;
#X connect 0 0 15 0 empty;
#X connect 1 0 14 0 empty;
#X connect 1 1 18 0 empty;
#X connect 3 0 19 0 empty;
#X connect 4 0 19 1 empty;
#X connect 5 0 19 2 empty;
#X connect 6 0 19 3 empty;
#X connect 7 0 19 4 empty;
#X connect 8 0 19 5 empty;
#X connect 14 0 17 0 empty;
#X connect 14 1 0 0 empty;
#X connect 15 0 16 0 empty;
#X connect 16 1 2 0 empty;
#X connect 16 2 9 0 empty;
#X connect 16 3 10 0 empty;
#X connect 16 4 11 0 empty;
#X connect 16 5 12 0 empty;
#X connect 16 6 13 0 empty;
#X connect 17 0 2 0 empty;
#X connect 17 1 9 0 empty;
#X connect 17 2 10 0 empty;
#X connect 17 3 11 0 empty;
#X connect 17 4 12 0 empty;
#X connect 17 5 13 0 empty;
#X connect 18 0 1 0 empty;
#X connect 19 0 18 1 empty;
#X restore 429 129 pd args-and-savestate;
#X obj 9 39 route sync resize uni width height spacing xoffset colorsync bg fg, f 68;
#X obj 9 259 s sync_\$0;
#X obj 54 209 t b f;
#X connect 5 0 18 0 empty;
#X connect 6 0 12 0 empty;
#X connect 8 0 12 0 empty;
#X connect 8 1 7 0 empty;
#X connect 9 0 12 0 empty;
#X connect 9 1 4 0 empty;
#X connect 10 0 12 0 empty;
#X connect 10 1 15 0 empty;
#X connect 11 0 12 0 empty;
#X connect 11 1 0 0 empty;
#X connect 12 0 20 0 empty;
#X connect 15 0 2 0 empty;
#X connect 16 0 12 0 empty;
#X connect 16 1 15 0 empty;
#X connect 16 2 1 0 empty;
#X connect 17 0 12 0 empty;
#X connect 17 1 15 0 empty;
#X connect 17 2 0 0 empty;
#X connect 17 3 1 0 empty;
#X connect 17 4 4 0 empty;
#X connect 17 5 7 0 empty;
#X connect 18 0 19 0 empty;
#X connect 18 1 6 0 empty;
#X connect 18 2 10 0 empty;
#X connect 18 3 11 0 empty;
#X connect 18 4 16 0 empty;
#X connect 18 5 9 0 empty;
#X connect 18 6 8 0 empty;
#X connect 18 8 13 0 empty;
#X connect 18 9 14 0 empty;
#X connect 20 0 19 0 empty;
#X connect 20 1 3 0 empty;
#X restore 149 309 pd methods;
#X obj 9 269 s pad_out_\$0;
#N canvas 0 50 520 440 move-slider 1;
#X obj 9 409 s;
#X obj 9 259 -;
#X msg 9 289 delta 0 \$1;
#X obj 89 249 * -1;
#X obj 9 229 t f f;
#X obj 120 197 moses 1;
#X msg 165 160 0;
#X obj 269 239 *;
#X obj 269 319 pack;
#X obj 110 319 pack;
#X msg 110 349 vis_size \$2 \$1;
#N canvas 0 50 450 300 set-pos 0;
#X obj 109 59 inlet;
#X obj 219 59 inlet;
#X obj 159 219 outlet;
#X msg 159 169 pos 465.656 120;
#X msg 219 109 set pos \$1 \$2;
#X text 389 278 moths;
#X connect 0 0 3 0 empty;
#X connect 1 0 4 0 empty;
#X connect 3 0 2 0 empty;
#X connect 4 0 3 0 empty;
#X restore 219 349 pd set-pos;
#X obj 269 279 +;
#X obj 120 96 * -1;
#X obj 399 159 f;
#X obj 399 189 t f f;
#X obj 120 124 t f b b b;
#X obj 120 66 *;
#X msg 409 349 symbol sl\$1\$2;
#X obj 129 29 r height_\$0;
#X obj 409 309 pack f \$0;
#X obj 409 129 r index_\$0;
#X obj 9 9 r yval_\$0;
#X obj 199 189 r slider_width_\$0;
#X obj 309 239 r xoffset_\$0;
#N canvas 0 50 450 300 calc-y-pos 0;
#X obj 39 269 outlet;
#X obj 139 99 / 2;
#X obj 39 69 select 0;
#X obj 39 179 f;
#X obj 79 109 b;
#X obj 159 169 f;
#X obj 219 19 r height_\$0;
#X obj 39 19 r uni_\$0;
#X connect 1 0 3 1 empty;
#X connect 2 0 3 0 empty;
#X connect 2 1 4 0 empty;
#X connect 3 0 0 0 empty;
#X connect 4 0 5 0 empty;
#X connect 5 0 0 0 empty;
#X connect 6 0 1 0 empty;
#X connect 6 0 5 1 empty;
#X connect 7 0 2 0 empty;
#X restore 309 279 pd calc-y-pos;
#X obj 159 279 -;
#X obj 179 239 r spacing_\$0;
#X text 479 408 :3;
#X text 239 18 scale and/or move [cnv] object \; index selects which one to move \; and y-value is the "slider" value;
#X obj 39 39 r uni_\$0;
#X obj 9 69 router;
#X obj 9 105 - 0.5;
#X connect 1 0 2 0 empty;
#X connect 2 0 0 0 empty;
#X connect 3 0 9 0 empty;
#X connect 4 0 1 1 empty;
#X connect 4 1 1 0 empty;
#X connect 5 0 4 0 empty;
#X connect 5 0 3 0 empty;
#X connect 5 1 9 0 empty;
#X connect 6 0 5 0 empty;
#X connect 7 0 12 0 empty;
#X connect 8 0 11 1 empty;
#X connect 9 0 10 0 empty;
#X connect 10 0 0 0 empty;
#X connect 11 0 0 0 empty;
#X connect 12 0 8 0 empty;
#X connect 13 0 16 0 empty;
#X connect 14 0 15 0 empty;
#X connect 15 0 7 0 empty;
#X connect 15 1 20 0 empty;
#X connect 16 0 5 0 empty;
#X connect 16 1 11 0 empty;
#X connect 16 2 6 0 empty;
#X connect 16 3 14 0 empty;
#X connect 17 0 13 0 empty;
#X connect 18 0 0 1 empty;
#X connect 19 0 17 1 empty;
#X connect 20 0 18 0 empty;
#X connect 21 0 14 1 empty;
#X connect 22 0 31 0 empty;
#X connect 23 0 26 0 empty;
#X connect 23 0 7 1 empty;
#X connect 24 0 12 1 empty;
#X connect 25 0 8 1 empty;
#X connect 26 0 9 1 empty;
#X connect 27 0 26 1 empty;
#X connect 30 0 31 1 empty;
#X connect 31 0 32 0 empty;
#X connect 31 1 17 0 empty;
#X connect 32 0 17 0 empty;
#X restore 509 129 pd move-slider;
#N canvas 0 50 380 384 draw 1;
#X obj 59 39 route click;
#X msg 299 249 resize \$1;
#X obj 249 179 /;
#X obj 108 69 unpack;
#X obj 59 169 /;
#X obj 59 99 spigot;
#X obj 249 299 int;
#X obj 59 9 r pad_out_\$0;
#X obj 29 349 s yval_\$0;
#X obj 269 349 s index_\$0;
#X obj 79 129 r height_\$0;
#X obj 279 109 r width_\$0;
#X obj 299 169 r n_\$0;
#X obj 249 259 *;
#X text 199 18 drawing on the pad \; and sending the result to the \; array and cnv objects;
#X obj 169 349 tabwrite \$1;
#X obj 299 279 s \$1;
#X obj 109 169 r uni_\$0;
#X obj 59 209 router;
#X obj 79 279 - 0.5;
#X obj 79 309 * 2;
#X connect 0 0 5 1 empty;
#X connect 0 1 3 0 empty;
#X connect 1 0 16 0 empty;
#X connect 2 0 13 0 empty;
#X connect 3 0 2 0 empty;
#X connect 3 1 5 0 empty;
#X connect 4 0 18 0 empty;
#X connect 5 0 4 0 empty;
#X connect 6 0 9 0 empty;
#X connect 6 0 15 1 empty;
#X connect 7 0 0 0 empty;
#X connect 10 0 4 1 empty;
#X connect 11 0 2 1 empty;
#X connect 12 0 1 0 empty;
#X connect 12 0 13 1 empty;
#X connect 13 0 6 0 empty;
#X connect 17 0 18 1 empty;
#X connect 18 0 19 0 empty;
#X connect 18 0 8 0 empty;
#X connect 18 1 8 0 empty;
#X connect 18 1 15 0 empty;
#X connect 19 0 20 0 empty;
#X connect 20 0 15 0 empty;
#X restore 509 99 pd draw;
#N canvas 0 50 450 300 color 1;
#X msg 39 169 hsl \$1 100 50;
#X msg 39 229 color \$1;
#X obj 39 199 colors;
#X obj 39 109 * 360;
#X obj 39 139 mod 360;
#X obj 39 19 r yval_\$0;
#X obj 39 79 spigot;
#X obj 69 49 r coloring_\$0;
#X obj 39 259 s;
#X msg 169 229 symbol sl\$1\$2;
#X obj 169 199 pack f \$0;
#X obj 169 169 r index_\$0;
#X text 119 8 what's even the point if you can't make your arrays gay af?;
#X connect 0 0 2 0 empty;
#X connect 1 0 8 0 empty;
#X connect 2 0 1 0 empty;
#X connect 3 0 4 0 empty;
#X connect 4 0 0 0 empty;
#X connect 5 0 6 0 empty;
#X connect 6 0 3 0 empty;
#X connect 7 0 6 1 empty;
#X connect 9 0 8 1 empty;
#X connect 10 0 9 0 empty;
#X connect 11 0 10 0 empty;
#X restore 509 69 pd color;
#X obj 149 269 inlet;
#X text 509 278 amy universe - 2023 \; github.com/tomara-x;
#X obj 509 219 namecanvas this\$1;
#N canvas 0 50 330 340 sync 1;
#X obj 19 89 loop;
#X obj 59 49 r n_\$0;
#X obj 69 309 s yval_\$0;
#X obj 189 179 s index_\$0;
#X obj 19 129 t f f;
#X obj 19 179 tabread \$1;
#X obj 22 49 b;
#X obj 109 179 r uni_\$0;
#X obj 19 219 router;
#X obj 19 249 / 2;
#X obj 19 279 + 0.5;
#X text 139 8 loop the corresponding array \; (the array in the parent patch) \; and copy its contents to sliders \; this is triggered on creation \; and can be triggered using the \; "sync" message;
#X obj 19 9 r sync_\$0;
#X connect 0 0 4 0 empty;
#X connect 1 0 0 1 empty;
#X connect 4 0 5 0 empty;
#X connect 4 1 3 0 empty;
#X connect 5 0 8 0 empty;
#X connect 6 0 0 0 empty;
#X connect 7 0 8 1 empty;
#X connect 8 0 9 0 empty;
#X connect 8 1 2 0 empty;
#X connect 9 0 10 0 empty;
#X connect 10 0 2 0 empty;
#X connect 12 0 6 0 empty;
#X restore 509 189 pd sync;
#X obj 379 309 s index_\$0;
#X obj 379 269 inlet;
#X obj 239 269 inlet;
#N canvas 0 50 450 300 yval 1;
#X obj 159 29 inlet;
#X obj 209 229 s yval_\$0;
#X obj 217 61 r uni_\$0;
#X obj 177 91 router;
#X obj 139 189 + 0.5;
#X obj 146 146 / 2;
#X connect 0 0 3 0 empty;
#X connect 2 0 3 1 empty;
#X connect 3 0 5 0 empty;
#X connect 3 1 1 0 empty;
#X connect 4 0 1 0 empty;
#X connect 5 0 4 0 empty;
#X restore 239 309 pd yval;
#X obj 299 309 tabwrite \$1;
#X connect 0 0 6 0 empty;
#X connect 4 0 0 0 empty;
#X connect 10 0 5 0 empty;
#X connect 15 0 14 0 empty;
#X connect 15 0 18 1 empty;
#X connect 16 0 17 0 empty;
#X connect 16 0 18 0 empty;
#X coords 0 0 1 1 472 242 1;
