#N canvas 827 239 520 420 12;
#X obj 1 1 pad 470 239 255 255 255;
#X obj -1 -1 cnv 15 472 241 empty bg\$0 empty 20 12 0 14 #191919 #ffffff 0;
#N canvas 0 50 450 300 sliders_\$0 1;
#X obj 3 5 cnv 2 3 114 empty sl01061 empty 20 12 0 14 #ff76b1 #ffffff 0;
#X obj 8 11 cnv 2 3 108 empty sl11061 empty 20 12 0 14 #ff76b1 #ffffff 0;
#X obj 13 11 cnv 2 3 108 empty sl21061 empty 20 12 0 14 #ff76ae #ffffff 0;
#X obj 18 13 cnv 2 3 106 empty sl31061 empty 20 12 0 14 #ff76aa #ffffff 0;
#X obj 23 13 cnv 2 3 106 empty sl41061 empty 20 12 0 14 #ff76a6 #ffffff 0;
#X obj 28 13 cnv 2 3 106 empty sl51061 empty 20 12 0 14 #ff76a1 #ffffff 0;
#X obj 33 13 cnv 2 3 106 empty sl61061 empty 20 12 0 14 #fdbf99 #ffffff 0;
#X obj 38 13 cnv 2 3 106 empty sl71061 empty 20 12 0 14 #fcbf91 #ffffff 0;
#X obj 43 13 cnv 2 3 106 empty sl81061 empty 20 12 0 14 #f7bf8b #ffffff 0;
#X obj 48 13 cnv 2 3 106 empty sl91061 empty 20 12 0 14 #f46c86 #ffffff 0;
#X obj 53 14 cnv 2 3 105 empty sl101061 empty 20 12 0 14 #f0d480 #ffffff 0;
#X obj 58 15 cnv 2 3 104 empty sl111061 empty 20 12 0 14 #f0d68e #ffffff 0;
#X obj 63 16 cnv 2 3 103 empty sl121061 empty 20 12 0 14 #efe68e #ffffff 0;
#X obj 68 17 cnv 2 3 102 empty sl131061 empty 20 12 0 14 #ede68e #ffffff 0;
#X obj 73 18 cnv 2 3 101 empty sl141061 empty 20 12 0 14 #ebe68e #ffffff 0;
#X obj 78 37 cnv 2 3 82 empty sl151061 empty 20 12 0 14 #ebe68e #ffffff 0;
#X obj 83 20 cnv 2 3 99 empty sl161061 empty 20 12 0 14 #eae68e #ffffff 0;
#X obj 88 22 cnv 2 3 97 empty sl171061 empty 20 12 0 14 #e9e48e #ffffff 0;
#X obj 93 27 cnv 2 3 92 empty sl181061 empty 20 12 0 14 #e8e28e #ffffff 0;
#X obj 98 21 cnv 2 3 98 empty sl191061 empty 20 12 0 14 #dfdf8e #ffffff 0;
#X obj 103 29 cnv 2 3 90 empty sl201061 empty 20 12 0 14 #dddd8e #ffffff 0;
#X obj 108 31 cnv 2 3 88 empty sl211061 empty 20 12 0 14 #dada8e #ffffff 0;
#X obj 113 33 cnv 2 3 86 empty sl221061 empty 20 12 0 14 #d5d68e #ffffff 0;
#X obj 118 58 cnv 2 3 61 empty sl231061 empty 20 12 0 14 #d3d48e #ffffff 0;
#X obj 123 35 cnv 2 3 84 empty sl241061 empty 20 12 0 14 #d0d28e #ffffff 0;
#X obj 128 40 cnv 2 3 79 empty sl251061 empty 20 12 0 14 #ccd08e #ffffff 0;
#X obj 133 41 cnv 2 3 78 empty sl261061 empty 20 12 0 14 #c7718e #ffffff 0;
#X obj 138 43 cnv 2 3 76 empty sl271061 empty 20 12 0 14 #c46e8e #ffffff 0;
#X obj 143 45 cnv 2 3 74 empty sl281061 empty 20 12 0 14 #be6a8e #ffffff 0;
#X obj 148 48 cnv 2 3 71 empty sl291061 empty 20 12 0 14 #bc688e #ffffff 0;
#X obj 153 51 cnv 2 3 68 empty sl301061 empty 20 12 0 14 #ba658e #ffffff 0;
#X obj 158 53 cnv 2 3 66 empty sl311061 empty 20 12 0 14 #ba628e #ffffff 0;
#X obj 163 56 cnv 2 3 63 empty sl321061 empty 20 12 0 14 #b8608e #ffffff 0;
#X obj 168 59 cnv 2 3 60 empty sl331061 empty 20 12 0 14 #b45d8e #ffffff 0;
#X obj 173 60 cnv 2 3 59 empty sl341061 empty 20 12 0 14 #b3b58e #ffffff 0;
#X obj 178 62 cnv 2 3 57 empty sl351061 empty 20 12 0 14 #b2b58e #ffffff 0;
#X obj 183 63 cnv 2 3 56 empty sl361061 empty 20 12 0 14 #b1b58e #ffffff 0;
#X obj 188 65 cnv 2 3 54 empty sl371061 empty 20 12 0 14 #b1b58e #ffffff 0;
#X obj 193 69 cnv 2 3 50 empty sl381061 empty 20 12 0 14 #ddb58e #ffffff 0;
#X obj 198 73 cnv 2 3 46 empty sl391061 empty 20 12 0 14 #ddb58e #ffffff 0;
#X obj 203 74 cnv 2 3 45 empty sl401061 empty 20 12 0 14 #dfb58e #ffffff 0;
#X obj 208 76 cnv 2 3 43 empty sl411061 empty 20 12 0 14 #e2b58d #ffffff 0;
#X obj 213 79 cnv 2 3 40 empty sl421061 empty 20 12 0 14 #e5b58c #ffffff 0;
#X obj 218 83 cnv 2 3 36 empty sl431061 empty 20 12 0 14 #e8b38b #ffffff 0;
#X obj 223 85 cnv 2 3 34 empty sl441061 empty 20 12 0 14 #f0b189 #ffffff 0;
#X obj 228 89 cnv 2 3 30 empty sl451061 empty 20 12 0 14 #f3ae88 #ffffff 0;
#X obj 233 91 cnv 2 3 28 empty sl461061 empty 20 12 0 14 #f5ac87 #ffffff 0;
#X obj 238 96 cnv 2 3 23 empty sl471061 empty 20 12 0 14 #f5a986 #ffffff 0;
#X obj 243 96 cnv 2 3 23 empty sl481061 empty 20 12 0 14 #f5a483 #ffffff 0;
#X obj 248 101 cnv 2 3 18 empty sl491061 empty 20 12 0 14 #f59e82 #ffffff 0;
#X obj 253 94 cnv 2 3 25 empty sl501061 empty 20 12 0 14 #f58e81 #ffffff 0;
#X obj 258 104 cnv 2 3 15 empty sl511061 empty 20 12 0 14 #f58d80 #ffffff 0;
#X obj 263 108 cnv 2 3 11 empty sl521061 empty 20 12 0 14 #f58b7e #ffffff 0;
#X obj 268 103 cnv 2 3 16 empty sl531061 empty 20 12 0 14 #f5857c #ffffff 0;
#X obj 273 110 cnv 2 3 9 empty sl541061 empty 20 12 0 14 #f57e7c #ffffff 0;
#X obj 278 113 cnv 2 3 6 empty sl551061 empty 20 12 0 14 #f5767b #ffffff 0;
#X obj 283 116 cnv 2 3 3 empty sl561061 empty 20 12 0 14 #f56f7b #ffffff 0;
#X obj 288 119 cnv 2 3 1 empty sl571061 empty 20 12 0 14 #f5697b #ffffff 0;
#X obj 293 113 cnv 2 3 6 empty sl581061 empty 20 12 0 14 #f5637b #ffffff 0;
#X obj 298 119 cnv 2 3 1 empty sl591061 empty 20 12 0 14 #3b537b #ffffff 0;
#X obj 303 119 cnv 2 3 3 empty sl601061 empty 20 12 0 14 #314e7b #ffffff 0;
#X obj 308 119 cnv 2 3 5 empty sl611061 empty 20 12 0 14 #314a7b #ffffff 0;
#X obj 313 119 cnv 2 3 16 empty sl621061 empty 20 12 0 14 #313b7c #ffffff 0;
#X obj 318 119 cnv 2 3 16 empty sl631061 empty 20 12 0 14 #312c7e #ffffff 0;
#X obj 323 119 cnv 2 3 21 empty sl641061 empty 20 12 0 14 #312c81 #ffffff 0;
#X obj 328 119 cnv 2 3 28 empty sl651061 empty 20 12 0 14 #312c84 #ffffff 0;
#X obj 333 119 cnv 2 3 33 empty sl661061 empty 20 12 0 14 #312c88 #ffffff 0;
#X obj 338 119 cnv 2 3 39 empty sl671061 empty 20 12 0 14 #312c8b #ffffff 0;
#X obj 343 119 cnv 2 3 43 empty sl681061 empty 20 12 0 14 #312c94 #ffffff 0;
#X obj 348 119 cnv 2 3 45 empty sl691061 empty 20 12 0 14 #31409d #ffffff 0;
#X obj 353 119 cnv 2 3 49 empty sl701061 empty 20 12 0 14 #314aa2 #ffffff 0;
#X obj 358 119 cnv 2 3 53 empty sl711061 empty 20 12 0 14 #314ca7 #ffffff 0;
#X obj 363 119 cnv 2 3 57 empty sl721061 empty 20 12 0 14 #3152aa #ffffff 0;
#X obj 368 119 cnv 2 3 60 empty sl731061 empty 20 12 0 14 #3156ad #ffffff 0;
#X obj 373 119 cnv 2 3 64 empty sl741061 empty 20 12 0 14 #3159b2 #ffffff 0;
#X obj 378 119 cnv 2 3 66 empty sl751061 empty 20 12 0 14 #3160bf #ffffff 0;
#X obj 383 119 cnv 2 3 67 empty sl761061 empty 20 12 0 14 #3167bf #ffffff 0;
#X obj 388 119 cnv 2 3 70 empty sl771061 empty 20 12 0 14 #316fc2 #ffffff 0;
#X obj 393 119 cnv 2 3 73 empty sl781061 empty 20 12 0 14 #3173c3 #ffffff 0;
#X obj 398 119 cnv 2 3 77 empty sl791061 empty 20 12 0 14 #eb7bc9 #ffffff 0;
#X obj 403 119 cnv 2 3 80 empty sl801061 empty 20 12 0 14 #eb7dcb #ffffff 0;
#X obj 408 119 cnv 2 3 82 empty sl811061 empty 20 12 0 14 #eb7ecc #ffffff 0;
#X obj 413 119 cnv 2 3 83 empty sl821061 empty 20 12 0 14 #ebe4ce #ffffff 0;
#X obj 418 119 cnv 2 3 86 empty sl831061 empty 20 12 0 14 #ebe3ce #ffffff 0;
#X obj 423 119 cnv 2 3 87 empty sl841061 empty 20 12 0 14 #eb3dce #ffffff 0;
#X obj 428 119 cnv 2 3 89 empty sl851061 empty 20 12 0 14 #eb4ace #ffffff 0;
#X obj 433 119 cnv 2 3 92 empty sl861061 empty 20 12 0 14 #eb4ae6 #ffffff 0;
#X obj 438 119 cnv 2 3 94 empty sl871061 empty 20 12 0 14 #eb4ee6 #ffffff 0;
#X obj 443 119 cnv 2 3 96 empty sl881061 empty 20 12 0 14 #c453e6 #ffffff 0;
#X obj 448 119 cnv 2 3 97 empty sl891061 empty 20 12 0 14 #c456e6 #ffffff 0;
#X obj 453 119 cnv 2 3 100 empty sl901061 empty 20 12 0 14 #c457e6 #ffffff 0;
#X obj 458 119 cnv 2 3 103 empty sl911061 empty 20 12 0 14 #bf58e6 #ffffff 0;
#X obj 463 119 cnv 2 3 107 empty sl921061 empty 20 12 0 14 #bd45e6 #ffffff 0;
#X obj 468 119 cnv 2 3 109 empty sl931061 empty 20 12 0 14 #8031e6 #ffffff 0;
#X coords 0 0 1 1 472 241 2 0 0;
#X restore -1 -1 pd sliders_\$0;
#N canvas 0 50 380 410 construct 1;
#X msg 319 339 clear;
#X obj 19 109 loop;
#X obj 35 249 +;
#N canvas 0 50 450 300 calc-y-pos 0;
#X obj 39 269 outlet;
#X obj 139 99 / 2;
#X obj 39 69 select 0;
#X obj 39 179 f;
#X obj 79 109 b;
#X obj 199 169 f;
#X obj 209 29 r height_\$0;
#X obj 39 19 r uni_\$0;
#X connect 1 0 3 1 empty;
#X connect 2 0 3 0 empty;
#X connect 2 1 4 0 empty;
#X connect 3 0 0 0 empty;
#X connect 4 0 5 0 empty;
#X connect 5 0 0 0 empty;
#X connect 6 0 1 0 empty;
#X connect 6 0 5 1 empty;
#X connect 7 0 2 0 empty;
#X restore 81 249 pd calc-y-pos;
#X obj 19 163 t f f;
#X obj 189 249 -;
#X obj 129 119 swap;
#X obj 129 153 /;
#X obj 35 209 *;
#X msg 19 319 obj \$2 \$3 cnv 2 \$4 0 empty sl\$1\$5 empty 20 12 0 14 #ffffff #ffffff 0, f 33;
#X obj 149 89 r width_\$0;
#X obj 19 9 r n_\$0;
#X obj 81 219 r xoffset_\$0;
#X obj 210 219 r spacing_\$0;
#X obj 199 189 s slider_width_\$0;
#X obj 19 369 s pd-sliders_\$0;
#X obj 19 289 pack f f f f \$0;
#X text 349 388 <3;
#X text 99 18 fill the graph area with evenly spaced cnv objects;
#X obj 19 49 t f f b;
#X connect 0 0 15 0 32.................E....Ts+++eA....U6+++q.....;
#X connect 1 0 4 0 empty;
#X connect 2 0 16 1 empty;
#X connect 3 0 16 2 32.................G....P9++++A....j++++SA....;
#X connect 4 0 16 0 empty;
#X connect 4 1 8 0 32.................R....L....fD....C....PB....;
#X connect 5 0 16 3 32.................O....33++++C....N9+++SA....;
#X connect 6 0 7 0 empty;
#X connect 6 1 7 1 empty;
#X connect 7 0 8 1 32.................W....v5++++E....r9+++6B....;
#X connect 7 0 5 0 32.................l....vC...fI....7....vD....;
#X connect 7 0 14 0 32.................H....XD....B....FA....A....;
#X connect 8 0 2 0 empty;
#X connect 9 0 15 0 empty;
#X connect 10 0 6 1 empty;
#X connect 11 0 19 0 empty;
#X connect 12 0 2 1 32.................E....38+++eA....d++++q.....;
#X connect 13 0 5 1 empty;
#X connect 16 0 9 0 empty;
#X connect 19 0 1 0 empty;
#X connect 19 1 6 0 32.................Q.....F...PD....fA...HC....;
#X connect 19 2 0 0 32.................F....7P...fA....OD...3P....;
#X restore 509 159 pd construct;
#N canvas 0 50 450 300 resize 1;
#X msg 9 219 dim \$1 \$2;
#X obj 9 169 pack2;
#X obj 9 249 outlet;
#X obj 109 29 r height_\$0;
#X obj 9 29 r width_\$0;
#X msg 89 219 coords 0 0 1 1 \$1 \$2 2;
#X obj 139 119 + 2;
#X obj 89 119 + 2;
#X obj 89 249 s pd-sliders_\$0;
#X obj 89 169 pack2;
#X msg 239 219 coords 0 0 1 1 \$1 \$2 2;
#X obj 319 189 s bg\$0;
#X msg 319 159 vis_size \$1 \$2;
#X obj 239 249 s this\$1;
#X connect 0 0 2 0 empty;
#X connect 1 0 0 0 empty;
#X connect 3 0 1 1 empty;
#X connect 3 0 6 0 empty;
#X connect 4 0 1 0 empty;
#X connect 4 0 7 0 empty;
#X connect 5 0 8 0 empty;
#X connect 6 0 9 1 empty;
#X connect 7 0 9 0 empty;
#X connect 9 0 5 0 empty;
#X connect 9 0 10 0 empty;
#X connect 9 0 12 0 empty;
#X connect 10 0 13 0 empty;
#X connect 12 0 11 0 empty;
#X restore 9 -41 pd resize;
#N canvas 0 50 640 300 methods 1;
#X obj 200 259 s width_\$0;
#X obj 277 259 s height_\$0;
#X obj 137 259 s uni_\$0;
#X obj 84 259 s n_\$0;
#X obj 359 259 s spacing_\$0;
#X obj 9 9 inlet;
#X obj 44 109 max 1;
#X obj 450 259 s xoffset_\$0;
#X obj 309 109 t b f;
#X obj 259 109 t b f;
#X obj 99 109 t b f;
#X obj 149 109 t b f;
#X obj 44 189 f;
#N canvas 0 50 450 300 bg 1;
#X obj 139 29 inlet;
#X msg 139 119 color \$1;
#X obj 139 179 s bg\$0;
#X text 209 118 set background cnv color;
#X obj 139 69 symbol;
#X connect 0 0 4 0 empty;
#X connect 1 0 2 0 empty;
#X connect 4 0 1 0 empty;
#X restore 341 69 pd bg;
#N canvas 0 50 450 300 fg 1;
#X obj 49 9 inlet;
#X obj 119 109 loop;
#X obj 119 139 t b f;
#X obj 39 259 s;
#X msg 39 199 color #ffffff;
#X obj 149 69 r n_\$0;
#X obj 129 179 pack f \$0;
#X msg 129 219 symbol sl\$1\$2;
#X obj 49 69 t b s;
#X msg 9 139 set color \$1;
#X obj 49 37 symbol;
#X text 119 8 loop through the sliders setting each one's color;
#X connect 0 0 10 0 empty;
#X connect 1 0 2 0 empty;
#X connect 2 0 4 0 empty;
#X connect 2 1 6 0 empty;
#X connect 4 0 3 0 empty;
#X connect 5 0 1 1 empty;
#X connect 6 0 7 0 empty;
#X connect 7 0 3 1 empty;
#X connect 8 0 1 0 empty;
#X connect 8 1 9 0 empty;
#X connect 9 0 4 0 empty;
#X connect 10 0 8 0 empty;
#X restore 387 69 pd fg;
#X obj 137 213 f;
#X obj 199 109 t b b f;
#N canvas 0 50 563 395 args-and-savestate 1;
#X obj 389 209 args;
#X obj 249 159 savestate;
#X obj 249 369 outlet;
#X obj 339 16 r n_\$0;
#X obj 364 39 r uni_\$0;
#X obj 390 62 r width_\$0;
#X obj 415 85 r height_\$0;
#X obj 441 108 r spacing_\$0;
#X obj 467 131 r xoffset_\$0;
#X obj 298 369 outlet;
#X obj 347 369 outlet;
#X obj 396 369 outlet;
#X obj 445 369 outlet;
#X obj 494 369 outlet;
#X obj 249 199 t l b;
#X obj 389 239 pack s 64 0 470 240 2 3;
#X obj 389 269 unpack s f f f f f f;
#X obj 249 239 unpack f f f f f f;
#X obj 295 189 list store;
#X obj 339 159 pack2 64 0 470 240 2 3;
#X obj 249 339 f;
#X obj 249 309 del 5;
#X obj 249 279 t b f;
#X text 9 278 eat the argument \; if we have a savestate \; really bad amy \; (prevents resizing the array to the default);
#X connect 0 0 15 0 empty;
#X connect 1 0 14 0 empty;
#X connect 1 1 18 0 empty;
#X connect 3 0 19 0 empty;
#X connect 4 0 19 1 empty;
#X connect 5 0 19 2 empty;
#X connect 6 0 19 3 empty;
#X connect 7 0 19 4 empty;
#X connect 8 0 19 5 empty;
#X connect 14 0 17 0 empty;
#X connect 14 1 0 0 empty;
#X connect 15 0 16 0 empty;
#X connect 16 1 22 0 empty;
#X connect 16 2 9 0 empty;
#X connect 16 3 10 0 empty;
#X connect 16 4 11 0 empty;
#X connect 16 5 12 0 empty;
#X connect 16 6 13 0 empty;
#X connect 17 0 22 0 empty;
#X connect 17 1 9 0 empty;
#X connect 17 2 10 0 empty;
#X connect 17 3 11 0 empty;
#X connect 17 4 12 0 empty;
#X connect 17 5 13 0 empty;
#X connect 18 0 1 0 empty;
#X connect 19 0 18 1 empty;
#X connect 20 0 2 0 empty;
#X connect 21 0 20 0 empty;
#X connect 22 0 21 0 empty;
#X connect 22 1 20 1 empty;
#X restore 469 129 pd args-and-savestate;
#X obj 9 259 s sync_\$0;
#X obj 44 229 t b f;
#X obj 537 259 s coloring_\$0;
#X obj 9 39 route sync resize uni width height spacing xoffset coloring bg fg colorsync, f 68;
#N canvas 0 50 462 373 color-sync 1;
#X obj 9 9 inlet;
#X obj 12 39 b;
#X obj 9 79 loop;
#X obj 9 339 s;
#X obj 69 39 r n_\$0;
#X obj 319 159 pack f \$0;
#X msg 319 299 symbol sl\$1\$2;
#X obj 9 159 tabread \$1-r;
#X obj 109 159 tabread \$1-g;
#X obj 209 159 tabread \$1-b;
#X obj 9 269 colors;
#X msg 9 239 rgb \$1 \$2 \$3;
#X obj 9 209 pack f f f;
#X msg 9 299 color \$1;
#X obj 9 109 t f f f f;
#X text 59 8 loop through the sliders setting each one's color (from the color arrays);
#X connect 0 0 1 0 empty;
#X connect 1 0 2 0 empty;
#X connect 2 0 14 0 empty;
#X connect 4 0 2 1 empty;
#X connect 5 0 6 0 empty;
#X connect 6 0 3 1 empty;
#X connect 7 0 12 0 empty;
#X connect 8 0 12 1 empty;
#X connect 9 0 12 2 empty;
#X connect 10 0 13 0 empty;
#X connect 11 0 10 0 empty;
#X connect 12 0 11 0 empty;
#X connect 13 0 3 0 empty;
#X connect 14 0 7 0 empty;
#X connect 14 1 8 0 empty;
#X connect 14 2 9 0 empty;
#X connect 14 3 5 0 empty;
#X restore 434 69 pd color-sync;
#X connect 5 0 21 0 empty;
#X connect 6 0 12 0 empty;
#X connect 8 0 12 0 empty;
#X connect 8 1 7 0 empty;
#X connect 9 0 12 0 empty;
#X connect 9 1 4 0 empty;
#X connect 10 0 12 0 empty;
#X connect 10 1 15 0 empty;
#X connect 11 0 12 0 empty;
#X connect 11 1 0 0 empty;
#X connect 12 0 19 0 empty;
#X connect 15 0 2 0 empty;
#X connect 16 0 12 0 empty;
#X connect 16 1 15 0 empty;
#X connect 16 2 1 0 empty;
#X connect 17 0 12 0 empty;
#X connect 17 1 15 0 empty;
#X connect 17 2 0 0 empty;
#X connect 17 3 1 0 empty;
#X connect 17 4 4 0 empty;
#X connect 17 5 7 0 empty;
#X connect 19 0 18 0 empty;
#X connect 19 1 3 0 empty;
#X connect 21 0 18 0 empty;
#X connect 21 1 6 0 empty;
#X connect 21 2 10 0 empty;
#X connect 21 3 11 0 empty;
#X connect 21 4 16 0 empty;
#X connect 21 5 9 0 empty;
#X connect 21 6 8 0 empty;
#X connect 21 7 20 0 empty;
#X connect 21 8 13 0 empty;
#X connect 21 9 14 0 empty;
#X connect 21 10 22 0 empty;
#X restore 149 309 pd methods;
#X obj 9 269 s pad_out_\$0;
#N canvas 0 50 520 440 move-slider 1;
#X obj 9 409 s;
#X obj 69 289 -;
#X msg 69 319 delta 0 \$1;
#X obj 129 249 * -1;
#X obj 69 259 t f f;
#X obj 130 197 moses 1;
#X msg 175 160 0;
#X obj 299 239 *;
#X obj 299 319 pack;
#X obj 150 319 pack;
#X msg 150 349 vis_size \$2 \$1;
#N canvas 0 50 450 300 set-pos 0;
#X obj 109 59 inlet;
#X obj 219 59 inlet;
#X obj 159 219 outlet;
#X msg 159 169 pos 3 119.5;
#X msg 219 109 set pos \$1 \$2;
#X text 389 278 moths;
#X connect 0 0 3 0 empty;
#X connect 1 0 4 0 empty;
#X connect 3 0 2 0 empty;
#X connect 4 0 3 0 empty;
#X restore 249 349 pd set-pos;
#X obj 299 279 +;
#X obj 120 96 * -1;
#X obj 399 159 f;
#X obj 399 189 t f f;
#X obj 120 66 *;
#X msg 409 349 symbol sl\$1\$2;
#X obj 129 29 r height_\$0;
#X obj 409 309 pack f \$0;
#X obj 409 129 r index_\$0;
#X obj 9 9 r yval_\$0;
#X obj 199 189 r slider_width_\$0;
#X obj 339 239 r xoffset_\$0;
#N canvas 0 50 450 300 calc-y-pos 0;
#X obj 39 269 outlet;
#X obj 139 99 / 2;
#X obj 39 69 select 0;
#X obj 39 179 f;
#X obj 79 109 b;
#X obj 159 169 f;
#X obj 219 19 r height_\$0;
#X obj 39 19 r uni_\$0;
#X connect 1 0 3 1 empty;
#X connect 2 0 3 0 empty;
#X connect 2 1 4 0 empty;
#X connect 3 0 0 0 empty;
#X connect 4 0 5 0 empty;
#X connect 5 0 0 0 empty;
#X connect 6 0 1 0 empty;
#X connect 6 0 5 1 empty;
#X connect 7 0 2 0 empty;
#X restore 339 279 pd calc-y-pos;
#X obj 199 279 -;
#X obj 209 239 r spacing_\$0;
#X text 479 408 :3;
#X text 239 18 scale and/or move [cnv] object \; index selects which one to move \; and y-value is the "slider" value;
#X obj 39 39 r uni_\$0;
#X obj 9 69 router;
#X obj 9 105 - 0.5;
#N canvas 0 50 450 400 set-color 0;
#X obj 19 9 inlet;
#X obj 19 79 spigot;
#X obj 89 9 r coloring_\$0;
#X obj 89 39 f;
#X obj 19 369 outlet;
#X obj 89 79 r index_\$0;
#X obj 19 199 tabread \$1-r;
#X obj 119 199 tabread \$1-g;
#X obj 219 199 tabread \$1-b;
#X obj 19 119 f;
#X obj 19 309 colors;
#X msg 19 279 rgb \$1 \$2 \$3;
#X obj 19 149 t f f f;
#X obj 19 249 pack f f f;
#X msg 19 339 color \$1;
#X text 119 158 get the rgb color values of this slider from the color arrays;
#X connect 0 0 1 0 empty;
#X connect 1 0 9 0 empty;
#X connect 2 0 3 0 empty;
#X connect 3 0 1 1 empty;
#X connect 5 0 9 1 empty;
#X connect 6 0 13 0 empty;
#X connect 7 0 13 1 empty;
#X connect 8 0 13 2 empty;
#X connect 9 0 12 0 empty;
#X connect 10 0 14 0 empty;
#X connect 11 0 10 0 empty;
#X connect 12 0 6 0 empty;
#X connect 12 1 7 0 empty;
#X connect 12 2 8 0 empty;
#X connect 13 0 11 0 empty;
#X connect 14 0 4 0 empty;
#X restore 9 209 pd set-color;
#X obj 120 124 t b f b b b;
#X connect 1 0 2 0 empty;
#X connect 2 0 0 0 empty;
#X connect 3 0 9 0 empty;
#X connect 4 0 1 1 empty;
#X connect 4 1 1 0 empty;
#X connect 5 0 4 0 empty;
#X connect 5 0 3 0 empty;
#X connect 5 1 9 0 empty;
#X connect 6 0 5 0 empty;
#X connect 7 0 12 0 empty;
#X connect 8 0 11 1 empty;
#X connect 9 0 10 0 empty;
#X connect 10 0 0 0 empty;
#X connect 11 0 0 0 empty;
#X connect 12 0 8 0 empty;
#X connect 13 0 33 0 empty;
#X connect 14 0 15 0 empty;
#X connect 15 0 7 0 empty;
#X connect 15 1 19 0 empty;
#X connect 16 0 13 0 empty;
#X connect 17 0 0 1 empty;
#X connect 18 0 16 1 empty;
#X connect 19 0 17 0 empty;
#X connect 20 0 14 1 empty;
#X connect 21 0 30 0 empty;
#X connect 22 0 25 0 empty;
#X connect 22 0 7 1 empty;
#X connect 23 0 12 1 empty;
#X connect 24 0 8 1 empty;
#X connect 25 0 9 1 empty;
#X connect 26 0 25 1 empty;
#X connect 29 0 30 1 empty;
#X connect 30 0 31 0 empty;
#X connect 30 1 16 0 empty;
#X connect 31 0 16 0 empty;
#X connect 32 0 0 0 empty;
#X connect 33 0 32 0 empty;
#X connect 33 1 5 0 empty;
#X connect 33 2 11 0 empty;
#X connect 33 3 6 0 empty;
#X connect 33 4 14 0 empty;
#X restore 509 129 pd move-slider;
#N canvas 0 50 380 384 draw 1;
#X obj 59 39 route click;
#X msg 299 249 resize \$1;
#X obj 249 179 /;
#X obj 108 69 unpack;
#X obj 59 169 /;
#X obj 59 99 spigot;
#X obj 249 299 int;
#X obj 59 9 r pad_out_\$0;
#X obj 29 349 s yval_\$0;
#X obj 269 349 s index_\$0;
#X obj 79 129 r height_\$0;
#X obj 279 109 r width_\$0;
#X obj 299 169 r n_\$0;
#X obj 249 259 *;
#X text 199 18 drawing on the pad \; and sending the result to the \; array and cnv objects;
#X obj 169 349 tabwrite \$1;
#X obj 299 279 s \$1;
#X obj 109 169 r uni_\$0;
#X obj 59 209 router;
#X obj 79 279 - 0.5;
#X obj 79 309 * 2;
#X connect 0 0 5 1 empty;
#X connect 0 1 3 0 empty;
#X connect 1 0 16 0 empty;
#X connect 2 0 13 0 empty;
#X connect 3 0 2 0 empty;
#X connect 3 1 5 0 empty;
#X connect 4 0 18 0 empty;
#X connect 5 0 4 0 empty;
#X connect 6 0 9 0 empty;
#X connect 6 0 15 1 empty;
#X connect 7 0 0 0 empty;
#X connect 10 0 4 1 empty;
#X connect 11 0 2 1 empty;
#X connect 12 0 1 0 empty;
#X connect 12 0 13 1 empty;
#X connect 13 0 6 0 empty;
#X connect 17 0 18 1 empty;
#X connect 18 0 19 0 empty;
#X connect 18 0 8 0 empty;
#X connect 18 1 8 0 empty;
#X connect 18 1 15 0 empty;
#X connect 19 0 20 0 empty;
#X connect 20 0 15 0 empty;
#X restore 509 99 pd draw;
#X obj 149 269 inlet;
#X text 509 278 amy universe - 2023 \; github.com/tomara-x;
#X obj 509 219 namecanvas this\$1;
#N canvas 0 50 330 340 sync 1;
#X obj 19 89 loop;
#X obj 59 49 r n_\$0;
#X obj 69 309 s yval_\$0;
#X obj 189 179 s index_\$0;
#X obj 19 129 t f f;
#X obj 19 179 tabread \$1;
#X obj 22 49 b;
#X obj 109 179 r uni_\$0;
#X obj 19 219 router;
#X obj 19 249 / 2;
#X obj 19 279 + 0.5;
#X text 139 8 loop the corresponding array \; (the array in the parent patch) \; and copy its contents to sliders \; this is triggered on creation \; and can be triggered using the \; "sync" message;
#X obj 19 9 r sync_\$0;
#X connect 0 0 4 0 empty;
#X connect 1 0 0 1 empty;
#X connect 4 0 5 0 empty;
#X connect 4 1 3 0 empty;
#X connect 5 0 8 0 empty;
#X connect 6 0 0 0 empty;
#X connect 7 0 8 1 empty;
#X connect 8 0 9 0 empty;
#X connect 8 1 2 0 empty;
#X connect 9 0 10 0 empty;
#X connect 10 0 2 0 empty;
#X connect 12 0 6 0 empty;
#X restore 509 189 pd sync;
#X obj 379 309 s index_\$0;
#X obj 379 269 inlet;
#X obj 239 269 inlet;
#N canvas 0 50 450 300 yval 1;
#X obj 159 29 inlet;
#X obj 209 229 s yval_\$0;
#X obj 217 61 r uni_\$0;
#X obj 177 91 router;
#X obj 139 189 + 0.5;
#X obj 146 146 / 2;
#X connect 0 0 3 0 empty;
#X connect 2 0 3 1 empty;
#X connect 3 0 5 0 empty;
#X connect 3 1 1 0 empty;
#X connect 4 0 1 0 empty;
#X connect 5 0 4 0 empty;
#X restore 239 309 pd yval;
#X obj 299 309 tabwrite \$1;
#X connect 0 0 6 0 empty;
#X connect 4 0 0 0 empty;
#X connect 9 0 5 0 empty;
#X connect 14 0 13 0 empty;
#X connect 14 0 17 1 empty;
#X connect 15 0 16 0 empty;
#X connect 15 0 17 0 empty;
#X coords 0 0 1 1 472 241 2 0 0;
