#N canvas 827 239 520 420 12;
#X obj 1 1 pad 470 239 255 255 255;
#X obj -1 -1 cnv 15 472 241 empty bg\$0 empty 20 12 0 14 #000000 #ffffff 0;
#N canvas 0 50 450 300 sliders_\$0 1;
#X obj 3 27 cnv 2 3 92 empty sl01009 empty 20 12 0 14 #ff76b1 #ffffff 0;
#X obj 8 27 cnv 2 3 92 empty sl11009 empty 20 12 0 14 #ff76b1 #ffffff 0;
#X obj 13 27 cnv 2 3 92 empty sl21009 empty 20 12 0 14 #ff76ae #ffffff 0;
#X obj 18 27 cnv 2 3 92 empty sl31009 empty 20 12 0 14 #ff76aa #ffffff 0;
#X obj 23 27 cnv 2 3 92 empty sl41009 empty 20 12 0 14 #ff76a6 #ffffff 0;
#X obj 28 27 cnv 2 3 92 empty sl51009 empty 20 12 0 14 #ff76a1 #ffffff 0;
#X obj 33 27 cnv 2 3 92 empty sl61009 empty 20 12 0 14 #fdbf99 #ffffff 0;
#X obj 38 29 cnv 2 3 90 empty sl71009 empty 20 12 0 14 #fcbf91 #ffffff 0;
#X obj 43 29 cnv 2 3 90 empty sl81009 empty 20 12 0 14 #f7bf76 #ffffff 0;
#X obj 48 30 cnv 2 3 89 empty sl91009 empty 20 12 0 14 #f4bf76 #ffffff 0;
#X obj 53 36 cnv 2 3 83 empty sl101009 empty 20 12 0 14 #f0c474 #ffffff 0;
#X obj 58 35 cnv 2 3 84 empty sl111009 empty 20 12 0 14 #f0c473 #ffffff 0;
#X obj 63 35 cnv 2 3 84 empty sl121009 empty 20 12 0 14 #efc772 #ffffff 0;
#X obj 68 33 cnv 2 3 86 empty sl131009 empty 20 12 0 14 #edc972 #ffffff 0;
#X obj 73 32 cnv 2 3 87 empty sl141009 empty 20 12 0 14 #ebc972 #ffffff 0;
#X obj 78 32 cnv 2 3 87 empty sl151009 empty 20 12 0 14 #ebc971 #ffffff 0;
#X obj 83 32 cnv 2 3 87 empty sl161009 empty 20 12 0 14 #eac971 #ffffff 0;
#X obj 88 33 cnv 2 3 86 empty sl171009 empty 20 12 0 14 #e9c971 #ffffff 0;
#X obj 93 33 cnv 2 3 86 empty sl181009 empty 20 12 0 14 #e8c971 #ffffff 0;
#X obj 98 34 cnv 2 3 85 empty sl191009 empty 20 12 0 14 #dfc971 #ffffff 0;
#X obj 103 36 cnv 2 3 83 empty sl201009 empty 20 12 0 14 #b5c971 #ffffff 0;
#X obj 108 38 cnv 2 3 81 empty sl211009 empty 20 12 0 14 #b5c971 #ffffff 0;
#X obj 113 41 cnv 2 3 78 empty sl221009 empty 20 12 0 14 #b5c971 #ffffff 0;
#X obj 118 44 cnv 2 3 75 empty sl231009 empty 20 12 0 14 #b5c971 #ffffff 0;
#X obj 123 48 cnv 2 3 71 empty sl241009 empty 20 12 0 14 #b5c76c #ffffff 0;
#X obj 128 50 cnv 2 3 69 empty sl251009 empty 20 12 0 14 #b5c36c #ffffff 0;
#X obj 133 54 cnv 2 3 65 empty sl261009 empty 20 12 0 14 #b5c169 #ffffff 0;
#X obj 138 56 cnv 2 3 63 empty sl271009 empty 20 12 0 14 #b5bf5d #ffffff 0;
#X obj 143 59 cnv 2 3 60 empty sl281009 empty 20 12 0 14 #bfbf5b #ffffff 0;
#X obj 148 61 cnv 2 3 58 empty sl291009 empty 20 12 0 14 #bfbd58 #ffffff 0;
#X obj 153 63 cnv 2 3 56 empty sl301009 empty 20 12 0 14 #bfba56 #ffffff 0;
#X obj 158 67 cnv 2 3 52 empty sl311009 empty 20 12 0 14 #bfac50 #ffffff 0;
#X obj 163 70 cnv 2 3 49 empty sl321009 empty 20 12 0 14 #bfa24a #ffffff 0;
#X obj 168 73 cnv 2 3 46 empty sl331009 empty 20 12 0 14 #bf9845 #ffffff 0;
#X obj 173 75 cnv 2 3 44 empty sl341009 empty 20 12 0 14 #bf8e40 #ffffff 0;
#X obj 178 79 cnv 2 3 40 empty sl351009 empty 20 12 0 14 #bf893d #ffffff 0;
#X obj 183 84 cnv 2 3 35 empty sl361009 empty 20 12 0 14 #bf843b #ffffff 0;
#X obj 188 88 cnv 2 3 31 empty sl371009 empty 20 12 0 14 #bf8438 #ffffff 0;
#X obj 193 91 cnv 2 3 28 empty sl381009 empty 20 12 0 14 #bf8438 #ffffff 0;
#X obj 198 94 cnv 2 3 25 empty sl391009 empty 20 12 0 14 #bf8437 #ffffff 0;
#X obj 203 97 cnv 2 3 22 empty sl401009 empty 20 12 0 14 #bd8e36 #ffffff 0;
#X obj 208 101 cnv 2 3 18 empty sl411009 empty 20 12 0 14 #b59a36 #ffffff 0;
#X obj 213 103 cnv 2 3 16 empty sl421009 empty 20 12 0 14 #b1a536 #ffffff 0;
#X obj 218 106 cnv 2 3 13 empty sl431009 empty 20 12 0 14 #aca836 #ffffff 0;
#X obj 223 108 cnv 2 3 11 empty sl441009 empty 20 12 0 14 #a9ac36 #ffffff 0;
#X obj 228 113 cnv 2 3 6 empty sl451009 empty 20 12 0 14 #a4ac36 #ffffff 0;
#X obj 233 115 cnv 2 3 4 empty sl461009 empty 20 12 0 14 #a0ac36 #ffffff 0;
#X obj 238 119 cnv 2 3 1 empty sl471009 empty 20 12 0 14 #9fac36 #ffffff 0;
#X obj 243 119 cnv 2 3 2 empty sl481009 empty 20 12 0 14 #9aac36 #ffffff 0;
#X obj 248 119 cnv 2 3 12 empty sl491009 empty 20 12 0 14 #93ac36 #ffffff 0;
#X obj 253 119 cnv 2 3 16 empty sl501009 empty 20 12 0 14 #91ac36 #ffffff 0;
#X obj 258 119 cnv 2 3 22 empty sl511009 empty 20 12 0 14 #90ac36 #ffffff 0;
#X obj 263 119 cnv 2 3 28 empty sl521009 empty 20 12 0 14 #78ac36 #ffffff 0;
#X obj 268 119 cnv 2 3 32 empty sl531009 empty 20 12 0 14 #69ac36 #ffffff 0;
#X obj 273 119 cnv 2 3 37 empty sl541009 empty 20 12 0 14 #58a736 #ffffff 0;
#X obj 278 119 cnv 2 3 42 empty sl551009 empty 20 12 0 14 #4a9f36 #ffffff 0;
#X obj 283 119 cnv 2 3 46 empty sl561009 empty 20 12 0 14 #459b36 #ffffff 0;
#X obj 288 119 cnv 2 3 51 empty sl571009 empty 20 12 0 14 #2a6936 #ffffff 0;
#X obj 293 119 cnv 2 3 62 empty sl581009 empty 20 12 0 14 #1f6336 #ffffff 0;
#X obj 298 119 cnv 2 3 66 empty sl591009 empty 20 12 0 14 #1c5336 #ffffff 0;
#X obj 303 119 cnv 2 3 74 empty sl601009 empty 20 12 0 14 #194e36 #ffffff 0;
#X obj 308 119 cnv 2 3 79 empty sl611009 empty 20 12 0 14 #194a37 #ffffff 0;
#X obj 313 119 cnv 2 3 84 empty sl621009 empty 20 12 0 14 #193b38 #ffffff 0;
#X obj 318 119 cnv 2 3 91 empty sl631009 empty 20 12 0 14 #192c3a #ffffff 0;
#X obj 323 119 cnv 2 3 97 empty sl641009 empty 20 12 0 14 #312c3c #ffffff 0;
#X obj 328 119 cnv 2 3 101 empty sl651009 empty 20 12 0 14 #312c3e #ffffff 0;
#X obj 333 119 cnv 2 3 105 empty sl661009 empty 20 12 0 14 #312c4a #ffffff 0;
#X obj 338 119 cnv 2 3 109 empty sl671009 empty 20 12 0 14 #312c58 #ffffff 0;
#X obj 343 119 cnv 2 3 111 empty sl681009 empty 20 12 0 14 #312c5d #ffffff 0;
#X obj 348 119 cnv 2 3 111 empty sl691009 empty 20 12 0 14 #31406c #ffffff 0;
#X obj 353 119 cnv 2 3 111 empty sl701009 empty 20 12 0 14 #314aa2 #ffffff 0;
#X obj 358 119 cnv 2 3 109 empty sl711009 empty 20 12 0 14 #314ca7 #ffffff 0;
#X obj 363 119 cnv 2 3 109 empty sl721009 empty 20 12 0 14 #3152aa #ffffff 0;
#X obj 368 119 cnv 2 3 108 empty sl731009 empty 20 12 0 14 #3156ad #ffffff 0;
#X obj 373 119 cnv 2 3 107 empty sl741009 empty 20 12 0 14 #3159b2 #ffffff 0;
#X obj 378 119 cnv 2 3 103 empty sl751009 empty 20 12 0 14 #3160bf #ffffff 0;
#X obj 383 119 cnv 2 3 101 empty sl761009 empty 20 12 0 14 #3167bf #ffffff 0;
#X obj 388 119 cnv 2 3 98 empty sl771009 empty 20 12 0 14 #316fc2 #ffffff 0;
#X obj 393 119 cnv 2 3 96 empty sl781009 empty 20 12 0 14 #3173c3 #ffffff 0;
#X obj 398 119 cnv 2 3 94 empty sl791009 empty 20 12 0 14 #eb7bc9 #ffffff 0;
#X obj 403 119 cnv 2 3 92 empty sl801009 empty 20 12 0 14 #eb7dcb #ffffff 0;
#X obj 408 119 cnv 2 3 88 empty sl811009 empty 20 12 0 14 #eb7ecc #ffffff 0;
#X obj 413 119 cnv 2 3 85 empty sl821009 empty 20 12 0 14 #ebe4ce #ffffff 0;
#X obj 418 119 cnv 2 3 81 empty sl831009 empty 20 12 0 14 #ebe3ce #ffffff 0;
#X obj 423 119 cnv 2 3 89 empty sl841009 empty 20 12 0 14 #eb3dce #ffffff 0;
#X obj 428 119 cnv 2 3 78 empty sl851009 empty 20 12 0 14 #eb4ace #ffffff 0;
#X obj 433 119 cnv 2 3 76 empty sl861009 empty 20 12 0 14 #eb4ae6 #ffffff 0;
#X obj 438 119 cnv 2 3 72 empty sl871009 empty 20 12 0 14 #eb4ee6 #ffffff 0;
#X obj 443 119 cnv 2 3 69 empty sl881009 empty 20 12 0 14 #c453e6 #ffffff 0;
#X obj 448 119 cnv 2 3 67 empty sl891009 empty 20 12 0 14 #c456e6 #ffffff 0;
#X obj 453 119 cnv 2 3 60 empty sl901009 empty 20 12 0 14 #c457e6 #ffffff 0;
#X obj 458 119 cnv 2 3 57 empty sl911009 empty 20 12 0 14 #bf58e6 #ffffff 0;
#X obj 463 119 cnv 2 3 55 empty sl921009 empty 20 12 0 14 #bd45e6 #ffffff 0;
#X obj 468 119 cnv 2 3 47 empty sl931009 empty 20 12 0 14 #8031e6 #ffffff 0;
#X coords 0 0 1 1 472 241 2 0 0;
#X restore -1 -1 pd sliders_\$0;
#N canvas 0 50 380 410 construct 1;
#X msg 319 339 clear;
#X obj 19 109 loop;
#X obj 35 249 +;
#N canvas 0 50 450 300 calc-y-pos 0;
#X obj 39 269 outlet;
#X obj 139 99 / 2;
#X obj 39 69 select 0;
#X obj 39 179 f;
#X obj 79 109 b;
#X obj 199 169 f;
#X obj 209 29 r height_\$0;
#X obj 39 19 r uni_\$0;
#X connect 1 0 3 1 empty;
#X connect 2 0 3 0 empty;
#X connect 2 1 4 0 empty;
#X connect 3 0 0 0 empty;
#X connect 4 0 5 0 empty;
#X connect 5 0 0 0 empty;
#X connect 6 0 1 0 empty;
#X connect 6 0 5 1 empty;
#X connect 7 0 2 0 empty;
#X restore 81 249 pd calc-y-pos;
#X obj 19 163 t f f;
#X obj 189 249 -;
#X obj 129 119 swap;
#X obj 129 153 /;
#X obj 35 209 *;
#X msg 19 319 obj \$2 \$3 cnv 2 \$4 0 empty sl\$1\$5 empty 20 12 0 14 #ffffff #ffffff 0, f 33;
#X obj 149 89 r width_\$0;
#X obj 19 9 r n_\$0;
#X obj 81 219 r xoffset_\$0;
#X obj 210 219 r spacing_\$0;
#X obj 199 189 s slider_width_\$0;
#X obj 19 369 s pd-sliders_\$0;
#X obj 19 289 pack f f f f \$0;
#X text 349 388 <3;
#X text 99 18 fill the graph area with evenly spaced cnv objects;
#X obj 19 49 t f f b;
#X connect 0 0 15 0 32.................E....Ts+++eA....U6+++q.....;
#X connect 1 0 4 0 empty;
#X connect 2 0 16 1 empty;
#X connect 3 0 16 2 32.................G....P9++++A....j++++SA....;
#X connect 4 0 16 0 empty;
#X connect 4 1 8 0 32.................R....L....fD....C....PB....;
#X connect 5 0 16 3 32.................O....33++++C....N9+++SA....;
#X connect 6 0 7 0 empty;
#X connect 6 1 7 1 empty;
#X connect 7 0 8 1 32.................W....v5++++E....r9+++6B....;
#X connect 7 0 5 0 32.................l....vC...fI....7....vD....;
#X connect 7 0 14 0 32.................H....XD....B....FA....A....;
#X connect 8 0 2 0 empty;
#X connect 9 0 15 0 empty;
#X connect 10 0 6 1 empty;
#X connect 11 0 19 0 empty;
#X connect 12 0 2 1 32.................E....38+++eA....d++++q.....;
#X connect 13 0 5 1 empty;
#X connect 16 0 9 0 empty;
#X connect 19 0 1 0 empty;
#X connect 19 1 6 0 32.................Q.....F...PD....fA...HC....;
#X connect 19 2 0 0 32.................F....7P...fA....OD...3P....;
#X restore 509 159 pd construct;
#N canvas 0 50 450 300 resize 1;
#X msg 9 219 dim \$1 \$2;
#X obj 9 169 pack2;
#X obj 9 249 outlet;
#X obj 109 29 r height_\$0;
#X obj 9 29 r width_\$0;
#X msg 89 219 coords 0 0 1 1 \$1 \$2 2;
#X obj 139 119 + 2;
#X obj 89 119 + 2;
#X obj 89 249 s pd-sliders_\$0;
#X obj 89 169 pack2;
#X msg 239 219 coords 0 0 1 1 \$1 \$2 2;
#X obj 319 189 s bg\$0;
#X msg 319 159 vis_size \$1 \$2;
#X obj 239 249 s this\$1;
#X connect 0 0 2 0 empty;
#X connect 1 0 0 0 empty;
#X connect 3 0 1 1 empty;
#X connect 3 0 6 0 empty;
#X connect 4 0 1 0 empty;
#X connect 4 0 7 0 empty;
#X connect 5 0 8 0 empty;
#X connect 6 0 9 1 empty;
#X connect 7 0 9 0 empty;
#X connect 9 0 5 0 empty;
#X connect 9 0 10 0 empty;
#X connect 9 0 12 0 empty;
#X connect 10 0 13 0 empty;
#X connect 12 0 11 0 empty;
#X restore 9 -41 pd resize;
#N canvas 0 50 800 300 methods 1;
#X obj 200 259 s width_\$0;
#X obj 277 259 s height_\$0;
#X obj 137 259 s uni_\$0;
#X obj 84 259 s n_\$0;
#X obj 359 259 s spacing_\$0;
#X obj 9 9 inlet;
#X obj 44 109 max 1;
#X obj 450 259 s xoffset_\$0;
#X obj 309 109 t b f;
#X obj 259 109 t b f;
#X obj 99 109 t b f;
#X obj 149 109 t b f;
#X obj 44 189 f;
#X obj 137 213 f;
#X obj 199 109 t b b f;
#N canvas 0 50 710 395 args-and-savestate 1;
#X obj 439 189 args;
#X obj 249 159 savestate;
#X obj 249 369 outlet;
#X obj 89 9 r n_\$0;
#X obj 149 9 r uni_\$0;
#X obj 219 9 r width_\$0;
#X obj 299 9 r height_\$0;
#X obj 389 9 r spacing_\$0;
#X obj 419 39 r xoffset_\$0;
#X obj 298 369 outlet;
#X obj 347 369 outlet;
#X obj 396 369 outlet;
#X obj 445 369 outlet;
#X obj 494 369 outlet;
#X obj 249 199 t l b;
#X obj 295 189 list store;
#X obj 249 339 f;
#X obj 249 309 del 5;
#X obj 249 279 t b f;
#X obj 597 279 symbol #191919;
#X text -1 308 eat the argument if we have a savestate ->;
#X text -1 328 (prevents resizing the array to the default);
#X obj 549 369 outlet;
#X obj 602 369 outlet;
#X obj 655 369 outlet;
#X obj 499 129 r setbg_\$0;
#X obj 449 69 r hsl_\$0;
#X obj 479 99 r coloring_\$0;
#X obj 339 159 pack2 64 0 470 240 2 3 0 0 s;
#X obj 439 249 unpack s f f f f f f f f s;
#X obj 439 219 pack s 64 0 470 240 2 3 0 0 s;
#X obj 249 239 unpack f f f f f f f f s;
#X connect 0 0 30 0 empty;
#X connect 1 0 14 0 empty;
#X connect 1 1 15 0 empty;
#X connect 3 0 28 0 empty;
#X connect 4 0 28 1 empty;
#X connect 5 0 28 2 empty;
#X connect 6 0 28 3 empty;
#X connect 7 0 28 4 empty;
#X connect 8 0 28 5 empty;
#X connect 14 0 31 0 empty;
#X connect 14 1 0 0 empty;
#X connect 15 0 1 0 empty;
#X connect 16 0 2 0 empty;
#X connect 17 0 16 0 empty;
#X connect 18 0 17 0 empty;
#X connect 18 1 16 1 empty;
#X connect 19 0 24 0 empty;
#X connect 25 0 28 8 empty;
#X connect 26 0 28 6 empty;
#X connect 27 0 28 7 empty;
#X connect 28 0 15 1 empty;
#X connect 29 1 18 0 empty;
#X connect 29 2 9 0 empty;
#X connect 29 3 10 0 empty;
#X connect 29 4 11 0 empty;
#X connect 29 5 12 0 empty;
#X connect 29 6 13 0 empty;
#X connect 29 7 22 0 empty;
#X connect 29 8 23 0 empty;
#X connect 29 9 19 0 empty;
#X connect 30 0 29 0 empty;
#X connect 31 0 18 0 empty;
#X connect 31 1 9 0 empty;
#X connect 31 2 10 0 empty;
#X connect 31 3 11 0 empty;
#X connect 31 4 12 0 empty;
#X connect 31 5 13 0 empty;
#X connect 31 6 22 0 empty;
#X connect 31 7 23 0 empty;
#X connect 31 8 24 0 empty;
#X restore 599 79 pd args-and-savestate;
#X obj 9 259 s sync_\$0;
#X obj 44 229 t b f;
#X obj 604 259 s coloring_\$0;
#N canvas 0 50 462 373 color-sync 1;
#X obj 9 9 inlet;
#X obj 12 39 b;
#X obj 9 79 loop;
#X obj 9 339 s;
#X obj 69 39 r n_\$0;
#X obj 319 159 pack f \$0;
#X msg 319 299 symbol sl\$1\$2;
#X obj 9 159 tabread \$1-r;
#X obj 109 159 tabread \$1-g;
#X obj 209 159 tabread \$1-b;
#X obj 9 279 colors;
#X obj 9 209 pack f f f;
#X msg 9 309 color \$1;
#X obj 9 109 t f f f f;
#X text 59 8 loop through the sliders setting each one's color (from the color arrays);
#N canvas 0 50 450 300 rgbhsl 0;
#X obj 89 9 inlet;
#X obj 89 259 outlet;
#X msg 199 139 hsl \$1 \$2 \$3;
#X msg 89 139 rgb \$1 \$2 \$3;
#X obj 189 19 r hsl_\$0;
#X obj 89 79 router;
#X text 269 18 [hsl 1( reads the arrays as hsl;
#X connect 0 0 5 0 empty;
#X connect 2 0 1 0 empty;
#X connect 3 0 1 0 empty;
#X connect 4 0 5 1 empty;
#X connect 5 0 3 0 empty;
#X connect 5 1 2 0 empty;
#X restore 9 239 pd rgbhsl;
#X connect 0 0 1 0 empty;
#X connect 1 0 2 0 empty;
#X connect 2 0 13 0 empty;
#X connect 4 0 2 1 empty;
#X connect 5 0 6 0 empty;
#X connect 6 0 3 1 empty;
#X connect 7 0 11 0 empty;
#X connect 8 0 11 1 empty;
#X connect 9 0 11 2 empty;
#X connect 10 0 12 0 empty;
#X connect 11 0 15 0 empty;
#X connect 12 0 3 0 empty;
#X connect 13 0 7 0 empty;
#X connect 13 1 8 0 empty;
#X connect 13 2 9 0 empty;
#X connect 13 3 5 0 empty;
#X connect 15 0 10 0 empty;
#X restore 469 79 pd color-sync;
#X obj 539 259 s hsl_\$0;
#X obj 699 259 s setbg_\$0;
#X obj 9 39 route sync resize uni width height spacing xoffset hsl coloring bg colorsync, f 68;
#X connect 5 0 22 0 empty;
#X connect 6 0 12 0 empty;
#X connect 8 0 12 0 empty;
#X connect 8 1 7 0 empty;
#X connect 9 0 12 0 empty;
#X connect 9 1 4 0 empty;
#X connect 10 0 12 0 empty;
#X connect 10 1 13 0 empty;
#X connect 11 0 12 0 empty;
#X connect 11 1 0 0 empty;
#X connect 12 0 17 0 empty;
#X connect 13 0 2 0 empty;
#X connect 14 0 12 0 empty;
#X connect 14 1 13 0 empty;
#X connect 14 2 1 0 empty;
#X connect 15 0 12 0 empty;
#X connect 15 1 13 0 empty;
#X connect 15 2 0 0 empty;
#X connect 15 3 1 0 empty;
#X connect 15 4 4 0 empty;
#X connect 15 5 7 0 empty;
#X connect 15 6 20 0 empty;
#X connect 15 7 18 0 empty;
#X connect 15 8 21 0 empty;
#X connect 17 0 16 0 empty;
#X connect 17 1 3 0 empty;
#X connect 22 0 16 0 empty;
#X connect 22 1 6 0 empty;
#X connect 22 2 10 0 empty;
#X connect 22 3 11 0 empty;
#X connect 22 4 14 0 empty;
#X connect 22 5 9 0 empty;
#X connect 22 6 8 0 empty;
#X connect 22 7 20 0 empty;
#X connect 22 8 18 0 empty;
#X connect 22 9 21 0 empty;
#X connect 22 10 19 0 empty;
#X restore 149 309 pd methods;
#X obj 9 269 s pad_out_\$0;
#N canvas 0 50 520 440 move-slider 1;
#X obj 9 409 s;
#X obj 69 289 -;
#X msg 69 319 delta 0 \$1;
#X obj 129 249 * -1;
#X obj 69 259 t f f;
#X obj 130 197 moses 1;
#X msg 175 160 0;
#X obj 299 239 *;
#X obj 299 319 pack;
#X obj 150 319 pack;
#X msg 150 349 vis_size \$2 \$1;
#N canvas 0 50 450 300 set-pos 0;
#X obj 109 59 inlet;
#X obj 219 59 inlet;
#X obj 159 219 outlet;
#X msg 159 169 pos 468 119.5;
#X msg 219 109 set pos \$1 \$2;
#X text 389 278 moths;
#X connect 0 0 3 0 empty;
#X connect 1 0 4 0 empty;
#X connect 3 0 2 0 empty;
#X connect 4 0 3 0 empty;
#X restore 249 349 pd set-pos;
#X obj 299 279 +;
#X obj 120 96 * -1;
#X obj 399 159 f;
#X obj 399 189 t f f;
#X obj 120 66 *;
#X msg 409 349 symbol sl\$1\$2;
#X obj 129 29 r height_\$0;
#X obj 409 309 pack f \$0;
#X obj 409 129 r index_\$0;
#X obj 9 9 r yval_\$0;
#X obj 199 189 r slider_width_\$0;
#X obj 339 239 r xoffset_\$0;
#N canvas 0 50 450 300 calc-y-pos 0;
#X obj 39 269 outlet;
#X obj 139 99 / 2;
#X obj 39 69 select 0;
#X obj 39 179 f;
#X obj 79 109 b;
#X obj 159 169 f;
#X obj 219 19 r height_\$0;
#X obj 39 19 r uni_\$0;
#X connect 1 0 3 1 empty;
#X connect 2 0 3 0 empty;
#X connect 2 1 4 0 empty;
#X connect 3 0 0 0 empty;
#X connect 4 0 5 0 empty;
#X connect 5 0 0 0 empty;
#X connect 6 0 1 0 empty;
#X connect 6 0 5 1 empty;
#X connect 7 0 2 0 empty;
#X restore 339 279 pd calc-y-pos;
#X obj 199 279 -;
#X obj 209 239 r spacing_\$0;
#X text 479 408 :3;
#X text 239 18 scale and/or move [cnv] object \; index selects which one to move \; and y-value is the "slider" value;
#X obj 39 39 r uni_\$0;
#X obj 9 69 router;
#X obj 9 105 - 0.5;
#N canvas 0 50 450 400 set-color 0;
#X obj 19 9 inlet;
#X obj 19 79 spigot;
#X obj 89 9 r coloring_\$0;
#X obj 89 39 f;
#X obj 19 369 outlet;
#X obj 89 79 r index_\$0;
#X obj 19 199 tabread \$1-r;
#X obj 119 199 tabread \$1-g;
#X obj 219 199 tabread \$1-b;
#X obj 19 119 f;
#X obj 19 309 colors;
#X obj 19 149 t f f f;
#X obj 19 249 pack f f f;
#X msg 19 339 color \$1;
#X text 119 158 get the rgb color values of this slider from the color arrays;
#N canvas 0 50 450 300 rgbhsl 0;
#X obj 89 9 inlet;
#X obj 89 259 outlet;
#X msg 199 139 hsl \$1 \$2 \$3;
#X msg 89 139 rgb \$1 \$2 \$3;
#X obj 189 19 r hsl_\$0;
#X obj 89 79 router;
#X text 269 18 [hsl 1( reads the arrays as hsl;
#X connect 0 0 5 0 empty;
#X connect 2 0 1 0 empty;
#X connect 3 0 1 0 empty;
#X connect 4 0 5 1 empty;
#X connect 5 0 3 0 empty;
#X connect 5 1 2 0 empty;
#X restore 19 279 pd rgbhsl;
#X connect 0 0 1 0 empty;
#X connect 1 0 9 0 empty;
#X connect 2 0 3 0 empty;
#X connect 3 0 1 1 empty;
#X connect 5 0 9 1 empty;
#X connect 6 0 12 0 empty;
#X connect 7 0 12 1 empty;
#X connect 8 0 12 2 empty;
#X connect 9 0 11 0 empty;
#X connect 10 0 13 0 empty;
#X connect 11 0 6 0 empty;
#X connect 11 1 7 0 empty;
#X connect 11 2 8 0 empty;
#X connect 12 0 15 0 empty;
#X connect 13 0 4 0 empty;
#X connect 15 0 10 0 empty;
#X restore 9 209 pd set-color;
#X obj 120 124 t b f b b b;
#X connect 1 0 2 0 empty;
#X connect 2 0 0 0 empty;
#X connect 3 0 9 0 empty;
#X connect 4 0 1 1 empty;
#X connect 4 1 1 0 empty;
#X connect 5 0 4 0 empty;
#X connect 5 0 3 0 empty;
#X connect 5 1 9 0 empty;
#X connect 6 0 5 0 empty;
#X connect 7 0 12 0 empty;
#X connect 8 0 11 1 empty;
#X connect 9 0 10 0 empty;
#X connect 10 0 0 0 empty;
#X connect 11 0 0 0 empty;
#X connect 12 0 8 0 empty;
#X connect 13 0 33 0 empty;
#X connect 14 0 15 0 empty;
#X connect 15 0 7 0 empty;
#X connect 15 1 19 0 empty;
#X connect 16 0 13 0 empty;
#X connect 17 0 0 1 empty;
#X connect 18 0 16 1 empty;
#X connect 19 0 17 0 empty;
#X connect 20 0 14 1 empty;
#X connect 21 0 30 0 empty;
#X connect 22 0 25 0 empty;
#X connect 22 0 7 1 empty;
#X connect 23 0 12 1 empty;
#X connect 24 0 8 1 empty;
#X connect 25 0 9 1 empty;
#X connect 26 0 25 1 empty;
#X connect 29 0 30 1 empty;
#X connect 30 0 31 0 empty;
#X connect 30 1 16 0 empty;
#X connect 31 0 16 0 empty;
#X connect 32 0 0 0 empty;
#X connect 33 0 32 0 empty;
#X connect 33 1 5 0 empty;
#X connect 33 2 11 0 empty;
#X connect 33 3 6 0 empty;
#X connect 33 4 14 0 empty;
#X restore 509 129 pd move-slider;
#N canvas 0 50 380 384 draw 1;
#X obj 59 39 route click;
#X msg 299 249 resize \$1;
#X obj 249 179 /;
#X obj 108 69 unpack;
#X obj 59 169 /;
#X obj 59 99 spigot;
#X obj 249 299 int;
#X obj 59 9 r pad_out_\$0;
#X obj 29 349 s yval_\$0;
#X obj 269 349 s index_\$0;
#X obj 79 129 r height_\$0;
#X obj 279 109 r width_\$0;
#X obj 299 169 r n_\$0;
#X obj 249 259 *;
#X text 199 18 drawing on the pad \; and sending the result to the \; array and cnv objects;
#X obj 169 349 tabwrite \$1;
#X obj 299 279 s \$1;
#X obj 109 169 r uni_\$0;
#X obj 59 209 router;
#X obj 79 279 - 0.5;
#X obj 79 309 * 2;
#X connect 0 0 5 1 empty;
#X connect 0 1 3 0 empty;
#X connect 1 0 16 0 empty;
#X connect 2 0 13 0 empty;
#X connect 3 0 2 0 empty;
#X connect 3 1 5 0 empty;
#X connect 4 0 18 0 empty;
#X connect 5 0 4 0 empty;
#X connect 6 0 9 0 empty;
#X connect 6 0 15 1 empty;
#X connect 7 0 0 0 empty;
#X connect 10 0 4 1 empty;
#X connect 11 0 2 1 empty;
#X connect 12 0 1 0 empty;
#X connect 12 0 13 1 empty;
#X connect 13 0 6 0 empty;
#X connect 17 0 18 1 empty;
#X connect 18 0 19 0 empty;
#X connect 18 0 8 0 empty;
#X connect 18 1 8 0 empty;
#X connect 18 1 15 0 empty;
#X connect 19 0 20 0 empty;
#X connect 20 0 15 0 empty;
#X restore 509 99 pd draw;
#X obj 149 269 inlet;
#X text 509 278 amy universe - 2023 \; github.com/tomara-x;
#X obj 509 219 namecanvas this\$1;
#N canvas 0 50 330 340 sync 1;
#X obj 19 89 loop;
#X obj 59 49 r n_\$0;
#X obj 69 309 s yval_\$0;
#X obj 189 179 s index_\$0;
#X obj 19 129 t f f;
#X obj 19 179 tabread \$1;
#X obj 22 49 b;
#X obj 109 179 r uni_\$0;
#X obj 19 219 router;
#X obj 19 249 / 2;
#X obj 19 279 + 0.5;
#X text 139 8 loop the corresponding array \; (the array in the parent patch) \; and copy its contents to sliders \; this is triggered on creation \; and can be triggered using the \; "sync" message;
#X obj 19 9 r sync_\$0;
#X connect 0 0 4 0 empty;
#X connect 1 0 0 1 empty;
#X connect 4 0 5 0 empty;
#X connect 4 1 3 0 empty;
#X connect 5 0 8 0 empty;
#X connect 6 0 0 0 empty;
#X connect 7 0 8 1 empty;
#X connect 8 0 9 0 empty;
#X connect 8 1 2 0 empty;
#X connect 9 0 10 0 empty;
#X connect 10 0 2 0 empty;
#X connect 12 0 6 0 empty;
#X restore 509 189 pd sync;
#X obj 379 309 s index_\$0;
#X obj 379 269 inlet;
#X obj 239 269 inlet;
#N canvas 0 50 450 300 yval 1;
#X obj 159 29 inlet;
#X obj 209 229 s yval_\$0;
#X obj 217 61 r uni_\$0;
#X obj 177 91 router;
#X obj 139 189 + 0.5;
#X obj 146 146 / 2;
#X connect 0 0 3 0 empty;
#X connect 2 0 3 1 empty;
#X connect 3 0 5 0 empty;
#X connect 3 1 1 0 empty;
#X connect 4 0 1 0 empty;
#X connect 5 0 4 0 empty;
#X restore 239 309 pd yval;
#X obj 299 309 tabwrite \$1;
#N canvas 0 50 450 300 bg 1;
#X msg 139 119 color \$1;
#X obj 139 179 s bg\$0;
#X text 209 118 set background cnv color;
#X obj 139 69 symbol;
#X obj 139 29 r setbg_\$0;
#X connect 0 0 1 0 empty;
#X connect 3 0 0 0 empty;
#X connect 4 0 3 0 empty;
#X restore 509 69 pd bg;
#X connect 0 0 6 0 empty;
#X connect 4 0 0 0 empty;
#X connect 9 0 5 0 empty;
#X connect 14 0 13 0 empty;
#X connect 14 0 17 1 empty;
#X connect 15 0 16 0 empty;
#X connect 15 0 17 0 empty;
#X coords 0 0 1 1 472 241 2 0 0;
