#N canvas 827 239 527 327 12;
#X msg 9 39 n \$1;
#X obj 9 9 nbx 4 18 -1e+37 1e+37 0 1 empty empty empty 0 -8 0 10 #191919 #ffffff #ffffff 23 256;
#X msg 128 39 height \$1;
#X obj 128 9 nbx 4 18 -1e+37 1e+37 0 1 empty empty empty 0 -8 0 10 #191919 #ffffff #ffffff 240 256;
#X msg 209 39 uni \$1;
#X obj 209 9 tgl 25 1 empty empty empty 17 7 0 10 #191919 #ffffff #ffffff 0 1;
#X obj 58 9 nbx 4 18 -1e+37 1e+37 0 1 empty empty empty 0 -8 0 10 #191919 #ffffff #ffffff 470 256;
#X msg 58 39 width \$1;
#X msg 269 39 spacing \$1;
#X obj 269 9 nbx 4 18 -1e+37 1e+37 0 1 empty empty empty 0 -8 0 10 #191919 #ffffff #ffffff 2 256;
#X msg 529 39 rndclr;
#X msg 589 39 restore;
#X obj 439 9 tgl 25 1 empty empty empty 17 7 0 10 #191919 #ffffff #ffffff 1 1;
#X msg 439 39 coloring \$1;
#X msg 359 39 xoffset \$1;
#X obj 359 9 nbx 4 18 -1e+37 1e+37 0 1 empty empty empty 0 -8 0 10 #191919 #ffffff #ffffff 3 256;
#X obj 539 299 array define -k arr;
#A resize 23;
#A 0 0.441667 0.4 0.308333 0.175 0.0916667 -0.0416667 -0.15 -0.241667 -0.3 -0.316667 -0.316667 -0.266667 0.3 0.25 -0.475 -0.683333 0.8 0.833333 0.516667 -0.191667 -0.233333 0.633333 0.708333;
#X obj 9 79 slidarr arr;
#X connect 0 0 17 0 empty;
#X connect 1 0 0 0 empty;
#X connect 2 0 17 0 empty;
#X connect 3 0 2 0 empty;
#X connect 4 0 17 0 empty;
#X connect 5 0 4 0 empty;
#X connect 6 0 7 0 empty;
#X connect 7 0 17 0 empty;
#X connect 8 0 17 0 empty;
#X connect 9 0 8 0 empty;
#X connect 10 0 17 0 empty;
#X connect 11 0 17 0 empty;
#X connect 12 0 13 0 empty;
#X connect 13 0 17 0 empty;
#X connect 14 0 17 0 empty;
#X connect 15 0 14 0 empty;
#X connect 15 0 11 0 empty;
