#N canvas 827 239 520 420 12;
#X obj 1 1 pad 470 233 255 255 255;
#X obj -1 -1 cnv 15 472 235 empty bg\$0 empty 20 12 0 14 #191919 #ffffff 0;
#N canvas 0 50 380 410 construct 1;
#X msg 319 339 clear;
#X obj 19 109 loop;
#X obj 35 249 +;
#N canvas 0 50 450 300 calc-y-pos 1;
#X obj 39 269 outlet;
#X obj 139 99 / 2;
#X obj 39 69 select 0;
#X obj 39 179 f;
#X obj 79 109 b;
#X obj 159 169 f;
#X obj 319 39 r height_\$0;
#X obj 39 19 r uni_\$0;
#X connect 1 0 3 1 empty;
#X connect 2 0 3 0 empty;
#X connect 2 1 4 0 empty;
#X connect 3 0 0 0 empty;
#X connect 4 0 5 0 empty;
#X connect 5 0 0 0 empty;
#X connect 6 0 1 0 empty;
#X connect 6 0 5 1 empty;
#X connect 7 0 2 0 empty;
#X restore 81 249 pd calc-y-pos;
#X obj 19 163 t f f;
#X obj 189 249 -;
#X obj 129 119 swap;
#X obj 129 153 /;
#X obj 35 219 *;
#X obj 19 49 t f f b;
#X msg 19 319 obj \$2 \$3 cnv 2 \$4 0 empty sl\$1\$5 empty 20 12 0 14 #ffffff #ffffff 0, f 33;
#X obj 149 89 r width_\$0;
#X obj 19 19 r n_\$0;
#X obj 81 219 r xoffset_\$0;
#X obj 210 219 r spacing_\$0;
#X obj 199 189 s slider_width_\$0;
#X obj 19 369 s pd-sliders_\$0;
#X obj 19 289 pack f f f f \$0;
#X connect 0 0 16 0 32.................E....Ts+++eA....U6+++q.....;
#X connect 1 0 4 0 empty;
#X connect 2 0 17 1 empty;
#X connect 3 0 17 2 32.................J....n9+++uB....p++++SA....;
#X connect 4 0 17 0 empty;
#X connect 4 1 8 0 32.................R....L....fD....C....PB....;
#X connect 5 0 17 3 32.................O....33++++C....N9+++SA....;
#X connect 6 0 7 0 empty;
#X connect 6 1 7 1 empty;
#X connect 7 0 8 1 32.................W....v5++++E....r9+++6B....;
#X connect 7 0 5 0 32.................l....vC...fI....7....vD....;
#X connect 7 0 15 0 32.................H....XD....B....FA....A....;
#X connect 8 0 2 0 empty;
#X connect 9 0 1 0 empty;
#X connect 9 1 6 0 32.................Q.....F...PD....fA...HC....;
#X connect 9 2 0 0 32.................F....7P...fA....OD...3P....;
#X connect 10 0 16 0 empty;
#X connect 11 0 6 1 empty;
#X connect 12 0 9 0 empty;
#X connect 13 0 2 1 32.................E....38+++eA....d++++q.....;
#X connect 14 0 5 1 empty;
#X connect 17 0 10 0 empty;
#X restore 229 -51 pd construct;
#N canvas 0 50 450 300 resize 1;
#X msg 9 219 dim \$1 \$2;
#X obj 9 169 pack2;
#X obj 9 249 outlet;
#X obj 109 29 r height_\$0;
#X obj 9 29 r width_\$0;
#X msg 89 219 coords 0 0 1 1 \$1 \$2 2;
#X obj 139 119 + 2;
#X obj 89 119 + 2;
#X obj 89 249 s pd-sliders_\$0;
#X obj 89 169 pack2;
#X msg 239 219 coords 0 0 1 1 \$1 \$2 2;
#X obj 239 249 s \$1;
#X obj 319 189 s bg\$0;
#X msg 319 159 vis_size \$1 \$2;
#X connect 0 0 2 0 empty;
#X connect 1 0 0 0 empty;
#X connect 3 0 1 1 empty;
#X connect 3 0 6 0 empty;
#X connect 4 0 1 0 empty;
#X connect 4 0 7 0 empty;
#X connect 5 0 8 0 empty;
#X connect 6 0 9 1 empty;
#X connect 7 0 9 0 empty;
#X connect 9 0 5 0 empty;
#X connect 9 0 10 0 empty;
#X connect 9 0 13 0 empty;
#X connect 10 0 11 0 empty;
#X connect 13 0 12 0 empty;
#X restore -1 -41 pd resize;
#N canvas 0 50 450 300 methods 1;
#X obj 9 69 nbx 4 18 1 1e+37 0 1 empty empty empty 0 -8 0 10 #191919 #ffffff #ffffff 46 256;
#X obj 69 69 nbx 4 18 0 1e+37 0 1 empty empty empty 0 -8 0 10 #191919 #ffffff #ffffff 233 256;
#X obj 39 99 nbx 4 18 0 1e+37 0 1 empty empty empty 0 -8 0 10 #191919 #ffffff #ffffff 470 256;
#N canvas 0 50 450 300 rndclr 0;
#X obj 129 9 inlet;
#X obj 129 119 rand.i 0 360;
#X msg 129 159 hsl \$1 100 50;
#X obj 129 49 loop;
#X obj 129 79 t b f;
#X obj 129 259 s;
#X msg 129 219 color \$1;
#X obj 129 189 colors;
#X obj 279 9 r n_\$0;
#X obj 269 129 pack f \$0;
#X msg 269 179 symbol sl\$1\$2;
#X connect 0 0 3 0 empty;
#X connect 1 0 2 0 empty;
#X connect 2 0 7 0 empty;
#X connect 3 0 4 0 empty;
#X connect 4 0 1 0 empty;
#X connect 4 1 9 0 empty;
#X connect 6 0 5 0 empty;
#X connect 7 0 6 0 empty;
#X connect 8 0 3 1 empty;
#X connect 9 0 10 0 empty;
#X connect 10 0 5 1 empty;
#X restore 277 89 pd rndclr;
#X obj 99 99 nbx 4 18 0 1 0 1 empty empty empty 0 -8 0 10 #191919 #ffffff #ffffff 0 256;
#X obj 239 109 s coloring_\$0;
#X obj 55 239 s width_\$0;
#X obj 130 239 s height_\$0;
#X obj 210 239 s uni_\$0;
#X obj 4 239 s n_\$0;
#X obj 199 79 nbx 4 18 0 1e+37 0 1 empty empty empty 0 -8 0 10 #191919 #ffffff #ffffff 2 256;
#X obj 149 69 nbx 4 18 0 1e+37 0 1 empty empty empty 0 -8 0 10 #191919 #ffffff #ffffff 2 256;
#X obj 271 239 s spacing_\$0;
#X obj 359 239 s xoffset_&0;
#X obj 359 79 nbx 4 18 0 1e+37 0 0 empty empty empty 0 -8 0 10 #191919 #ffffff #ffffff 0 256;
#X obj 359 19 nbx 4 18 -1e+37 1e+37 0 0 empty empty empty 0 -8 0 10 #191919 #ffffff #ffffff 0 256;
#X obj 359 109 s index_\$0;
#X obj 359 49 s yval_\$0;
#X obj 9 39 route n width height uni spacing xoffset coloring rndclr;
#X obj 9 159 hot 6;
#X obj 9 9 inlet;
#X connect 0 0 19 0 empty;
#X connect 1 0 19 2 empty;
#X connect 2 0 19 1 empty;
#X connect 4 0 19 3 empty;
#X connect 10 0 19 5 empty;
#X connect 11 0 19 4 empty;
#X connect 14 0 16 0 empty;
#X connect 15 0 17 0 empty;
#X connect 18 0 0 0 empty;
#X connect 18 1 2 0 empty;
#X connect 18 2 1 0 empty;
#X connect 18 3 4 0 empty;
#X connect 18 4 11 0 empty;
#X connect 18 5 10 0 empty;
#X connect 18 6 5 0 empty;
#X connect 18 7 3 0 empty;
#X connect 19 0 9 0 empty;
#X connect 19 1 6 0 empty;
#X connect 19 2 7 0 empty;
#X connect 19 3 8 0 empty;
#X connect 19 4 12 0 empty;
#X connect 19 5 13 0 empty;
#X connect 20 0 18 0 empty;
#X restore 109 -51 pd methods;
#X obj -1 239 s pad_out_\$0;
#N canvas 0 50 520 440 move-slider 1;
#X obj 9 409 s;
#X obj 9 259 -;
#X msg 9 289 delta 0 \$1;
#X obj 80 234 * -1;
#X obj 9 229 t f f;
#X obj 80 197 moses 1;
#X msg 125 160 0;
#X obj 269 239 *;
#X obj 269 319 pack;
#X obj 80 319 pack;
#X msg 80 349 vis_size \$2 \$1;
#N canvas 0 50 450 300 set-pos 1;
#X obj 109 59 inlet;
#X obj 219 59 inlet;
#X obj 159 219 outlet;
#X msg 159 169 pos 136.826 116;
#X msg 219 109 set pos \$1 \$2;
#X connect 0 0 3 0 empty;
#X connect 1 0 4 0 empty;
#X connect 3 0 2 0 empty;
#X connect 4 0 3 0 empty;
#X restore 199 349 pd set-pos;
#X obj 269 279 +;
#X obj 80 92 * -1;
#X obj 399 159 f;
#X obj 399 189 t f f;
#X obj 80 124 t f b b b;
#X obj 79 59 *;
#X msg 409 349 symbol sl\$1\$2;
#X obj 109 9 r height_\$0;
#X obj 409 309 pack f \$0;
#X obj 409 129 r index_\$0;
#X obj 39 9 r yval_\$0;
#X obj 159 199 r slider_width_\$0;
#X obj 309 239 r xoffset_\$0;
#N canvas 0 50 450 300 calc-y-pos 1;
#X obj 39 269 outlet;
#X obj 139 99 / 2;
#X obj 39 69 select 0;
#X obj 39 179 f;
#X obj 79 109 b;
#X obj 159 169 f;
#X obj 319 39 r height_\$0;
#X obj 39 19 r uni_\$0;
#X connect 1 0 3 1 empty;
#X connect 2 0 3 0 empty;
#X connect 2 1 4 0 empty;
#X connect 3 0 0 0 empty;
#X connect 4 0 5 0 empty;
#X connect 5 0 0 0 empty;
#X connect 6 0 1 0 empty;
#X connect 6 0 5 1 empty;
#X connect 7 0 2 0 empty;
#X restore 309 279 pd calc-y-pos;
#X obj 119 279 -;
#X obj 169 239 r spacing_\$0;
#X connect 1 0 2 0 empty;
#X connect 2 0 0 0 empty;
#X connect 3 0 9 0 empty;
#X connect 4 0 1 1 empty;
#X connect 4 1 1 0 empty;
#X connect 5 0 4 0 empty;
#X connect 5 0 3 0 empty;
#X connect 5 1 9 0 empty;
#X connect 6 0 5 0 empty;
#X connect 7 0 12 0 empty;
#X connect 8 0 11 1 empty;
#X connect 9 0 10 0 empty;
#X connect 10 0 0 0 empty;
#X connect 11 0 0 0 empty;
#X connect 12 0 8 0 empty;
#X connect 13 0 16 0 empty;
#X connect 14 0 15 0 empty;
#X connect 15 0 7 0 empty;
#X connect 15 1 20 0 empty;
#X connect 16 0 5 0 empty;
#X connect 16 1 11 0 empty;
#X connect 16 2 6 0 empty;
#X connect 16 3 14 0 empty;
#X connect 17 0 13 0 empty;
#X connect 18 0 0 1 empty;
#X connect 19 0 17 1 empty;
#X connect 20 0 18 0 empty;
#X connect 21 0 14 1 empty;
#X connect 22 0 17 0 empty;
#X connect 23 0 26 0 empty;
#X connect 23 0 7 1 empty;
#X connect 24 0 12 1 empty;
#X connect 25 0 8 1 empty;
#X connect 26 0 9 1 empty;
#X connect 27 0 26 1 empty;
#X restore 229 -81 pd move-slider;
#N canvas 0 50 380 384 draw 1;
#X obj 59 39 route click;
#X msg 289 249 resize \$1;
#X obj 199 179 /;
#X obj 108 69 unpack;
#X obj 59 179 /;
#X obj 59 99 spigot;
#X obj 49 259 - 0.5;
#X obj 199 299 int;
#X obj 59 9 r pad_out_\$0;
#X obj 49 359 s yval_\$0;
#X obj 219 349 s index_\$0;
#X obj 79 139 r height_\$0;
#X obj 229 109 r width_\$0;
#X obj 109 179 r uni_\$0;
#X obj 289 169 r n_\$0;
#X obj 109 229 router;
#X obj 69 299 * 2;
#X obj 199 259 *;
#X obj 119 339 tabwrite a\$1;
#X obj 289 279 s a\$1;
#X connect 0 0 5 1 empty;
#X connect 0 1 3 0 empty;
#X connect 1 0 19 0 empty;
#X connect 2 0 17 0 empty;
#X connect 3 0 2 0 empty;
#X connect 3 1 5 0 empty;
#X connect 4 0 15 0 empty;
#X connect 5 0 4 0 empty;
#X connect 6 0 9 0 empty;
#X connect 6 0 16 0 empty;
#X connect 7 0 10 0 empty;
#X connect 7 0 18 1 empty;
#X connect 8 0 0 0 empty;
#X connect 11 0 4 1 empty;
#X connect 12 0 2 1 empty;
#X connect 13 0 15 1 empty;
#X connect 14 0 1 0 empty;
#X connect 14 0 17 1 empty;
#X connect 15 0 6 0 empty;
#X connect 15 1 9 0 empty;
#X connect 15 1 18 0 empty;
#X connect 16 0 18 0 empty;
#X connect 17 0 7 0 empty;
#X restore 229 -111 pd draw;
#N canvas 0 50 450 300 sliders_\$0 1;
#X obj 0 116 cnv 2 8 1 empty sl01051 empty 20 12 0 14 #ffffff #ffffff 0;
#X obj 10 116 cnv 2 8 1 empty sl11051 empty 20 12 0 14 #ffffff #ffffff 0;
#X obj 20 116 cnv 2 8 1 empty sl21051 empty 20 12 0 14 #ffffff #ffffff 0;
#X obj 30 116 cnv 2 8 1 empty sl31051 empty 20 12 0 14 #ffffff #ffffff 0;
#X obj 40 116 cnv 2 8 1 empty sl41051 empty 20 12 0 14 #ffffff #ffffff 0;
#X obj 51 116 cnv 2 8 1 empty sl51051 empty 20 12 0 14 #ffffff #ffffff 0;
#X obj 61 116 cnv 2 8 1 empty sl61051 empty 20 12 0 14 #ffffff #ffffff 0;
#X obj 75 116 cnv 2 8 32 empty sl71051 empty 20 12 0 14 #ffffff #ffffff 0;
#X obj 85 116 cnv 2 8 40 empty sl81051 empty 20 12 0 14 #ffffff #ffffff 0;
#X obj 95 118 cnv 2 8 41 empty sl91051 empty 20 12 0 14 #ffffff #ffffff 0;
#X obj 106 116 cnv 2 8 45 empty sl101051 empty 20 12 0 14 #ffffff #ffffff 0;
#X obj 116 116 cnv 2 8 53 empty sl111051 empty 20 12 0 14 #ffffff #ffffff 0;
#X obj 126 117 cnv 2 8 81 empty sl121051 empty 20 12 0 14 #ffffff #ffffff 0;
#X obj 136 56 cnv 2 8 60 empty sl131051 empty 20 12 0 14 #ffffff #ffffff 0;
#X obj 147 53 cnv 2 8 63 empty sl141051 empty 20 12 0 14 #ffffff #ffffff 0;
#X obj 157 52 cnv 2 8 64 empty sl151051 empty 20 12 0 14 #ffffff #ffffff 0;
#X obj 167 52 cnv 2 8 64 empty sl161051 empty 20 12 0 14 #ffffff #ffffff 0;
#X obj 177 53 cnv 2 8 63 empty sl171051 empty 20 12 0 14 #ffffff #ffffff 0;
#X obj 187 54 cnv 2 8 62 empty sl181051 empty 20 12 0 14 #ffffff #ffffff 0;
#X obj 198 59 cnv 2 8 57 empty sl191051 empty 20 12 0 14 #ffffff #ffffff 0;
#X obj 208 63 cnv 2 8 53 empty sl201051 empty 20 12 0 14 #ffffff #ffffff 0;
#X obj 218 67 cnv 2 8 49 empty sl211051 empty 20 12 0 14 #ffffff #ffffff 0;
#X obj 228 72 cnv 2 8 44 empty sl221051 empty 20 12 0 14 #ffffff #ffffff 0;
#X obj 239 77 cnv 2 8 39 empty sl231051 empty 20 12 0 14 #ffffff #ffffff 0;
#X obj 249 85 cnv 2 8 31 empty sl241051 empty 20 12 0 14 #ffffff #ffffff 0;
#X obj 259 91 cnv 2 8 25 empty sl251051 empty 20 12 0 14 #ffffff #ffffff 0;
#X obj 269 104 cnv 2 8 12 empty sl261051 empty 20 12 0 14 #ffffff #ffffff 0;
#X obj 279 112 cnv 2 8 4 empty sl271051 empty 20 12 0 14 #ffffff #ffffff 0;
#X obj 290 116 cnv 2 8 2 empty sl281051 empty 20 12 0 14 #ffffff #ffffff 0;
#X obj 300 116 cnv 2 8 19 empty sl291051 empty 20 12 0 14 #ffffff #ffffff 0;
#X obj 310 116 cnv 2 8 38 empty sl301051 empty 20 12 0 14 #ffffff #ffffff 0;
#X obj 320 116 cnv 2 8 48 empty sl311051 empty 20 12 0 14 #ffffff #ffffff 0;
#X obj 330 116 cnv 2 8 58 empty sl321051 empty 20 12 0 14 #ffffff #ffffff 0;
#X obj 341 116 cnv 2 8 64 empty sl331051 empty 20 12 0 14 #ffffff #ffffff 0;
#X obj 351 116 cnv 2 8 63 empty sl341051 empty 20 12 0 14 #ffffff #ffffff 0;
#X obj 361 116 cnv 2 8 56 empty sl351051 empty 20 12 0 14 #ffffff #ffffff 0;
#X obj 371 116 cnv 2 8 51 empty sl361051 empty 20 12 0 14 #ffffff #ffffff 0;
#X obj 382 116 cnv 2 8 42 empty sl371051 empty 20 12 0 14 #ffffff #ffffff 0;
#X obj 392 116 cnv 2 8 35 empty sl381051 empty 20 12 0 14 #ffffff #ffffff 0;
#X obj 402 116 cnv 2 8 22 empty sl391051 empty 20 12 0 14 #ffffff #ffffff 0;
#X obj 412 57 cnv 2 8 59 empty sl401051 empty 20 12 0 14 #ffffff #ffffff 0;
#X obj 422 61 cnv 2 8 55 empty sl411051 empty 20 12 0 14 #ffffff #ffffff 0;
#X obj 433 116 cnv 2 8 93 empty sl421051 empty 20 12 0 14 #ffffff #ffffff 0;
#X obj 439 116 cnv 2 8 1 empty sl431051 empty 20 12 0 14 #ffffff #ffffff 0;
#X obj 449 116 cnv 2 8 1 empty sl441051 empty 20 12 0 14 #ffffff #ffffff 0;
#X obj 459 116 cnv 2 8 1 empty sl451051 empty 20 12 0 14 #ffffff #ffffff 0;
#X coords 0 0 1 1 472 235 2 0 0;
#X restore -1 -1 pd sliders_\$0;
#N canvas 0 50 450 300 color 1;
#X msg 129 169 hsl \$1 100 50;
#X msg 129 229 color \$1;
#X obj 129 199 colors;
#X obj 129 109 * 360;
#X obj 129 139 mod 360;
#X obj 129 19 r yval_\$0;
#X obj 129 79 spigot;
#X obj 159 49 r coloring_\$0;
#X obj 129 259 s;
#X msg 259 229 symbol sl\$1\$2;
#X obj 259 199 pack f \$0;
#X obj 259 169 r index_\$0;
#X connect 0 0 2 0 empty;
#X connect 1 0 8 0 empty;
#X connect 2 0 1 0 empty;
#X connect 3 0 4 0 empty;
#X connect 4 0 0 0 empty;
#X connect 5 0 6 0 empty;
#X connect 6 0 3 0 empty;
#X connect 7 0 6 1 empty;
#X connect 9 0 8 1 empty;
#X connect 10 0 9 0 empty;
#X connect 11 0 10 0 empty;
#X restore 229 -141 pd color;
#X obj 369 239 namecanvas \$1;
#X obj 109 -81 inlet;
#N canvas 0 50 450 300 restore-from-arr 1;
#X obj 129 9 loadbang;
#X obj 129 39 loop;
#X obj 219 9 r n_\$0;
#X obj 129 109 tabread a\$1;
#X obj 159 259 s yval_\$0;
#X obj 269 109 s index_\$0;
#X obj 129 69 t f f;
#X obj 129 219 / 2;
#X obj 159 139 r uni_\$0;
#X obj 129 169 router;
#X connect 0 0 1 0 empty;
#X connect 1 0 6 0 empty;
#X connect 2 0 1 1 empty;
#X connect 3 0 9 0 empty;
#X connect 6 0 3 0 empty;
#X connect 6 1 5 0 empty;
#X connect 7 0 4 0 empty;
#X connect 8 0 9 1 empty;
#X connect 9 0 7 0 empty;
#X connect 9 1 4 0 empty;
#X restore 329 -51 pd restore-from-arr;
#X connect 0 0 5 0 empty;
#X connect 3 0 0 0 empty;
#X connect 11 0 4 0 empty;
#X coords 0 0 1 1 472 235 2 0 0;
