#N canvas 827 239 520 420 12;
#N canvas 0 50 450 300 arr_subpatch_\$0 1;
#N canvas 0 50 450 300 arr-graph_\$0 0;
#X array \$1 76 float 2;
#X coords 0 1 100 -1 514 258 1;
#X restore -1 -1 pd arr-graph_\$0;
#X coords 0 1 100 -1 514 258 2 0 0;
#X restore -1 -1 pd arr_subpatch_\$0;
#X obj -1 -1 cnv 15 514 258 empty bg\$0 empty 20 12 0 14 #191919 #ffffff 0;
#N canvas 0 50 450 300 sliders_\$0 1;
#X obj 3 19 cnv 2 2 109 empty sl01060 empty 20 12 0 14 #5bcefa #ffffff 0;
#X obj 9 128 cnv 2 2 1 empty sl11060 empty 20 12 0 14 #5bcefa #ffffff 0;
#X obj 16 128 cnv 2 2 1 empty sl21060 empty 20 12 0 14 #5bcefa #ffffff 0;
#X obj 23 128 cnv 2 2 1 empty sl31060 empty 20 12 0 14 #5bcefa #ffffff 0;
#X obj 29 128 cnv 2 2 1 empty sl41060 empty 20 12 0 14 #5bcefa #ffffff 0;
#X obj 36 128 cnv 2 2 1 empty sl51060 empty 20 12 0 14 #5bcefa #ffffff 0;
#X obj 43 63 cnv 2 2 65 empty sl61060 empty 20 12 0 14 #5bcefa #ffffff 0;
#X obj 50 61 cnv 2 2 67 empty sl71060 empty 20 12 0 14 #5bcefa #ffffff 0;
#X obj 56 56 cnv 2 2 72 empty sl81060 empty 20 12 0 14 #5bcefa #ffffff 0;
#X obj 63 54 cnv 2 2 74 empty sl91060 empty 20 12 0 14 #5bcefa #ffffff 0;
#X obj 70 49 cnv 2 2 79 empty sl101060 empty 20 12 0 14 #5bcefa #ffffff 0;
#X obj 77 47 cnv 2 2 81 empty sl111060 empty 20 12 0 14 #5bcefa #ffffff 0;
#X obj 83 47 cnv 2 2 81 empty sl121060 empty 20 12 0 14 #5bcefa #ffffff 0;
#X obj 90 48 cnv 2 2 80 empty sl131060 empty 20 12 0 14 #5bcefa #ffffff 0;
#X obj 97 51 cnv 2 2 77 empty sl141060 empty 20 12 0 14 #5bcefa #ffffff 0;
#X obj 104 55 cnv 2 2 73 empty sl151060 empty 20 12 0 14 #5bcefa #ffffff 0;
#X obj 110 63 cnv 2 2 65 empty sl161060 empty 20 12 0 14 #5bcefa #ffffff 0;
#X obj 117 67 cnv 2 2 61 empty sl171060 empty 20 12 0 14 #ffffff #ffffff 0;
#X obj 124 116 cnv 2 2 12 empty sl181060 empty 20 12 0 14 #ffffff #ffffff 0;
#X obj 131 125 cnv 2 2 3 empty sl191060 empty 20 12 0 14 #ffffff #ffffff 0;
#X obj 137 125 cnv 2 2 3 empty sl201060 empty 20 12 0 14 #ffffff #ffffff 0;
#X obj 144 125 cnv 2 2 3 empty sl211060 empty 20 12 0 14 #ffffff #ffffff 0;
#X obj 151 124 cnv 2 2 4 empty sl221060 empty 20 12 0 14 #ffffff #ffffff 0;
#X obj 157 124 cnv 2 2 4 empty sl231060 empty 20 12 0 14 #ffffff #ffffff 0;
#X obj 164 123 cnv 2 2 5 empty sl241060 empty 20 12 0 14 #ffffff #ffffff 0;
#X obj 171 122 cnv 2 2 6 empty sl251060 empty 20 12 0 14 #ffffff #ffffff 0;
#X obj 178 121 cnv 2 2 7 empty sl261060 empty 20 12 0 14 #ffffff #ffffff 0;
#X obj 184 119 cnv 2 2 9 empty sl271060 empty 20 12 0 14 #ffffff #ffffff 0;
#X obj 191 116 cnv 2 2 12 empty sl281060 empty 20 12 0 14 #ffffff #ffffff 0;
#X obj 198 109 cnv 2 2 19 empty sl291060 empty 20 12 0 14 #ffffff #ffffff 0;
#X obj 205 102 cnv 2 2 26 empty sl301060 empty 20 12 0 14 #ffffff #ffffff 0;
#X obj 211 96 cnv 2 2 32 empty sl311060 empty 20 12 0 14 #ffffff #ffffff 0;
#X obj 218 89 cnv 2 2 39 empty sl321060 empty 20 12 0 14 #ffffff #ffffff 0;
#X obj 225 81 cnv 2 2 47 empty sl331060 empty 20 12 0 14 #ffffff #ffffff 0;
#X obj 232 76 cnv 2 2 52 empty sl341060 empty 20 12 0 14 #ffffff #ffffff 0;
#X obj 238 69 cnv 2 2 59 empty sl351060 empty 20 12 0 14 #ffffff #ffffff 0;
#X obj 245 69 cnv 2 2 59 empty sl361060 empty 20 12 0 14 #ffffff #ffffff 0;
#X obj 252 69 cnv 2 2 59 empty sl371060 empty 20 12 0 14 #ffffff #ffffff 0;
#X obj 259 72 cnv 2 2 56 empty sl381060 empty 20 12 0 14 #ffffff #ffffff 0;
#X obj 265 78 cnv 2 2 50 empty sl391060 empty 20 12 0 14 #ffffff #ffffff 0;
#X obj 272 85 cnv 2 2 43 empty sl401060 empty 20 12 0 14 #ffffff #ffffff 0;
#X obj 279 97 cnv 2 2 31 empty sl411060 empty 20 12 0 14 #ffffff #ffffff 0;
#X obj 285 128 cnv 2 2 1 empty sl421060 empty 20 12 0 14 #ffffff #ffffff 0;
#X obj 292 128 cnv 2 2 1 empty sl431060 empty 20 12 0 14 #ffffff #ffffff 0;
#X obj 299 128 cnv 2 2 1 empty sl441060 empty 20 12 0 14 #ffffff #ffffff 0;
#X obj 306 128 cnv 2 2 1 empty sl451060 empty 20 12 0 14 #ffffff #ffffff 0;
#X obj 312 128 cnv 2 2 1 empty sl461060 empty 20 12 0 14 #ffffff #ffffff 0;
#X obj 319 128 cnv 2 2 1 empty sl471060 empty 20 12 0 14 #ffffff #ffffff 0;
#X obj 326 128 cnv 2 2 1 empty sl481060 empty 20 12 0 14 #ffffff #ffffff 0;
#X obj 333 128 cnv 2 2 1 empty sl491060 empty 20 12 0 14 #ffffff #ffffff 0;
#X obj 339 128 cnv 2 2 1 empty sl501060 empty 20 12 0 14 #ffffff #ffffff 0;
#X obj 346 128 cnv 2 2 1 empty sl511060 empty 20 12 0 14 #ffffff #ffffff 0;
#X obj 353 128 cnv 2 2 1 empty sl521060 empty 20 12 0 14 #ffffff #ffffff 0;
#X obj 360 128 cnv 2 2 1 empty sl531060 empty 20 12 0 14 #ffffff #ffffff 0;
#X obj 366 128 cnv 2 2 1 empty sl541060 empty 20 12 0 14 #ffffff #ffffff 0;
#X obj 373 128 cnv 2 2 1 empty sl551060 empty 20 12 0 14 #ffffff #ffffff 0;
#X obj 380 128 cnv 2 2 1 empty sl561060 empty 20 12 0 14 #ffffff #ffffff 0;
#X obj 387 128 cnv 2 2 1 empty sl571060 empty 20 12 0 14 #ffffff #ffffff 0;
#X obj 393 128 cnv 2 2 1 empty sl581060 empty 20 12 0 14 #ffffff #ffffff 0;
#X obj 400 128 cnv 2 2 1 empty sl591060 empty 20 12 0 14 #ffffff #ffffff 0;
#X obj 407 128 cnv 2 2 1 empty sl601060 empty 20 12 0 14 #ffffff #ffffff 0;
#X obj 413 128 cnv 2 2 1 empty sl611060 empty 20 12 0 14 #ffffff #ffffff 0;
#X obj 420 128 cnv 2 2 1 empty sl621060 empty 20 12 0 14 #ffffff #ffffff 0;
#X obj 427 128 cnv 2 2 1 empty sl631060 empty 20 12 0 14 #ffffff #ffffff 0;
#X obj 434 128 cnv 2 2 1 empty sl641060 empty 20 12 0 14 #ffffff #ffffff 0;
#X obj 440 128 cnv 2 2 1 empty sl651060 empty 20 12 0 14 #ffffff #ffffff 0;
#X obj 447 128 cnv 2 2 1 empty sl661060 empty 20 12 0 14 #ffffff #ffffff 0;
#X obj 454 128 cnv 2 2 1 empty sl671060 empty 20 12 0 14 #ffffff #ffffff 0;
#X obj 461 128 cnv 2 2 1 empty sl681060 empty 20 12 0 14 #ffffff #ffffff 0;
#X obj 467 128 cnv 2 2 1 empty sl691060 empty 20 12 0 14 #ffffff #ffffff 0;
#X obj 474 128 cnv 2 2 1 empty sl701060 empty 20 12 0 14 #ffffff #ffffff 0;
#X obj 481 128 cnv 2 2 1 empty sl711060 empty 20 12 0 14 #ffffff #ffffff 0;
#X obj 488 128 cnv 2 2 1 empty sl721060 empty 20 12 0 14 #ffffff #ffffff 0;
#X obj 494 128 cnv 2 2 1 empty sl731060 empty 20 12 0 14 #ffffff #ffffff 0;
#X obj 501 128 cnv 2 2 1 empty sl741060 empty 20 12 0 14 #ffffff #ffffff 0;
#X obj 508 128 cnv 2 2 1 empty sl751060 empty 20 12 0 14 #ffffff #ffffff 0;
#X coords 0 0 1 1 514 258 2 0 0;
#X restore 0 0 pd sliders_\$0;
#N canvas 0 50 380 410 construct 1;
#X msg 319 339 clear;
#X obj 19 109 loop;
#X obj 35 249 +;
#N canvas 0 50 450 300 calc-y-pos 0;
#X obj 39 269 outlet;
#X obj 139 99 / 2;
#X obj 39 69 select 0;
#X obj 39 179 f;
#X obj 79 109 b;
#X obj 199 169 f;
#X obj 209 29 r height_\$0;
#X obj 39 19 r uni_\$0;
#X connect 1 0 3 1 empty;
#X connect 2 0 3 0 empty;
#X connect 2 1 4 0 empty;
#X connect 3 0 0 0 empty;
#X connect 4 0 5 0 empty;
#X connect 5 0 0 0 empty;
#X connect 6 0 1 0 empty;
#X connect 6 0 5 1 empty;
#X connect 7 0 2 0 empty;
#X restore 81 249 pd calc-y-pos;
#X obj 19 163 t f f;
#X obj 189 249 -;
#X obj 129 119 swap;
#X obj 129 153 /;
#X obj 35 209 *;
#X msg 19 319 obj \$2 \$3 cnv 2 \$4 0 empty sl\$1\$5 empty 20 12 0 14 #ffffff #ffffff 0, f 33;
#X obj 149 89 r width_\$0;
#X obj 19 9 r n_\$0;
#X obj 81 219 r xoffset_\$0;
#X obj 210 219 r spacing_\$0;
#X obj 199 189 s slider_width_\$0;
#X obj 19 369 s pd-sliders_\$0;
#X obj 19 289 pack f f f f \$0;
#X text 349 388 <3;
#X text 99 18 fill the graph area with evenly spaced cnv objects;
#X obj 19 49 t f f b;
#X connect 0 0 15 0 32.................E....Ts+++eA....U6+++q.....;
#X connect 1 0 4 0 empty;
#X connect 2 0 16 1 empty;
#X connect 3 0 16 2 32.................G....P9++++A....j++++SA....;
#X connect 4 0 16 0 empty;
#X connect 4 1 8 0 32.................R....L....fD....C....PB....;
#X connect 5 0 16 3 32.................O....33++++C....N9+++SA....;
#X connect 6 0 7 0 empty;
#X connect 6 1 7 1 empty;
#X connect 7 0 8 1 32.................W....v5++++E....r9+++6B....;
#X connect 7 0 5 0 32.................l....vC...fI....7....vD....;
#X connect 7 0 14 0 32.................H....XD....B....FA....A....;
#X connect 8 0 2 0 empty;
#X connect 9 0 15 0 empty;
#X connect 10 0 6 1 empty;
#X connect 11 0 19 0 empty;
#X connect 12 0 2 1 32.................E....38+++eA....d++++q.....;
#X connect 13 0 5 1 empty;
#X connect 16 0 9 0 empty;
#X connect 19 0 1 0 empty;
#X connect 19 1 6 0 32.................Q.....F...PD....fA...HC....;
#X connect 19 2 0 0 32.................F....7P...fA....OD...3P....;
#X restore 539 209 pd construct;
#N canvas 0 50 450 300 resize 1;
#X obj 109 29 r height_\$0;
#X obj 9 29 r width_\$0;
#X msg 189 219 coords 0 0 1 1 \$1 \$2 2;
#X obj 79 119 + 2;
#X obj 29 119 + 2;
#X obj 189 249 s pd-sliders_\$0;
#X msg 339 219 coords 0 0 1 1 \$1 \$2 2;
#X obj 489 249 s bg\$0;
#X msg 489 219 vis_size \$1 \$2;
#X obj 339 249 s this\$1;
#X text 189 278 the graph (with the sliders);
#X text 339 168 the bounds of the abstraction itself;
#X text 489 278 the background cnv object;
#X obj 209 429 s pd-arr-graph_\$0;
#X obj 29 429 s pd-arr_subpatch_\$0;
#X text 19 468 the underlying array \, i put it inside a subpatch so it updates (future plugdata might not need this), f 40;
#X obj 159 69 r uni_\$0;
#X obj 159 99 select 0;
#X msg 159 129 -1;
#X msg 194 129 0;
#X obj 29 169 pack2 f f f;
#X msg 209 389 coords 0 1 100 \$3 \$1 \$2 2;
#X msg 29 389 coords 0 1 100 -1 \$1 \$2 2;
#X connect 0 0 3 0 empty;
#X connect 1 0 4 0 empty;
#X connect 2 0 5 0 empty;
#X connect 3 0 20 1 empty;
#X connect 4 0 20 0 empty;
#X connect 6 0 9 0 empty;
#X connect 8 0 7 0 empty;
#X connect 16 0 17 0 empty;
#X connect 17 0 18 0 empty;
#X connect 17 1 19 0 empty;
#X connect 18 0 20 2 empty;
#X connect 19 0 20 2 empty;
#X connect 20 0 2 0 empty;
#X connect 20 0 6 0 empty;
#X connect 20 0 8 0 empty;
#X connect 20 0 22 0 empty;
#X connect 20 0 21 0 empty;
#X connect 21 0 13 0 empty;
#X connect 22 0 14 0 empty;
#X restore 539 119 pd resize;
#N canvas 0 50 730 280 methods 1;
#X obj 185 209 s width_\$0;
#X obj 262 209 s height_\$0;
#X obj 122 209 s uni_\$0;
#X obj 69 209 s n_\$0;
#X obj 344 209 s spacing_\$0;
#X obj 39 9 inlet;
#X obj 39 89 max 1;
#X obj 435 209 s xoffset_\$0;
#X obj 262 89 t b f;
#X obj 223 89 t b f;
#X obj 89 89 t b f;
#X obj 128 89 t b f;
#X obj 69 179 f;
#X obj 122 179 f;
#X obj 167 89 t b b f;
#X obj 522 209 s setbg_\$0;
#X obj 349 79 s fg_\$0;
#N canvas 0 50 710 395 savestate 1;
#X obj 38 79 savestate;
#X obj 139 369 outlet;
#X obj 40 19 r n_\$0;
#X obj 91 19 r uni_\$0;
#X obj 152 19 r width_\$0;
#X obj 228 19 r height_\$0;
#X obj 308 19 r spacing_\$0;
#X obj 397 19 r xoffset_\$0;
#X obj 188 369 outlet;
#X obj 237 369 outlet;
#X obj 286 369 outlet;
#X obj 335 369 outlet;
#X obj 384 369 outlet;
#X obj 339 109 list store;
#X obj 439 339 symbol #191919;
#X obj 439 369 outlet;
#X obj 482 19 r setbg_\$0;
#X obj 559 19 r syncmetro_\$0;
#X obj 549 369 outlet;
#X obj 350 219 loadbang;
#X obj 378 79 pack2 100 0 400 200 2 3 s 40;
#X obj 549 339 40;
#X obj 384 339 3;
#X obj 335 339 2;
#X obj 286 339 200;
#X obj 237 339 400;
#X obj 188 339 0;
#X obj 139 339 100;
#X text 420 220 init the defaults (for creation);
#X obj 49 259 unpack f f f f f f s f;
#X obj 199 119 t b b b;
#X obj 199 189 array get \$1;
#X text 279 188 save the array;
#X obj 49 199 router 3;
#X obj 179 229 array set \$1;
#X obj 84 164 1;
#X obj 124 164 + 1;
#X obj 38 119 t b l;
#X text 412 158 save the colors;
#X obj 549 129 text define colors\$0;
#X obj 289 159 text tolist colors\$0;
#N canvas 0 50 461 439 read-colors 1;
#X obj 19 9 inlet;
#X msg 69 169 line 0;
#X obj 99 89 text fromlist colors\$0;
#X obj 19 349 text sequence colors\$0;
#X obj 249 89 t b b;
#X text 142 379 this way we only apply the colors (in [pd fg]);
#X obj 19 379 s fg-from-text_\$0;
#X obj 249 59 r reload-colors_\$0;
#X obj 179 199 text size colors\$0;
#X obj 179 229 select 0;
#X obj 19 319 spigot;
#X obj 19 49 t b b b l;
#X msg 179 259 0;
#X msg 214 259 1;
#X text 159 288 only dump contents if we have any \; (this avoids the "line number 0 out of range" error);
#X connect 0 0 11 0 empty;
#X connect 1 0 10 0 empty;
#X connect 3 0 6 0 empty;
#X connect 4 0 10 0 empty;
#X connect 4 1 1 0 empty;
#X connect 7 0 4 0 empty;
#X connect 8 0 9 0 empty;
#X connect 9 0 12 0 empty;
#X connect 9 1 13 0 empty;
#X connect 10 0 3 0 empty;
#X connect 11 0 10 0 empty;
#X connect 11 1 1 0 empty;
#X connect 11 2 8 0 empty;
#X connect 11 3 2 0 empty;
#X connect 12 0 10 1 empty;
#X connect 13 0 10 1 empty;
#X restore 69 232 pd read-colors;
#X obj 9 339 s reload-colors_\$0;
#X obj 350 249 t b b b b b b b b b;
#X connect 0 0 37 0 empty;
#X connect 0 1 30 0 empty;
#X connect 2 0 20 0 empty;
#X connect 3 0 20 1 empty;
#X connect 4 0 20 2 empty;
#X connect 5 0 20 3 empty;
#X connect 6 0 20 4 empty;
#X connect 7 0 20 5 empty;
#X connect 13 0 0 0 empty;
#X connect 14 0 15 0 empty;
#X connect 16 0 20 6 empty;
#X connect 17 0 20 7 empty;
#X connect 19 0 43 0 empty;
#X connect 20 0 13 1 empty;
#X connect 21 0 18 0 empty;
#X connect 22 0 12 0 empty;
#X connect 23 0 11 0 empty;
#X connect 24 0 10 0 empty;
#X connect 25 0 9 0 empty;
#X connect 26 0 8 0 empty;
#X connect 27 0 1 0 empty;
#X connect 29 0 27 0 empty;
#X connect 29 1 26 0 empty;
#X connect 29 2 25 0 empty;
#X connect 29 3 24 0 empty;
#X connect 29 4 23 0 empty;
#X connect 29 5 22 0 empty;
#X connect 29 6 14 0 empty;
#X connect 29 7 21 0 empty;
#X connect 30 0 31 0 empty;
#X connect 30 1 40 0 empty;
#X connect 30 2 13 0 empty;
#X connect 31 0 0 0 empty;
#X connect 33 0 29 0 empty;
#X connect 33 1 41 0 empty;
#X connect 33 2 34 0 empty;
#X connect 35 0 33 1 empty;
#X connect 35 0 36 0 empty;
#X connect 36 0 35 1 empty;
#X connect 37 0 35 0 empty;
#X connect 37 1 33 0 empty;
#X connect 40 0 0 0 empty;
#X connect 43 0 42 0 empty;
#X connect 43 1 27 0 empty;
#X connect 43 2 26 0 empty;
#X connect 43 3 25 0 empty;
#X connect 43 4 24 0 empty;
#X connect 43 5 23 0 empty;
#X connect 43 6 22 0 empty;
#X connect 43 7 14 0 empty;
#X connect 43 8 21 0 empty;
#X restore 479 79 pd savestate;
#X obj 39 39 route resize uni width height spacing xoffset bg fg syncmetro, f 56;
#X obj 609 209 s syncmetro_\$0;
#X obj 39 119 t b f;
#X obj 39 239 s reload-colors_\$0;
#X connect 5 0 18 0 empty;
#X connect 6 0 20 0 empty;
#X connect 8 0 12 0 empty;
#X connect 8 1 7 0 empty;
#X connect 9 0 12 0 empty;
#X connect 9 1 4 0 empty;
#X connect 10 0 12 0 empty;
#X connect 10 1 13 0 empty;
#X connect 11 0 12 0 empty;
#X connect 11 1 0 0 empty;
#X connect 12 0 3 0 empty;
#X connect 13 0 2 0 empty;
#X connect 14 0 12 0 empty;
#X connect 14 1 13 0 empty;
#X connect 14 2 1 0 empty;
#X connect 17 0 12 0 empty;
#X connect 17 1 13 0 empty;
#X connect 17 2 0 0 empty;
#X connect 17 3 1 0 empty;
#X connect 17 4 4 0 empty;
#X connect 17 5 7 0 empty;
#X connect 17 6 15 0 empty;
#X connect 17 7 19 0 empty;
#X connect 18 0 6 0 empty;
#X connect 18 1 10 0 empty;
#X connect 18 2 11 0 empty;
#X connect 18 3 14 0 empty;
#X connect 18 4 9 0 empty;
#X connect 18 5 8 0 empty;
#X connect 18 6 15 0 empty;
#X connect 18 7 16 0 empty;
#X connect 18 8 19 0 empty;
#X connect 20 0 21 0 empty;
#X connect 20 1 12 0 empty;
#X restore 539 39 pd methods;
#N canvas 0 50 520 440 move-slider 1;
#X obj 69 409 s;
#X obj 69 289 -;
#X msg 69 319 delta 0 \$1;
#X obj 129 249 * -1;
#X obj 69 259 t f f;
#X obj 130 217 moses 1;
#X msg 166 172 0;
#X obj 299 239 *;
#X obj 299 319 pack;
#X obj 150 319 pack;
#X msg 150 349 vis_size \$2 \$1;
#N canvas 0 50 450 300 set-pos 0;
#X obj 109 59 inlet;
#X obj 219 59 inlet;
#X obj 159 219 outlet;
#X msg 159 169 pos 508.263 128;
#X msg 219 109 set pos \$1 \$2;
#X text 389 278 moths;
#X connect 0 0 3 0 empty;
#X connect 1 0 4 0 empty;
#X connect 3 0 2 0 empty;
#X connect 4 0 3 0 empty;
#X restore 249 349 pd set-pos;
#X obj 299 279 +;
#X obj 130 106 * -1;
#X obj 399 179 f;
#X obj 399 209 t f f;
#X obj 130 76 *;
#X msg 409 349 symbol sl\$1\$2;
#X obj 139 39 r height_\$0;
#X obj 409 309 pack f \$0;
#X obj 409 149 r index_\$0;
#X obj 9 9 r yval_\$0;
#X obj 199 189 r slider_width_\$0;
#X obj 339 239 r xoffset_\$0;
#N canvas 0 50 450 300 calc-y-pos 0;
#X obj 39 269 outlet;
#X obj 139 99 / 2;
#X obj 39 69 select 0;
#X obj 39 179 f;
#X obj 79 109 b;
#X obj 159 169 f;
#X obj 219 19 r height_\$0;
#X obj 39 19 r uni_\$0;
#X connect 1 0 3 1 empty;
#X connect 2 0 3 0 empty;
#X connect 2 1 4 0 empty;
#X connect 3 0 0 0 empty;
#X connect 4 0 5 0 empty;
#X connect 5 0 0 0 empty;
#X connect 6 0 1 0 empty;
#X connect 6 0 5 1 empty;
#X connect 7 0 2 0 empty;
#X restore 339 279 pd calc-y-pos;
#X obj 199 279 -;
#X obj 209 239 r spacing_\$0;
#X text 479 408 :3;
#X text 239 18 scale and/or move [cnv] object \; index selects which one to move \; and y-value is the "slider" value;
#X obj 59 39 r uni_\$0;
#X obj 29 69 router;
#X obj 29 105 - 0.5;
#X obj 129 139 t f b b b;
#X connect 1 0 2 0 empty;
#X connect 2 0 0 0 empty;
#X connect 3 0 9 0 empty;
#X connect 4 0 1 1 empty;
#X connect 4 1 1 0 empty;
#X connect 5 0 4 0 empty;
#X connect 5 0 3 0 empty;
#X connect 5 1 9 0 empty;
#X connect 6 0 5 0 empty;
#X connect 7 0 12 0 empty;
#X connect 8 0 11 1 empty;
#X connect 9 0 10 0 empty;
#X connect 10 0 0 0 empty;
#X connect 11 0 0 0 empty;
#X connect 12 0 8 0 empty;
#X connect 13 0 32 0 empty;
#X connect 14 0 15 0 empty;
#X connect 15 0 7 0 empty;
#X connect 15 1 19 0 empty;
#X connect 16 0 13 0 empty;
#X connect 17 0 0 1 empty;
#X connect 18 0 16 1 empty;
#X connect 19 0 17 0 empty;
#X connect 20 0 14 1 empty;
#X connect 21 0 30 0 empty;
#X connect 22 0 25 0 empty;
#X connect 22 0 7 1 empty;
#X connect 23 0 12 1 empty;
#X connect 24 0 8 1 empty;
#X connect 25 0 9 1 empty;
#X connect 26 0 25 1 empty;
#X connect 29 0 30 1 empty;
#X connect 30 0 31 0 empty;
#X connect 30 1 16 0 empty;
#X connect 31 0 16 0 empty;
#X connect 32 0 5 0 empty;
#X connect 32 1 11 0 empty;
#X connect 32 2 6 0 empty;
#X connect 32 3 14 0 empty;
#X restore 539 179 pd move-slider;
#X obj 539 9 inlet;
#X obj 539 239 namecanvas this\$1;
#N canvas 0 50 450 300 bg 1;
#X msg 139 119 color \$1;
#X obj 139 179 s bg\$0;
#X text 209 118 set background cnv color;
#X obj 139 69 symbol;
#X obj 139 29 r setbg_\$0;
#X connect 0 0 1 0 empty;
#X connect 3 0 0 0 empty;
#X connect 4 0 3 0 empty;
#X restore 539 149 pd bg;
#N canvas 0 50 450 300 sync 1;
#X obj 129 199 s index_\$0;
#N canvas 0 50 450 300 yval 0;
#X obj 159 29 inlet;
#X obj 209 229 s yval_\$0;
#X obj 217 61 r uni_\$0;
#X obj 177 91 router;
#X obj 139 189 + 0.5;
#X obj 146 146 / 2;
#X connect 0 0 3 0 empty;
#X connect 2 0 3 1 empty;
#X connect 3 0 5 0 empty;
#X connect 3 1 1 0 empty;
#X connect 4 0 1 0 empty;
#X connect 5 0 4 0 empty;
#X restore 29 249 pd yval;
#X obj 29 172 t f f;
#X obj 29 202 tabread \$1;
#X obj 29 79 metro 40;
#X obj 149 149 array size \$1;
#X obj 147 95 r n_\$0;
#X obj 29 19 loadbang;
#X obj 119 19 r syncmetro_\$0;
#X obj 119 49 max 15;
#X text 179 48 you don't need more than 60fps!;
#X obj 29 142 loop 64;
#X connect 2 0 3 0 empty;
#X connect 2 1 0 0 empty;
#X connect 3 0 1 0 empty;
#X connect 4 0 11 0 empty;
#X connect 6 0 5 0 empty;
#X connect 6 0 11 1 empty;
#X connect 7 0 4 0 empty;
#X connect 8 0 9 0 empty;
#X connect 9 0 4 1 empty;
#X connect 11 0 2 0 empty;
#X restore 539 89 pd sync;
#N canvas 0 50 450 300 fg 1;
#X obj 179 59 r fg_\$0;
#X msg 9 219 color \$1;
#X obj 9 259 s;
#X msg 79 219 symbol sl\$1\$2;
#X msg 9 99 \$2 \$1;
#X obj 79 189 pack f \$0;
#X obj 9 139 unpack s f;
#X msg 399 141 \$1;
#X obj 193 213 until;
#X obj 179 109 t l b l;
#X obj 193 183 expr if($f1 < $f2 \, $f2 - $f1 \, 0);
#X text 69 98 apply to slider;
#X obj 193 153 text size colors\$0;
#X obj 179 259 text set colors\$0;
#X obj 9 19 r fg-from-text_\$0;
#X obj 9 49 route bang;
#X text 243 112 save it in text object;
#X text 129 8 we get a sequence of stored colors on load \; (or when reload-colors_\$0 gets a bang) \; bangs are the empty lines;
#X connect 0 0 9 0 empty;
#X connect 0 0 4 0 empty;
#X connect 1 0 2 0 empty;
#X connect 3 0 2 1 empty;
#X connect 4 0 6 0 empty;
#X connect 5 0 3 0 empty;
#X connect 6 0 1 0 empty;
#X connect 6 1 5 0 empty;
#X connect 7 0 10 1 32.................L....D8+++OC....Q++++iA....;
#X connect 7 0 13 1 32.................XA...Py+++OV....z7+++KF....;
#X connect 8 0 13 0 empty;
#X connect 9 0 13 0 empty;
#X connect 9 1 12 0 empty;
#X connect 9 2 7 0 32.................E....7K...PA....+B...n.....;
#X connect 10 0 8 0 empty;
#X connect 12 0 10 0 empty;
#X connect 14 0 15 0 empty;
#X connect 15 1 4 0 empty;
#X restore 589 149 pd fg;
#X text 539 288 amy universe - 2023 \; github.com/tomara-x;
#X connect 7 0 5 0 empty;
#X coords 0 0 1 1 514 258 2 0 0;
