#N canvas 827 239 520 420 12;
#X obj 19 129 pad 470 240 255 255 255;
#X obj 19 129 cnv 15 471 241 empty empty empty 20 12 0 14 #191919 #ffffff 0;
#N canvas 0 50 380 410 construct 1;
#X msg 319 339 clear;
#X obj 19 109 loop;
#X obj 33 249 +;
#N canvas 0 50 450 300 calc-y-pos 1;
#X obj 39 269 outlet;
#X obj 139 99 / 2;
#X obj 39 69 select 0;
#X obj 39 179 f;
#X obj 79 109 b;
#X obj 159 169 f;
#X obj 319 39 r height_\$0;
#X obj 39 19 r uni_\$0;
#X connect 1 0 3 1 empty;
#X connect 2 0 3 0 empty;
#X connect 2 1 4 0 empty;
#X connect 3 0 0 0 empty;
#X connect 4 0 5 0 empty;
#X connect 5 0 0 0 empty;
#X connect 6 0 1 0 empty;
#X connect 6 0 5 1 empty;
#X connect 7 0 2 0 empty;
#X restore 79 249 pd calc-y-pos;
#X obj 19 163 t f f;
#X obj 189 249 -;
#X obj 129 119 swap;
#X obj 129 153 /;
#X obj 33 219 *;
#X obj 19 49 t f f b;
#X obj 19 289 pack2 f f f f \$0;
#X msg 19 319 obj \$2 \$3 cnv 2 \$4 0 empty sl\$1\$5 empty 20 12 0 14 #ffffff #ffffff 0, f 33;
#X obj 149 89 r width_\$0;
#X obj 19 19 r n_\$0;
#X obj 79 219 r xoffset_\$0;
#X obj 210 219 r spacing_\$0;
#X obj 199 189 s slider_width_\$0;
#X obj 19 369 s pd-sliders_\$0;
#X connect 0 0 17 0 32.................E....Ts+++eA....U6+++q.....;
#X connect 1 0 4 0 empty;
#X connect 2 0 10 1 32.................J....P....fB....D....PA....;
#X connect 3 0 10 2 32.................J....n9+++uB....p++++SA....;
#X connect 4 0 10 0 empty;
#X connect 4 1 8 0 32.................R....L....fD....C....PB....;
#X connect 5 0 10 3 32.................O....33++++C....N9+++SA....;
#X connect 6 0 7 0 empty;
#X connect 6 1 7 1 empty;
#X connect 7 0 8 1 32.................W....v5++++E....r9+++6B....;
#X connect 7 0 5 0 32.................l....vC...fI....7....vD....;
#X connect 7 0 16 0 32.................H....XD....B....FA....A....;
#X connect 8 0 2 0 empty;
#X connect 9 0 1 0 empty;
#X connect 9 1 6 0 32.................Q.....F...PD....fA...HC....;
#X connect 9 2 0 0 32.................F....7P...fA....OD...3P....;
#X connect 10 0 11 0 empty;
#X connect 11 0 17 0 empty;
#X connect 12 0 6 1 empty;
#X connect 13 0 9 0 empty;
#X connect 14 0 2 1 32.................E....38+++eA....d++++q.....;
#X connect 15 0 5 1 empty;
#X restore 119 89 pd construct;
#N canvas 0 50 450 250 (subpatch) 0;
#X array arr1 6 float 2;
#X coords 0 1 6 -1 162 82 1;
#X restore 299 39 graph;
#N canvas 0 50 450 300 resize 1;
#X msg 109 209 dim \$1 \$2;
#X obj 109 169 pack2;
#X obj 109 259 outlet;
#X obj 209 59 r height_\$0;
#X obj 109 59 r width_\$0;
#X msg 269 229 coords 0 0 1 1 \$1 \$2 2;
#X obj 319 149 + 2;
#X obj 269 149 + 2;
#X obj 269 259 s pd-sliders_\$0;
#X obj 269 202 pack2;
#X connect 0 0 2 0 empty;
#X connect 1 0 0 0 empty;
#X connect 3 0 1 1 empty;
#X connect 3 0 6 0 empty;
#X connect 4 0 1 0 empty;
#X connect 4 0 7 0 empty;
#X connect 5 0 8 0 empty;
#X connect 6 0 9 1 empty;
#X connect 7 0 9 0 empty;
#X connect 9 0 5 0 empty;
#X restore 19 99 pd resize;
#X obj 19 19 inlet;
#N canvas 0 50 450 300 methods 1;
#X obj 179 29 inlet;
#X obj 160 90 route width height uni;
#X obj 243 330 nbx 4 18 1 1e+37 0 0 empty empty empty 0 -8 0 10 #191919 #ffffff #ffffff 0 256;
#X obj 653 230 nbx 4 18 0 1e+37 0 1 empty empty empty 0 -8 0 10 #191919 #ffffff #ffffff 240 256;
#X obj 603 230 nbx 4 18 0 1e+37 0 1 empty empty empty 0 -8 0 10 #191919 #ffffff #ffffff 470 256;
#X text 603 209 width & height;
#X text 289 330 n;
#X obj 369 369 bng 25 250 50 0 empty empty empty 17 7 0 10 #191919 #ffffff #ffffff;
#X obj 459 349 tgl 25 1 empty empty empty 17 7 0 10 #191919 #ffffff #ffffff 1 1;
#N canvas 0 50 450 300 rndclr 1;
#X obj 129 9 inlet;
#X obj 129 119 rand.i 0 360;
#X msg 129 159 hsl \$1 100 50;
#X obj 129 49 loop;
#X obj 129 79 t b f;
#X obj 129 259 s;
#X msg 129 219 color \$1;
#X obj 129 189 colors;
#X obj 279 9 r n_\$0;
#X obj 269 129 pack f \$0;
#X msg 269 179 symbol sl\$1\$2;
#X connect 0 0 3 0 empty;
#X connect 1 0 2 0 empty;
#X connect 2 0 7 0 empty;
#X connect 3 0 4 0 empty;
#X connect 4 0 1 0 empty;
#X connect 4 1 9 0 empty;
#X connect 6 0 5 0 empty;
#X connect 7 0 6 0 empty;
#X connect 8 0 3 1 empty;
#X connect 9 0 10 0 empty;
#X connect 10 0 5 1 empty;
#X restore 369 409 pd rndclr;
#X obj 353 210 nbx 4 18 0 1 0 0 empty empty empty 0 -8 0 10 #191919 #ffffff #ffffff 0 256;
#X obj 459 389 s coloring_\$0;
#X obj 587 264 s width_\$0;
#X obj 673 260 s height_\$0;
#X obj 357 240 s uni_\$0;
#X text 395 209 0=bi/1=uni;
#X obj 243 360 s n_\$0;
#X obj 67 349 nbx 4 18 0 1e+37 0 1 empty empty empty 0 -8 0 10 #191919 #ffffff #ffffff 2 256;
#X text 112 348 x offset;
#X obj 79 189 nbx 4 18 0 1e+37 0 1 empty empty empty 0 -8 0 10 #191919 #ffffff #ffffff 2 256;
#X text 125 189 spacing;
#X obj 89 239 s spacing_\$0;
#X obj 74 383 s xoffset_&0;
#X obj 459 99 nbx 4 18 0 1e+37 0 0 empty empty empty 0 -8 0 10 #191919 #ffffff #ffffff 0 256;
#X obj 459 39 nbx 4 18 -1e+37 1e+37 0 0 empty empty empty 0 -8 0 10 #191919 #ffffff #ffffff 0 256;
#X text 509 98 index;
#X text 509 38 y value;
#X obj 459 129 s index_\$0;
#X obj 459 69 s yval_\$0;
#X connect 2 0 16 0 empty;
#X connect 3 0 13 0 empty;
#X connect 4 0 12 0 empty;
#X connect 7 0 9 0 empty;
#X connect 8 0 11 0 empty;
#X connect 10 0 14 0 empty;
#X connect 17 0 22 0 empty;
#X connect 19 0 21 0 empty;
#X connect 23 0 27 0 empty;
#X connect 24 0 28 0 empty;
#X restore 19 49 pd methods;
#X obj 19 379 s pad_out_\$0;
#N canvas 0 50 625 440 move-slider 1;
#X obj 9 399 s;
#X obj 9 259 -;
#X msg 9 289 delta 0 \$1;
#X obj 80 234 * -1;
#X obj 9 229 t f f;
#X obj 80 197 moses 1;
#X msg 111 160 0;
#X obj 229 229 *;
#X obj 259 309 pack;
#X obj 80 319 pack;
#X msg 80 349 vis_size \$2 \$1;
#N canvas 0 50 450 300 set-pos 0;
#X obj 109 59 inlet;
#X obj 219 59 inlet;
#X obj 159 219 outlet;
#X msg 159 169 pos 160.667 120;
#X msg 219 109 set pos \$1 \$2;
#X connect 0 0 3 0 empty;
#X connect 1 0 4 0 empty;
#X connect 3 0 2 0 empty;
#X connect 4 0 3 0 empty;
#X restore 187 349 pd set-pos;
#X obj 249 269 +;
#X obj 80 92 * -1;
#X obj 319 159 f;
#X obj 319 189 t f f;
#X obj 80 124 t f b b b;
#X obj 399 89 nbx 4 18 -1e+37 1e+37 0 1 empty empty empty 0 -8 0 10 #191919 #ffffff #ffffff 76.3333 256;
#X obj 319 59 nbx 4 18 -1e+37 1e+37 0 1 empty empty empty 0 -8 0 10 #191919 #ffffff #ffffff 120 256;
#X obj 249 59 nbx 4 18 -1e+37 1e+37 0 1 empty empty empty 0 -8 0 10 #191919 #ffffff #ffffff 4 256;
#X obj 169 59 nbx 4 18 -1e+37 1e+37 0 1 empty empty empty 0 -8 0 10 #191919 #ffffff #ffffff 78.3333 256;
#N canvas 0 50 450 300 color 0;
#X msg 129 179 hsl \$1 100 50;
#X msg 129 239 color \$1;
#X obj 129 209 colors;
#X obj 129 119 * 360;
#X obj 129 29 inlet;
#X obj 129 269 outlet;
#X obj 259 29 inlet;
#X obj 259 89 / 2;
#X obj 129 89 +;
#X obj 259 59 + 1;
#X obj 129 149 mod 360;
#X connect 0 0 2 0 empty;
#X connect 1 0 5 0 empty;
#X connect 2 0 1 0 empty;
#X connect 3 0 10 0 empty;
#X connect 4 0 8 0 empty;
#X connect 6 0 9 0 empty;
#X connect 7 0 8 1 empty;
#X connect 8 0 3 0 empty;
#X connect 9 0 7 0 empty;
#X connect 10 0 0 0 empty;
#X restore 419 349 pd color;
#X obj 19 59 *;
#X obj 399 179 spigot;
#X obj 399 219 * -1;
#X obj 399 249 /;
#X text 439 238 bad amy;
#X obj 559 139 / 2;
#X obj 499 209 -;
#X obj 499 249 /;
#X msg 320 349 symbol sl\$1\$2;
#X obj 569 69 r coloring_\$0;
#X obj 469 59 r height_\$0;
#X obj 319 309 pack f \$0;
#X obj 329 129 r index_\$0;
#X obj 9 9 r yval_\$0;
#X obj 99 19 r slider_width_\$0;
#X obj 229 19 r xoffset_\$0;
#N canvas 0 50 450 300 calc-y-pos 0;
#X obj 39 269 outlet;
#X obj 139 99 / 2;
#X obj 39 69 select 0;
#X obj 39 179 f;
#X obj 79 109 b;
#X obj 159 169 f;
#X obj 319 39 r height_\$0;
#X obj 39 19 r uni_\$0;
#X connect 1 0 3 1 empty;
#X connect 2 0 3 0 empty;
#X connect 2 1 4 0 empty;
#X connect 3 0 0 0 empty;
#X connect 4 0 5 0 empty;
#X connect 5 0 0 0 empty;
#X connect 6 0 1 0 empty;
#X connect 6 0 5 1 empty;
#X connect 7 0 2 0 empty;
#X restore 329 19 pd calc-y-pos;
#X obj 429 29 -;
#X obj 439 -1 r spacing_\$0;
#X connect 1 0 2 0 empty;
#X connect 2 0 0 0 empty;
#X connect 3 0 9 0 empty;
#X connect 4 0 1 1 empty;
#X connect 4 1 1 0 empty;
#X connect 5 0 4 0 empty;
#X connect 5 0 3 0 empty;
#X connect 5 1 9 0 empty;
#X connect 6 0 5 0 empty;
#X connect 7 0 12 0 empty;
#X connect 8 0 11 1 empty;
#X connect 9 0 10 0 empty;
#X connect 10 0 0 0 empty;
#X connect 11 0 0 0 empty;
#X connect 12 0 8 0 empty;
#X connect 13 0 16 0 empty;
#X connect 14 0 15 0 empty;
#X connect 15 0 7 0 empty;
#X connect 15 1 33 0 empty;
#X connect 16 0 5 0 empty;
#X connect 16 0 23 0 empty;
#X connect 16 1 11 0 empty;
#X connect 16 2 6 0 empty;
#X connect 16 3 14 0 empty;
#X connect 17 0 9 1 empty;
#X connect 18 0 8 1 empty;
#X connect 19 0 12 1 empty;
#X connect 20 0 7 1 empty;
#X connect 21 0 0 0 empty;
#X connect 22 0 13 0 empty;
#X connect 23 0 24 0 empty;
#X connect 24 0 25 0 empty;
#X connect 25 0 21 0 empty;
#X connect 27 0 28 1 empty;
#X connect 27 0 29 1 empty;
#X connect 28 0 29 0 empty;
#X connect 29 0 21 1 empty;
#X connect 30 0 0 1 empty;
#X connect 31 0 23 1 empty;
#X connect 32 0 27 0 empty;
#X connect 32 0 22 1 empty;
#X connect 32 0 25 1 empty;
#X connect 33 0 30 0 empty;
#X connect 34 0 14 1 empty;
#X connect 35 0 22 0 empty;
#X connect 36 0 20 0 empty;
#X connect 36 0 39 0 empty;
#X connect 37 0 19 0 empty;
#X connect 38 0 18 0 empty;
#X connect 38 0 28 0 empty;
#X connect 39 0 17 0 empty;
#X connect 40 0 39 1 empty;
#X restore 119 59 pd move-slider;
#N canvas 0 50 380 384 draw 1;
#X obj 59 39 route click;
#X obj 289 279 s arr1;
#X msg 289 249 resize \$1;
#X obj 119 339 tabwrite arr1;
#X obj 199 179 /;
#X obj 108 69 unpack;
#X obj 199 259 *;
#X obj 59 179 /;
#X obj 59 99 spigot;
#X obj 59 259 - 0.5;
#X obj 199 299 int;
#X obj 59 9 r pad_out_\$0;
#X obj 49 359 s yval_\$0;
#X obj 219 349 s index_\$0;
#X obj 289 209 nbx 4 18 -1e+37 1e+37 0 1 empty empty empty 0 -8 0 10 #191919 #ffffff #ffffff 6 256;
#X obj 79 139 r height_\$0;
#X obj 229 109 r width_\$0;
#X obj 109 179 r uni_\$0;
#X obj 289 179 r n_\$0;
#X obj 59 219 router;
#X obj 119 309 * 2;
#X connect 0 0 8 1 empty;
#X connect 0 1 5 0 empty;
#X connect 2 0 1 0 empty;
#X connect 4 0 6 0 empty;
#X connect 5 0 4 0 empty;
#X connect 5 1 8 0 empty;
#X connect 6 0 10 0 empty;
#X connect 7 0 19 0 empty;
#X connect 8 0 7 0 empty;
#X connect 9 0 12 0 empty;
#X connect 9 0 20 0 empty;
#X connect 10 0 3 1 empty;
#X connect 10 0 13 0 empty;
#X connect 11 0 0 0 empty;
#X connect 14 0 2 0 empty;
#X connect 14 0 6 1 empty;
#X connect 15 0 7 1 empty;
#X connect 16 0 4 1 empty;
#X connect 17 0 19 1 empty;
#X connect 18 0 14 0 empty;
#X connect 19 0 9 0 empty;
#X connect 20 0 3 0 empty;
#X restore 119 29 pd draw;
#N canvas 0 50 450 300 sliders_\$0 1;
#X obj 317 46 cnv 2 76 74 empty sl41031 empty 20 12 0 14 #d900ff #ffffff 0;
#X obj 317 46 cnv 2 76 74 empty sl41031 empty 20 12 0 14 #d900ff #ffffff 0;
#X obj 4 17 cnv 2 76 103 empty sl01031 empty 20 12 0 14 #ff006f #ffffff 0;
#X obj 4 17 cnv 2 76 103 empty sl01031 empty 20 12 0 14 #ff006f #ffffff 0;
#X obj 82 69 cnv 2 76 51 empty sl11031 empty 20 12 0 14 #4c00ff #ffffff 0;
#X obj 82 69 cnv 2 76 51 empty sl11031 empty 20 12 0 14 #4c00ff #ffffff 0;
#X obj 160 120 cnv 2 76 49 empty sl21031 empty 20 12 0 14 #3bff00 #ffffff 0;
#X obj 160 120 cnv 2 76 49 empty sl21031 empty 20 12 0 14 #3bff00 #ffffff 0;
#X obj 239 34 cnv 2 76 86 empty sl31031 empty 20 12 0 14 #ff00d9 #ffffff 0;
#X obj 239 34 cnv 2 76 86 empty sl31031 empty 20 12 0 14 #ff00d9 #ffffff 0;
#X obj 317 46 cnv 2 76 74 empty sl41031 empty 20 12 0 14 #d900ff #ffffff 0;
#X obj 317 46 cnv 2 76 74 empty sl41031 empty 20 12 0 14 #d900ff #ffffff 0;
#X obj 395 24 cnv 2 76 96 empty sl51031 empty 20 12 0 14 #ff0095 #ffffff 0;
#X coords 0 0 1 1 472 242 2 0 0;
#X restore 19 129 pd sliders_\$0;
#X connect 0 0 7 0 empty;
#X connect 4 0 0 0 empty;
#X connect 5 0 6 0 empty;
