#N canvas 827 239 527 327 12;
#N canvas 0 50 450 250 (subpatch) 0;
#X text 0 0 plugdatainfo <?xml version="1.0" encoding="UTF-8"?> <plugdatainfo/>;
#X coords 0 1 100 -1 1 1 1;
#X restore 0 0 graph;
#X obj 324 69 inlet;
#X obj 324 126 unmerge 2;
#X obj 324 365 sine~;
#X obj 324 435 *~;
#X obj 350 317 +;
#X obj 410 272 r off;
#X obj 350 212 *;
#X obj 410 170 r mult;
#X obj 324 487 throw~ oout;
#X connect 1 0 2 0;
#X connect 2 0 4 1;
#X connect 2 1 7 0;
#X connect 3 0 4 0;
#X connect 4 0 9 0;
#X connect 5 0 3 0;
#X connect 6 0 5 1;
#X connect 7 0 5 0;
#X connect 8 0 7 1;
