#N canvas 827 239 527 327 12;
#N canvas 0 50 450 250 (subpatch) 0;
#X text 0 0 plugdatainfo <?xml version="1.0" encoding="UTF-8"?> <plugdatainfo/>;
#X coords 0 1 100 -1 1 1 1;
#X restore 0 0 graph;
#X obj 73 117 function 582 175 empty empty 0 1 25 25 25 247 168 184 0 0 0 0 0 22.5694 0.112426 6.94444 1 26.0417 0.236686 5.20833 0.538462 32.9861 0.893491 8.68055 0.331361 22.5695 0.426036 5.20833 0.710059 20.8333 0.964497 24.3056 0.426036 41.6667 0.325444 17.3611 0.721893 0 0.177515 26.0417 1 0 0.390533 29.5139 0.414201 36.4583 0.769231 12.1528 0.325444 0 0.514793 31.25 0.769231 19.0972 0.213018 24.3056 0.538462 0 0.171598 6.94443 0.863905 24.3056 0.278107 34.7222 1 0 0.177515 24.3055 0.147929 13.8889 0.171598 13.8889 0.91716 6.9444 0.579882 0 0.289941 3.47229 0.668639 57.2916 0.295858 20.8334 1 3.47223 0.319527 13.8889 0.656805 19.0972 0.840237 12.1528 0.289941 20.8333 0.686391 17.3611 0.195266 15.625 0.443787 0 0.142012 12.1528 0.905325 6.9444 0.183432 17.3612 0.556213 24.3055 0.887574 12.1528 0.39645 6.9444 0.656805 31.25 0.147929 29.5139 0.301775 5.20837 0.733728 39.9305 0.449704 64.2361 0.840237 27.7778 0;
#X msg 131 67 0 1000 0, f 10;
#X obj 73 42 bng 46 250 50 0 empty empty empty 17 7 0 10 #191919 #ffffff #ffffff;
#N canvas 0 50 450 300 oscil 1;
#N canvas 0 50 450 250 (subpatch) 0;
#X text 0 0 plugdatainfo <?xml version="1.0" encoding="UTF-8"?> <plugdatainfo/>;
#X coords 0 1 100 -1 1 1 1;
#X restore 0 0 graph;
#X obj 44 99 unmerge 32 2;
#X obj 44 22 inlet;
#X obj 668 59 outlet~;
#X obj 514 22 inlet;
#X obj 514 59 s off;
#X obj 668 29 catch~ oout;
#X obj 443 22 inlet;
#X obj 443 59 s mult;
#X obj 44 204 part;
#X obj 88 204 part;
#X obj 132 204 part;
#X obj 176 204 part;
#X obj 220 204 part;
#X obj 264 204 part;
#X obj 308 204 part;
#X obj 352 204 part;
#X obj 400 204 part;
#X obj 444 204 part;
#X obj 488 204 part;
#X obj 532 204 part;
#X obj 576 204 part;
#X obj 620 204 part;
#X obj 664 204 part;
#X obj 708 204 part;
#X obj 44 242 part;
#X obj 88 242 part;
#X obj 132 242 part;
#X obj 176 242 part;
#X obj 220 242 part;
#X obj 264 242 part;
#X obj 308 242 part;
#X obj 352 242 part;
#X obj 400 242 part;
#X obj 444 242 part;
#X obj 488 242 part;
#X obj 532 242 part;
#X obj 576 242 part;
#X obj 620 242 part;
#X obj 664 242 part;
#X obj 708 242 part;
#X connect 1 0 9 0;
#X connect 1 1 10 0;
#X connect 1 2 11 0;
#X connect 1 3 12 0;
#X connect 1 4 13 0;
#X connect 1 5 14 0;
#X connect 1 6 15 0;
#X connect 1 7 16 0;
#X connect 1 8 17 0;
#X connect 1 9 18 0;
#X connect 1 10 19 0;
#X connect 1 11 20 0;
#X connect 1 12 21 0;
#X connect 1 13 22 0;
#X connect 1 14 23 0;
#X connect 1 15 24 0;
#X connect 1 16 25 0;
#X connect 1 17 26 0;
#X connect 1 18 27 0;
#X connect 1 19 28 0;
#X connect 1 20 29 0;
#X connect 1 21 30 0;
#X connect 1 22 31 0;
#X connect 1 23 32 0;
#X connect 1 24 33 0;
#X connect 1 25 34 0;
#X connect 1 26 35 0;
#X connect 1 27 36 0;
#X connect 1 28 37 0;
#X connect 1 29 38 0;
#X connect 1 30 39 0;
#X connect 1 31 40 0;
#X connect 2 0 1 0;
#X connect 4 0 5 0;
#X connect 6 0 3 0;
#X connect 7 0 8 0;
#X restore 73 420 pd oscil;
#X obj 73 462 /~ 32;
#X obj 73 502 dac~;
#X obj 103 322 nbx 6 23 0 20 0 0 empty empty empty 0 -8 0 10 #191919 #ffffff #ffffff 0 256;
#X obj 178 321 nbx 7 26 -1000 1000 0 0 empty empty empty 0 -8 0 10 #191919 #ffffff #ffffff 0 256;
#X obj 271 358 mtof;
#X obj 271 319 notein;
#X obj 157 21 notein;
#X connect 1 0 4 0;
#X connect 2 0 1 0;
#X connect 3 0 1 0;
#X connect 4 0 5 0;
#X connect 5 0 6 0;
#X connect 5 0 6 1;
#X connect 7 0 4 1;
#X connect 8 0 4 2;
#X connect 9 0 4 2;
#X connect 10 0 9 0;
#X connect 11 1 3 0;
