#N canvas 827 239 527 327 12;
#N canvas 0 50 450 250 (subpatch) 0;
#X text 0 0 plugdatainfo <?xml version="1.0" encoding="UTF-8"?> <plugdatainfo><InfoObj ID="16.E....H....f.....A....." Updated="0" Segmented="1" Path="32......D..........8....PA...PO....T.....F...."/><InfoObj ID="16.E....H....f.....A....." Updated="0" Segmented="1" Path="32......D..........9....36+++uO....99+++CF...."/><InfoObj ID="16.E....L....P.....A....." Updated="0" Segmented="1" Path="32......D..........n....HC....J....x....jG...."/><InfoObj ID="16.E....L....P.....A....." Updated="0" Segmented="1" Path="32......D..........g....X6+++eH....19+++GF...."/><InfoObj ID="16.E...............B....." Updated="0" Segmented="1" Path="32......D..........4A...PD...Pd....DA...DH...."/><InfoObj ID="16.E...............A....." Updated="0" Segmented="1" Path="32......D..........RA...X....fT....F....HJ...."/><InfoObj ID="16.D....T..........C....." Updated="0" Segmented="1" Path="32......D..........R....P9+++uD....j++++WC...."/><InfoObj ID="16.A....H..........B....." Updated="0" Segmented="1" Path="32......D..........Y....7....PF....O....DF...."/><InfoObj ID="16.A....L....P.....B....." Updated="0" Segmented="1" Path="32......D..........U....X6+++eE....19++++B...."/><InfoObj ID="16.F....T..........C....." Updated="0" Segmented="1" Path="32......D..........a....f6++++F....39+++GE...."/></plugdatainfo>;
#X coords 0 1 100 -1 1 1 1;
#X restore 0 0 graph;
#X obj 270 140 adc~;
#X obj 270 423 dac~;
#X obj 270 354 /~ 16;
#X obj 429 354 /~ 16;
#X obj 270 316 clone pitch.shift~ 16;
#X obj 429 316 clone pitch.shift~ 16;
#X listbox 429 210 29 0 0 0 - - - 0;
#X connect 1 0 5 0;
#X connect 1 1 6 0;
#X connect 3 0 2 0;
#X connect 4 0 2 1;
#X connect 5 0 3 0;
#X connect 6 0 4 0;
#X connect 7 0 5 1;
#X connect 7 0 6 1;
#X connect 7 0 5 2;
#X connect 7 0 6 2;
