#N canvas 827 239 527 327 12;
#N canvas 0 50 450 250 (subpatch) 0;
#X text 0 0 plugdatainfo <?xml version="1.0" encoding="UTF-8"?> <plugdatainfo/>;
#X coords 0 1 100 -1 1 1 1;
#X restore 0 0 graph;
#X obj 281 62 adc~;
#X obj 281 444 dac~;
#X obj 391 257 nbx 4 18 -1e+37 1e+37 0 1 empty empty empty 0 -8 0 10 #191919 #ffffff #ffffff 1 256;
#X obj 354 229 nbx 4 18 -1e+37 1e+37 0 1 empty empty empty 0 -8 0 10 #191919 #ffffff #ffffff 82 256;
#X obj 317 197 nbx 4 18 -1e+37 1e+37 0 1 empty empty empty 0 -8 0 10 #191919 #ffffff #ffffff 2017 256;
#X obj 452 291 clone f-transpose 16;
#X obj 281 291 clone f-transpose 16;
#X obj 281 349 /~ 16;
#X obj 452 349 /~ 16;
#X obj 562 245 nbx 4 18 -1e+37 1e+37 0 1 empty empty empty 0 -8 0 10 #191919 #ffffff #ffffff 1 256;
#X obj 522 205 nbx 4 18 -1e+37 1e+37 0 1 empty empty empty 0 -8 0 10 #191919 #ffffff #ffffff 744 256;
#X obj 488 179 nbx 4 18 -1e+37 1e+37 0 1 empty empty empty 0 -8 0 10 #191919 #ffffff #ffffff 1747 256;
#X text 617 361 optimize and add the window spacing (and maybe instance num mult inlet), f 35;
#X text 610 443 redo this using the else freq/pitch transpose, f 36;
#X connect 1 0 7 0;
#X connect 1 1 6 0;
#X connect 3 0 7 3;
#X connect 4 0 7 2;
#X connect 5 0 7 1;
#X connect 6 0 9 0;
#X connect 7 0 8 0;
#X connect 8 0 2 0;
#X connect 9 0 2 1;
#X connect 10 0 6 3;
#X connect 11 0 6 2;
#X connect 12 0 6 1;
