#N canvas 827 239 527 327 12;
#X obj 9 379 dac~;
#X obj 279 99 pitch.shift~;
#X obj 306 39 nbx 4 18 -1e+37 1e+37 0 1 empty empty empty 0 -8 0 10 #191919 #ffffff #ffffff 6.5 256;
#X obj 359 39 nbx 4 18 -1e+37 1e+37 0 1 empty empty empty 0 -8 0 10 #191919 #ffffff #ffffff 3.1 256;
#X obj 306 66 * 100;
#X obj 359 66 * 1000;
#X obj 435 99 pitch.shift~;
#X obj 462 39 nbx 4 18 -1e+37 1e+37 0 1 empty empty empty 0 -8 0 10 #191919 #ffffff #ffffff -8 256;
#X obj 515 39 nbx 4 18 -1e+37 1e+37 0 1 empty empty empty 0 -8 0 10 #191919 #ffffff #ffffff 1.1 256;
#X obj 462 66 * 100;
#X obj 515 66 * 1000;
#X obj 579 99 pitch.shift~;
#X obj 606 39 nbx 4 18 -1e+37 1e+37 0 1 empty empty empty 0 -8 0 10 #191919 #ffffff #ffffff 24 256;
#X obj 659 39 nbx 4 18 -1e+37 1e+37 0 1 empty empty empty 0 -8 0 10 #191919 #ffffff #ffffff 0.2 256;
#X obj 606 66 * 100;
#X obj 659 66 * 1000;
#X obj 129 99 pitch.shift~;
#X obj 156 39 nbx 4 18 -1e+37 1e+37 0 1 empty empty empty 0 -8 0 10 #191919 #ffffff #ffffff 12 256;
#X obj 209 39 nbx 4 18 -1e+37 1e+37 0 1 empty empty empty 0 -8 0 10 #191919 #ffffff #ffffff 0.5 256;
#X obj 156 66 * 100;
#X obj 209 66 * 1000;
#X obj 279 219 pitch.shift~;
#X obj 306 159 nbx 4 18 -1e+37 1e+37 0 1 empty empty empty 0 -8 0 10 #191919 #ffffff #ffffff 2 256;
#X obj 359 159 nbx 4 18 -1e+37 1e+37 0 1 empty empty empty 0 -8 0 10 #191919 #ffffff #ffffff 2.4 256;
#X obj 306 186 * 100;
#X obj 359 186 * 1000;
#X obj 435 219 pitch.shift~;
#X obj 462 159 nbx 4 18 -1e+37 1e+37 0 1 empty empty empty 0 -8 0 10 #191919 #ffffff #ffffff -35 256;
#X obj 515 159 nbx 4 18 -1e+37 1e+37 0 1 empty empty empty 0 -8 0 10 #191919 #ffffff #ffffff 0.45 256;
#X obj 462 186 * 100;
#X obj 515 186 * 1000;
#X obj 579 219 pitch.shift~;
#X obj 606 159 nbx 4 18 -1e+37 1e+37 0 1 empty empty empty 0 -8 0 10 #191919 #ffffff #ffffff -21 256;
#X obj 659 159 nbx 4 18 -1e+37 1e+37 0 1 empty empty empty 0 -8 0 10 #191919 #ffffff #ffffff 0.04 256;
#X obj 606 186 * 100;
#X obj 659 186 * 1000;
#X obj 129 219 pitch.shift~;
#X obj 156 159 nbx 4 18 -1e+37 1e+37 0 1 empty empty empty 0 -8 0 10 #191919 #ffffff #ffffff -34 256;
#X obj 209 159 nbx 4 18 -1e+37 1e+37 0 1 empty empty empty 0 -8 0 10 #191919 #ffffff #ffffff 1.38 256;
#X obj 156 186 * 100;
#X obj 209 186 * 1000;
#X obj 279 339 pitch.shift~;
#X obj 306 279 nbx 4 18 -1e+37 1e+37 0 1 empty empty empty 0 -8 0 10 #191919 #ffffff #ffffff -54 256;
#X obj 359 279 nbx 4 18 -1e+37 1e+37 0 1 empty empty empty 0 -8 0 10 #191919 #ffffff #ffffff -11 256;
#X obj 306 306 * 100;
#X obj 359 306 * 1000;
#X obj 435 339 pitch.shift~;
#X obj 462 279 nbx 4 18 -1e+37 1e+37 0 1 empty empty empty 0 -8 0 10 #191919 #ffffff #ffffff 14 256;
#X obj 515 279 nbx 4 18 -1e+37 1e+37 0 1 empty empty empty 0 -8 0 10 #191919 #ffffff #ffffff 0.22 256;
#X obj 462 306 * 100;
#X obj 515 306 * 1000;
#X obj 579 339 pitch.shift~;
#X obj 606 279 nbx 4 18 -1e+37 1e+37 0 1 empty empty empty 0 -8 0 10 #191919 #ffffff #ffffff -47 256;
#X obj 659 279 nbx 4 18 -1e+37 1e+37 0 1 empty empty empty 0 -8 0 10 #191919 #ffffff #ffffff 5 256;
#X obj 606 306 * 100;
#X obj 659 306 * 1000;
#X obj 129 339 pitch.shift~;
#X obj 156 279 nbx 4 18 -1e+37 1e+37 0 1 empty empty empty 0 -8 0 10 #191919 #ffffff #ffffff -5 256;
#X obj 209 279 nbx 4 18 -1e+37 1e+37 0 1 empty empty empty 0 -8 0 10 #191919 #ffffff #ffffff 4.29 256;
#X obj 156 306 * 100;
#X obj 209 306 * 1000;
#X obj 279 459 pitch.shift~;
#X obj 306 399 nbx 4 18 -1e+37 1e+37 0 1 empty empty empty 0 -8 0 10 #191919 #ffffff #ffffff 1 256;
#X obj 359 399 nbx 4 18 -1e+37 1e+37 0 1 empty empty empty 0 -8 0 10 #191919 #ffffff #ffffff 0.7 256;
#X obj 306 426 * 100;
#X obj 359 426 * 1000;
#X obj 435 459 pitch.shift~;
#X obj 462 399 nbx 4 18 -1e+37 1e+37 0 1 empty empty empty 0 -8 0 10 #191919 #ffffff #ffffff 16 256;
#X obj 515 399 nbx 4 18 -1e+37 1e+37 0 1 empty empty empty 0 -8 0 10 #191919 #ffffff #ffffff 18.8 256;
#X obj 462 426 * 100;
#X obj 515 426 * 1000;
#X obj 579 459 pitch.shift~;
#X obj 606 399 nbx 4 18 -1e+37 1e+37 0 1 empty empty empty 0 -8 0 10 #191919 #ffffff #ffffff 4 256;
#X obj 659 399 nbx 4 18 -1e+37 1e+37 0 1 empty empty empty 0 -8 0 10 #191919 #ffffff #ffffff 1.2 256;
#X obj 606 426 * 100;
#X obj 659 426 * 1000;
#X obj 129 459 pitch.shift~;
#X obj 156 399 nbx 4 18 -1e+37 1e+37 0 1 empty empty empty 0 -8 0 10 #191919 #ffffff #ffffff -3 256;
#X obj 209 399 nbx 4 18 -1e+37 1e+37 0 1 empty empty empty 0 -8 0 10 #191919 #ffffff #ffffff 2.4 256;
#X obj 156 426 * 100;
#X obj 209 426 * 1000;
#X obj 9 209 catch~ out;
#X obj 129 129 throw~ out;
#X obj 279 129 throw~ out;
#X obj 435 129 throw~ out;
#X obj 579 129 throw~ out;
#X obj 129 249 throw~ out;
#X obj 279 249 throw~ out;
#X obj 435 249 throw~ out;
#X obj 579 249 throw~ out;
#X obj 129 369 throw~ out;
#X obj 279 369 throw~ out;
#X obj 435 369 throw~ out;
#X obj 579 369 throw~ out;
#X obj 129 489 throw~ out;
#X obj 279 489 throw~ out;
#X obj 435 489 throw~ out;
#X obj 579 489 throw~ out;
#X obj 9 259 /~ 16;
#X msg 79 339 stop;
#X obj 59 379 writesf~;
#X msg 19 9 open happy_place.wav;
#X obj 84 39 tgl 25 0 empty empty empty 17 7 0 10 #191919 #ffffff #ffffff 0 1;
#X obj 19 69 readsf~ 2;
#X msg 49 289 open out.wav \, start, f 13;
#X connect 1 0 6 0 empty;
#X connect 1 0 83 0 empty;
#X connect 2 0 4 0 empty;
#X connect 3 0 5 0 empty;
#X connect 4 0 1 1 empty;
#X connect 5 0 1 2 empty;
#X connect 6 0 11 0 empty;
#X connect 6 0 84 0 empty;
#X connect 7 0 9 0 empty;
#X connect 8 0 10 0 empty;
#X connect 9 0 6 1 empty;
#X connect 10 0 6 2 empty;
#X connect 11 0 36 0 empty;
#X connect 11 0 85 0 empty;
#X connect 12 0 14 0 empty;
#X connect 13 0 15 0 empty;
#X connect 14 0 11 1 empty;
#X connect 15 0 11 2 empty;
#X connect 16 0 1 0 empty;
#X connect 16 0 82 0 empty;
#X connect 17 0 19 0 empty;
#X connect 18 0 20 0 empty;
#X connect 19 0 16 1 empty;
#X connect 20 0 16 2 empty;
#X connect 21 0 26 0 empty;
#X connect 21 0 87 0 empty;
#X connect 22 0 24 0 empty;
#X connect 23 0 25 0 empty;
#X connect 24 0 21 1 empty;
#X connect 25 0 21 2 empty;
#X connect 26 0 31 0 empty;
#X connect 26 0 88 0 empty;
#X connect 27 0 29 0 empty;
#X connect 28 0 30 0 empty;
#X connect 29 0 26 1 empty;
#X connect 30 0 26 2 empty;
#X connect 31 0 56 0 empty;
#X connect 31 0 89 0 empty;
#X connect 32 0 34 0 empty;
#X connect 33 0 35 0 empty;
#X connect 34 0 31 1 empty;
#X connect 35 0 31 2 empty;
#X connect 36 0 21 0 empty;
#X connect 36 0 86 0 empty;
#X connect 37 0 39 0 empty;
#X connect 38 0 40 0 empty;
#X connect 39 0 36 1 empty;
#X connect 40 0 36 2 empty;
#X connect 41 0 46 0 empty;
#X connect 41 0 91 0 empty;
#X connect 42 0 44 0 empty;
#X connect 43 0 45 0 empty;
#X connect 44 0 41 1 empty;
#X connect 45 0 41 2 empty;
#X connect 46 0 51 0 empty;
#X connect 46 0 92 0 empty;
#X connect 47 0 49 0 empty;
#X connect 48 0 50 0 empty;
#X connect 49 0 46 1 empty;
#X connect 50 0 46 2 empty;
#X connect 51 0 76 0 empty;
#X connect 51 0 93 0 empty;
#X connect 52 0 54 0 empty;
#X connect 53 0 55 0 empty;
#X connect 54 0 51 1 empty;
#X connect 55 0 51 2 empty;
#X connect 56 0 41 0 empty;
#X connect 56 0 90 0 empty;
#X connect 57 0 59 0 empty;
#X connect 58 0 60 0 empty;
#X connect 59 0 56 1 empty;
#X connect 60 0 56 2 empty;
#X connect 61 0 66 0 empty;
#X connect 61 0 95 0 empty;
#X connect 62 0 64 0 empty;
#X connect 63 0 65 0 empty;
#X connect 64 0 61 1 empty;
#X connect 65 0 61 2 empty;
#X connect 66 0 71 0 empty;
#X connect 66 0 96 0 empty;
#X connect 67 0 69 0 empty;
#X connect 68 0 70 0 empty;
#X connect 69 0 66 1 empty;
#X connect 70 0 66 2 empty;
#X connect 71 0 97 0 empty;
#X connect 72 0 74 0 empty;
#X connect 73 0 75 0 empty;
#X connect 74 0 71 1 empty;
#X connect 75 0 71 2 empty;
#X connect 76 0 61 0 empty;
#X connect 76 0 94 0 empty;
#X connect 77 0 79 0 empty;
#X connect 78 0 80 0 empty;
#X connect 79 0 76 1 empty;
#X connect 80 0 76 2 empty;
#X connect 81 0 98 0 empty;
#X connect 98 0 0 0 empty;
#X connect 98 0 0 1 empty;
#X connect 98 0 100 0 empty;
#X connect 99 0 100 0 empty;
#X connect 101 0 103 0 empty;
#X connect 102 0 103 0 empty;
#X connect 103 0 16 0 empty;
#X connect 103 1 16 0 empty;
#X connect 104 0 100 0 empty;
