#N canvas 827 239 527 327 12;
#X obj 29 689 dac~;
#X obj 99 139 plaits~;
#N canvas 0 50 450 250 (subpatch) 1;
#X obj 199 69 nbx 4 18 0 15 0 1 empty empty empty 0 -8 0 10 #191919 #ffffff #ffffff 0 256;
#X obj 199 89 nbx 4 18 0 1 0 1 empty empty empty 0 -8 0 10 #191919 #ffffff #ffffff 0.92 256;
#X obj 199 109 nbx 4 18 0 1 0 1 empty empty empty 0 -8 0 10 #191919 #ffffff #ffffff 0.85 256;
#X obj 199 129 nbx 4 18 0 1 0 1 empty empty empty 0 -8 0 10 #191919 #ffffff #ffffff 0.12 256;
#X msg 209 239 harmonics \$1;
#X msg 229 269 timbre \$1;
#X msg 249 299 morph \$1;
#X obj 211 354 outlet;
#X msg 179 209 model \$1;
#X obj 139 9 inlet;
#X obj 179 9 inlet;
#X obj 219 9 inlet;
#X obj 259 9 inlet;
#X connect 0 0 8 0 empty;
#X connect 1 0 4 0 empty;
#X connect 2 0 5 0 empty;
#X connect 3 0 6 0 empty;
#X connect 4 0 7 0 empty;
#X connect 5 0 7 0 empty;
#X connect 6 0 7 0 empty;
#X connect 8 0 7 0 empty;
#X connect 9 0 0 0 empty;
#X connect 10 0 1 0 empty;
#X connect 11 0 2 0 empty;
#X connect 12 0 3 0 empty;
#X coords 0 1 100 -1 51 83 1 197 67;
#X restore 105 39 graph;
#N canvas 0 50 450 250 (subpatch) 1;
#X msg 79 169 decay \$1;
#X obj 120 95 nbx 4 18 0 1 0 1 empty empty empty 0 -8 0 10 #191919 #ffffff #ffffff 0.14 256;
#X msg 19 129 trigger \$1;
#X obj 120 69 tgl 25 1 empty empty empty 17 7 0 10 #191919 #ffffff #ffffff 1 1;
#X obj 99 19 inlet;
#X obj 159 19 inlet;
#X obj 19 229 outlet;
#X connect 0 0 6 0 empty;
#X connect 1 0 0 0 empty;
#X connect 2 0 6 0 empty;
#X connect 3 0 2 0 empty;
#X connect 4 0 3 0 empty;
#X connect 5 0 1 0 empty;
#X coords 0 1 100 -1 49 48 1 119 67;
#X restore 169 69 graph;
#X obj 15 79 bng 25 250 50 0 empty empty empty 17 7 0 10 #191919 #ffffff #ffffff;
#X obj 45 79 nbx 4 18 -1e+37 1e+37 0 0 empty empty empty 0 -8 0 10 #191919 #ffffff #ffffff 0 256;
#X obj 229 259 pitch.shift~;
#X obj 256 199 nbx 4 18 -1e+37 1e+37 0 1 empty empty empty 0 -8 0 10 #191919 #ffffff #ffffff -15 256;
#X obj 309 199 nbx 4 18 -1e+37 1e+37 0 1 empty empty empty 0 -8 0 10 #191919 #ffffff #ffffff 3.1 256;
#X obj 659 479 meter;
#X obj 659 508 nbx 4 18 -1e+37 1e+37 0 0 empty empty empty 0 -8 0 10 #191919 #ffffff #ffffff 0 256;
#X obj 256 226 * 100;
#X obj 309 226 * 1000;
#X obj 385 259 pitch.shift~;
#X obj 412 199 nbx 4 18 -1e+37 1e+37 0 1 empty empty empty 0 -8 0 10 #191919 #ffffff #ffffff 7 256;
#X obj 465 199 nbx 4 18 -1e+37 1e+37 0 1 empty empty empty 0 -8 0 10 #191919 #ffffff #ffffff 3.3 256;
#X obj 412 226 * 100;
#X obj 465 226 * 1000;
#X obj 531 259 pitch.shift~;
#X obj 558 199 nbx 4 18 -1e+37 1e+37 0 1 empty empty empty 0 -8 0 10 #191919 #ffffff #ffffff 3 256;
#X obj 611 199 nbx 4 18 -1e+37 1e+37 0 1 empty empty empty 0 -8 0 10 #191919 #ffffff #ffffff 0.2 256;
#X obj 558 226 * 100;
#X obj 611 226 * 1000;
#X obj 79 259 pitch.shift~;
#X obj 106 199 nbx 4 18 -1e+37 1e+37 0 1 empty empty empty 0 -8 0 10 #191919 #ffffff #ffffff 12 256;
#X obj 159 199 nbx 4 18 -1e+37 1e+37 0 1 empty empty empty 0 -8 0 10 #191919 #ffffff #ffffff 0.5 256;
#X obj 106 226 * 100;
#X obj 159 226 * 1000;
#X obj 179 379 pitch.shift~;
#X obj 206 319 nbx 4 18 -1e+37 1e+37 0 1 empty empty empty 0 -8 0 10 #191919 #ffffff #ffffff 5 256;
#X obj 259 319 nbx 4 18 -1e+37 1e+37 0 1 empty empty empty 0 -8 0 10 #191919 #ffffff #ffffff 0 256;
#X obj 206 346 * 100;
#X obj 259 346 * 1000;
#X obj 335 379 pitch.shift~;
#X obj 362 319 nbx 4 18 -1e+37 1e+37 0 1 empty empty empty 0 -8 0 10 #191919 #ffffff #ffffff -2 256;
#X obj 415 319 nbx 4 18 -1e+37 1e+37 0 1 empty empty empty 0 -8 0 10 #191919 #ffffff #ffffff 0.03 256;
#X obj 362 346 * 100;
#X obj 415 346 * 1000;
#X obj 481 379 pitch.shift~;
#X obj 508 319 nbx 4 18 -1e+37 1e+37 0 1 empty empty empty 0 -8 0 10 #191919 #ffffff #ffffff 5 256;
#X obj 561 319 nbx 4 18 -1e+37 1e+37 0 1 empty empty empty 0 -8 0 10 #191919 #ffffff #ffffff 0.04 256;
#X obj 508 346 * 100;
#X obj 561 346 * 1000;
#X obj 29 379 pitch.shift~;
#X obj 56 319 nbx 4 18 -1e+37 1e+37 0 1 empty empty empty 0 -8 0 10 #191919 #ffffff #ffffff -1 256;
#X obj 109 319 nbx 4 18 -1e+37 1e+37 0 1 empty empty empty 0 -8 0 10 #191919 #ffffff #ffffff 0.5 256;
#X obj 56 346 * 100;
#X obj 109 346 * 1000;
#X obj 217 469 pitch.shift~;
#X obj 244 409 nbx 4 18 -1e+37 1e+37 0 1 empty empty empty 0 -8 0 10 #191919 #ffffff #ffffff 5 256;
#X obj 297 409 nbx 4 18 -1e+37 1e+37 0 1 empty empty empty 0 -8 0 10 #191919 #ffffff #ffffff 0.4 256;
#X obj 244 436 * 100;
#X obj 297 436 * 1000;
#X obj 373 469 pitch.shift~;
#X obj 400 409 nbx 4 18 -1e+37 1e+37 0 1 empty empty empty 0 -8 0 10 #191919 #ffffff #ffffff 0.6 256;
#X obj 453 409 nbx 4 18 -1e+37 1e+37 0 1 empty empty empty 0 -8 0 10 #191919 #ffffff #ffffff 0.13 256;
#X obj 400 436 * 100;
#X obj 453 436 * 1000;
#X obj 519 469 pitch.shift~;
#X obj 546 409 nbx 4 18 -1e+37 1e+37 0 1 empty empty empty 0 -8 0 10 #191919 #ffffff #ffffff -3 256;
#X obj 599 409 nbx 4 18 -1e+37 1e+37 0 1 empty empty empty 0 -8 0 10 #191919 #ffffff #ffffff 3.4 256;
#X obj 546 436 * 100;
#X obj 599 436 * 1000;
#X obj 67 469 pitch.shift~;
#X obj 94 409 nbx 4 18 -1e+37 1e+37 0 1 empty empty empty 0 -8 0 10 #191919 #ffffff #ffffff -2 256;
#X obj 147 409 nbx 4 18 -1e+37 1e+37 0 1 empty empty empty 0 -8 0 10 #191919 #ffffff #ffffff 0.9 256;
#X obj 94 436 * 100;
#X obj 147 436 * 1000;
#X obj 167 589 pitch.shift~;
#X obj 194 529 nbx 4 18 -1e+37 1e+37 0 1 empty empty empty 0 -8 0 10 #191919 #ffffff #ffffff 18 256;
#X obj 247 529 nbx 4 18 -1e+37 1e+37 0 1 empty empty empty 0 -8 0 10 #191919 #ffffff #ffffff 0.7 256;
#X obj 194 556 * 100;
#X obj 247 556 * 1000;
#X obj 323 589 pitch.shift~;
#X obj 350 529 nbx 4 18 -1e+37 1e+37 0 1 empty empty empty 0 -8 0 10 #191919 #ffffff #ffffff -2 256;
#X obj 403 529 nbx 4 18 -1e+37 1e+37 0 1 empty empty empty 0 -8 0 10 #191919 #ffffff #ffffff 0.7 256;
#X obj 350 556 * 100;
#X obj 403 556 * 1000;
#X obj 469 589 pitch.shift~;
#X obj 496 529 nbx 4 18 -1e+37 1e+37 0 1 empty empty empty 0 -8 0 10 #191919 #ffffff #ffffff 4 256;
#X obj 549 529 nbx 4 18 -1e+37 1e+37 0 1 empty empty empty 0 -8 0 10 #191919 #ffffff #ffffff 1.2 256;
#X obj 496 556 * 100;
#X obj 549 556 * 1000;
#X obj 17 589 pitch.shift~;
#X obj 44 529 nbx 4 18 -1e+37 1e+37 0 1 empty empty empty 0 -8 0 10 #191919 #ffffff #ffffff -3 256;
#X obj 97 529 nbx 4 18 -1e+37 1e+37 0 1 empty empty empty 0 -8 0 10 #191919 #ffffff #ffffff 2.4 256;
#X obj 44 556 * 100;
#X obj 97 556 * 1000;
#X connect 1 0 23 0 empty;
#X connect 2 0 1 0 empty;
#X connect 3 0 1 0 32.................J....r6+++uB....69+++aA....;
#X connect 4 0 1 0 empty;
#X connect 5 0 1 0 empty;
#X connect 6 0 13 0 empty;
#X connect 6 0 0 0 empty;
#X connect 6 0 0 1 empty;
#X connect 7 0 11 0 empty;
#X connect 8 0 12 0 empty;
#X connect 9 0 10 0 empty;
#X connect 11 0 6 1 empty;
#X connect 12 0 6 2 empty;
#X connect 13 0 18 0 empty;
#X connect 13 0 0 0 empty;
#X connect 13 0 0 1 empty;
#X connect 14 0 16 0 empty;
#X connect 15 0 17 0 empty;
#X connect 16 0 13 1 empty;
#X connect 17 0 13 2 empty;
#X connect 18 0 43 0 empty;
#X connect 18 0 0 0 empty;
#X connect 18 0 0 1 empty;
#X connect 19 0 21 0 empty;
#X connect 20 0 22 0 empty;
#X connect 21 0 18 1 empty;
#X connect 22 0 18 2 empty;
#X connect 23 0 6 0 empty;
#X connect 23 0 0 0 empty;
#X connect 23 0 0 1 empty;
#X connect 24 0 26 0 empty;
#X connect 25 0 27 0 empty;
#X connect 26 0 23 1 empty;
#X connect 27 0 23 2 empty;
#X connect 28 0 33 0 empty;
#X connect 28 0 0 0 empty;
#X connect 28 0 0 1 empty;
#X connect 29 0 31 0 empty;
#X connect 30 0 32 0 empty;
#X connect 31 0 28 1 empty;
#X connect 32 0 28 2 empty;
#X connect 33 0 38 0 empty;
#X connect 33 0 0 0 empty;
#X connect 33 0 0 1 empty;
#X connect 34 0 36 0 empty;
#X connect 35 0 37 0 empty;
#X connect 36 0 33 1 empty;
#X connect 37 0 33 2 empty;
#X connect 38 0 0 0 empty;
#X connect 38 0 0 1 empty;
#X connect 38 0 63 0 empty;
#X connect 39 0 41 0 empty;
#X connect 40 0 42 0 empty;
#X connect 41 0 38 1 empty;
#X connect 42 0 38 2 empty;
#X connect 43 0 28 0 empty;
#X connect 43 0 0 0 empty;
#X connect 44 0 46 0 empty;
#X connect 45 0 47 0 empty;
#X connect 46 0 43 1 empty;
#X connect 47 0 43 2 empty;
#X connect 48 0 53 0 empty;
#X connect 48 0 0 0 empty;
#X connect 48 0 0 1 empty;
#X connect 49 0 51 0 empty;
#X connect 50 0 52 0 empty;
#X connect 51 0 48 1 empty;
#X connect 52 0 48 2 empty;
#X connect 53 0 58 0 empty;
#X connect 53 0 0 0 empty;
#X connect 53 0 0 1 empty;
#X connect 54 0 56 0 empty;
#X connect 55 0 57 0 empty;
#X connect 56 0 53 1 empty;
#X connect 57 0 53 2 empty;
#X connect 58 0 83 0 empty;
#X connect 58 0 0 0 empty;
#X connect 58 0 0 1 empty;
#X connect 59 0 61 0 empty;
#X connect 60 0 62 0 empty;
#X connect 61 0 58 1 empty;
#X connect 62 0 58 2 empty;
#X connect 63 0 48 0 empty;
#X connect 63 0 0 0 empty;
#X connect 63 0 0 1 empty;
#X connect 64 0 66 0 empty;
#X connect 65 0 67 0 empty;
#X connect 66 0 63 1 empty;
#X connect 67 0 63 2 empty;
#X connect 68 0 73 0 empty;
#X connect 68 0 0 0 empty;
#X connect 68 0 0 1 empty;
#X connect 69 0 71 0 empty;
#X connect 70 0 72 0 empty;
#X connect 71 0 68 1 empty;
#X connect 72 0 68 2 empty;
#X connect 73 0 78 0 empty;
#X connect 73 0 0 0 empty;
#X connect 73 0 0 1 empty;
#X connect 74 0 76 0 empty;
#X connect 75 0 77 0 empty;
#X connect 76 0 73 1 empty;
#X connect 77 0 73 2 empty;
#X connect 78 0 0 0 empty;
#X connect 78 0 0 1 empty;
#X connect 79 0 81 0 empty;
#X connect 80 0 82 0 empty;
#X connect 81 0 78 1 empty;
#X connect 82 0 78 2 empty;
#X connect 83 0 68 0 empty;
#X connect 83 0 0 0 empty;
#X connect 83 0 0 1 empty;
#X connect 84 0 86 0 empty;
#X connect 85 0 87 0 empty;
#X connect 86 0 83 1 empty;
#X connect 87 0 83 2 empty;
