#N canvas 827 239 527 327 12;
#N canvas 0 50 450 250 (subpatch) 0;
#X text 0 0 plugdatainfo <?xml version="1.0" encoding="UTF-8"?> <plugdatainfo/>;
#X coords 0 1 100 -1 1 1 1;
#X restore 0 0 graph;
#X obj 117 593 dac~;
#X obj 117 543 grain.sampler~ -t wow;
#X listbox 565 566 19 0 0 0 - - - 0;
#X obj 117 151 metro;
#X obj 117 218 nbx 4 18 -1e+37 1e+37 0 0 empty empty empty 0 -8 0 10 #e4e4e4 #5a5a5a #5a5a5a 0 256;
#X msg 208 101 tempo \$1 persec, f 17;
#X obj 208 68 nbx 4 18 -1e+37 1e+37 0 1 empty empty empty 0 -8 0 10 #e4e4e4 #5a5a5a #5a5a5a 45 256;
#X obj 117 252 euclid 10 8 0;
#X obj 117 359 euclid 5 2 0;
#X obj 117 325 nbx 4 18 -1e+37 1e+37 0 0 empty empty empty 0 -8 0 10 #e4e4e4 #5a5a5a #5a5a5a 0 256;
#X obj 218 269 nbx 4 18 -1e+37 1e+37 0 1 empty empty empty 0 -8 0 10 #e4e4e4 #5a5a5a #5a5a5a 22 256;
#X obj 200 329 nbx 4 18 -1e+37 1e+37 0 1 empty empty empty 0 -8 0 10 #e4e4e4 #5a5a5a #5a5a5a 4 256;
#X obj 200 161 nbx 4 18 -1e+37 1e+37 0 1 empty empty empty 0 -8 0 10 #e4e4e4 #5a5a5a #5a5a5a 42 256;
#X obj 200 212 nbx 4 18 -1e+37 1e+37 0 1 empty empty empty 0 -8 0 10 #e4e4e4 #5a5a5a #5a5a5a 6 256;
#X msg 350 421 dur \$1, f 8;
#X msg 422 421 rev \$1, f 8;
#X obj 350 378 nbx 4 17 -1e+37 1e+37 0 1 empty empty empty 0 -8 0 10 #e4e4e4 #5a5a5a #5a5a5a 116 256;
#X obj 422 378 nbx 4 17 -1e+37 1e+37 0 1 empty empty empty 0 -8 0 10 #e4e4e4 #5a5a5a #5a5a5a 77 256;
#X msg 178 415 sr 48000, f 10;
#X obj 285 378 nbx 4 17 -1e+37 1e+37 0 1 empty empty empty 0 -8 0 10 #e4e4e4 #5a5a5a #5a5a5a 70 256;
#X msg 285 421 n \$1, f 6;
#X obj 117 98 loadbang;
#X msg 495 384 env tanh, f 10;
#X obj 117 185 count 42;
#X obj 117 296 count 22;
#X msg 495 421 autotune 0, f 12;
#X msg 285 329 size \$1 \$2, f 11;
#X obj 285 296 pack;
#X obj 395 296 pack;
#X obj 285 260 nbx 4 18 -1e+37 1e+37 0 1 empty empty empty 0 -8 0 10 #e4e4e4 #5a5a5a #5a5a5a 4 256;
#X obj 337 260 nbx 4 18 -1e+37 1e+37 0 1 empty empty empty 0 -8 0 10 #e4e4e4 #5a5a5a #5a5a5a 43 256;
#X obj 395 218 nbx 4 18 -1e+37 1e+37 0 1 empty empty empty 0 -8 0 10 #e4e4e4 #5a5a5a #5a5a5a -6 256;
#X obj 454 218 nbx 4 18 -1e+37 1e+37 0 1 empty empty empty 0 -8 0 10 #e4e4e4 #5a5a5a #5a5a5a 5 256;
#X msg 395 329 transp \$1 \$2, f 13;
#X obj 454 252 * 1000;
#X obj 395 252 * 1000;
#X obj 565 526 sample~ wow 018.wav;
#X obj 523 198 function 200 100 empty empty 0 1 228 228 228 255 35 175 0 0 0 0 0 1000 0;
#X msg 523 325 env \$1, f 8;
#X msg 597 424 amp 0.05 0.3, f 14;
#X obj 600 351 pack;
#X obj 600 315 nbx 4 18 -1e+37 1e+37 0 1 empty empty empty 0 -8 0 10 #e4e4e4 #5a5a5a #5a5a5a -1 256;
#X obj 652 315 nbx 4 18 -1e+37 1e+37 0 1 empty empty empty 0 -8 0 10 #e4e4e4 #5a5a5a #5a5a5a 1 256;
#X msg 600 384 pan \$1 \$2, f 11;
#X connect 2 0 1 0;
#X connect 2 1 1 1;
#X connect 4 0 24 0;
#X connect 5 0 8 0;
#X connect 6 0 4 0;
#X connect 7 0 6 0;
#X connect 8 0 25 0;
#X connect 9 0 2 0;
#X connect 10 0 9 0;
#X connect 11 0 9 1;
#X connect 11 0 25 1;
#X connect 12 0 9 2;
#X connect 13 0 8 1;
#X connect 13 0 24 1;
#X connect 14 0 8 2;
#X connect 15 0 2 0;
#X connect 16 0 2 0;
#X connect 17 0 15 0;
#X connect 18 0 16 0;
#X connect 19 0 2 0;
#X connect 20 0 21 0;
#X connect 21 0 2 0;
#X connect 22 0 4 0;
#X connect 22 0 7 0;
#X connect 22 0 30 0;
#X connect 22 0 31 0;
#X connect 22 0 32 0;
#X connect 22 0 33 0;
#X connect 22 0 20 0;
#X connect 22 0 17 0;
#X connect 22 0 18 0;
#X connect 22 0 42 0;
#X connect 22 0 43 0;
#X connect 22 0 13 0;
#X connect 22 0 14 0;
#X connect 22 0 11 0;
#X connect 22 0 12 0;
#X connect 22 0 23 0;
#X connect 22 0 26 0;
#X connect 22 0 19 0;
#X connect 23 0 2 0;
#X connect 24 0 5 0;
#X connect 25 0 10 0;
#X connect 26 0 2 0;
#X connect 27 0 2 0;
#X connect 28 0 27 0;
#X connect 29 0 34 0;
#X connect 30 0 28 0;
#X connect 31 0 28 1;
#X connect 32 0 36 0;
#X connect 33 0 35 0;
#X connect 34 0 2 0;
#X connect 35 0 29 1;
#X connect 36 0 29 0;
#X connect 37 0 3 0;
#X connect 38 0 39 0;
#X connect 39 0 2 0;
#X connect 40 0 2 0;
#X connect 41 0 44 0;
#X connect 42 0 41 0;
#X connect 43 0 41 1;
#X connect 44 0 2 0;
