#N canvas 827 239 527 327 12;
#N canvas 0 50 450 250 (subpatch) 0;
#X text 0 0 plugdatainfo <?xml version="1.0" encoding="UTF-8"?> <plugdatainfo/>;
#X coords 0 1 100 -1 1 1 1;
#X restore 0 0 graph;
#X obj 116 521 dac~;
#X obj 116 477 grain.sampler~ -t wow;
#X listbox 564 500 19 0 0 0 - - - 0;
#X obj 116 85 metro;
#X obj 116 152 nbx 4 18 -1e+37 1e+37 0 0 empty empty empty 0 -8 0 10 #e4e4e4 #5a5a5a #5a5a5a 0 256;
#X msg 207 47 tempo \$1 persec, f 17;
#X obj 207 14 nbx 4 18 -1e+37 1e+37 0 1 empty empty empty 0 -8 0 10 #e4e4e4 #5a5a5a #5a5a5a 65 256;
#X obj 116 186 euclid 10 8 0;
#X obj 116 293 euclid 5 2 0;
#X obj 116 259 nbx 4 18 -1e+37 1e+37 0 0 empty empty empty 0 -8 0 10 #e4e4e4 #5a5a5a #5a5a5a 0 256;
#X obj 217 203 nbx 4 18 -1e+37 1e+37 0 1 empty empty empty 0 -8 0 10 #e4e4e4 #5a5a5a #5a5a5a 22 256;
#X obj 199 263 nbx 4 18 -1e+37 1e+37 0 1 empty empty empty 0 -8 0 10 #e4e4e4 #5a5a5a #5a5a5a 8 256;
#X obj 199 95 nbx 4 18 -1e+37 1e+37 0 1 empty empty empty 0 -8 0 10 #e4e4e4 #5a5a5a #5a5a5a 42 256;
#X obj 199 146 nbx 4 18 -1e+37 1e+37 0 1 empty empty empty 0 -8 0 10 #e4e4e4 #5a5a5a #5a5a5a 9 256;
#X msg 349 355 dur \$1, f 8;
#X msg 421 355 rev \$1, f 8;
#X obj 349 312 nbx 4 17 -1e+37 1e+37 0 1 empty empty empty 0 -8 0 10 #e4e4e4 #5a5a5a #5a5a5a 535 256;
#X obj 421 312 nbx 4 17 -1e+37 1e+37 0 1 empty empty empty 0 -8 0 10 #e4e4e4 #5a5a5a #5a5a5a 81 256;
#X msg 177 349 sr 48000, f 10;
#X obj 284 312 nbx 4 17 -1e+37 1e+37 0 1 empty empty empty 0 -8 0 10 #e4e4e4 #5a5a5a #5a5a5a 157 256;
#X msg 284 355 n \$1, f 6;
#X msg 494 318 env tanh, f 10;
#X obj 116 119 count 42;
#X obj 116 230 count 22;
#X msg 494 355 autotune 0, f 12;
#X msg 284 263 size \$1 \$2, f 11;
#X obj 284 230 pack;
#X obj 394 230 pack;
#X obj 284 194 nbx 4 18 -1e+37 1e+37 0 1 empty empty empty 0 -8 0 10 #e4e4e4 #5a5a5a #5a5a5a 9 256;
#X obj 336 194 nbx 4 18 -1e+37 1e+37 0 1 empty empty empty 0 -8 0 10 #e4e4e4 #5a5a5a #5a5a5a 84 256;
#X obj 394 152 nbx 4 18 -1e+37 1e+37 0 1 empty empty empty 0 -8 0 10 #e4e4e4 #5a5a5a #5a5a5a -11 256;
#X obj 453 152 nbx 4 18 -1e+37 1e+37 0 1 empty empty empty 0 -8 0 10 #e4e4e4 #5a5a5a #5a5a5a 10 256;
#X msg 394 263 transp \$1 \$2, f 13;
#X obj 453 186 * 1000;
#X obj 394 186 * 1000;
#X obj 564 460 sample~ wow 018.wav;
#X obj 522 132 function 200 100 empty empty 0 1 228 228 228 255 35 175 0 0 0 0 0 1000 0;
#X msg 522 259 env \$1, f 8;
#X msg 596 358 amp 0.05 0.3, f 14;
#X obj 599 285 pack;
#X obj 599 249 nbx 4 18 -1e+37 1e+37 0 1 empty empty empty 0 -8 0 10 #e4e4e4 #5a5a5a #5a5a5a -1 256;
#X obj 651 249 nbx 4 18 -1e+37 1e+37 0 1 empty empty empty 0 -8 0 10 #e4e4e4 #5a5a5a #5a5a5a 1 256;
#X msg 599 318 pan \$1 \$2, f 11;
#X obj 116 29 loadbang;
#X connect 2 0 1 0;
#X connect 2 1 1 1;
#X connect 4 0 23 0;
#X connect 5 0 8 0;
#X connect 6 0 4 0;
#X connect 7 0 6 0;
#X connect 8 0 24 0;
#X connect 9 0 2 0;
#X connect 10 0 9 0;
#X connect 11 0 9 1;
#X connect 11 0 24 1;
#X connect 12 0 9 2;
#X connect 13 0 8 1;
#X connect 13 0 23 1;
#X connect 14 0 8 2;
#X connect 15 0 2 0;
#X connect 16 0 2 0;
#X connect 17 0 15 0;
#X connect 18 0 16 0;
#X connect 19 0 2 0;
#X connect 20 0 21 0;
#X connect 21 0 2 0;
#X connect 22 0 2 0;
#X connect 23 0 5 0;
#X connect 24 0 10 0;
#X connect 25 0 2 0;
#X connect 26 0 2 0;
#X connect 27 0 26 0;
#X connect 28 0 33 0;
#X connect 29 0 27 0;
#X connect 30 0 27 1;
#X connect 31 0 35 0;
#X connect 32 0 34 0;
#X connect 33 0 2 0;
#X connect 34 0 28 1;
#X connect 35 0 28 0;
#X connect 36 0 3 0;
#X connect 37 0 38 0;
#X connect 38 0 2 0;
#X connect 39 0 2 0;
#X connect 40 0 43 0;
#X connect 41 0 40 0;
#X connect 42 0 40 1;
#X connect 43 0 2 0;
#X connect 44 0 4 0;
