#N canvas 827 239 527 327 12;
#N canvas 0 50 450 250 (subpatch) 0;
#X text 0 0 plugdatainfo <?xml version="1.0" encoding="UTF-8"?> <plugdatainfo/>;
#X coords 0 1 100 -1 1 1 1;
#X restore 0 0 graph;
#X obj 117 532 dac~;
#X obj 117 476 grain.sampler~ -t wow;
#X obj 117 397 bng 39 50 10 0 empty empty empty 17 7 0 10 #e4e4e4 #5a5a5a #5a5a5a;
#X listbox 565 532 19 0 0 0 - - - 0;
#X obj 565 492 sample~ wow 018.wav;
#X obj 117 175 count 10;
#X obj 117 141 metro;
#X msg 117 72 1, f 5;
#X obj 117 208 nbx 4 18 -1e+37 1e+37 0 0 empty empty empty 0 -8 0 10 #e4e4e4 #5a5a5a #5a5a5a 0 256;
#X msg 136 108 tempo \$1 persec, f 17;
#X obj 178 74 nbx 4 18 -1e+37 1e+37 0 1 empty empty empty 0 -8 0 10 #e4e4e4 #5a5a5a #5a5a5a 80 256;
#X obj 117 242 euclid 10 8 0;
#X obj 117 359 euclid 5 2 0;
#X obj 117 314 nbx 4 18 -1e+37 1e+37 0 0 empty empty empty 0 -8 0 10 #e4e4e4 #5a5a5a #5a5a5a 0 256;
#X obj 117 275 count 5;
#X obj 200 275 nbx 4 18 -1e+37 1e+37 0 1 empty empty empty 0 -8 0 10 #e4e4e4 #5a5a5a #5a5a5a 22 256;
#X obj 200 329 nbx 4 18 -1e+37 1e+37 0 1 empty empty empty 0 -8 0 10 #e4e4e4 #5a5a5a #5a5a5a 7 256;
#X obj 200 151 nbx 4 18 -1e+37 1e+37 0 1 empty empty empty 0 -8 0 10 #e4e4e4 #5a5a5a #5a5a5a 41 256;
#X obj 200 202 nbx 4 18 -1e+37 1e+37 0 1 empty empty empty 0 -8 0 10 #e4e4e4 #5a5a5a #5a5a5a 7 256;
#X msg 350 421 dur \$1, f 8;
#X msg 422 421 rev \$1, f 8;
#X obj 350 378 nbx 4 17 -1e+37 1e+37 0 1 empty empty empty 0 -8 0 10 #e4e4e4 #5a5a5a #5a5a5a 298 256;
#X obj 422 378 nbx 4 17 -1e+37 1e+37 0 1 empty empty empty 0 -8 0 10 #e4e4e4 #5a5a5a #5a5a5a 51 256;
#X msg 178 415 sr 48000, f 10;
#X obj 285 378 nbx 4 17 -1e+37 1e+37 0 1 empty empty empty 0 -8 0 10 #e4e4e4 #5a5a5a #5a5a5a 60 256;
#X msg 285 421 n \$1, f 6;
#X obj 117 24 loadbang;
#X connect 2 0 1 0;
#X connect 2 1 1 1;
#X connect 3 0 2 0;
#X connect 5 0 4 0;
#X connect 6 0 9 0;
#X connect 7 0 6 0;
#X connect 8 0 7 0;
#X connect 8 0 10 0;
#X connect 9 0 12 0;
#X connect 10 0 7 0;
#X connect 11 0 10 0;
#X connect 12 0 15 0;
#X connect 13 0 3 0;
#X connect 14 0 13 0;
#X connect 15 0 14 0;
#X connect 16 0 13 1;
#X connect 16 0 15 1;
#X connect 17 0 13 2;
#X connect 18 0 12 1;
#X connect 18 0 6 1;
#X connect 19 0 12 2;
#X connect 20 0 2 0;
#X connect 21 0 2 0;
#X connect 22 0 20 0;
#X connect 23 0 21 0;
#X connect 24 0 2 0;
#X connect 25 0 26 0;
#X connect 26 0 2 0;
#X connect 27 0 11 0;
#X connect 27 0 8 0;
