#N canvas 827 239 527 327 12;
#N canvas 0 50 450 250 (subpatch) 0;
#X text 0 0 plugdatainfo <?xml version="1.0" encoding="UTF-8"?> <plugdatainfo/>;
#X coords 0 1 100 -1 1 1 1;
#X restore 0 0 graph;
#X obj 117 593 dac~;
#X obj 117 543 grain.sampler~ -t wow;
#X listbox 565 566 19 0 0 0 - - - 0;
#X obj 565 526 sample~ wow 018.wav;
#X obj 117 151 metro;
#X msg 117 82 1, f 5;
#X obj 117 218 nbx 4 18 -1e+37 1e+37 0 0 empty empty empty 0 -8 0 10 #e4e4e4 #5a5a5a #5a5a5a 0 256;
#X msg 136 118 tempo \$1 persec, f 17;
#X obj 178 84 nbx 4 18 -1e+37 1e+37 0 1 empty empty empty 0 -8 0 10 #e4e4e4 #5a5a5a #5a5a5a 37 256;
#X obj 117 252 euclid 10 8 0;
#X obj 117 359 euclid 5 2 0;
#X obj 117 325 nbx 4 18 -1e+37 1e+37 0 0 empty empty empty 0 -8 0 10 #e4e4e4 #5a5a5a #5a5a5a 0 256;
#X obj 218 269 nbx 4 18 -1e+37 1e+37 0 1 empty empty empty 0 -8 0 10 #e4e4e4 #5a5a5a #5a5a5a 25 256;
#X obj 200 329 nbx 4 18 -1e+37 1e+37 0 1 empty empty empty 0 -8 0 10 #e4e4e4 #5a5a5a #5a5a5a 7 256;
#X obj 200 161 nbx 4 18 -1e+37 1e+37 0 1 empty empty empty 0 -8 0 10 #e4e4e4 #5a5a5a #5a5a5a 44 256;
#X obj 200 212 nbx 4 18 -1e+37 1e+37 0 1 empty empty empty 0 -8 0 10 #e4e4e4 #5a5a5a #5a5a5a 9 256;
#X msg 350 421 dur \$1, f 8;
#X msg 422 421 rev \$1, f 8;
#X obj 350 378 nbx 4 17 -1e+37 1e+37 0 1 empty empty empty 0 -8 0 10 #e4e4e4 #5a5a5a #5a5a5a 213 256;
#X obj 422 378 nbx 4 17 -1e+37 1e+37 0 1 empty empty empty 0 -8 0 10 #e4e4e4 #5a5a5a #5a5a5a 77 256;
#X msg 178 415 sr 48000, f 10;
#X obj 285 378 nbx 4 17 -1e+37 1e+37 0 1 empty empty empty 0 -8 0 10 #e4e4e4 #5a5a5a #5a5a5a 70 256;
#X msg 285 421 n \$1, f 6;
#X obj 117 34 loadbang;
#X msg 495 384 env tanh, f 10;
#X msg 597 424 amp 0.05 0.1, f 14;
#X obj 117 185 count 42;
#X obj 117 296 count 22;
#X msg 495 421 autotune 0, f 12;
#X msg 285 329 size \$1 \$2, f 11;
#X obj 285 296 pack;
#X obj 395 296 pack;
#X obj 285 260 nbx 4 18 -1e+37 1e+37 0 1 empty empty empty 0 -8 0 10 #e4e4e4 #5a5a5a #5a5a5a 15 256;
#X obj 337 260 nbx 4 18 -1e+37 1e+37 0 1 empty empty empty 0 -8 0 10 #e4e4e4 #5a5a5a #5a5a5a 99 256;
#X obj 395 218 nbx 4 18 -1e+37 1e+37 0 1 empty empty empty 0 -8 0 10 #e4e4e4 #5a5a5a #5a5a5a -5 256;
#X obj 454 218 nbx 4 18 -1e+37 1e+37 0 1 empty empty empty 0 -8 0 10 #e4e4e4 #5a5a5a #5a5a5a 7 256;
#X msg 395 329 transp \$1 \$2, f 13;
#X obj 454 252 * 1000;
#X obj 395 252 * 1000;
#X connect 2 0 1 0;
#X connect 2 1 1 1;
#X connect 4 0 3 0;
#X connect 5 0 27 0;
#X connect 6 0 5 0;
#X connect 6 0 8 0;
#X connect 7 0 10 0;
#X connect 8 0 5 0;
#X connect 9 0 8 0;
#X connect 10 0 28 0;
#X connect 11 0 2 0;
#X connect 12 0 11 0;
#X connect 13 0 11 1;
#X connect 13 0 28 1;
#X connect 14 0 11 2;
#X connect 15 0 10 1;
#X connect 15 0 27 1;
#X connect 16 0 10 2;
#X connect 17 0 2 0;
#X connect 18 0 2 0;
#X connect 19 0 17 0;
#X connect 20 0 18 0;
#X connect 21 0 2 0;
#X connect 22 0 23 0;
#X connect 23 0 2 0;
#X connect 24 0 9 0;
#X connect 24 0 6 0;
#X connect 25 0 2 0;
#X connect 26 0 2 0;
#X connect 27 0 7 0;
#X connect 28 0 12 0;
#X connect 29 0 2 0;
#X connect 30 0 2 0;
#X connect 31 0 30 0;
#X connect 32 0 37 0;
#X connect 33 0 31 0;
#X connect 34 0 31 1;
#X connect 35 0 39 0;
#X connect 36 0 38 0;
#X connect 37 0 2 0;
#X connect 38 0 32 1;
#X connect 39 0 32 0;
