#N canvas 827 239 527 548 12;
#X obj 73 241 oscope~ 296 297 2 3 256 -1 1 0 0 0 0 255 255 255 29 29 29 31 31 31 0 empty;
#X obj 111 125 nbx 4 18 -1e+37 1e+37 0 1 empty empty empty 0 -8 0 10 #e4e4e4 #5a5a5a #5a5a5a -21 256;
#X obj 162 125 nbx 4 18 -1e+37 1e+37 0 1 empty empty empty 0 -8 0 10 #e4e4e4 #5a5a5a #5a5a5a 5 256;
#X obj 213 125 nbx 4 18 -1e+37 1e+37 0 1 empty empty empty 0 -8 0 10 #e4e4e4 #5a5a5a #5a5a5a 6.9 256;
#X obj 264 125 nbx 4 18 -1e+37 1e+37 0 1 empty empty empty 0 -8 0 10 #e4e4e4 #5a5a5a #5a5a5a 10.28 256;
#X obj 315 125 nbx 4 18 -1e+37 1e+37 0 1 empty empty empty 0 -8 0 10 #e4e4e4 #5a5a5a #5a5a5a -1.7 256;
#X obj 366 125 nbx 4 18 -1e+37 1e+37 0 1 empty empty empty 0 -8 0 10 #e4e4e4 #5a5a5a #5a5a5a 0.6 256;
#X obj 417 125 nbx 4 18 -1e+37 1e+37 0 1 empty empty empty 0 -8 0 10 #e4e4e4 #5a5a5a #5a5a5a 2.2 256;
#X text 117 99 m1, f 4;
#X text 170 100 m2, f 6;
#X text 221 100 n1, f 5;
#X text 270 99 n2, f 4;
#X text 321 99 n3, f 4;
#X text 379 100 a, f 4;
#X text 430 100 b, f 4;
#X obj 21 16 notein, f 7;
#X obj 38 112 mtof;
#X obj 21 151 pack f f f;
#X obj 375 241 clip~ -1 1;
#X obj 448 241 clip~ -1 1;
#X obj 375 282 dac~;
#X obj 73 197 clone -s 1 rotation 8;
#X obj 21 59 poly 8 1;
#X connect 1 0 21 1 32.................H....v9+++OB....r++++aC....;
#X connect 2 0 21 2 32.................M....n7+++eC....J++++aC....;
#X connect 3 0 21 3 32.................U....f5+++eE....n9+++aC....;
#X connect 4 0 21 4 32.................a....X3++++F....F9+++aC....;
#X connect 5 0 21 5 32.................h....P1+++uH....j8+++aC....;
#X connect 6 0 21 6 32.................o....Hz+++eJ....B8+++aC....;
#X connect 7 0 21 7 32.................v.....x+++OL....f7+++aC....;
#X connect 15 0 22 0 empty;
#X connect 15 1 22 1 32.................L....PA....C....T....bA....;
#X connect 16 0 17 1 32.................J....L....fB....C....LA....;
#X connect 17 0 21 0 32.................M....PC...PC....z....nA....;
#X connect 18 0 20 0 32.................K.........vB.........TA....;
#X connect 19 0 20 1 32.................K....n7++++B....J++++WA....;
#X connect 21 0 0 0 empty;
#X connect 21 0 18 0 32.................U....HT...PE....BE...fA....;
#X connect 21 1 19 0 32.................P....PQ....D....TD...fA....;
#X connect 21 1 0 1 32.................G....fI...vA....XB...fA....;
#X connect 22 0 17 0 empty;
#X connect 22 1 16 0 32.................Q....D....PD....A....DB....;
#X connect 22 2 17 2 32.................V....b....fE....G....fD....;
