#N canvas 827 239 539 509 12;
#X obj 26 198 oscope~ 296 297 2 3 256 -1 1 0 0 0 0 255 255 255 29 29 29 31 31 31 0 empty;
#X obj 77 60 nbx 4 18 -1e+37 1e+37 0 1 empty empty empty 0 -8 0 10 #191919 #ffffff #ffffff 17.4 256;
#X obj 124 60 nbx 4 18 -1e+37 1e+37 0 1 empty empty empty 0 -8 0 10 #191919 #ffffff #ffffff 28 256;
#X obj 171 60 nbx 4 18 -1e+37 1e+37 0 1 empty empty empty 0 -8 0 10 #191919 #ffffff #ffffff 13 256;
#X obj 218 60 nbx 4 18 -1e+37 1e+37 0 1 empty empty empty 0 -8 0 10 #191919 #ffffff #ffffff 4 256;
#X obj 265 60 nbx 4 18 -1e+37 1e+37 0 1 empty empty empty 0 -8 0 10 #191919 #ffffff #ffffff 1 256;
#X obj 312 60 nbx 4 18 -1e+37 1e+37 0 1 empty empty empty 0 -8 0 10 #191919 #ffffff #ffffff 15 256;
#X obj 359 60 nbx 4 18 -1e+37 1e+37 0 1 empty empty empty 0 -8 0 10 #191919 #ffffff #ffffff 8 256;
#X text 83 34 m1, f 4;
#X text 132 35 m2, f 6;
#X text 179 35 n1, f 5;
#X text 224 34 n2, f 4;
#X text 271 34 n3, f 4;
#X text 325 35 a, f 4;
#X text 372 35 b, f 4;
#X obj 7 7 notein, f 7;
#X obj 23 75 mtof;
#X obj 13 115 pack f f f;
#X obj 325 218 clip~ -1 1;
#X obj 406 218 clip~ -1 1;
#X obj 325 369 dac~;
#X obj 272 152 clone -s 1 rotation 8;
#X obj 7 40 poly 8 1;
#X obj 406 331 svfilter~;
#X obj 325 331 svfilter~;
#X obj 348 281 nbx 6 18 0 21000 0 1 empty empty empty 0 -8 0 10 #191919 #ffffff #ffffff 1527.27 256;
#X obj 453 282 nbx 4 18 0 1 0 1 empty empty empty 0 -8 0 10 #191919 #ffffff #ffffff 0.42 256;
#X obj 351 245 hsl 49 27 0 21000 0 0 empty empty empty -2 -8 0 10 #191919 #ffffff #ffffff 0 1;
#X obj 469 19 nbx 4 18 0 8 0 1 empty empty empty 0 -8 0 10 #191919 #ffffff #ffffff 0.01 256;
#X obj 469 49 nbx 4 18 0 8 0 1 empty empty empty 0 -8 0 10 #191919 #ffffff #ffffff 0.3 256;
#X obj 469 79 nbx 4 18 0 1 0 1 empty empty empty 0 -8 0 10 #191919 #ffffff #ffffff 0.5 256;
#X obj 469 109 nbx 4 18 0 8 0 1 empty empty empty 0 -8 0 10 #191919 #ffffff #ffffff 0.5 256;
#X text 519 18 A;
#X text 519 48 D;
#X text 519 78 S;
#X text 519 108 R;
#X connect 1 0 21 1 32.................3....vL....N....LC...nD....;
#X connect 2 0 21 2 32.................t....nJ...fK....pB...nD....;
#X connect 3 0 21 3 32.................j....fH....I....HB...nD....;
#X connect 4 0 21 4 32.................a....XF...vF....lA...nD....;
#X connect 5 0 21 5 32.................S....PD...vD....DA...nD....;
#X connect 6 0 21 6 32.................L....HB....C....h....nD....;
#X connect 7 0 21 7 32.................G....PA...vA....T....nD....;
#X connect 15 0 22 0 empty;
#X connect 15 1 22 1 32.................H....LA....B....S....z.....;
#X connect 16 0 17 1 32.................K....n....vB....J....PA....;
#X connect 17 0 21 0 32.................I....rO...PB....6C...DA....;
#X connect 18 0 24 0 empty;
#X connect 19 0 23 0 empty;
#X connect 21 0 0 0 32.................I....Ls+++eB....S6+++KB....;
#X connect 21 0 18 0 32.................J....3B...fB....t....HB....;
#X connect 21 1 19 0 32.................l....r6+++uI....69+++CD....;
#X connect 21 1 0 1 32.................R....v0+++uD....b8+++qA....;
#X connect 22 0 17 0 32.................r....X.....K....F....bC....;
#X connect 22 1 16 0 32.................F....v++++uA....7++++y.....;
#X connect 22 2 17 2 32.................J....z....fB....M....bC....;
#X connect 23 0 20 1 32.................I....n7+++eB....J++++KA....;
#X connect 24 0 20 0 empty;
#X connect 25 0 24 1 empty;
#X connect 25 0 23 1 32.................K....DE...vB....QA....B....;
#X connect 26 0 23 2 empty;
#X connect 26 0 24 2 32.................P.....6+++OD....v9++++A....;
#X connect 27 0 25 0 empty;
#X connect 28 0 21 8 32.................F.....8+++uA....P++++OG....;
#X connect 29 0 21 9 32.................F....H9+++uA....h++++WE....;
#X connect 30 0 21 10 32.................F....L++++uA....y++++eC....;
#X connect 31 0 21 11 32.................M....D++++eC....w++++mA....;
