#N canvas 827 239 527 327 12;
#N canvas 0 50 450 250 (subpatch) 0;
#X text 0 0 plugdatainfo <?xml version="1.0" encoding="UTF-8"?> <plugdatainfo><InfoObj ID="16.A...............H....." Updated="0" Segmented="1" Path="32.................U.........PE.........jB...."/><InfoObj ID="16.K....D..........B....." Updated="0" Segmented="1" Path="32.................a....n5++++F....p9+++6E...."/><InfoObj ID="16.L....D..........C....." Updated="0" Segmented="1" Path="32.................a....X7++++F....F++++6E...."/><InfoObj ID="16.A....H....P.....B....." Updated="0" Segmented="1" Path="32.................U....v1+++eE....r8+++mB...."/><InfoObj ID="16.B....L..........B....." Updated="0" Segmented="1" Path="32.................UA...zK...PU....8B....F...."/><InfoObj ID="16......L..........B....." Updated="0" Segmented="1" Path="32.................c.........PG.........jC...."/><InfoObj ID="16......P....P.....A....." Updated="0" Segmented="1" Path="32.................R....P5+++uD....j9+++CF...."/><InfoObj ID="16......T....f.....A....." Updated="0" Segmented="1" Path="32.................a.....3++++F.....9+++CF...."/><InfoObj ID="16......X....v.....A....." Updated="0" Segmented="1" Path="32.................j....v0+++OI....b8+++CF...."/><InfoObj ID="16......b.....A....A....." Updated="0" Segmented="1" Path="32.................r....fy+++OK....37+++CF...."/><InfoObj ID="16......f....PA....A....." Updated="0" Segmented="1" Path="32.................2....Pw++++M....T7+++CF...."/><InfoObj ID="16......j....fA....A....." Updated="0" Segmented="1" Path="32.................AA....u+++eP....v6+++CF...."/><InfoObj ID="16......n....vA....A....." Updated="0" Segmented="1" Path="32.................JA...vr+++uR....L6+++CF...."/><InfoObj ID="16.O....3..........B....." Updated="0" Segmented="1" Path="48.................O....f6++++C....39++++....Pg++++O....T3+++OV...."/><InfoObj ID="16.P....7..........B....." Updated="0" Segmented="1" Path="32.................2....r9++++M....q++++2F...."/><InfoObj ID="16.P....D....P.....B....." Updated="0" Segmented="1" Path="32.8++++C....P+++++P....T6+++OD....09+++CC...."/><InfoObj ID="16.Q....7..........B....." Updated="0" Segmented="1" Path="32.................2.....C...vM....v....zF...."/><InfoObj ID="16.Q....D....P.....C....." Updated="0" Segmented="1" Path="32.................X....D8+++OF....Q++++CC...."/><InfoObj ID="16.L....DA.........B....." Updated="0" Segmented="1" Path="32.................M.........PC.........nA...."/><InfoObj ID="16.K.....A.........B....." Updated="0" Segmented="1" Path="32.................M.........PC.........nA...."/></plugdatainfo>;
#X coords 0 1 100 -1 1 1 1;
#X restore 0 0 graph;
#X obj 220 235 superformula~;
#X obj 220 296 pol2car~;
#X obj 382 235 *~ 6.2831;
#X obj 220 119 phasor~;
#X obj 329 119 inlet~;
#X obj 382 119 inlet~;
#X obj 435 119 inlet~;
#X obj 488 119 inlet~;
#X obj 541 119 inlet~;
#X obj 594 119 inlet~;
#X obj 647 119 inlet~;
#X obj 134 410 outlet~;
#X obj 203 410 outlet~;
#X obj 220 32 inlet;
#X obj 220 70 unpack f f;
#X obj 155 235 / 127;
#X obj 134 364 *~;
#X obj 203 364 *~;
#X connect 1 0 2 0;
#X connect 2 0 17 1;
#X connect 2 1 18 1;
#X connect 3 0 2 1;
#X connect 4 0 3 0;
#X connect 4 0 1 0;
#X connect 5 0 1 1;
#X connect 6 0 1 2;
#X connect 7 0 1 3;
#X connect 8 0 1 4;
#X connect 9 0 1 5;
#X connect 10 0 1 6;
#X connect 11 0 1 7;
#X connect 14 0 15 0;
#X connect 15 0 4 0;
#X connect 15 1 16 0;
#X connect 16 0 17 0;
#X connect 16 0 18 0;
#X connect 17 0 12 0;
#X connect 18 0 13 0;
