#N canvas 827 239 717 468 12;
#X obj 220 235 superformula~;
#X obj 220 296 pol2car~;
#X obj 382 235 *~ 6.2831;
#X obj 220 119 phasor~;
#X obj 329 119 inlet~;
#X obj 382 119 inlet~;
#X obj 435 119 inlet~;
#X obj 488 119 inlet~;
#X obj 541 119 inlet~;
#X obj 594 119 inlet~;
#X obj 647 119 inlet~;
#X obj 134 410 outlet~;
#X obj 203 410 outlet~;
#X obj 220 32 inlet;
#X obj 220 70 unpack f f;
#X obj 155 235 / 127;
#X obj 134 364 *~;
#X obj 203 364 *~;
#X connect 0 0 1 0 32.................U.........PE.........jB....;
#X connect 1 0 16 1 32.................T....X6+++OE....19+++CC....;
#X connect 1 1 17 1 32.................g....H8+++eH....R++++CC....;
#X connect 2 0 1 1 32.................S....f3++++D....H9+++mB....;
#X connect 3 0 0 0 32.................v..........L..........F....;
#X connect 3 0 2 0 32.................PA...HJ....T....hB....F....;
#X connect 4 0 0 1 32.................L....T5+++OC....k9+++CF....;
#X connect 5 0 0 2 32.................V....D3+++uE....A9+++CF....;
#X connect 6 0 0 3 32.................d....z0+++uG....c8+++CF....;
#X connect 7 0 0 4 32.................k....jy+++eI....47+++CF....;
#X connect 8 0 0 5 32.................s....Tw+++eK....U7+++CF....;
#X connect 9 0 0 6 32.................1....Du+++uM....w6+++CF....;
#X connect 10 0 0 7 32.................AA...zr+++eP....M6+++CF....;
#X connect 13 0 14 0 empty;
#X connect 14 0 3 0 32.................O.........vC.........zA....;
#X connect 14 1 15 0 48.................R....H4+++uD....R9+++CC...fj++++v....H4+++ej....;
#X connect 15 0 16 0 32.................2....v9++++M....r++++2F....;
#X connect 15 0 17 0 32.................2.....C...vM....v....zF....;
#X connect 16 0 11 0 32.................M.........PC.........nA....;
#X connect 17 0 12 0 32.................M.........PC.........nA....;
