#N canvas 827 239 527 327 12;
#X obj 177 243 oscope~ 296 297 8 3 256 -4 4 0 0 0 0 255 255 255 29 29 29 31 31 31 0 empty;
#X obj 177 168 superformula~;
#X obj 309 73 nbx 4 18 -1e+37 1e+37 0 1 empty empty empty 0 -8 0 10 #e4e4e4 #5a5a5a #5a5a5a -8 256;
#X obj 360 73 nbx 4 18 -1e+37 1e+37 0 1 empty empty empty 0 -8 0 10 #e4e4e4 #5a5a5a #5a5a5a 64 256;
#X obj 411 73 nbx 4 18 -1e+37 1e+37 0 1 empty empty empty 0 -8 0 10 #e4e4e4 #5a5a5a #5a5a5a -105 256;
#X obj 462 73 nbx 4 18 -1e+37 1e+37 0 1 empty empty empty 0 -8 0 10 #e4e4e4 #5a5a5a #5a5a5a -13 256;
#X obj 513 73 nbx 4 18 -1e+37 1e+37 0 1 empty empty empty 0 -8 0 10 #e4e4e4 #5a5a5a #5a5a5a -0.3 256;
#X obj 564 73 nbx 4 18 -1e+37 1e+37 0 1 empty empty empty 0 -8 0 10 #e4e4e4 #5a5a5a #5a5a5a -1.64 256;
#X obj 615 73 nbx 4 18 -1e+37 1e+37 0 1 empty empty empty 0 -8 0 10 #e4e4e4 #5a5a5a #5a5a5a 75 256;
#X obj 177 50 nbx 6 32 -1e+37 1e+37 0 1 empty empty empty 0 -8 0 10 #e4e4e4 #5a5a5a #5a5a5a 16 256;
#X obj 177 204 pol2car~;
#X obj 333 168 *~ 6.2831;
#X text 320 49 m1, f 4;
#X text 370 49 m2, f 5;
#X text 420 49 n1, f 5;
#X text 470 49 n2, f 4;
#X text 520 49 n3, f 4;
#X text 570 49 a, f 4;
#X text 620 49 b, f 4;
#X text 140 59 freq, f 5;
#X obj 79 400 dac~;
#X obj 98 298 clip~ -1 1;
#X obj 79 264 clip~ -1 1;
#X obj 79 336 *~;
#X obj 97 366 *~;
#X obj 42 294 tgl 25 0 empty empty empty 17 7 0 10 #e3dfd9 #5a5a5a #5a5a5a 0 0.3;
#X obj 177 89 phasor~;
#X connect 1 0 10 0 empty;
#X connect 2 0 1 1 32.................a....33++++F....N9+++2D....;
#X connect 3 0 1 2 32.................g....v1+++eH....r8+++2D....;
#X connect 4 0 1 3 32.................l....nz+++uI....J8+++2D....;
#X connect 5 0 1 4 32.................q....fx++++J....n7+++2D....;
#X connect 6 0 1 5 32.................w....Xv+++eL....F7+++2D....;
#X connect 7 0 1 6 32.................2....Pt++++M....j6+++2D....;
#X connect 8 0 1 7 32.................8....Hr+++eO....B6+++2D....;
#X connect 9 0 26 0 empty;
#X connect 10 0 0 0 empty;
#X connect 10 0 22 0 48.................F.....9+++uA....f++++a....vm++++F....74+++OJ....;
#X connect 10 1 21 0 48.................M....D6+++eC....w9+++y....Ph++++L....j3+++uR....;
#X connect 10 1 0 1 32.................J....XN...fB....lC...LA....;
#X connect 11 0 10 1 32.................E....33+++eA....N9+++CA....;
#X connect 21 0 24 0 empty;
#X connect 22 0 23 0 empty;
#X connect 23 0 20 0 empty;
#X connect 24 0 20 1 empty;
#X connect 25 0 23 1 empty;
#X connect 25 0 24 1 empty;
#X connect 26 0 1 0 empty;
#X connect 26 0 11 0 32.................8....vI...PO....bB...TD....;
