#N canvas 827 239 527 327 12;
#X obj 62 50 inlet~;
#X obj 150 50 inlet~;
#X obj 198 50 inlet~;
#X obj 294 50 inlet~;
#X obj 343 50 inlet~;
#X obj 391 50 inlet~;
#X obj 503 50 inlet~;
#X obj 550 50 inlet~;
#X obj 139 129 *~;
#X obj 187 129 *~;
#X obj 139 169 /~ 4;
#X obj 187 169 /~ 4;
#X obj 139 207 cos~;
#X obj 187 207 sin~;
#X obj 139 265 /~;
#X obj 187 265 /~;
#X obj 139 296 abs~;
#X obj 187 296 abs~;
#X obj 187 346 pow~;
#X obj 139 346 pow~;
#X obj 139 390 +~;
#X obj 139 434 pow~;
#X obj 139 601 outlet~;
#X obj 294 377 !/~ -1;
#X text 348 377 -1/input;
#X text 69 28 x, f 4;
#X text 159 28 m1, f 4;
#X text 209 28 m2, f 6;
#X text 299 28 n1, f 5;
#X text 349 28 n2, f 4;
#X text 399 28 n3, f 4;
#X text 509 28 a, f 4;
#X text 559 28 b, f 4;
#X obj 139 489 bitnormal~;
#X text 229 488 block infinity/NaN;
#X obj 139 539 clip~ -10 10;
#X text 229 538 safer range;
#X connect 0 0 8 0 32.................d....zD...fG....MA...rC....;
#X connect 0 0 9 0 32.................S....zG...vD....8A...rC....;
#X connect 1 0 8 1 empty;
#X connect 2 0 9 1 empty;
#X connect 3 0 23 0 32.................ZB........fl.........LS....;
#X connect 4 0 19 1 32..................D...rz+++O.A...K8+++SQ....;
#X connect 5 0 18 1 32.................ID...rz+++eBA...K8+++SQ....;
#X connect 6 0 14 1 32.................pB....p+++up....f5+++OL....;
#X connect 7 0 15 1 32.................1B...Dp+++us....g5+++OL....;
#X connect 8 0 10 0 empty;
#X connect 9 0 11 0 empty;
#X connect 10 0 12 0 empty;
#X connect 11 0 13 0 empty;
#X connect 12 0 14 0 empty;
#X connect 13 0 15 0 empty;
#X connect 14 0 16 0 empty;
#X connect 15 0 17 0 empty;
#X connect 16 0 19 0 empty;
#X connect 17 0 18 0 empty;
#X connect 18 0 20 1 32.................L....v8+++OC....b++++iA....;
#X connect 19 0 20 0 empty;
#X connect 20 0 21 0 empty;
#X connect 21 0 33 0 empty;
#X connect 23 0 21 1 32.................W....v2++++E....78+++WB....;
#X connect 33 0 35 0 empty;
#X connect 35 0 22 0 empty;
