#N canvas 827 239 527 327 12;
#N canvas 0 50 450 250 (subpatch) 0;
#X text 0 0 plugdatainfo <?xml version="1.0" encoding="UTF-8"?> <plugdatainfo><InfoObj ID="16.H...............A....." Updated="0" Segmented="1" Path="32.................j....zD....I....MA...rC...."/><InfoObj ID="16.I...............A....." Updated="0" Segmented="1" Path="32.................X....zG....F....8A...rC...."/><InfoObj ID="16.H....D....P.....A....." Updated="0" Segmented="1" Path="32.................o.........PJ.........HE...."/><InfoObj ID="16.I....H....P.....A....." Updated="0" Segmented="1" Path="32.................o.........PJ.........HE...."/><InfoObj ID="16.W....L..........A....." Updated="0" Segmented="1" Path="32.................VB...z++++uk....8++++uR...."/><InfoObj ID="16.S....P....P.....A....." Updated="0" Segmented="1" Path="32.................+C...nz+++++....J8+++SQ...."/><InfoObj ID="16.R....T....P.....A....." Updated="0" Segmented="1" Path="32.................LD...nz+++OCA...J8+++SQ...."/><InfoObj ID="16.N....X....P.....A....." Updated="0" Segmented="1" Path="32.................pB...7o+++up....e5+++OL...."/><InfoObj ID="16.O....b....P.....A....." Updated="0" Segmented="1" Path="32.................1B....p+++us....f5+++OL...."/><InfoObj ID="16.J....f..........B....." Updated="0" Segmented="1" Path="32.................J.........fB.........PA...."/><InfoObj ID="16.K....j..........B....." Updated="0" Segmented="1" Path="32.................J.........fB.........PA...."/><InfoObj ID="16.L....n..........B....." Updated="0" Segmented="1" Path="32.................L..........C.........fA...."/><InfoObj ID="16.M....r..........B....." Updated="0" Segmented="1" Path="32.................L..........C.........fA...."/><InfoObj ID="16.N....v..........A....." Updated="0" Segmented="1" Path="32.................H..........B..........A...."/><InfoObj ID="16.O....z..........A....." Updated="0" Segmented="1" Path="32.................H..........B..........A...."/><InfoObj ID="16.P....3..........B....." Updated="0" Segmented="1" Path="32.................N.........fC.........rA...."/><InfoObj ID="16.Q....7..........B....." Updated="0" Segmented="1" Path="32.................N.........fC.........rA...."/><InfoObj ID="16.S.....A.........A....." Updated="0" Segmented="1" Path="32.................O.........vC.........3A...."/><InfoObj ID="16.R....DA.........A....." Updated="0" Segmented="1" Path="32.................O.........vC.........3A...."/><InfoObj ID="16.T....HA...P.....B....." Updated="0" Segmented="1" Path="32.................L....r8+++OC....a++++iA...."/><InfoObj ID="16.T....LA.........B....." Updated="0" Segmented="1" Path="32.................L..........C.........fA...."/><InfoObj ID="16.U....PA.........B....." Updated="0" Segmented="1" Path="32.................L..........C.........fA...."/><InfoObj ID="16.V....TA.........B....." Updated="0" Segmented="1" Path="32.................N.........fC.........rA...."/><InfoObj ID="16.U....bA...P.....B....." Updated="0" Segmented="1" Path="32.................Z....r2+++uF....68+++WB...."/></plugdatainfo>;
#X coords 0 1 100 -1 1 1 1;
#X restore 0 0 graph;
#X obj 56 58 inlet~;
#X obj 144 58 inlet~;
#X obj 192 58 inlet~;
#X obj 288 58 inlet~;
#X obj 337 58 inlet~;
#X obj 385 58 inlet~;
#X obj 497 58 inlet~;
#X obj 544 58 inlet~;
#X obj 133 137 *~;
#X obj 181 137 *~;
#X obj 133 177 /~ 4;
#X obj 181 177 /~ 4;
#X obj 133 215 cos~;
#X obj 181 215 sin~;
#X obj 133 273 /~;
#X obj 181 273 /~;
#X obj 133 304 abs~;
#X obj 181 304 abs~;
#X obj 181 354 pow~;
#X obj 133 354 pow~;
#X obj 133 398 +~;
#X obj 133 442 pow~;
#X obj 133 489 outlet~;
#X obj 288 385 !/~ -1;
#X text 342 385 -1/input;
#X text 66 37 x, f 4;
#X text 154 38 m1, f 4;
#X text 203 37 m2, f 4;
#X text 298 37 n1, f 5;
#X text 345 38 n2, f 4;
#X text 392 38 n3, f 4;
#X text 504 38 a, f 4;
#X text 555 41 b, f 4;
#X connect 1 0 9 0;
#X connect 1 0 10 0;
#X connect 2 0 9 1;
#X connect 3 0 10 1;
#X connect 4 0 24 0;
#X connect 5 0 20 1;
#X connect 6 0 19 1;
#X connect 7 0 15 1;
#X connect 8 0 16 1;
#X connect 9 0 11 0;
#X connect 10 0 12 0;
#X connect 11 0 13 0;
#X connect 12 0 14 0;
#X connect 13 0 15 0;
#X connect 14 0 16 0;
#X connect 15 0 17 0;
#X connect 16 0 18 0;
#X connect 17 0 20 0;
#X connect 18 0 19 0;
#X connect 19 0 21 1;
#X connect 20 0 21 0;
#X connect 21 0 22 0;
#X connect 22 0 23 0;
#X connect 24 0 22 1;
