#N canvas 827 239 527 327 12;
#X obj 145 42 inlet;
#X obj 193 42 inlet;
#X obj 289 42 inlet;
#X obj 338 42 inlet;
#X obj 386 42 inlet;
#X obj 498 42 inlet;
#X obj 548 42 inlet;
#X obj 57 42 inlet;
#X obj 134 184 / 4;
#X obj 182 228 sin;
#X obj 134 228 cos;
#X obj 134 144 *;
#X obj 182 144 *;
#X obj 182 184 / 4;
#X obj 134 280 /;
#X obj 182 280 /;
#X obj 134 311 abs;
#X obj 182 311 abs;
#X obj 134 361 pow;
#X obj 182 361 pow;
#X obj 134 405 +;
#X obj 134 449 pow;
#X obj 134 496 outlet;
#X obj 145 90 hot 7, f 61;
#X text 57 19 x, f 4;
#X text 548 20 b, f 4;
#X text 498 20 a, f 4;
#X text 386 21 n3, f 4;
#X text 338 21 n2, f 4;
#X text 289 21 n1, f 4;
#X text 193 20 m2, f 5;
#X text 145 21 m1, f 4;
#X obj 279 405 !/ -1;
#X text 324 404 -1/input;
#X connect 0 0 23 0 empty;
#X connect 1 0 23 1 32.................N....LA...fC....S....vA....;
#X connect 2 0 23 2 32.................N....b++++uC....2++++yA....;
#X connect 3 0 23 3 32.................N....f....fC....H....vA....;
#X connect 4 0 23 4 32.................N....rA...fC....a....vA....;
#X connect 5 0 23 5 32.................N....79+++uC....u++++yA....;
#X connect 6 0 23 6 empty;
#X connect 7 0 11 0 32.................GA...zD...vQ....MA...HE....;
#X connect 7 0 12 0 32.................7....zG....O....8A...HE....;
#X connect 8 0 10 0 empty;
#X connect 9 0 15 0 empty;
#X connect 10 0 14 0 empty;
#X connect 11 0 8 0 empty;
#X connect 12 0 13 0 empty;
#X connect 13 0 9 0 empty;
#X connect 14 0 16 0 empty;
#X connect 15 0 17 0 empty;
#X connect 16 0 18 0 empty;
#X connect 17 0 19 0 empty;
#X connect 18 0 20 0 empty;
#X connect 19 0 20 1 32.................L....v8+++OC....b++++iA....;
#X connect 20 0 21 0 empty;
#X connect 21 0 22 0 empty;
#X connect 23 0 11 1 empty;
#X connect 23 1 12 1 32.................Q....39+++eD....t++++KB....;
#X connect 23 2 32 0 empty;
#X connect 23 3 18 1 32.................lC...ry+++u4....67+++uO....;
#X connect 23 4 19 1 32.................vC...fx+++O7....n7+++uO....;
#X connect 23 5 14 1 32.................XB...Hq+++Ol....x5+++qJ....;
#X connect 23 6 15 1 32.................gB...3o+++en....d5+++qJ....;
#X connect 32 0 21 1 32.................L....32+++OC....98+++iA....;
