#N canvas 827 239 527 327 12;
#N canvas 0 50 450 250 (subpatch) 0;
#X text 0 0 plugdatainfo <?xml version="1.0" encoding="UTF-8"?> <plugdatainfo><InfoObj ID="16.N....H..........B....." Updated="0" Segmented="1" Path="32.................4....rO...PN....6C...TD...."/><InfoObj ID="16.B....v..........A....." Updated="0" Segmented="1" Path="32.................O....XA...vC....V....zA...."/><InfoObj ID="16.A....H..........B....." Updated="0" Segmented="1" Path="32.................e.........vG.........zC...."/><InfoObj ID="16.A....L....P.....A....." Updated="0" Segmented="1" Path="32.................O....z3++++C....M9+++WD...."/><InfoObj ID="16.A....P....f.....A....." Updated="0" Segmented="1" Path="32.................U....r1+++eE....q8+++WD...."/><InfoObj ID="16.A....T....v.....A....." Updated="0" Segmented="1" Path="32.................a....jz++++F....I8+++WD...."/><InfoObj ID="16.A....X.....A....A....." Updated="0" Segmented="1" Path="32.................h....bx+++uH....m7+++WD...."/><InfoObj ID="16.B....r....P.....A....." Updated="0" Segmented="1" Path="32.................E.........PA.........n....."/><InfoObj ID="16.M....D..........H....." Updated="0" Segmented="1" Path="32.................N....z....fC....M....rA...."/><InfoObj ID="16.A....b....PA....A....." Updated="0" Segmented="1" Path="32.................m....Tv++++I....E7+++WD...."/><InfoObj ID="16.A....f....fA....A....." Updated="0" Segmented="1" Path="32.................t....Lt+++uK....i6+++WD...."/><InfoObj ID="16.A....j....vA....A....." Updated="0" Segmented="1" Path="32.................0....Dr+++eM....A6+++WD...."/><InfoObj ID="16.M....3....P.....B....." Updated="0" Segmented="1" Path="32.................I....3x+++eB....t7+++CA...."/><InfoObj ID="16.K....n..........A....." Updated="0" Segmented="1" Path="32.................D..........A.........b....."/><InfoObj ID="16......z..........B....." Updated="0" Segmented="1" Path="32.................G.........vA.........z....."/><InfoObj ID="16......z....P.....C....." Updated="0" Segmented="1" Path="32.................G....XN...vA....lC...z....."/><InfoObj ID="16.Y....z..........B....." Updated="0" Segmented="1" Path="32.................F....34+++uA....d9+++iB...."/><InfoObj ID="16.X....z..........C....." Updated="0" Segmented="1" Path="48.................O.....6++++C....v9++++.....h++++O....f3+++uR...."/></plugdatainfo>;
#X coords 0 1 100 -1 1 1 1;
#X restore 0 0 graph;
#X obj 177 243 oscope~ 296 297 8 3 256 -4 4 0 0 0 0 255 255 255 29 29 29 31 31 31 0 empty;
#X obj 177 168 superformula~;
#X obj 177 79 phasor~ 0.6;
#X obj 309 73 nbx 4 18 -1e+37 1e+37 0 1 empty empty empty 0 -8 0 10 #e4e4e4 #5a5a5a #5a5a5a 187 256;
#X obj 360 73 nbx 4 18 -1e+37 1e+37 0 1 empty empty empty 0 -8 0 10 #e4e4e4 #5a5a5a #5a5a5a -28.6 256;
#X obj 411 73 nbx 4 18 -1e+37 1e+37 0 1 empty empty empty 0 -8 0 10 #e4e4e4 #5a5a5a #5a5a5a -9.2 256;
#X obj 462 73 nbx 4 18 -1e+37 1e+37 0 1 empty empty empty 0 -8 0 10 #e4e4e4 #5a5a5a #5a5a5a 5.9 256;
#X obj 513 73 nbx 4 18 -1e+37 1e+37 0 1 empty empty empty 0 -8 0 10 #e4e4e4 #5a5a5a #5a5a5a 1.3 256;
#X obj 564 73 nbx 4 18 -1e+37 1e+37 0 1 empty empty empty 0 -8 0 10 #e4e4e4 #5a5a5a #5a5a5a 0.54 256;
#X obj 615 73 nbx 4 18 -1e+37 1e+37 0 1 empty empty empty 0 -8 0 10 #e4e4e4 #5a5a5a #5a5a5a 1.05 256;
#X obj 237 18 bng 25 250 50 1 empty empty empty 17 7 0 10 #e4e4e4 #5a5a5a #5a5a5a;
#X msg 237 49 0, f 5;
#X obj 155 18 nbx 6 32 -1e+37 1e+37 0 1 empty empty empty 0 -8 0 10 #e4e4e4 #5a5a5a #5a5a5a 29 256;
#X obj 177 204 pol2car~;
#X obj 333 168 *~ 6.2831;
#X text 315 47 m1, f 4;
#X text 368 48 m2, f 4;
#X text 419 48 n1, f 5;
#X text 468 47 n2, f 4;
#X text 519 47 n3, f 4;
#X text 577 48 a, f 4;
#X text 628 48 b, f 4;
#X text 98 23 freq, f 5;
#X obj 79 346 dac~;
#X obj 98 298 clip~ -1 1;
#X obj 79 264 clip~ -1 1;
#X connect 2 0 14 0;
#X connect 3 0 15 0;
#X connect 3 0 2 0;
#X connect 4 0 2 1;
#X connect 5 0 2 2;
#X connect 6 0 2 3;
#X connect 7 0 2 4;
#X connect 8 0 2 5;
#X connect 9 0 2 6;
#X connect 10 0 2 7;
#X connect 11 0 12 0;
#X connect 12 0 3 1;
#X connect 13 0 3 0;
#X connect 14 0 1 0;
#X connect 14 0 26 0;
#X connect 14 1 1 1;
#X connect 14 1 25 0;
#X connect 15 0 14 1;
#X connect 25 0 24 1;
#X connect 26 0 24 0;
