#N canvas 827 239 527 327 12;
#X obj 179 49 loadbang;
#X obj 179 169 \$1;
#X obj 139 169 \$0;
#X obj 219 169 \$2;
#X obj 259 169 \$3;
#X obj 179 79 t b b b b;
#X obj 109 249 print 0;
#X obj 179 249 print 1;
#X obj 250 249 print 2;
#X obj 321 249 print 3;
#X connect 0 0 5 0 empty;
#X connect 1 0 7 0 empty;
#X connect 2 0 6 0 empty;
#X connect 3 0 8 0 empty;
#X connect 4 0 9 0 empty;
#X connect 5 0 2 0 empty;
#X connect 5 1 1 0 empty;
#X connect 5 2 3 0 empty;
#X connect 5 3 4 0 empty;
