#N canvas 827 239 700 500 12;
#X obj 39 209 trail;
#A saved 0 256 256 20 20 4 4 5 5;
#X obj 39 39 bng 25 250 50 0 empty empty empty 17 7 0 10 #191919 #ffffff #ffffff;
#X msg 79 49 width \$1;
#X msg 149 49 height \$1;
#X msg 229 49 nx \$1;
#X msg 289 49 ny \$1;
#X msg 349 49 pw \$1;
#X msg 409 49 ph \$1;
#X msg 469 49 xoff \$1;
#X msg 529 49 yoff \$1;
#X obj 79 19 nbx 4 18 0 1e+37 0 1 empty empty empty 0 -8 0 10 #191919 #ffffff #ffffff 256 256;
#X obj 149 19 nbx 4 18 0 1e+37 0 1 empty empty empty 0 -8 0 10 #191919 #ffffff #ffffff 256 256;
#X obj 229 19 nbx 4 18 0 1e+37 0 1 empty empty empty 0 -8 0 10 #191919 #ffffff #ffffff 20 256;
#X obj 289 19 nbx 4 18 0 1e+37 0 1 empty empty empty 0 -8 0 10 #191919 #ffffff #ffffff 20 256;
#X obj 349 19 nbx 4 18 0 1e+37 0 1 empty empty empty 0 -8 0 10 #191919 #ffffff #ffffff 4 256;
#X obj 409 19 nbx 4 18 0 1e+37 0 1 empty empty empty 0 -8 0 10 #191919 #ffffff #ffffff 4 256;
#X obj 469 19 nbx 4 18 -1e+37 1e+37 0 1 empty empty empty 0 -8 0 10 #191919 #ffffff #ffffff 5 256;
#X obj 529 19 nbx 4 18 -1e+37 1e+37 0 1 empty empty empty 0 -8 0 10 #191919 #ffffff #ffffff 5 256;
#X msg 369 169 4 8 #ffacab;
#X msg 469 169 4 10 #5acafa;
#X connect 1 0 0 0 empty;
#X connect 2 0 0 0 empty;
#X connect 3 0 0 0 empty;
#X connect 4 0 0 0 empty;
#X connect 5 0 0 0 empty;
#X connect 6 0 0 0 empty;
#X connect 7 0 0 0 empty;
#X connect 8 0 0 0 empty;
#X connect 9 0 0 0 empty;
#X connect 10 0 2 0 empty;
#X connect 11 0 3 0 empty;
#X connect 12 0 4 0 empty;
#X connect 13 0 5 0 empty;
#X connect 14 0 6 0 empty;
#X connect 15 0 7 0 empty;
#X connect 16 0 8 0 empty;
#X connect 17 0 9 0 empty;
#X connect 18 0 0 1 empty;
#X connect 19 0 0 1 empty;
