#N canvas 827 239 700 500 12;
#X obj 19 219 trail;
#A saved 0 256 256 32 32 5 5 3 3;
#X obj 19 39 bng 25 250 50 0 empty empty empty 17 7 0 10 #191919 #ffffff #ffffff;
#X msg 179 49 nx \$1;
#X msg 229 49 ny \$1;
#X msg 280 49 pw \$1;
#X msg 334 49 ph \$1;
#X msg 385 49 xoff \$1;
#X msg 444 49 yoff \$1;
#X obj 49 19 nbx 4 18 0 1e+37 0 1 empty empty empty 0 -8 0 10 #191919 #ffffff #ffffff 256 256;
#X obj 179 19 nbx 4 18 0 1e+37 0 1 empty empty empty 0 -8 0 10 #191919 #ffffff #ffffff 32 256;
#X obj 229 19 nbx 4 18 0 1e+37 0 1 empty empty empty 0 -8 0 10 #191919 #ffffff #ffffff 32 256;
#X obj 280 19 nbx 4 18 0 1e+37 0 1 empty empty empty 0 -8 0 10 #191919 #ffffff #ffffff 5 256;
#X obj 334 19 nbx 4 18 0 1e+37 0 1 empty empty empty 0 -8 0 10 #191919 #ffffff #ffffff 5 256;
#X obj 385 19 nbx 4 18 -1e+37 1e+37 0 1 empty empty empty 0 -8 0 10 #191919 #ffffff #ffffff 3 256;
#X obj 444 19 nbx 4 18 -1e+37 1e+37 0 1 empty empty empty 0 -8 0 10 #191919 #ffffff #ffffff 3 256;
#X obj 309 314 t b f;
#X obj 329 357 loop;
#X obj 309 284 loop;
#X obj 409 119 nbx 4 18 -1e+37 1e+37 0 0 empty empty empty 0 -8 0 10 #191919 #ffffff #ffffff 0 256;
#X obj 457 119 nbx 4 18 -1e+37 1e+37 0 0 empty empty empty 0 -8 0 10 #191919 #ffffff #ffffff 0 256;
#X msg 496 90 #ffacab;
#X msg 514 112 #5acafa;
#X obj 419 179 pack2 f f #ffffff;
#X msg 532 134 #ffffff;
#X msg 329 417 \$1 \$2 \$3;
#X obj 329 387 pack2 f f #ffffff;
#X msg 370 357 set \$1;
#X msg 49 49 width \$1 \, height \$1;
#X msg 549 156 #191919;
#X obj 343 247 nbx 4 18 1 1e+37 0 1 empty empty empty 0 -8 0 10 #191919 #ffffff #ffffff 32 256;
#X obj 309 247 bng 25 250 50 0 empty empty empty 17 7 0 10 #191919 #ffffff #ffffff;
#X msg 429 304 #ffacab;
#X msg 439 327 #5acafa;
#X msg 469 373 #191919;
#X msg 452 350 #ffffff;
#X obj 419 258 text insert colors;
#X obj 549 19 text define -k colors;
#A set 0 0 #ff0000 \; 31 0 #ff0000 \; 0 31 #ff0000 \; 31 31 #ff0000 \;;
#X obj 33 186 text sequence colors;
#X obj 33 132 lb 2;
#X msg 47 158 line 0;
#X obj 33 100 bng 25 250 50 0 empty empty empty 17 7 0 10 #191919 #ffffff #ffffff;
#X obj 419 233 spigot;
#X obj 444 202 tgl 25 0 empty empty empty 17 7 0 10 #191919 #ffffff #ffffff 0 1;
#N canvas 0 50 450 300 rnd 1;
#X restore 629 49 pd rnd;
#X obj 293 184 pack2 f f #191919;
#X obj 293 154 pipe;
#X obj 338 154 pipe;
#X obj 349 109 nbx 4 18 -1e+37 1e+37 0 1 empty empty empty 0 -8 0 10 #191919 #ffffff #ffffff 239 256;
#X text 279 108 flash time;
#X obj 589 339 pol2car;
#X obj 569 409 + 16;
#X obj 569 379 int;
#X obj 619 409 + 16;
#X obj 619 379 int;
#X obj 559 299 nbx 4 18 -1e+37 1e+37 0 0 empty empty empty 0 -8 0 10 #191919 #ffffff #ffffff 0 256;
#X obj 619 279 nbx 4 18 -1e+37 1e+37 0 0 empty empty empty 0 -8 0 10 #191919 #ffffff #ffffff 0 256;
#X obj 619 309 t b f;
#X text 609 438 :3;
#X obj 160 145 bng 25 250 50 0 empty empty empty 17 7 0 10 #191919 #ffffff #ffffff;
#X obj 189 149 until;
#X obj 189 99 metro 40;
#X obj 159 99 tgl 25 0 empty empty empty 17 7 0 10 #191919 #ffffff #ffffff 0 1;
#N canvas 0 50 450 300 rand-pixel 1;
#X obj 69 209 rand.i 0 22;
#X obj 169 209 rand.i 0 22;
#X obj 269 209 rand.i 0 360;
#X obj 269 289 colors;
#X msg 269 249 hsl \$1 100 50;
#X text 359 208 color;
#X text 139 208 x;
#X text 239 208 y;
#X obj 149 129 t b b b;
#X obj 147 342 pack f f s;
#X text 389 78 max;
#X obj 149 399 outlet;
#X obj 149 49 inlet;
#X obj 329 79 inlet;
#X connect 0 0 9 0 empty;
#X connect 1 0 9 1 empty;
#X connect 2 0 4 0 empty;
#X connect 3 0 9 2 empty;
#X connect 4 0 3 0 empty;
#X connect 8 0 0 0 empty;
#X connect 8 1 1 0 empty;
#X connect 8 2 2 0 empty;
#X connect 9 0 11 0 empty;
#X connect 12 0 8 0 empty;
#X connect 13 0 0 2 empty;
#X connect 13 0 1 2 empty;
#X restore 189 183 pd rand-pixel;
#X obj 189 125 nbx 4 18 -1e+37 1e+37 0 0 empty empty empty 0 -8 0 10 #191919 #ffffff #ffffff 0 256;
#X connect 1 0 0 0 empty;
#X connect 2 0 0 0 32.................O....Lz++++C....C8+++CE....;
#X connect 3 0 0 0 32.................O....bv++++C....G7+++CE....;
#X connect 4 0 0 0 32.................O....rr++++C....K6+++CE....;
#X connect 5 0 0 0 32.................O....7n++++C....O5+++CE....;
#X connect 6 0 0 0 32.................O....Lk++++C....S4+++CE....;
#X connect 7 0 0 0 32.................O....bg++++C....W3+++CE....;
#X connect 8 0 27 0 empty;
#X connect 9 0 2 0 empty;
#X connect 9 0 10 0 empty;
#X connect 9 0 62 1 empty;
#X connect 10 0 3 0 empty;
#X connect 11 0 4 0 empty;
#X connect 12 0 5 0 empty;
#X connect 13 0 6 0 empty;
#X connect 14 0 7 0 empty;
#X connect 15 0 16 0 empty;
#X connect 15 1 26 0 empty;
#X connect 16 0 25 0 empty;
#X connect 17 0 15 0 empty;
#X connect 18 0 22 0 empty;
#X connect 18 0 45 0 empty;
#X connect 19 0 22 1 empty;
#X connect 19 0 46 0 empty;
#X connect 20 0 22 2 empty;
#X connect 21 0 22 2 empty;
#X connect 22 0 0 1 32.................O....Ly++++C....y7+++SA....;
#X connect 22 0 41 0 empty;
#X connect 23 0 22 2 empty;
#X connect 24 0 0 1 48.................G....X8++++A....V++++Gx+++es++++g7+++W6++++I++++;
#X connect 25 0 24 0 empty;
#X connect 26 0 25 1 empty;
#X connect 27 0 0 0 32.................O....j8++++C....Y++++CE....;
#X connect 28 0 22 2 empty;
#X connect 29 0 17 1 empty;
#X connect 29 0 16 1 empty;
#X connect 30 0 17 0 empty;
#X connect 31 0 25 2 empty;
#X connect 32 0 25 2 empty;
#X connect 33 0 25 2 empty;
#X connect 34 0 25 2 empty;
#X connect 37 0 0 1 32.................G....vM...vA....bC...z.....;
#X connect 38 0 37 0 empty;
#X connect 38 1 39 0 empty;
#X connect 39 0 37 0 empty;
#X connect 40 0 38 0 empty;
#X connect 41 0 35 0 empty;
#X connect 42 0 41 1 empty;
#X connect 44 0 0 1 empty;
#X connect 45 0 44 0 empty;
#X connect 46 0 44 1 empty;
#X connect 47 0 46 1 empty;
#X connect 47 0 45 1 empty;
#X connect 49 0 51 0 empty;
#X connect 49 1 53 0 empty;
#X connect 51 0 50 0 empty;
#X connect 53 0 52 0 empty;
#X connect 54 0 49 0 empty;
#X connect 55 0 56 0 empty;
#X connect 56 0 49 0 empty;
#X connect 56 1 49 1 empty;
#X connect 58 0 62 0 empty;
#X connect 59 0 62 0 empty;
#X connect 60 0 63 0 empty;
#X connect 61 0 60 0 empty;
#X connect 62 0 0 1 empty;
#X connect 63 0 59 0 empty;
