#N canvas 827 239 139 139 12;
#X obj 0 0 cnv 15 258 258 empty bg_\$0 empty 20 12 0 14 #191919 #ffffff 0;
#N canvas 0 50 450 300 resize 1;
#X obj 179 39 r height_\$0;
#X obj 179 99 + 2;
#X obj 329 209 s bg_\$0;
#X obj 179 209 s pd-graph\$0;
#X msg 19 169 coords 0 0 1 1 \$1 \$1 2;
#X msg 179 169 coords 0 0 1 1 \$1 \$1 2;
#X msg 329 169 vis_size \$1 \$1;
#X obj 19 209 s abs\$0;
#X connect 0 0 1 0 empty;
#X connect 1 0 5 0 empty;
#X connect 1 0 4 0 empty;
#X connect 1 0 6 0 empty;
#X connect 4 0 7 0 empty;
#X connect 5 0 3 0 empty;
#X connect 6 0 2 0 empty;
#X restore 279 219 pd resize;
#X obj 9 -51 s height_\$0;
#N canvas 0 50 450 300 center 1;
#X text 59 318 Waste your days counting what you've got left \; What you should have had \, and what you'll never get back \; Only a fool would live their life like that;
#X obj 109 49 r height_\$0;
#X obj 109 89 + 2;
#X obj 109 129 / 2;
#X obj 109 179 s center_\$0;
#X connect 1 0 2 0 empty;
#X connect 2 0 3 0 empty;
#X connect 3 0 4 0 empty;
#X restore 279 189 pd center;
#X obj 9 -111 inlet;
#N canvas 0 50 450 300 graph\$0 1;
#X obj 10 12 cnv 2 4 9 empty p0-0-1010 empty 0 0 0 14 #ffffff #ffffff 0;
#X obj 35 12 cnv 2 4 9 empty p1-0-1010 empty 0 0 0 14 #ffffff #ffffff 0;
#X obj 61 12 cnv 2 4 9 empty p2-0-1010 empty 0 0 0 14 #ffffff #ffffff 0;
#X obj 86 12 cnv 2 4 9 empty p3-0-1010 empty 0 0 0 14 #ffffff #ffffff 0;
#X obj 112 12 cnv 2 4 9 empty p4-0-1010 empty 0 0 0 14 #ffffff #ffffff 0;
#X obj 138 12 cnv 2 4 9 empty p5-0-1010 empty 0 0 0 14 #ffffff #ffffff 0;
#X obj 163 12 cnv 2 4 9 empty p6-0-1010 empty 0 0 0 14 #ffffff #ffffff 0;
#X obj 189 12 cnv 2 4 9 empty p7-0-1010 empty 0 0 0 14 #ffffff #ffffff 0;
#X obj 214 12 cnv 2 4 9 empty p8-0-1010 empty 0 0 0 14 #ffffff #ffffff 0;
#X obj 240 12 cnv 2 4 9 empty p9-0-1010 empty 0 0 0 14 #ffffff #ffffff 0;
#X obj 10 37 cnv 2 4 9 empty p0-1-1010 empty 0 0 0 14 #ffffff #ffffff 0;
#X obj 35 37 cnv 2 4 9 empty p1-1-1010 empty 0 0 0 14 #ffffff #ffffff 0;
#X obj 61 37 cnv 2 4 9 empty p2-1-1010 empty 0 0 0 14 #ffffff #ffffff 0;
#X obj 86 37 cnv 2 4 9 empty p3-1-1010 empty 0 0 0 14 #ffffff #ffffff 0;
#X obj 112 37 cnv 2 4 9 empty p4-1-1010 empty 0 0 0 14 #ffffff #ffffff 0;
#X obj 138 37 cnv 2 4 9 empty p5-1-1010 empty 0 0 0 14 #ffffff #ffffff 0;
#X obj 163 37 cnv 2 4 9 empty p6-1-1010 empty 0 0 0 14 #ffffff #ffffff 0;
#X obj 189 37 cnv 2 4 9 empty p7-1-1010 empty 0 0 0 14 #ffffff #ffffff 0;
#X obj 214 37 cnv 2 4 9 empty p8-1-1010 empty 0 0 0 14 #ffffff #ffffff 0;
#X obj 240 37 cnv 2 4 9 empty p9-1-1010 empty 0 0 0 14 #ffffff #ffffff 0;
#X obj 10 63 cnv 2 4 9 empty p0-2-1010 empty 0 0 0 14 #ffffff #ffffff 0;
#X obj 35 63 cnv 2 4 9 empty p1-2-1010 empty 0 0 0 14 #ffffff #ffffff 0;
#X obj 61 63 cnv 2 4 9 empty p2-2-1010 empty 0 0 0 14 #ffffff #ffffff 0;
#X obj 86 63 cnv 2 4 9 empty p3-2-1010 empty 0 0 0 14 #ffffff #ffffff 0;
#X obj 112 63 cnv 2 4 9 empty p4-2-1010 empty 0 0 0 14 #ffffff #ffffff 0;
#X obj 138 63 cnv 2 4 9 empty p5-2-1010 empty 0 0 0 14 #ffffff #ffffff 0;
#X obj 163 63 cnv 2 4 9 empty p6-2-1010 empty 0 0 0 14 #ffffff #ffffff 0;
#X obj 189 63 cnv 2 4 9 empty p7-2-1010 empty 0 0 0 14 #ffffff #ffffff 0;
#X obj 214 63 cnv 2 4 9 empty p8-2-1010 empty 0 0 0 14 #ffffff #ffffff 0;
#X obj 240 63 cnv 2 4 9 empty p9-2-1010 empty 0 0 0 14 #ffffff #ffffff 0;
#X obj 10 88 cnv 2 4 9 empty p0-3-1010 empty 0 0 0 14 #ffffff #ffffff 0;
#X obj 35 88 cnv 2 4 9 empty p1-3-1010 empty 0 0 0 14 #ffffff #ffffff 0;
#X obj 61 88 cnv 2 4 9 empty p2-3-1010 empty 0 0 0 14 #ffffff #ffffff 0;
#X obj 86 88 cnv 2 4 9 empty p3-3-1010 empty 0 0 0 14 #ffffff #ffffff 0;
#X obj 112 88 cnv 2 4 9 empty p4-3-1010 empty 0 0 0 14 #ffffff #ffffff 0;
#X obj 138 88 cnv 2 4 9 empty p5-3-1010 empty 0 0 0 14 #ffffff #ffffff 0;
#X obj 163 88 cnv 2 4 9 empty p6-3-1010 empty 0 0 0 14 #ffffff #ffffff 0;
#X obj 189 88 cnv 2 4 9 empty p7-3-1010 empty 0 0 0 14 #ffffff #ffffff 0;
#X obj 214 88 cnv 2 4 9 empty p8-3-1010 empty 0 0 0 14 #ffffff #ffffff 0;
#X obj 240 88 cnv 2 4 9 empty p9-3-1010 empty 0 0 0 14 #ffffff #ffffff 0;
#X obj 10 114 cnv 2 4 9 empty p0-4-1010 empty 0 0 0 14 #ffffff #ffffff 0;
#X obj 35 114 cnv 2 4 9 empty p1-4-1010 empty 0 0 0 14 #ffffff #ffffff 0;
#X obj 61 114 cnv 2 4 9 empty p2-4-1010 empty 0 0 0 14 #ffffff #ffffff 0;
#X obj 86 114 cnv 2 4 9 empty p3-4-1010 empty 0 0 0 14 #ffffff #ffffff 0;
#X obj 112 114 cnv 2 4 9 empty p4-4-1010 empty 0 0 0 14 #ffffff #ffffff 0;
#X obj 138 114 cnv 2 4 9 empty p5-4-1010 empty 0 0 0 14 #ffffff #ffffff 0;
#X obj 163 114 cnv 2 4 9 empty p6-4-1010 empty 0 0 0 14 #ffffff #ffffff 0;
#X obj 189 114 cnv 2 4 9 empty p7-4-1010 empty 0 0 0 14 #ffffff #ffffff 0;
#X obj 214 114 cnv 2 4 9 empty p8-4-1010 empty 0 0 0 14 #ffffff #ffffff 0;
#X obj 240 114 cnv 2 4 9 empty p9-4-1010 empty 0 0 0 14 #ffffff #ffffff 0;
#X obj 10 140 cnv 2 4 9 empty p0-5-1010 empty 0 0 0 14 #ffffff #ffffff 0;
#X obj 35 140 cnv 2 4 9 empty p1-5-1010 empty 0 0 0 14 #ffffff #ffffff 0;
#X obj 61 140 cnv 2 4 9 empty p2-5-1010 empty 0 0 0 14 #ffffff #ffffff 0;
#X obj 86 140 cnv 2 4 9 empty p3-5-1010 empty 0 0 0 14 #ffffff #ffffff 0;
#X obj 112 140 cnv 2 4 9 empty p4-5-1010 empty 0 0 0 14 #ffffff #ffffff 0;
#X obj 138 140 cnv 2 4 9 empty p5-5-1010 empty 0 0 0 14 #ffffff #ffffff 0;
#X obj 163 140 cnv 2 4 9 empty p6-5-1010 empty 0 0 0 14 #ffffff #ffffff 0;
#X obj 189 140 cnv 2 4 9 empty p7-5-1010 empty 0 0 0 14 #ffffff #ffffff 0;
#X obj 214 140 cnv 2 4 9 empty p8-5-1010 empty 0 0 0 14 #ffffff #ffffff 0;
#X obj 240 140 cnv 2 4 9 empty p9-5-1010 empty 0 0 0 14 #ffffff #ffffff 0;
#X obj 10 165 cnv 2 4 9 empty p0-6-1010 empty 0 0 0 14 #ffffff #ffffff 0;
#X obj 35 165 cnv 2 4 9 empty p1-6-1010 empty 0 0 0 14 #ffffff #ffffff 0;
#X obj 61 165 cnv 2 4 9 empty p2-6-1010 empty 0 0 0 14 #ffffff #ffffff 0;
#X obj 86 165 cnv 2 4 9 empty p3-6-1010 empty 0 0 0 14 #ffffff #ffffff 0;
#X obj 112 165 cnv 2 4 9 empty p4-6-1010 empty 0 0 0 14 #ffffff #ffffff 0;
#X obj 138 165 cnv 2 4 9 empty p5-6-1010 empty 0 0 0 14 #ffffff #ffffff 0;
#X obj 163 165 cnv 2 4 9 empty p6-6-1010 empty 0 0 0 14 #ffffff #ffffff 0;
#X obj 189 165 cnv 2 4 9 empty p7-6-1010 empty 0 0 0 14 #ffffff #ffffff 0;
#X obj 214 165 cnv 2 4 9 empty p8-6-1010 empty 0 0 0 14 #ffffff #ffffff 0;
#X obj 240 165 cnv 2 4 9 empty p9-6-1010 empty 0 0 0 14 #ffffff #ffffff 0;
#X obj 10 191 cnv 2 4 9 empty p0-7-1010 empty 0 0 0 14 #ffffff #ffffff 0;
#X obj 35 191 cnv 2 4 9 empty p1-7-1010 empty 0 0 0 14 #ffffff #ffffff 0;
#X obj 61 191 cnv 2 4 9 empty p2-7-1010 empty 0 0 0 14 #ffffff #ffffff 0;
#X obj 86 191 cnv 2 4 9 empty p3-7-1010 empty 0 0 0 14 #ffffff #ffffff 0;
#X obj 112 191 cnv 2 4 9 empty p4-7-1010 empty 0 0 0 14 #ffffff #ffffff 0;
#X obj 138 191 cnv 2 4 9 empty p5-7-1010 empty 0 0 0 14 #ffffff #ffffff 0;
#X obj 163 191 cnv 2 4 9 empty p6-7-1010 empty 0 0 0 14 #ffffff #ffffff 0;
#X obj 189 191 cnv 2 4 9 empty p7-7-1010 empty 0 0 0 14 #ffffff #ffffff 0;
#X obj 214 191 cnv 2 4 9 empty p8-7-1010 empty 0 0 0 14 #ffffff #ffffff 0;
#X obj 240 191 cnv 2 4 9 empty p9-7-1010 empty 0 0 0 14 #ffffff #ffffff 0;
#X obj 10 216 cnv 2 4 9 empty p0-8-1010 empty 0 0 0 14 #ffffff #ffffff 0;
#X obj 35 216 cnv 2 4 9 empty p1-8-1010 empty 0 0 0 14 #ffffff #ffffff 0;
#X obj 61 216 cnv 2 4 9 empty p2-8-1010 empty 0 0 0 14 #ffffff #ffffff 0;
#X obj 86 216 cnv 2 4 9 empty p3-8-1010 empty 0 0 0 14 #ffffff #ffffff 0;
#X obj 112 216 cnv 2 4 9 empty p4-8-1010 empty 0 0 0 14 #ffffff #ffffff 0;
#X obj 138 216 cnv 2 4 9 empty p5-8-1010 empty 0 0 0 14 #ffffff #ffffff 0;
#X obj 163 216 cnv 2 4 9 empty p6-8-1010 empty 0 0 0 14 #ffffff #ffffff 0;
#X obj 189 216 cnv 2 4 9 empty p7-8-1010 empty 0 0 0 14 #ffffff #ffffff 0;
#X obj 214 216 cnv 2 4 9 empty p8-8-1010 empty 0 0 0 14 #ffffff #ffffff 0;
#X obj 240 216 cnv 2 4 9 empty p9-8-1010 empty 0 0 0 14 #ffffff #ffffff 0;
#X obj 10 242 cnv 2 4 9 empty p0-9-1010 empty 0 0 0 14 #ffffff #ffffff 0;
#X obj 35 242 cnv 2 4 9 empty p1-9-1010 empty 0 0 0 14 #ffffff #ffffff 0;
#X obj 61 242 cnv 2 4 9 empty p2-9-1010 empty 0 0 0 14 #ffffff #ffffff 0;
#X obj 86 242 cnv 2 4 9 empty p3-9-1010 empty 0 0 0 14 #ffffff #ffffff 0;
#X obj 112 242 cnv 2 4 9 empty p4-9-1010 empty 0 0 0 14 #ffffff #ffffff 0;
#X obj 138 242 cnv 2 4 9 empty p5-9-1010 empty 0 0 0 14 #ffffff #ffffff 0;
#X obj 163 242 cnv 2 4 9 empty p6-9-1010 empty 0 0 0 14 #ffffff #ffffff 0;
#X obj 189 242 cnv 2 4 9 empty p7-9-1010 empty 0 0 0 14 #ffffff #ffffff 0;
#X obj 214 242 cnv 2 4 9 empty p8-9-1010 empty 0 0 0 14 #ffffff #ffffff 0;
#X obj 240 242 cnv 2 4 9 empty p9-9-1010 empty 0 0 0 14 #ffffff #ffffff 0;
#X coords 0 0 1 1 258 258 2 0 0;
#X restore 0 0 pd graph\$0;
#N canvas 0 50 450 300 polar 1;
#X msg 237 329 pos \$1 \$2;
#X obj 229 198 pol2car;
#X obj 237 299 pack2;
#X obj 229 119 nbx 4 18 -1e+37 1e+37 0 0 empty empty empty 0 -8 0 10 #191919 #ffffff #ffffff 0 256;
#X obj 279 59 nbx 4 18 -1e+37 1e+37 0 0 empty empty empty 0 -8 0 10 #191919 #ffffff #ffffff 0 256;
#X obj 278 154 t b f;
#X obj 219 249 +;
#X obj 230 223 r centerX_\$0;
#X obj 261 272 +;
#X obj 272 246 r centerY_\$0;
#X obj 239 369 s;
#X obj 369 269 count 0 100;
#X msg 369 229 max \$1;
#X obj 279 89 pipe 250;
#X obj 369 199 r n_\$0;
#X obj 279 119 t f b;
#X msg 369 329 symbol p\$1\$2;
#X obj 369 299 pack f \$0;
#X obj 90 149 nbx 4 18 -1e+37 1e+37 0 0 empty empty empty 0 -8 0 10 #191919 #ffffff #ffffff 0 256;
#X msg 90 179 vis_size \$1 \$1;
#X connect 0 0 10 0 empty;
#X connect 1 0 6 0 empty;
#X connect 1 1 8 0 empty;
#X connect 2 0 0 0 empty;
#X connect 3 0 1 0 empty;
#X connect 4 0 13 0 empty;
#X connect 5 0 1 0 empty;
#X connect 5 1 1 1 empty;
#X connect 6 0 2 0 empty;
#X connect 7 0 6 1 empty;
#X connect 8 0 2 1 empty;
#X connect 9 0 8 1 empty;
#X connect 11 0 17 0 empty;
#X connect 12 0 11 0 empty;
#X connect 13 0 15 0 empty;
#X connect 14 0 12 0 empty;
#X connect 15 0 5 0 empty;
#X connect 15 1 11 0 empty;
#X connect 16 0 10 1 empty;
#X connect 17 0 16 0 empty;
#X connect 18 0 19 0 empty;
#X restore 349 219 pd polar;
#X obj 119 -51 s nX_\$0;
#X obj 209 -51 s nY_\$0;
#X obj 119 -111 inlet;
#X obj 209 -111 inlet;
#N canvas 0 50 532 468 construct 1;
#X msg 449 369 clear;
#X obj 39 409 s pd-graph\$0;
#X msg 39 359 obj \$4 \$5 cnv 2 \$6 \$7 empty p\$2-\$3-\$1 empty 0 0 0 14 #ffffff #ffffff 0, f 36;
#X obj 39 100 loop;
#N canvas 0 50 450 300 #-of-points 1;
#X obj 59 29 r nX_\$0;
#X obj 129 29 r nY_\$0;
#X obj 79 79 t b f;
#X obj 59 129 *;
#X obj 59 229 outlet;
#X obj 59 179 max 1;
#X connect 0 0 3 0 empty;
#X connect 1 0 2 0 empty;
#X connect 2 0 3 0 empty;
#X connect 2 1 3 1 empty;
#X connect 3 0 5 0 empty;
#X connect 5 0 4 0 empty;
#X restore 79 99 pd #-of-points;
#X obj 39 129 t b f;
#X obj 39 59 t b b;
#X obj 39 29 r update_\$0;
#X obj 209 289 r point_width_\$0;
#X obj 329 289 r point_height_\$0;
#X obj 39 329 pack \$0 f f 2 2 2 2;
#X obj 55 159 expr $f1 % nX_\$0 \; int($f1/nX_\$0) \; ($f1 % nX_\$0) * (height_\$0 / nX_\$0) + offsetX_\$0 \; int($f1/nX_\$0) * (height_\$0 / nY_\$0) + offsetY_\$0 \;;
#X connect 0 0 1 0 32.................N....bq+++uC....25+++SA....;
#X connect 2 0 1 0 empty;
#X connect 3 0 5 0 empty;
#X connect 4 0 3 1 empty;
#X connect 5 0 10 0 empty;
#X connect 5 1 11 0 empty;
#X connect 6 0 3 0 empty;
#X connect 6 1 0 0 32.................I....rS...PB....6D...HR....;
#X connect 7 0 6 0 empty;
#X connect 8 0 10 5 empty;
#X connect 9 0 10 6 empty;
#X connect 10 0 2 0 empty;
#X connect 11 0 10 1 empty;
#X connect 11 1 10 2 empty;
#X connect 11 2 10 3 empty;
#X connect 11 3 10 4 empty;
#X restore 349 189 pd construct;
#X obj 279 249 namecanvas abs\$0;
#X obj 99 -131 nbx 4 18 -1e+37 1e+37 0 0 empty empty empty 0 -8 0 10 #191919 #ffffff #ffffff 0 256;
#X obj 179 -131 nbx 4 18 -1e+37 1e+37 0 0 empty empty empty 0 -8 0 10 #191919 #ffffff #ffffff 0 256;
#X obj 229 -81 v nY_\$0;
#X obj 139 -81 v nX_\$0;
#X obj 29 -81 v height_\$0;
#X obj 309 -51 s update_\$0;
#X obj 309 -91 bng 25 250 50 0 empty empty empty 17 7 0 10 #191919 #ffffff #ffffff;
#X obj 409 -51 s point_width_\$0;
#X obj 429 -81 s point_height_\$0;
#X obj 409 -121 nbx 4 18 -1e+37 1e+37 0 0 empty empty empty 0 -8 0 10 #191919 #ffffff #ffffff 0 256;
#X obj 469 -121 nbx 4 18 -1e+37 1e+37 0 0 empty empty empty 0 -8 0 10 #191919 #ffffff #ffffff 0 256;
#X obj 549 -121 nbx 4 18 -1e+37 1e+37 0 0 empty empty empty 0 -8 0 10 #191919 #ffffff #ffffff 0 256;
#X obj 599 -121 nbx 4 18 -1e+37 1e+37 0 0 empty empty empty 0 -8 0 10 #191919 #ffffff #ffffff 0 256;
#X obj 569 -81 v offsetX_\$0;
#X obj 549 -51 v offsetY_\$0;
#X connect 4 0 2 0 empty;
#X connect 4 0 17 0 empty;
#X connect 9 0 7 0 empty;
#X connect 9 0 16 0 empty;
#X connect 10 0 8 0 empty;
#X connect 10 0 15 0 empty;
#X connect 13 0 7 0 empty;
#X connect 14 0 8 0 empty;
#X connect 19 0 18 0 empty;
#X connect 22 0 20 0 empty;
#X connect 23 0 21 0 empty;
#X connect 24 0 27 0 empty;
#X connect 25 0 26 0 empty;
#X coords 0 0 1 1 258 258 2 0 0;
