#N canvas 827 239 527 327 12;
#X obj 39 119 trail;
#A saved 0 256 256 28 44 4 4 4 2;
#X obj 39 69 bng 25 250 50 0 empty empty empty 17 7 0 10 #191919 #ffffff #ffffff;
#X msg 79 79 width \$1;
#X msg 149 79 height \$1;
#X msg 229 79 nx \$1;
#X msg 289 79 ny \$1;
#X msg 349 79 pw \$1;
#X msg 409 79 ph \$1;
#X msg 469 79 xoff \$1;
#X msg 529 79 yoff \$1;
#X obj 79 49 nbx 4 18 -1e+37 1e+37 0 0 empty empty empty 0 -8 0 10 #191919 #ffffff #ffffff 0 256;
#X obj 149 49 nbx 4 18 -1e+37 1e+37 0 0 empty empty empty 0 -8 0 10 #191919 #ffffff #ffffff 0 256;
#X obj 229 49 nbx 4 18 -1e+37 1e+37 0 0 empty empty empty 0 -8 0 10 #191919 #ffffff #ffffff 0 256;
#X obj 289 49 nbx 4 18 -1e+37 1e+37 0 0 empty empty empty 0 -8 0 10 #191919 #ffffff #ffffff 0 256;
#X obj 349 49 nbx 4 18 -1e+37 1e+37 0 0 empty empty empty 0 -8 0 10 #191919 #ffffff #ffffff 0 256;
#X obj 409 49 nbx 4 18 -1e+37 1e+37 0 0 empty empty empty 0 -8 0 10 #191919 #ffffff #ffffff 0 256;
#X obj 469 49 nbx 4 18 -1e+37 1e+37 0 0 empty empty empty 0 -8 0 10 #191919 #ffffff #ffffff 0 256;
#X obj 529 49 nbx 4 18 -1e+37 1e+37 0 0 empty empty empty 0 -8 0 10 #191919 #ffffff #ffffff 0 256;
#X connect 1 0 0 0 empty;
#X connect 2 0 0 0 empty;
#X connect 3 0 0 0 empty;
#X connect 4 0 0 0 empty;
#X connect 5 0 0 0 empty;
#X connect 6 0 0 0 empty;
#X connect 7 0 0 0 empty;
#X connect 8 0 0 0 empty;
#X connect 9 0 0 0 empty;
#X connect 10 0 2 0 empty;
#X connect 11 0 3 0 empty;
#X connect 12 0 4 0 empty;
#X connect 13 0 5 0 empty;
#X connect 14 0 6 0 empty;
#X connect 15 0 7 0 empty;
#X connect 16 0 8 0 empty;
#X connect 17 0 9 0 empty;
