#N canvas 827 239 139 139 12;
#X obj 0 0 cnv 15 258 258 empty bg_\$0 empty 20 12 0 14 #191919 #ffffff 0;
#N canvas 0 50 450 300 resize 1;
#X obj 179 39 r height_\$0;
#X obj 179 99 + 2;
#X obj 329 209 s bg_\$0;
#X obj 179 209 s pd-graph\$0;
#X msg 19 169 coords 0 0 1 1 \$1 \$1 2;
#X msg 179 169 coords 0 0 1 1 \$1 \$1 2;
#X msg 329 169 vis_size \$1 \$1;
#X obj 19 209 s abs\$0;
#X connect 0 0 1 0 empty;
#X connect 1 0 5 0 empty;
#X connect 1 0 4 0 empty;
#X connect 1 0 6 0 empty;
#X connect 4 0 7 0 empty;
#X connect 5 0 3 0 empty;
#X connect 6 0 2 0 empty;
#X restore 279 219 pd resize;
#X obj 9 -51 s height_\$0;
#N canvas 0 50 450 300 center 1;
#X text 59 318 Waste your days counting what you've got left \; What you should have had \, and what you'll never get back \; Only a fool would live their life like that;
#X obj 109 49 r height_\$0;
#X obj 109 89 + 2;
#X obj 109 129 / 2;
#X obj 109 179 s center_\$0;
#X connect 1 0 2 0 empty;
#X connect 2 0 3 0 empty;
#X connect 3 0 4 0 empty;
#X restore 279 189 pd center;
#X obj 9 -111 inlet;
#N canvas 0 50 450 300 graph\$0 1;
#X obj 209 232 cnv 2 5 5 empty p4-8-1010 empty 0 0 0 14 #ffffff #ffffff 0;
#X obj 158 232 cnv 2 5 5 empty p3-8-1010 empty 0 0 0 14 #ffffff #ffffff 0;
#X obj 107 232 cnv 2 5 5 empty p2-8-1010 empty 0 0 0 14 #ffffff #ffffff 0;
#X obj 56 232 cnv 2 5 5 empty p1-8-1010 empty 0 0 0 14 #ffffff #ffffff 0;
#X obj 5 232 cnv 2 5 5 empty p0-8-1010 empty 0 0 0 14 #ffffff #ffffff 0;
#X obj 209 204 cnv 2 5 5 empty p4-7-1010 empty 0 0 0 14 #ffffff #ffffff 0;
#X obj 158 204 cnv 2 5 5 empty p3-7-1010 empty 0 0 0 14 #ffffff #ffffff 0;
#X obj 107 204 cnv 2 5 5 empty p2-7-1010 empty 0 0 0 14 #ffffff #ffffff 0;
#X obj 56 204 cnv 2 5 5 empty p1-7-1010 empty 0 0 0 14 #ffffff #ffffff 0;
#X obj 5 204 cnv 2 5 5 empty p0-7-1010 empty 0 0 0 14 #ffffff #ffffff 0;
#X obj 209 175 cnv 2 5 5 empty p4-6-1010 empty 0 0 0 14 #ffffff #ffffff 0;
#X obj 158 175 cnv 2 5 5 empty p3-6-1010 empty 0 0 0 14 #ffffff #ffffff 0;
#X obj 107 175 cnv 2 5 5 empty p2-6-1010 empty 0 0 0 14 #ffffff #ffffff 0;
#X obj 56 175 cnv 2 5 5 empty p1-6-1010 empty 0 0 0 14 #ffffff #ffffff 0;
#X obj 5 175 cnv 2 5 5 empty p0-6-1010 empty 0 0 0 14 #ffffff #ffffff 0;
#X obj 209 147 cnv 2 5 5 empty p4-5-1010 empty 0 0 0 14 #ffffff #ffffff 0;
#X obj 158 147 cnv 2 5 5 empty p3-5-1010 empty 0 0 0 14 #ffffff #ffffff 0;
#X obj 107 147 cnv 2 5 5 empty p2-5-1010 empty 0 0 0 14 #ffffff #ffffff 0;
#X obj 56 147 cnv 2 5 5 empty p1-5-1010 empty 0 0 0 14 #ffffff #ffffff 0;
#X obj 5 147 cnv 2 5 5 empty p0-5-1010 empty 0 0 0 14 #ffffff #ffffff 0;
#X obj 209 118 cnv 2 5 5 empty p4-4-1010 empty 0 0 0 14 #ffffff #ffffff 0;
#X obj 158 118 cnv 2 5 5 empty p3-4-1010 empty 0 0 0 14 #ffffff #ffffff 0;
#X obj 107 118 cnv 2 5 5 empty p2-4-1010 empty 0 0 0 14 #ffffff #ffffff 0;
#X obj 56 118 cnv 2 5 5 empty p1-4-1010 empty 0 0 0 14 #ffffff #ffffff 0;
#X obj 5 118 cnv 2 5 5 empty p0-4-1010 empty 0 0 0 14 #ffffff #ffffff 0;
#X obj 209 90 cnv 2 5 5 empty p4-3-1010 empty 0 0 0 14 #ffffff #ffffff 0;
#X obj 158 90 cnv 2 5 5 empty p3-3-1010 empty 0 0 0 14 #ffffff #ffffff 0;
#X obj 107 90 cnv 2 5 5 empty p2-3-1010 empty 0 0 0 14 #ffffff #ffffff 0;
#X obj 56 90 cnv 2 5 5 empty p1-3-1010 empty 0 0 0 14 #ffffff #ffffff 0;
#X obj 5 90 cnv 2 5 5 empty p0-3-1010 empty 0 0 0 14 #ffffff #ffffff 0;
#X obj 209 61 cnv 2 5 5 empty p4-2-1010 empty 0 0 0 14 #ffffff #ffffff 0;
#X obj 158 61 cnv 2 5 5 empty p3-2-1010 empty 0 0 0 14 #ffffff #ffffff 0;
#X obj 107 61 cnv 2 5 5 empty p2-2-1010 empty 0 0 0 14 #ffffff #ffffff 0;
#X obj 56 61 cnv 2 5 5 empty p1-2-1010 empty 0 0 0 14 #ffffff #ffffff 0;
#X obj 5 61 cnv 2 5 5 empty p0-2-1010 empty 0 0 0 14 #ffffff #ffffff 0;
#X obj 209 33 cnv 2 5 5 empty p4-1-1010 empty 0 0 0 14 #ffffff #ffffff 0;
#X obj 158 33 cnv 2 5 5 empty p3-1-1010 empty 0 0 0 14 #ffffff #ffffff 0;
#X obj 107 33 cnv 2 5 5 empty p2-1-1010 empty 0 0 0 14 #ffffff #ffffff 0;
#X obj 56 33 cnv 2 5 5 empty p1-1-1010 empty 0 0 0 14 #ffffff #ffffff 0;
#X obj 5 33 cnv 2 5 5 empty p0-1-1010 empty 0 0 0 14 #ffffff #ffffff 0;
#X obj 209 5 cnv 2 5 5 empty p4-0-1010 empty 0 0 0 14 #ffffff #ffffff 0;
#X obj 158 5 cnv 2 5 5 empty p3-0-1010 empty 0 0 0 14 #ffffff #ffffff 0;
#X obj 107 5 cnv 2 5 5 empty p2-0-1010 empty 0 0 0 14 #ffffff #ffffff 0;
#X obj 56 5 cnv 2 5 5 empty p1-0-1010 empty 0 0 0 14 #ffffff #ffffff 0;
#X obj 5 5 cnv 2 5 5 empty p0-0-1010 empty 0 0 0 14 #ffffff #ffffff 0;
#X coords 0 0 1 1 258 258 2 0 0;
#X restore 0 0 pd graph\$0;
#N canvas 0 50 450 300 polar 1;
#X msg 237 329 pos \$1 \$2;
#X obj 229 198 pol2car;
#X obj 237 299 pack2;
#X obj 229 119 nbx 4 18 -1e+37 1e+37 0 0 empty empty empty 0 -8 0 10 #191919 #ffffff #ffffff 0 256;
#X obj 279 59 nbx 4 18 -1e+37 1e+37 0 0 empty empty empty 0 -8 0 10 #191919 #ffffff #ffffff 0 256;
#X obj 278 154 t b f;
#X obj 219 249 +;
#X obj 230 223 r centerX_\$0;
#X obj 261 272 +;
#X obj 272 246 r centerY_\$0;
#X obj 239 369 s;
#X obj 369 269 count 0 100;
#X msg 369 229 max \$1;
#X obj 279 89 pipe 250;
#X obj 369 199 r n_\$0;
#X obj 279 119 t f b;
#X msg 369 329 symbol p\$1\$2;
#X obj 369 299 pack f \$0;
#X obj 90 149 nbx 4 18 -1e+37 1e+37 0 0 empty empty empty 0 -8 0 10 #191919 #ffffff #ffffff 0 256;
#X msg 90 179 vis_size \$1 \$1;
#X connect 0 0 10 0 empty;
#X connect 1 0 6 0 empty;
#X connect 1 1 8 0 empty;
#X connect 2 0 0 0 empty;
#X connect 3 0 1 0 empty;
#X connect 4 0 13 0 empty;
#X connect 5 0 1 0 empty;
#X connect 5 1 1 1 empty;
#X connect 6 0 2 0 empty;
#X connect 7 0 6 1 empty;
#X connect 8 0 2 1 empty;
#X connect 9 0 8 1 empty;
#X connect 11 0 17 0 empty;
#X connect 12 0 11 0 empty;
#X connect 13 0 15 0 empty;
#X connect 14 0 12 0 empty;
#X connect 15 0 5 0 empty;
#X connect 15 1 11 0 empty;
#X connect 16 0 10 1 empty;
#X connect 17 0 16 0 empty;
#X connect 18 0 19 0 empty;
#X restore 359 219 pd polar;
#X msg 299 89 clear;
#X obj 349 139 s pd-graph\$0;
#X obj 119 -51 s nX_\$0;
#X obj 209 -51 s nY_\$0;
#X obj 119 -111 inlet;
#X obj 209 -111 inlet;
#X obj 329 -191 nbx 4 18 -1e+37 1e+37 0 0 empty empty empty 0 -8 0 10 #191919 #ffffff #ffffff 0 256;
#X obj 559 -1 nbx 4 18 -1e+37 1e+37 0 0 empty empty empty 0 -8 0 10 #191919 #ffffff #ffffff 0 256;
#X obj 613 -1 nbx 4 18 -1e+37 1e+37 0 0 empty empty empty 0 -8 0 10 #191919 #ffffff #ffffff 0 256;
#X text 669 -2 w & h;
#X obj 329 19 bng 25 250 50 0 empty empty empty 17 7 0 10 #191919 #ffffff #ffffff;
#N canvas 0 50 450 300 construct 1;
#X restore 359 189 pd construct;
#X obj 279 249 namecanvas abs\$0;
#X obj 99 -131 nbx 4 18 -1e+37 1e+37 0 0 empty empty empty 0 -8 0 10 #191919 #ffffff #ffffff 0 256;
#X obj 179 -131 nbx 4 18 -1e+37 1e+37 0 0 empty empty empty 0 -8 0 10 #191919 #ffffff #ffffff 0 256;
#X obj 229 -81 v nY_\$0;
#X obj 139 -81 v nX_\$0;
#X obj 29 -81 v height_\$0;
#X obj 472 -1 + 5;
#X obj 512 -1 + 5;
#X obj 329 -161 t b f;
#X obj 349 59 pack \$0 f f f f f f;
#X msg 349 89 obj \$4 \$5 cnv 2 \$6 \$7 empty p\$2-\$3-\$1 empty 0 0 0 14 #ffffff #ffffff 0, f 36;
#X obj 349 -121 expr $f1 % nX_\$0 \; int($f1/nX_\$0) \; ($f1 % nX_\$0) * (height_\$0 / nX_\$0) \; int($f1/nX_\$0) * (height_\$0 / nY_\$0) \;;
#X connect 4 0 2 0 empty;
#X connect 4 0 24 0 empty;
#X connect 7 0 8 0 empty;
#X connect 11 0 9 0 empty;
#X connect 11 0 23 0 empty;
#X connect 12 0 10 0 empty;
#X connect 12 0 22 0 empty;
#X connect 13 0 27 0 empty;
#X connect 14 0 28 5 empty;
#X connect 15 0 28 6 empty;
#X connect 17 0 28 0 empty;
#X connect 20 0 9 0 empty;
#X connect 21 0 10 0 empty;
#X connect 25 0 28 3 empty;
#X connect 26 0 28 4 empty;
#X connect 27 0 17 0 empty;
#X connect 27 1 30 0 empty;
#X connect 28 0 29 0 empty;
#X connect 29 0 8 0 empty;
#X connect 30 0 28 1 empty;
#X connect 30 1 28 2 empty;
#X connect 30 2 25 0 empty;
#X connect 30 3 26 0 empty;
#X coords 0 0 1 1 258 258 2 0 0;
