#N canvas 827 239 139 139 12;
#X obj 0 0 cnv 15 258 258 empty bg_\$0 empty 20 12 0 14 #191919 #ffffff 0;
#N canvas 0 50 450 300 resize 1;
#X obj 199 19 r height_\$0;
#X obj 199 49 + 2;
#X obj 311 209 s bg_\$0;
#X obj 165 209 s pd-graph\$0;
#X obj 19 209 s abs\$0;
#X msg 311 169 vis_size \$1 \$2;
#X msg 165 169 coords 0 0 1 1 \$1 \$2 2;
#X msg 19 169 coords 0 0 1 1 \$1 \$2 2;
#X obj 109 19 r width_\$0;
#X obj 109 49 + 2;
#X obj 109 89 pack;
#X obj 19 129 list store;
#X obj 19 19 r update_\$0;
#X connect 0 0 1 0 empty;
#X connect 1 0 10 1 empty;
#X connect 5 0 2 0 empty;
#X connect 6 0 3 0 empty;
#X connect 7 0 4 0 empty;
#X connect 8 0 9 0 empty;
#X connect 9 0 10 0 empty;
#X connect 10 0 11 1 empty;
#X connect 11 0 7 0 empty;
#X connect 11 0 6 0 empty;
#X connect 11 0 5 0 empty;
#X connect 12 0 11 0 empty;
#X restore 279 209 pd resize;
#N canvas 0 50 450 300 graph\$0 1;
#X obj 4 1 cnv 2 2 16 empty p0-0-1012 empty 0 0 0 14 #ffffff #ffffff 0;
#X obj 12 1 cnv 2 2 16 empty p1-0-1012 empty 0 0 0 14 #ffffff #ffffff 0;
#X obj 20 1 cnv 2 2 16 empty p2-0-1012 empty 0 0 0 14 #ffffff #ffffff 0;
#X obj 28 1 cnv 2 2 16 empty p3-0-1012 empty 0 0 0 14 #ffffff #ffffff 0;
#X obj 36 1 cnv 2 2 16 empty p4-0-1012 empty 0 0 0 14 #ffffff #ffffff 0;
#X obj 44 1 cnv 2 2 16 empty p5-0-1012 empty 0 0 0 14 #ffffff #ffffff 0;
#X obj 52 1 cnv 2 2 16 empty p6-0-1012 empty 0 0 0 14 #ffffff #ffffff 0;
#X obj 60 1 cnv 2 2 16 empty p7-0-1012 empty 0 0 0 14 #ffffff #ffffff 0;
#X obj 68 1 cnv 2 2 16 empty p8-0-1012 empty 0 0 0 14 #ffffff #ffffff 0;
#X obj 76 1 cnv 2 2 16 empty p9-0-1012 empty 0 0 0 14 #ffffff #ffffff 0;
#X obj 84 1 cnv 2 2 16 empty p10-0-1012 empty 0 0 0 14 #ffffff #ffffff 0;
#X obj 92 1 cnv 2 2 16 empty p11-0-1012 empty 0 0 0 14 #ffffff #ffffff 0;
#X obj 100 1 cnv 2 2 16 empty p12-0-1012 empty 0 0 0 14 #ffffff #ffffff 0;
#X obj 108 1 cnv 2 2 16 empty p13-0-1012 empty 0 0 0 14 #ffffff #ffffff 0;
#X obj 116 1 cnv 2 2 16 empty p14-0-1012 empty 0 0 0 14 #ffffff #ffffff 0;
#X obj 124 1 cnv 2 2 16 empty p15-0-1012 empty 0 0 0 14 #ffffff #ffffff 0;
#X obj 132 1 cnv 2 2 16 empty p16-0-1012 empty 0 0 0 14 #ffffff #ffffff 0;
#X obj 140 1 cnv 2 2 16 empty p17-0-1012 empty 0 0 0 14 #ffffff #ffffff 0;
#X obj 148 1 cnv 2 2 16 empty p18-0-1012 empty 0 0 0 14 #ffffff #ffffff 0;
#X obj 156 1 cnv 2 2 16 empty p19-0-1012 empty 0 0 0 14 #ffffff #ffffff 0;
#X obj 164 1 cnv 2 2 16 empty p20-0-1012 empty 0 0 0 14 #ffffff #ffffff 0;
#X obj 172 1 cnv 2 2 16 empty p21-0-1012 empty 0 0 0 14 #ffffff #ffffff 0;
#X obj 180 1 cnv 2 2 16 empty p22-0-1012 empty 0 0 0 14 #ffffff #ffffff 0;
#X obj 188 1 cnv 2 2 16 empty p23-0-1012 empty 0 0 0 14 #ffffff #ffffff 0;
#X obj 196 1 cnv 2 2 16 empty p24-0-1012 empty 0 0 0 14 #ffffff #ffffff 0;
#X obj 204 1 cnv 2 2 16 empty p25-0-1012 empty 0 0 0 14 #ffffff #ffffff 0;
#X obj 212 1 cnv 2 2 16 empty p26-0-1012 empty 0 0 0 14 #ffffff #ffffff 0;
#X obj 220 1 cnv 2 2 16 empty p27-0-1012 empty 0 0 0 14 #ffffff #ffffff 0;
#X obj 228 1 cnv 2 2 16 empty p28-0-1012 empty 0 0 0 14 #ffffff #ffffff 0;
#X obj 236 1 cnv 2 2 16 empty p29-0-1012 empty 0 0 0 14 #ffffff #ffffff 0;
#X obj 244 1 cnv 2 2 16 empty p30-0-1012 empty 0 0 0 14 #ffffff #ffffff 0;
#X obj 252 1 cnv 2 2 16 empty p31-0-1012 empty 0 0 0 14 #ffffff #ffffff 0;
#X obj 4 17 cnv 2 2 16 empty p0-1-1012 empty 0 0 0 14 #ffffff #ffffff 0;
#X obj 12 17 cnv 2 2 16 empty p1-1-1012 empty 0 0 0 14 #ffffff #ffffff 0;
#X obj 20 17 cnv 2 2 16 empty p2-1-1012 empty 0 0 0 14 #ffffff #ffffff 0;
#X obj 28 17 cnv 2 2 16 empty p3-1-1012 empty 0 0 0 14 #ffffff #ffffff 0;
#X obj 36 17 cnv 2 2 16 empty p4-1-1012 empty 0 0 0 14 #ffffff #ffffff 0;
#X obj 44 17 cnv 2 2 16 empty p5-1-1012 empty 0 0 0 14 #ffffff #ffffff 0;
#X obj 52 17 cnv 2 2 16 empty p6-1-1012 empty 0 0 0 14 #ffffff #ffffff 0;
#X obj 60 17 cnv 2 2 16 empty p7-1-1012 empty 0 0 0 14 #ffffff #ffffff 0;
#X obj 68 17 cnv 2 2 16 empty p8-1-1012 empty 0 0 0 14 #ffffff #ffffff 0;
#X obj 76 17 cnv 2 2 16 empty p9-1-1012 empty 0 0 0 14 #ffffff #ffffff 0;
#X obj 84 17 cnv 2 2 16 empty p10-1-1012 empty 0 0 0 14 #ffffff #ffffff 0;
#X obj 92 17 cnv 2 2 16 empty p11-1-1012 empty 0 0 0 14 #ffffff #ffffff 0;
#X obj 100 17 cnv 2 2 16 empty p12-1-1012 empty 0 0 0 14 #ffffff #ffffff 0;
#X obj 108 17 cnv 2 2 16 empty p13-1-1012 empty 0 0 0 14 #ffffff #ffffff 0;
#X obj 116 17 cnv 2 2 16 empty p14-1-1012 empty 0 0 0 14 #ffffff #ffffff 0;
#X obj 124 17 cnv 2 2 16 empty p15-1-1012 empty 0 0 0 14 #ffffff #ffffff 0;
#X obj 132 17 cnv 2 2 16 empty p16-1-1012 empty 0 0 0 14 #ffffff #ffffff 0;
#X obj 140 17 cnv 2 2 16 empty p17-1-1012 empty 0 0 0 14 #ffffff #ffffff 0;
#X obj 148 17 cnv 2 2 16 empty p18-1-1012 empty 0 0 0 14 #ffffff #ffffff 0;
#X obj 156 17 cnv 2 2 16 empty p19-1-1012 empty 0 0 0 14 #ffffff #ffffff 0;
#X obj 164 17 cnv 2 2 16 empty p20-1-1012 empty 0 0 0 14 #ffffff #ffffff 0;
#X obj 172 17 cnv 2 2 16 empty p21-1-1012 empty 0 0 0 14 #ffffff #ffffff 0;
#X obj 180 17 cnv 2 2 16 empty p22-1-1012 empty 0 0 0 14 #ffffff #ffffff 0;
#X obj 188 17 cnv 2 2 16 empty p23-1-1012 empty 0 0 0 14 #ffffff #ffffff 0;
#X obj 196 17 cnv 2 2 16 empty p24-1-1012 empty 0 0 0 14 #ffffff #ffffff 0;
#X obj 204 17 cnv 2 2 16 empty p25-1-1012 empty 0 0 0 14 #ffffff #ffffff 0;
#X obj 212 17 cnv 2 2 16 empty p26-1-1012 empty 0 0 0 14 #ffffff #ffffff 0;
#X obj 220 17 cnv 2 2 16 empty p27-1-1012 empty 0 0 0 14 #ffffff #ffffff 0;
#X obj 228 17 cnv 2 2 16 empty p28-1-1012 empty 0 0 0 14 #ffffff #ffffff 0;
#X obj 236 17 cnv 2 2 16 empty p29-1-1012 empty 0 0 0 14 #ffffff #ffffff 0;
#X obj 244 17 cnv 2 2 16 empty p30-1-1012 empty 0 0 0 14 #ffffff #ffffff 0;
#X obj 252 17 cnv 2 2 16 empty p31-1-1012 empty 0 0 0 14 #ffffff #ffffff 0;
#X obj 4 33 cnv 2 2 16 empty p0-2-1012 empty 0 0 0 14 #ffffff #ffffff 0;
#X obj 12 33 cnv 2 2 16 empty p1-2-1012 empty 0 0 0 14 #ffffff #ffffff 0;
#X obj 20 33 cnv 2 2 16 empty p2-2-1012 empty 0 0 0 14 #ffffff #ffffff 0;
#X obj 28 33 cnv 2 2 16 empty p3-2-1012 empty 0 0 0 14 #ffffff #ffffff 0;
#X obj 36 33 cnv 2 2 16 empty p4-2-1012 empty 0 0 0 14 #ffffff #ffffff 0;
#X obj 44 33 cnv 2 2 16 empty p5-2-1012 empty 0 0 0 14 #ffffff #ffffff 0;
#X obj 52 33 cnv 2 2 16 empty p6-2-1012 empty 0 0 0 14 #ffffff #ffffff 0;
#X obj 60 33 cnv 2 2 16 empty p7-2-1012 empty 0 0 0 14 #ffffff #ffffff 0;
#X obj 68 33 cnv 2 2 16 empty p8-2-1012 empty 0 0 0 14 #ffffff #ffffff 0;
#X obj 76 33 cnv 2 2 16 empty p9-2-1012 empty 0 0 0 14 #ffffff #ffffff 0;
#X obj 84 33 cnv 2 2 16 empty p10-2-1012 empty 0 0 0 14 #ffffff #ffffff 0;
#X obj 92 33 cnv 2 2 16 empty p11-2-1012 empty 0 0 0 14 #ffffff #ffffff 0;
#X obj 100 33 cnv 2 2 16 empty p12-2-1012 empty 0 0 0 14 #ffffff #ffffff 0;
#X obj 108 33 cnv 2 2 16 empty p13-2-1012 empty 0 0 0 14 #ffffff #ffffff 0;
#X obj 116 33 cnv 2 2 16 empty p14-2-1012 empty 0 0 0 14 #ffffff #ffffff 0;
#X obj 124 33 cnv 2 2 16 empty p15-2-1012 empty 0 0 0 14 #ffffff #ffffff 0;
#X obj 132 33 cnv 2 2 16 empty p16-2-1012 empty 0 0 0 14 #ffffff #ffffff 0;
#X obj 140 33 cnv 2 2 16 empty p17-2-1012 empty 0 0 0 14 #ffffff #ffffff 0;
#X obj 148 33 cnv 2 2 16 empty p18-2-1012 empty 0 0 0 14 #ffffff #ffffff 0;
#X obj 156 33 cnv 2 2 16 empty p19-2-1012 empty 0 0 0 14 #ffffff #ffffff 0;
#X obj 164 33 cnv 2 2 16 empty p20-2-1012 empty 0 0 0 14 #ffffff #ffffff 0;
#X obj 172 33 cnv 2 2 16 empty p21-2-1012 empty 0 0 0 14 #ffffff #ffffff 0;
#X obj 180 33 cnv 2 2 16 empty p22-2-1012 empty 0 0 0 14 #ffffff #ffffff 0;
#X obj 188 33 cnv 2 2 16 empty p23-2-1012 empty 0 0 0 14 #ffffff #ffffff 0;
#X obj 196 33 cnv 2 2 16 empty p24-2-1012 empty 0 0 0 14 #ffffff #ffffff 0;
#X obj 204 33 cnv 2 2 16 empty p25-2-1012 empty 0 0 0 14 #ffffff #ffffff 0;
#X obj 212 33 cnv 2 2 16 empty p26-2-1012 empty 0 0 0 14 #ffffff #ffffff 0;
#X obj 220 33 cnv 2 2 16 empty p27-2-1012 empty 0 0 0 14 #ffffff #ffffff 0;
#X obj 228 33 cnv 2 2 16 empty p28-2-1012 empty 0 0 0 14 #ffffff #ffffff 0;
#X obj 236 33 cnv 2 2 16 empty p29-2-1012 empty 0 0 0 14 #ffffff #ffffff 0;
#X obj 244 33 cnv 2 2 16 empty p30-2-1012 empty 0 0 0 14 #ffffff #ffffff 0;
#X obj 252 33 cnv 2 2 16 empty p31-2-1012 empty 0 0 0 14 #ffffff #ffffff 0;
#X obj 4 49 cnv 2 2 16 empty p0-3-1012 empty 0 0 0 14 #ffffff #ffffff 0;
#X obj 12 49 cnv 2 2 16 empty p1-3-1012 empty 0 0 0 14 #ffffff #ffffff 0;
#X obj 20 49 cnv 2 2 16 empty p2-3-1012 empty 0 0 0 14 #ffffff #ffffff 0;
#X obj 28 49 cnv 2 2 16 empty p3-3-1012 empty 0 0 0 14 #ffffff #ffffff 0;
#X obj 36 49 cnv 2 2 16 empty p4-3-1012 empty 0 0 0 14 #ffffff #ffffff 0;
#X obj 44 49 cnv 2 2 16 empty p5-3-1012 empty 0 0 0 14 #ffffff #ffffff 0;
#X obj 52 49 cnv 2 2 16 empty p6-3-1012 empty 0 0 0 14 #ffffff #ffffff 0;
#X obj 60 49 cnv 2 2 16 empty p7-3-1012 empty 0 0 0 14 #ffffff #ffffff 0;
#X obj 68 49 cnv 2 2 16 empty p8-3-1012 empty 0 0 0 14 #ffffff #ffffff 0;
#X obj 76 49 cnv 2 2 16 empty p9-3-1012 empty 0 0 0 14 #ffffff #ffffff 0;
#X obj 84 49 cnv 2 2 16 empty p10-3-1012 empty 0 0 0 14 #ffffff #ffffff 0;
#X obj 92 49 cnv 2 2 16 empty p11-3-1012 empty 0 0 0 14 #ffffff #ffffff 0;
#X obj 100 49 cnv 2 2 16 empty p12-3-1012 empty 0 0 0 14 #ffffff #ffffff 0;
#X obj 108 49 cnv 2 2 16 empty p13-3-1012 empty 0 0 0 14 #ffffff #ffffff 0;
#X obj 116 49 cnv 2 2 16 empty p14-3-1012 empty 0 0 0 14 #ffffff #ffffff 0;
#X obj 124 49 cnv 2 2 16 empty p15-3-1012 empty 0 0 0 14 #ffffff #ffffff 0;
#X obj 132 49 cnv 2 2 16 empty p16-3-1012 empty 0 0 0 14 #ffffff #ffffff 0;
#X obj 140 49 cnv 2 2 16 empty p17-3-1012 empty 0 0 0 14 #ffffff #ffffff 0;
#X obj 148 49 cnv 2 2 16 empty p18-3-1012 empty 0 0 0 14 #ffffff #ffffff 0;
#X obj 156 49 cnv 2 2 16 empty p19-3-1012 empty 0 0 0 14 #ffffff #ffffff 0;
#X obj 164 49 cnv 2 2 16 empty p20-3-1012 empty 0 0 0 14 #ffffff #ffffff 0;
#X obj 172 49 cnv 2 2 16 empty p21-3-1012 empty 0 0 0 14 #ffffff #ffffff 0;
#X obj 180 49 cnv 2 2 16 empty p22-3-1012 empty 0 0 0 14 #ffffff #ffffff 0;
#X obj 188 49 cnv 2 2 16 empty p23-3-1012 empty 0 0 0 14 #ffffff #ffffff 0;
#X obj 196 49 cnv 2 2 16 empty p24-3-1012 empty 0 0 0 14 #ffffff #ffffff 0;
#X obj 204 49 cnv 2 2 16 empty p25-3-1012 empty 0 0 0 14 #ffffff #ffffff 0;
#X obj 212 49 cnv 2 2 16 empty p26-3-1012 empty 0 0 0 14 #ffffff #ffffff 0;
#X obj 220 49 cnv 2 2 16 empty p27-3-1012 empty 0 0 0 14 #ffffff #ffffff 0;
#X obj 228 49 cnv 2 2 16 empty p28-3-1012 empty 0 0 0 14 #ffffff #ffffff 0;
#X obj 236 49 cnv 2 2 16 empty p29-3-1012 empty 0 0 0 14 #ffffff #ffffff 0;
#X obj 244 49 cnv 2 2 16 empty p30-3-1012 empty 0 0 0 14 #ffffff #ffffff 0;
#X obj 252 49 cnv 2 2 16 empty p31-3-1012 empty 0 0 0 14 #ffffff #ffffff 0;
#X obj 4 65 cnv 2 2 16 empty p0-4-1012 empty 0 0 0 14 #ffffff #ffffff 0;
#X obj 12 65 cnv 2 2 16 empty p1-4-1012 empty 0 0 0 14 #ffffff #ffffff 0;
#X obj 20 65 cnv 2 2 16 empty p2-4-1012 empty 0 0 0 14 #ffffff #ffffff 0;
#X obj 28 65 cnv 2 2 16 empty p3-4-1012 empty 0 0 0 14 #ffffff #ffffff 0;
#X obj 36 65 cnv 2 2 16 empty p4-4-1012 empty 0 0 0 14 #ffffff #ffffff 0;
#X obj 44 65 cnv 2 2 16 empty p5-4-1012 empty 0 0 0 14 #ffffff #ffffff 0;
#X obj 52 65 cnv 2 2 16 empty p6-4-1012 empty 0 0 0 14 #ffffff #ffffff 0;
#X obj 60 65 cnv 2 2 16 empty p7-4-1012 empty 0 0 0 14 #ffffff #ffffff 0;
#X obj 68 65 cnv 2 2 16 empty p8-4-1012 empty 0 0 0 14 #ffffff #ffffff 0;
#X obj 76 65 cnv 2 2 16 empty p9-4-1012 empty 0 0 0 14 #ffffff #ffffff 0;
#X obj 84 65 cnv 2 2 16 empty p10-4-1012 empty 0 0 0 14 #ffffff #ffffff 0;
#X obj 92 65 cnv 2 2 16 empty p11-4-1012 empty 0 0 0 14 #ffffff #ffffff 0;
#X obj 100 65 cnv 2 2 16 empty p12-4-1012 empty 0 0 0 14 #ffffff #ffffff 0;
#X obj 108 65 cnv 2 2 16 empty p13-4-1012 empty 0 0 0 14 #ffffff #ffffff 0;
#X obj 116 65 cnv 2 2 16 empty p14-4-1012 empty 0 0 0 14 #ffffff #ffffff 0;
#X obj 124 65 cnv 2 2 16 empty p15-4-1012 empty 0 0 0 14 #ffffff #ffffff 0;
#X obj 132 65 cnv 2 2 16 empty p16-4-1012 empty 0 0 0 14 #ffffff #ffffff 0;
#X obj 140 65 cnv 2 2 16 empty p17-4-1012 empty 0 0 0 14 #ffffff #ffffff 0;
#X obj 148 65 cnv 2 2 16 empty p18-4-1012 empty 0 0 0 14 #ffffff #ffffff 0;
#X obj 156 65 cnv 2 2 16 empty p19-4-1012 empty 0 0 0 14 #ffffff #ffffff 0;
#X obj 164 65 cnv 2 2 16 empty p20-4-1012 empty 0 0 0 14 #ffffff #ffffff 0;
#X obj 172 65 cnv 2 2 16 empty p21-4-1012 empty 0 0 0 14 #ffffff #ffffff 0;
#X obj 180 65 cnv 2 2 16 empty p22-4-1012 empty 0 0 0 14 #ffffff #ffffff 0;
#X obj 188 65 cnv 2 2 16 empty p23-4-1012 empty 0 0 0 14 #ffffff #ffffff 0;
#X obj 196 65 cnv 2 2 16 empty p24-4-1012 empty 0 0 0 14 #ffffff #ffffff 0;
#X obj 204 65 cnv 2 2 16 empty p25-4-1012 empty 0 0 0 14 #ffffff #ffffff 0;
#X obj 212 65 cnv 2 2 16 empty p26-4-1012 empty 0 0 0 14 #ffffff #ffffff 0;
#X obj 220 65 cnv 2 2 16 empty p27-4-1012 empty 0 0 0 14 #ffffff #ffffff 0;
#X obj 228 65 cnv 2 2 16 empty p28-4-1012 empty 0 0 0 14 #ffffff #ffffff 0;
#X obj 236 65 cnv 2 2 16 empty p29-4-1012 empty 0 0 0 14 #ffffff #ffffff 0;
#X obj 244 65 cnv 2 2 16 empty p30-4-1012 empty 0 0 0 14 #ffffff #ffffff 0;
#X obj 252 65 cnv 2 2 16 empty p31-4-1012 empty 0 0 0 14 #ffffff #ffffff 0;
#X obj 4 81 cnv 2 2 16 empty p0-5-1012 empty 0 0 0 14 #ffffff #ffffff 0;
#X obj 12 81 cnv 2 2 16 empty p1-5-1012 empty 0 0 0 14 #ffffff #ffffff 0;
#X obj 20 81 cnv 2 2 16 empty p2-5-1012 empty 0 0 0 14 #ffffff #ffffff 0;
#X obj 28 81 cnv 2 2 16 empty p3-5-1012 empty 0 0 0 14 #ffffff #ffffff 0;
#X obj 36 81 cnv 2 2 16 empty p4-5-1012 empty 0 0 0 14 #ffffff #ffffff 0;
#X obj 44 81 cnv 2 2 16 empty p5-5-1012 empty 0 0 0 14 #ffffff #ffffff 0;
#X obj 52 81 cnv 2 2 16 empty p6-5-1012 empty 0 0 0 14 #ffffff #ffffff 0;
#X obj 60 81 cnv 2 2 16 empty p7-5-1012 empty 0 0 0 14 #ffffff #ffffff 0;
#X obj 68 81 cnv 2 2 16 empty p8-5-1012 empty 0 0 0 14 #ffffff #ffffff 0;
#X obj 76 81 cnv 2 2 16 empty p9-5-1012 empty 0 0 0 14 #ffffff #ffffff 0;
#X obj 84 81 cnv 2 2 16 empty p10-5-1012 empty 0 0 0 14 #ffffff #ffffff 0;
#X obj 92 81 cnv 2 2 16 empty p11-5-1012 empty 0 0 0 14 #ffffff #ffffff 0;
#X obj 100 81 cnv 2 2 16 empty p12-5-1012 empty 0 0 0 14 #ffffff #ffffff 0;
#X obj 108 81 cnv 2 2 16 empty p13-5-1012 empty 0 0 0 14 #ffffff #ffffff 0;
#X obj 116 81 cnv 2 2 16 empty p14-5-1012 empty 0 0 0 14 #ffffff #ffffff 0;
#X obj 124 81 cnv 2 2 16 empty p15-5-1012 empty 0 0 0 14 #ffffff #ffffff 0;
#X obj 132 81 cnv 2 2 16 empty p16-5-1012 empty 0 0 0 14 #ffffff #ffffff 0;
#X obj 140 81 cnv 2 2 16 empty p17-5-1012 empty 0 0 0 14 #ffffff #ffffff 0;
#X obj 148 81 cnv 2 2 16 empty p18-5-1012 empty 0 0 0 14 #ffffff #ffffff 0;
#X obj 156 81 cnv 2 2 16 empty p19-5-1012 empty 0 0 0 14 #ffffff #ffffff 0;
#X obj 164 81 cnv 2 2 16 empty p20-5-1012 empty 0 0 0 14 #ffffff #ffffff 0;
#X obj 172 81 cnv 2 2 16 empty p21-5-1012 empty 0 0 0 14 #ffffff #ffffff 0;
#X obj 180 81 cnv 2 2 16 empty p22-5-1012 empty 0 0 0 14 #ffffff #ffffff 0;
#X obj 188 81 cnv 2 2 16 empty p23-5-1012 empty 0 0 0 14 #ffffff #ffffff 0;
#X obj 196 81 cnv 2 2 16 empty p24-5-1012 empty 0 0 0 14 #ffffff #ffffff 0;
#X obj 204 81 cnv 2 2 16 empty p25-5-1012 empty 0 0 0 14 #ffffff #ffffff 0;
#X obj 212 81 cnv 2 2 16 empty p26-5-1012 empty 0 0 0 14 #ffffff #ffffff 0;
#X obj 220 81 cnv 2 2 16 empty p27-5-1012 empty 0 0 0 14 #ffffff #ffffff 0;
#X obj 228 81 cnv 2 2 16 empty p28-5-1012 empty 0 0 0 14 #ffffff #ffffff 0;
#X obj 236 81 cnv 2 2 16 empty p29-5-1012 empty 0 0 0 14 #ffffff #ffffff 0;
#X obj 244 81 cnv 2 2 16 empty p30-5-1012 empty 0 0 0 14 #ffffff #ffffff 0;
#X obj 252 81 cnv 2 2 16 empty p31-5-1012 empty 0 0 0 14 #ffffff #ffffff 0;
#X obj 4 97 cnv 2 2 16 empty p0-6-1012 empty 0 0 0 14 #ffffff #ffffff 0;
#X obj 12 97 cnv 2 2 16 empty p1-6-1012 empty 0 0 0 14 #ffffff #ffffff 0;
#X obj 20 97 cnv 2 2 16 empty p2-6-1012 empty 0 0 0 14 #ffffff #ffffff 0;
#X obj 28 97 cnv 2 2 16 empty p3-6-1012 empty 0 0 0 14 #ffffff #ffffff 0;
#X obj 36 97 cnv 2 2 16 empty p4-6-1012 empty 0 0 0 14 #ffffff #ffffff 0;
#X obj 44 97 cnv 2 2 16 empty p5-6-1012 empty 0 0 0 14 #ffffff #ffffff 0;
#X obj 52 97 cnv 2 2 16 empty p6-6-1012 empty 0 0 0 14 #ffffff #ffffff 0;
#X obj 60 97 cnv 2 2 16 empty p7-6-1012 empty 0 0 0 14 #ffffff #ffffff 0;
#X obj 68 97 cnv 2 2 16 empty p8-6-1012 empty 0 0 0 14 #ffffff #ffffff 0;
#X obj 76 97 cnv 2 2 16 empty p9-6-1012 empty 0 0 0 14 #ffffff #ffffff 0;
#X obj 84 97 cnv 2 2 16 empty p10-6-1012 empty 0 0 0 14 #ffffff #ffffff 0;
#X obj 92 97 cnv 2 2 16 empty p11-6-1012 empty 0 0 0 14 #ffffff #ffffff 0;
#X obj 100 97 cnv 2 2 16 empty p12-6-1012 empty 0 0 0 14 #ffffff #ffffff 0;
#X obj 108 97 cnv 2 2 16 empty p13-6-1012 empty 0 0 0 14 #ffffff #ffffff 0;
#X obj 116 97 cnv 2 2 16 empty p14-6-1012 empty 0 0 0 14 #ffffff #ffffff 0;
#X obj 124 97 cnv 2 2 16 empty p15-6-1012 empty 0 0 0 14 #ffffff #ffffff 0;
#X obj 132 97 cnv 2 2 16 empty p16-6-1012 empty 0 0 0 14 #ffffff #ffffff 0;
#X obj 140 97 cnv 2 2 16 empty p17-6-1012 empty 0 0 0 14 #ffffff #ffffff 0;
#X obj 148 97 cnv 2 2 16 empty p18-6-1012 empty 0 0 0 14 #ffffff #ffffff 0;
#X obj 156 97 cnv 2 2 16 empty p19-6-1012 empty 0 0 0 14 #ffffff #ffffff 0;
#X obj 164 97 cnv 2 2 16 empty p20-6-1012 empty 0 0 0 14 #ffffff #ffffff 0;
#X obj 172 97 cnv 2 2 16 empty p21-6-1012 empty 0 0 0 14 #ffffff #ffffff 0;
#X obj 180 97 cnv 2 2 16 empty p22-6-1012 empty 0 0 0 14 #ffffff #ffffff 0;
#X obj 188 97 cnv 2 2 16 empty p23-6-1012 empty 0 0 0 14 #ffffff #ffffff 0;
#X obj 196 97 cnv 2 2 16 empty p24-6-1012 empty 0 0 0 14 #ffffff #ffffff 0;
#X obj 204 97 cnv 2 2 16 empty p25-6-1012 empty 0 0 0 14 #ffffff #ffffff 0;
#X obj 212 97 cnv 2 2 16 empty p26-6-1012 empty 0 0 0 14 #ffffff #ffffff 0;
#X obj 220 97 cnv 2 2 16 empty p27-6-1012 empty 0 0 0 14 #ffffff #ffffff 0;
#X obj 228 97 cnv 2 2 16 empty p28-6-1012 empty 0 0 0 14 #ffffff #ffffff 0;
#X obj 236 97 cnv 2 2 16 empty p29-6-1012 empty 0 0 0 14 #ffffff #ffffff 0;
#X obj 244 97 cnv 2 2 16 empty p30-6-1012 empty 0 0 0 14 #ffffff #ffffff 0;
#X obj 252 97 cnv 2 2 16 empty p31-6-1012 empty 0 0 0 14 #ffffff #ffffff 0;
#X obj 4 113 cnv 2 2 16 empty p0-7-1012 empty 0 0 0 14 #ffffff #ffffff 0;
#X obj 12 113 cnv 2 2 16 empty p1-7-1012 empty 0 0 0 14 #ffffff #ffffff 0;
#X obj 20 113 cnv 2 2 16 empty p2-7-1012 empty 0 0 0 14 #ffffff #ffffff 0;
#X obj 28 113 cnv 2 2 16 empty p3-7-1012 empty 0 0 0 14 #ffffff #ffffff 0;
#X obj 36 113 cnv 2 2 16 empty p4-7-1012 empty 0 0 0 14 #ffffff #ffffff 0;
#X obj 44 113 cnv 2 2 16 empty p5-7-1012 empty 0 0 0 14 #ffffff #ffffff 0;
#X obj 52 113 cnv 2 2 16 empty p6-7-1012 empty 0 0 0 14 #ffffff #ffffff 0;
#X obj 60 113 cnv 2 2 16 empty p7-7-1012 empty 0 0 0 14 #ffffff #ffffff 0;
#X obj 68 113 cnv 2 2 16 empty p8-7-1012 empty 0 0 0 14 #ffffff #ffffff 0;
#X obj 76 113 cnv 2 2 16 empty p9-7-1012 empty 0 0 0 14 #ffffff #ffffff 0;
#X obj 84 113 cnv 2 2 16 empty p10-7-1012 empty 0 0 0 14 #ffffff #ffffff 0;
#X obj 92 113 cnv 2 2 16 empty p11-7-1012 empty 0 0 0 14 #ffffff #ffffff 0;
#X obj 100 113 cnv 2 2 16 empty p12-7-1012 empty 0 0 0 14 #ffffff #ffffff 0;
#X obj 108 113 cnv 2 2 16 empty p13-7-1012 empty 0 0 0 14 #ffffff #ffffff 0;
#X obj 116 113 cnv 2 2 16 empty p14-7-1012 empty 0 0 0 14 #ffffff #ffffff 0;
#X obj 124 113 cnv 2 2 16 empty p15-7-1012 empty 0 0 0 14 #ffffff #ffffff 0;
#X obj 132 113 cnv 2 2 16 empty p16-7-1012 empty 0 0 0 14 #ffffff #ffffff 0;
#X obj 140 113 cnv 2 2 16 empty p17-7-1012 empty 0 0 0 14 #ffffff #ffffff 0;
#X obj 148 113 cnv 2 2 16 empty p18-7-1012 empty 0 0 0 14 #ffffff #ffffff 0;
#X obj 156 113 cnv 2 2 16 empty p19-7-1012 empty 0 0 0 14 #ffffff #ffffff 0;
#X obj 164 113 cnv 2 2 16 empty p20-7-1012 empty 0 0 0 14 #ffffff #ffffff 0;
#X obj 172 113 cnv 2 2 16 empty p21-7-1012 empty 0 0 0 14 #ffffff #ffffff 0;
#X obj 180 113 cnv 2 2 16 empty p22-7-1012 empty 0 0 0 14 #ffffff #ffffff 0;
#X obj 188 113 cnv 2 2 16 empty p23-7-1012 empty 0 0 0 14 #ffffff #ffffff 0;
#X obj 196 113 cnv 2 2 16 empty p24-7-1012 empty 0 0 0 14 #ffffff #ffffff 0;
#X obj 204 113 cnv 2 2 16 empty p25-7-1012 empty 0 0 0 14 #ffffff #ffffff 0;
#X obj 212 113 cnv 2 2 16 empty p26-7-1012 empty 0 0 0 14 #ffffff #ffffff 0;
#X obj 220 113 cnv 2 2 16 empty p27-7-1012 empty 0 0 0 14 #ffffff #ffffff 0;
#X obj 228 113 cnv 2 2 16 empty p28-7-1012 empty 0 0 0 14 #ffffff #ffffff 0;
#X obj 236 113 cnv 2 2 16 empty p29-7-1012 empty 0 0 0 14 #ffffff #ffffff 0;
#X obj 244 113 cnv 2 2 16 empty p30-7-1012 empty 0 0 0 14 #ffffff #ffffff 0;
#X obj 252 113 cnv 2 2 16 empty p31-7-1012 empty 0 0 0 14 #ffffff #ffffff 0;
#X obj 4 129 cnv 2 2 16 empty p0-8-1012 empty 0 0 0 14 #ffffff #ffffff 0;
#X obj 12 129 cnv 2 2 16 empty p1-8-1012 empty 0 0 0 14 #ffffff #ffffff 0;
#X obj 20 129 cnv 2 2 16 empty p2-8-1012 empty 0 0 0 14 #ffffff #ffffff 0;
#X obj 28 129 cnv 2 2 16 empty p3-8-1012 empty 0 0 0 14 #ffffff #ffffff 0;
#X obj 36 129 cnv 2 2 16 empty p4-8-1012 empty 0 0 0 14 #ffffff #ffffff 0;
#X obj 44 129 cnv 2 2 16 empty p5-8-1012 empty 0 0 0 14 #ffffff #ffffff 0;
#X obj 52 129 cnv 2 2 16 empty p6-8-1012 empty 0 0 0 14 #ffffff #ffffff 0;
#X obj 60 129 cnv 2 2 16 empty p7-8-1012 empty 0 0 0 14 #ffffff #ffffff 0;
#X obj 68 129 cnv 2 2 16 empty p8-8-1012 empty 0 0 0 14 #ffffff #ffffff 0;
#X obj 76 129 cnv 2 2 16 empty p9-8-1012 empty 0 0 0 14 #ffffff #ffffff 0;
#X obj 84 129 cnv 2 2 16 empty p10-8-1012 empty 0 0 0 14 #ffffff #ffffff 0;
#X obj 92 129 cnv 2 2 16 empty p11-8-1012 empty 0 0 0 14 #ffffff #ffffff 0;
#X obj 100 129 cnv 2 2 16 empty p12-8-1012 empty 0 0 0 14 #ffffff #ffffff 0;
#X obj 108 129 cnv 2 2 16 empty p13-8-1012 empty 0 0 0 14 #ffffff #ffffff 0;
#X obj 116 129 cnv 2 2 16 empty p14-8-1012 empty 0 0 0 14 #ffffff #ffffff 0;
#X obj 124 129 cnv 2 2 16 empty p15-8-1012 empty 0 0 0 14 #ffffff #ffffff 0;
#X obj 132 129 cnv 2 2 16 empty p16-8-1012 empty 0 0 0 14 #ffffff #ffffff 0;
#X obj 140 129 cnv 2 2 16 empty p17-8-1012 empty 0 0 0 14 #ffffff #ffffff 0;
#X obj 148 129 cnv 2 2 16 empty p18-8-1012 empty 0 0 0 14 #ffffff #ffffff 0;
#X obj 156 129 cnv 2 2 16 empty p19-8-1012 empty 0 0 0 14 #ffffff #ffffff 0;
#X obj 164 129 cnv 2 2 16 empty p20-8-1012 empty 0 0 0 14 #ffffff #ffffff 0;
#X obj 172 129 cnv 2 2 16 empty p21-8-1012 empty 0 0 0 14 #ffffff #ffffff 0;
#X obj 180 129 cnv 2 2 16 empty p22-8-1012 empty 0 0 0 14 #ffffff #ffffff 0;
#X obj 188 129 cnv 2 2 16 empty p23-8-1012 empty 0 0 0 14 #ffffff #ffffff 0;
#X obj 196 129 cnv 2 2 16 empty p24-8-1012 empty 0 0 0 14 #ffffff #ffffff 0;
#X obj 204 129 cnv 2 2 16 empty p25-8-1012 empty 0 0 0 14 #ffffff #ffffff 0;
#X obj 212 129 cnv 2 2 16 empty p26-8-1012 empty 0 0 0 14 #ffffff #ffffff 0;
#X obj 220 129 cnv 2 2 16 empty p27-8-1012 empty 0 0 0 14 #ffffff #ffffff 0;
#X obj 228 129 cnv 2 2 16 empty p28-8-1012 empty 0 0 0 14 #ffffff #ffffff 0;
#X obj 236 129 cnv 2 2 16 empty p29-8-1012 empty 0 0 0 14 #ffffff #ffffff 0;
#X obj 244 129 cnv 2 2 16 empty p30-8-1012 empty 0 0 0 14 #ffffff #ffffff 0;
#X obj 252 129 cnv 2 2 16 empty p31-8-1012 empty 0 0 0 14 #ffffff #ffffff 0;
#X obj 4 145 cnv 2 2 16 empty p0-9-1012 empty 0 0 0 14 #ffffff #ffffff 0;
#X obj 12 145 cnv 2 2 16 empty p1-9-1012 empty 0 0 0 14 #ffffff #ffffff 0;
#X obj 20 145 cnv 2 2 16 empty p2-9-1012 empty 0 0 0 14 #ffffff #ffffff 0;
#X obj 28 145 cnv 2 2 16 empty p3-9-1012 empty 0 0 0 14 #ffffff #ffffff 0;
#X obj 36 145 cnv 2 2 16 empty p4-9-1012 empty 0 0 0 14 #ffffff #ffffff 0;
#X obj 44 145 cnv 2 2 16 empty p5-9-1012 empty 0 0 0 14 #ffffff #ffffff 0;
#X obj 52 145 cnv 2 2 16 empty p6-9-1012 empty 0 0 0 14 #ffffff #ffffff 0;
#X obj 60 145 cnv 2 2 16 empty p7-9-1012 empty 0 0 0 14 #ffffff #ffffff 0;
#X obj 68 145 cnv 2 2 16 empty p8-9-1012 empty 0 0 0 14 #ffffff #ffffff 0;
#X obj 76 145 cnv 2 2 16 empty p9-9-1012 empty 0 0 0 14 #ffffff #ffffff 0;
#X obj 84 145 cnv 2 2 16 empty p10-9-1012 empty 0 0 0 14 #ffffff #ffffff 0;
#X obj 92 145 cnv 2 2 16 empty p11-9-1012 empty 0 0 0 14 #ffffff #ffffff 0;
#X obj 100 145 cnv 2 2 16 empty p12-9-1012 empty 0 0 0 14 #ffffff #ffffff 0;
#X obj 108 145 cnv 2 2 16 empty p13-9-1012 empty 0 0 0 14 #ffffff #ffffff 0;
#X obj 116 145 cnv 2 2 16 empty p14-9-1012 empty 0 0 0 14 #ffffff #ffffff 0;
#X obj 124 145 cnv 2 2 16 empty p15-9-1012 empty 0 0 0 14 #ffffff #ffffff 0;
#X obj 132 145 cnv 2 2 16 empty p16-9-1012 empty 0 0 0 14 #ffffff #ffffff 0;
#X obj 140 145 cnv 2 2 16 empty p17-9-1012 empty 0 0 0 14 #ffffff #ffffff 0;
#X obj 148 145 cnv 2 2 16 empty p18-9-1012 empty 0 0 0 14 #ffffff #ffffff 0;
#X obj 156 145 cnv 2 2 16 empty p19-9-1012 empty 0 0 0 14 #ffffff #ffffff 0;
#X obj 164 145 cnv 2 2 16 empty p20-9-1012 empty 0 0 0 14 #ffffff #ffffff 0;
#X obj 172 145 cnv 2 2 16 empty p21-9-1012 empty 0 0 0 14 #ffffff #ffffff 0;
#X obj 180 145 cnv 2 2 16 empty p22-9-1012 empty 0 0 0 14 #ffffff #ffffff 0;
#X obj 188 145 cnv 2 2 16 empty p23-9-1012 empty 0 0 0 14 #ffffff #ffffff 0;
#X obj 196 145 cnv 2 2 16 empty p24-9-1012 empty 0 0 0 14 #ffffff #ffffff 0;
#X obj 204 145 cnv 2 2 16 empty p25-9-1012 empty 0 0 0 14 #ffffff #ffffff 0;
#X obj 212 145 cnv 2 2 16 empty p26-9-1012 empty 0 0 0 14 #ffffff #ffffff 0;
#X obj 220 145 cnv 2 2 16 empty p27-9-1012 empty 0 0 0 14 #ffffff #ffffff 0;
#X obj 228 145 cnv 2 2 16 empty p28-9-1012 empty 0 0 0 14 #ffffff #ffffff 0;
#X obj 236 145 cnv 2 2 16 empty p29-9-1012 empty 0 0 0 14 #ffffff #ffffff 0;
#X obj 244 145 cnv 2 2 16 empty p30-9-1012 empty 0 0 0 14 #ffffff #ffffff 0;
#X obj 252 145 cnv 2 2 16 empty p31-9-1012 empty 0 0 0 14 #ffffff #ffffff 0;
#X obj 4 161 cnv 2 2 16 empty p0-10-1012 empty 0 0 0 14 #ffffff #ffffff 0;
#X obj 12 161 cnv 2 2 16 empty p1-10-1012 empty 0 0 0 14 #ffffff #ffffff 0;
#X obj 20 161 cnv 2 2 16 empty p2-10-1012 empty 0 0 0 14 #ffffff #ffffff 0;
#X obj 28 161 cnv 2 2 16 empty p3-10-1012 empty 0 0 0 14 #ffffff #ffffff 0;
#X obj 36 161 cnv 2 2 16 empty p4-10-1012 empty 0 0 0 14 #ffffff #ffffff 0;
#X obj 44 161 cnv 2 2 16 empty p5-10-1012 empty 0 0 0 14 #ffffff #ffffff 0;
#X obj 52 161 cnv 2 2 16 empty p6-10-1012 empty 0 0 0 14 #ffffff #ffffff 0;
#X obj 60 161 cnv 2 2 16 empty p7-10-1012 empty 0 0 0 14 #ffffff #ffffff 0;
#X obj 68 161 cnv 2 2 16 empty p8-10-1012 empty 0 0 0 14 #ffffff #ffffff 0;
#X obj 76 161 cnv 2 2 16 empty p9-10-1012 empty 0 0 0 14 #ffffff #ffffff 0;
#X obj 84 161 cnv 2 2 16 empty p10-10-1012 empty 0 0 0 14 #ffffff #ffffff 0;
#X obj 92 161 cnv 2 2 16 empty p11-10-1012 empty 0 0 0 14 #ffffff #ffffff 0;
#X obj 100 161 cnv 2 2 16 empty p12-10-1012 empty 0 0 0 14 #ffffff #ffffff 0;
#X obj 108 161 cnv 2 2 16 empty p13-10-1012 empty 0 0 0 14 #ffffff #ffffff 0;
#X obj 116 161 cnv 2 2 16 empty p14-10-1012 empty 0 0 0 14 #ffffff #ffffff 0;
#X obj 124 161 cnv 2 2 16 empty p15-10-1012 empty 0 0 0 14 #ffffff #ffffff 0;
#X obj 132 161 cnv 2 2 16 empty p16-10-1012 empty 0 0 0 14 #ffffff #ffffff 0;
#X obj 140 161 cnv 2 2 16 empty p17-10-1012 empty 0 0 0 14 #ffffff #ffffff 0;
#X obj 148 161 cnv 2 2 16 empty p18-10-1012 empty 0 0 0 14 #ffffff #ffffff 0;
#X obj 156 161 cnv 2 2 16 empty p19-10-1012 empty 0 0 0 14 #ffffff #ffffff 0;
#X obj 164 161 cnv 2 2 16 empty p20-10-1012 empty 0 0 0 14 #ffffff #ffffff 0;
#X obj 172 161 cnv 2 2 16 empty p21-10-1012 empty 0 0 0 14 #ffffff #ffffff 0;
#X obj 180 161 cnv 2 2 16 empty p22-10-1012 empty 0 0 0 14 #ffffff #ffffff 0;
#X obj 188 161 cnv 2 2 16 empty p23-10-1012 empty 0 0 0 14 #ffffff #ffffff 0;
#X obj 196 161 cnv 2 2 16 empty p24-10-1012 empty 0 0 0 14 #ffffff #ffffff 0;
#X obj 204 161 cnv 2 2 16 empty p25-10-1012 empty 0 0 0 14 #ffffff #ffffff 0;
#X obj 212 161 cnv 2 2 16 empty p26-10-1012 empty 0 0 0 14 #ffffff #ffffff 0;
#X obj 220 161 cnv 2 2 16 empty p27-10-1012 empty 0 0 0 14 #ffffff #ffffff 0;
#X obj 228 161 cnv 2 2 16 empty p28-10-1012 empty 0 0 0 14 #ffffff #ffffff 0;
#X obj 236 161 cnv 2 2 16 empty p29-10-1012 empty 0 0 0 14 #ffffff #ffffff 0;
#X obj 244 161 cnv 2 2 16 empty p30-10-1012 empty 0 0 0 14 #ffffff #ffffff 0;
#X obj 252 161 cnv 2 2 16 empty p31-10-1012 empty 0 0 0 14 #ffffff #ffffff 0;
#X obj 4 177 cnv 2 2 16 empty p0-11-1012 empty 0 0 0 14 #ffffff #ffffff 0;
#X obj 12 177 cnv 2 2 16 empty p1-11-1012 empty 0 0 0 14 #ffffff #ffffff 0;
#X obj 20 177 cnv 2 2 16 empty p2-11-1012 empty 0 0 0 14 #ffffff #ffffff 0;
#X obj 28 177 cnv 2 2 16 empty p3-11-1012 empty 0 0 0 14 #ffffff #ffffff 0;
#X obj 36 177 cnv 2 2 16 empty p4-11-1012 empty 0 0 0 14 #ffffff #ffffff 0;
#X obj 44 177 cnv 2 2 16 empty p5-11-1012 empty 0 0 0 14 #ffffff #ffffff 0;
#X obj 52 177 cnv 2 2 16 empty p6-11-1012 empty 0 0 0 14 #ffffff #ffffff 0;
#X obj 60 177 cnv 2 2 16 empty p7-11-1012 empty 0 0 0 14 #ffffff #ffffff 0;
#X obj 68 177 cnv 2 2 16 empty p8-11-1012 empty 0 0 0 14 #ffffff #ffffff 0;
#X obj 76 177 cnv 2 2 16 empty p9-11-1012 empty 0 0 0 14 #ffffff #ffffff 0;
#X obj 84 177 cnv 2 2 16 empty p10-11-1012 empty 0 0 0 14 #ffffff #ffffff 0;
#X obj 92 177 cnv 2 2 16 empty p11-11-1012 empty 0 0 0 14 #ffffff #ffffff 0;
#X obj 100 177 cnv 2 2 16 empty p12-11-1012 empty 0 0 0 14 #ffffff #ffffff 0;
#X obj 108 177 cnv 2 2 16 empty p13-11-1012 empty 0 0 0 14 #ffffff #ffffff 0;
#X obj 116 177 cnv 2 2 16 empty p14-11-1012 empty 0 0 0 14 #ffffff #ffffff 0;
#X obj 124 177 cnv 2 2 16 empty p15-11-1012 empty 0 0 0 14 #ffffff #ffffff 0;
#X obj 132 177 cnv 2 2 16 empty p16-11-1012 empty 0 0 0 14 #ffffff #ffffff 0;
#X obj 140 177 cnv 2 2 16 empty p17-11-1012 empty 0 0 0 14 #ffffff #ffffff 0;
#X obj 148 177 cnv 2 2 16 empty p18-11-1012 empty 0 0 0 14 #ffffff #ffffff 0;
#X obj 156 177 cnv 2 2 16 empty p19-11-1012 empty 0 0 0 14 #ffffff #ffffff 0;
#X obj 164 177 cnv 2 2 16 empty p20-11-1012 empty 0 0 0 14 #ffffff #ffffff 0;
#X obj 172 177 cnv 2 2 16 empty p21-11-1012 empty 0 0 0 14 #ffffff #ffffff 0;
#X obj 180 177 cnv 2 2 16 empty p22-11-1012 empty 0 0 0 14 #ffffff #ffffff 0;
#X obj 188 177 cnv 2 2 16 empty p23-11-1012 empty 0 0 0 14 #ffffff #ffffff 0;
#X obj 196 177 cnv 2 2 16 empty p24-11-1012 empty 0 0 0 14 #ffffff #ffffff 0;
#X obj 204 177 cnv 2 2 16 empty p25-11-1012 empty 0 0 0 14 #ffffff #ffffff 0;
#X obj 212 177 cnv 2 2 16 empty p26-11-1012 empty 0 0 0 14 #ffffff #ffffff 0;
#X obj 220 177 cnv 2 2 16 empty p27-11-1012 empty 0 0 0 14 #ffffff #ffffff 0;
#X obj 228 177 cnv 2 2 16 empty p28-11-1012 empty 0 0 0 14 #ffffff #ffffff 0;
#X obj 236 177 cnv 2 2 16 empty p29-11-1012 empty 0 0 0 14 #ffffff #ffffff 0;
#X obj 244 177 cnv 2 2 16 empty p30-11-1012 empty 0 0 0 14 #ffffff #ffffff 0;
#X obj 252 177 cnv 2 2 16 empty p31-11-1012 empty 0 0 0 14 #ffffff #ffffff 0;
#X obj 4 193 cnv 2 2 16 empty p0-12-1012 empty 0 0 0 14 #ffffff #ffffff 0;
#X obj 12 193 cnv 2 2 16 empty p1-12-1012 empty 0 0 0 14 #ffffff #ffffff 0;
#X obj 20 193 cnv 2 2 16 empty p2-12-1012 empty 0 0 0 14 #ffffff #ffffff 0;
#X obj 28 193 cnv 2 2 16 empty p3-12-1012 empty 0 0 0 14 #ffffff #ffffff 0;
#X obj 36 193 cnv 2 2 16 empty p4-12-1012 empty 0 0 0 14 #ffffff #ffffff 0;
#X obj 44 193 cnv 2 2 16 empty p5-12-1012 empty 0 0 0 14 #ffffff #ffffff 0;
#X obj 52 193 cnv 2 2 16 empty p6-12-1012 empty 0 0 0 14 #ffffff #ffffff 0;
#X obj 60 193 cnv 2 2 16 empty p7-12-1012 empty 0 0 0 14 #ffffff #ffffff 0;
#X obj 68 193 cnv 2 2 16 empty p8-12-1012 empty 0 0 0 14 #ffffff #ffffff 0;
#X obj 76 193 cnv 2 2 16 empty p9-12-1012 empty 0 0 0 14 #ffffff #ffffff 0;
#X obj 84 193 cnv 2 2 16 empty p10-12-1012 empty 0 0 0 14 #ffffff #ffffff 0;
#X obj 92 193 cnv 2 2 16 empty p11-12-1012 empty 0 0 0 14 #ffffff #ffffff 0;
#X obj 100 193 cnv 2 2 16 empty p12-12-1012 empty 0 0 0 14 #ffffff #ffffff 0;
#X obj 108 193 cnv 2 2 16 empty p13-12-1012 empty 0 0 0 14 #ffffff #ffffff 0;
#X obj 116 193 cnv 2 2 16 empty p14-12-1012 empty 0 0 0 14 #ffffff #ffffff 0;
#X obj 124 193 cnv 2 2 16 empty p15-12-1012 empty 0 0 0 14 #ffffff #ffffff 0;
#X obj 132 193 cnv 2 2 16 empty p16-12-1012 empty 0 0 0 14 #ffffff #ffffff 0;
#X obj 140 193 cnv 2 2 16 empty p17-12-1012 empty 0 0 0 14 #ffffff #ffffff 0;
#X obj 148 193 cnv 2 2 16 empty p18-12-1012 empty 0 0 0 14 #ffffff #ffffff 0;
#X obj 156 193 cnv 2 2 16 empty p19-12-1012 empty 0 0 0 14 #ffffff #ffffff 0;
#X obj 164 193 cnv 2 2 16 empty p20-12-1012 empty 0 0 0 14 #ffffff #ffffff 0;
#X obj 172 193 cnv 2 2 16 empty p21-12-1012 empty 0 0 0 14 #ffffff #ffffff 0;
#X obj 180 193 cnv 2 2 16 empty p22-12-1012 empty 0 0 0 14 #ffffff #ffffff 0;
#X obj 188 193 cnv 2 2 16 empty p23-12-1012 empty 0 0 0 14 #ffffff #ffffff 0;
#X obj 196 193 cnv 2 2 16 empty p24-12-1012 empty 0 0 0 14 #ffffff #ffffff 0;
#X obj 204 193 cnv 2 2 16 empty p25-12-1012 empty 0 0 0 14 #ffffff #ffffff 0;
#X obj 212 193 cnv 2 2 16 empty p26-12-1012 empty 0 0 0 14 #ffffff #ffffff 0;
#X obj 220 193 cnv 2 2 16 empty p27-12-1012 empty 0 0 0 14 #ffffff #ffffff 0;
#X obj 228 193 cnv 2 2 16 empty p28-12-1012 empty 0 0 0 14 #ffffff #ffffff 0;
#X obj 236 193 cnv 2 2 16 empty p29-12-1012 empty 0 0 0 14 #ffffff #ffffff 0;
#X obj 244 193 cnv 2 2 16 empty p30-12-1012 empty 0 0 0 14 #ffffff #ffffff 0;
#X obj 252 193 cnv 2 2 16 empty p31-12-1012 empty 0 0 0 14 #ffffff #ffffff 0;
#X obj 4 209 cnv 2 2 16 empty p0-13-1012 empty 0 0 0 14 #ffffff #ffffff 0;
#X obj 12 209 cnv 2 2 16 empty p1-13-1012 empty 0 0 0 14 #ffffff #ffffff 0;
#X obj 20 209 cnv 2 2 16 empty p2-13-1012 empty 0 0 0 14 #ffffff #ffffff 0;
#X obj 28 209 cnv 2 2 16 empty p3-13-1012 empty 0 0 0 14 #ffffff #ffffff 0;
#X obj 36 209 cnv 2 2 16 empty p4-13-1012 empty 0 0 0 14 #ffffff #ffffff 0;
#X obj 44 209 cnv 2 2 16 empty p5-13-1012 empty 0 0 0 14 #ffffff #ffffff 0;
#X obj 52 209 cnv 2 2 16 empty p6-13-1012 empty 0 0 0 14 #ffffff #ffffff 0;
#X obj 60 209 cnv 2 2 16 empty p7-13-1012 empty 0 0 0 14 #ffffff #ffffff 0;
#X obj 68 209 cnv 2 2 16 empty p8-13-1012 empty 0 0 0 14 #ffffff #ffffff 0;
#X obj 76 209 cnv 2 2 16 empty p9-13-1012 empty 0 0 0 14 #ffffff #ffffff 0;
#X obj 84 209 cnv 2 2 16 empty p10-13-1012 empty 0 0 0 14 #ffffff #ffffff 0;
#X obj 92 209 cnv 2 2 16 empty p11-13-1012 empty 0 0 0 14 #ffffff #ffffff 0;
#X obj 100 209 cnv 2 2 16 empty p12-13-1012 empty 0 0 0 14 #ffffff #ffffff 0;
#X obj 108 209 cnv 2 2 16 empty p13-13-1012 empty 0 0 0 14 #ffffff #ffffff 0;
#X obj 116 209 cnv 2 2 16 empty p14-13-1012 empty 0 0 0 14 #ffffff #ffffff 0;
#X obj 124 209 cnv 2 2 16 empty p15-13-1012 empty 0 0 0 14 #ffffff #ffffff 0;
#X obj 132 209 cnv 2 2 16 empty p16-13-1012 empty 0 0 0 14 #ffffff #ffffff 0;
#X obj 140 209 cnv 2 2 16 empty p17-13-1012 empty 0 0 0 14 #ffffff #ffffff 0;
#X obj 148 209 cnv 2 2 16 empty p18-13-1012 empty 0 0 0 14 #ffffff #ffffff 0;
#X obj 156 209 cnv 2 2 16 empty p19-13-1012 empty 0 0 0 14 #ffffff #ffffff 0;
#X obj 164 209 cnv 2 2 16 empty p20-13-1012 empty 0 0 0 14 #ffffff #ffffff 0;
#X obj 172 209 cnv 2 2 16 empty p21-13-1012 empty 0 0 0 14 #ffffff #ffffff 0;
#X obj 180 209 cnv 2 2 16 empty p22-13-1012 empty 0 0 0 14 #ffffff #ffffff 0;
#X obj 188 209 cnv 2 2 16 empty p23-13-1012 empty 0 0 0 14 #ffffff #ffffff 0;
#X obj 196 209 cnv 2 2 16 empty p24-13-1012 empty 0 0 0 14 #ffffff #ffffff 0;
#X obj 204 209 cnv 2 2 16 empty p25-13-1012 empty 0 0 0 14 #ffffff #ffffff 0;
#X obj 212 209 cnv 2 2 16 empty p26-13-1012 empty 0 0 0 14 #ffffff #ffffff 0;
#X obj 220 209 cnv 2 2 16 empty p27-13-1012 empty 0 0 0 14 #ffffff #ffffff 0;
#X obj 228 209 cnv 2 2 16 empty p28-13-1012 empty 0 0 0 14 #ffffff #ffffff 0;
#X obj 236 209 cnv 2 2 16 empty p29-13-1012 empty 0 0 0 14 #ffffff #ffffff 0;
#X obj 244 209 cnv 2 2 16 empty p30-13-1012 empty 0 0 0 14 #ffffff #ffffff 0;
#X obj 252 209 cnv 2 2 16 empty p31-13-1012 empty 0 0 0 14 #ffffff #ffffff 0;
#X obj 4 225 cnv 2 2 16 empty p0-14-1012 empty 0 0 0 14 #ffffff #ffffff 0;
#X obj 12 225 cnv 2 2 16 empty p1-14-1012 empty 0 0 0 14 #ffffff #ffffff 0;
#X obj 20 225 cnv 2 2 16 empty p2-14-1012 empty 0 0 0 14 #ffffff #ffffff 0;
#X obj 28 225 cnv 2 2 16 empty p3-14-1012 empty 0 0 0 14 #ffffff #ffffff 0;
#X obj 36 225 cnv 2 2 16 empty p4-14-1012 empty 0 0 0 14 #ffffff #ffffff 0;
#X obj 44 225 cnv 2 2 16 empty p5-14-1012 empty 0 0 0 14 #ffffff #ffffff 0;
#X obj 52 225 cnv 2 2 16 empty p6-14-1012 empty 0 0 0 14 #ffffff #ffffff 0;
#X obj 60 225 cnv 2 2 16 empty p7-14-1012 empty 0 0 0 14 #ffffff #ffffff 0;
#X obj 68 225 cnv 2 2 16 empty p8-14-1012 empty 0 0 0 14 #ffffff #ffffff 0;
#X obj 76 225 cnv 2 2 16 empty p9-14-1012 empty 0 0 0 14 #ffffff #ffffff 0;
#X obj 84 225 cnv 2 2 16 empty p10-14-1012 empty 0 0 0 14 #ffffff #ffffff 0;
#X obj 92 225 cnv 2 2 16 empty p11-14-1012 empty 0 0 0 14 #ffffff #ffffff 0;
#X obj 100 225 cnv 2 2 16 empty p12-14-1012 empty 0 0 0 14 #ffffff #ffffff 0;
#X obj 108 225 cnv 2 2 16 empty p13-14-1012 empty 0 0 0 14 #ffffff #ffffff 0;
#X obj 116 225 cnv 2 2 16 empty p14-14-1012 empty 0 0 0 14 #ffffff #ffffff 0;
#X obj 124 225 cnv 2 2 16 empty p15-14-1012 empty 0 0 0 14 #ffffff #ffffff 0;
#X obj 132 225 cnv 2 2 16 empty p16-14-1012 empty 0 0 0 14 #ffffff #ffffff 0;
#X obj 140 225 cnv 2 2 16 empty p17-14-1012 empty 0 0 0 14 #ffffff #ffffff 0;
#X obj 148 225 cnv 2 2 16 empty p18-14-1012 empty 0 0 0 14 #ffffff #ffffff 0;
#X obj 156 225 cnv 2 2 16 empty p19-14-1012 empty 0 0 0 14 #ffffff #ffffff 0;
#X obj 164 225 cnv 2 2 16 empty p20-14-1012 empty 0 0 0 14 #ffffff #ffffff 0;
#X obj 172 225 cnv 2 2 16 empty p21-14-1012 empty 0 0 0 14 #ffffff #ffffff 0;
#X obj 180 225 cnv 2 2 16 empty p22-14-1012 empty 0 0 0 14 #ffffff #ffffff 0;
#X obj 188 225 cnv 2 2 16 empty p23-14-1012 empty 0 0 0 14 #ffffff #ffffff 0;
#X obj 196 225 cnv 2 2 16 empty p24-14-1012 empty 0 0 0 14 #ffffff #ffffff 0;
#X obj 204 225 cnv 2 2 16 empty p25-14-1012 empty 0 0 0 14 #ffffff #ffffff 0;
#X obj 212 225 cnv 2 2 16 empty p26-14-1012 empty 0 0 0 14 #ffffff #ffffff 0;
#X obj 220 225 cnv 2 2 16 empty p27-14-1012 empty 0 0 0 14 #ffffff #ffffff 0;
#X obj 228 225 cnv 2 2 16 empty p28-14-1012 empty 0 0 0 14 #ffffff #ffffff 0;
#X obj 236 225 cnv 2 2 16 empty p29-14-1012 empty 0 0 0 14 #ffffff #ffffff 0;
#X obj 244 225 cnv 2 2 16 empty p30-14-1012 empty 0 0 0 14 #ffffff #ffffff 0;
#X obj 252 225 cnv 2 2 16 empty p31-14-1012 empty 0 0 0 14 #ffffff #ffffff 0;
#X obj 4 241 cnv 2 2 16 empty p0-15-1012 empty 0 0 0 14 #ffffff #ffffff 0;
#X obj 12 241 cnv 2 2 16 empty p1-15-1012 empty 0 0 0 14 #ffffff #ffffff 0;
#X obj 20 241 cnv 2 2 16 empty p2-15-1012 empty 0 0 0 14 #ffffff #ffffff 0;
#X obj 28 241 cnv 2 2 16 empty p3-15-1012 empty 0 0 0 14 #ffffff #ffffff 0;
#X obj 36 241 cnv 2 2 16 empty p4-15-1012 empty 0 0 0 14 #ffffff #ffffff 0;
#X obj 44 241 cnv 2 2 16 empty p5-15-1012 empty 0 0 0 14 #ffffff #ffffff 0;
#X obj 52 241 cnv 2 2 16 empty p6-15-1012 empty 0 0 0 14 #ffffff #ffffff 0;
#X obj 60 241 cnv 2 2 16 empty p7-15-1012 empty 0 0 0 14 #ffffff #ffffff 0;
#X obj 68 241 cnv 2 2 16 empty p8-15-1012 empty 0 0 0 14 #ffffff #ffffff 0;
#X obj 76 241 cnv 2 2 16 empty p9-15-1012 empty 0 0 0 14 #ffffff #ffffff 0;
#X obj 84 241 cnv 2 2 16 empty p10-15-1012 empty 0 0 0 14 #ffffff #ffffff 0;
#X obj 92 241 cnv 2 2 16 empty p11-15-1012 empty 0 0 0 14 #ffffff #ffffff 0;
#X obj 100 241 cnv 2 2 16 empty p12-15-1012 empty 0 0 0 14 #ffffff #ffffff 0;
#X obj 108 241 cnv 2 2 16 empty p13-15-1012 empty 0 0 0 14 #ffffff #ffffff 0;
#X obj 116 241 cnv 2 2 16 empty p14-15-1012 empty 0 0 0 14 #ffffff #ffffff 0;
#X obj 124 241 cnv 2 2 16 empty p15-15-1012 empty 0 0 0 14 #ffffff #ffffff 0;
#X obj 132 241 cnv 2 2 16 empty p16-15-1012 empty 0 0 0 14 #ffffff #ffffff 0;
#X obj 140 241 cnv 2 2 16 empty p17-15-1012 empty 0 0 0 14 #ffffff #ffffff 0;
#X obj 148 241 cnv 2 2 16 empty p18-15-1012 empty 0 0 0 14 #ffffff #ffffff 0;
#X obj 156 241 cnv 2 2 16 empty p19-15-1012 empty 0 0 0 14 #ffffff #ffffff 0;
#X obj 164 241 cnv 2 2 16 empty p20-15-1012 empty 0 0 0 14 #ffffff #ffffff 0;
#X obj 172 241 cnv 2 2 16 empty p21-15-1012 empty 0 0 0 14 #ffffff #ffffff 0;
#X obj 180 241 cnv 2 2 16 empty p22-15-1012 empty 0 0 0 14 #ffffff #ffffff 0;
#X obj 188 241 cnv 2 2 16 empty p23-15-1012 empty 0 0 0 14 #ffffff #ffffff 0;
#X obj 196 241 cnv 2 2 16 empty p24-15-1012 empty 0 0 0 14 #ffffff #ffffff 0;
#X obj 204 241 cnv 2 2 16 empty p25-15-1012 empty 0 0 0 14 #ffffff #ffffff 0;
#X obj 212 241 cnv 2 2 16 empty p26-15-1012 empty 0 0 0 14 #ffffff #ffffff 0;
#X obj 220 241 cnv 2 2 16 empty p27-15-1012 empty 0 0 0 14 #ffffff #ffffff 0;
#X obj 228 241 cnv 2 2 16 empty p28-15-1012 empty 0 0 0 14 #ffffff #ffffff 0;
#X obj 236 241 cnv 2 2 16 empty p29-15-1012 empty 0 0 0 14 #ffffff #ffffff 0;
#X obj 244 241 cnv 2 2 16 empty p30-15-1012 empty 0 0 0 14 #ffffff #ffffff 0;
#X obj 252 241 cnv 2 2 16 empty p31-15-1012 empty 0 0 0 14 #ffffff #ffffff 0;
#X coords 0 0 1 1 258 258 1;
#X restore 0 0 pd graph\$0;
#N canvas 0 50 532 468 construct 1;
#X msg 449 369 clear;
#X obj 39 409 s pd-graph\$0;
#X msg 39 359 obj \$4 \$5 cnv 2 \$6 \$7 empty p\$2-\$3-\$1 empty 0 0 0 14 #ffffff #ffffff 0, f 36;
#X obj 39 100 loop;
#N canvas 0 50 450 300 #-of-points 1;
#X obj 59 29 r nX_\$0;
#X obj 129 29 r nY_\$0;
#X obj 79 79 t b f;
#X obj 59 129 *;
#X obj 59 229 outlet;
#X obj 59 179 max 1;
#X connect 0 0 3 0 empty;
#X connect 1 0 2 0 empty;
#X connect 2 0 3 0 empty;
#X connect 2 1 3 1 empty;
#X connect 3 0 5 0 empty;
#X connect 5 0 4 0 empty;
#X restore 79 99 pd #-of-points;
#X obj 39 129 t b f;
#X obj 39 59 t b b;
#X obj 39 29 r update_\$0;
#X obj 39 329 pack \$0 f f 2 2 2 2;
#X obj 259 289 r pointW_\$0;
#X obj 349 289 r pointH_\$0;
#X text 369 158 x index;
#X text 369 178 y index;
#X text 369 198 x pos;
#X text 369 218 y pos;
#X obj 55 159 expr $f1 % nX_\$0 \; int($f1 / nX_\$0) \; ($f1 % nX_\$0) * (width_\$0 / nX_\$0) + offsetX_\$0 \; int($f1 / nX_\$0) * (height_\$0 / nY_\$0) + offsetY_\$0 \;;
#X connect 0 0 1 0 32.................N....bq+++uC....25+++SA....;
#X connect 2 0 1 0 empty;
#X connect 3 0 5 0 empty;
#X connect 4 0 3 1 empty;
#X connect 5 0 8 0 empty;
#X connect 5 1 15 0 empty;
#X connect 6 0 3 0 empty;
#X connect 6 1 0 0 32.................I....rS...PB....6D...HR....;
#X connect 7 0 6 0 empty;
#X connect 8 0 2 0 empty;
#X connect 9 0 8 5 empty;
#X connect 10 0 8 6 empty;
#X connect 15 0 8 1 empty;
#X connect 15 1 8 2 empty;
#X connect 15 2 8 3 empty;
#X connect 15 3 8 4 empty;
#X restore 279 179 pd construct;
#X obj 279 239 namecanvas abs\$0;
#N canvas 0 50 450 300 color 1;
#X obj 139 199 s;
#X msg 209 159 symbol p\$1-\$2-\$3;
#X obj 209 129 pack f f \$0;
#X msg 139 159 color \$1;
#X obj 169 79 nbx 4 21 -1e+37 1e+37 0 0 empty empty empty 0 -8 0 10 #191919 #ffffff #ffffff 0 256;
#X obj 223 79 nbx 4 21 -1e+37 1e+37 0 0 empty empty empty 0 -8 0 10 #191919 #ffffff #ffffff 0 256;
#X msg 39 119 symbol #ffacab;
#X msg 49 89 symbol #5acafa;
#X text 172 56 x;
#X text 232 55 y;
#X connect 1 0 0 1 empty;
#X connect 2 0 1 0 empty;
#X connect 3 0 0 0 empty;
#X connect 4 0 2 0 empty;
#X connect 5 0 2 1 empty;
#X connect 6 0 3 0 empty;
#X connect 7 0 3 0 empty;
#X restore 279 149 pd color;
#X obj 419 209 inlet;
#N canvas 0 50 450 300 methods 1;
#X obj 29 179 savestate;
#X obj 257 49 inlet;
#X obj 257 79 route bang width height nx ny pw ph xoff yoff, f 40;
#X obj 109 179 pack f 256 256 16 16 4 4 4 4;
#X obj 319 429 s nX_\$0;
#X obj 389 429 s nY_\$0;
#X obj 409 399 v nY_\$0;
#X obj 339 399 v nX_\$0;
#X obj 29 359 s update_\$0;
#X obj 569 429 v offsetX_\$0;
#X obj 589 399 v offsetY_\$0;
#X obj 496 399 s pointH_\$0;
#X obj 479 429 s pointW_\$0;
#X obj 219 429 s height_\$0;
#X obj 239 399 v height_\$0;
#X obj 149 399 v width_\$0;
#X obj 129 429 s width_\$0;
#X obj 29 239 unpack f f f f f f f f f;
#X obj 519 209 loadbang;
#X obj 519 239 t b b b b b b b b b;
#X obj 599 349 4;
#X obj 559 349 4;
#X obj 519 349 4;
#X obj 479 349 4;
#X obj 389 359 16;
#X obj 319 359 16;
#X obj 219 359 256;
#X obj 129 359 256;
#X text 589 218 creation;
#X text 69 218 saved state;
#X text 317 58 methods;
#X text 269 238 may you have deep thoughts;
#X connect 0 0 17 0 empty;
#X connect 0 1 3 0 empty;
#X connect 1 0 2 0 empty;
#X connect 2 0 8 0 empty;
#X connect 2 1 27 0 empty;
#X connect 2 1 3 1 empty;
#X connect 2 2 26 0 empty;
#X connect 2 2 3 2 empty;
#X connect 2 3 25 0 empty;
#X connect 2 3 3 3 empty;
#X connect 2 4 24 0 empty;
#X connect 2 4 3 4 empty;
#X connect 2 5 23 0 empty;
#X connect 2 5 3 5 empty;
#X connect 2 6 22 0 empty;
#X connect 2 6 3 6 empty;
#X connect 2 7 21 0 empty;
#X connect 2 7 3 7 empty;
#X connect 2 8 20 0 empty;
#X connect 2 8 3 8 empty;
#X connect 3 0 0 0 empty;
#X connect 17 0 8 0 empty;
#X connect 17 1 27 0 empty;
#X connect 17 2 26 0 empty;
#X connect 17 3 25 0 empty;
#X connect 17 4 24 0 empty;
#X connect 17 5 23 0 empty;
#X connect 17 6 22 0 empty;
#X connect 17 7 21 0 empty;
#X connect 17 8 20 0 empty;
#X connect 18 0 19 0 empty;
#X connect 19 0 8 0 empty;
#X connect 19 1 27 0 empty;
#X connect 19 2 26 0 empty;
#X connect 19 3 25 0 empty;
#X connect 19 4 24 0 empty;
#X connect 19 5 23 0 empty;
#X connect 19 6 22 0 empty;
#X connect 19 7 21 0 empty;
#X connect 19 8 20 0 empty;
#X connect 20 0 10 0 empty;
#X connect 21 0 9 0 empty;
#X connect 22 0 11 0 empty;
#X connect 23 0 12 0 empty;
#X connect 24 0 6 0 empty;
#X connect 24 0 5 0 empty;
#X connect 25 0 7 0 empty;
#X connect 25 0 4 0 empty;
#X connect 26 0 13 0 empty;
#X connect 26 0 14 0 empty;
#X connect 27 0 16 0 empty;
#X connect 27 0 15 0 empty;
#X restore 419 239 pd methods;
#X text 279 308 amy universe \; github.com/tomara-x;
#X connect 6 0 7 0 empty;
#X coords 0 0 1 1 258 258 2 0 0;
