#N canvas 827 239 139 139 12;
#X obj 0 0 cnv 15 258 258 empty bg_\$0 empty 20 12 0 14 #191919 #ffffff 0;
#N canvas 0 50 450 300 resize 1;
#X obj 189 29 r height_\$0;
#X obj 89 29 r width_\$0;
#X obj 189 89 + 2;
#X obj 89 89 + 2;
#X obj 89 149 pack2;
#X msg 29 219 coords 0 0 1 1 \$1 \$2 2;
#X obj 29 259 s this\$0;
#X msg 339 219 vis_size \$1 \$2;
#X obj 339 259 s bg_\$0;
#X msg 189 219 coords 0 0 1 1 \$1 \$2 2;
#X obj 189 259 s pd-graph\$0;
#X connect 0 0 2 0 empty;
#X connect 1 0 3 0 empty;
#X connect 2 0 4 1 empty;
#X connect 3 0 4 0 empty;
#X connect 4 0 5 0 empty;
#X connect 4 0 7 0 empty;
#X connect 4 0 9 0 empty;
#X connect 5 0 6 0 empty;
#X connect 7 0 8 0 empty;
#X connect 9 0 10 0 empty;
#X restore 279 219 pd resize;
#X obj 279 249 namecanvas this\$0;
#X obj 9 -101 s width_\$0;
#X obj 89 -101 s height_\$0;
#N canvas 0 50 450 300 center 1;
#X text 59 318 Waste your days counting what you've got left \; What you should have had \, and what you'll never get back \; Only a fool would live their life like that;
#X obj 199 29 r height_\$0;
#X obj 99 29 r width_\$0;
#X obj 199 69 + 2;
#X obj 99 69 + 2;
#X obj 99 159 s centerX_\$0;
#X obj 199 159 s centerY_\$0;
#X obj 99 109 / 2;
#X obj 199 109 / 2;
#X connect 1 0 3 0 empty;
#X connect 2 0 4 0 empty;
#X connect 3 0 8 0 empty;
#X connect 4 0 7 0 empty;
#X connect 7 0 5 0 empty;
#X connect 8 0 6 0 empty;
#X restore 279 189 pd center;
#X msg 437 59 pos \$1 \$2;
#X obj 429 -72 pol2car;
#X obj 437 29 pack2;
#X obj 279 49 nbx 4 18 -1e+37 1e+37 0 0 empty empty empty 0 -8 0 10 #191919 #ffffff #ffffff 0 256;
#X msg 279 79 vis_size \$1 \$1;
#X obj 429 -151 nbx 4 18 -1e+37 1e+37 0 0 empty empty empty 0 -8 0 10 #191919 #ffffff #ffffff 0 256;
#X obj 479 -211 nbx 4 18 -1e+37 1e+37 0 0 empty empty empty 0 -8 0 10 #191919 #ffffff #ffffff 0 256;
#X obj 478 -116 t b f;
#X obj 419 -21 +;
#X obj 430 -47 r centerX_\$0;
#X obj 461 2 +;
#X obj 472 -24 r centerY_\$0;
#X obj 179 -131 nbx 4 18 -1e+37 1e+37 0 0 empty empty empty 0 -8 0 10 #191919 #ffffff #ffffff 0 256;
#X obj 179 -101 s n_\$0;
#X obj 81 -160 inlet;
#X obj 439 99 s;
#N canvas 0 50 450 300 create-points 1;
#X obj 89 59 r n_\$0;
#X obj 89 119 loop;
#X obj 89 149 pack f \$0;
#X msg 89 179 obj 134 186 cnv 15 4 4 empty p\$1\$2 empty 20 12 0 14 #ff0a00 #ffffff 0, f 32;
#X obj 89 89 t f b;
#X msg 359 199 clear;
#X obj 89 229 s pd-graph\$0;
#X connect 0 0 4 0 empty;
#X connect 1 0 2 0 empty;
#X connect 2 0 3 0 empty;
#X connect 3 0 6 0 empty;
#X connect 4 0 1 0 empty;
#X connect 4 1 5 0 empty;
#X connect 5 0 6 0 empty;
#X restore 359 189 pd create-points;
#X obj 569 -1 count 0 100;
#X msg 569 -41 max \$1;
#X obj 479 -181 pipe 250;
#X obj 569 -71 r n_\$0;
#X obj 479 -151 t f b;
#X msg 569 59 symbol p\$1\$2;
#X obj 569 29 pack f \$0;
#N canvas 0 50 450 300 graph\$0 1;
#X obj 73 163 cnv 15 4 4 empty p01073 empty 20 12 0 14 #ff0a00 #ffffff 0;
#X obj 74 163 cnv 15 4 4 empty p11073 empty 20 12 0 14 #ff0a00 #ffffff 0;
#X obj 74 164 cnv 15 4 4 empty p21073 empty 20 12 0 14 #ff0a00 #ffffff 0;
#X obj 74 164 cnv 15 4 4 empty p31073 empty 20 12 0 14 #ff0a00 #ffffff 0;
#X obj 75 165 cnv 15 4 4 empty p41073 empty 20 12 0 14 #ff0a00 #ffffff 0;
#X obj 64 130 cnv 15 4 4 empty p51073 empty 20 12 0 14 #ff0a00 #ffffff 0;
#X obj 64 129 cnv 15 4 4 empty p61073 empty 20 12 0 14 #ff0a00 #ffffff 0;
#X obj 64 130 cnv 15 4 4 empty p71073 empty 20 12 0 14 #ff0a00 #ffffff 0;
#X obj 64 131 cnv 15 4 4 empty p81073 empty 20 12 0 14 #ff0a00 #ffffff 0;
#X obj 64 131 cnv 15 4 4 empty p91073 empty 20 12 0 14 #ff0a00 #ffffff 0;
#X obj 64 132 cnv 15 4 4 empty p101073 empty 20 12 0 14 #ff0a00 #ffffff 0;
#X obj 64 133 cnv 15 4 4 empty p111073 empty 20 12 0 14 #ff0a00 #ffffff 0;
#X obj 64 135 cnv 15 4 4 empty p121073 empty 20 12 0 14 #ff0a00 #ffffff 0;
#X obj 64 137 cnv 15 4 4 empty p131073 empty 20 12 0 14 #ff0a00 #ffffff 0;
#X obj 64 139 cnv 15 4 4 empty p141073 empty 20 12 0 14 #ff0a00 #ffffff 0;
#X obj 65 141 cnv 15 4 4 empty p151073 empty 20 12 0 14 #ff0a00 #ffffff 0;
#X obj 65 143 cnv 15 4 4 empty p161073 empty 20 12 0 14 #ff0a00 #ffffff 0;
#X obj 65 144 cnv 15 4 4 empty p171073 empty 20 12 0 14 #ff0a00 #ffffff 0;
#X obj 66 147 cnv 15 4 4 empty p181073 empty 20 12 0 14 #ff0a00 #ffffff 0;
#X obj 66 147 cnv 15 4 4 empty p191073 empty 20 12 0 14 #ff0a00 #ffffff 0;
#X obj 67 149 cnv 15 4 4 empty p201073 empty 20 12 0 14 #ff0a00 #ffffff 0;
#X obj 67 150 cnv 15 4 4 empty p211073 empty 20 12 0 14 #ff0a00 #ffffff 0;
#X obj 68 152 cnv 15 4 4 empty p221073 empty 20 12 0 14 #ff0a00 #ffffff 0;
#X obj 69 154 cnv 15 4 4 empty p231073 empty 20 12 0 14 #ff0a00 #ffffff 0;
#X obj 70 156 cnv 15 4 4 empty p241073 empty 20 12 0 14 #ff0a00 #ffffff 0;
#X obj 70 157 cnv 15 4 4 empty p251073 empty 20 12 0 14 #ff0a00 #ffffff 0;
#X obj 71 159 cnv 15 4 4 empty p261073 empty 20 12 0 14 #ff0a00 #ffffff 0;
#X obj 72 161 cnv 15 4 4 empty p271073 empty 20 12 0 14 #ff0a00 #ffffff 0;
#X obj 72 161 cnv 15 4 4 empty p281073 empty 20 12 0 14 #ff0a00 #ffffff 0;
#X coords 0 0 1 1 258 258 2 0 0;
#X restore 0 0 pd graph\$0;
#X connect 6 0 21 0 empty;
#X connect 7 0 14 0 empty;
#X connect 7 1 16 0 empty;
#X connect 8 0 6 0 empty;
#X connect 9 0 10 0 empty;
#X connect 11 0 7 0 empty;
#X connect 12 0 25 0 empty;
#X connect 13 0 7 0 empty;
#X connect 13 1 7 1 empty;
#X connect 14 0 8 0 empty;
#X connect 15 0 14 1 empty;
#X connect 16 0 8 1 empty;
#X connect 17 0 16 1 empty;
#X connect 18 0 19 0 empty;
#X connect 20 0 3 0 empty;
#X connect 20 0 4 0 empty;
#X connect 23 0 29 0 empty;
#X connect 24 0 23 0 empty;
#X connect 25 0 27 0 empty;
#X connect 26 0 24 0 empty;
#X connect 27 0 13 0 empty;
#X connect 27 1 23 0 empty;
#X connect 28 0 21 1 empty;
#X connect 29 0 28 0 empty;
#X coords 0 0 1 1 258 258 1;
