#N canvas 827 239 139 139 12;
#X obj 0 0 cnv 15 258 258 empty bg_\$0 empty 20 12 0 14 #191919 #ffffff 0;
#N canvas 0 50 450 300 resize 1;
#X obj 179 39 r height_\$0;
#X obj 179 99 + 2;
#X obj 329 209 s bg_\$0;
#X obj 179 209 s pd-graph\$0;
#X msg 19 169 coords 0 0 1 1 \$1 \$1 2;
#X msg 179 169 coords 0 0 1 1 \$1 \$1 2;
#X msg 329 169 vis_size \$1 \$1;
#X obj 19 209 s abs\$0;
#X connect 0 0 1 0 empty;
#X connect 1 0 5 0 empty;
#X connect 1 0 4 0 empty;
#X connect 1 0 6 0 empty;
#X connect 4 0 7 0 empty;
#X connect 5 0 3 0 empty;
#X connect 6 0 2 0 empty;
#X restore 279 219 pd resize;
#X obj 9 -51 s height_\$0;
#N canvas 0 50 450 300 center 1;
#X text 59 318 Waste your days counting what you've got left \; What you should have had \, and what you'll never get back \; Only a fool would live their life like that;
#X obj 109 49 r height_\$0;
#X obj 109 89 + 2;
#X obj 109 129 / 2;
#X obj 109 179 s center_\$0;
#X connect 1 0 2 0 empty;
#X connect 2 0 3 0 empty;
#X connect 3 0 4 0 empty;
#X restore 279 189 pd center;
#X obj 9 -111 inlet;
#N canvas 0 50 450 300 graph\$0 1;
#X obj 0 0 cnv 2 5 5 empty p01010 empty 0 0 0 14 #ffffff #ffffff 0;
#X obj 32 0 cnv 2 5 5 empty p11010 empty 0 0 0 14 #ffffff #ffffff 0;
#X obj 64 0 cnv 2 5 5 empty p21010 empty 0 0 0 14 #ffffff #ffffff 0;
#X obj 96 0 cnv 2 5 5 empty p31010 empty 0 0 0 14 #ffffff #ffffff 0;
#X obj 128 0 cnv 2 5 5 empty p41010 empty 0 0 0 14 #ffffff #ffffff 0;
#X obj 160 0 cnv 2 5 5 empty p51010 empty 0 0 0 14 #ffffff #ffffff 0;
#X obj 192 0 cnv 2 5 5 empty p61010 empty 0 0 0 14 #ffffff #ffffff 0;
#X obj 224 0 cnv 2 5 5 empty p71010 empty 0 0 0 14 #ffffff #ffffff 0;
#X obj 0 32 cnv 2 5 5 empty p81010 empty 0 0 0 14 #ffffff #ffffff 0;
#X obj 32 32 cnv 2 5 5 empty p91010 empty 0 0 0 14 #ffffff #ffffff 0;
#X obj 64 32 cnv 2 5 5 empty p101010 empty 0 0 0 14 #ffffff #ffffff 0;
#X obj 96 32 cnv 2 5 5 empty p111010 empty 0 0 0 14 #ffffff #ffffff 0;
#X obj 128 32 cnv 2 5 5 empty p121010 empty 0 0 0 14 #ffffff #ffffff 0;
#X obj 160 32 cnv 2 5 5 empty p131010 empty 0 0 0 14 #ffffff #ffffff 0;
#X obj 192 32 cnv 2 5 5 empty p141010 empty 0 0 0 14 #ffffff #ffffff 0;
#X obj 224 32 cnv 2 5 5 empty p151010 empty 0 0 0 14 #ffffff #ffffff 0;
#X obj 0 64 cnv 2 5 5 empty p161010 empty 0 0 0 14 #ffffff #ffffff 0;
#X obj 32 64 cnv 2 5 5 empty p171010 empty 0 0 0 14 #ffffff #ffffff 0;
#X obj 64 64 cnv 2 5 5 empty p181010 empty 0 0 0 14 #ffffff #ffffff 0;
#X obj 96 64 cnv 2 5 5 empty p191010 empty 0 0 0 14 #ffffff #ffffff 0;
#X obj 128 64 cnv 2 5 5 empty p201010 empty 0 0 0 14 #ffffff #ffffff 0;
#X obj 160 64 cnv 2 5 5 empty p211010 empty 0 0 0 14 #ffffff #ffffff 0;
#X obj 192 64 cnv 2 5 5 empty p221010 empty 0 0 0 14 #ffffff #ffffff 0;
#X obj 224 64 cnv 2 5 5 empty p231010 empty 0 0 0 14 #ffffff #ffffff 0;
#X obj 0 96 cnv 2 5 5 empty p241010 empty 0 0 0 14 #ffffff #ffffff 0;
#X obj 32 96 cnv 2 5 5 empty p251010 empty 0 0 0 14 #ffffff #ffffff 0;
#X obj 64 96 cnv 2 5 5 empty p261010 empty 0 0 0 14 #ffffff #ffffff 0;
#X obj 96 96 cnv 2 5 5 empty p271010 empty 0 0 0 14 #ffffff #ffffff 0;
#X obj 128 96 cnv 2 5 5 empty p281010 empty 0 0 0 14 #ffffff #ffffff 0;
#X obj 160 96 cnv 2 5 5 empty p291010 empty 0 0 0 14 #ffffff #ffffff 0;
#X obj 192 96 cnv 2 5 5 empty p301010 empty 0 0 0 14 #ffffff #ffffff 0;
#X obj 224 96 cnv 2 5 5 empty p311010 empty 0 0 0 14 #ffffff #ffffff 0;
#X obj 0 128 cnv 2 5 5 empty p321010 empty 0 0 0 14 #ffffff #ffffff 0;
#X obj 32 128 cnv 2 5 5 empty p331010 empty 0 0 0 14 #ffffff #ffffff 0;
#X obj 64 128 cnv 2 5 5 empty p341010 empty 0 0 0 14 #ffffff #ffffff 0;
#X obj 96 128 cnv 2 5 5 empty p351010 empty 0 0 0 14 #ffffff #ffffff 0;
#X obj 128 128 cnv 2 5 5 empty p361010 empty 0 0 0 14 #ffffff #ffffff 0;
#X obj 160 128 cnv 2 5 5 empty p371010 empty 0 0 0 14 #ffffff #ffffff 0;
#X obj 192 128 cnv 2 5 5 empty p381010 empty 0 0 0 14 #ffffff #ffffff 0;
#X obj 224 128 cnv 2 5 5 empty p391010 empty 0 0 0 14 #ffffff #ffffff 0;
#X obj 0 160 cnv 2 5 5 empty p401010 empty 0 0 0 14 #ffffff #ffffff 0;
#X obj 32 160 cnv 2 5 5 empty p411010 empty 0 0 0 14 #ffffff #ffffff 0;
#X obj 64 160 cnv 2 5 5 empty p421010 empty 0 0 0 14 #ffffff #ffffff 0;
#X obj 96 160 cnv 2 5 5 empty p431010 empty 0 0 0 14 #ffffff #ffffff 0;
#X obj 128 160 cnv 2 5 5 empty p441010 empty 0 0 0 14 #ffffff #ffffff 0;
#X obj 160 160 cnv 2 5 5 empty p451010 empty 0 0 0 14 #ffffff #ffffff 0;
#X obj 192 160 cnv 2 5 5 empty p461010 empty 0 0 0 14 #ffffff #ffffff 0;
#X obj 224 160 cnv 2 5 5 empty p471010 empty 0 0 0 14 #ffffff #ffffff 0;
#X obj 0 192 cnv 2 5 5 empty p481010 empty 0 0 0 14 #ffffff #ffffff 0;
#X obj 32 192 cnv 2 5 5 empty p491010 empty 0 0 0 14 #ffffff #ffffff 0;
#X obj 64 192 cnv 2 5 5 empty p501010 empty 0 0 0 14 #ffffff #ffffff 0;
#X obj 96 192 cnv 2 5 5 empty p511010 empty 0 0 0 14 #ffffff #ffffff 0;
#X obj 128 192 cnv 2 5 5 empty p521010 empty 0 0 0 14 #ffffff #ffffff 0;
#X obj 160 192 cnv 2 5 5 empty p531010 empty 0 0 0 14 #ffffff #ffffff 0;
#X obj 192 192 cnv 2 5 5 empty p541010 empty 0 0 0 14 #ffffff #ffffff 0;
#X obj 224 192 cnv 2 5 5 empty p551010 empty 0 0 0 14 #ffffff #ffffff 0;
#X obj 0 224 cnv 2 5 5 empty p561010 empty 0 0 0 14 #ffffff #ffffff 0;
#X obj 32 224 cnv 2 5 5 empty p571010 empty 0 0 0 14 #ffffff #ffffff 0;
#X obj 64 224 cnv 2 5 5 empty p581010 empty 0 0 0 14 #ffffff #ffffff 0;
#X obj 96 224 cnv 2 5 5 empty p591010 empty 0 0 0 14 #ffffff #ffffff 0;
#X obj 128 224 cnv 2 5 5 empty p601010 empty 0 0 0 14 #ffffff #ffffff 0;
#X obj 160 224 cnv 2 5 5 empty p611010 empty 0 0 0 14 #ffffff #ffffff 0;
#X obj 192 224 cnv 2 5 5 empty p621010 empty 0 0 0 14 #ffffff #ffffff 0;
#X obj 224 224 cnv 2 5 5 empty p631010 empty 0 0 0 14 #ffffff #ffffff 0;
#X obj 0 256 cnv 2 5 5 empty p641010 empty 0 0 0 14 #ffffff #ffffff 0;
#X obj 32 256 cnv 2 5 5 empty p651010 empty 0 0 0 14 #ffffff #ffffff 0;
#X obj 64 256 cnv 2 5 5 empty p661010 empty 0 0 0 14 #ffffff #ffffff 0;
#X obj 96 256 cnv 2 5 5 empty p671010 empty 0 0 0 14 #ffffff #ffffff 0;
#X obj 128 256 cnv 2 5 5 empty p681010 empty 0 0 0 14 #ffffff #ffffff 0;
#X obj 160 256 cnv 2 5 5 empty p691010 empty 0 0 0 14 #ffffff #ffffff 0;
#X obj 192 256 cnv 2 5 5 empty p701010 empty 0 0 0 14 #ffffff #ffffff 0;
#X coords 0 0 1 1 258 258 2 0 0;
#X restore 0 0 pd graph\$0;
#N canvas 0 50 450 300 polar 1;
#X msg 237 329 pos \$1 \$2;
#X obj 229 198 pol2car;
#X obj 237 299 pack2;
#X obj 229 119 nbx 4 18 -1e+37 1e+37 0 0 empty empty empty 0 -8 0 10 #191919 #ffffff #ffffff 0 256;
#X obj 279 59 nbx 4 18 -1e+37 1e+37 0 0 empty empty empty 0 -8 0 10 #191919 #ffffff #ffffff 0 256;
#X obj 278 154 t b f;
#X obj 219 249 +;
#X obj 230 223 r centerX_\$0;
#X obj 261 272 +;
#X obj 272 246 r centerY_\$0;
#X obj 239 369 s;
#X obj 369 269 count 0 100;
#X msg 369 229 max \$1;
#X obj 279 89 pipe 250;
#X obj 369 199 r n_\$0;
#X obj 279 119 t f b;
#X msg 369 329 symbol p\$1\$2;
#X obj 369 299 pack f \$0;
#X obj 90 149 nbx 4 18 -1e+37 1e+37 0 0 empty empty empty 0 -8 0 10 #191919 #ffffff #ffffff 0 256;
#X msg 90 179 vis_size \$1 \$1;
#X connect 0 0 10 0 empty;
#X connect 1 0 6 0 empty;
#X connect 1 1 8 0 empty;
#X connect 2 0 0 0 empty;
#X connect 3 0 1 0 empty;
#X connect 4 0 13 0 empty;
#X connect 5 0 1 0 empty;
#X connect 5 1 1 1 empty;
#X connect 6 0 2 0 empty;
#X connect 7 0 6 1 empty;
#X connect 8 0 2 1 empty;
#X connect 9 0 8 1 empty;
#X connect 11 0 17 0 empty;
#X connect 12 0 11 0 empty;
#X connect 13 0 15 0 empty;
#X connect 14 0 12 0 empty;
#X connect 15 0 5 0 empty;
#X connect 15 1 11 0 empty;
#X connect 16 0 10 1 empty;
#X connect 17 0 16 0 empty;
#X connect 18 0 19 0 empty;
#X restore 359 219 pd polar;
#X msg 299 89 clear;
#X obj 349 139 s pd-graph\$0;
#X obj 119 -51 s nX_\$0;
#X obj 209 -51 s nY_\$0;
#X obj 119 -111 inlet;
#X obj 209 -111 inlet;
#X obj 349 59 pack \$0 f f f f f;
#X obj 339 -161 nbx 4 18 -1e+37 1e+37 0 0 empty empty empty 0 -8 0 10 #191919 #ffffff #ffffff 0 256;
#X obj 519 19 nbx 4 18 -1e+37 1e+37 0 0 empty empty empty 0 -8 0 10 #191919 #ffffff #ffffff 0 256;
#X obj 573 19 nbx 4 18 -1e+37 1e+37 0 0 empty empty empty 0 -8 0 10 #191919 #ffffff #ffffff 0 256;
#X text 548 -2 w & h;
#X obj 329 19 bng 25 250 50 0 empty empty empty 17 7 0 10 #191919 #ffffff #ffffff;
#X msg 349 89 obj \$3 \$4 cnv 2 \$5 \$6 empty p\$2\$1 empty 0 0 0 14 #ffffff #ffffff 0, f 34;
#N canvas 0 50 450 300 construct 1;
#X restore 359 189 pd construct;
#X obj 279 249 namecanvas abs\$0;
#X obj 99 -131 nbx 4 18 -1e+37 1e+37 0 0 empty empty empty 0 -8 0 10 #191919 #ffffff #ffffff 0 256;
#X obj 179 -131 nbx 4 18 -1e+37 1e+37 0 0 empty empty empty 0 -8 0 10 #191919 #ffffff #ffffff 0 256;
#X obj 229 -81 v nY_\$0;
#X obj 139 -81 v nX_\$0;
#X obj 29 -81 v height_\$0;
#X obj 339 -131 t b f f;
#X obj 379 -91 expr ($f1 % nX_\$0) * (height_\$0 / nX_\$0) \; int($f1/nX_\$0) * (height_\$0 / nY_\$0) \;;
#X connect 4 0 2 0 empty;
#X connect 4 0 26 0 empty;
#X connect 7 0 8 0 empty;
#X connect 11 0 9 0 empty;
#X connect 11 0 25 0 empty;
#X connect 12 0 10 0 empty;
#X connect 12 0 24 0 empty;
#X connect 13 0 19 0 empty;
#X connect 14 0 27 0 empty;
#X connect 15 0 13 4 empty;
#X connect 16 0 13 5 empty;
#X connect 18 0 13 0 empty;
#X connect 19 0 8 0 empty;
#X connect 22 0 9 0 empty;
#X connect 23 0 10 0 empty;
#X connect 27 0 18 0 empty;
#X connect 27 1 13 1 empty;
#X connect 27 2 28 0 empty;
#X connect 28 0 13 2 empty;
#X connect 28 1 13 3 empty;
#X coords 0 0 1 1 258 258 2 0 0;
