#N canvas 827 239 139 139 12;
#X obj 0 0 cnv 15 258 258 empty bg_\$0 empty 20 12 0 14 #191919 #ffffff 0;
#N canvas 0 50 450 300 resize 1;
#X obj 179 39 r height_\$0;
#X obj 179 99 + 2;
#X obj 329 209 s bg_\$0;
#X obj 179 209 s pd-graph\$0;
#X msg 19 169 coords 0 0 1 1 \$1 \$1 2;
#X msg 179 169 coords 0 0 1 1 \$1 \$1 2;
#X msg 329 169 vis_size \$1 \$1;
#X obj 19 209 s abs\$0;
#X connect 0 0 1 0 empty;
#X connect 1 0 5 0 empty;
#X connect 1 0 4 0 empty;
#X connect 1 0 6 0 empty;
#X connect 4 0 7 0 empty;
#X connect 5 0 3 0 empty;
#X connect 6 0 2 0 empty;
#X restore 279 219 pd resize;
#X obj 9 -51 s height_\$0;
#N canvas 0 50 450 300 center 1;
#X text 59 318 Waste your days counting what you've got left \; What you should have had \, and what you'll never get back \; Only a fool would live their life like that;
#X obj 109 49 r height_\$0;
#X obj 109 89 + 2;
#X obj 109 129 / 2;
#X obj 109 179 s center_\$0;
#X connect 1 0 2 0 empty;
#X connect 2 0 3 0 empty;
#X connect 3 0 4 0 empty;
#X restore 279 189 pd center;
#X obj 9 -111 inlet;
#N canvas 0 50 450 300 graph\$0 1;
#X obj 5 5 cnv 2 2 2 empty p0-0-1010 empty 0 0 0 14 #ffffff #ffffff 0;
#X obj 15 5 cnv 2 2 2 empty p1-0-1010 empty 0 0 0 14 #ffffff #ffffff 0;
#X obj 26 5 cnv 2 2 2 empty p2-0-1010 empty 0 0 0 14 #ffffff #ffffff 0;
#X obj 37 5 cnv 2 2 2 empty p3-0-1010 empty 0 0 0 14 #ffffff #ffffff 0;
#X obj 47 5 cnv 2 2 2 empty p4-0-1010 empty 0 0 0 14 #ffffff #ffffff 0;
#X obj 58 5 cnv 2 2 2 empty p5-0-1010 empty 0 0 0 14 #ffffff #ffffff 0;
#X obj 69 5 cnv 2 2 2 empty p6-0-1010 empty 0 0 0 14 #ffffff #ffffff 0;
#X obj 79 5 cnv 2 2 2 empty p7-0-1010 empty 0 0 0 14 #ffffff #ffffff 0;
#X obj 90 5 cnv 2 2 2 empty p8-0-1010 empty 0 0 0 14 #ffffff #ffffff 0;
#X obj 101 5 cnv 2 2 2 empty p9-0-1010 empty 0 0 0 14 #ffffff #ffffff 0;
#X obj 111 5 cnv 2 2 2 empty p10-0-1010 empty 0 0 0 14 #ffffff #ffffff 0;
#X obj 122 5 cnv 2 2 2 empty p11-0-1010 empty 0 0 0 14 #ffffff #ffffff 0;
#X obj 133 5 cnv 2 2 2 empty p12-0-1010 empty 0 0 0 14 #ffffff #ffffff 0;
#X obj 143 5 cnv 2 2 2 empty p13-0-1010 empty 0 0 0 14 #ffffff #ffffff 0;
#X obj 154 5 cnv 2 2 2 empty p14-0-1010 empty 0 0 0 14 #ffffff #ffffff 0;
#X obj 165 5 cnv 2 2 2 empty p15-0-1010 empty 0 0 0 14 #ffffff #ffffff 0;
#X obj 175 5 cnv 2 2 2 empty p16-0-1010 empty 0 0 0 14 #ffffff #ffffff 0;
#X obj 186 5 cnv 2 2 2 empty p17-0-1010 empty 0 0 0 14 #ffffff #ffffff 0;
#X obj 197 5 cnv 2 2 2 empty p18-0-1010 empty 0 0 0 14 #ffffff #ffffff 0;
#X obj 207 5 cnv 2 2 2 empty p19-0-1010 empty 0 0 0 14 #ffffff #ffffff 0;
#X obj 218 5 cnv 2 2 2 empty p20-0-1010 empty 0 0 0 14 #ffffff #ffffff 0;
#X obj 229 5 cnv 2 2 2 empty p21-0-1010 empty 0 0 0 14 #ffffff #ffffff 0;
#X obj 239 5 cnv 2 2 2 empty p22-0-1010 empty 0 0 0 14 #ffffff #ffffff 0;
#X obj 250 5 cnv 2 2 2 empty p23-0-1010 empty 0 0 0 14 #ffffff #ffffff 0;
#X obj 5 15 cnv 2 2 2 empty p0-1-1010 empty 0 0 0 14 #ffffff #ffffff 0;
#X obj 15 15 cnv 2 2 2 empty p1-1-1010 empty 0 0 0 14 #ffffff #ffffff 0;
#X obj 26 15 cnv 2 2 2 empty p2-1-1010 empty 0 0 0 14 #ffffff #ffffff 0;
#X obj 37 15 cnv 2 2 2 empty p3-1-1010 empty 0 0 0 14 #ffffff #ffffff 0;
#X obj 47 15 cnv 2 2 2 empty p4-1-1010 empty 0 0 0 14 #ffffff #ffffff 0;
#X obj 58 15 cnv 2 2 2 empty p5-1-1010 empty 0 0 0 14 #ffffff #ffffff 0;
#X obj 69 15 cnv 2 2 2 empty p6-1-1010 empty 0 0 0 14 #ffffff #ffffff 0;
#X obj 79 15 cnv 2 2 2 empty p7-1-1010 empty 0 0 0 14 #ffffff #ffffff 0;
#X obj 90 15 cnv 2 2 2 empty p8-1-1010 empty 0 0 0 14 #ffffff #ffffff 0;
#X obj 101 15 cnv 2 2 2 empty p9-1-1010 empty 0 0 0 14 #ffffff #ffffff 0;
#X obj 111 15 cnv 2 2 2 empty p10-1-1010 empty 0 0 0 14 #ffffff #ffffff 0;
#X obj 122 15 cnv 2 2 2 empty p11-1-1010 empty 0 0 0 14 #ffffff #ffffff 0;
#X obj 133 15 cnv 2 2 2 empty p12-1-1010 empty 0 0 0 14 #ffffff #ffffff 0;
#X obj 143 15 cnv 2 2 2 empty p13-1-1010 empty 0 0 0 14 #ffffff #ffffff 0;
#X obj 154 15 cnv 2 2 2 empty p14-1-1010 empty 0 0 0 14 #ffffff #ffffff 0;
#X obj 165 15 cnv 2 2 2 empty p15-1-1010 empty 0 0 0 14 #ffffff #ffffff 0;
#X obj 175 15 cnv 2 2 2 empty p16-1-1010 empty 0 0 0 14 #ffffff #ffffff 0;
#X obj 186 15 cnv 2 2 2 empty p17-1-1010 empty 0 0 0 14 #ffffff #ffffff 0;
#X obj 197 15 cnv 2 2 2 empty p18-1-1010 empty 0 0 0 14 #ffffff #ffffff 0;
#X obj 207 15 cnv 2 2 2 empty p19-1-1010 empty 0 0 0 14 #ffffff #ffffff 0;
#X obj 218 15 cnv 2 2 2 empty p20-1-1010 empty 0 0 0 14 #ffffff #ffffff 0;
#X obj 229 15 cnv 2 2 2 empty p21-1-1010 empty 0 0 0 14 #ffffff #ffffff 0;
#X obj 239 15 cnv 2 2 2 empty p22-1-1010 empty 0 0 0 14 #ffffff #ffffff 0;
#X obj 250 15 cnv 2 2 2 empty p23-1-1010 empty 0 0 0 14 #ffffff #ffffff 0;
#X obj 5 26 cnv 2 2 2 empty p0-2-1010 empty 0 0 0 14 #ffffff #ffffff 0;
#X obj 15 26 cnv 2 2 2 empty p1-2-1010 empty 0 0 0 14 #ffffff #ffffff 0;
#X obj 26 26 cnv 2 2 2 empty p2-2-1010 empty 0 0 0 14 #ffffff #ffffff 0;
#X obj 37 26 cnv 2 2 2 empty p3-2-1010 empty 0 0 0 14 #ffffff #ffffff 0;
#X obj 47 26 cnv 2 2 2 empty p4-2-1010 empty 0 0 0 14 #ffffff #ffffff 0;
#X obj 58 26 cnv 2 2 2 empty p5-2-1010 empty 0 0 0 14 #ffffff #ffffff 0;
#X obj 69 26 cnv 2 2 2 empty p6-2-1010 empty 0 0 0 14 #ffffff #ffffff 0;
#X obj 79 26 cnv 2 2 2 empty p7-2-1010 empty 0 0 0 14 #ffffff #ffffff 0;
#X obj 90 26 cnv 2 2 2 empty p8-2-1010 empty 0 0 0 14 #ffffff #ffffff 0;
#X obj 101 26 cnv 2 2 2 empty p9-2-1010 empty 0 0 0 14 #ffffff #ffffff 0;
#X obj 111 26 cnv 2 2 2 empty p10-2-1010 empty 0 0 0 14 #ffffff #ffffff 0;
#X obj 122 26 cnv 2 2 2 empty p11-2-1010 empty 0 0 0 14 #ffffff #ffffff 0;
#X obj 133 26 cnv 2 2 2 empty p12-2-1010 empty 0 0 0 14 #ffffff #ffffff 0;
#X obj 143 26 cnv 2 2 2 empty p13-2-1010 empty 0 0 0 14 #ffffff #ffffff 0;
#X obj 154 26 cnv 2 2 2 empty p14-2-1010 empty 0 0 0 14 #ffffff #ffffff 0;
#X obj 165 26 cnv 2 2 2 empty p15-2-1010 empty 0 0 0 14 #ffffff #ffffff 0;
#X obj 175 26 cnv 2 2 2 empty p16-2-1010 empty 0 0 0 14 #ffffff #ffffff 0;
#X obj 186 26 cnv 2 2 2 empty p17-2-1010 empty 0 0 0 14 #ffffff #ffffff 0;
#X obj 197 26 cnv 2 2 2 empty p18-2-1010 empty 0 0 0 14 #ffffff #ffffff 0;
#X obj 207 26 cnv 2 2 2 empty p19-2-1010 empty 0 0 0 14 #ffffff #ffffff 0;
#X obj 218 26 cnv 2 2 2 empty p20-2-1010 empty 0 0 0 14 #ffffff #ffffff 0;
#X obj 229 26 cnv 2 2 2 empty p21-2-1010 empty 0 0 0 14 #ffffff #ffffff 0;
#X obj 239 26 cnv 2 2 2 empty p22-2-1010 empty 0 0 0 14 #ffffff #ffffff 0;
#X obj 250 26 cnv 2 2 2 empty p23-2-1010 empty 0 0 0 14 #ffffff #ffffff 0;
#X obj 5 37 cnv 2 2 2 empty p0-3-1010 empty 0 0 0 14 #ffffff #ffffff 0;
#X obj 15 37 cnv 2 2 2 empty p1-3-1010 empty 0 0 0 14 #ffffff #ffffff 0;
#X obj 26 37 cnv 2 2 2 empty p2-3-1010 empty 0 0 0 14 #ffffff #ffffff 0;
#X obj 37 37 cnv 2 2 2 empty p3-3-1010 empty 0 0 0 14 #ffffff #ffffff 0;
#X obj 47 37 cnv 2 2 2 empty p4-3-1010 empty 0 0 0 14 #ffffff #ffffff 0;
#X obj 58 37 cnv 2 2 2 empty p5-3-1010 empty 0 0 0 14 #ffffff #ffffff 0;
#X obj 69 37 cnv 2 2 2 empty p6-3-1010 empty 0 0 0 14 #ffffff #ffffff 0;
#X obj 79 37 cnv 2 2 2 empty p7-3-1010 empty 0 0 0 14 #ffffff #ffffff 0;
#X obj 90 37 cnv 2 2 2 empty p8-3-1010 empty 0 0 0 14 #ffffff #ffffff 0;
#X obj 101 37 cnv 2 2 2 empty p9-3-1010 empty 0 0 0 14 #ffffff #ffffff 0;
#X obj 111 37 cnv 2 2 2 empty p10-3-1010 empty 0 0 0 14 #ffffff #ffffff 0;
#X obj 122 37 cnv 2 2 2 empty p11-3-1010 empty 0 0 0 14 #ffffff #ffffff 0;
#X obj 133 37 cnv 2 2 2 empty p12-3-1010 empty 0 0 0 14 #ffffff #ffffff 0;
#X obj 143 37 cnv 2 2 2 empty p13-3-1010 empty 0 0 0 14 #ffffff #ffffff 0;
#X obj 154 37 cnv 2 2 2 empty p14-3-1010 empty 0 0 0 14 #ffffff #ffffff 0;
#X obj 165 37 cnv 2 2 2 empty p15-3-1010 empty 0 0 0 14 #ffffff #ffffff 0;
#X obj 175 37 cnv 2 2 2 empty p16-3-1010 empty 0 0 0 14 #ffffff #ffffff 0;
#X obj 186 37 cnv 2 2 2 empty p17-3-1010 empty 0 0 0 14 #ffffff #ffffff 0;
#X obj 197 37 cnv 2 2 2 empty p18-3-1010 empty 0 0 0 14 #ffffff #ffffff 0;
#X obj 207 37 cnv 2 2 2 empty p19-3-1010 empty 0 0 0 14 #ffffff #ffffff 0;
#X obj 218 37 cnv 2 2 2 empty p20-3-1010 empty 0 0 0 14 #ffffff #ffffff 0;
#X obj 229 37 cnv 2 2 2 empty p21-3-1010 empty 0 0 0 14 #ffffff #ffffff 0;
#X obj 239 37 cnv 2 2 2 empty p22-3-1010 empty 0 0 0 14 #ffffff #ffffff 0;
#X obj 250 37 cnv 2 2 2 empty p23-3-1010 empty 0 0 0 14 #ffffff #ffffff 0;
#X obj 5 47 cnv 2 2 2 empty p0-4-1010 empty 0 0 0 14 #ffffff #ffffff 0;
#X obj 15 47 cnv 2 2 2 empty p1-4-1010 empty 0 0 0 14 #ffffff #ffffff 0;
#X obj 26 47 cnv 2 2 2 empty p2-4-1010 empty 0 0 0 14 #ffffff #ffffff 0;
#X obj 37 47 cnv 2 2 2 empty p3-4-1010 empty 0 0 0 14 #ffffff #ffffff 0;
#X obj 47 47 cnv 2 2 2 empty p4-4-1010 empty 0 0 0 14 #ffffff #ffffff 0;
#X obj 58 47 cnv 2 2 2 empty p5-4-1010 empty 0 0 0 14 #ffffff #ffffff 0;
#X obj 69 47 cnv 2 2 2 empty p6-4-1010 empty 0 0 0 14 #ffffff #ffffff 0;
#X obj 79 47 cnv 2 2 2 empty p7-4-1010 empty 0 0 0 14 #ffffff #ffffff 0;
#X obj 90 47 cnv 2 2 2 empty p8-4-1010 empty 0 0 0 14 #ffffff #ffffff 0;
#X obj 101 47 cnv 2 2 2 empty p9-4-1010 empty 0 0 0 14 #ffffff #ffffff 0;
#X obj 111 47 cnv 2 2 2 empty p10-4-1010 empty 0 0 0 14 #ffffff #ffffff 0;
#X obj 122 47 cnv 2 2 2 empty p11-4-1010 empty 0 0 0 14 #ffffff #ffffff 0;
#X obj 133 47 cnv 2 2 2 empty p12-4-1010 empty 0 0 0 14 #ffffff #ffffff 0;
#X obj 143 47 cnv 2 2 2 empty p13-4-1010 empty 0 0 0 14 #ffffff #ffffff 0;
#X obj 154 47 cnv 2 2 2 empty p14-4-1010 empty 0 0 0 14 #ffffff #ffffff 0;
#X obj 165 47 cnv 2 2 2 empty p15-4-1010 empty 0 0 0 14 #ffffff #ffffff 0;
#X obj 175 47 cnv 2 2 2 empty p16-4-1010 empty 0 0 0 14 #ffffff #ffffff 0;
#X obj 186 47 cnv 2 2 2 empty p17-4-1010 empty 0 0 0 14 #ffffff #ffffff 0;
#X obj 197 47 cnv 2 2 2 empty p18-4-1010 empty 0 0 0 14 #ffffff #ffffff 0;
#X obj 207 47 cnv 2 2 2 empty p19-4-1010 empty 0 0 0 14 #ffffff #ffffff 0;
#X obj 218 47 cnv 2 2 2 empty p20-4-1010 empty 0 0 0 14 #ffffff #ffffff 0;
#X obj 229 47 cnv 2 2 2 empty p21-4-1010 empty 0 0 0 14 #ffffff #ffffff 0;
#X obj 239 47 cnv 2 2 2 empty p22-4-1010 empty 0 0 0 14 #ffffff #ffffff 0;
#X obj 250 47 cnv 2 2 2 empty p23-4-1010 empty 0 0 0 14 #ffffff #ffffff 0;
#X obj 5 58 cnv 2 2 2 empty p0-5-1010 empty 0 0 0 14 #ffffff #ffffff 0;
#X obj 15 58 cnv 2 2 2 empty p1-5-1010 empty 0 0 0 14 #ffffff #ffffff 0;
#X obj 26 58 cnv 2 2 2 empty p2-5-1010 empty 0 0 0 14 #ffffff #ffffff 0;
#X obj 37 58 cnv 2 2 2 empty p3-5-1010 empty 0 0 0 14 #ffffff #ffffff 0;
#X obj 47 58 cnv 2 2 2 empty p4-5-1010 empty 0 0 0 14 #ffffff #ffffff 0;
#X obj 58 58 cnv 2 2 2 empty p5-5-1010 empty 0 0 0 14 #ffffff #ffffff 0;
#X obj 69 58 cnv 2 2 2 empty p6-5-1010 empty 0 0 0 14 #ffffff #ffffff 0;
#X obj 79 58 cnv 2 2 2 empty p7-5-1010 empty 0 0 0 14 #ffffff #ffffff 0;
#X obj 90 58 cnv 2 2 2 empty p8-5-1010 empty 0 0 0 14 #ffffff #ffffff 0;
#X obj 101 58 cnv 2 2 2 empty p9-5-1010 empty 0 0 0 14 #ffffff #ffffff 0;
#X obj 111 58 cnv 2 2 2 empty p10-5-1010 empty 0 0 0 14 #ffffff #ffffff 0;
#X obj 122 58 cnv 2 2 2 empty p11-5-1010 empty 0 0 0 14 #ffffff #ffffff 0;
#X obj 133 58 cnv 2 2 2 empty p12-5-1010 empty 0 0 0 14 #ffffff #ffffff 0;
#X obj 143 58 cnv 2 2 2 empty p13-5-1010 empty 0 0 0 14 #ffffff #ffffff 0;
#X obj 154 58 cnv 2 2 2 empty p14-5-1010 empty 0 0 0 14 #ffffff #ffffff 0;
#X obj 165 58 cnv 2 2 2 empty p15-5-1010 empty 0 0 0 14 #ffffff #ffffff 0;
#X obj 175 58 cnv 2 2 2 empty p16-5-1010 empty 0 0 0 14 #ffffff #ffffff 0;
#X obj 186 58 cnv 2 2 2 empty p17-5-1010 empty 0 0 0 14 #ffffff #ffffff 0;
#X obj 197 58 cnv 2 2 2 empty p18-5-1010 empty 0 0 0 14 #ffffff #ffffff 0;
#X obj 207 58 cnv 2 2 2 empty p19-5-1010 empty 0 0 0 14 #ffffff #ffffff 0;
#X obj 218 58 cnv 2 2 2 empty p20-5-1010 empty 0 0 0 14 #ffffff #ffffff 0;
#X obj 229 58 cnv 2 2 2 empty p21-5-1010 empty 0 0 0 14 #ffffff #ffffff 0;
#X obj 239 58 cnv 2 2 2 empty p22-5-1010 empty 0 0 0 14 #ffffff #ffffff 0;
#X obj 250 58 cnv 2 2 2 empty p23-5-1010 empty 0 0 0 14 #ffffff #ffffff 0;
#X obj 5 69 cnv 2 2 2 empty p0-6-1010 empty 0 0 0 14 #ffffff #ffffff 0;
#X obj 15 69 cnv 2 2 2 empty p1-6-1010 empty 0 0 0 14 #ffffff #ffffff 0;
#X obj 26 69 cnv 2 2 2 empty p2-6-1010 empty 0 0 0 14 #ffffff #ffffff 0;
#X obj 37 69 cnv 2 2 2 empty p3-6-1010 empty 0 0 0 14 #ffffff #ffffff 0;
#X obj 47 69 cnv 2 2 2 empty p4-6-1010 empty 0 0 0 14 #ffffff #ffffff 0;
#X obj 58 69 cnv 2 2 2 empty p5-6-1010 empty 0 0 0 14 #ffffff #ffffff 0;
#X obj 69 69 cnv 2 2 2 empty p6-6-1010 empty 0 0 0 14 #ffffff #ffffff 0;
#X obj 79 69 cnv 2 2 2 empty p7-6-1010 empty 0 0 0 14 #ffffff #ffffff 0;
#X obj 90 69 cnv 2 2 2 empty p8-6-1010 empty 0 0 0 14 #ffffff #ffffff 0;
#X obj 101 69 cnv 2 2 2 empty p9-6-1010 empty 0 0 0 14 #ffffff #ffffff 0;
#X obj 111 69 cnv 2 2 2 empty p10-6-1010 empty 0 0 0 14 #ffffff #ffffff 0;
#X obj 122 69 cnv 2 2 2 empty p11-6-1010 empty 0 0 0 14 #ffffff #ffffff 0;
#X obj 133 69 cnv 2 2 2 empty p12-6-1010 empty 0 0 0 14 #ffffff #ffffff 0;
#X obj 143 69 cnv 2 2 2 empty p13-6-1010 empty 0 0 0 14 #ffffff #ffffff 0;
#X obj 154 69 cnv 2 2 2 empty p14-6-1010 empty 0 0 0 14 #ffffff #ffffff 0;
#X obj 165 69 cnv 2 2 2 empty p15-6-1010 empty 0 0 0 14 #ffffff #ffffff 0;
#X obj 175 69 cnv 2 2 2 empty p16-6-1010 empty 0 0 0 14 #ffffff #ffffff 0;
#X obj 186 69 cnv 2 2 2 empty p17-6-1010 empty 0 0 0 14 #ffffff #ffffff 0;
#X obj 197 69 cnv 2 2 2 empty p18-6-1010 empty 0 0 0 14 #ffffff #ffffff 0;
#X obj 207 69 cnv 2 2 2 empty p19-6-1010 empty 0 0 0 14 #ffffff #ffffff 0;
#X obj 218 69 cnv 2 2 2 empty p20-6-1010 empty 0 0 0 14 #ffffff #ffffff 0;
#X obj 229 69 cnv 2 2 2 empty p21-6-1010 empty 0 0 0 14 #ffffff #ffffff 0;
#X obj 239 69 cnv 2 2 2 empty p22-6-1010 empty 0 0 0 14 #ffffff #ffffff 0;
#X obj 250 69 cnv 2 2 2 empty p23-6-1010 empty 0 0 0 14 #ffffff #ffffff 0;
#X obj 5 79 cnv 2 2 2 empty p0-7-1010 empty 0 0 0 14 #ffffff #ffffff 0;
#X obj 15 79 cnv 2 2 2 empty p1-7-1010 empty 0 0 0 14 #ffffff #ffffff 0;
#X obj 26 79 cnv 2 2 2 empty p2-7-1010 empty 0 0 0 14 #ffffff #ffffff 0;
#X obj 37 79 cnv 2 2 2 empty p3-7-1010 empty 0 0 0 14 #ffffff #ffffff 0;
#X obj 47 79 cnv 2 2 2 empty p4-7-1010 empty 0 0 0 14 #ffffff #ffffff 0;
#X obj 58 79 cnv 2 2 2 empty p5-7-1010 empty 0 0 0 14 #ffffff #ffffff 0;
#X obj 69 79 cnv 2 2 2 empty p6-7-1010 empty 0 0 0 14 #ffffff #ffffff 0;
#X obj 79 79 cnv 2 2 2 empty p7-7-1010 empty 0 0 0 14 #ffffff #ffffff 0;
#X obj 90 79 cnv 2 2 2 empty p8-7-1010 empty 0 0 0 14 #ffffff #ffffff 0;
#X obj 101 79 cnv 2 2 2 empty p9-7-1010 empty 0 0 0 14 #ffffff #ffffff 0;
#X obj 111 79 cnv 2 2 2 empty p10-7-1010 empty 0 0 0 14 #ffffff #ffffff 0;
#X obj 122 79 cnv 2 2 2 empty p11-7-1010 empty 0 0 0 14 #ffffff #ffffff 0;
#X obj 133 79 cnv 2 2 2 empty p12-7-1010 empty 0 0 0 14 #ffffff #ffffff 0;
#X obj 143 79 cnv 2 2 2 empty p13-7-1010 empty 0 0 0 14 #ffffff #ffffff 0;
#X obj 154 79 cnv 2 2 2 empty p14-7-1010 empty 0 0 0 14 #ffffff #ffffff 0;
#X obj 165 79 cnv 2 2 2 empty p15-7-1010 empty 0 0 0 14 #ffffff #ffffff 0;
#X obj 175 79 cnv 2 2 2 empty p16-7-1010 empty 0 0 0 14 #ffffff #ffffff 0;
#X obj 186 79 cnv 2 2 2 empty p17-7-1010 empty 0 0 0 14 #ffffff #ffffff 0;
#X obj 197 79 cnv 2 2 2 empty p18-7-1010 empty 0 0 0 14 #ffffff #ffffff 0;
#X obj 207 79 cnv 2 2 2 empty p19-7-1010 empty 0 0 0 14 #ffffff #ffffff 0;
#X obj 218 79 cnv 2 2 2 empty p20-7-1010 empty 0 0 0 14 #ffffff #ffffff 0;
#X obj 229 79 cnv 2 2 2 empty p21-7-1010 empty 0 0 0 14 #ffffff #ffffff 0;
#X obj 239 79 cnv 2 2 2 empty p22-7-1010 empty 0 0 0 14 #ffffff #ffffff 0;
#X obj 250 79 cnv 2 2 2 empty p23-7-1010 empty 0 0 0 14 #ffffff #ffffff 0;
#X obj 5 90 cnv 2 2 2 empty p0-8-1010 empty 0 0 0 14 #ffffff #ffffff 0;
#X obj 15 90 cnv 2 2 2 empty p1-8-1010 empty 0 0 0 14 #ffffff #ffffff 0;
#X obj 26 90 cnv 2 2 2 empty p2-8-1010 empty 0 0 0 14 #ffffff #ffffff 0;
#X obj 37 90 cnv 2 2 2 empty p3-8-1010 empty 0 0 0 14 #ffffff #ffffff 0;
#X obj 47 90 cnv 2 2 2 empty p4-8-1010 empty 0 0 0 14 #ffffff #ffffff 0;
#X obj 58 90 cnv 2 2 2 empty p5-8-1010 empty 0 0 0 14 #ffffff #ffffff 0;
#X obj 69 90 cnv 2 2 2 empty p6-8-1010 empty 0 0 0 14 #ffffff #ffffff 0;
#X obj 79 90 cnv 2 2 2 empty p7-8-1010 empty 0 0 0 14 #ffffff #ffffff 0;
#X obj 90 90 cnv 2 2 2 empty p8-8-1010 empty 0 0 0 14 #ffffff #ffffff 0;
#X obj 101 90 cnv 2 2 2 empty p9-8-1010 empty 0 0 0 14 #ffffff #ffffff 0;
#X obj 111 90 cnv 2 2 2 empty p10-8-1010 empty 0 0 0 14 #ffffff #ffffff 0;
#X obj 122 90 cnv 2 2 2 empty p11-8-1010 empty 0 0 0 14 #ffffff #ffffff 0;
#X obj 133 90 cnv 2 2 2 empty p12-8-1010 empty 0 0 0 14 #ffffff #ffffff 0;
#X obj 143 90 cnv 2 2 2 empty p13-8-1010 empty 0 0 0 14 #ffffff #ffffff 0;
#X obj 154 90 cnv 2 2 2 empty p14-8-1010 empty 0 0 0 14 #ffffff #ffffff 0;
#X obj 165 90 cnv 2 2 2 empty p15-8-1010 empty 0 0 0 14 #ffffff #ffffff 0;
#X obj 175 90 cnv 2 2 2 empty p16-8-1010 empty 0 0 0 14 #ffffff #ffffff 0;
#X obj 186 90 cnv 2 2 2 empty p17-8-1010 empty 0 0 0 14 #ffffff #ffffff 0;
#X obj 197 90 cnv 2 2 2 empty p18-8-1010 empty 0 0 0 14 #ffffff #ffffff 0;
#X obj 207 90 cnv 2 2 2 empty p19-8-1010 empty 0 0 0 14 #ffffff #ffffff 0;
#X obj 218 90 cnv 2 2 2 empty p20-8-1010 empty 0 0 0 14 #ffffff #ffffff 0;
#X obj 229 90 cnv 2 2 2 empty p21-8-1010 empty 0 0 0 14 #ffffff #ffffff 0;
#X obj 239 90 cnv 2 2 2 empty p22-8-1010 empty 0 0 0 14 #ffffff #ffffff 0;
#X obj 250 90 cnv 2 2 2 empty p23-8-1010 empty 0 0 0 14 #ffffff #ffffff 0;
#X obj 5 101 cnv 2 2 2 empty p0-9-1010 empty 0 0 0 14 #ffffff #ffffff 0;
#X obj 15 101 cnv 2 2 2 empty p1-9-1010 empty 0 0 0 14 #ffffff #ffffff 0;
#X obj 26 101 cnv 2 2 2 empty p2-9-1010 empty 0 0 0 14 #ffffff #ffffff 0;
#X obj 37 101 cnv 2 2 2 empty p3-9-1010 empty 0 0 0 14 #ffffff #ffffff 0;
#X obj 47 101 cnv 2 2 2 empty p4-9-1010 empty 0 0 0 14 #ffffff #ffffff 0;
#X obj 58 101 cnv 2 2 2 empty p5-9-1010 empty 0 0 0 14 #ffffff #ffffff 0;
#X obj 69 101 cnv 2 2 2 empty p6-9-1010 empty 0 0 0 14 #ffffff #ffffff 0;
#X obj 79 101 cnv 2 2 2 empty p7-9-1010 empty 0 0 0 14 #ffffff #ffffff 0;
#X obj 90 101 cnv 2 2 2 empty p8-9-1010 empty 0 0 0 14 #ffffff #ffffff 0;
#X obj 101 101 cnv 2 2 2 empty p9-9-1010 empty 0 0 0 14 #ffffff #ffffff 0;
#X obj 111 101 cnv 2 2 2 empty p10-9-1010 empty 0 0 0 14 #ffffff #ffffff 0;
#X obj 122 101 cnv 2 2 2 empty p11-9-1010 empty 0 0 0 14 #ffffff #ffffff 0;
#X obj 133 101 cnv 2 2 2 empty p12-9-1010 empty 0 0 0 14 #ffffff #ffffff 0;
#X obj 143 101 cnv 2 2 2 empty p13-9-1010 empty 0 0 0 14 #ffffff #ffffff 0;
#X obj 154 101 cnv 2 2 2 empty p14-9-1010 empty 0 0 0 14 #ffffff #ffffff 0;
#X obj 165 101 cnv 2 2 2 empty p15-9-1010 empty 0 0 0 14 #ffffff #ffffff 0;
#X obj 175 101 cnv 2 2 2 empty p16-9-1010 empty 0 0 0 14 #ffffff #ffffff 0;
#X obj 186 101 cnv 2 2 2 empty p17-9-1010 empty 0 0 0 14 #ffffff #ffffff 0;
#X obj 197 101 cnv 2 2 2 empty p18-9-1010 empty 0 0 0 14 #ffffff #ffffff 0;
#X obj 207 101 cnv 2 2 2 empty p19-9-1010 empty 0 0 0 14 #ffffff #ffffff 0;
#X obj 218 101 cnv 2 2 2 empty p20-9-1010 empty 0 0 0 14 #ffffff #ffffff 0;
#X obj 229 101 cnv 2 2 2 empty p21-9-1010 empty 0 0 0 14 #ffffff #ffffff 0;
#X obj 239 101 cnv 2 2 2 empty p22-9-1010 empty 0 0 0 14 #ffffff #ffffff 0;
#X obj 250 101 cnv 2 2 2 empty p23-9-1010 empty 0 0 0 14 #ffffff #ffffff 0;
#X obj 5 111 cnv 2 2 2 empty p0-10-1010 empty 0 0 0 14 #ffffff #ffffff 0;
#X obj 15 111 cnv 2 2 2 empty p1-10-1010 empty 0 0 0 14 #ffffff #ffffff 0;
#X obj 26 111 cnv 2 2 2 empty p2-10-1010 empty 0 0 0 14 #ffffff #ffffff 0;
#X obj 37 111 cnv 2 2 2 empty p3-10-1010 empty 0 0 0 14 #ffffff #ffffff 0;
#X obj 47 111 cnv 2 2 2 empty p4-10-1010 empty 0 0 0 14 #ffffff #ffffff 0;
#X obj 58 111 cnv 2 2 2 empty p5-10-1010 empty 0 0 0 14 #ffffff #ffffff 0;
#X obj 69 111 cnv 2 2 2 empty p6-10-1010 empty 0 0 0 14 #ffffff #ffffff 0;
#X obj 79 111 cnv 2 2 2 empty p7-10-1010 empty 0 0 0 14 #ffffff #ffffff 0;
#X obj 90 111 cnv 2 2 2 empty p8-10-1010 empty 0 0 0 14 #ffffff #ffffff 0;
#X obj 101 111 cnv 2 2 2 empty p9-10-1010 empty 0 0 0 14 #ffffff #ffffff 0;
#X obj 111 111 cnv 2 2 2 empty p10-10-1010 empty 0 0 0 14 #ffffff #ffffff 0;
#X obj 122 111 cnv 2 2 2 empty p11-10-1010 empty 0 0 0 14 #ffffff #ffffff 0;
#X obj 133 111 cnv 2 2 2 empty p12-10-1010 empty 0 0 0 14 #ffffff #ffffff 0;
#X obj 143 111 cnv 2 2 2 empty p13-10-1010 empty 0 0 0 14 #ffffff #ffffff 0;
#X obj 154 111 cnv 2 2 2 empty p14-10-1010 empty 0 0 0 14 #ffffff #ffffff 0;
#X obj 165 111 cnv 2 2 2 empty p15-10-1010 empty 0 0 0 14 #ffffff #ffffff 0;
#X obj 175 111 cnv 2 2 2 empty p16-10-1010 empty 0 0 0 14 #ffffff #ffffff 0;
#X obj 186 111 cnv 2 2 2 empty p17-10-1010 empty 0 0 0 14 #ffffff #ffffff 0;
#X obj 197 111 cnv 2 2 2 empty p18-10-1010 empty 0 0 0 14 #ffffff #ffffff 0;
#X obj 207 111 cnv 2 2 2 empty p19-10-1010 empty 0 0 0 14 #ffffff #ffffff 0;
#X obj 218 111 cnv 2 2 2 empty p20-10-1010 empty 0 0 0 14 #ffffff #ffffff 0;
#X obj 229 111 cnv 2 2 2 empty p21-10-1010 empty 0 0 0 14 #ffffff #ffffff 0;
#X obj 239 111 cnv 2 2 2 empty p22-10-1010 empty 0 0 0 14 #ffffff #ffffff 0;
#X obj 250 111 cnv 2 2 2 empty p23-10-1010 empty 0 0 0 14 #ffffff #ffffff 0;
#X obj 5 122 cnv 2 2 2 empty p0-11-1010 empty 0 0 0 14 #ffffff #ffffff 0;
#X obj 15 122 cnv 2 2 2 empty p1-11-1010 empty 0 0 0 14 #ffffff #ffffff 0;
#X obj 26 122 cnv 2 2 2 empty p2-11-1010 empty 0 0 0 14 #ffffff #ffffff 0;
#X obj 37 122 cnv 2 2 2 empty p3-11-1010 empty 0 0 0 14 #ffffff #ffffff 0;
#X obj 47 122 cnv 2 2 2 empty p4-11-1010 empty 0 0 0 14 #ffffff #ffffff 0;
#X obj 58 122 cnv 2 2 2 empty p5-11-1010 empty 0 0 0 14 #ffffff #ffffff 0;
#X obj 69 122 cnv 2 2 2 empty p6-11-1010 empty 0 0 0 14 #ffffff #ffffff 0;
#X obj 79 122 cnv 2 2 2 empty p7-11-1010 empty 0 0 0 14 #ffffff #ffffff 0;
#X obj 90 122 cnv 2 2 2 empty p8-11-1010 empty 0 0 0 14 #ffffff #ffffff 0;
#X obj 101 122 cnv 2 2 2 empty p9-11-1010 empty 0 0 0 14 #ffffff #ffffff 0;
#X obj 111 122 cnv 2 2 2 empty p10-11-1010 empty 0 0 0 14 #ffffff #ffffff 0;
#X obj 122 122 cnv 2 2 2 empty p11-11-1010 empty 0 0 0 14 #ffffff #ffffff 0;
#X obj 133 122 cnv 2 2 2 empty p12-11-1010 empty 0 0 0 14 #ffffff #ffffff 0;
#X obj 143 122 cnv 2 2 2 empty p13-11-1010 empty 0 0 0 14 #ffffff #ffffff 0;
#X obj 154 122 cnv 2 2 2 empty p14-11-1010 empty 0 0 0 14 #ffffff #ffffff 0;
#X obj 165 122 cnv 2 2 2 empty p15-11-1010 empty 0 0 0 14 #ffffff #ffffff 0;
#X obj 175 122 cnv 2 2 2 empty p16-11-1010 empty 0 0 0 14 #ffffff #ffffff 0;
#X obj 186 122 cnv 2 2 2 empty p17-11-1010 empty 0 0 0 14 #ffffff #ffffff 0;
#X obj 197 122 cnv 2 2 2 empty p18-11-1010 empty 0 0 0 14 #ffffff #ffffff 0;
#X obj 207 122 cnv 2 2 2 empty p19-11-1010 empty 0 0 0 14 #ffffff #ffffff 0;
#X obj 218 122 cnv 2 2 2 empty p20-11-1010 empty 0 0 0 14 #ffffff #ffffff 0;
#X obj 229 122 cnv 2 2 2 empty p21-11-1010 empty 0 0 0 14 #ffffff #ffffff 0;
#X obj 239 122 cnv 2 2 2 empty p22-11-1010 empty 0 0 0 14 #ffffff #ffffff 0;
#X obj 250 122 cnv 2 2 2 empty p23-11-1010 empty 0 0 0 14 #ffffff #ffffff 0;
#X obj 5 133 cnv 2 2 2 empty p0-12-1010 empty 0 0 0 14 #ffffff #ffffff 0;
#X obj 15 133 cnv 2 2 2 empty p1-12-1010 empty 0 0 0 14 #ffffff #ffffff 0;
#X obj 26 133 cnv 2 2 2 empty p2-12-1010 empty 0 0 0 14 #ffffff #ffffff 0;
#X obj 37 133 cnv 2 2 2 empty p3-12-1010 empty 0 0 0 14 #ffffff #ffffff 0;
#X obj 47 133 cnv 2 2 2 empty p4-12-1010 empty 0 0 0 14 #ffffff #ffffff 0;
#X obj 58 133 cnv 2 2 2 empty p5-12-1010 empty 0 0 0 14 #ffffff #ffffff 0;
#X obj 69 133 cnv 2 2 2 empty p6-12-1010 empty 0 0 0 14 #ffffff #ffffff 0;
#X obj 79 133 cnv 2 2 2 empty p7-12-1010 empty 0 0 0 14 #ffffff #ffffff 0;
#X obj 90 133 cnv 2 2 2 empty p8-12-1010 empty 0 0 0 14 #ffffff #ffffff 0;
#X obj 101 133 cnv 2 2 2 empty p9-12-1010 empty 0 0 0 14 #ffffff #ffffff 0;
#X obj 111 133 cnv 2 2 2 empty p10-12-1010 empty 0 0 0 14 #ffffff #ffffff 0;
#X obj 122 133 cnv 2 2 2 empty p11-12-1010 empty 0 0 0 14 #ffffff #ffffff 0;
#X obj 133 133 cnv 2 2 2 empty p12-12-1010 empty 0 0 0 14 #ffffff #ffffff 0;
#X obj 143 133 cnv 2 2 2 empty p13-12-1010 empty 0 0 0 14 #ffffff #ffffff 0;
#X obj 154 133 cnv 2 2 2 empty p14-12-1010 empty 0 0 0 14 #ffffff #ffffff 0;
#X obj 165 133 cnv 2 2 2 empty p15-12-1010 empty 0 0 0 14 #ffffff #ffffff 0;
#X obj 175 133 cnv 2 2 2 empty p16-12-1010 empty 0 0 0 14 #ffffff #ffffff 0;
#X obj 186 133 cnv 2 2 2 empty p17-12-1010 empty 0 0 0 14 #ffffff #ffffff 0;
#X obj 197 133 cnv 2 2 2 empty p18-12-1010 empty 0 0 0 14 #ffffff #ffffff 0;
#X obj 207 133 cnv 2 2 2 empty p19-12-1010 empty 0 0 0 14 #ffffff #ffffff 0;
#X obj 218 133 cnv 2 2 2 empty p20-12-1010 empty 0 0 0 14 #ffffff #ffffff 0;
#X obj 229 133 cnv 2 2 2 empty p21-12-1010 empty 0 0 0 14 #ffffff #ffffff 0;
#X obj 239 133 cnv 2 2 2 empty p22-12-1010 empty 0 0 0 14 #ffffff #ffffff 0;
#X obj 250 133 cnv 2 2 2 empty p23-12-1010 empty 0 0 0 14 #ffffff #ffffff 0;
#X obj 5 143 cnv 2 2 2 empty p0-13-1010 empty 0 0 0 14 #ffffff #ffffff 0;
#X obj 15 143 cnv 2 2 2 empty p1-13-1010 empty 0 0 0 14 #ffffff #ffffff 0;
#X obj 26 143 cnv 2 2 2 empty p2-13-1010 empty 0 0 0 14 #ffffff #ffffff 0;
#X obj 37 143 cnv 2 2 2 empty p3-13-1010 empty 0 0 0 14 #ffffff #ffffff 0;
#X obj 47 143 cnv 2 2 2 empty p4-13-1010 empty 0 0 0 14 #ffffff #ffffff 0;
#X obj 58 143 cnv 2 2 2 empty p5-13-1010 empty 0 0 0 14 #ffffff #ffffff 0;
#X obj 69 143 cnv 2 2 2 empty p6-13-1010 empty 0 0 0 14 #ffffff #ffffff 0;
#X obj 79 143 cnv 2 2 2 empty p7-13-1010 empty 0 0 0 14 #ffffff #ffffff 0;
#X obj 90 143 cnv 2 2 2 empty p8-13-1010 empty 0 0 0 14 #ffffff #ffffff 0;
#X obj 101 143 cnv 2 2 2 empty p9-13-1010 empty 0 0 0 14 #ffffff #ffffff 0;
#X obj 111 143 cnv 2 2 2 empty p10-13-1010 empty 0 0 0 14 #ffffff #ffffff 0;
#X obj 122 143 cnv 2 2 2 empty p11-13-1010 empty 0 0 0 14 #ffffff #ffffff 0;
#X obj 133 143 cnv 2 2 2 empty p12-13-1010 empty 0 0 0 14 #ffffff #ffffff 0;
#X obj 143 143 cnv 2 2 2 empty p13-13-1010 empty 0 0 0 14 #ffffff #ffffff 0;
#X obj 154 143 cnv 2 2 2 empty p14-13-1010 empty 0 0 0 14 #ffffff #ffffff 0;
#X obj 165 143 cnv 2 2 2 empty p15-13-1010 empty 0 0 0 14 #ffffff #ffffff 0;
#X obj 175 143 cnv 2 2 2 empty p16-13-1010 empty 0 0 0 14 #ffffff #ffffff 0;
#X obj 186 143 cnv 2 2 2 empty p17-13-1010 empty 0 0 0 14 #ffffff #ffffff 0;
#X obj 197 143 cnv 2 2 2 empty p18-13-1010 empty 0 0 0 14 #ffffff #ffffff 0;
#X obj 207 143 cnv 2 2 2 empty p19-13-1010 empty 0 0 0 14 #ffffff #ffffff 0;
#X obj 218 143 cnv 2 2 2 empty p20-13-1010 empty 0 0 0 14 #ffffff #ffffff 0;
#X obj 229 143 cnv 2 2 2 empty p21-13-1010 empty 0 0 0 14 #ffffff #ffffff 0;
#X obj 239 143 cnv 2 2 2 empty p22-13-1010 empty 0 0 0 14 #ffffff #ffffff 0;
#X obj 250 143 cnv 2 2 2 empty p23-13-1010 empty 0 0 0 14 #ffffff #ffffff 0;
#X obj 5 154 cnv 2 2 2 empty p0-14-1010 empty 0 0 0 14 #ffffff #ffffff 0;
#X obj 15 154 cnv 2 2 2 empty p1-14-1010 empty 0 0 0 14 #ffffff #ffffff 0;
#X obj 26 154 cnv 2 2 2 empty p2-14-1010 empty 0 0 0 14 #ffffff #ffffff 0;
#X obj 37 154 cnv 2 2 2 empty p3-14-1010 empty 0 0 0 14 #ffffff #ffffff 0;
#X obj 47 154 cnv 2 2 2 empty p4-14-1010 empty 0 0 0 14 #ffffff #ffffff 0;
#X obj 58 154 cnv 2 2 2 empty p5-14-1010 empty 0 0 0 14 #ffffff #ffffff 0;
#X obj 69 154 cnv 2 2 2 empty p6-14-1010 empty 0 0 0 14 #ffffff #ffffff 0;
#X obj 79 154 cnv 2 2 2 empty p7-14-1010 empty 0 0 0 14 #ffffff #ffffff 0;
#X obj 90 154 cnv 2 2 2 empty p8-14-1010 empty 0 0 0 14 #ffffff #ffffff 0;
#X obj 101 154 cnv 2 2 2 empty p9-14-1010 empty 0 0 0 14 #ffffff #ffffff 0;
#X obj 111 154 cnv 2 2 2 empty p10-14-1010 empty 0 0 0 14 #ffffff #ffffff 0;
#X obj 122 154 cnv 2 2 2 empty p11-14-1010 empty 0 0 0 14 #ffffff #ffffff 0;
#X obj 133 154 cnv 2 2 2 empty p12-14-1010 empty 0 0 0 14 #ffffff #ffffff 0;
#X obj 143 154 cnv 2 2 2 empty p13-14-1010 empty 0 0 0 14 #ffffff #ffffff 0;
#X obj 154 154 cnv 2 2 2 empty p14-14-1010 empty 0 0 0 14 #ffffff #ffffff 0;
#X obj 165 154 cnv 2 2 2 empty p15-14-1010 empty 0 0 0 14 #ffffff #ffffff 0;
#X obj 175 154 cnv 2 2 2 empty p16-14-1010 empty 0 0 0 14 #ffffff #ffffff 0;
#X obj 186 154 cnv 2 2 2 empty p17-14-1010 empty 0 0 0 14 #ffffff #ffffff 0;
#X obj 197 154 cnv 2 2 2 empty p18-14-1010 empty 0 0 0 14 #ffffff #ffffff 0;
#X obj 207 154 cnv 2 2 2 empty p19-14-1010 empty 0 0 0 14 #ffffff #ffffff 0;
#X obj 218 154 cnv 2 2 2 empty p20-14-1010 empty 0 0 0 14 #ffffff #ffffff 0;
#X obj 229 154 cnv 2 2 2 empty p21-14-1010 empty 0 0 0 14 #ffffff #ffffff 0;
#X obj 239 154 cnv 2 2 2 empty p22-14-1010 empty 0 0 0 14 #ffffff #ffffff 0;
#X obj 250 154 cnv 2 2 2 empty p23-14-1010 empty 0 0 0 14 #ffffff #ffffff 0;
#X obj 5 165 cnv 2 2 2 empty p0-15-1010 empty 0 0 0 14 #ffffff #ffffff 0;
#X obj 15 165 cnv 2 2 2 empty p1-15-1010 empty 0 0 0 14 #ffffff #ffffff 0;
#X obj 26 165 cnv 2 2 2 empty p2-15-1010 empty 0 0 0 14 #ffffff #ffffff 0;
#X obj 37 165 cnv 2 2 2 empty p3-15-1010 empty 0 0 0 14 #ffffff #ffffff 0;
#X obj 47 165 cnv 2 2 2 empty p4-15-1010 empty 0 0 0 14 #ffffff #ffffff 0;
#X obj 58 165 cnv 2 2 2 empty p5-15-1010 empty 0 0 0 14 #ffffff #ffffff 0;
#X obj 69 165 cnv 2 2 2 empty p6-15-1010 empty 0 0 0 14 #ffffff #ffffff 0;
#X obj 79 165 cnv 2 2 2 empty p7-15-1010 empty 0 0 0 14 #ffffff #ffffff 0;
#X obj 90 165 cnv 2 2 2 empty p8-15-1010 empty 0 0 0 14 #ffffff #ffffff 0;
#X obj 101 165 cnv 2 2 2 empty p9-15-1010 empty 0 0 0 14 #ffffff #ffffff 0;
#X obj 111 165 cnv 2 2 2 empty p10-15-1010 empty 0 0 0 14 #ffffff #ffffff 0;
#X obj 122 165 cnv 2 2 2 empty p11-15-1010 empty 0 0 0 14 #ffffff #ffffff 0;
#X obj 133 165 cnv 2 2 2 empty p12-15-1010 empty 0 0 0 14 #ffffff #ffffff 0;
#X obj 143 165 cnv 2 2 2 empty p13-15-1010 empty 0 0 0 14 #ffffff #ffffff 0;
#X obj 154 165 cnv 2 2 2 empty p14-15-1010 empty 0 0 0 14 #ffffff #ffffff 0;
#X obj 165 165 cnv 2 2 2 empty p15-15-1010 empty 0 0 0 14 #ffffff #ffffff 0;
#X obj 175 165 cnv 2 2 2 empty p16-15-1010 empty 0 0 0 14 #ffffff #ffffff 0;
#X obj 186 165 cnv 2 2 2 empty p17-15-1010 empty 0 0 0 14 #ffffff #ffffff 0;
#X obj 197 165 cnv 2 2 2 empty p18-15-1010 empty 0 0 0 14 #ffffff #ffffff 0;
#X obj 207 165 cnv 2 2 2 empty p19-15-1010 empty 0 0 0 14 #ffffff #ffffff 0;
#X obj 218 165 cnv 2 2 2 empty p20-15-1010 empty 0 0 0 14 #ffffff #ffffff 0;
#X obj 229 165 cnv 2 2 2 empty p21-15-1010 empty 0 0 0 14 #ffffff #ffffff 0;
#X obj 239 165 cnv 2 2 2 empty p22-15-1010 empty 0 0 0 14 #ffffff #ffffff 0;
#X obj 250 165 cnv 2 2 2 empty p23-15-1010 empty 0 0 0 14 #ffffff #ffffff 0;
#X obj 5 175 cnv 2 2 2 empty p0-16-1010 empty 0 0 0 14 #ffffff #ffffff 0;
#X obj 15 175 cnv 2 2 2 empty p1-16-1010 empty 0 0 0 14 #ffffff #ffffff 0;
#X obj 26 175 cnv 2 2 2 empty p2-16-1010 empty 0 0 0 14 #ffffff #ffffff 0;
#X obj 37 175 cnv 2 2 2 empty p3-16-1010 empty 0 0 0 14 #ffffff #ffffff 0;
#X obj 47 175 cnv 2 2 2 empty p4-16-1010 empty 0 0 0 14 #ffffff #ffffff 0;
#X obj 58 175 cnv 2 2 2 empty p5-16-1010 empty 0 0 0 14 #ffffff #ffffff 0;
#X obj 69 175 cnv 2 2 2 empty p6-16-1010 empty 0 0 0 14 #ffffff #ffffff 0;
#X obj 79 175 cnv 2 2 2 empty p7-16-1010 empty 0 0 0 14 #ffffff #ffffff 0;
#X obj 90 175 cnv 2 2 2 empty p8-16-1010 empty 0 0 0 14 #ffffff #ffffff 0;
#X obj 101 175 cnv 2 2 2 empty p9-16-1010 empty 0 0 0 14 #ffffff #ffffff 0;
#X obj 111 175 cnv 2 2 2 empty p10-16-1010 empty 0 0 0 14 #ffffff #ffffff 0;
#X obj 122 175 cnv 2 2 2 empty p11-16-1010 empty 0 0 0 14 #ffffff #ffffff 0;
#X obj 133 175 cnv 2 2 2 empty p12-16-1010 empty 0 0 0 14 #ffffff #ffffff 0;
#X obj 143 175 cnv 2 2 2 empty p13-16-1010 empty 0 0 0 14 #ffffff #ffffff 0;
#X obj 154 175 cnv 2 2 2 empty p14-16-1010 empty 0 0 0 14 #ffffff #ffffff 0;
#X obj 165 175 cnv 2 2 2 empty p15-16-1010 empty 0 0 0 14 #ffffff #ffffff 0;
#X obj 175 175 cnv 2 2 2 empty p16-16-1010 empty 0 0 0 14 #ffffff #ffffff 0;
#X obj 186 175 cnv 2 2 2 empty p17-16-1010 empty 0 0 0 14 #ffffff #ffffff 0;
#X obj 197 175 cnv 2 2 2 empty p18-16-1010 empty 0 0 0 14 #ffffff #ffffff 0;
#X obj 207 175 cnv 2 2 2 empty p19-16-1010 empty 0 0 0 14 #ffffff #ffffff 0;
#X obj 218 175 cnv 2 2 2 empty p20-16-1010 empty 0 0 0 14 #ffffff #ffffff 0;
#X obj 229 175 cnv 2 2 2 empty p21-16-1010 empty 0 0 0 14 #ffffff #ffffff 0;
#X obj 239 175 cnv 2 2 2 empty p22-16-1010 empty 0 0 0 14 #ffffff #ffffff 0;
#X obj 250 175 cnv 2 2 2 empty p23-16-1010 empty 0 0 0 14 #ffffff #ffffff 0;
#X obj 5 186 cnv 2 2 2 empty p0-17-1010 empty 0 0 0 14 #ffffff #ffffff 0;
#X obj 15 186 cnv 2 2 2 empty p1-17-1010 empty 0 0 0 14 #ffffff #ffffff 0;
#X obj 26 186 cnv 2 2 2 empty p2-17-1010 empty 0 0 0 14 #ffffff #ffffff 0;
#X obj 37 186 cnv 2 2 2 empty p3-17-1010 empty 0 0 0 14 #ffffff #ffffff 0;
#X obj 47 186 cnv 2 2 2 empty p4-17-1010 empty 0 0 0 14 #ffffff #ffffff 0;
#X obj 58 186 cnv 2 2 2 empty p5-17-1010 empty 0 0 0 14 #ffffff #ffffff 0;
#X obj 69 186 cnv 2 2 2 empty p6-17-1010 empty 0 0 0 14 #ffffff #ffffff 0;
#X obj 79 186 cnv 2 2 2 empty p7-17-1010 empty 0 0 0 14 #ffffff #ffffff 0;
#X obj 90 186 cnv 2 2 2 empty p8-17-1010 empty 0 0 0 14 #ffffff #ffffff 0;
#X obj 101 186 cnv 2 2 2 empty p9-17-1010 empty 0 0 0 14 #ffffff #ffffff 0;
#X obj 111 186 cnv 2 2 2 empty p10-17-1010 empty 0 0 0 14 #ffffff #ffffff 0;
#X obj 122 186 cnv 2 2 2 empty p11-17-1010 empty 0 0 0 14 #ffffff #ffffff 0;
#X obj 133 186 cnv 2 2 2 empty p12-17-1010 empty 0 0 0 14 #ffffff #ffffff 0;
#X obj 143 186 cnv 2 2 2 empty p13-17-1010 empty 0 0 0 14 #ffffff #ffffff 0;
#X obj 154 186 cnv 2 2 2 empty p14-17-1010 empty 0 0 0 14 #ffffff #ffffff 0;
#X obj 165 186 cnv 2 2 2 empty p15-17-1010 empty 0 0 0 14 #ffffff #ffffff 0;
#X obj 175 186 cnv 2 2 2 empty p16-17-1010 empty 0 0 0 14 #ffffff #ffffff 0;
#X obj 186 186 cnv 2 2 2 empty p17-17-1010 empty 0 0 0 14 #ffffff #ffffff 0;
#X obj 197 186 cnv 2 2 2 empty p18-17-1010 empty 0 0 0 14 #ffffff #ffffff 0;
#X obj 207 186 cnv 2 2 2 empty p19-17-1010 empty 0 0 0 14 #ffffff #ffffff 0;
#X obj 218 186 cnv 2 2 2 empty p20-17-1010 empty 0 0 0 14 #ffffff #ffffff 0;
#X obj 229 186 cnv 2 2 2 empty p21-17-1010 empty 0 0 0 14 #ffffff #ffffff 0;
#X obj 239 186 cnv 2 2 2 empty p22-17-1010 empty 0 0 0 14 #ffffff #ffffff 0;
#X obj 250 186 cnv 2 2 2 empty p23-17-1010 empty 0 0 0 14 #ffffff #ffffff 0;
#X obj 5 197 cnv 2 2 2 empty p0-18-1010 empty 0 0 0 14 #ffffff #ffffff 0;
#X obj 15 197 cnv 2 2 2 empty p1-18-1010 empty 0 0 0 14 #ffffff #ffffff 0;
#X obj 26 197 cnv 2 2 2 empty p2-18-1010 empty 0 0 0 14 #ffffff #ffffff 0;
#X obj 37 197 cnv 2 2 2 empty p3-18-1010 empty 0 0 0 14 #ffffff #ffffff 0;
#X obj 47 197 cnv 2 2 2 empty p4-18-1010 empty 0 0 0 14 #ffffff #ffffff 0;
#X obj 58 197 cnv 2 2 2 empty p5-18-1010 empty 0 0 0 14 #ffffff #ffffff 0;
#X obj 69 197 cnv 2 2 2 empty p6-18-1010 empty 0 0 0 14 #ffffff #ffffff 0;
#X obj 79 197 cnv 2 2 2 empty p7-18-1010 empty 0 0 0 14 #ffffff #ffffff 0;
#X obj 90 197 cnv 2 2 2 empty p8-18-1010 empty 0 0 0 14 #ffffff #ffffff 0;
#X obj 101 197 cnv 2 2 2 empty p9-18-1010 empty 0 0 0 14 #ffffff #ffffff 0;
#X obj 111 197 cnv 2 2 2 empty p10-18-1010 empty 0 0 0 14 #ffffff #ffffff 0;
#X obj 122 197 cnv 2 2 2 empty p11-18-1010 empty 0 0 0 14 #ffffff #ffffff 0;
#X obj 133 197 cnv 2 2 2 empty p12-18-1010 empty 0 0 0 14 #ffffff #ffffff 0;
#X obj 143 197 cnv 2 2 2 empty p13-18-1010 empty 0 0 0 14 #ffffff #ffffff 0;
#X obj 154 197 cnv 2 2 2 empty p14-18-1010 empty 0 0 0 14 #ffffff #ffffff 0;
#X obj 165 197 cnv 2 2 2 empty p15-18-1010 empty 0 0 0 14 #ffffff #ffffff 0;
#X obj 175 197 cnv 2 2 2 empty p16-18-1010 empty 0 0 0 14 #ffffff #ffffff 0;
#X obj 186 197 cnv 2 2 2 empty p17-18-1010 empty 0 0 0 14 #ffffff #ffffff 0;
#X obj 197 197 cnv 2 2 2 empty p18-18-1010 empty 0 0 0 14 #ffffff #ffffff 0;
#X obj 207 197 cnv 2 2 2 empty p19-18-1010 empty 0 0 0 14 #ffffff #ffffff 0;
#X obj 218 197 cnv 2 2 2 empty p20-18-1010 empty 0 0 0 14 #ffffff #ffffff 0;
#X obj 229 197 cnv 2 2 2 empty p21-18-1010 empty 0 0 0 14 #ffffff #ffffff 0;
#X obj 239 197 cnv 2 2 2 empty p22-18-1010 empty 0 0 0 14 #ffffff #ffffff 0;
#X obj 250 197 cnv 2 2 2 empty p23-18-1010 empty 0 0 0 14 #ffffff #ffffff 0;
#X obj 5 207 cnv 2 2 2 empty p0-19-1010 empty 0 0 0 14 #ffffff #ffffff 0;
#X obj 15 207 cnv 2 2 2 empty p1-19-1010 empty 0 0 0 14 #ffffff #ffffff 0;
#X obj 26 207 cnv 2 2 2 empty p2-19-1010 empty 0 0 0 14 #ffffff #ffffff 0;
#X obj 37 207 cnv 2 2 2 empty p3-19-1010 empty 0 0 0 14 #ffffff #ffffff 0;
#X obj 47 207 cnv 2 2 2 empty p4-19-1010 empty 0 0 0 14 #ffffff #ffffff 0;
#X obj 58 207 cnv 2 2 2 empty p5-19-1010 empty 0 0 0 14 #ffffff #ffffff 0;
#X obj 69 207 cnv 2 2 2 empty p6-19-1010 empty 0 0 0 14 #ffffff #ffffff 0;
#X obj 79 207 cnv 2 2 2 empty p7-19-1010 empty 0 0 0 14 #ffffff #ffffff 0;
#X obj 90 207 cnv 2 2 2 empty p8-19-1010 empty 0 0 0 14 #ffffff #ffffff 0;
#X obj 101 207 cnv 2 2 2 empty p9-19-1010 empty 0 0 0 14 #ffffff #ffffff 0;
#X obj 111 207 cnv 2 2 2 empty p10-19-1010 empty 0 0 0 14 #ffffff #ffffff 0;
#X obj 122 207 cnv 2 2 2 empty p11-19-1010 empty 0 0 0 14 #ffffff #ffffff 0;
#X obj 133 207 cnv 2 2 2 empty p12-19-1010 empty 0 0 0 14 #ffffff #ffffff 0;
#X obj 143 207 cnv 2 2 2 empty p13-19-1010 empty 0 0 0 14 #ffffff #ffffff 0;
#X obj 154 207 cnv 2 2 2 empty p14-19-1010 empty 0 0 0 14 #ffffff #ffffff 0;
#X obj 165 207 cnv 2 2 2 empty p15-19-1010 empty 0 0 0 14 #ffffff #ffffff 0;
#X obj 175 207 cnv 2 2 2 empty p16-19-1010 empty 0 0 0 14 #ffffff #ffffff 0;
#X obj 186 207 cnv 2 2 2 empty p17-19-1010 empty 0 0 0 14 #ffffff #ffffff 0;
#X obj 197 207 cnv 2 2 2 empty p18-19-1010 empty 0 0 0 14 #ffffff #ffffff 0;
#X obj 207 207 cnv 2 2 2 empty p19-19-1010 empty 0 0 0 14 #ffffff #ffffff 0;
#X obj 218 207 cnv 2 2 2 empty p20-19-1010 empty 0 0 0 14 #ffffff #ffffff 0;
#X obj 229 207 cnv 2 2 2 empty p21-19-1010 empty 0 0 0 14 #ffffff #ffffff 0;
#X obj 239 207 cnv 2 2 2 empty p22-19-1010 empty 0 0 0 14 #ffffff #ffffff 0;
#X obj 250 207 cnv 2 2 2 empty p23-19-1010 empty 0 0 0 14 #ffffff #ffffff 0;
#X obj 5 218 cnv 2 2 2 empty p0-20-1010 empty 0 0 0 14 #ffffff #ffffff 0;
#X obj 15 218 cnv 2 2 2 empty p1-20-1010 empty 0 0 0 14 #ffffff #ffffff 0;
#X obj 26 218 cnv 2 2 2 empty p2-20-1010 empty 0 0 0 14 #ffffff #ffffff 0;
#X obj 37 218 cnv 2 2 2 empty p3-20-1010 empty 0 0 0 14 #ffffff #ffffff 0;
#X obj 47 218 cnv 2 2 2 empty p4-20-1010 empty 0 0 0 14 #ffffff #ffffff 0;
#X obj 58 218 cnv 2 2 2 empty p5-20-1010 empty 0 0 0 14 #ffffff #ffffff 0;
#X obj 69 218 cnv 2 2 2 empty p6-20-1010 empty 0 0 0 14 #ffffff #ffffff 0;
#X obj 79 218 cnv 2 2 2 empty p7-20-1010 empty 0 0 0 14 #ffffff #ffffff 0;
#X obj 90 218 cnv 2 2 2 empty p8-20-1010 empty 0 0 0 14 #ffffff #ffffff 0;
#X obj 101 218 cnv 2 2 2 empty p9-20-1010 empty 0 0 0 14 #ffffff #ffffff 0;
#X obj 111 218 cnv 2 2 2 empty p10-20-1010 empty 0 0 0 14 #ffffff #ffffff 0;
#X obj 122 218 cnv 2 2 2 empty p11-20-1010 empty 0 0 0 14 #ffffff #ffffff 0;
#X obj 133 218 cnv 2 2 2 empty p12-20-1010 empty 0 0 0 14 #ffffff #ffffff 0;
#X obj 143 218 cnv 2 2 2 empty p13-20-1010 empty 0 0 0 14 #ffffff #ffffff 0;
#X obj 154 218 cnv 2 2 2 empty p14-20-1010 empty 0 0 0 14 #ffffff #ffffff 0;
#X obj 165 218 cnv 2 2 2 empty p15-20-1010 empty 0 0 0 14 #ffffff #ffffff 0;
#X obj 175 218 cnv 2 2 2 empty p16-20-1010 empty 0 0 0 14 #ffffff #ffffff 0;
#X obj 186 218 cnv 2 2 2 empty p17-20-1010 empty 0 0 0 14 #ffffff #ffffff 0;
#X obj 197 218 cnv 2 2 2 empty p18-20-1010 empty 0 0 0 14 #ffffff #ffffff 0;
#X obj 207 218 cnv 2 2 2 empty p19-20-1010 empty 0 0 0 14 #ffffff #ffffff 0;
#X obj 218 218 cnv 2 2 2 empty p20-20-1010 empty 0 0 0 14 #ffffff #ffffff 0;
#X obj 229 218 cnv 2 2 2 empty p21-20-1010 empty 0 0 0 14 #ffffff #ffffff 0;
#X obj 239 218 cnv 2 2 2 empty p22-20-1010 empty 0 0 0 14 #ffffff #ffffff 0;
#X obj 250 218 cnv 2 2 2 empty p23-20-1010 empty 0 0 0 14 #ffffff #ffffff 0;
#X obj 5 229 cnv 2 2 2 empty p0-21-1010 empty 0 0 0 14 #ffffff #ffffff 0;
#X obj 15 229 cnv 2 2 2 empty p1-21-1010 empty 0 0 0 14 #ffffff #ffffff 0;
#X obj 26 229 cnv 2 2 2 empty p2-21-1010 empty 0 0 0 14 #ffffff #ffffff 0;
#X obj 37 229 cnv 2 2 2 empty p3-21-1010 empty 0 0 0 14 #ffffff #ffffff 0;
#X obj 47 229 cnv 2 2 2 empty p4-21-1010 empty 0 0 0 14 #ffffff #ffffff 0;
#X obj 58 229 cnv 2 2 2 empty p5-21-1010 empty 0 0 0 14 #ffffff #ffffff 0;
#X obj 69 229 cnv 2 2 2 empty p6-21-1010 empty 0 0 0 14 #ffffff #ffffff 0;
#X obj 79 229 cnv 2 2 2 empty p7-21-1010 empty 0 0 0 14 #ffffff #ffffff 0;
#X obj 90 229 cnv 2 2 2 empty p8-21-1010 empty 0 0 0 14 #ffffff #ffffff 0;
#X obj 101 229 cnv 2 2 2 empty p9-21-1010 empty 0 0 0 14 #ffffff #ffffff 0;
#X obj 111 229 cnv 2 2 2 empty p10-21-1010 empty 0 0 0 14 #ffffff #ffffff 0;
#X obj 122 229 cnv 2 2 2 empty p11-21-1010 empty 0 0 0 14 #ffffff #ffffff 0;
#X obj 133 229 cnv 2 2 2 empty p12-21-1010 empty 0 0 0 14 #ffffff #ffffff 0;
#X obj 143 229 cnv 2 2 2 empty p13-21-1010 empty 0 0 0 14 #ffffff #ffffff 0;
#X obj 154 229 cnv 2 2 2 empty p14-21-1010 empty 0 0 0 14 #ffffff #ffffff 0;
#X obj 165 229 cnv 2 2 2 empty p15-21-1010 empty 0 0 0 14 #ffffff #ffffff 0;
#X obj 175 229 cnv 2 2 2 empty p16-21-1010 empty 0 0 0 14 #ffffff #ffffff 0;
#X obj 186 229 cnv 2 2 2 empty p17-21-1010 empty 0 0 0 14 #ffffff #ffffff 0;
#X obj 197 229 cnv 2 2 2 empty p18-21-1010 empty 0 0 0 14 #ffffff #ffffff 0;
#X obj 207 229 cnv 2 2 2 empty p19-21-1010 empty 0 0 0 14 #ffffff #ffffff 0;
#X obj 218 229 cnv 2 2 2 empty p20-21-1010 empty 0 0 0 14 #ffffff #ffffff 0;
#X obj 229 229 cnv 2 2 2 empty p21-21-1010 empty 0 0 0 14 #ffffff #ffffff 0;
#X obj 239 229 cnv 2 2 2 empty p22-21-1010 empty 0 0 0 14 #ffffff #ffffff 0;
#X obj 250 229 cnv 2 2 2 empty p23-21-1010 empty 0 0 0 14 #ffffff #ffffff 0;
#X obj 5 239 cnv 2 2 2 empty p0-22-1010 empty 0 0 0 14 #ffffff #ffffff 0;
#X obj 15 239 cnv 2 2 2 empty p1-22-1010 empty 0 0 0 14 #ffffff #ffffff 0;
#X obj 26 239 cnv 2 2 2 empty p2-22-1010 empty 0 0 0 14 #ffffff #ffffff 0;
#X obj 37 239 cnv 2 2 2 empty p3-22-1010 empty 0 0 0 14 #ffffff #ffffff 0;
#X obj 47 239 cnv 2 2 2 empty p4-22-1010 empty 0 0 0 14 #ffffff #ffffff 0;
#X obj 58 239 cnv 2 2 2 empty p5-22-1010 empty 0 0 0 14 #ffffff #ffffff 0;
#X obj 69 239 cnv 2 2 2 empty p6-22-1010 empty 0 0 0 14 #ffffff #ffffff 0;
#X obj 79 239 cnv 2 2 2 empty p7-22-1010 empty 0 0 0 14 #ffffff #ffffff 0;
#X obj 90 239 cnv 2 2 2 empty p8-22-1010 empty 0 0 0 14 #ffffff #ffffff 0;
#X obj 101 239 cnv 2 2 2 empty p9-22-1010 empty 0 0 0 14 #ffffff #ffffff 0;
#X obj 111 239 cnv 2 2 2 empty p10-22-1010 empty 0 0 0 14 #ffffff #ffffff 0;
#X obj 122 239 cnv 2 2 2 empty p11-22-1010 empty 0 0 0 14 #ffffff #ffffff 0;
#X obj 133 239 cnv 2 2 2 empty p12-22-1010 empty 0 0 0 14 #ffffff #ffffff 0;
#X obj 143 239 cnv 2 2 2 empty p13-22-1010 empty 0 0 0 14 #ffffff #ffffff 0;
#X obj 154 239 cnv 2 2 2 empty p14-22-1010 empty 0 0 0 14 #ffffff #ffffff 0;
#X obj 165 239 cnv 2 2 2 empty p15-22-1010 empty 0 0 0 14 #ffffff #ffffff 0;
#X obj 175 239 cnv 2 2 2 empty p16-22-1010 empty 0 0 0 14 #ffffff #ffffff 0;
#X obj 186 239 cnv 2 2 2 empty p17-22-1010 empty 0 0 0 14 #ffffff #ffffff 0;
#X obj 197 239 cnv 2 2 2 empty p18-22-1010 empty 0 0 0 14 #ffffff #ffffff 0;
#X obj 207 239 cnv 2 2 2 empty p19-22-1010 empty 0 0 0 14 #ffffff #ffffff 0;
#X obj 218 239 cnv 2 2 2 empty p20-22-1010 empty 0 0 0 14 #ffffff #ffffff 0;
#X obj 229 239 cnv 2 2 2 empty p21-22-1010 empty 0 0 0 14 #ffffff #ffffff 0;
#X obj 239 239 cnv 2 2 2 empty p22-22-1010 empty 0 0 0 14 #ffffff #ffffff 0;
#X obj 250 239 cnv 2 2 2 empty p23-22-1010 empty 0 0 0 14 #ffffff #ffffff 0;
#X obj 5 250 cnv 2 2 2 empty p0-23-1010 empty 0 0 0 14 #ffffff #ffffff 0;
#X obj 15 250 cnv 2 2 2 empty p1-23-1010 empty 0 0 0 14 #ffffff #ffffff 0;
#X obj 26 250 cnv 2 2 2 empty p2-23-1010 empty 0 0 0 14 #ffffff #ffffff 0;
#X obj 37 250 cnv 2 2 2 empty p3-23-1010 empty 0 0 0 14 #ffffff #ffffff 0;
#X obj 47 250 cnv 2 2 2 empty p4-23-1010 empty 0 0 0 14 #ffffff #ffffff 0;
#X obj 58 250 cnv 2 2 2 empty p5-23-1010 empty 0 0 0 14 #ffffff #ffffff 0;
#X obj 69 250 cnv 2 2 2 empty p6-23-1010 empty 0 0 0 14 #ffffff #ffffff 0;
#X obj 79 250 cnv 2 2 2 empty p7-23-1010 empty 0 0 0 14 #ffffff #ffffff 0;
#X obj 90 250 cnv 2 2 2 empty p8-23-1010 empty 0 0 0 14 #ffffff #ffffff 0;
#X obj 101 250 cnv 2 2 2 empty p9-23-1010 empty 0 0 0 14 #ffffff #ffffff 0;
#X obj 111 250 cnv 2 2 2 empty p10-23-1010 empty 0 0 0 14 #ffffff #ffffff 0;
#X obj 122 250 cnv 2 2 2 empty p11-23-1010 empty 0 0 0 14 #ffffff #ffffff 0;
#X obj 133 250 cnv 2 2 2 empty p12-23-1010 empty 0 0 0 14 #ffffff #ffffff 0;
#X obj 143 250 cnv 2 2 2 empty p13-23-1010 empty 0 0 0 14 #ffffff #ffffff 0;
#X obj 154 250 cnv 2 2 2 empty p14-23-1010 empty 0 0 0 14 #ffffff #ffffff 0;
#X obj 165 250 cnv 2 2 2 empty p15-23-1010 empty 0 0 0 14 #ffffff #ffffff 0;
#X obj 175 250 cnv 2 2 2 empty p16-23-1010 empty 0 0 0 14 #ffffff #ffffff 0;
#X obj 186 250 cnv 2 2 2 empty p17-23-1010 empty 0 0 0 14 #ffffff #ffffff 0;
#X obj 197 250 cnv 2 2 2 empty p18-23-1010 empty 0 0 0 14 #ffffff #ffffff 0;
#X obj 207 250 cnv 2 2 2 empty p19-23-1010 empty 0 0 0 14 #ffffff #ffffff 0;
#X obj 218 250 cnv 2 2 2 empty p20-23-1010 empty 0 0 0 14 #ffffff #ffffff 0;
#X obj 229 250 cnv 2 2 2 empty p21-23-1010 empty 0 0 0 14 #ffffff #ffffff 0;
#X obj 239 250 cnv 2 2 2 empty p22-23-1010 empty 0 0 0 14 #ffffff #ffffff 0;
#X obj 250 250 cnv 2 2 2 empty p23-23-1010 empty 0 0 0 14 #ffffff #ffffff 0;
#X coords 0 0 1 1 258 258 2 0 0;
#X restore 0 0 pd graph\$0;
#N canvas 0 50 450 300 polar 1;
#X msg 237 329 pos \$1 \$2;
#X obj 229 198 pol2car;
#X obj 237 299 pack2;
#X obj 229 119 nbx 4 18 -1e+37 1e+37 0 0 empty empty empty 0 -8 0 10 #191919 #ffffff #ffffff 0 256;
#X obj 279 59 nbx 4 18 -1e+37 1e+37 0 0 empty empty empty 0 -8 0 10 #191919 #ffffff #ffffff 0 256;
#X obj 278 154 t b f;
#X obj 219 249 +;
#X obj 230 223 r centerX_\$0;
#X obj 261 272 +;
#X obj 272 246 r centerY_\$0;
#X obj 239 369 s;
#X obj 369 269 count 0 100;
#X msg 369 229 max \$1;
#X obj 279 89 pipe 250;
#X obj 369 199 r n_\$0;
#X obj 279 119 t f b;
#X msg 369 329 symbol p\$1\$2;
#X obj 369 299 pack f \$0;
#X obj 90 149 nbx 4 18 -1e+37 1e+37 0 0 empty empty empty 0 -8 0 10 #191919 #ffffff #ffffff 0 256;
#X msg 90 179 vis_size \$1 \$1;
#X connect 0 0 10 0 empty;
#X connect 1 0 6 0 empty;
#X connect 1 1 8 0 empty;
#X connect 2 0 0 0 empty;
#X connect 3 0 1 0 empty;
#X connect 4 0 13 0 empty;
#X connect 5 0 1 0 empty;
#X connect 5 1 1 1 empty;
#X connect 6 0 2 0 empty;
#X connect 7 0 6 1 empty;
#X connect 8 0 2 1 empty;
#X connect 9 0 8 1 empty;
#X connect 11 0 17 0 empty;
#X connect 12 0 11 0 empty;
#X connect 13 0 15 0 empty;
#X connect 14 0 12 0 empty;
#X connect 15 0 5 0 empty;
#X connect 15 1 11 0 empty;
#X connect 16 0 10 1 empty;
#X connect 17 0 16 0 empty;
#X connect 18 0 19 0 empty;
#X restore 349 219 pd polar;
#X msg 669 119 clear;
#X obj 319 159 s pd-graph\$0;
#X obj 119 -51 s nX_\$0;
#X obj 209 -51 s nY_\$0;
#X obj 119 -111 inlet;
#X obj 209 -111 inlet;
#X obj 569 29 nbx 4 18 -1e+37 1e+37 0 0 empty empty empty 0 -8 0 10 #191919 #ffffff #ffffff 0 256;
#X obj 623 29 nbx 4 18 -1e+37 1e+37 0 0 empty empty empty 0 -8 0 10 #191919 #ffffff #ffffff 0 256;
#X text 599 8 w & h;
#N canvas 0 50 450 300 construct 1;
#X restore 349 189 pd construct;
#X obj 279 249 namecanvas abs\$0;
#X obj 99 -131 nbx 4 18 -1e+37 1e+37 0 0 empty empty empty 0 -8 0 10 #191919 #ffffff #ffffff 0 256;
#X obj 179 -131 nbx 4 18 -1e+37 1e+37 0 0 empty empty empty 0 -8 0 10 #191919 #ffffff #ffffff 0 256;
#X obj 229 -81 v nY_\$0;
#X obj 139 -81 v nX_\$0;
#X obj 29 -81 v height_\$0;
#X obj 412 29 + 5;
#X obj 482 29 + 5;
#X obj 319 79 pack \$0 f f f f f f;
#X msg 319 109 obj \$4 \$5 cnv 2 \$6 \$7 empty p\$2-\$3-\$1 empty 0 0 0 14 #ffffff #ffffff 0, f 36;
#X obj 335 -91 expr $f1 % nX_\$0 \; int($f1/nX_\$0) \; ($f1 % nX_\$0) * (height_\$0 / nX_\$0) \; int($f1/nX_\$0) * (height_\$0 / nY_\$0) \;;
#X obj 319 -150 loop;
#N canvas 0 50 450 300 #-of-points 1;
#X obj 59 29 r nX_\$0;
#X obj 129 29 r nY_\$0;
#X obj 79 79 t b f;
#X obj 59 129 *;
#X obj 59 199 outlet;
#X connect 0 0 3 0 empty;
#X connect 1 0 2 0 empty;
#X connect 2 0 3 0 empty;
#X connect 2 1 3 1 empty;
#X connect 3 0 4 0 empty;
#X restore 359 -151 pd #-of-points;
#X obj 319 -221 bng 25 250 50 0 empty empty empty 17 7 0 10 #191919 #ffffff #ffffff;
#X obj 319 -121 t b f;
#X obj 319 -191 t b b;
#X connect 4 0 2 0 empty;
#X connect 4 0 22 0 empty;
#X connect 7 0 8 0 32.................N....bq+++uC....25+++SA....;
#X connect 11 0 9 0 empty;
#X connect 11 0 21 0 empty;
#X connect 12 0 10 0 empty;
#X connect 12 0 20 0 empty;
#X connect 13 0 25 5 empty;
#X connect 14 0 25 6 empty;
#X connect 18 0 9 0 empty;
#X connect 19 0 10 0 empty;
#X connect 23 0 25 3 empty;
#X connect 24 0 25 4 empty;
#X connect 25 0 26 0 empty;
#X connect 26 0 8 0 empty;
#X connect 27 0 25 1 empty;
#X connect 27 1 25 2 empty;
#X connect 27 2 23 0 empty;
#X connect 27 3 24 0 empty;
#X connect 28 0 31 0 empty;
#X connect 29 0 28 1 empty;
#X connect 30 0 32 0 empty;
#X connect 31 0 25 0 empty;
#X connect 31 1 27 0 empty;
#X connect 32 0 28 0 empty;
#X connect 32 1 7 0 32.................I....rS...PB....6D...HR....;
#X coords 0 0 1 1 258 258 2 0 0;
