#N canvas 827 239 139 139 12;
#X obj 0 0 cnv 15 258 258 empty bg_\$0 empty 20 12 0 14 #191919 #ffffff 0;
#N canvas 0 50 450 300 resize 1;
#X obj 199 19 r height_\$0;
#X obj 199 49 + 2;
#X obj 311 209 s bg_\$0;
#X obj 165 209 s pd-graph\$0;
#X obj 19 209 s abs\$0;
#X msg 311 169 vis_size \$1 \$2;
#X msg 165 169 coords 0 0 1 1 \$1 \$2 2;
#X msg 19 169 coords 0 0 1 1 \$1 \$2 2;
#X obj 109 19 r width_\$0;
#X obj 109 49 + 2;
#X obj 109 89 pack;
#X obj 19 129 list store;
#X obj 19 19 r update_\$0;
#X connect 0 0 1 0 empty;
#X connect 1 0 10 1 empty;
#X connect 5 0 2 0 empty;
#X connect 6 0 3 0 empty;
#X connect 7 0 4 0 empty;
#X connect 8 0 9 0 empty;
#X connect 9 0 10 0 empty;
#X connect 10 0 11 1 empty;
#X connect 11 0 7 0 empty;
#X connect 11 0 6 0 empty;
#X connect 11 0 5 0 empty;
#X connect 12 0 11 0 empty;
#X restore 279 109 pd resize;
#N canvas 0 50 450 300 graph\$0 1;
#X obj 5 5 cnv 2 4 4 empty p0-0-1012 empty 0 0 0 14 #ffffff #ffffff 0;
#X obj 17 5 cnv 2 4 4 empty p1-0-1012 empty 0 0 0 14 #ffffff #ffffff 0;
#X obj 30 5 cnv 2 4 4 empty p2-0-1012 empty 0 0 0 14 #ffffff #ffffff 0;
#X obj 43 5 cnv 2 4 4 empty p3-0-1012 empty 0 0 0 14 #ffffff #ffffff 0;
#X obj 56 5 cnv 2 4 4 empty p4-0-1012 empty 0 0 0 14 #ffffff #ffffff 0;
#X obj 69 5 cnv 2 4 4 empty p5-0-1012 empty 0 0 0 14 #ffffff #ffffff 0;
#X obj 81 5 cnv 2 4 4 empty p6-0-1012 empty 0 0 0 14 #ffffff #ffffff 0;
#X obj 94 5 cnv 2 4 4 empty p7-0-1012 empty 0 0 0 14 #ffffff #ffffff 0;
#X obj 107 5 cnv 2 4 4 empty p8-0-1012 empty 0 0 0 14 #ffffff #ffffff 0;
#X obj 120 5 cnv 2 4 4 empty p9-0-1012 empty 0 0 0 14 #ffffff #ffffff 0;
#X obj 133 5 cnv 2 4 4 empty p10-0-1012 empty 0 0 0 14 #ffffff #ffffff 0;
#X obj 145 5 cnv 2 4 4 empty p11-0-1012 empty 0 0 0 14 #ffffff #ffffff 0;
#X obj 158 5 cnv 2 4 4 empty p12-0-1012 empty 0 0 0 14 #ffffff #ffffff 0;
#X obj 171 5 cnv 2 4 4 empty p13-0-1012 empty 0 0 0 14 #ffffff #ffffff 0;
#X obj 184 5 cnv 2 4 4 empty p14-0-1012 empty 0 0 0 14 #ffffff #ffffff 0;
#X obj 197 5 cnv 2 4 4 empty p15-0-1012 empty 0 0 0 14 #ffffff #ffffff 0;
#X obj 209 5 cnv 2 4 4 empty p16-0-1012 empty 0 0 0 14 #ffffff #ffffff 0;
#X obj 222 5 cnv 2 4 4 empty p17-0-1012 empty 0 0 0 14 #ffffff #ffffff 0;
#X obj 235 5 cnv 2 4 4 empty p18-0-1012 empty 0 0 0 14 #ffffff #ffffff 0;
#X obj 248 5 cnv 2 4 4 empty p19-0-1012 empty 0 0 0 14 #ffffff #ffffff 0;
#X obj 5 17 cnv 2 4 4 empty p0-1-1012 empty 0 0 0 14 #ffffff #ffffff 0;
#X obj 17 17 cnv 2 4 4 empty p1-1-1012 empty 0 0 0 14 #ffffff #ffffff 0;
#X obj 30 17 cnv 2 4 4 empty p2-1-1012 empty 0 0 0 14 #ffffff #ffffff 0;
#X obj 43 17 cnv 2 4 4 empty p3-1-1012 empty 0 0 0 14 #ffffff #ffffff 0;
#X obj 56 17 cnv 2 4 4 empty p4-1-1012 empty 0 0 0 14 #ffffff #ffffff 0;
#X obj 69 17 cnv 2 4 4 empty p5-1-1012 empty 0 0 0 14 #ffffff #ffffff 0;
#X obj 81 17 cnv 2 4 4 empty p6-1-1012 empty 0 0 0 14 #ffffff #ffffff 0;
#X obj 94 17 cnv 2 4 4 empty p7-1-1012 empty 0 0 0 14 #ffffff #ffffff 0;
#X obj 107 17 cnv 2 4 4 empty p8-1-1012 empty 0 0 0 14 #ffffff #ffffff 0;
#X obj 120 17 cnv 2 4 4 empty p9-1-1012 empty 0 0 0 14 #ffffff #ffffff 0;
#X obj 133 17 cnv 2 4 4 empty p10-1-1012 empty 0 0 0 14 #ffffff #ffffff 0;
#X obj 145 17 cnv 2 4 4 empty p11-1-1012 empty 0 0 0 14 #ffffff #ffffff 0;
#X obj 158 17 cnv 2 4 4 empty p12-1-1012 empty 0 0 0 14 #ffffff #ffffff 0;
#X obj 171 17 cnv 2 4 4 empty p13-1-1012 empty 0 0 0 14 #ffffff #ffffff 0;
#X obj 184 17 cnv 2 4 4 empty p14-1-1012 empty 0 0 0 14 #ffffff #ffffff 0;
#X obj 197 17 cnv 2 4 4 empty p15-1-1012 empty 0 0 0 14 #ffffff #ffffff 0;
#X obj 209 17 cnv 2 4 4 empty p16-1-1012 empty 0 0 0 14 #ffffff #ffffff 0;
#X obj 222 17 cnv 2 4 4 empty p17-1-1012 empty 0 0 0 14 #ffffff #ffffff 0;
#X obj 235 17 cnv 2 4 4 empty p18-1-1012 empty 0 0 0 14 #ffffff #ffffff 0;
#X obj 248 17 cnv 2 4 4 empty p19-1-1012 empty 0 0 0 14 #ffffff #ffffff 0;
#X obj 5 30 cnv 2 4 4 empty p0-2-1012 empty 0 0 0 14 #ffffff #ffffff 0;
#X obj 17 30 cnv 2 4 4 empty p1-2-1012 empty 0 0 0 14 #ffffff #ffffff 0;
#X obj 30 30 cnv 2 4 4 empty p2-2-1012 empty 0 0 0 14 #ffffff #ffffff 0;
#X obj 43 30 cnv 2 4 4 empty p3-2-1012 empty 0 0 0 14 #ffffff #ffffff 0;
#X obj 56 30 cnv 2 4 4 empty p4-2-1012 empty 0 0 0 14 #ffffff #ffffff 0;
#X obj 69 30 cnv 2 4 4 empty p5-2-1012 empty 0 0 0 14 #ffffff #ffffff 0;
#X obj 81 30 cnv 2 4 4 empty p6-2-1012 empty 0 0 0 14 #ffffff #ffffff 0;
#X obj 94 30 cnv 2 4 4 empty p7-2-1012 empty 0 0 0 14 #ffffff #ffffff 0;
#X obj 107 30 cnv 2 4 4 empty p8-2-1012 empty 0 0 0 14 #ffffff #ffffff 0;
#X obj 120 30 cnv 2 4 4 empty p9-2-1012 empty 0 0 0 14 #ffffff #ffffff 0;
#X obj 133 30 cnv 2 4 4 empty p10-2-1012 empty 0 0 0 14 #ffffff #ffffff 0;
#X obj 145 30 cnv 2 4 4 empty p11-2-1012 empty 0 0 0 14 #ffffff #ffffff 0;
#X obj 158 30 cnv 2 4 4 empty p12-2-1012 empty 0 0 0 14 #ffffff #ffffff 0;
#X obj 171 30 cnv 2 4 4 empty p13-2-1012 empty 0 0 0 14 #ffffff #ffffff 0;
#X obj 184 30 cnv 2 4 4 empty p14-2-1012 empty 0 0 0 14 #ffffff #ffffff 0;
#X obj 197 30 cnv 2 4 4 empty p15-2-1012 empty 0 0 0 14 #ffffff #ffffff 0;
#X obj 209 30 cnv 2 4 4 empty p16-2-1012 empty 0 0 0 14 #ffffff #ffffff 0;
#X obj 222 30 cnv 2 4 4 empty p17-2-1012 empty 0 0 0 14 #ffffff #ffffff 0;
#X obj 235 30 cnv 2 4 4 empty p18-2-1012 empty 0 0 0 14 #ffffff #ffffff 0;
#X obj 248 30 cnv 2 4 4 empty p19-2-1012 empty 0 0 0 14 #ffffff #ffffff 0;
#X obj 5 43 cnv 2 4 4 empty p0-3-1012 empty 0 0 0 14 #ffffff #ffffff 0;
#X obj 17 43 cnv 2 4 4 empty p1-3-1012 empty 0 0 0 14 #ffffff #ffffff 0;
#X obj 30 43 cnv 2 4 4 empty p2-3-1012 empty 0 0 0 14 #ffffff #ffffff 0;
#X obj 43 43 cnv 2 4 4 empty p3-3-1012 empty 0 0 0 14 #ffffff #ffffff 0;
#X obj 56 43 cnv 2 4 4 empty p4-3-1012 empty 0 0 0 14 #ffffff #ffffff 0;
#X obj 69 43 cnv 2 4 4 empty p5-3-1012 empty 0 0 0 14 #ffffff #ffffff 0;
#X obj 81 43 cnv 2 4 4 empty p6-3-1012 empty 0 0 0 14 #ffffff #ffffff 0;
#X obj 94 43 cnv 2 4 4 empty p7-3-1012 empty 0 0 0 14 #ffffff #ffffff 0;
#X obj 107 43 cnv 2 4 4 empty p8-3-1012 empty 0 0 0 14 #ffffff #ffffff 0;
#X obj 120 43 cnv 2 4 4 empty p9-3-1012 empty 0 0 0 14 #ffffff #ffffff 0;
#X obj 133 43 cnv 2 4 4 empty p10-3-1012 empty 0 0 0 14 #ffffff #ffffff 0;
#X obj 145 43 cnv 2 4 4 empty p11-3-1012 empty 0 0 0 14 #ffffff #ffffff 0;
#X obj 158 43 cnv 2 4 4 empty p12-3-1012 empty 0 0 0 14 #ffffff #ffffff 0;
#X obj 171 43 cnv 2 4 4 empty p13-3-1012 empty 0 0 0 14 #ffffff #ffffff 0;
#X obj 184 43 cnv 2 4 4 empty p14-3-1012 empty 0 0 0 14 #ffffff #ffffff 0;
#X obj 197 43 cnv 2 4 4 empty p15-3-1012 empty 0 0 0 14 #ffffff #ffffff 0;
#X obj 209 43 cnv 2 4 4 empty p16-3-1012 empty 0 0 0 14 #ffffff #ffffff 0;
#X obj 222 43 cnv 2 4 4 empty p17-3-1012 empty 0 0 0 14 #ffffff #ffffff 0;
#X obj 235 43 cnv 2 4 4 empty p18-3-1012 empty 0 0 0 14 #ffffff #ffffff 0;
#X obj 248 43 cnv 2 4 4 empty p19-3-1012 empty 0 0 0 14 #ffffff #ffffff 0;
#X obj 5 56 cnv 2 4 4 empty p0-4-1012 empty 0 0 0 14 #ffffff #ffffff 0;
#X obj 17 56 cnv 2 4 4 empty p1-4-1012 empty 0 0 0 14 #ffffff #ffffff 0;
#X obj 30 56 cnv 2 4 4 empty p2-4-1012 empty 0 0 0 14 #ffffff #ffffff 0;
#X obj 43 56 cnv 2 4 4 empty p3-4-1012 empty 0 0 0 14 #ffffff #ffffff 0;
#X obj 56 56 cnv 2 4 4 empty p4-4-1012 empty 0 0 0 14 #ffffff #ffffff 0;
#X obj 69 56 cnv 2 4 4 empty p5-4-1012 empty 0 0 0 14 #ffffff #ffffff 0;
#X obj 81 56 cnv 2 4 4 empty p6-4-1012 empty 0 0 0 14 #ffffff #ffffff 0;
#X obj 94 56 cnv 2 4 4 empty p7-4-1012 empty 0 0 0 14 #ffffff #ffffff 0;
#X obj 107 56 cnv 2 4 4 empty p8-4-1012 empty 0 0 0 14 #ffffff #ffffff 0;
#X obj 120 56 cnv 2 4 4 empty p9-4-1012 empty 0 0 0 14 #ffffff #ffffff 0;
#X obj 133 56 cnv 2 4 4 empty p10-4-1012 empty 0 0 0 14 #ffffff #ffffff 0;
#X obj 145 56 cnv 2 4 4 empty p11-4-1012 empty 0 0 0 14 #ffffff #ffffff 0;
#X obj 158 56 cnv 2 4 4 empty p12-4-1012 empty 0 0 0 14 #ffffff #ffffff 0;
#X obj 171 56 cnv 2 4 4 empty p13-4-1012 empty 0 0 0 14 #ffffff #ffffff 0;
#X obj 184 56 cnv 2 4 4 empty p14-4-1012 empty 0 0 0 14 #ffffff #ffffff 0;
#X obj 197 56 cnv 2 4 4 empty p15-4-1012 empty 0 0 0 14 #ffffff #ffffff 0;
#X obj 209 56 cnv 2 4 4 empty p16-4-1012 empty 0 0 0 14 #ffffff #ffffff 0;
#X obj 222 56 cnv 2 4 4 empty p17-4-1012 empty 0 0 0 14 #ffffff #ffffff 0;
#X obj 235 56 cnv 2 4 4 empty p18-4-1012 empty 0 0 0 14 #ffffff #ffffff 0;
#X obj 248 56 cnv 2 4 4 empty p19-4-1012 empty 0 0 0 14 #ffffff #ffffff 0;
#X obj 5 69 cnv 2 4 4 empty p0-5-1012 empty 0 0 0 14 #ffffff #ffffff 0;
#X obj 17 69 cnv 2 4 4 empty p1-5-1012 empty 0 0 0 14 #ffffff #ffffff 0;
#X obj 30 69 cnv 2 4 4 empty p2-5-1012 empty 0 0 0 14 #ffffff #ffffff 0;
#X obj 43 69 cnv 2 4 4 empty p3-5-1012 empty 0 0 0 14 #ffffff #ffffff 0;
#X obj 56 69 cnv 2 4 4 empty p4-5-1012 empty 0 0 0 14 #ffffff #ffffff 0;
#X obj 69 69 cnv 2 4 4 empty p5-5-1012 empty 0 0 0 14 #ffffff #ffffff 0;
#X obj 81 69 cnv 2 4 4 empty p6-5-1012 empty 0 0 0 14 #ffffff #ffffff 0;
#X obj 94 69 cnv 2 4 4 empty p7-5-1012 empty 0 0 0 14 #ffffff #ffffff 0;
#X obj 107 69 cnv 2 4 4 empty p8-5-1012 empty 0 0 0 14 #ffffff #ffffff 0;
#X obj 120 69 cnv 2 4 4 empty p9-5-1012 empty 0 0 0 14 #ffffff #ffffff 0;
#X obj 133 69 cnv 2 4 4 empty p10-5-1012 empty 0 0 0 14 #ffffff #ffffff 0;
#X obj 145 69 cnv 2 4 4 empty p11-5-1012 empty 0 0 0 14 #ffffff #ffffff 0;
#X obj 158 69 cnv 2 4 4 empty p12-5-1012 empty 0 0 0 14 #ffffff #ffffff 0;
#X obj 171 69 cnv 2 4 4 empty p13-5-1012 empty 0 0 0 14 #ffffff #ffffff 0;
#X obj 184 69 cnv 2 4 4 empty p14-5-1012 empty 0 0 0 14 #ffffff #ffffff 0;
#X obj 197 69 cnv 2 4 4 empty p15-5-1012 empty 0 0 0 14 #ffffff #ffffff 0;
#X obj 209 69 cnv 2 4 4 empty p16-5-1012 empty 0 0 0 14 #ffffff #ffffff 0;
#X obj 222 69 cnv 2 4 4 empty p17-5-1012 empty 0 0 0 14 #ffffff #ffffff 0;
#X obj 235 69 cnv 2 4 4 empty p18-5-1012 empty 0 0 0 14 #ffffff #ffffff 0;
#X obj 248 69 cnv 2 4 4 empty p19-5-1012 empty 0 0 0 14 #ffffff #ffffff 0;
#X obj 5 81 cnv 2 4 4 empty p0-6-1012 empty 0 0 0 14 #ffffff #ffffff 0;
#X obj 17 81 cnv 2 4 4 empty p1-6-1012 empty 0 0 0 14 #ffffff #ffffff 0;
#X obj 30 81 cnv 2 4 4 empty p2-6-1012 empty 0 0 0 14 #ffffff #ffffff 0;
#X obj 43 81 cnv 2 4 4 empty p3-6-1012 empty 0 0 0 14 #ffffff #ffffff 0;
#X obj 56 81 cnv 2 4 4 empty p4-6-1012 empty 0 0 0 14 #ffffff #ffffff 0;
#X obj 69 81 cnv 2 4 4 empty p5-6-1012 empty 0 0 0 14 #ffffff #ffffff 0;
#X obj 81 81 cnv 2 4 4 empty p6-6-1012 empty 0 0 0 14 #ffffff #ffffff 0;
#X obj 94 81 cnv 2 4 4 empty p7-6-1012 empty 0 0 0 14 #ffffff #ffffff 0;
#X obj 107 81 cnv 2 4 4 empty p8-6-1012 empty 0 0 0 14 #ffffff #ffffff 0;
#X obj 120 81 cnv 2 4 4 empty p9-6-1012 empty 0 0 0 14 #ffffff #ffffff 0;
#X obj 133 81 cnv 2 4 4 empty p10-6-1012 empty 0 0 0 14 #ffffff #ffffff 0;
#X obj 145 81 cnv 2 4 4 empty p11-6-1012 empty 0 0 0 14 #ffffff #ffffff 0;
#X obj 158 81 cnv 2 4 4 empty p12-6-1012 empty 0 0 0 14 #ffffff #ffffff 0;
#X obj 171 81 cnv 2 4 4 empty p13-6-1012 empty 0 0 0 14 #ffffff #ffffff 0;
#X obj 184 81 cnv 2 4 4 empty p14-6-1012 empty 0 0 0 14 #ffffff #ffffff 0;
#X obj 197 81 cnv 2 4 4 empty p15-6-1012 empty 0 0 0 14 #ffffff #ffffff 0;
#X obj 209 81 cnv 2 4 4 empty p16-6-1012 empty 0 0 0 14 #ffffff #ffffff 0;
#X obj 222 81 cnv 2 4 4 empty p17-6-1012 empty 0 0 0 14 #ffffff #ffffff 0;
#X obj 235 81 cnv 2 4 4 empty p18-6-1012 empty 0 0 0 14 #ffffff #ffffff 0;
#X obj 248 81 cnv 2 4 4 empty p19-6-1012 empty 0 0 0 14 #ffffff #ffffff 0;
#X obj 5 94 cnv 2 4 4 empty p0-7-1012 empty 0 0 0 14 #ffffff #ffffff 0;
#X obj 17 94 cnv 2 4 4 empty p1-7-1012 empty 0 0 0 14 #ffffff #ffffff 0;
#X obj 30 94 cnv 2 4 4 empty p2-7-1012 empty 0 0 0 14 #ffffff #ffffff 0;
#X obj 43 94 cnv 2 4 4 empty p3-7-1012 empty 0 0 0 14 #ffffff #ffffff 0;
#X obj 56 94 cnv 2 4 4 empty p4-7-1012 empty 0 0 0 14 #ffffff #ffffff 0;
#X obj 69 94 cnv 2 4 4 empty p5-7-1012 empty 0 0 0 14 #ffffff #ffffff 0;
#X obj 81 94 cnv 2 4 4 empty p6-7-1012 empty 0 0 0 14 #ffffff #ffffff 0;
#X obj 94 94 cnv 2 4 4 empty p7-7-1012 empty 0 0 0 14 #ffffff #ffffff 0;
#X obj 107 94 cnv 2 4 4 empty p8-7-1012 empty 0 0 0 14 #ffffff #ffffff 0;
#X obj 120 94 cnv 2 4 4 empty p9-7-1012 empty 0 0 0 14 #ffffff #ffffff 0;
#X obj 133 94 cnv 2 4 4 empty p10-7-1012 empty 0 0 0 14 #ffffff #ffffff 0;
#X obj 145 94 cnv 2 4 4 empty p11-7-1012 empty 0 0 0 14 #ffffff #ffffff 0;
#X obj 158 94 cnv 2 4 4 empty p12-7-1012 empty 0 0 0 14 #ffffff #ffffff 0;
#X obj 171 94 cnv 2 4 4 empty p13-7-1012 empty 0 0 0 14 #ffffff #ffffff 0;
#X obj 184 94 cnv 2 4 4 empty p14-7-1012 empty 0 0 0 14 #ffffff #ffffff 0;
#X obj 197 94 cnv 2 4 4 empty p15-7-1012 empty 0 0 0 14 #ffffff #ffffff 0;
#X obj 209 94 cnv 2 4 4 empty p16-7-1012 empty 0 0 0 14 #ffffff #ffffff 0;
#X obj 222 94 cnv 2 4 4 empty p17-7-1012 empty 0 0 0 14 #ffffff #ffffff 0;
#X obj 235 94 cnv 2 4 4 empty p18-7-1012 empty 0 0 0 14 #ffffff #ffffff 0;
#X obj 248 94 cnv 2 4 4 empty p19-7-1012 empty 0 0 0 14 #ffffff #ffffff 0;
#X obj 5 107 cnv 2 4 4 empty p0-8-1012 empty 0 0 0 14 #ffffff #ffffff 0;
#X obj 17 107 cnv 2 4 4 empty p1-8-1012 empty 0 0 0 14 #ffffff #ffffff 0;
#X obj 30 107 cnv 2 4 4 empty p2-8-1012 empty 0 0 0 14 #ffffff #ffffff 0;
#X obj 43 107 cnv 2 4 4 empty p3-8-1012 empty 0 0 0 14 #ffffff #ffffff 0;
#X obj 56 107 cnv 2 4 4 empty p4-8-1012 empty 0 0 0 14 #ffffff #ffffff 0;
#X obj 69 107 cnv 2 4 4 empty p5-8-1012 empty 0 0 0 14 #ffffff #ffffff 0;
#X obj 81 107 cnv 2 4 4 empty p6-8-1012 empty 0 0 0 14 #ffffff #ffffff 0;
#X obj 94 107 cnv 2 4 4 empty p7-8-1012 empty 0 0 0 14 #ffffff #ffffff 0;
#X obj 107 107 cnv 2 4 4 empty p8-8-1012 empty 0 0 0 14 #ffffff #ffffff 0;
#X obj 120 107 cnv 2 4 4 empty p9-8-1012 empty 0 0 0 14 #ffffff #ffffff 0;
#X obj 133 107 cnv 2 4 4 empty p10-8-1012 empty 0 0 0 14 #ffffff #ffffff 0;
#X obj 145 107 cnv 2 4 4 empty p11-8-1012 empty 0 0 0 14 #ffffff #ffffff 0;
#X obj 158 107 cnv 2 4 4 empty p12-8-1012 empty 0 0 0 14 #ffffff #ffffff 0;
#X obj 171 107 cnv 2 4 4 empty p13-8-1012 empty 0 0 0 14 #ffffff #ffffff 0;
#X obj 184 107 cnv 2 4 4 empty p14-8-1012 empty 0 0 0 14 #ffffff #ffffff 0;
#X obj 197 107 cnv 2 4 4 empty p15-8-1012 empty 0 0 0 14 #ffffff #ffffff 0;
#X obj 209 107 cnv 2 4 4 empty p16-8-1012 empty 0 0 0 14 #ffffff #ffffff 0;
#X obj 222 107 cnv 2 4 4 empty p17-8-1012 empty 0 0 0 14 #ffffff #ffffff 0;
#X obj 235 107 cnv 2 4 4 empty p18-8-1012 empty 0 0 0 14 #ffffff #ffffff 0;
#X obj 248 107 cnv 2 4 4 empty p19-8-1012 empty 0 0 0 14 #ffffff #ffffff 0;
#X obj 5 120 cnv 2 4 4 empty p0-9-1012 empty 0 0 0 14 #ffffff #ffffff 0;
#X obj 17 120 cnv 2 4 4 empty p1-9-1012 empty 0 0 0 14 #ffffff #ffffff 0;
#X obj 30 120 cnv 2 4 4 empty p2-9-1012 empty 0 0 0 14 #ffffff #ffffff 0;
#X obj 43 120 cnv 2 4 4 empty p3-9-1012 empty 0 0 0 14 #ffffff #ffffff 0;
#X obj 56 120 cnv 2 4 4 empty p4-9-1012 empty 0 0 0 14 #ffffff #ffffff 0;
#X obj 69 120 cnv 2 4 4 empty p5-9-1012 empty 0 0 0 14 #ffffff #ffffff 0;
#X obj 81 120 cnv 2 4 4 empty p6-9-1012 empty 0 0 0 14 #ffffff #ffffff 0;
#X obj 94 120 cnv 2 4 4 empty p7-9-1012 empty 0 0 0 14 #ffffff #ffffff 0;
#X obj 107 120 cnv 2 4 4 empty p8-9-1012 empty 0 0 0 14 #ffffff #ffffff 0;
#X obj 120 120 cnv 2 4 4 empty p9-9-1012 empty 0 0 0 14 #ffffff #ffffff 0;
#X obj 133 120 cnv 2 4 4 empty p10-9-1012 empty 0 0 0 14 #ffffff #ffffff 0;
#X obj 145 120 cnv 2 4 4 empty p11-9-1012 empty 0 0 0 14 #ffffff #ffffff 0;
#X obj 158 120 cnv 2 4 4 empty p12-9-1012 empty 0 0 0 14 #ffffff #ffffff 0;
#X obj 171 120 cnv 2 4 4 empty p13-9-1012 empty 0 0 0 14 #ffffff #ffffff 0;
#X obj 184 120 cnv 2 4 4 empty p14-9-1012 empty 0 0 0 14 #ffffff #ffffff 0;
#X obj 197 120 cnv 2 4 4 empty p15-9-1012 empty 0 0 0 14 #ffffff #ffffff 0;
#X obj 209 120 cnv 2 4 4 empty p16-9-1012 empty 0 0 0 14 #ffffff #ffffff 0;
#X obj 222 120 cnv 2 4 4 empty p17-9-1012 empty 0 0 0 14 #ffffff #ffffff 0;
#X obj 235 120 cnv 2 4 4 empty p18-9-1012 empty 0 0 0 14 #ffffff #ffffff 0;
#X obj 248 120 cnv 2 4 4 empty p19-9-1012 empty 0 0 0 14 #ffffff #ffffff 0;
#X obj 5 133 cnv 2 4 4 empty p0-10-1012 empty 0 0 0 14 #ffffff #ffffff 0;
#X obj 17 133 cnv 2 4 4 empty p1-10-1012 empty 0 0 0 14 #ffffff #ffffff 0;
#X obj 30 133 cnv 2 4 4 empty p2-10-1012 empty 0 0 0 14 #ffffff #ffffff 0;
#X obj 43 133 cnv 2 4 4 empty p3-10-1012 empty 0 0 0 14 #ffffff #ffffff 0;
#X obj 56 133 cnv 2 4 4 empty p4-10-1012 empty 0 0 0 14 #ffffff #ffffff 0;
#X obj 69 133 cnv 2 4 4 empty p5-10-1012 empty 0 0 0 14 #ffffff #ffffff 0;
#X obj 81 133 cnv 2 4 4 empty p6-10-1012 empty 0 0 0 14 #ffffff #ffffff 0;
#X obj 94 133 cnv 2 4 4 empty p7-10-1012 empty 0 0 0 14 #ffffff #ffffff 0;
#X obj 107 133 cnv 2 4 4 empty p8-10-1012 empty 0 0 0 14 #ffffff #ffffff 0;
#X obj 120 133 cnv 2 4 4 empty p9-10-1012 empty 0 0 0 14 #ffffff #ffffff 0;
#X obj 133 133 cnv 2 4 4 empty p10-10-1012 empty 0 0 0 14 #ffffff #ffffff 0;
#X obj 145 133 cnv 2 4 4 empty p11-10-1012 empty 0 0 0 14 #ffffff #ffffff 0;
#X obj 158 133 cnv 2 4 4 empty p12-10-1012 empty 0 0 0 14 #ffffff #ffffff 0;
#X obj 171 133 cnv 2 4 4 empty p13-10-1012 empty 0 0 0 14 #ffffff #ffffff 0;
#X obj 184 133 cnv 2 4 4 empty p14-10-1012 empty 0 0 0 14 #ffffff #ffffff 0;
#X obj 197 133 cnv 2 4 4 empty p15-10-1012 empty 0 0 0 14 #ffffff #ffffff 0;
#X obj 209 133 cnv 2 4 4 empty p16-10-1012 empty 0 0 0 14 #ffffff #ffffff 0;
#X obj 222 133 cnv 2 4 4 empty p17-10-1012 empty 0 0 0 14 #ffffff #ffffff 0;
#X obj 235 133 cnv 2 4 4 empty p18-10-1012 empty 0 0 0 14 #ffffff #ffffff 0;
#X obj 248 133 cnv 2 4 4 empty p19-10-1012 empty 0 0 0 14 #ffffff #ffffff 0;
#X obj 5 145 cnv 2 4 4 empty p0-11-1012 empty 0 0 0 14 #ffffff #ffffff 0;
#X obj 17 145 cnv 2 4 4 empty p1-11-1012 empty 0 0 0 14 #ffffff #ffffff 0;
#X obj 30 145 cnv 2 4 4 empty p2-11-1012 empty 0 0 0 14 #ffffff #ffffff 0;
#X obj 43 145 cnv 2 4 4 empty p3-11-1012 empty 0 0 0 14 #ffffff #ffffff 0;
#X obj 56 145 cnv 2 4 4 empty p4-11-1012 empty 0 0 0 14 #ffffff #ffffff 0;
#X obj 69 145 cnv 2 4 4 empty p5-11-1012 empty 0 0 0 14 #ffffff #ffffff 0;
#X obj 81 145 cnv 2 4 4 empty p6-11-1012 empty 0 0 0 14 #ffffff #ffffff 0;
#X obj 94 145 cnv 2 4 4 empty p7-11-1012 empty 0 0 0 14 #ffffff #ffffff 0;
#X obj 107 145 cnv 2 4 4 empty p8-11-1012 empty 0 0 0 14 #ffffff #ffffff 0;
#X obj 120 145 cnv 2 4 4 empty p9-11-1012 empty 0 0 0 14 #ffffff #ffffff 0;
#X obj 133 145 cnv 2 4 4 empty p10-11-1012 empty 0 0 0 14 #ffffff #ffffff 0;
#X obj 145 145 cnv 2 4 4 empty p11-11-1012 empty 0 0 0 14 #ffffff #ffffff 0;
#X obj 158 145 cnv 2 4 4 empty p12-11-1012 empty 0 0 0 14 #ffffff #ffffff 0;
#X obj 171 145 cnv 2 4 4 empty p13-11-1012 empty 0 0 0 14 #ffffff #ffffff 0;
#X obj 184 145 cnv 2 4 4 empty p14-11-1012 empty 0 0 0 14 #ffffff #ffffff 0;
#X obj 197 145 cnv 2 4 4 empty p15-11-1012 empty 0 0 0 14 #ffffff #ffffff 0;
#X obj 209 145 cnv 2 4 4 empty p16-11-1012 empty 0 0 0 14 #ffffff #ffffff 0;
#X obj 222 145 cnv 2 4 4 empty p17-11-1012 empty 0 0 0 14 #ffffff #ffffff 0;
#X obj 235 145 cnv 2 4 4 empty p18-11-1012 empty 0 0 0 14 #ffffff #ffffff 0;
#X obj 248 145 cnv 2 4 4 empty p19-11-1012 empty 0 0 0 14 #ffffff #ffffff 0;
#X obj 5 158 cnv 2 4 4 empty p0-12-1012 empty 0 0 0 14 #ffffff #ffffff 0;
#X obj 17 158 cnv 2 4 4 empty p1-12-1012 empty 0 0 0 14 #ffffff #ffffff 0;
#X obj 30 158 cnv 2 4 4 empty p2-12-1012 empty 0 0 0 14 #ffffff #ffffff 0;
#X obj 43 158 cnv 2 4 4 empty p3-12-1012 empty 0 0 0 14 #ffffff #ffffff 0;
#X obj 56 158 cnv 2 4 4 empty p4-12-1012 empty 0 0 0 14 #ffffff #ffffff 0;
#X obj 69 158 cnv 2 4 4 empty p5-12-1012 empty 0 0 0 14 #ffffff #ffffff 0;
#X obj 81 158 cnv 2 4 4 empty p6-12-1012 empty 0 0 0 14 #ffffff #ffffff 0;
#X obj 94 158 cnv 2 4 4 empty p7-12-1012 empty 0 0 0 14 #ffffff #ffffff 0;
#X obj 107 158 cnv 2 4 4 empty p8-12-1012 empty 0 0 0 14 #ffffff #ffffff 0;
#X obj 120 158 cnv 2 4 4 empty p9-12-1012 empty 0 0 0 14 #ffffff #ffffff 0;
#X obj 133 158 cnv 2 4 4 empty p10-12-1012 empty 0 0 0 14 #ffffff #ffffff 0;
#X obj 145 158 cnv 2 4 4 empty p11-12-1012 empty 0 0 0 14 #ffffff #ffffff 0;
#X obj 158 158 cnv 2 4 4 empty p12-12-1012 empty 0 0 0 14 #ffffff #ffffff 0;
#X obj 171 158 cnv 2 4 4 empty p13-12-1012 empty 0 0 0 14 #ffffff #ffffff 0;
#X obj 184 158 cnv 2 4 4 empty p14-12-1012 empty 0 0 0 14 #ffffff #ffffff 0;
#X obj 197 158 cnv 2 4 4 empty p15-12-1012 empty 0 0 0 14 #ffffff #ffffff 0;
#X obj 209 158 cnv 2 4 4 empty p16-12-1012 empty 0 0 0 14 #ffffff #ffffff 0;
#X obj 222 158 cnv 2 4 4 empty p17-12-1012 empty 0 0 0 14 #ffffff #ffffff 0;
#X obj 235 158 cnv 2 4 4 empty p18-12-1012 empty 0 0 0 14 #ffffff #ffffff 0;
#X obj 248 158 cnv 2 4 4 empty p19-12-1012 empty 0 0 0 14 #ffffff #ffffff 0;
#X obj 5 171 cnv 2 4 4 empty p0-13-1012 empty 0 0 0 14 #ffffff #ffffff 0;
#X obj 17 171 cnv 2 4 4 empty p1-13-1012 empty 0 0 0 14 #ffffff #ffffff 0;
#X obj 30 171 cnv 2 4 4 empty p2-13-1012 empty 0 0 0 14 #ffffff #ffffff 0;
#X obj 43 171 cnv 2 4 4 empty p3-13-1012 empty 0 0 0 14 #ffffff #ffffff 0;
#X obj 56 171 cnv 2 4 4 empty p4-13-1012 empty 0 0 0 14 #ffffff #ffffff 0;
#X obj 69 171 cnv 2 4 4 empty p5-13-1012 empty 0 0 0 14 #ffffff #ffffff 0;
#X obj 81 171 cnv 2 4 4 empty p6-13-1012 empty 0 0 0 14 #ffffff #ffffff 0;
#X obj 94 171 cnv 2 4 4 empty p7-13-1012 empty 0 0 0 14 #ffffff #ffffff 0;
#X obj 107 171 cnv 2 4 4 empty p8-13-1012 empty 0 0 0 14 #ffffff #ffffff 0;
#X obj 120 171 cnv 2 4 4 empty p9-13-1012 empty 0 0 0 14 #ffffff #ffffff 0;
#X obj 133 171 cnv 2 4 4 empty p10-13-1012 empty 0 0 0 14 #ffffff #ffffff 0;
#X obj 145 171 cnv 2 4 4 empty p11-13-1012 empty 0 0 0 14 #ffffff #ffffff 0;
#X obj 158 171 cnv 2 4 4 empty p12-13-1012 empty 0 0 0 14 #ffffff #ffffff 0;
#X obj 171 171 cnv 2 4 4 empty p13-13-1012 empty 0 0 0 14 #ffffff #ffffff 0;
#X obj 184 171 cnv 2 4 4 empty p14-13-1012 empty 0 0 0 14 #ffffff #ffffff 0;
#X obj 197 171 cnv 2 4 4 empty p15-13-1012 empty 0 0 0 14 #ffffff #ffffff 0;
#X obj 209 171 cnv 2 4 4 empty p16-13-1012 empty 0 0 0 14 #ffffff #ffffff 0;
#X obj 222 171 cnv 2 4 4 empty p17-13-1012 empty 0 0 0 14 #ffffff #ffffff 0;
#X obj 235 171 cnv 2 4 4 empty p18-13-1012 empty 0 0 0 14 #ffffff #ffffff 0;
#X obj 248 171 cnv 2 4 4 empty p19-13-1012 empty 0 0 0 14 #ffffff #ffffff 0;
#X obj 5 184 cnv 2 4 4 empty p0-14-1012 empty 0 0 0 14 #ffffff #ffffff 0;
#X obj 17 184 cnv 2 4 4 empty p1-14-1012 empty 0 0 0 14 #ffffff #ffffff 0;
#X obj 30 184 cnv 2 4 4 empty p2-14-1012 empty 0 0 0 14 #ffffff #ffffff 0;
#X obj 43 184 cnv 2 4 4 empty p3-14-1012 empty 0 0 0 14 #ffffff #ffffff 0;
#X obj 56 184 cnv 2 4 4 empty p4-14-1012 empty 0 0 0 14 #ffffff #ffffff 0;
#X obj 69 184 cnv 2 4 4 empty p5-14-1012 empty 0 0 0 14 #ffffff #ffffff 0;
#X obj 81 184 cnv 2 4 4 empty p6-14-1012 empty 0 0 0 14 #ffffff #ffffff 0;
#X obj 94 184 cnv 2 4 4 empty p7-14-1012 empty 0 0 0 14 #ffffff #ffffff 0;
#X obj 107 184 cnv 2 4 4 empty p8-14-1012 empty 0 0 0 14 #ffffff #ffffff 0;
#X obj 120 184 cnv 2 4 4 empty p9-14-1012 empty 0 0 0 14 #ffffff #ffffff 0;
#X obj 133 184 cnv 2 4 4 empty p10-14-1012 empty 0 0 0 14 #ffffff #ffffff 0;
#X obj 145 184 cnv 2 4 4 empty p11-14-1012 empty 0 0 0 14 #ffffff #ffffff 0;
#X obj 158 184 cnv 2 4 4 empty p12-14-1012 empty 0 0 0 14 #ffffff #ffffff 0;
#X obj 171 184 cnv 2 4 4 empty p13-14-1012 empty 0 0 0 14 #ffffff #ffffff 0;
#X obj 184 184 cnv 2 4 4 empty p14-14-1012 empty 0 0 0 14 #ffffff #ffffff 0;
#X obj 197 184 cnv 2 4 4 empty p15-14-1012 empty 0 0 0 14 #ffffff #ffffff 0;
#X obj 209 184 cnv 2 4 4 empty p16-14-1012 empty 0 0 0 14 #ffffff #ffffff 0;
#X obj 222 184 cnv 2 4 4 empty p17-14-1012 empty 0 0 0 14 #ffffff #ffffff 0;
#X obj 235 184 cnv 2 4 4 empty p18-14-1012 empty 0 0 0 14 #ffffff #ffffff 0;
#X obj 248 184 cnv 2 4 4 empty p19-14-1012 empty 0 0 0 14 #ffffff #ffffff 0;
#X obj 5 197 cnv 2 4 4 empty p0-15-1012 empty 0 0 0 14 #ffffff #ffffff 0;
#X obj 17 197 cnv 2 4 4 empty p1-15-1012 empty 0 0 0 14 #ffffff #ffffff 0;
#X obj 30 197 cnv 2 4 4 empty p2-15-1012 empty 0 0 0 14 #ffffff #ffffff 0;
#X obj 43 197 cnv 2 4 4 empty p3-15-1012 empty 0 0 0 14 #ffffff #ffffff 0;
#X obj 56 197 cnv 2 4 4 empty p4-15-1012 empty 0 0 0 14 #ffffff #ffffff 0;
#X obj 69 197 cnv 2 4 4 empty p5-15-1012 empty 0 0 0 14 #ffffff #ffffff 0;
#X obj 81 197 cnv 2 4 4 empty p6-15-1012 empty 0 0 0 14 #ffffff #ffffff 0;
#X obj 94 197 cnv 2 4 4 empty p7-15-1012 empty 0 0 0 14 #ffffff #ffffff 0;
#X obj 107 197 cnv 2 4 4 empty p8-15-1012 empty 0 0 0 14 #ffffff #ffffff 0;
#X obj 120 197 cnv 2 4 4 empty p9-15-1012 empty 0 0 0 14 #ffffff #ffffff 0;
#X obj 133 197 cnv 2 4 4 empty p10-15-1012 empty 0 0 0 14 #ffffff #ffffff 0;
#X obj 145 197 cnv 2 4 4 empty p11-15-1012 empty 0 0 0 14 #ffffff #ffffff 0;
#X obj 158 197 cnv 2 4 4 empty p12-15-1012 empty 0 0 0 14 #ffffff #ffffff 0;
#X obj 171 197 cnv 2 4 4 empty p13-15-1012 empty 0 0 0 14 #ffffff #ffffff 0;
#X obj 184 197 cnv 2 4 4 empty p14-15-1012 empty 0 0 0 14 #ffffff #ffffff 0;
#X obj 197 197 cnv 2 4 4 empty p15-15-1012 empty 0 0 0 14 #ffffff #ffffff 0;
#X obj 209 197 cnv 2 4 4 empty p16-15-1012 empty 0 0 0 14 #ffffff #ffffff 0;
#X obj 222 197 cnv 2 4 4 empty p17-15-1012 empty 0 0 0 14 #ffffff #ffffff 0;
#X obj 235 197 cnv 2 4 4 empty p18-15-1012 empty 0 0 0 14 #ffffff #ffffff 0;
#X obj 248 197 cnv 2 4 4 empty p19-15-1012 empty 0 0 0 14 #ffffff #ffffff 0;
#X obj 5 209 cnv 2 4 4 empty p0-16-1012 empty 0 0 0 14 #ffffff #ffffff 0;
#X obj 17 209 cnv 2 4 4 empty p1-16-1012 empty 0 0 0 14 #ffffff #ffffff 0;
#X obj 30 209 cnv 2 4 4 empty p2-16-1012 empty 0 0 0 14 #ffffff #ffffff 0;
#X obj 43 209 cnv 2 4 4 empty p3-16-1012 empty 0 0 0 14 #ffffff #ffffff 0;
#X obj 56 209 cnv 2 4 4 empty p4-16-1012 empty 0 0 0 14 #ffffff #ffffff 0;
#X obj 69 209 cnv 2 4 4 empty p5-16-1012 empty 0 0 0 14 #ffffff #ffffff 0;
#X obj 81 209 cnv 2 4 4 empty p6-16-1012 empty 0 0 0 14 #ffffff #ffffff 0;
#X obj 94 209 cnv 2 4 4 empty p7-16-1012 empty 0 0 0 14 #ffffff #ffffff 0;
#X obj 107 209 cnv 2 4 4 empty p8-16-1012 empty 0 0 0 14 #ffffff #ffffff 0;
#X obj 120 209 cnv 2 4 4 empty p9-16-1012 empty 0 0 0 14 #ffffff #ffffff 0;
#X obj 133 209 cnv 2 4 4 empty p10-16-1012 empty 0 0 0 14 #ffffff #ffffff 0;
#X obj 145 209 cnv 2 4 4 empty p11-16-1012 empty 0 0 0 14 #ffffff #ffffff 0;
#X obj 158 209 cnv 2 4 4 empty p12-16-1012 empty 0 0 0 14 #ffffff #ffffff 0;
#X obj 171 209 cnv 2 4 4 empty p13-16-1012 empty 0 0 0 14 #ffffff #ffffff 0;
#X obj 184 209 cnv 2 4 4 empty p14-16-1012 empty 0 0 0 14 #ffffff #ffffff 0;
#X obj 197 209 cnv 2 4 4 empty p15-16-1012 empty 0 0 0 14 #ffffff #ffffff 0;
#X obj 209 209 cnv 2 4 4 empty p16-16-1012 empty 0 0 0 14 #ffffff #ffffff 0;
#X obj 222 209 cnv 2 4 4 empty p17-16-1012 empty 0 0 0 14 #ffffff #ffffff 0;
#X obj 235 209 cnv 2 4 4 empty p18-16-1012 empty 0 0 0 14 #ffffff #ffffff 0;
#X obj 248 209 cnv 2 4 4 empty p19-16-1012 empty 0 0 0 14 #ffffff #ffffff 0;
#X obj 5 222 cnv 2 4 4 empty p0-17-1012 empty 0 0 0 14 #ffffff #ffffff 0;
#X obj 17 222 cnv 2 4 4 empty p1-17-1012 empty 0 0 0 14 #ffffff #ffffff 0;
#X obj 30 222 cnv 2 4 4 empty p2-17-1012 empty 0 0 0 14 #ffffff #ffffff 0;
#X obj 43 222 cnv 2 4 4 empty p3-17-1012 empty 0 0 0 14 #ffffff #ffffff 0;
#X obj 56 222 cnv 2 4 4 empty p4-17-1012 empty 0 0 0 14 #ffffff #ffffff 0;
#X obj 69 222 cnv 2 4 4 empty p5-17-1012 empty 0 0 0 14 #ffffff #ffffff 0;
#X obj 81 222 cnv 2 4 4 empty p6-17-1012 empty 0 0 0 14 #ffffff #ffffff 0;
#X obj 94 222 cnv 2 4 4 empty p7-17-1012 empty 0 0 0 14 #ffffff #ffffff 0;
#X obj 107 222 cnv 2 4 4 empty p8-17-1012 empty 0 0 0 14 #ffffff #ffffff 0;
#X obj 120 222 cnv 2 4 4 empty p9-17-1012 empty 0 0 0 14 #ffffff #ffffff 0;
#X obj 133 222 cnv 2 4 4 empty p10-17-1012 empty 0 0 0 14 #ffffff #ffffff 0;
#X obj 145 222 cnv 2 4 4 empty p11-17-1012 empty 0 0 0 14 #ffffff #ffffff 0;
#X obj 158 222 cnv 2 4 4 empty p12-17-1012 empty 0 0 0 14 #ffffff #ffffff 0;
#X obj 171 222 cnv 2 4 4 empty p13-17-1012 empty 0 0 0 14 #ffffff #ffffff 0;
#X obj 184 222 cnv 2 4 4 empty p14-17-1012 empty 0 0 0 14 #ffffff #ffffff 0;
#X obj 197 222 cnv 2 4 4 empty p15-17-1012 empty 0 0 0 14 #ffffff #ffffff 0;
#X obj 209 222 cnv 2 4 4 empty p16-17-1012 empty 0 0 0 14 #ffffff #ffffff 0;
#X obj 222 222 cnv 2 4 4 empty p17-17-1012 empty 0 0 0 14 #ffffff #ffffff 0;
#X obj 235 222 cnv 2 4 4 empty p18-17-1012 empty 0 0 0 14 #ffffff #ffffff 0;
#X obj 248 222 cnv 2 4 4 empty p19-17-1012 empty 0 0 0 14 #ffffff #ffffff 0;
#X obj 5 235 cnv 2 4 4 empty p0-18-1012 empty 0 0 0 14 #ffffff #ffffff 0;
#X obj 17 235 cnv 2 4 4 empty p1-18-1012 empty 0 0 0 14 #ffffff #ffffff 0;
#X obj 30 235 cnv 2 4 4 empty p2-18-1012 empty 0 0 0 14 #ffffff #ffffff 0;
#X obj 43 235 cnv 2 4 4 empty p3-18-1012 empty 0 0 0 14 #ffffff #ffffff 0;
#X obj 56 235 cnv 2 4 4 empty p4-18-1012 empty 0 0 0 14 #ffffff #ffffff 0;
#X obj 69 235 cnv 2 4 4 empty p5-18-1012 empty 0 0 0 14 #ffffff #ffffff 0;
#X obj 81 235 cnv 2 4 4 empty p6-18-1012 empty 0 0 0 14 #ffffff #ffffff 0;
#X obj 94 235 cnv 2 4 4 empty p7-18-1012 empty 0 0 0 14 #ffffff #ffffff 0;
#X obj 107 235 cnv 2 4 4 empty p8-18-1012 empty 0 0 0 14 #ffffff #ffffff 0;
#X obj 120 235 cnv 2 4 4 empty p9-18-1012 empty 0 0 0 14 #ffffff #ffffff 0;
#X obj 133 235 cnv 2 4 4 empty p10-18-1012 empty 0 0 0 14 #ffffff #ffffff 0;
#X obj 145 235 cnv 2 4 4 empty p11-18-1012 empty 0 0 0 14 #ffffff #ffffff 0;
#X obj 158 235 cnv 2 4 4 empty p12-18-1012 empty 0 0 0 14 #ffffff #ffffff 0;
#X obj 171 235 cnv 2 4 4 empty p13-18-1012 empty 0 0 0 14 #ffffff #ffffff 0;
#X obj 184 235 cnv 2 4 4 empty p14-18-1012 empty 0 0 0 14 #ffffff #ffffff 0;
#X obj 197 235 cnv 2 4 4 empty p15-18-1012 empty 0 0 0 14 #ffffff #ffffff 0;
#X obj 209 235 cnv 2 4 4 empty p16-18-1012 empty 0 0 0 14 #ffffff #ffffff 0;
#X obj 222 235 cnv 2 4 4 empty p17-18-1012 empty 0 0 0 14 #ffffff #ffffff 0;
#X obj 235 235 cnv 2 4 4 empty p18-18-1012 empty 0 0 0 14 #ffffff #ffffff 0;
#X obj 248 235 cnv 2 4 4 empty p19-18-1012 empty 0 0 0 14 #ffffff #ffffff 0;
#X obj 5 248 cnv 2 4 4 empty p0-19-1012 empty 0 0 0 14 #ffffff #ffffff 0;
#X obj 17 248 cnv 2 4 4 empty p1-19-1012 empty 0 0 0 14 #ffffff #ffffff 0;
#X obj 30 248 cnv 2 4 4 empty p2-19-1012 empty 0 0 0 14 #ffffff #ffffff 0;
#X obj 43 248 cnv 2 4 4 empty p3-19-1012 empty 0 0 0 14 #ffffff #ffffff 0;
#X obj 56 248 cnv 2 4 4 empty p4-19-1012 empty 0 0 0 14 #ffffff #ffffff 0;
#X obj 69 248 cnv 2 4 4 empty p5-19-1012 empty 0 0 0 14 #ffffff #ffffff 0;
#X obj 81 248 cnv 2 4 4 empty p6-19-1012 empty 0 0 0 14 #ffffff #ffffff 0;
#X obj 94 248 cnv 2 4 4 empty p7-19-1012 empty 0 0 0 14 #ffffff #ffffff 0;
#X obj 107 248 cnv 2 4 4 empty p8-19-1012 empty 0 0 0 14 #ffffff #ffffff 0;
#X obj 120 248 cnv 2 4 4 empty p9-19-1012 empty 0 0 0 14 #ffffff #ffffff 0;
#X obj 133 248 cnv 2 4 4 empty p10-19-1012 empty 0 0 0 14 #ffffff #ffffff 0;
#X obj 145 248 cnv 2 4 4 empty p11-19-1012 empty 0 0 0 14 #ffffff #ffffff 0;
#X obj 158 248 cnv 2 4 4 empty p12-19-1012 empty 0 0 0 14 #ffffff #ffffff 0;
#X obj 171 248 cnv 2 4 4 empty p13-19-1012 empty 0 0 0 14 #ffffff #ffffff 0;
#X obj 184 248 cnv 2 4 4 empty p14-19-1012 empty 0 0 0 14 #ffffff #ffffff 0;
#X obj 197 248 cnv 2 4 4 empty p15-19-1012 empty 0 0 0 14 #ffffff #ffffff 0;
#X obj 209 248 cnv 2 4 4 empty p16-19-1012 empty 0 0 0 14 #ffffff #ffffff 0;
#X obj 222 248 cnv 2 4 4 empty p17-19-1012 empty 0 0 0 14 #ffffff #ffffff 0;
#X obj 235 248 cnv 2 4 4 empty p18-19-1012 empty 0 0 0 14 #ffffff #ffffff 0;
#X obj 248 248 cnv 2 4 4 empty p19-19-1012 empty 0 0 0 14 #ffffff #ffffff 0;
#X coords 0 0 1 1 258 258 2 0 0;
#X restore 0 0 pd graph\$0;
#N canvas 0 50 532 468 construct 1;
#X msg 449 369 clear;
#X obj 39 409 s pd-graph\$0;
#X msg 39 359 obj \$4 \$5 cnv 2 \$6 \$7 empty p\$2-\$3-\$1 empty 0 0 0 14 #ffffff #ffffff 0, f 36;
#X obj 39 100 loop;
#N canvas 0 50 450 300 #-of-points 1;
#X obj 59 29 r nX_\$0;
#X obj 129 29 r nY_\$0;
#X obj 79 79 t b f;
#X obj 59 129 *;
#X obj 59 229 outlet;
#X obj 59 179 max 1;
#X connect 0 0 3 0 empty;
#X connect 1 0 2 0 empty;
#X connect 2 0 3 0 empty;
#X connect 2 1 3 1 empty;
#X connect 3 0 5 0 empty;
#X connect 5 0 4 0 empty;
#X restore 79 99 pd #-of-points;
#X obj 39 129 t b f;
#X obj 39 59 t b b;
#X obj 39 29 r update_\$0;
#X obj 39 329 pack \$0 f f 2 2 2 2;
#X obj 259 289 r pointW_\$0;
#X obj 349 289 r pointH_\$0;
#X text 369 158 x index;
#X text 369 178 y index;
#X text 369 198 x pos;
#X text 369 218 y pos;
#X obj 55 159 expr $f1 % nX_\$0 \; int($f1 / nX_\$0) \; ($f1 % nX_\$0) * (width_\$0 / nX_\$0) + offsetX_\$0 \; int($f1 / nX_\$0) * (height_\$0 / nY_\$0) + offsetY_\$0 \;;
#X connect 0 0 1 0 32.................N....bq+++uC....25+++SA....;
#X connect 2 0 1 0 empty;
#X connect 3 0 5 0 empty;
#X connect 4 0 3 1 empty;
#X connect 5 0 8 0 empty;
#X connect 5 1 15 0 empty;
#X connect 6 0 3 0 empty;
#X connect 6 1 0 0 32.................I....rS...PB....6D...HR....;
#X connect 7 0 6 0 empty;
#X connect 8 0 2 0 empty;
#X connect 9 0 8 5 empty;
#X connect 10 0 8 6 empty;
#X connect 15 0 8 1 empty;
#X connect 15 1 8 2 empty;
#X connect 15 2 8 3 empty;
#X connect 15 3 8 4 empty;
#X restore 279 79 pd construct;
#X obj 279 139 namecanvas abs\$0;
#N canvas 0 50 450 300 color 1;
#X obj 129 219 s;
#X msg 199 179 symbol p\$1-\$2-\$3;
#X obj 199 149 pack f f \$0;
#X msg 129 179 color \$1;
#X obj 129 39 inlet;
#X msg 129 69 \$3 \$1 \$2;
#X obj 129 99 unpack s f f;
#X text 199 68 we wanna unpack the symbol last;
#X connect 1 0 0 1 empty;
#X connect 2 0 1 0 empty;
#X connect 3 0 0 0 empty;
#X connect 4 0 5 0 empty;
#X connect 5 0 6 0 empty;
#X connect 6 0 3 0 empty;
#X connect 6 1 2 0 empty;
#X connect 6 2 2 1 empty;
#X restore 369 49 pd color;
#X obj 279 19 inlet;
#N canvas 0 50 450 300 methods 1;
#X obj 29 179 savestate;
#X obj 257 49 inlet;
#X obj 257 79 route bang width height nx ny pw ph xoff yoff, f 40;
#X obj 109 179 pack f 256 256 16 16 4 4 4 4;
#X obj 319 429 s nX_\$0;
#X obj 389 429 s nY_\$0;
#X obj 409 399 v nY_\$0;
#X obj 339 399 v nX_\$0;
#X obj 29 359 s update_\$0;
#X obj 569 429 v offsetX_\$0;
#X obj 589 399 v offsetY_\$0;
#X obj 496 399 s pointH_\$0;
#X obj 479 429 s pointW_\$0;
#X obj 219 429 s height_\$0;
#X obj 239 399 v height_\$0;
#X obj 149 399 v width_\$0;
#X obj 129 429 s width_\$0;
#X obj 29 239 unpack f f f f f f f f f;
#X obj 519 209 loadbang;
#X obj 519 239 t b b b b b b b b b;
#X obj 599 349 4;
#X obj 559 349 4;
#X obj 519 349 4;
#X obj 479 349 4;
#X obj 389 359 16;
#X obj 319 359 16;
#X obj 219 359 256;
#X obj 129 359 256;
#X text 589 218 creation;
#X text 69 218 saved state;
#X text 317 58 methods;
#X text 269 238 may you have deep thoughts;
#X connect 0 0 17 0 empty;
#X connect 0 1 3 0 empty;
#X connect 1 0 2 0 empty;
#X connect 2 0 8 0 empty;
#X connect 2 1 27 0 empty;
#X connect 2 1 3 1 empty;
#X connect 2 2 26 0 empty;
#X connect 2 2 3 2 empty;
#X connect 2 3 25 0 empty;
#X connect 2 3 3 3 empty;
#X connect 2 4 24 0 empty;
#X connect 2 4 3 4 empty;
#X connect 2 5 23 0 empty;
#X connect 2 5 3 5 empty;
#X connect 2 6 22 0 empty;
#X connect 2 6 3 6 empty;
#X connect 2 7 21 0 empty;
#X connect 2 7 3 7 empty;
#X connect 2 8 20 0 empty;
#X connect 2 8 3 8 empty;
#X connect 3 0 0 0 empty;
#X connect 17 0 8 0 empty;
#X connect 17 1 27 0 empty;
#X connect 17 2 26 0 empty;
#X connect 17 3 25 0 empty;
#X connect 17 4 24 0 empty;
#X connect 17 5 23 0 empty;
#X connect 17 6 22 0 empty;
#X connect 17 7 21 0 empty;
#X connect 17 8 20 0 empty;
#X connect 18 0 19 0 empty;
#X connect 19 0 8 0 empty;
#X connect 19 1 27 0 empty;
#X connect 19 2 26 0 empty;
#X connect 19 3 25 0 empty;
#X connect 19 4 24 0 empty;
#X connect 19 5 23 0 empty;
#X connect 19 6 22 0 empty;
#X connect 19 7 21 0 empty;
#X connect 19 8 20 0 empty;
#X connect 20 0 10 0 empty;
#X connect 21 0 9 0 empty;
#X connect 22 0 11 0 empty;
#X connect 23 0 12 0 empty;
#X connect 24 0 6 0 empty;
#X connect 24 0 5 0 empty;
#X connect 25 0 7 0 empty;
#X connect 25 0 4 0 empty;
#X connect 26 0 13 0 empty;
#X connect 26 0 14 0 empty;
#X connect 27 0 16 0 empty;
#X connect 27 0 15 0 empty;
#X restore 279 49 pd methods;
#X text 279 188 amy universe \; github.com/tomara-x;
#X obj 369 19 inlet;
#X connect 6 0 7 0 empty;
#X connect 9 0 5 0 empty;
#X coords 0 0 1 1 258 258 2 0 0;
