#N canvas 827 239 700 500 12;
#X obj 19 219 trail;
#A saved 0 256 256 22 22 8 8 3 3;
#X obj 19 39 bng 25 250 50 0 empty empty empty 17 7 0 10 #191919 #ffffff #ffffff;
#X msg 179 49 nx \$1;
#X msg 229 49 ny \$1;
#X msg 280 49 pw \$1;
#X msg 334 49 ph \$1;
#X msg 385 49 xoff \$1;
#X msg 444 49 yoff \$1;
#X obj 49 19 nbx 4 18 0 1e+37 0 1 empty empty empty 0 -8 0 10 #191919 #ffffff #ffffff 256 256;
#X obj 179 19 nbx 4 18 0 1e+37 0 1 empty empty empty 0 -8 0 10 #191919 #ffffff #ffffff 22 256;
#X obj 229 19 nbx 4 18 0 1e+37 0 1 empty empty empty 0 -8 0 10 #191919 #ffffff #ffffff 22 256;
#X obj 280 19 nbx 4 18 0 1e+37 0 1 empty empty empty 0 -8 0 10 #191919 #ffffff #ffffff 8 256;
#X obj 334 19 nbx 4 18 0 1e+37 0 1 empty empty empty 0 -8 0 10 #191919 #ffffff #ffffff 8 256;
#X obj 385 19 nbx 4 18 -1e+37 1e+37 0 1 empty empty empty 0 -8 0 10 #191919 #ffffff #ffffff 3 256;
#X obj 444 19 nbx 4 18 -1e+37 1e+37 0 1 empty empty empty 0 -8 0 10 #191919 #ffffff #ffffff 3 256;
#X obj 309 306 t b f;
#X obj 329 349 loop;
#X obj 309 276 loop;
#X obj 439 149 nbx 4 18 -1e+37 1e+37 0 0 empty empty empty 0 -8 0 10 #191919 #ffffff #ffffff 0 256;
#X obj 493 149 nbx 4 18 -1e+37 1e+37 0 0 empty empty empty 0 -8 0 10 #191919 #ffffff #ffffff 0 256;
#X msg 536 89 #ffacab;
#X msg 554 112 #5acafa;
#X obj 459 179 pack2 f f #ffffff;
#X msg 572 135 #ffffff;
#X msg 329 409 \$1 \$2 \$3;
#X obj 329 379 pack2 f f #ffffff;
#X msg 370 349 set \$1;
#X msg 49 49 width \$1 \, height \$1;
#X msg 569 169 #191919;
#X obj 343 239 nbx 4 18 1 1e+37 0 1 empty empty empty 0 -8 0 10 #191919 #ffffff #ffffff 22 256;
#X obj 309 239 bng 25 250 50 0 empty empty empty 17 7 0 10 #191919 #ffffff #ffffff;
#X msg 439 349 #ffacab;
#X msg 439 319 #5acafa;
#X msg 509 319 #191919;
#X msg 509 349 #ffffff;
#X obj 459 259 text insert colors;
#X obj 549 19 text define -k colors;
#A set;
#X obj 459 229 list store;
#X obj 419 219 bng 25 250 50 0 empty empty empty 17 7 0 10 #191919 #ffffff #ffffff;
#X obj 253 173 text sequence colors;
#X obj 253 111 lb 2;
#X msg 271 143 line 0;
#X connect 1 0 0 0 empty;
#X connect 2 0 0 0 32.................O....Lz++++C....C8+++CE....;
#X connect 3 0 0 0 32.................O....bv++++C....G7+++CE....;
#X connect 4 0 0 0 32.................O....rr++++C....K6+++CE....;
#X connect 5 0 0 0 32.................O....7n++++C....O5+++CE....;
#X connect 6 0 0 0 32.................O....Lk++++C....S4+++CE....;
#X connect 7 0 0 0 32.................O....bg++++C....W3+++CE....;
#X connect 8 0 27 0 empty;
#X connect 9 0 2 0 empty;
#X connect 10 0 3 0 empty;
#X connect 11 0 4 0 empty;
#X connect 12 0 5 0 empty;
#X connect 13 0 6 0 empty;
#X connect 14 0 7 0 empty;
#X connect 15 0 16 0 empty;
#X connect 15 1 26 0 empty;
#X connect 16 0 25 0 empty;
#X connect 17 0 15 0 empty;
#X connect 18 0 22 0 empty;
#X connect 19 0 22 1 empty;
#X connect 20 0 22 2 empty;
#X connect 21 0 22 2 empty;
#X connect 22 0 37 1 empty;
#X connect 22 0 0 1 32.................I....Ly+++eB....y7+++SA....;
#X connect 23 0 22 2 empty;
#X connect 24 0 0 1 48.................K....X8++++B....V++++Sx+++es++++j7+++W6++++K++++;
#X connect 25 0 24 0 empty;
#X connect 26 0 25 1 empty;
#X connect 27 0 0 0 32.................O....j8++++C....Y++++CE....;
#X connect 28 0 22 2 empty;
#X connect 29 0 17 1 empty;
#X connect 29 0 16 1 empty;
#X connect 30 0 17 0 empty;
#X connect 31 0 25 2 empty;
#X connect 32 0 25 2 empty;
#X connect 33 0 25 2 empty;
#X connect 34 0 25 2 empty;
#X connect 37 0 35 0 empty;
#X connect 38 0 37 0 empty;
#X connect 39 0 0 1 empty;
#X connect 40 0 39 0 empty;
#X connect 40 1 41 0 empty;
#X connect 41 0 39 0 empty;
