#N canvas 827 239 139 139 12;
#X obj 0 0 cnv 15 258 258 empty bg_\$0 empty 20 12 0 14 #191919 #ffffff 0;
#N canvas 0 50 450 300 resize 1;
#X obj 179 39 r height_\$0;
#X obj 179 99 + 2;
#X obj 329 209 s bg_\$0;
#X obj 179 209 s pd-graph\$0;
#X msg 19 169 coords 0 0 1 1 \$1 \$1 2;
#X msg 179 169 coords 0 0 1 1 \$1 \$1 2;
#X msg 329 169 vis_size \$1 \$1;
#X obj 19 209 s abs\$0;
#X connect 0 0 1 0 empty;
#X connect 1 0 5 0 empty;
#X connect 1 0 4 0 empty;
#X connect 1 0 6 0 empty;
#X connect 4 0 7 0 empty;
#X connect 5 0 3 0 empty;
#X connect 6 0 2 0 empty;
#X restore 279 219 pd resize;
#X obj 9 -51 s height_\$0;
#N canvas 0 50 450 300 center 1;
#X text 59 318 Waste your days counting what you've got left \; What you should have had \, and what you'll never get back \; Only a fool would live their life like that;
#X obj 109 49 r height_\$0;
#X obj 109 89 + 2;
#X obj 109 129 / 2;
#X obj 109 179 s center_\$0;
#X connect 1 0 2 0 empty;
#X connect 2 0 3 0 empty;
#X connect 3 0 4 0 empty;
#X restore 529 59 pd center;
#X obj 9 -111 inlet;
#N canvas 0 50 450 300 graph\$0 1;
#X obj 7 7 cnv 2 15 15 empty p0-0-1010 empty 0 0 0 14 #ffffff #ffffff 0;
#X obj 58 7 cnv 2 15 15 empty p1-0-1010 empty 0 0 0 14 #ffffff #ffffff 0;
#X obj 109 7 cnv 2 15 15 empty p2-0-1010 empty 0 0 0 14 #ffffff #ffffff 0;
#X obj 160 7 cnv 2 15 15 empty p3-0-1010 empty 0 0 0 14 #ffffff #ffffff 0;
#X obj 211 7 cnv 2 15 15 empty p4-0-1010 empty 0 0 0 14 #ffffff #ffffff 0;
#X obj 7 49 cnv 2 15 15 empty p0-1-1010 empty 0 0 0 14 #ffffff #ffffff 0;
#X obj 58 49 cnv 2 15 15 empty p1-1-1010 empty 0 0 0 14 #ffacab #ffffff 0;
#X obj 109 49 cnv 2 15 15 empty p2-1-1010 empty 0 0 0 14 #ffffff #ffffff 0;
#X obj 160 49 cnv 2 15 15 empty p3-1-1010 empty 0 0 0 14 #ffffff #ffffff 0;
#X obj 211 49 cnv 2 15 15 empty p4-1-1010 empty 0 0 0 14 #ffffff #ffffff 0;
#X obj 7 92 cnv 2 15 15 empty p0-2-1010 empty 0 0 0 14 #ffffff #ffffff 0;
#X obj 58 92 cnv 2 15 15 empty p1-2-1010 empty 0 0 0 14 #ffffff #ffffff 0;
#X obj 109 92 cnv 2 15 15 empty p2-2-1010 empty 0 0 0 14 #ffffff #ffffff 0;
#X obj 160 92 cnv 2 15 15 empty p3-2-1010 empty 0 0 0 14 #ffffff #ffffff 0;
#X obj 211 92 cnv 2 15 15 empty p4-2-1010 empty 0 0 0 14 #ffffff #ffffff 0;
#X obj 7 135 cnv 2 15 15 empty p0-3-1010 empty 0 0 0 14 #ffffff #ffffff 0;
#X obj 58 135 cnv 2 15 15 empty p1-3-1010 empty 0 0 0 14 #ffffff #ffffff 0;
#X obj 109 135 cnv 2 15 15 empty p2-3-1010 empty 0 0 0 14 #ffffff #ffffff 0;
#X obj 160 135 cnv 2 15 15 empty p3-3-1010 empty 0 0 0 14 #ffffff #ffffff 0;
#X obj 211 135 cnv 2 15 15 empty p4-3-1010 empty 0 0 0 14 #ffffff #ffffff 0;
#X obj 7 177 cnv 2 15 15 empty p0-4-1010 empty 0 0 0 14 #ffffff #ffffff 0;
#X obj 58 177 cnv 2 15 15 empty p1-4-1010 empty 0 0 0 14 #ffffff #ffffff 0;
#X obj 109 177 cnv 2 15 15 empty p2-4-1010 empty 0 0 0 14 #ffffff #ffffff 0;
#X obj 160 177 cnv 2 15 15 empty p3-4-1010 empty 0 0 0 14 #ffffff #ffffff 0;
#X obj 211 177 cnv 2 15 15 empty p4-4-1010 empty 0 0 0 14 #ffffff #ffffff 0;
#X obj 7 220 cnv 2 15 15 empty p0-5-1010 empty 0 0 0 14 #ffffff #ffffff 0;
#X obj 58 220 cnv 2 15 15 empty p1-5-1010 empty 0 0 0 14 #ffffff #ffffff 0;
#X obj 109 220 cnv 2 15 15 empty p2-5-1010 empty 0 0 0 14 #ffffff #ffffff 0;
#X obj 160 220 cnv 2 15 15 empty p3-5-1010 empty 0 0 0 14 #ffffff #ffffff 0;
#X obj 211 220 cnv 2 15 15 empty p4-5-1010 empty 0 0 0 14 #ffffff #ffffff 0;
#X coords 0 0 1 1 258 258 2 0 0;
#X restore 0 0 pd graph\$0;
#N canvas 0 50 450 300 polar 1;
#X msg 237 329 pos \$1 \$2;
#X obj 229 198 pol2car;
#X obj 237 299 pack2;
#X obj 229 119 nbx 4 18 -1e+37 1e+37 0 0 empty empty empty 0 -8 0 10 #191919 #ffffff #ffffff 0 256;
#X obj 279 59 nbx 4 18 -1e+37 1e+37 0 0 empty empty empty 0 -8 0 10 #191919 #ffffff #ffffff 0 256;
#X obj 278 154 t b f;
#X obj 219 249 +;
#X obj 230 223 r centerX_\$0;
#X obj 261 272 +;
#X obj 272 246 r centerY_\$0;
#X obj 239 369 s;
#X obj 369 269 count 0 100;
#X msg 369 229 max \$1;
#X obj 279 89 pipe 250;
#X obj 369 199 r n_\$0;
#X obj 279 119 t f b;
#X msg 369 329 symbol p\$1\$2;
#X obj 369 299 pack f \$0;
#X obj 90 149 nbx 4 18 -1e+37 1e+37 0 0 empty empty empty 0 -8 0 10 #191919 #ffffff #ffffff 0 256;
#X msg 90 179 vis_size \$1 \$1;
#X connect 0 0 10 0 empty;
#X connect 1 0 6 0 empty;
#X connect 1 1 8 0 empty;
#X connect 2 0 0 0 empty;
#X connect 3 0 1 0 empty;
#X connect 4 0 13 0 empty;
#X connect 5 0 1 0 empty;
#X connect 5 1 1 1 empty;
#X connect 6 0 2 0 empty;
#X connect 7 0 6 1 empty;
#X connect 8 0 2 1 empty;
#X connect 9 0 8 1 empty;
#X connect 11 0 17 0 empty;
#X connect 12 0 11 0 empty;
#X connect 13 0 15 0 empty;
#X connect 14 0 12 0 empty;
#X connect 15 0 5 0 empty;
#X connect 15 1 11 0 empty;
#X connect 16 0 10 1 empty;
#X connect 17 0 16 0 empty;
#X connect 18 0 19 0 empty;
#X restore 529 99 pd polar;
#X obj 119 -51 s nX_\$0;
#X obj 209 -51 s nY_\$0;
#X obj 119 -151 inlet;
#X obj 209 -151 inlet;
#N canvas 0 50 532 468 construct 1;
#X msg 449 369 clear;
#X obj 39 409 s pd-graph\$0;
#X msg 39 359 obj \$4 \$5 cnv 2 \$6 \$7 empty p\$2-\$3-\$1 empty 0 0 0 14 #ffffff #ffffff 0, f 36;
#X obj 39 100 loop;
#N canvas 0 50 450 300 #-of-points 1;
#X obj 59 29 r nX_\$0;
#X obj 129 29 r nY_\$0;
#X obj 79 79 t b f;
#X obj 59 129 *;
#X obj 59 229 outlet;
#X obj 59 179 max 1;
#X connect 0 0 3 0 empty;
#X connect 1 0 2 0 empty;
#X connect 2 0 3 0 empty;
#X connect 2 1 3 1 empty;
#X connect 3 0 5 0 empty;
#X connect 5 0 4 0 empty;
#X restore 79 99 pd #-of-points;
#X obj 39 129 t b f;
#X obj 39 59 t b b;
#X obj 39 29 r update_\$0;
#X obj 39 329 pack \$0 f f 2 2 2 2;
#X obj 55 159 expr $f1 % nX_\$0 \; int($f1/nX_\$0) \; ($f1 % nX_\$0) * (height_\$0 / nX_\$0) + offsetX_\$0 \; int($f1/nX_\$0) * (height_\$0 / nY_\$0) + offsetY_\$0 \;;
#X obj 209 289 r pointW_\$0;
#X obj 329 289 r pointH_\$0;
#X connect 0 0 1 0 32.................N....bq+++uC....25+++SA....;
#X connect 2 0 1 0 empty;
#X connect 3 0 5 0 empty;
#X connect 4 0 3 1 empty;
#X connect 5 0 8 0 empty;
#X connect 5 1 9 0 empty;
#X connect 6 0 3 0 empty;
#X connect 6 1 0 0 32.................I....rS...PB....6D...HR....;
#X connect 7 0 6 0 empty;
#X connect 8 0 2 0 empty;
#X connect 9 0 8 1 empty;
#X connect 9 1 8 2 empty;
#X connect 9 2 8 3 empty;
#X connect 9 3 8 4 empty;
#X connect 10 0 8 5 empty;
#X connect 11 0 8 6 empty;
#X restore 279 189 pd construct;
#X obj 279 249 namecanvas abs\$0;
#X obj 119 -121 nbx 4 18 -1e+37 1e+37 0 0 empty empty empty 0 -8 0 10 #191919 #ffffff #ffffff 0 256;
#X obj 209 -121 nbx 4 18 -1e+37 1e+37 0 0 empty empty empty 0 -8 0 10 #191919 #ffffff #ffffff 0 256;
#X obj 229 -81 v nY_\$0;
#X obj 139 -81 v nX_\$0;
#X obj 29 -81 v height_\$0;
#X obj 309 -51 s update_\$0;
#X obj 309 -91 bng 25 250 50 0 empty empty empty 17 7 0 10 #191919 #ffffff #ffffff;
#X obj 409 -121 nbx 4 18 -1e+37 1e+37 0 0 empty empty empty 0 -8 0 10 #191919 #ffffff #ffffff 0 256;
#X obj 469 -121 nbx 4 18 -1e+37 1e+37 0 0 empty empty empty 0 -8 0 10 #191919 #ffffff #ffffff 0 256;
#X obj 549 -121 nbx 4 18 -1e+37 1e+37 0 0 empty empty empty 0 -8 0 10 #191919 #ffffff #ffffff 0 256;
#X obj 599 -121 nbx 4 18 -1e+37 1e+37 0 0 empty empty empty 0 -8 0 10 #191919 #ffffff #ffffff 0 256;
#X obj 569 -81 v offsetX_\$0;
#X obj 549 -51 v offsetY_\$0;
#X obj 439 -81 s pointH_\$0;
#X obj 409 -51 s pointW_\$0;
#N canvas 0 50 450 300 color 1;
#X obj 139 199 s;
#X msg 209 159 symbol p\$1-\$2-\$3;
#X obj 209 129 pack f f \$0;
#X msg 139 159 color \$1;
#X obj 169 79 nbx 4 21 -1e+37 1e+37 0 0 empty empty empty 0 -8 0 10 #191919 #ffffff #ffffff 0 256;
#X obj 223 79 nbx 4 21 -1e+37 1e+37 0 0 empty empty empty 0 -8 0 10 #191919 #ffffff #ffffff 0 256;
#X msg 39 119 symbol #ffacab;
#X msg 49 89 symbol #5acafa;
#X text 172 56 x;
#X text 232 55 y;
#X connect 1 0 0 1 empty;
#X connect 2 0 1 0 empty;
#X connect 3 0 0 0 empty;
#X connect 4 0 2 0 empty;
#X connect 5 0 2 1 empty;
#X connect 6 0 3 0 empty;
#X connect 7 0 3 0 empty;
#X restore 279 159 pd color;
#X connect 4 0 2 0 empty;
#X connect 4 0 17 0 empty;
#X connect 9 0 13 0 empty;
#X connect 10 0 14 0 empty;
#X connect 13 0 7 0 empty;
#X connect 13 0 16 0 empty;
#X connect 14 0 8 0 empty;
#X connect 14 0 15 0 empty;
#X connect 19 0 18 0 empty;
#X connect 20 0 27 0 empty;
#X connect 21 0 26 0 empty;
#X connect 22 0 25 0 empty;
#X connect 23 0 24 0 empty;
#X coords 0 0 1 1 258 258 2 0 0;
