#N canvas 827 239 527 327 12;
#X obj 33 118 nbx 4 18 -1e+37 1e+37 0 0 empty empty empty 0 -8 0 10 #191919 #ffffff #ffffff 0 256;
#X obj 88 121 nbx 4 18 -1e+37 1e+37 0 0 empty empty empty 0 -8 0 10 #191919 #ffffff #ffffff 0 256;
#X obj 39 179 pack2;
#X obj 38 261 s pd-cat;
#X msg 39 209 coords 0 -1 100 1 \$1 \$2 2;
#N canvas 0 50 450 300 hi 1;
#N canvas 0 50 450 300 cat 0;
#X array cat 100 float 2;
#X coords 0 -1 100 1 425 238 1;
#X restore -1 -1 pd cat;
#X coords 0 -1 100 1 425 238 1;
#X restore 269 119 pd hi;
#X obj 129 259 s pd-hi;
#X connect 0 0 2 0 empty;
#X connect 1 0 2 1 empty;
#X connect 2 0 4 0 empty;
#X connect 4 0 3 0 empty;
#X connect 4 0 6 0 empty;
