#N canvas 827 239 710 540 12;
#X obj 239 59 phasor~;
#X obj 239 29 nbx 4 18 -1e+37 1e+37 0 1 empty empty empty 0 -8 0 10 #191919 #d4d4d4 #d4d4d4 46 256;
#X obj 310 159 nbx 4 18 -1e+37 1e+37 0 1 empty empty empty 0 -8 0 10 #191919 #d4d4d4 #d4d4d4 72 256;
#X obj 169 379 oscope~ 421 130 2 3 256 -1 1 0 0 0 0 212 212 212 25 25 25 96 96 96 0 empty;
#X obj 240 189 pow~ 2;
#X obj 240 219 *~ -1;
#X obj 240 249 /~ 2;
#X obj 169 329 *~;
#X obj 299 189 *~;
#X obj 239 89 *~ 2;
#X obj 239 119 -~ 1;
#X obj 239 149 *~ 4;
#X obj 289 119 nbx 4 18 3 1e+37 0 1 empty empty empty 0 -8 0 10 #191919 #d4d4d4 #d4d4d4 5 256;
#X text 299 28 speed;
#X obj 599 392 dac~;
#X obj 599 359 *~;
#X obj 610 330 nbx 4 18 -1e+37 1e+37 0 1 empty empty empty 0 -8 0 10 #191919 #d4d4d4 #d4d4d4 0.11 256;
#X text 338 119 squish;
#X obj 169 289 pow~;
#X msg 169 249 2.71828;
#X text 359 158 freq multiplier thingy;
#X obj 169 219 loadbang;
#X obj 219 329 *~;
#X obj 29 379 oscope~ 130 130 2 3 256 -1 1 0 0 0 0 212 212 212 25 25 25 96 96 96 0 empty;
#X obj 299 219 expr~ cos($v1) \; sin($v1);
#X text 129 328 real;
#X text 259 328 imag;
#X connect 0 0 9 0;
#X connect 1 0 0 0;
#X connect 2 0 8 1;
#X connect 4 0 5 0;
#X connect 5 0 6 0;
#X connect 6 0 18 1 32.................J.....8+++uB....P++++SA....;
#X connect 7 0 3 0;
#X connect 7 0 23 0;
#X connect 7 0 15 0 32.................E....3Z...PA....tF...n.....;
#X connect 8 0 24 0;
#X connect 9 0 10 0;
#X connect 10 0 11 0;
#X connect 11 0 4 0;
#X connect 11 0 8 0 32.................L....vC....C....7....PA....;
#X connect 12 0 11 1 32.................F....z8+++uA....c++++y.....;
#X connect 15 0 14 0;
#X connect 15 0 14 1;
#X connect 16 0 15 1;
#X connect 18 0 7 0;
#X connect 18 0 22 0 32.................E....HC...PA....x....PA....;
#X connect 19 0 18 0;
#X connect 21 0 19 0;
#X connect 22 0 23 1;
#X connect 24 0 7 1 32.................9....n3+++uO....J9+++uD....;
#X connect 24 1 22 1 32.................BA...v1+++uP....r8+++uD....;
