#N canvas 827 239 710 540 12;
#X obj 239 59 phasor~;
#X obj 239 29 nbx 4 18 -1e+37 1e+37 0 1 empty empty empty 0 -8 0 10 #191919 #d4d4d4 #d4d4d4 3 256;
#X obj 310 159 nbx 4 18 -1e+37 1e+37 0 1 empty empty empty 0 -8 0 10 #191919 #d4d4d4 #d4d4d4 4 256;
#X obj 169 379 oscope~ 421 130 2 3 1024 -1 1 0 0 0 0 212 212 212 25 25 25 96 96 96 0 empty;
#X obj 240 189 pow~ 2;
#X obj 240 219 *~ -1;
#X obj 240 249 /~ 2;
#X obj 169 329 *~;
#X obj 299 219 cos~;
#X obj 299 189 *~;
#X obj 239 89 *~ 2;
#X obj 239 119 -~ 1;
#X obj 239 149 *~ 4;
#X obj 289 119 nbx 4 18 3 1e+37 0 1 empty empty empty 0 -8 0 10 #191919 #d4d4d4 #d4d4d4 25 256;
#X text 299 28 speed;
#X obj 599 392 dac~;
#X obj 599 359 *~;
#X obj 610 330 nbx 4 18 -1e+37 1e+37 0 1 empty empty empty 0 -8 0 10 #191919 #d4d4d4 #d4d4d4 0.11 256;
#X text 338 119 squish;
#X obj 169 289 pow~;
#X msg 169 249 2.71828;
#X text 359 158 freq multiplier thingy;
#X obj 169 219 loadbang;
#X obj 349 219 sin~;
#X obj 219 329 *~;
#X obj 29 379 oscope~ 130 130 2 3 1024 -1 1 0 0 0 0 212 212 212 25 25 25 96 96 96 0 empty;
#X connect 0 0 10 0;
#X connect 1 0 0 0;
#X connect 2 0 9 1;
#X connect 4 0 5 0;
#X connect 5 0 6 0;
#X connect 6 0 19 1 32.................J.....8+++uB....P++++SA....;
#X connect 7 0 3 0;
#X connect 7 0 25 0;
#X connect 7 0 16 0 32.................E....3Z...PA....tF...n.....;
#X connect 8 0 7 1 32.................PA...n3+++OT....J9+++qE....;
#X connect 9 0 8 0;
#X connect 9 0 23 0 32.................E....HC...PA....x....n.....;
#X connect 10 0 11 0;
#X connect 11 0 12 0;
#X connect 12 0 4 0;
#X connect 12 0 9 0 32.................L....vC....C....7....PA....;
#X connect 13 0 12 1 32.................F....z8+++uA....c++++y.....;
#X connect 16 0 15 0;
#X connect 16 0 15 1;
#X connect 17 0 16 1;
#X connect 19 0 7 0;
#X connect 19 0 24 0 32.................E....HC...PA....x....PA....;
#X connect 20 0 19 0;
#X connect 22 0 20 0;
#X connect 23 0 24 1 32.................TA...n3+++OU....J9+++qE....;
#X connect 24 0 25 1;
