#N canvas 827 239 692 553 12;
#X obj 249 459 dac~;
#X obj 249 389 morlet;
#X obj 149 309 morlet;
#X obj 164 242 nbx 4 18 -1e+37 1e+37 0 1 empty empty empty 0 -8 0 10 #191919 #d4d4d4 #d4d4d4 5.76553 256;
#X obj 180 262 nbx 4 18 -1e+37 1e+37 0 1 empty empty empty 0 -8 0 10 #191919 #d4d4d4 #d4d4d4 27.8959 256;
#X obj 196 283 nbx 4 18 -1e+37 1e+37 0 1 empty empty empty 0 -8 0 10 #191919 #d4d4d4 #d4d4d4 7.95889 256;
#X obj 149 220 nbx 4 18 -1e+37 1e+37 0 1 empty empty empty 0 -8 0 10 #191919 #d4d4d4 #d4d4d4 1 256;
#X obj 249 429 clip~ -1 1;
#X obj 249 309 morlet;
#X obj 264 242 nbx 4 18 -1e+37 1e+37 0 1 empty empty empty 0 -8 0 10 #191919 #d4d4d4 #d4d4d4 19.3765 256;
#X obj 280 262 nbx 4 18 -1e+37 1e+37 0 1 empty empty empty 0 -8 0 10 #191919 #d4d4d4 #d4d4d4 21.8491 256;
#X obj 296 283 nbx 4 18 -1e+37 1e+37 0 1 empty empty empty 0 -8 0 10 #191919 #d4d4d4 #d4d4d4 1.359 256;
#X obj 249 220 nbx 4 18 -1e+37 1e+37 0 1 empty empty empty 0 -8 0 10 #191919 #d4d4d4 #d4d4d4 4.91655 256;
#X obj 349 309 morlet;
#X obj 364 242 nbx 4 18 -1e+37 1e+37 0 1 empty empty empty 0 -8 0 10 #191919 #d4d4d4 #d4d4d4 28.3368 256;
#X obj 380 262 nbx 4 18 -1e+37 1e+37 0 1 empty empty empty 0 -8 0 10 #191919 #d4d4d4 #d4d4d4 9.66455 256;
#X obj 396 283 nbx 4 18 -1e+37 1e+37 0 1 empty empty empty 0 -8 0 10 #191919 #d4d4d4 #d4d4d4 7.68505 256;
#X obj 349 220 nbx 4 18 -1e+37 1e+37 0 1 empty empty empty 0 -8 0 10 #191919 #d4d4d4 #d4d4d4 11.314 256;
#X obj 459 309 morlet;
#X obj 474 242 nbx 4 18 -1e+37 1e+37 0 1 empty empty empty 0 -8 0 10 #191919 #d4d4d4 #d4d4d4 2.73974 256;
#X obj 490 262 nbx 4 18 -1e+37 1e+37 0 1 empty empty empty 0 -8 0 10 #191919 #d4d4d4 #d4d4d4 12.4247 256;
#X obj 506 283 nbx 4 18 -1e+37 1e+37 0 1 empty empty empty 0 -8 0 10 #191919 #d4d4d4 #d4d4d4 5.09081 256;
#X obj 459 220 nbx 4 18 -1e+37 1e+37 0 1 empty empty empty 0 -8 0 10 #191919 #d4d4d4 #d4d4d4 14.1739 256;
#X obj 179 79 rand.f 0.01 20;
#X obj 279 79 rand.f 0.01 20;
#X obj 379 79 rand.f 0.01 20;
#X obj 99 119 rand.f 0.05 40;
#X obj 201 119 rand.f 0.05 40;
#X obj 303 119 rand.f 0.05 40;
#X obj 405 119 rand.f 0.05 40;
#X obj 119 149 rand.f 3 30;
#X obj 203 149 rand.f 3 30;
#X obj 287 149 rand.f 3 30;
#X obj 371 149 rand.f 3 30;
#X obj 149 179 rand.f 1 10;
#X obj 247 179 rand.f 1 10;
#X obj 327 179 rand.f 1 10;
#X obj 407 179 rand.f 1 10;
#X obj 239 29 bng 25 250 50 0 empty empty empty 17 7 0 10 #191919 #d4d4d4 #d4d4d4;
#X obj 349 399 oscope~ 321 130 2 3 1024 -1 1 0 0 0 0 212 212 212 25 25 25 96 96 96 0 empty;
#X connect 1 0 7 0;
#X connect 1 0 39 0;
#X connect 2 0 1 0;
#X connect 3 0 2 1;
#X connect 4 0 2 2;
#X connect 5 0 2 3;
#X connect 6 0 2 0;
#X connect 7 0 0 0;
#X connect 7 0 0 1;
#X connect 8 0 1 1;
#X connect 9 0 8 1;
#X connect 10 0 8 2;
#X connect 11 0 8 3;
#X connect 12 0 8 0;
#X connect 13 0 1 2;
#X connect 14 0 13 1;
#X connect 15 0 13 2;
#X connect 16 0 13 3;
#X connect 17 0 13 0;
#X connect 18 0 1 3;
#X connect 19 0 18 1;
#X connect 20 0 18 2;
#X connect 21 0 18 3;
#X connect 22 0 18 0;
#X connect 23 0 12 0;
#X connect 24 0 17 0;
#X connect 25 0 22 0;
#X connect 26 0 3 0;
#X connect 27 0 9 0;
#X connect 28 0 14 0;
#X connect 29 0 19 0;
#X connect 30 0 4 0;
#X connect 31 0 10 0;
#X connect 32 0 15 0;
#X connect 33 0 20 0;
#X connect 34 0 5 0;
#X connect 35 0 11 0;
#X connect 36 0 16 0;
#X connect 37 0 21 0;
#X connect 38 0 25 0;
#X connect 38 0 24 0;
#X connect 38 0 23 0;
#X connect 38 0 27 0;
#X connect 38 0 28 0;
#X connect 38 0 29 0;
#X connect 38 0 26 0;
#X connect 38 0 30 0;
#X connect 38 0 31 0;
#X connect 38 0 32 0;
#X connect 38 0 33 0;
#X connect 38 0 34 0;
#X connect 38 0 35 0;
#X connect 38 0 36 0;
#X connect 38 0 37 0;
