#N canvas 827 239 710 540 12;
#X obj 289 109 phasor~;
#X obj 290 249 pow~ 2;
#X obj 290 279 *~ -1;
#X obj 290 309 /~ 2;
#X obj 219 389 *~;
#X obj 349 279 cos~;
#X obj 349 249 *~;
#X obj 289 139 *~ 2;
#X obj 289 169 -~ 1;
#X obj 219 349 pow~;
#X msg 219 309 2.71828;
#X obj 219 279 loadbang;
#X obj 208 469 outlet~;
#X obj 289 79 inlet~;
#X obj 379 79 inlet~;
#X obj 289 209 *~;
#X obj 449 79 inlet~;
#X obj 208 429 *~;
#X obj 209 79 inlet~;
#X connect 0 0 7 0;
#X connect 1 0 2 0;
#X connect 2 0 3 0;
#X connect 3 0 9 1 32.................J.....8+++uB....P++++SA....;
#X connect 4 0 17 1;
#X connect 5 0 4 1 32.................PA...n3+++OT....J9+++qE....;
#X connect 6 0 5 0;
#X connect 7 0 8 0;
#X connect 8 0 15 0;
#X connect 9 0 4 0;
#X connect 10 0 9 0;
#X connect 11 0 10 0;
#X connect 13 0 0 0;
#X connect 14 0 15 1 32.................nA...H6+++OZ....x9+++6F....;
#X connect 15 0 1 0;
#X connect 15 0 6 0 32.................L....vC....C....7....PA....;
#X connect 16 0 6 1 32.................NB...f5+++ui....n9+++aI....;
#X connect 17 0 12 0;
#X connect 18 0 17 0;
