#N canvas 827 239 710 540 12;
#X obj 279 139 phasor~;
#X obj 280 279 pow~ 2;
#X obj 280 309 *~ -1;
#X obj 280 339 /~ 2;
#X obj 209 419 *~;
#X obj 339 309 cos~;
#X obj 339 279 *~;
#X obj 279 169 *~ 2;
#X obj 279 199 -~ 1;
#X obj 209 379 pow~;
#X msg 209 339 2.71828;
#X obj 209 309 loadbang;
#X obj 198 499 outlet~;
#X obj 279 89 inlet~;
#X obj 369 39 inlet~;
#X obj 279 239 *~;
#X obj 439 149 inlet~;
#X obj 198 459 *~;
#X obj 199 109 inlet~;
#X obj 369 199 *~ 3.14159;
#X text 19 108 normalization constant (amp);
#X text 329 88 freq;
#X text 419 28 range wavelet be from [-pi \, pi] so going above that gives us space (squishes it), f 31;
#X text 489 148 multiply the frequency of the wavelet;
#X connect 0 0 7 0;
#X connect 1 0 2 0;
#X connect 2 0 3 0;
#X connect 3 0 9 1 32.................J.....8+++uB....P++++SA....;
#X connect 4 0 17 1;
#X connect 5 0 4 1 32.................PA...n3+++OT....J9+++qE....;
#X connect 6 0 5 0;
#X connect 7 0 8 0;
#X connect 8 0 15 0;
#X connect 9 0 4 0;
#X connect 10 0 9 0;
#X connect 11 0 10 0;
#X connect 13 0 0 0;
#X connect 14 0 19 0;
#X connect 15 0 1 0;
#X connect 15 0 6 0 32.................L....vC....C....7....PA....;
#X connect 16 0 6 1 32.................mA...f5++++Y....n9+++6F....;
#X connect 17 0 12 0;
#X connect 18 0 17 0;
#X connect 19 0 15 1 32.................J....H6+++uB....x9+++SA....;
