#N canvas 827 239 692 553 12;
#X obj 249 459 dac~;
#X obj 269 339 morlet;
#X obj 249 429 clip~ -1 1;
#X obj 349 399 oscope~ 321 130 2 3 1024 -1 1 0 0 0 0 212 212 212 25 25 25 96 96 96 0 empty;
#X obj 179 179 noise~;
#X obj 299 139 noise~;
#X obj 349 239 noise~;
#X obj 247 288 *~;
#X obj 189 292 nbx 4 18 -1e+37 1e+37 0 0 empty empty empty 0 -8 0 10 #191919 #d4d4d4 #d4d4d4 0 256;
#X obj 239 219 nbx 4 18 -1e+37 1e+37 0 0 empty empty empty 0 -8 0 10 #191919 #d4d4d4 #d4d4d4 0 256;
#X obj 289 249 *~;
#X obj 329 209 nbx 4 18 -1e+37 1e+37 0 0 empty empty empty 0 -8 0 10 #191919 #d4d4d4 #d4d4d4 0 256;
#X obj 333 303 *~;
#X obj 369 269 nbx 4 18 -1e+37 1e+37 0 0 empty empty empty 0 -8 0 10 #191919 #d4d4d4 #d4d4d4 0 256;
#X connect 1 0 2 0;
#X connect 1 0 3 0;
#X connect 2 0 0 0;
#X connect 2 0 0 1;
#X connect 4 0 7 0;
#X connect 5 0 10 0;
#X connect 6 0 12 0;
#X connect 7 0 1 1;
#X connect 8 0 1 0;
#X connect 9 0 7 1;
#X connect 10 0 1 2;
#X connect 11 0 10 1;
#X connect 12 0 1 3;
#X connect 13 0 12 1;
