#N canvas 827 239 710 540 12;
#X obj 159 89 phasor~;
#X obj 159 59 nbx 4 18 -1e+37 1e+37 0 1 empty empty empty 0 -8 0 10 #191919 #d4d4d4 #d4d4d4 11 256;
#X obj 230 189 nbx 4 18 -1e+37 1e+37 0 1 empty empty empty 0 -8 0 10 #191919 #d4d4d4 #d4d4d4 4 256;
#X obj 89 389 oscope~ 421 130 2 3 256 -1 1 0 0 0 0 212 212 212 25 25 25 96 96 96 0 empty;
#X obj 160 219 pow~ 2;
#X obj 160 249 *~ -1;
#X obj 160 279 /~ 2;
#X obj 89 359 *~;
#X obj 219 249 cos~;
#X obj 219 219 *~;
#X obj 159 119 *~ 2;
#X obj 159 149 -~ 1;
#X obj 159 179 *~ 4;
#X obj 209 149 nbx 4 18 3 1e+37 0 1 empty empty empty 0 -8 0 10 #191919 #d4d4d4 #d4d4d4 77 256;
#X text 219 58 speed;
#X obj 519 422 dac~;
#X obj 519 389 *~;
#X obj 530 360 nbx 4 18 -1e+37 1e+37 0 1 empty empty empty 0 -8 0 10 #191919 #d4d4d4 #d4d4d4 0.2 256;
#X text 258 149 squish;
#X obj 89 319 pow~;
#X msg 89 279 2.71828;
#X text 279 188 freq multiplier thingy;
#X obj 89 249 loadbang;
#X connect 0 0 10 0;
#X connect 1 0 0 0;
#X connect 2 0 9 1;
#X connect 4 0 5 0;
#X connect 5 0 6 0;
#X connect 6 0 19 1 32.................J.....8+++uB....P++++SA....;
#X connect 7 0 3 0;
#X connect 7 0 16 0 32.................E....3Z...PA....tF...j8+++O;
#X connect 8 0 7 1 32.................QA...n3+++eT....J9+++qE....;
#X connect 9 0 8 0;
#X connect 10 0 11 0;
#X connect 11 0 12 0;
#X connect 12 0 4 0;
#X connect 12 0 9 0 32.................L....vC....C....7....PA....;
#X connect 13 0 12 1 32.................F....z8+++uA....c++++y.....;
#X connect 16 0 15 0;
#X connect 16 0 15 1;
#X connect 17 0 16 1;
#X connect 19 0 7 0;
#X connect 20 0 19 0;
#X connect 22 0 20 0;
