#N canvas 827 239 692 553 12;
#X obj 109 359 dac~;
#X obj 109 209 morlet;
#X obj 124 142 nbx 7 18 -1e+37 1e+37 0 1 empty empty empty 0 -8 0 10 #191919 #d4d4d4 #d4d4d4 0.6 256;
#X obj 140 162 nbx 7 18 -1e+37 1e+37 0 1 empty empty empty 0 -8 0 10 #191919 #d4d4d4 #d4d4d4 18.2 256;
#X obj 156 183 nbx 7 18 -1e+37 1e+37 0 1 empty empty empty 0 -8 0 10 #191919 #d4d4d4 #d4d4d4 23.3 256;
#X obj 109 120 nbx 7 18 -1e+37 1e+37 0 1 empty empty empty 0 -8 0 10 #191919 #d4d4d4 #d4d4d4 15.2 256;
#X obj 109 329 clip~ -1 1;
#X obj 219 209 morlet;
#X obj 234 142 nbx 7 18 -1e+37 1e+37 0 1 empty empty empty 0 -8 0 10 #191919 #d4d4d4 #d4d4d4 0.493904 256;
#X obj 250 162 nbx 7 18 -1e+37 1e+37 0 1 empty empty empty 0 -8 0 10 #191919 #d4d4d4 #d4d4d4 7.66943 256;
#X obj 266 183 nbx 7 18 -1e+37 1e+37 0 1 empty empty empty 0 -8 0 10 #191919 #d4d4d4 #d4d4d4 1.69956 256;
#X obj 219 120 nbx 7 18 -1e+37 1e+37 0 1 empty empty empty 0 -8 0 10 #191919 #d4d4d4 #d4d4d4 9.39802 256;
#X obj 329 209 morlet;
#X obj 344 142 nbx 7 18 -1e+37 1e+37 0 1 empty empty empty 0 -8 0 10 #191919 #d4d4d4 #d4d4d4 0.2 256;
#X obj 360 162 nbx 7 18 -1e+37 1e+37 0 1 empty empty empty 0 -8 0 10 #191919 #d4d4d4 #d4d4d4 4.5 256;
#X obj 376 183 nbx 7 18 -1e+37 1e+37 0 1 empty empty empty 0 -8 0 10 #191919 #d4d4d4 #d4d4d4 4.6 256;
#X obj 329 120 nbx 7 18 -1e+37 1e+37 0 1 empty empty empty 0 -8 0 10 #191919 #d4d4d4 #d4d4d4 13.4404 256;
#X obj 439 209 morlet;
#X obj 454 142 nbx 7 18 -1e+37 1e+37 0 1 empty empty empty 0 -8 0 10 #191919 #d4d4d4 #d4d4d4 0.8 256;
#X obj 470 162 nbx 7 18 -1e+37 1e+37 0 1 empty empty empty 0 -8 0 10 #191919 #d4d4d4 #d4d4d4 11 256;
#X obj 486 183 nbx 7 18 -1e+37 1e+37 0 1 empty empty empty 0 -8 0 10 #191919 #d4d4d4 #d4d4d4 7.96 256;
#X obj 439 120 nbx 7 18 -1e+37 1e+37 0 1 empty empty empty 0 -8 0 10 #191919 #d4d4d4 #d4d4d4 12.2 256;
#X obj 179 329 oscope~ 321 130 2 3 1024 -1 1 0 0 0 0 212 212 212 25 25 25 96 96 96 0 empty;
#X obj 109 279 *~ 0.05;
#X connect 1 0 23 0;
#X connect 2 0 1 1;
#X connect 3 0 1 2;
#X connect 4 0 1 3;
#X connect 5 0 1 0;
#X connect 6 0 0 0;
#X connect 6 0 0 1;
#X connect 7 0 23 0;
#X connect 8 0 7 1;
#X connect 9 0 7 2;
#X connect 10 0 7 3;
#X connect 11 0 7 0;
#X connect 12 0 23 0;
#X connect 13 0 12 1;
#X connect 14 0 12 2;
#X connect 15 0 12 3;
#X connect 16 0 12 0;
#X connect 17 0 23 0;
#X connect 18 0 17 1;
#X connect 19 0 17 2;
#X connect 20 0 17 3;
#X connect 21 0 17 0;
#X connect 23 0 6 0;
#X connect 23 0 22 0;
