#N canvas 827 239 527 327 12;
#X obj 209 69 phasor~, f 8;
#X obj 207 31 nbx 4 20 -1e+37 1e+37 0 1 empty empty empty 0 -8 0 10 #191919 #d4d4d4 #d4d4d4 0.3 256;
#N canvas 0 50 450 300 bee 1;
#X obj 19 -101 inlet~;
#X obj 139 -101 inlet~;
#X obj 259 -101 inlet;
#X obj 158 2 cnv 6 3 3 empty dot_\$0 empty 20 12 0 14 #ff0000 #d4d4d4 0;
#X obj 49 339 s dot_\$0;
#X msg 119 219 size \$1;
#X obj 115 194 nbx 4 18 -1e+37 1e+37 0 1 empty empty empty 0 -8 0 10 #191919 #d4d4d4 #d4d4d4 6 256;
#X obj -32 196 nbx 4 18 -1e+37 1e+37 0 1 empty empty empty 0 -8 0 10 #191919 #d4d4d4 #d4d4d4 3 256;
#X msg -31 239 vis_size \$1 \$1;
#X obj 328 241 t b f;
#X msg 289 309 pos \$1 \$2;
#X obj 289 277 pack f f;
#X obj 269 195 nbx 4 18 -1e+37 1e+37 0 0 empty empty empty 0 -8 0 10 #191919 #d4d4d4 #d4d4d4 0 256;
#X obj 323 195 nbx 4 18 -1e+37 1e+37 0 0 empty empty empty 0 -8 0 10 #191919 #d4d4d4 #d4d4d4 0 256;
#X msg 419 337 color \$1;
#X obj 419 307 colors;
#X msg 419 277 hsl \$1 100 50;
#X obj 419 247 nbx 4 18 -1e+37 1e+37 0 0 empty empty empty 0 -8 0 10 #191919 #d4d4d4 #d4d4d4 0 256;
#X obj 319 -61 array define x_\$0;
#X obj 449 -61 array define y_\$0;
#X obj 139 -41 tabsend~ y_\$0;
#X obj 19 -41 tabsend~ x_\$0;
#X obj 279 29 metro 1 1 msec;
#X obj 279 -1 tgl 25 0 empty empty empty 17 7 0 10 #191919 #d4d4d4 #d4d4d4 0 1;
#X obj 318 60 + 1;
#X obj 279 59 f;
#X obj 279 89 mod 64;
#X obj 259 129 tabread x_\$0;
#X obj 359 129 tabread y_\$0;
#X connect 0 0 21 0;
#X connect 1 0 20 0;
#X connect 2 0 17 0;
#X connect 5 0 4 0;
#X connect 6 0 5 0;
#X connect 7 0 8 0;
#X connect 8 0 4 0;
#X connect 9 0 11 0;
#X connect 9 1 11 1;
#X connect 10 0 4 0;
#X connect 11 0 10 0;
#X connect 12 0 11 0;
#X connect 13 0 9 0;
#X connect 14 0 4 0;
#X connect 15 0 14 0;
#X connect 16 0 15 0;
#X connect 17 0 16 0;
#X connect 22 0 25 0;
#X connect 23 0 22 0;
#X connect 24 0 25 1;
#X connect 25 0 26 0;
#X connect 26 0 24 0;
#X connect 26 0 28 0;
#X connect 26 0 27 0;
#X connect 27 0 12 0;
#X connect 28 0 13 0;
#X coords 0 0 1 1 200 140 2 0 0;
#X restore 269 139 pd bee;
#X obj 227 100 *~ 200;
#X obj 306 62 phasor~, f 8;
#X obj 304 24 nbx 4 20 -1e+37 1e+37 0 1 empty empty empty 0 -8 0 10 #191919 #d4d4d4 #d4d4d4 1 256;
#X obj 319 89 *~ 130;
#X obj 429 89 nbx 4 18 -1e+37 1e+37 0 0 empty empty empty 0 -8 0 10 #191919 #d4d4d4 #d4d4d4 0 256;
#X text 539 108 you don't wanna compress.. instead you wanna look at a portion of the signal \, and ignore the rest (saving cpu) but also allow the possibility of moving around, f 46;
#X text 539 168 onset detection and resetting;
#X text 539 198 allow probing (pad and tabread based on position);
#X text 539 248 how you gonna do the trail?;
#X connect 0 0 3 0;
#X connect 1 0 0 0;
#X connect 3 0 2 0;
#X connect 4 0 6 0;
#X connect 5 0 4 0;
#X connect 6 0 2 1;
#X connect 7 0 2 2;
