#N canvas 827 239 610 510 12;
#N canvas 0 50 450 250 (subpatch) 1;
#X obj 20 5 button 51 51 25 25 25 255 255 255 0;
#X obj 67 31 button 51 51 25 25 25 255 255 255 0;
#X obj 115 5 button 51 51 25 25 25 255 255 255 0;
#X obj 162 31 button 51 51 25 25 25 255 255 255 0;
#X obj 208 5 button 51 51 25 25 25 255 255 255 0;
#X obj 255 31 button 51 51 25 25 25 255 255 255 0;
#X obj 301 5 button 51 51 25 25 25 255 255 255 0;
#X obj 350 31 button 51 51 25 25 25 255 255 255 0;
#X obj 397 5 button 51 51 25 25 25 255 255 255 0;
#X obj 442 31 button 51 51 25 25 25 255 255 255 0;
#X obj 490 5 button 51 51 25 25 25 255 255 255 0;
#X obj 538 31 button 51 51 25 25 25 255 255 255 0;
#X obj 20 57 button 51 51 25 25 25 255 255 255 0;
#X obj 67 83 button 51 51 25 25 25 255 255 255 0;
#X obj 115 57 button 51 51 25 25 25 255 255 255 0;
#X obj 162 83 button 51 51 25 25 25 255 255 255 0;
#X obj 208 57 button 51 51 25 25 25 255 255 255 0;
#X obj 255 83 button 51 51 25 25 25 255 255 255 0;
#X obj 301 57 button 51 51 25 25 25 255 255 255 0;
#X obj 350 83 button 51 51 25 25 25 255 255 255 0;
#X obj 397 57 button 51 51 25 25 25 255 255 255 0;
#X obj 442 83 button 51 51 25 25 25 255 255 255 0;
#X obj 490 57 button 51 51 25 25 25 255 255 255 0;
#X obj 538 83 button 51 51 25 25 25 255 255 255 0;
#X obj 20 111 button 51 51 25 25 25 255 255 255 0;
#X obj 67 137 button 51 51 25 25 25 255 255 255 0;
#X obj 115 111 button 51 51 25 25 25 255 255 255 0;
#X obj 162 137 button 51 51 25 25 25 255 255 255 0;
#X obj 208 111 button 51 51 25 25 25 255 255 255 0;
#X obj 255 137 button 51 51 25 25 25 255 255 255 0;
#X obj 301 111 button 51 51 25 25 25 255 255 255 0;
#X obj 350 137 button 51 51 25 25 25 255 255 255 0;
#X obj 397 111 button 51 51 25 25 25 255 255 255 0;
#X obj 442 137 button 51 51 25 25 25 255 255 255 0;
#X obj 490 111 button 51 51 25 25 25 255 255 255 0;
#X obj 538 137 button 51 51 25 25 25 255 255 255 0;
#X obj 20 163 button 51 51 25 25 25 255 255 255 0;
#X obj 67 189 button 51 51 25 25 25 255 255 255 0;
#X obj 115 163 button 51 51 25 25 25 255 255 255 0;
#X obj 162 189 button 51 51 25 25 25 255 255 255 0;
#X obj 208 163 button 51 51 25 25 25 255 255 255 0;
#X obj 255 189 button 51 51 25 25 25 255 255 255 0;
#X obj 301 163 button 51 51 25 25 25 255 255 255 0;
#X obj 350 189 button 51 51 25 25 25 255 255 255 0;
#X obj 397 163 button 51 51 25 25 25 255 255 255 0;
#X obj 442 189 button 51 51 25 25 25 255 255 255 0;
#X obj 490 163 button 51 51 25 25 25 255 255 255 0;
#X obj 538 189 button 51 51 25 25 25 255 255 255 0;
#X obj 20 217 button 51 51 25 25 25 255 255 255 0;
#X obj 67 243 button 51 51 25 25 25 255 255 255 0;
#X obj 115 217 button 51 51 25 25 25 255 255 255 0;
#X obj 162 243 button 51 51 25 25 25 255 255 255 0;
#X obj 208 217 button 51 51 25 25 25 255 255 255 0;
#X obj 255 243 button 51 51 25 25 25 255 255 255 0;
#X obj 301 217 button 51 51 25 25 25 255 255 255 0;
#X obj 350 243 button 51 51 25 25 25 255 255 255 0;
#X obj 397 217 button 51 51 25 25 25 255 255 255 0;
#X obj 442 243 button 51 51 25 25 25 255 255 255 0;
#X obj 490 217 button 51 51 25 25 25 255 255 255 0;
#X obj 538 243 button 51 51 25 25 25 255 255 255 0;
#X obj 20 269 button 51 51 25 25 25 255 255 255 0;
#X obj 67 295 button 51 51 25 25 25 255 255 255 0;
#X obj 115 269 button 51 51 25 25 25 255 255 255 0;
#X obj 162 295 button 51 51 25 25 25 255 255 255 0;
#X obj 208 269 button 51 51 25 25 25 255 255 255 0;
#X obj 255 295 button 51 51 25 25 25 255 255 255 0;
#X obj 301 269 button 51 51 25 25 25 255 255 255 0;
#X obj 350 295 button 51 51 25 25 25 255 255 255 0;
#X obj 397 269 button 51 51 25 25 25 255 255 255 0;
#X obj 442 295 button 51 51 25 25 25 255 255 255 0;
#X obj 490 269 button 51 51 25 25 25 255 255 255 0;
#X obj 538 295 button 51 51 25 25 25 255 255 255 0;
#X obj 20 323 button 51 51 25 25 25 255 255 255 0;
#X obj 67 349 button 51 51 25 25 25 255 255 255 0;
#X obj 115 323 button 51 51 25 25 25 255 255 255 0;
#X obj 162 349 button 51 51 25 25 25 255 255 255 0;
#X obj 208 323 button 51 51 25 25 25 255 255 255 0;
#X obj 255 349 button 51 51 25 25 25 255 255 255 0;
#X obj 301 323 button 51 51 25 25 25 255 255 255 0;
#X obj 350 349 button 51 51 25 25 25 255 255 255 0;
#X obj 397 323 button 51 51 25 25 25 255 255 255 0;
#X obj 442 349 button 51 51 25 25 25 255 255 255 0;
#X obj 490 323 button 51 51 25 25 25 255 255 255 0;
#X obj 538 349 button 51 51 25 25 25 255 255 255 0;
#X obj 20 375 button 51 51 25 25 25 255 255 255 0;
#X obj 67 401 button 51 51 25 25 25 255 255 255 0;
#X obj 115 375 button 51 51 25 25 25 255 255 255 0;
#X obj 162 401 button 51 51 25 25 25 255 255 255 0;
#X obj 208 375 button 51 51 25 25 25 255 255 255 0;
#X obj 255 401 button 51 51 25 25 25 255 255 255 0;
#X obj 301 375 button 51 51 25 25 25 255 255 255 0;
#X obj 350 401 button 51 51 25 25 25 255 255 255 0;
#X obj 397 375 button 51 51 25 25 25 255 255 255 0;
#X obj 442 401 button 51 51 25 25 25 255 255 255 0;
#X obj 490 375 button 51 51 25 25 25 255 255 255 0;
#X obj 538 401 button 51 51 25 25 25 255 255 255 0;
#X obj 20 428 button 51 51 25 25 25 255 255 255 0;
#X obj 67 454 button 51 51 25 25 25 255 255 255 0;
#X obj 115 428 button 51 51 25 25 25 255 255 255 0;
#X obj 162 454 button 51 51 25 25 25 255 255 255 0;
#X obj 208 428 button 51 51 25 25 25 255 255 255 0;
#X obj 255 454 button 51 51 25 25 25 255 255 255 0;
#X obj 301 428 button 51 51 25 25 25 255 255 255 0;
#X obj 350 454 button 51 51 25 25 25 255 255 255 0;
#X obj 397 428 button 51 51 25 25 25 255 255 255 0;
#X obj 442 454 button 51 51 25 25 25 255 255 255 0;
#X obj 490 428 button 51 51 25 25 25 255 255 255 0;
#X obj 538 454 button 51 51 25 25 25 255 255 255 0;
#X msg 709 -81 color #191919 #ffffff #191919;
#X obj -31 -21 cnv 15 641 531 empty empty empty 20 12 0 14 #d1d1d1 #ffffff 0;
#X obj 619 -7 bng 25 250 50 0 empty empty ⬣ -611 37 0 87 #191919 #ffffff #191919;
#X obj 666 19 bng 25 250 50 0 empty empty ⬣ -611 37 0 87 #191919 #ffffff #191919;
#X obj 713 -7 bng 25 250 50 0 empty empty ⬣ -611 37 0 87 #191919 #ffffff #191919;
#X obj 807 -7 bng 25 250 50 0 empty empty ⬣ -611 37 0 87 #191919 #ffffff #191919;
#X obj 854 19 bng 25 250 50 0 empty empty ⬣ -611 37 0 87 #191919 #ffffff #191919;
#X obj 760 19 bng 25 250 50 0 empty empty ⬣ -611 37 0 87 #191919 #ffffff #191919;
#X obj 901 -7 bng 25 250 50 0 empty empty ⬣ -611 37 0 87 #191919 #ffffff #191919;
#X obj 948 19 bng 25 250 50 0 empty empty ⬣ -611 37 0 87 #191919 #ffffff #191919;
#X obj 995 -7 bng 25 250 50 0 empty empty ⬣ -611 37 0 87 #191919 #ffffff #191919;
#X obj 1089 -7 bng 25 250 50 0 empty empty ⬣ -611 37 0 87 #191919 #ffffff #191919;
#X obj 1136 19 bng 25 250 50 0 empty empty ⬣ -611 37 0 87 #191919 #ffffff #191919;
#X obj 1042 19 bng 25 250 50 0 empty empty ⬣ -611 37 0 87 #191919 #ffffff #191919;
#X obj 619 46 bng 25 250 50 0 empty empty ⬣ -611 37 0 87 #191919 #ffffff #191919;
#X obj 666 72 bng 25 250 50 0 empty empty ⬣ -611 37 0 87 #191919 #ffffff #191919;
#X obj 713 46 bng 25 250 50 0 empty empty ⬣ -611 37 0 87 #191919 #ffffff #191919;
#X obj 807 46 bng 25 250 50 0 empty empty ⬣ -611 37 0 87 #191919 #ffffff #191919;
#X obj 854 72 bng 25 250 50 0 empty empty ⬣ -611 37 0 87 #191919 #ffffff #191919;
#X obj 760 72 bng 25 250 50 0 empty empty ⬣ -611 37 0 87 #191919 #ffffff #191919;
#X obj 901 46 bng 25 250 50 0 empty empty ⬣ -611 37 0 87 #191919 #ffffff #191919;
#X obj 948 72 bng 25 250 50 0 empty empty ⬣ -611 37 0 87 #191919 #ffffff #191919;
#X obj 995 46 bng 25 250 50 0 empty empty ⬣ -611 37 0 87 #191919 #ffffff #191919;
#X obj 1089 46 bng 25 250 50 0 empty empty ⬣ -611 37 0 87 #191919 #ffffff #191919;
#X obj 1136 72 bng 25 250 50 0 empty empty ⬣ -611 37 0 87 #191919 #ffffff #191919;
#X obj 1042 72 bng 25 250 50 0 empty empty ⬣ -611 37 0 87 #191919 #ffffff #191919;
#X obj 619 99 bng 25 250 50 0 empty empty ⬣ -611 37 0 87 #191919 #ffffff #191919;
#X obj 666 125 bng 25 250 50 0 empty empty ⬣ -611 37 0 87 #191919 #ffffff #191919;
#X obj 713 99 bng 25 250 50 0 empty empty ⬣ -611 37 0 87 #191919 #ffffff #191919;
#X obj 807 99 bng 25 250 50 0 empty empty ⬣ -611 37 0 87 #191919 #ffffff #191919;
#X obj 854 125 bng 25 250 50 0 empty empty ⬣ -611 37 0 87 #191919 #ffffff #191919;
#X obj 760 125 bng 25 250 50 0 empty empty ⬣ -611 37 0 87 #191919 #ffffff #191919;
#X obj 901 99 bng 25 250 50 0 empty empty ⬣ -611 37 0 87 #191919 #ffffff #191919;
#X obj 948 125 bng 25 250 50 0 empty empty ⬣ -611 37 0 87 #191919 #ffffff #191919;
#X obj 995 99 bng 25 250 50 0 empty empty ⬣ -611 37 0 87 #191919 #ffffff #191919;
#X obj 1089 99 bng 25 250 50 0 empty empty ⬣ -611 37 0 87 #191919 #ffffff #191919;
#X obj 1136 125 bng 25 250 50 0 empty empty ⬣ -611 37 0 87 #191919 #ffffff #191919;
#X obj 1042 125 bng 25 250 50 0 empty empty ⬣ -611 37 0 87 #191919 #ffffff #191919;
#X obj 619 152 bng 25 250 50 0 empty empty ⬣ -611 37 0 87 #191919 #ffffff #191919;
#X obj 666 178 bng 25 250 50 0 empty empty ⬣ -611 37 0 87 #191919 #ffffff #191919;
#X obj 713 152 bng 25 250 50 0 empty empty ⬣ -611 37 0 87 #191919 #ffffff #191919;
#X obj 807 152 bng 25 250 50 0 empty empty ⬣ -611 37 0 87 #191919 #ffffff #191919;
#X obj 854 178 bng 25 250 50 0 empty empty ⬣ -611 37 0 87 #191919 #ffffff #191919;
#X obj 760 178 bng 25 250 50 0 empty empty ⬣ -611 37 0 87 #191919 #ffffff #191919;
#X obj 901 152 bng 25 250 50 0 empty empty ⬣ -611 37 0 87 #191919 #ffffff #191919;
#X obj 948 178 bng 25 250 50 0 empty empty ⬣ -611 37 0 87 #191919 #ffffff #191919;
#X obj 995 152 bng 25 250 50 0 empty empty ⬣ -611 37 0 87 #191919 #ffffff #191919;
#X obj 1089 152 bng 25 250 50 0 empty empty ⬣ -611 37 0 87 #191919 #ffffff #191919;
#X obj 1136 178 bng 25 250 50 0 empty empty ⬣ -611 37 0 87 #191919 #ffffff #191919;
#X obj 1042 178 bng 25 250 50 0 empty empty ⬣ -611 37 0 87 #191919 #ffffff #191919;
#X obj 619 205 bng 25 250 50 0 empty empty ⬣ -611 37 0 87 #191919 #ffffff #191919;
#X obj 666 231 bng 25 250 50 0 empty empty ⬣ -611 37 0 87 #191919 #ffffff #191919;
#X obj 713 205 bng 25 250 50 0 empty empty ⬣ -611 37 0 87 #191919 #ffffff #191919;
#X obj 807 205 bng 25 250 50 0 empty empty ⬣ -611 37 0 87 #191919 #ffffff #191919;
#X obj 854 231 bng 25 250 50 0 empty empty ⬣ -611 37 0 87 #191919 #ffffff #191919;
#X obj 760 231 bng 25 250 50 0 empty empty ⬣ -611 37 0 87 #191919 #ffffff #191919;
#X obj 901 205 bng 25 250 50 0 empty empty ⬣ -611 37 0 87 #191919 #ffffff #191919;
#X obj 948 231 bng 25 250 50 0 empty empty ⬣ -611 37 0 87 #191919 #ffffff #191919;
#X obj 995 205 bng 25 250 50 0 empty empty ⬣ -611 37 0 87 #191919 #ffffff #191919;
#X obj 1089 205 bng 25 250 50 0 empty empty ⬣ -611 37 0 87 #191919 #ffffff #191919;
#X obj 1136 231 bng 25 250 50 0 empty empty ⬣ -611 37 0 87 #191919 #ffffff #191919;
#X obj 1042 231 bng 25 250 50 0 empty empty ⬣ -611 37 0 87 #191919 #ffffff #191919;
#X obj 619 258 bng 25 250 50 0 empty empty ⬣ -611 37 0 87 #191919 #ffffff #191919;
#X obj 666 284 bng 25 250 50 0 empty empty ⬣ -611 37 0 87 #191919 #ffffff #191919;
#X obj 713 258 bng 25 250 50 0 empty empty ⬣ -611 37 0 87 #191919 #ffffff #191919;
#X obj 807 258 bng 25 250 50 0 empty empty ⬣ -611 37 0 87 #191919 #ffffff #191919;
#X obj 854 284 bng 25 250 50 0 empty empty ⬣ -611 37 0 87 #191919 #ffffff #191919;
#X obj 760 284 bng 25 250 50 0 empty empty ⬣ -611 37 0 87 #191919 #ffffff #191919;
#X obj 901 258 bng 25 250 50 0 empty empty ⬣ -611 37 0 87 #191919 #ffffff #191919;
#X obj 948 284 bng 25 250 50 0 empty empty ⬣ -611 37 0 87 #191919 #ffffff #191919;
#X obj 995 258 bng 25 250 50 0 empty empty ⬣ -611 37 0 87 #191919 #ffffff #191919;
#X obj 1089 258 bng 25 250 50 0 empty empty ⬣ -611 37 0 87 #191919 #ffffff #191919;
#X obj 1136 284 bng 25 250 50 0 empty empty ⬣ -611 37 0 87 #191919 #ffffff #191919;
#X obj 1042 284 bng 25 250 50 0 empty empty ⬣ -611 37 0 87 #191919 #ffffff #191919;
#X obj 619 311 bng 25 250 50 0 empty empty ⬣ -611 37 0 87 #191919 #ffffff #191919;
#X obj 666 337 bng 25 250 50 0 empty empty ⬣ -611 37 0 87 #191919 #ffffff #191919;
#X obj 713 311 bng 25 250 50 0 empty empty ⬣ -611 37 0 87 #191919 #ffffff #191919;
#X obj 807 311 bng 25 250 50 0 empty empty ⬣ -611 37 0 87 #191919 #ffffff #191919;
#X obj 854 337 bng 25 250 50 0 empty empty ⬣ -611 37 0 87 #191919 #ffffff #191919;
#X obj 760 337 bng 25 250 50 0 empty empty ⬣ -611 37 0 87 #191919 #ffffff #191919;
#X obj 901 311 bng 25 250 50 0 empty empty ⬣ -611 37 0 87 #191919 #ffffff #191919;
#X obj 948 337 bng 25 250 50 0 empty empty ⬣ -611 37 0 87 #191919 #ffffff #191919;
#X obj 995 311 bng 25 250 50 0 empty empty ⬣ -611 37 0 87 #191919 #ffffff #191919;
#X obj 1089 311 bng 25 250 50 0 empty empty ⬣ -611 37 0 87 #191919 #ffffff #191919;
#X obj 1136 337 bng 25 250 50 0 empty empty ⬣ -611 37 0 87 #191919 #ffffff #191919;
#X obj 1042 337 bng 25 250 50 0 empty empty ⬣ -611 37 0 87 #191919 #ffffff #191919;
#X obj 619 364 bng 25 250 50 0 empty empty ⬣ -611 37 0 87 #191919 #ffffff #191919;
#X obj 666 390 bng 25 250 50 0 empty empty ⬣ -611 37 0 87 #191919 #ffffff #191919;
#X obj 713 364 bng 25 250 50 0 empty empty ⬣ -611 37 0 87 #191919 #ffffff #191919;
#X obj 807 364 bng 25 250 50 0 empty empty ⬣ -611 37 0 87 #191919 #ffffff #191919;
#X obj 854 390 bng 25 250 50 0 empty empty ⬣ -611 37 0 87 #191919 #ffffff #191919;
#X obj 760 390 bng 25 250 50 0 empty empty ⬣ -611 37 0 87 #191919 #ffffff #191919;
#X obj 901 364 bng 25 250 50 0 empty empty ⬣ -611 37 0 87 #191919 #ffffff #191919;
#X obj 948 390 bng 25 250 50 0 empty empty ⬣ -611 37 0 87 #191919 #ffffff #191919;
#X obj 995 364 bng 25 250 50 0 empty empty ⬣ -611 37 0 87 #191919 #ffffff #191919;
#X obj 1089 364 bng 25 250 50 0 empty empty ⬣ -611 37 0 87 #191919 #ffffff #191919;
#X obj 1136 390 bng 25 250 50 0 empty empty ⬣ -611 37 0 87 #191919 #ffffff #191919;
#X obj 1042 390 bng 25 250 50 0 empty empty ⬣ -611 37 0 87 #191919 #ffffff #191919;
#X obj 619 417 bng 25 250 50 0 empty empty ⬣ -611 37 0 87 #191919 #ffffff #191919;
#X obj 713 417 bng 25 250 50 0 empty empty ⬣ -611 37 0 87 #191919 #ffffff #191919;
#X obj 807 417 bng 25 250 50 0 empty empty ⬣ -611 37 0 87 #191919 #ffffff #191919;
#X obj 901 417 bng 25 250 50 0 empty empty ⬣ -611 37 0 87 #191919 #ffffff #191919;
#X obj 995 417 bng 25 250 50 0 empty empty ⬣ -611 37 0 87 #191919 #ffffff #191919;
#X obj 1089 417 bng 25 250 50 0 empty empty ⬣ -611 37 0 87 #191919 #ffffff #191919;
#X obj 666 443 bng 25 250 50 0 empty empty ⬣ -611 37 0 87 #191919 #ffffff #191919;
#X obj 854 443 bng 25 250 50 0 empty empty ⬣ -611 37 0 87 #191919 #ffffff #191919;
#X obj 760 443 bng 25 250 50 0 empty empty ⬣ -611 37 0 87 #191919 #ffffff #191919;
#X obj 948 443 bng 25 250 50 0 empty empty ⬣ -611 37 0 87 #191919 #ffffff #191919;
#X obj 1137 443 bng 25 250 50 0 empty empty ⬣ -611 37 0 87 #191919 #ffffff #191919;
#X obj 1042 443 bng 25 250 50 0 empty empty ⬣ -611 37 0 87 #191919 #ffffff #191919;
#N canvas 0 50 450 250 (subpatch) 1;
#X obj -191 -131 pitch2note;
#X msg -191 -101 set \$1;
#X obj 80 472 note 0 14 Inter empty 0 255 255 255 0 25 25 25 0 0 C1;
#X obj 175 472 note 0 14 Inter empty 0 255 255 255 0 25 25 25 0 0 C#1;
#X obj 269 472 note 0 14 Inter empty 0 255 255 255 0 25 25 25 0 0 D1;
#X obj 364 472 note 0 14 Inter empty 0 255 255 255 0 25 25 25 0 0 D#1;
#X obj 454 472 note 0 14 Inter empty 0 255 255 255 0 25 25 25 0 0 E1;
#X obj 549 472 note 0 14 Inter empty 0 255 255 255 0 25 25 25 0 0 F1;
#X obj 30 446 note 0 14 Inter empty 0 255 255 255 0 25 25 25 0 0 D#1;
#X obj 128 447 note 0 14 Inter empty 0 255 255 255 0 25 25 25 0 0 E1;
#X obj 222 447 note 0 14 Inter empty 0 255 255 255 0 25 25 25 0 0 F1;
#X obj 313 446 note 0 14 Inter empty 0 255 255 255 0 25 25 25 0 0 F#1;
#X obj 407 447 note 0 14 Inter empty 0 255 255 255 0 25 25 25 0 0 G1;
#X obj 502 447 note 0 14 Inter empty 0 255 255 255 0 25 25 25 0 0 G#1;
#X obj 80 418 note 0 14 Inter empty 0 255 255 255 0 25 25 25 0 0 G1;
#X obj 175 418 note 0 14 Inter empty 0 255 255 255 0 25 25 25 0 0 G#1;
#X obj 269 418 note 0 14 Inter empty 0 255 255 255 0 25 25 25 0 0 A1;
#X obj 364 418 note 0 14 Inter empty 0 255 255 255 0 25 25 25 0 0 A#1;
#X obj 454 418 note 0 14 Inter empty 0 255 255 255 0 25 25 25 0 0 B1;
#X obj 549 418 note 0 14 Inter empty 0 255 255 255 0 25 25 25 0 0 C2;
#X obj 33 393 note 0 14 Inter empty 0 255 255 255 0 25 25 25 0 0 A#1;
#X obj 128 393 note 0 14 Inter empty 0 255 255 255 0 25 25 25 0 0 B1;
#X obj 222 393 note 0 14 Inter empty 0 255 255 255 0 25 25 25 0 0 C2;
#X obj 317 393 note 0 14 Inter empty 0 255 255 255 0 25 25 25 0 0 C#2;
#X obj 407 393 note 0 14 Inter empty 0 255 255 255 0 25 25 25 0 0 D2;
#X obj 502 393 note 0 14 Inter empty 0 255 255 255 0 25 25 25 0 0 D#2;
#X obj 80 366 note 0 14 Inter empty 0 255 255 255 0 25 25 25 0 0 D2;
#X obj 175 366 note 0 14 Inter empty 0 255 255 255 0 25 25 25 0 0 D#2;
#X obj 269 366 note 0 14 Inter empty 0 255 255 255 0 25 25 25 0 0 E2;
#X obj 364 366 note 0 14 Inter empty 0 255 255 255 0 25 25 25 0 0 F2;
#X obj 454 366 note 0 14 Inter empty 0 255 255 255 0 25 25 25 0 0 F#2;
#X obj 549 366 note 0 14 Inter empty 0 255 255 255 0 25 25 25 0 0 G2;
#X obj 33 341 note 0 14 Inter empty 0 255 255 255 0 25 25 25 0 0 F2;
#X obj 128 341 note 0 14 Inter empty 0 255 255 255 0 25 25 25 0 0 F#2;
#X obj 222 341 note 0 14 Inter empty 0 255 255 255 0 25 25 25 0 0 G2;
#X obj 317 341 note 0 14 Inter empty 0 255 255 255 0 25 25 25 0 0 G#2;
#X obj 407 341 note 0 14 Inter empty 0 255 255 255 0 25 25 25 0 0 A2;
#X obj 502 341 note 0 14 Inter empty 0 255 255 255 0 25 25 25 0 0 A#2;
#X obj 80 312 note 0 14 Inter empty 0 255 255 255 0 25 25 25 0 0 A2;
#X obj 175 312 note 0 14 Inter empty 0 255 255 255 0 25 25 25 0 0 A#2;
#X obj 269 312 note 0 14 Inter empty 0 255 255 255 0 25 25 25 0 0 B2;
#X obj 364 312 note 0 14 Inter empty 0 255 255 255 0 25 25 25 0 0 C3;
#X obj 454 312 note 0 14 Inter empty 0 255 255 255 0 25 25 25 0 0 C#3;
#X obj 549 312 note 0 14 Inter empty 0 255 255 255 0 25 25 25 0 0 D3;
#X obj 33 287 note 0 14 Inter empty 0 255 255 255 0 25 25 25 0 0 C3;
#X obj 128 287 note 0 14 Inter empty 0 255 255 255 0 25 25 25 0 0 C#3;
#X obj 222 287 note 0 14 Inter empty 0 255 255 255 0 25 25 25 0 0 D3;
#X obj 317 287 note 0 14 Inter empty 0 255 255 255 0 25 25 25 0 0 D#3;
#X obj 407 287 note 0 14 Inter empty 0 255 255 255 0 25 25 25 0 0 E3;
#X obj 502 287 note 0 14 Inter empty 0 255 255 255 0 25 25 25 0 0 F3;
#X obj 80 259 note 0 14 Inter empty 0 255 255 255 0 25 25 25 0 0 E3;
#X obj 175 259 note 0 14 Inter empty 0 255 255 255 0 25 25 25 0 0 F3;
#X obj 269 259 note 0 14 Inter empty 0 255 255 255 0 25 25 25 0 0 F#3;
#X obj 364 259 note 0 14 Inter empty 0 255 255 255 0 25 25 25 0 0 G3;
#X obj 454 259 note 0 14 Inter empty 0 255 255 255 0 25 25 25 0 0 G#3;
#X obj 549 259 note 0 14 Inter empty 0 255 255 255 0 25 25 25 0 0 A3;
#X obj 33 234 note 0 14 Inter empty 0 255 255 255 0 25 25 25 0 0 G3;
#X obj 128 234 note 0 14 Inter empty 0 255 255 255 0 25 25 25 0 0 G#3;
#X obj 222 234 note 0 14 Inter empty 0 255 255 255 0 25 25 25 0 0 A3;
#X obj 317 234 note 0 14 Inter empty 0 255 255 255 0 25 25 25 0 0 A#3;
#X obj 407 234 note 0 14 Inter empty 0 255 255 255 0 25 25 25 0 0 B3;
#X obj 502 234 note 0 14 Inter empty 0 255 255 255 0 25 25 25 0 0 C4;
#X obj 80 205 note 0 14 Inter empty 0 255 255 255 0 25 25 25 0 0 B3;
#X obj 175 205 note 0 14 Inter empty 0 255 255 255 0 25 25 25 0 0 C4;
#X obj 269 205 note 0 14 Inter empty 0 255 255 255 0 25 25 25 0 0 C#4;
#X obj 364 205 note 0 14 Inter empty 0 255 255 255 0 25 25 25 0 0 D4;
#X obj 454 205 note 0 14 Inter empty 0 255 255 255 0 25 25 25 0 0 D#4;
#X obj 549 205 note 0 14 Inter empty 0 255 255 255 0 25 25 25 0 0 E4;
#X obj 33 180 note 0 14 Inter empty 0 255 255 255 0 25 25 25 0 0 D4;
#X obj 128 180 note 0 14 Inter empty 0 255 255 255 0 25 25 25 0 0 D#4;
#X obj 222 180 note 0 14 Inter empty 0 255 255 255 0 25 25 25 0 0 E4;
#X obj 317 180 note 0 14 Inter empty 0 255 255 255 0 25 25 25 0 0 F4;
#X obj 407 180 note 0 14 Inter empty 0 255 255 255 0 25 25 25 0 0 F#4;
#X obj 502 180 note 0 14 Inter empty 0 255 255 255 0 25 25 25 0 0 G4;
#X obj 80 153 note 0 14 Inter empty 0 255 255 255 0 25 25 25 0 0 F#4;
#X obj 175 153 note 0 14 Inter empty 0 255 255 255 0 25 25 25 0 0 G4;
#X obj 269 153 note 0 14 Inter empty 0 255 255 255 0 25 25 25 0 0 G#4;
#X obj 364 153 note 0 14 Inter empty 0 255 255 255 0 25 25 25 0 0 A4;
#X obj 454 153 note 0 14 Inter empty 0 255 255 255 0 25 25 25 0 0 A#4;
#X obj 549 153 note 0 14 Inter empty 0 255 255 255 0 25 25 25 0 0 B4;
#X obj 33 128 note 0 14 Inter empty 0 255 255 255 0 25 25 25 0 0 A4;
#X obj 128 128 note 0 14 Inter empty 0 255 255 255 0 25 25 25 0 0 A#4;
#X obj 222 128 note 0 14 Inter empty 0 255 255 255 0 25 25 25 0 0 B4;
#X obj 317 128 note 0 14 Inter empty 0 255 255 255 0 25 25 25 0 0 C5;
#X obj 407 128 note 0 14 Inter empty 0 255 255 255 0 25 25 25 0 0 C#5;
#X obj 502 128 note 0 14 Inter empty 0 255 255 255 0 25 25 25 0 0 D5;
#X obj 80 99 note 0 14 Inter empty 0 255 255 255 0 25 25 25 0 0 C#5;
#X obj 175 99 note 0 14 Inter empty 0 255 255 255 0 25 25 25 0 0 D5;
#X obj 269 99 note 0 14 Inter empty 0 255 255 255 0 25 25 25 0 0 D#5;
#X obj 364 99 note 0 14 Inter empty 0 255 255 255 0 25 25 25 0 0 E5;
#X obj 454 99 note 0 14 Inter empty 0 255 255 255 0 25 25 25 0 0 F5;
#X obj 549 99 note 0 14 Inter empty 0 255 255 255 0 25 25 25 0 0 F#5;
#X obj 33 74 note 0 14 Inter empty 0 255 255 255 0 25 25 25 0 0 E5;
#X obj 128 74 note 0 14 Inter empty 0 255 255 255 0 25 25 25 0 0 F5;
#X obj 222 74 note 0 14 Inter empty 0 255 255 255 0 25 25 25 0 0 F#5;
#X obj 317 74 note 0 14 Inter empty 0 255 255 255 0 25 25 25 0 0 G5;
#X obj 407 74 note 0 14 Inter empty 0 255 255 255 0 25 25 25 0 0 G#5;
#X obj 502 74 note 0 14 Inter empty 0 255 255 255 0 25 25 25 0 0 A5;
#X obj 80 45 note 0 14 Inter empty 0 255 255 255 0 25 25 25 0 0 G#5;
#X obj 175 45 note 0 14 Inter empty 0 255 255 255 0 25 25 25 0 0 A5;
#X obj 269 45 note 0 14 Inter empty 0 255 255 255 0 25 25 25 0 0 A#5;
#X obj 364 45 note 0 14 Inter empty 0 255 255 255 0 25 25 25 0 0 B5;
#X obj 454 45 note 0 14 Inter empty 0 255 255 255 0 25 25 25 0 0 C6;
#X obj 549 45 note 0 14 Inter empty 0 255 255 255 0 25 25 25 0 0 C#6;
#X obj 33 20 note 0 14 Inter empty 0 255 255 255 0 25 25 25 0 0 B5;
#X obj 128 20 note 0 14 Inter empty 0 255 255 255 0 25 25 25 0 0 C6;
#X obj 222 20 note 0 14 Inter empty 0 255 255 255 0 25 25 25 0 0 C#6;
#X obj 317 20 note 0 14 Inter empty 0 255 255 255 0 25 25 25 0 0 D6;
#X obj 407 20 note 0 14 Inter empty 0 255 255 255 0 25 25 25 0 0 D#6;
#X obj 502 20 note 0 14 Inter empty 0 255 255 255 0 25 25 25 0 0 E6;
#X obj -191 -281 t f f;
#X obj -191 -71 router 65, f 167;
#X obj -191 -201 + 24;
#X obj -191 -231 +;
#X obj -131 -441 r transpose;
#X obj -131 -351 t b f;
#X obj -191 -311 loop 65;
#X obj -31 -351 t b a;
#X obj -31 -381 r accidentals;
#X obj -131 -411 int;
#X obj -131 -381 change;
#X connect 0 0 1 0 empty;
#X connect 1 0 111 0 empty;
#X connect 110 0 113 0 empty;
#X connect 110 1 111 1 empty;
#X connect 111 0 2 0 empty;
#X connect 111 1 3 0 empty;
#X connect 111 2 4 0 empty;
#X connect 111 3 5 0 empty;
#X connect 111 3 8 0 empty;
#X connect 111 4 6 0 empty;
#X connect 111 4 9 0 empty;
#X connect 111 5 7 0 empty;
#X connect 111 5 10 0 empty;
#X connect 111 6 11 0 empty;
#X connect 111 7 12 0 empty;
#X connect 111 7 14 0 empty;
#X connect 111 8 13 0 empty;
#X connect 111 8 15 0 empty;
#X connect 111 9 16 0 empty;
#X connect 111 10 17 0 empty;
#X connect 111 10 20 0 empty;
#X connect 111 11 18 0 empty;
#X connect 111 11 21 0 empty;
#X connect 111 12 19 0 empty;
#X connect 111 12 22 0 empty;
#X connect 111 13 23 0 empty;
#X connect 111 14 24 0 empty;
#X connect 111 14 26 0 empty;
#X connect 111 15 25 0 empty;
#X connect 111 15 27 0 empty;
#X connect 111 16 28 0 empty;
#X connect 111 17 29 0 empty;
#X connect 111 17 32 0 empty;
#X connect 111 18 30 0 empty;
#X connect 111 18 33 0 empty;
#X connect 111 19 31 0 empty;
#X connect 111 19 34 0 empty;
#X connect 111 20 35 0 empty;
#X connect 111 21 36 0 empty;
#X connect 111 21 38 0 empty;
#X connect 111 22 37 0 empty;
#X connect 111 22 39 0 empty;
#X connect 111 23 40 0 empty;
#X connect 111 24 41 0 empty;
#X connect 111 24 44 0 empty;
#X connect 111 25 42 0 empty;
#X connect 111 25 45 0 empty;
#X connect 111 26 43 0 empty;
#X connect 111 26 46 0 empty;
#X connect 111 27 47 0 empty;
#X connect 111 28 48 0 empty;
#X connect 111 28 50 0 empty;
#X connect 111 29 49 0 empty;
#X connect 111 29 51 0 empty;
#X connect 111 30 52 0 empty;
#X connect 111 31 53 0 empty;
#X connect 111 31 56 0 empty;
#X connect 111 32 54 0 empty;
#X connect 111 32 57 0 empty;
#X connect 111 33 55 0 empty;
#X connect 111 33 58 0 empty;
#X connect 111 34 59 0 empty;
#X connect 111 35 60 0 empty;
#X connect 111 35 62 0 empty;
#X connect 111 36 61 0 empty;
#X connect 111 36 63 0 empty;
#X connect 111 37 64 0 empty;
#X connect 111 38 65 0 empty;
#X connect 111 38 68 0 empty;
#X connect 111 39 66 0 empty;
#X connect 111 39 69 0 empty;
#X connect 111 40 67 0 empty;
#X connect 111 40 70 0 empty;
#X connect 111 41 71 0 empty;
#X connect 111 42 72 0 empty;
#X connect 111 42 74 0 empty;
#X connect 111 43 73 0 empty;
#X connect 111 43 75 0 empty;
#X connect 111 44 76 0 empty;
#X connect 111 45 77 0 empty;
#X connect 111 45 80 0 empty;
#X connect 111 46 78 0 empty;
#X connect 111 46 81 0 empty;
#X connect 111 47 79 0 empty;
#X connect 111 47 82 0 empty;
#X connect 111 48 83 0 empty;
#X connect 111 49 84 0 empty;
#X connect 111 49 86 0 empty;
#X connect 111 50 85 0 empty;
#X connect 111 50 87 0 empty;
#X connect 111 51 88 0 empty;
#X connect 111 52 89 0 empty;
#X connect 111 52 92 0 empty;
#X connect 111 53 90 0 empty;
#X connect 111 53 93 0 empty;
#X connect 111 54 91 0 empty;
#X connect 111 54 94 0 empty;
#X connect 111 55 95 0 empty;
#X connect 111 56 96 0 empty;
#X connect 111 56 98 0 empty;
#X connect 111 57 97 0 empty;
#X connect 111 57 99 0 empty;
#X connect 111 58 100 0 empty;
#X connect 111 59 101 0 empty;
#X connect 111 59 104 0 empty;
#X connect 111 60 102 0 empty;
#X connect 111 60 105 0 empty;
#X connect 111 61 103 0 empty;
#X connect 111 61 106 0 empty;
#X connect 111 62 107 0 empty;
#X connect 111 63 108 0 empty;
#X connect 111 64 109 0 empty;
#X connect 112 0 0 0 empty;
#X connect 113 0 112 0 empty;
#X connect 114 0 119 0 empty;
#X connect 115 0 116 0 empty;
#X connect 115 1 113 1 empty;
#X connect 116 0 110 0 empty;
#X connect 117 0 116 0 empty;
#X connect 117 1 0 0 empty;
#X connect 118 0 117 0 empty;
#X connect 119 0 120 0 empty;
#X connect 120 0 115 0 empty;
#X coords 0 1 100 -1 617 527 1 0 0;
#X restore -7 -17 graph;
#X msg 689 1089 0 \$1;
#X msg 779 1089 1 \$1;
#X msg 879 1089 2 \$1;
#X msg 979 1089 3 \$1;
#X msg 1069 1089 4 \$1;
#X msg 1159 1089 5 \$1;
#X msg 639 1059 3 \$1;
#X msg 739 1059 4 \$1;
#X msg 829 1059 5 \$1;
#X msg 929 1059 6 \$1;
#X msg 1019 1059 7 \$1;
#X msg 1109 1059 8 \$1;
#X msg 689 1029 7 \$1;
#X msg 779 1029 8 \$1;
#X msg 879 1029 9 \$1;
#X msg 979 1029 10 \$1;
#X msg 1069 1029 11 \$1;
#X msg 1159 1029 12 \$1;
#X msg 639 999 10 \$1;
#X msg 739 999 11 \$1;
#X msg 829 999 12 \$1;
#X msg 929 999 13 \$1;
#X msg 1019 999 14 \$1;
#X msg 1109 999 15 \$1;
#X msg 689 969 14 \$1;
#X msg 779 969 15 \$1;
#X msg 879 969 16 \$1;
#X msg 979 969 17 \$1;
#X msg 1069 969 18 \$1;
#X msg 1159 969 19 \$1;
#X msg 639 939 17 \$1;
#X msg 739 939 18 \$1;
#X msg 829 939 19 \$1;
#X msg 929 939 20 \$1;
#X msg 1019 939 21 \$1;
#X msg 1109 939 22 \$1;
#X msg 689 909 21 \$1;
#X msg 779 909 22 \$1;
#X msg 879 909 23 \$1;
#X msg 979 909 24 \$1;
#X msg 1069 909 25 \$1;
#X msg 1159 909 26 \$1;
#X msg 639 879 24 \$1;
#X msg 739 879 25 \$1;
#X msg 829 879 26 \$1;
#X msg 929 879 27 \$1;
#X msg 1019 879 28 \$1;
#X msg 1109 879 29 \$1;
#X msg 689 849 28 \$1;
#X msg 779 849 29 \$1;
#X msg 879 849 30 \$1;
#X msg 979 849 31 \$1;
#X msg 1069 849 32 \$1;
#X msg 1159 849 33 \$1;
#X msg 639 819 31 \$1;
#X msg 739 819 32 \$1;
#X msg 829 819 33 \$1;
#X msg 929 819 34 \$1;
#X msg 1019 819 35 \$1;
#X msg 1109 819 36 \$1;
#X msg 689 789 35 \$1;
#X msg 779 789 36 \$1;
#X msg 879 789 37 \$1;
#X msg 979 789 38 \$1;
#X msg 1069 789 39 \$1;
#X msg 1159 789 40 \$1;
#X msg 639 759 38 \$1;
#X msg 739 759 39 \$1;
#X msg 829 759 40 \$1;
#X msg 929 759 41 \$1;
#X msg 1019 759 42 \$1;
#X msg 1109 759 43 \$1;
#X msg 689 729 42 \$1;
#X msg 779 729 43 \$1;
#X msg 879 729 44 \$1;
#X msg 979 729 45 \$1;
#X msg 1069 729 46 \$1;
#X msg 1159 729 47 \$1;
#X msg 639 699 45 \$1;
#X msg 739 699 46 \$1;
#X msg 829 699 47 \$1;
#X msg 929 699 48 \$1;
#X msg 1019 699 49 \$1;
#X msg 1109 699 50 \$1;
#X msg 689 669 49 \$1;
#X msg 779 669 50 \$1;
#X msg 879 669 51 \$1;
#X msg 979 669 52 \$1;
#X msg 1069 669 53 \$1;
#X msg 1159 669 54 \$1;
#X msg 639 639 52 \$1;
#X msg 739 639 53 \$1;
#X msg 829 639 54 \$1;
#X msg 929 639 55 \$1;
#X msg 1019 639 56 \$1;
#X msg 1109 639 57 \$1;
#X msg 689 609 56 \$1;
#X msg 779 609 57 \$1;
#X msg 879 609 58 \$1;
#X msg 979 609 59 \$1;
#X msg 1069 609 60 \$1;
#X msg 1159 609 61 \$1;
#X msg 639 579 59 \$1;
#X msg 739 579 60 \$1;
#X msg 839 579 61 \$1;
#X msg 929 579 62 \$1;
#X msg 1019 579 63 \$1;
#X msg 1109 579 64 \$1;
#X obj 1139 1169 outlet;
#X obj 59 1059 butt;
#X obj 151 1059 butt;
#X obj 249 1059 butt;
#X obj 341 1059 butt;
#X obj 439 1059 butt;
#X obj 531 1059 butt;
#X obj 19 1029 butt;
#X obj 111 1029 butt;
#X obj 209 1029 butt;
#X obj 301 1029 butt;
#X obj 399 1029 butt;
#X obj 491 1029 butt;
#X obj 491 549 butt;
#X obj 399 549 butt;
#X obj 301 549 butt;
#X obj 209 549 butt;
#X obj 111 549 butt;
#X obj 19 549 butt;
#X obj 531 579 butt;
#X obj 439 579 butt;
#X obj 341 579 butt;
#X obj 249 579 butt;
#X obj 151 579 butt;
#X obj 59 579 butt;
#X obj 491 609 butt;
#X obj 399 609 butt;
#X obj 301 609 butt;
#X obj 209 609 butt;
#X obj 111 609 butt;
#X obj 19 609 butt;
#X obj 531 639 butt;
#X obj 439 639 butt;
#X obj 341 639 butt;
#X obj 249 639 butt;
#X obj 151 639 butt;
#X obj 59 639 butt;
#X obj 491 669 butt;
#X obj 399 669 butt;
#X obj 301 669 butt;
#X obj 209 669 butt;
#X obj 111 669 butt;
#X obj 19 669 butt;
#X obj 531 699 butt;
#X obj 439 699 butt;
#X obj 341 699 butt;
#X obj 249 699 butt;
#X obj 151 699 butt;
#X obj 59 699 butt;
#X obj 491 729 butt;
#X obj 399 729 butt;
#X obj 301 729 butt;
#X obj 209 729 butt;
#X obj 111 729 butt;
#X obj 19 729 butt;
#X obj 531 759 butt;
#X obj 439 759 butt;
#X obj 341 759 butt;
#X obj 249 759 butt;
#X obj 151 759 butt;
#X obj 59 759 butt;
#X obj 531 999 butt;
#X obj 439 999 butt;
#X obj 341 999 butt;
#X obj 249 999 butt;
#X obj 151 999 butt;
#X obj 59 999 butt;
#X obj 491 969 butt;
#X obj 399 969 butt;
#X obj 301 969 butt;
#X obj 209 969 butt;
#X obj 111 969 butt;
#X obj 19 969 butt;
#X obj 531 939 butt;
#X obj 439 939 butt;
#X obj 341 939 butt;
#X obj 249 939 butt;
#X obj 151 939 butt;
#X obj 59 939 butt;
#X obj 491 909 butt;
#X obj 399 909 butt;
#X obj 301 909 butt;
#X obj 209 909 butt;
#X obj 111 909 butt;
#X obj 19 909 butt;
#X obj 531 879 butt;
#X obj 439 879 butt;
#X obj 341 879 butt;
#X obj 249 879 butt;
#X obj 151 879 butt;
#X obj 59 879 butt;
#X obj 491 849 butt;
#X obj 399 849 butt;
#X obj 301 849 butt;
#X obj 209 849 butt;
#X obj 111 849 butt;
#X obj 19 849 butt;
#X obj 531 819 butt;
#X obj 439 819 butt;
#X obj 341 819 butt;
#X obj 249 819 butt;
#X obj 151 819 butt;
#X obj 59 819 butt;
#X obj 491 789 butt;
#X obj 399 789 butt;
#X obj 301 789 butt;
#X obj 209 789 butt;
#X obj 111 789 butt;
#X obj 19 789 butt;
#X connect 0 0 345 0 empty;
#X connect 1 0 351 0 empty;
#X connect 2 0 344 0 empty;
#X connect 3 0 350 0 empty;
#X connect 4 0 343 0 empty;
#X connect 5 0 349 0 empty;
#X connect 6 0 342 0 empty;
#X connect 7 0 348 0 empty;
#X connect 8 0 341 0 empty;
#X connect 9 0 347 0 empty;
#X connect 10 0 340 0 empty;
#X connect 11 0 346 0 empty;
#X connect 12 0 357 0 empty;
#X connect 13 0 363 0 empty;
#X connect 14 0 356 0 empty;
#X connect 15 0 362 0 empty;
#X connect 16 0 355 0 empty;
#X connect 17 0 361 0 empty;
#X connect 18 0 354 0 empty;
#X connect 19 0 360 0 empty;
#X connect 20 0 353 0 empty;
#X connect 21 0 359 0 empty;
#X connect 22 0 352 0 empty;
#X connect 23 0 358 0 empty;
#X connect 24 0 369 0 empty;
#X connect 25 0 375 0 empty;
#X connect 26 0 368 0 empty;
#X connect 27 0 374 0 empty;
#X connect 28 0 367 0 empty;
#X connect 29 0 373 0 empty;
#X connect 30 0 366 0 empty;
#X connect 31 0 372 0 empty;
#X connect 32 0 365 0 empty;
#X connect 33 0 371 0 empty;
#X connect 34 0 364 0 empty;
#X connect 35 0 370 0 empty;
#X connect 36 0 381 0 empty;
#X connect 37 0 387 0 empty;
#X connect 38 0 380 0 empty;
#X connect 39 0 386 0 empty;
#X connect 40 0 379 0 empty;
#X connect 41 0 385 0 empty;
#X connect 42 0 378 0 empty;
#X connect 43 0 384 0 empty;
#X connect 44 0 377 0 empty;
#X connect 45 0 383 0 empty;
#X connect 46 0 376 0 empty;
#X connect 47 0 382 0 empty;
#X connect 48 0 435 0 empty;
#X connect 49 0 429 0 empty;
#X connect 50 0 434 0 empty;
#X connect 51 0 428 0 empty;
#X connect 52 0 433 0 empty;
#X connect 53 0 427 0 empty;
#X connect 54 0 432 0 empty;
#X connect 55 0 426 0 empty;
#X connect 56 0 431 0 empty;
#X connect 57 0 425 0 empty;
#X connect 58 0 430 0 empty;
#X connect 59 0 424 0 empty;
#X connect 60 0 423 0 empty;
#X connect 61 0 417 0 empty;
#X connect 62 0 422 0 empty;
#X connect 63 0 416 0 empty;
#X connect 64 0 421 0 empty;
#X connect 65 0 415 0 empty;
#X connect 66 0 420 0 empty;
#X connect 67 0 414 0 empty;
#X connect 68 0 419 0 empty;
#X connect 69 0 413 0 empty;
#X connect 70 0 418 0 empty;
#X connect 71 0 412 0 empty;
#X connect 72 0 411 0 empty;
#X connect 73 0 405 0 empty;
#X connect 74 0 410 0 empty;
#X connect 75 0 404 0 empty;
#X connect 76 0 409 0 empty;
#X connect 77 0 403 0 empty;
#X connect 78 0 408 0 empty;
#X connect 79 0 402 0 empty;
#X connect 80 0 407 0 empty;
#X connect 81 0 401 0 empty;
#X connect 82 0 406 0 empty;
#X connect 83 0 400 0 empty;
#X connect 84 0 399 0 empty;
#X connect 85 0 393 0 empty;
#X connect 86 0 398 0 empty;
#X connect 87 0 392 0 empty;
#X connect 88 0 397 0 empty;
#X connect 89 0 391 0 empty;
#X connect 90 0 396 0 empty;
#X connect 91 0 390 0 empty;
#X connect 92 0 395 0 empty;
#X connect 93 0 389 0 empty;
#X connect 94 0 394 0 empty;
#X connect 95 0 388 0 empty;
#X connect 96 0 334 0 empty;
#X connect 97 0 328 0 empty;
#X connect 98 0 335 0 empty;
#X connect 99 0 329 0 empty;
#X connect 100 0 336 0 empty;
#X connect 101 0 330 0 empty;
#X connect 102 0 337 0 empty;
#X connect 103 0 331 0 empty;
#X connect 104 0 338 0 empty;
#X connect 105 0 332 0 empty;
#X connect 106 0 339 0 empty;
#X connect 107 0 333 0 empty;
#X connect 219 0 327 0 empty;
#X connect 220 0 327 0 empty;
#X connect 221 0 327 0 empty;
#X connect 222 0 327 0 empty;
#X connect 223 0 327 0 empty;
#X connect 224 0 327 0 empty;
#X connect 225 0 327 0 empty;
#X connect 226 0 327 0 empty;
#X connect 227 0 327 0 empty;
#X connect 228 0 327 0 empty;
#X connect 229 0 327 0 empty;
#X connect 230 0 327 0 empty;
#X connect 231 0 327 0 empty;
#X connect 232 0 327 0 empty;
#X connect 233 0 327 0 empty;
#X connect 234 0 327 0 empty;
#X connect 235 0 327 0 empty;
#X connect 236 0 327 0 empty;
#X connect 237 0 327 0 empty;
#X connect 238 0 327 0 empty;
#X connect 239 0 327 0 empty;
#X connect 240 0 327 0 empty;
#X connect 241 0 327 0 empty;
#X connect 242 0 327 0 empty;
#X connect 243 0 327 0 empty;
#X connect 244 0 327 0 empty;
#X connect 245 0 327 0 empty;
#X connect 246 0 327 0 empty;
#X connect 247 0 327 0 empty;
#X connect 248 0 327 0 empty;
#X connect 249 0 327 0 empty;
#X connect 250 0 327 0 empty;
#X connect 251 0 327 0 empty;
#X connect 252 0 327 0 empty;
#X connect 253 0 327 0 empty;
#X connect 254 0 327 0 empty;
#X connect 255 0 327 0 empty;
#X connect 256 0 327 0 empty;
#X connect 257 0 327 0 empty;
#X connect 258 0 327 0 empty;
#X connect 259 0 327 0 empty;
#X connect 260 0 327 0 empty;
#X connect 261 0 327 0 empty;
#X connect 262 0 327 0 empty;
#X connect 263 0 327 0 empty;
#X connect 264 0 327 0 empty;
#X connect 265 0 327 0 empty;
#X connect 266 0 327 0 empty;
#X connect 267 0 327 0 empty;
#X connect 268 0 327 0 empty;
#X connect 269 0 327 0 empty;
#X connect 270 0 327 0 empty;
#X connect 271 0 327 0 empty;
#X connect 272 0 327 0 empty;
#X connect 273 0 327 0 empty;
#X connect 274 0 327 0 empty;
#X connect 275 0 327 0 empty;
#X connect 276 0 327 0 empty;
#X connect 277 0 327 0 empty;
#X connect 278 0 327 0 empty;
#X connect 279 0 327 0 empty;
#X connect 280 0 327 0 empty;
#X connect 281 0 327 0 empty;
#X connect 282 0 327 0 empty;
#X connect 283 0 327 0 empty;
#X connect 284 0 327 0 empty;
#X connect 285 0 327 0 empty;
#X connect 286 0 327 0 empty;
#X connect 287 0 327 0 empty;
#X connect 288 0 327 0 empty;
#X connect 289 0 327 0 empty;
#X connect 290 0 327 0 empty;
#X connect 291 0 327 0 empty;
#X connect 292 0 327 0 empty;
#X connect 293 0 327 0 empty;
#X connect 294 0 327 0 empty;
#X connect 295 0 327 0 empty;
#X connect 296 0 327 0 empty;
#X connect 297 0 327 0 empty;
#X connect 298 0 327 0 empty;
#X connect 299 0 327 0 empty;
#X connect 300 0 327 0 empty;
#X connect 301 0 327 0 empty;
#X connect 302 0 327 0 empty;
#X connect 303 0 327 0 empty;
#X connect 304 0 327 0 empty;
#X connect 305 0 327 0 empty;
#X connect 306 0 327 0 empty;
#X connect 307 0 327 0 empty;
#X connect 308 0 327 0 empty;
#X connect 309 0 327 0 empty;
#X connect 310 0 327 0 empty;
#X connect 311 0 327 0 empty;
#X connect 312 0 327 0 empty;
#X connect 313 0 327 0 empty;
#X connect 314 0 327 0 empty;
#X connect 315 0 327 0 empty;
#X connect 316 0 327 0 empty;
#X connect 317 0 327 0 empty;
#X connect 318 0 327 0 empty;
#X connect 319 0 327 0 empty;
#X connect 320 0 327 0 empty;
#X connect 321 0 327 0 empty;
#X connect 322 0 327 0 empty;
#X connect 323 0 327 0 empty;
#X connect 324 0 327 0 empty;
#X connect 325 0 327 0 empty;
#X connect 326 0 327 0 empty;
#X connect 328 0 219 0 empty;
#X connect 328 1 212 0 empty;
#X connect 329 0 220 0 empty;
#X connect 329 1 214 0 empty;
#X connect 330 0 221 0 empty;
#X connect 330 1 213 0 empty;
#X connect 331 0 222 0 empty;
#X connect 331 1 215 0 empty;
#X connect 332 0 223 0 empty;
#X connect 332 1 217 0 empty;
#X connect 333 0 224 0 empty;
#X connect 333 1 216 0 empty;
#X connect 334 0 225 0 empty;
#X connect 334 1 206 0 empty;
#X connect 335 0 226 0 empty;
#X connect 335 1 207 0 empty;
#X connect 336 0 227 0 empty;
#X connect 336 1 208 0 empty;
#X connect 337 0 228 0 empty;
#X connect 337 1 209 0 empty;
#X connect 338 0 229 0 empty;
#X connect 338 1 210 0 empty;
#X connect 339 0 230 0 empty;
#X connect 339 1 211 0 empty;
#X connect 340 0 326 0 empty;
#X connect 340 1 119 0 empty;
#X connect 341 0 325 0 empty;
#X connect 341 1 118 0 empty;
#X connect 342 0 324 0 empty;
#X connect 342 1 116 0 empty;
#X connect 343 0 323 0 empty;
#X connect 343 1 113 0 empty;
#X connect 344 0 322 0 empty;
#X connect 344 1 112 0 empty;
#X connect 345 0 321 0 empty;
#X connect 345 1 110 0 empty;
#X connect 346 0 320 0 empty;
#X connect 346 1 120 0 empty;
#X connect 347 0 319 0 empty;
#X connect 347 1 121 0 empty;
#X connect 348 0 318 0 empty;
#X connect 348 1 117 0 empty;
#X connect 349 0 317 0 empty;
#X connect 349 1 114 0 empty;
#X connect 350 0 316 0 empty;
#X connect 350 1 115 0 empty;
#X connect 351 0 315 0 empty;
#X connect 351 1 111 0 empty;
#X connect 352 0 314 0 empty;
#X connect 352 1 131 0 empty;
#X connect 353 0 313 0 empty;
#X connect 353 1 130 0 empty;
#X connect 354 0 312 0 empty;
#X connect 354 1 128 0 empty;
#X connect 355 0 311 0 empty;
#X connect 355 1 125 0 empty;
#X connect 356 0 310 0 empty;
#X connect 356 1 124 0 empty;
#X connect 357 0 309 0 empty;
#X connect 357 1 122 0 empty;
#X connect 358 0 308 0 empty;
#X connect 358 1 132 0 empty;
#X connect 359 0 307 0 empty;
#X connect 359 1 133 0 empty;
#X connect 360 0 306 0 empty;
#X connect 360 1 129 0 empty;
#X connect 361 0 305 0 empty;
#X connect 361 1 126 0 empty;
#X connect 362 0 304 0 empty;
#X connect 362 1 127 0 empty;
#X connect 363 0 303 0 empty;
#X connect 363 1 123 0 empty;
#X connect 364 0 302 0 empty;
#X connect 364 1 143 0 empty;
#X connect 365 0 301 0 empty;
#X connect 365 1 142 0 empty;
#X connect 366 0 300 0 empty;
#X connect 366 1 140 0 empty;
#X connect 367 0 299 0 empty;
#X connect 367 1 137 0 empty;
#X connect 368 0 298 0 empty;
#X connect 368 1 136 0 empty;
#X connect 369 0 297 0 empty;
#X connect 369 1 134 0 empty;
#X connect 370 0 296 0 empty;
#X connect 370 1 144 0 empty;
#X connect 371 0 295 0 empty;
#X connect 371 1 145 0 empty;
#X connect 372 0 294 0 empty;
#X connect 372 1 141 0 empty;
#X connect 373 0 293 0 empty;
#X connect 373 1 138 0 empty;
#X connect 374 0 292 0 empty;
#X connect 374 1 139 0 empty;
#X connect 375 0 291 0 empty;
#X connect 375 1 135 0 empty;
#X connect 376 0 290 0 empty;
#X connect 376 1 155 0 empty;
#X connect 377 0 289 0 empty;
#X connect 377 1 154 0 empty;
#X connect 378 0 288 0 empty;
#X connect 378 1 152 0 empty;
#X connect 379 0 287 0 empty;
#X connect 379 1 149 0 empty;
#X connect 380 0 286 0 empty;
#X connect 380 1 148 0 empty;
#X connect 381 0 285 0 empty;
#X connect 381 1 146 0 empty;
#X connect 382 0 284 0 empty;
#X connect 382 1 156 0 empty;
#X connect 383 0 283 0 empty;
#X connect 383 1 157 0 empty;
#X connect 384 0 282 0 empty;
#X connect 384 1 153 0 empty;
#X connect 385 0 281 0 empty;
#X connect 385 1 150 0 empty;
#X connect 386 0 280 0 empty;
#X connect 386 1 151 0 empty;
#X connect 387 0 279 0 empty;
#X connect 387 1 147 0 empty;
#X connect 388 0 236 0 empty;
#X connect 388 1 204 0 empty;
#X connect 389 0 235 0 empty;
#X connect 389 1 205 0 empty;
#X connect 390 0 234 0 empty;
#X connect 390 1 201 0 empty;
#X connect 391 0 233 0 empty;
#X connect 391 1 198 0 empty;
#X connect 392 0 232 0 empty;
#X connect 392 1 199 0 empty;
#X connect 393 0 231 0 empty;
#X connect 393 1 195 0 empty;
#X connect 394 0 242 0 empty;
#X connect 394 1 203 0 empty;
#X connect 395 0 241 0 empty;
#X connect 395 1 202 0 empty;
#X connect 396 0 240 0 empty;
#X connect 396 1 200 0 empty;
#X connect 397 0 239 0 empty;
#X connect 397 1 197 0 empty;
#X connect 398 0 238 0 empty;
#X connect 398 1 196 0 empty;
#X connect 399 0 237 0 empty;
#X connect 399 1 194 0 empty;
#X connect 400 0 248 0 empty;
#X connect 400 1 192 0 empty;
#X connect 401 0 247 0 empty;
#X connect 401 1 193 0 empty;
#X connect 402 0 246 0 empty;
#X connect 402 1 189 0 empty;
#X connect 403 0 245 0 empty;
#X connect 403 1 186 0 empty;
#X connect 404 0 244 0 empty;
#X connect 404 1 187 0 empty;
#X connect 405 0 243 0 empty;
#X connect 405 1 183 0 empty;
#X connect 406 0 254 0 empty;
#X connect 406 1 191 0 empty;
#X connect 407 0 253 0 empty;
#X connect 407 1 190 0 empty;
#X connect 408 0 252 0 empty;
#X connect 408 1 188 0 empty;
#X connect 409 0 251 0 empty;
#X connect 409 1 185 0 empty;
#X connect 410 0 250 0 empty;
#X connect 410 1 184 0 empty;
#X connect 411 0 249 0 empty;
#X connect 411 1 182 0 empty;
#X connect 412 0 260 0 empty;
#X connect 412 1 180 0 empty;
#X connect 413 0 259 0 empty;
#X connect 413 1 181 0 empty;
#X connect 414 0 258 0 empty;
#X connect 414 1 177 0 empty;
#X connect 415 0 257 0 empty;
#X connect 415 1 174 0 empty;
#X connect 416 0 256 0 empty;
#X connect 416 1 175 0 empty;
#X connect 417 0 255 0 empty;
#X connect 417 1 171 0 empty;
#X connect 418 0 266 0 empty;
#X connect 418 1 179 0 empty;
#X connect 419 0 265 0 empty;
#X connect 419 1 178 0 empty;
#X connect 420 0 264 0 empty;
#X connect 420 1 176 0 empty;
#X connect 421 0 263 0 empty;
#X connect 421 1 173 0 empty;
#X connect 422 0 262 0 empty;
#X connect 422 1 172 0 empty;
#X connect 423 0 261 0 empty;
#X connect 423 1 170 0 empty;
#X connect 424 0 272 0 empty;
#X connect 424 1 168 0 empty;
#X connect 425 0 271 0 empty;
#X connect 425 1 169 0 empty;
#X connect 426 0 270 0 empty;
#X connect 426 1 165 0 empty;
#X connect 427 0 269 0 empty;
#X connect 427 1 162 0 empty;
#X connect 428 0 268 0 empty;
#X connect 428 1 163 0 empty;
#X connect 429 0 267 0 empty;
#X connect 429 1 159 0 empty;
#X connect 430 0 278 0 empty;
#X connect 430 1 167 0 empty;
#X connect 431 0 277 0 empty;
#X connect 431 1 166 0 empty;
#X connect 432 0 276 0 empty;
#X connect 432 1 164 0 empty;
#X connect 433 0 275 0 empty;
#X connect 433 1 161 0 empty;
#X connect 434 0 274 0 empty;
#X connect 434 1 160 0 empty;
#X connect 435 0 273 0 empty;
#X connect 435 1 158 0 empty;
#X coords 0 1 100 -1 611 511 1 0 0;
#X restore -1 -1 graph;
#X obj 619 139 s transpose;
#X obj 619 109 nbx 4 18 -1e+37 1e+37 0 0 empty empty empty 0 -8 0 10 #191919 #ffffff #ffffff 0 256;
#X msg 679 219 sharp;
#X msg 639 219 flat;
#X msg 619 189 chromatic;
#X obj 619 259 s accidentals;
#X obj 619 349 s color;
#X msg 689 309 #ff003f;
#X msg 619 309 #ffacab;
#X obj 1999 1159 outlet;
#N canvas 0 50 450 300 out 1;
#X obj 129 9 inlet;
#X obj 129 49 unpack f f;
#X obj 129 259 outlet;
#X obj 229 259 outlet;
#X obj 129 139 + 24;
#X obj 229 139 * 127;
#X text 274 138 make it midi velocity range;
#X text 9 138 make it a midi note;
#X obj 129 219 +;
#X obj 149 169 r transpose;
#X connect 0 0 1 0 empty;
#X connect 1 0 4 0 empty;
#X connect 1 1 5 0 empty;
#X connect 4 0 8 0 empty;
#X connect 5 0 3 0 empty;
#X connect 8 0 2 0 empty;
#X connect 9 0 8 1 empty;
#X restore -1 519 pd out;
#X obj -1 575 s owo-note;
#X obj 25 549 s owo-vel;
#X connect 0 0 11 0 empty;
#X connect 2 0 1 0 empty;
#X connect 3 0 6 0 empty;
#X connect 4 0 6 0 empty;
#X connect 5 0 6 0 empty;
#X connect 8 0 7 0 empty;
#X connect 9 0 7 0 empty;
#X connect 11 0 12 0 empty;
#X connect 11 1 13 0 empty;
