#N canvas 827 239 527 378 12;
#X text 799 628 tomara;
#X obj -381 609 *~;
#X obj -311 609 *~;
#X obj -241 609 *~;
#X obj -171 609 *~;
#X obj -101 609 *~;
#X obj -31 609 *~;
#X obj 39 609 *~;
#X obj 109 609 *~;
#X obj -381 689 *~;
#X obj -311 689 *~;
#X obj -241 689 *~;
#X obj -171 689 *~;
#X obj -101 689 *~;
#X obj -31 689 *~;
#X obj 39 689 *~;
#X obj 109 689 *~;
#X obj -531 569 inlet~;
#X obj -521 649 inlet~;
#X obj -511 719 inlet~;
#X obj -501 789 inlet~;
#X obj -411 1159 outlet~;
#X obj -341 1159 outlet~;
#X obj -271 1159 outlet~;
#X obj -201 1159 outlet~;
#X obj 19 99 nbx 6 18 -1e+37 1e+37 0 0 empty empty empty 0 -8 0 10 #191919 #d4d4d4 #d4d4d4 0 256;
#X obj 89 99 nbx 6 18 -1e+37 1e+37 0 0 empty empty empty 0 -8 0 10 #191919 #d4d4d4 #d4d4d4 0 256;
#X obj 159 99 nbx 6 18 -1e+37 1e+37 0 0 empty empty empty 0 -8 0 10 #191919 #d4d4d4 #d4d4d4 0 256;
#X obj 229 99 nbx 6 18 -1e+37 1e+37 0 0 empty empty empty 0 -8 0 10 #191919 #d4d4d4 #d4d4d4 0 256;
#X obj 299 99 nbx 6 18 -1e+37 1e+37 0 0 empty empty empty 0 -8 0 10 #191919 #d4d4d4 #d4d4d4 0 256;
#X obj 369 99 nbx 6 18 -1e+37 1e+37 0 0 empty empty empty 0 -8 0 10 #191919 #d4d4d4 #d4d4d4 0 256;
#X obj 439 99 nbx 6 18 -1e+37 1e+37 0 0 empty empty empty 0 -8 0 10 #191919 #d4d4d4 #d4d4d4 0 256;
#X obj 509 99 nbx 6 18 -1e+37 1e+37 0 0 empty empty empty 0 -8 0 10 #191919 #d4d4d4 #d4d4d4 0 256;
#X obj 19 139 nbx 6 18 -1e+37 1e+37 0 0 empty empty empty 0 -8 0 10 #191919 #d4d4d4 #d4d4d4 0 256;
#X obj 89 139 nbx 6 18 -1e+37 1e+37 0 0 empty empty empty 0 -8 0 10 #191919 #d4d4d4 #d4d4d4 0 256;
#X obj 159 139 nbx 6 18 -1e+37 1e+37 0 0 empty empty empty 0 -8 0 10 #191919 #d4d4d4 #d4d4d4 0 256;
#X obj 229 139 nbx 6 18 -1e+37 1e+37 0 0 empty empty empty 0 -8 0 10 #191919 #d4d4d4 #d4d4d4 0 256;
#X obj 299 139 nbx 6 18 -1e+37 1e+37 0 0 empty empty empty 0 -8 0 10 #191919 #d4d4d4 #d4d4d4 0 256;
#X obj 369 139 nbx 6 18 -1e+37 1e+37 0 0 empty empty empty 0 -8 0 10 #191919 #d4d4d4 #d4d4d4 0 256;
#X obj 439 139 nbx 6 18 -1e+37 1e+37 0 0 empty empty empty 0 -8 0 10 #191919 #d4d4d4 #d4d4d4 0 256;
#X obj 509 139 nbx 6 18 -1e+37 1e+37 0 0 empty empty empty 0 -8 0 10 #191919 #d4d4d4 #d4d4d4 0 256;
#X obj 379 414 nbx 4 18 0 1e+37 0 0 empty empty B -16 8 0 12 #191919 #d4d4d4 #d4d4d4 0 256;
#X obj 169 414 nbx 4 18 0 1e+37 0 0 empty empty A -13 8 0 12 #191919 #d4d4d4 #d4d4d4 0 256;
#X obj 240 414 hsl 111 17 0 1 0 0 empty empty empty -2 -8 0 10 #191919 #d4d4d4 #d4d4d4 0 1;
#X obj 254 444 nbx 4 18 0 1e+37 0 0 empty empty save\ slot -49 8 0 12 #191919 #d4d4d4 #d4d4d4 0 256;
#X obj 313 440 bng 25 250 50 0 empty empty save 27 12 0 12 #191919 #d4d4d4 #d4d4d4;
#X obj 409 869 text define levels_\$0;
#X obj 619 669 text set levels_\$0;
#X obj 678 489 text size levels_\$0;
#X obj 663 559 moses;
#X obj 690 589 until;
#X obj 649 459 t f f b;
#X obj 678 521 + 1;
#X obj 418 -421 text get levels_\$0;
#X obj 698 -421 text get levels_\$0;
#X obj 539 -301 until;
#X obj 539 -261 f;
#X obj 589 -261 + 1;
#X msg 659 -181 get \$1;
#X obj 659 -151 list store;
#X obj 379 -151 list store;
#X msg 379 -181 get \$1;
#X obj 559 -371 t b b f;
#X obj 559 -401 f;
#X obj 539 -221 t f f f;
#X obj 379 -111 *;
#X obj 659 -111 *;
#X obj 759 -211 t b f;
#X obj 759 -151 -;
#X msg 759 -181 1;
#X obj 541 -60 +;
#X obj 509 -21 pack f f;
#X msg 589 -301 1;
#X obj 669 -511 t b b f;
#X obj 389 -511 t b b f;
#X obj 418 -461 f;
#X obj 698 -461 f;
#X obj 469 789 savepanel;
#X msg 379 819 read \$1;
#X msg 469 819 write \$1;
#X obj 379 789 openpanel;
#X obj 527 459 bng 25 250 50 0 empty empty O 1 13 0 26 #191919 #d4d4d4 #d4d4d4;
#X obj 557 459 bng 25 250 50 0 empty empty S 3 13 0 26 #191919 #d4d4d4 #d4d4d4;
#X obj -371 569 dbtoa;
#X obj -301 569 dbtoa;
#X obj -231 569 dbtoa;
#X obj -161 569 dbtoa;
#X obj -91 569 dbtoa;
#X obj -21 569 dbtoa;
#X obj 49 569 dbtoa;
#X obj 119 569 dbtoa;
#X obj -371 649 dbtoa;
#X obj -301 649 dbtoa;
#X obj -231 649 dbtoa;
#X obj -161 649 dbtoa;
#X obj -91 649 dbtoa;
#X obj -21 649 dbtoa;
#X obj 49 649 dbtoa;
#X obj 119 649 dbtoa;
#X obj 393 736 t b b b;
#X obj 309 819 t b b a;
#X obj 19 259 nbx 6 18 -1e+37 1e+37 0 0 empty empty empty 0 -8 0 10 #191919 #d4d4d4 #d4d4d4 0 256;
#X obj 89 259 nbx 6 18 -1e+37 1e+37 0 0 empty empty empty 0 -8 0 10 #191919 #d4d4d4 #d4d4d4 0 256;
#X obj 159 259 nbx 6 18 -1e+37 1e+37 0 0 empty empty empty 0 -8 0 10 #191919 #d4d4d4 #d4d4d4 0 256;
#X obj 229 259 nbx 6 18 -1e+37 1e+37 0 0 empty empty empty 0 -8 0 10 #191919 #d4d4d4 #d4d4d4 0 256;
#X obj 19 299 nbx 6 18 -1e+37 1e+37 0 0 empty empty empty 0 -8 0 10 #191919 #d4d4d4 #d4d4d4 0 256;
#X obj 89 299 nbx 6 18 -1e+37 1e+37 0 0 empty empty empty 0 -8 0 10 #191919 #d4d4d4 #d4d4d4 0 256;
#X obj 159 299 nbx 6 18 -1e+37 1e+37 0 0 empty empty empty 0 -8 0 10 #191919 #d4d4d4 #d4d4d4 0 256;
#X obj 229 299 nbx 6 18 -1e+37 1e+37 0 0 empty empty empty 0 -8 0 10 #191919 #d4d4d4 #d4d4d4 0 256;
#X obj 19 339 nbx 6 18 -1e+37 1e+37 0 0 empty empty empty 0 -8 0 10 #191919 #d4d4d4 #d4d4d4 0 256;
#X obj 89 339 nbx 6 18 -1e+37 1e+37 0 0 empty empty empty 0 -8 0 10 #191919 #d4d4d4 #d4d4d4 0 256;
#X obj 159 339 nbx 6 18 -1e+37 1e+37 0 0 empty empty empty 0 -8 0 10 #191919 #d4d4d4 #d4d4d4 0 256;
#X obj 229 339 nbx 6 18 -1e+37 1e+37 0 0 empty empty empty 0 -8 0 10 #191919 #d4d4d4 #d4d4d4 0 256;
#X obj 19 379 nbx 6 18 -1e+37 1e+37 0 0 empty empty empty 0 -8 0 10 #191919 #d4d4d4 #d4d4d4 0 256;
#X obj 89 379 nbx 6 18 -1e+37 1e+37 0 0 empty empty empty 0 -8 0 10 #191919 #d4d4d4 #d4d4d4 0 256;
#X obj 159 379 nbx 6 18 -1e+37 1e+37 0 0 empty empty empty 0 -8 0 10 #191919 #d4d4d4 #d4d4d4 0 256;
#X obj 229 379 nbx 6 18 -1e+37 1e+37 0 0 empty empty empty 0 -8 0 10 #191919 #d4d4d4 #d4d4d4 0 256;
#X obj 19 179 nbx 6 18 -1e+37 1e+37 0 0 empty empty empty 0 -8 0 10 #191919 #d4d4d4 #d4d4d4 0 256;
#X obj 89 179 nbx 6 18 -1e+37 1e+37 0 0 empty empty empty 0 -8 0 10 #191919 #d4d4d4 #d4d4d4 0 256;
#X obj 159 179 nbx 6 18 -1e+37 1e+37 0 0 empty empty empty 0 -8 0 10 #191919 #d4d4d4 #d4d4d4 0 256;
#X obj 229 179 nbx 6 18 -1e+37 1e+37 0 0 empty empty empty 0 -8 0 10 #191919 #d4d4d4 #d4d4d4 0 256;
#X obj 19 219 nbx 6 18 -1e+37 1e+37 0 0 empty empty empty 0 -8 0 10 #191919 #d4d4d4 #d4d4d4 0 256;
#X obj 89 219 nbx 6 18 -1e+37 1e+37 0 0 empty empty empty 0 -8 0 10 #191919 #d4d4d4 #d4d4d4 0 256;
#X obj 159 219 nbx 6 18 -1e+37 1e+37 0 0 empty empty empty 0 -8 0 10 #191919 #d4d4d4 #d4d4d4 0 256;
#X obj 229 219 nbx 6 18 -1e+37 1e+37 0 0 empty empty empty 0 -8 0 10 #191919 #d4d4d4 #d4d4d4 0 256;
#X obj 299 179 nbx 6 18 -1e+37 1e+37 0 0 empty empty empty 0 -8 0 10 #191919 #d4d4d4 #d4d4d4 0 256;
#X obj 369 179 nbx 6 18 -1e+37 1e+37 0 0 empty empty empty 0 -8 0 10 #191919 #d4d4d4 #d4d4d4 0 256;
#X obj 439 179 nbx 6 18 -1e+37 1e+37 0 0 empty empty empty 0 -8 0 10 #191919 #d4d4d4 #d4d4d4 0 256;
#X obj 509 179 nbx 6 18 -1e+37 1e+37 0 0 empty empty empty 0 -8 0 10 #191919 #d4d4d4 #d4d4d4 0 256;
#X obj 299 219 nbx 6 18 -1e+37 1e+37 0 0 empty empty empty 0 -8 0 10 #191919 #d4d4d4 #d4d4d4 0 256;
#X obj 369 219 nbx 6 18 -1e+37 1e+37 0 0 empty empty empty 0 -8 0 10 #191919 #d4d4d4 #d4d4d4 0 256;
#X obj 439 219 nbx 6 18 -1e+37 1e+37 0 0 empty empty empty 0 -8 0 10 #191919 #d4d4d4 #d4d4d4 0 256;
#X obj 509 219 nbx 6 18 -1e+37 1e+37 0 0 empty empty empty 0 -8 0 10 #191919 #d4d4d4 #d4d4d4 0 256;
#X obj 299 259 nbx 6 18 -1e+37 1e+37 0 0 empty empty empty 0 -8 0 10 #191919 #d4d4d4 #d4d4d4 0 256;
#X obj 369 259 nbx 6 18 -1e+37 1e+37 0 0 empty empty empty 0 -8 0 10 #191919 #d4d4d4 #d4d4d4 0 256;
#X obj 439 259 nbx 6 18 -1e+37 1e+37 0 0 empty empty empty 0 -8 0 10 #191919 #d4d4d4 #d4d4d4 0 256;
#X obj 509 259 nbx 6 18 -1e+37 1e+37 0 0 empty empty empty 0 -8 0 10 #191919 #d4d4d4 #d4d4d4 0 256;
#X obj 299 299 nbx 6 18 -1e+37 1e+37 0 0 empty empty empty 0 -8 0 10 #191919 #d4d4d4 #d4d4d4 0 256;
#X obj 369 299 nbx 6 18 -1e+37 1e+37 0 0 empty empty empty 0 -8 0 10 #191919 #d4d4d4 #d4d4d4 0 256;
#X obj 439 299 nbx 6 18 -1e+37 1e+37 0 0 empty empty empty 0 -8 0 10 #191919 #d4d4d4 #d4d4d4 0 256;
#X obj 509 299 nbx 6 18 -1e+37 1e+37 0 0 empty empty empty 0 -8 0 10 #191919 #d4d4d4 #d4d4d4 0 256;
#X obj 299 339 nbx 6 18 -1e+37 1e+37 0 0 empty empty empty 0 -8 0 10 #191919 #d4d4d4 #d4d4d4 0 256;
#X obj 369 339 nbx 6 18 -1e+37 1e+37 0 0 empty empty empty 0 -8 0 10 #191919 #d4d4d4 #d4d4d4 0 256;
#X obj 439 339 nbx 6 18 -1e+37 1e+37 0 0 empty empty empty 0 -8 0 10 #191919 #d4d4d4 #d4d4d4 0 256;
#X obj 509 339 nbx 6 18 -1e+37 1e+37 0 0 empty empty empty 0 -8 0 10 #191919 #d4d4d4 #d4d4d4 0 256;
#X obj 299 379 nbx 6 18 -1e+37 1e+37 0 0 empty empty empty 0 -8 0 10 #191919 #d4d4d4 #d4d4d4 0 256;
#X obj 369 379 nbx 6 18 -1e+37 1e+37 0 0 empty empty empty 0 -8 0 10 #191919 #d4d4d4 #d4d4d4 0 256;
#X obj 439 379 nbx 6 18 -1e+37 1e+37 0 0 empty empty empty 0 -8 0 10 #191919 #d4d4d4 #d4d4d4 0 256;
#X obj 509 379 nbx 6 18 -1e+37 1e+37 0 0 empty empty empty 0 -8 0 10 #191919 #d4d4d4 #d4d4d4 0 256;
#X obj -131 1159 outlet~;
#X obj -61 1159 outlet~;
#X obj 9 1159 outlet~;
#X obj 79 1159 outlet~;
#X obj -491 869 inlet~;
#X obj -481 939 inlet~;
#X obj -471 1009 inlet~;
#X obj -461 1079 inlet~;
#X obj -381 759 *~;
#X obj -311 759 *~;
#X obj -241 759 *~;
#X obj -171 759 *~;
#X obj -101 759 *~;
#X obj -31 759 *~;
#X obj 39 759 *~;
#X obj 109 759 *~;
#X obj -381 829 *~;
#X obj -311 829 *~;
#X obj -241 829 *~;
#X obj -171 829 *~;
#X obj -101 829 *~;
#X obj -31 829 *~;
#X obj 39 829 *~;
#X obj 109 829 *~;
#X obj -371 719 dbtoa;
#X obj -301 719 dbtoa;
#X obj -231 719 dbtoa;
#X obj -161 719 dbtoa;
#X obj -91 719 dbtoa;
#X obj -21 719 dbtoa;
#X obj 49 719 dbtoa;
#X obj 119 719 dbtoa;
#X obj -371 789 dbtoa;
#X obj -301 789 dbtoa;
#X obj -231 789 dbtoa;
#X obj -161 789 dbtoa;
#X obj -91 789 dbtoa;
#X obj -21 789 dbtoa;
#X obj 49 789 dbtoa;
#X obj 119 789 dbtoa;
#X obj -381 909 *~;
#X obj -311 909 *~;
#X obj -241 909 *~;
#X obj -171 909 *~;
#X obj -101 909 *~;
#X obj -31 909 *~;
#X obj 39 909 *~;
#X obj 109 909 *~;
#X obj -381 979 *~;
#X obj -311 979 *~;
#X obj -241 979 *~;
#X obj -171 979 *~;
#X obj -101 979 *~;
#X obj -31 979 *~;
#X obj 39 979 *~;
#X obj 109 979 *~;
#X obj -371 869 dbtoa;
#X obj -301 869 dbtoa;
#X obj -231 869 dbtoa;
#X obj -161 869 dbtoa;
#X obj -91 869 dbtoa;
#X obj -21 869 dbtoa;
#X obj 49 869 dbtoa;
#X obj 119 869 dbtoa;
#X obj -371 939 dbtoa;
#X obj -301 939 dbtoa;
#X obj -231 939 dbtoa;
#X obj -161 939 dbtoa;
#X obj -91 939 dbtoa;
#X obj -21 939 dbtoa;
#X obj 49 939 dbtoa;
#X obj 119 939 dbtoa;
#X obj -381 1049 *~;
#X obj -311 1049 *~;
#X obj -241 1049 *~;
#X obj -171 1049 *~;
#X obj -101 1049 *~;
#X obj -31 1049 *~;
#X obj 39 1049 *~;
#X obj 109 1049 *~;
#X obj -381 1119 *~;
#X obj -311 1119 *~;
#X obj -241 1119 *~;
#X obj -171 1119 *~;
#X obj -101 1119 *~;
#X obj -31 1119 *~;
#X obj 39 1119 *~;
#X obj 109 1119 *~;
#X obj -371 1009 dbtoa;
#X obj -301 1009 dbtoa;
#X obj -231 1009 dbtoa;
#X obj -161 1009 dbtoa;
#X obj -91 1009 dbtoa;
#X obj -21 1009 dbtoa;
#X obj 49 1009 dbtoa;
#X obj 119 1009 dbtoa;
#X obj -371 1079 dbtoa;
#X obj -301 1079 dbtoa;
#X obj -231 1079 dbtoa;
#X obj -161 1079 dbtoa;
#X obj -91 1079 dbtoa;
#X obj -21 1079 dbtoa;
#X obj 49 1079 dbtoa;
#X obj 119 1079 dbtoa;
#X msg 539 -331 64;
#X obj 509 21 route 1 2 3 4 5 6 7 8 9 10 11 12 13 14 15 16 17 18 19 20 21 22 23 24 25 26 27 28 29 30 31 32 33 34 35 36 37 38 39 40 41 42 43 44 45 46 47 48 49 50 51 52 53 54 55 56 57 58 59 60 61 62 63 64;
#X obj 619 426 pack f f f f f f f f f f f f f f f f f f f f f f f f f f f f f f f f f f f f f f f f f f f f f f f f f f f f f f f f f f f f f f f f f;
#X msg 689 619 list -128 -128 -128 -128 -128 -128 -128 -128 -128 -128 -128 -128 -128 -128 -128 -128 -128 -128 -128 -128 -128 -128 -128 -128 -128 -128 -128 -128 -128 -128 -128 -128 -128 -128 -128 -128 -128 -128 -128 -128 -128 -128 -128 -128 -128 -128 -128 -128 -128 -128 -128 -128 -128 -128 -128 -128 -128 -128 -128 -128 -128 -128 -128 -128 -128;
#X msg 69 19 -128;
#X obj 69 -11 loadbang;
#X obj 416 -578 text size levels_\$0;
#X obj 389 -551 moses;
#X obj 389 -611 t f b;
#X obj 696 -578 text size levels_\$0;
#X obj 669 -551 moses;
#X obj 669 -611 t f b;
#X text 549 -462 void;
#X obj 559 -431 spigot;
#X obj 559 -531 > 1;
#X connect 1 0 21 0;
#X connect 2 0 22 0;
#X connect 3 0 23 0;
#X connect 4 0 24 0;
#X connect 5 0 149 0;
#X connect 6 0 150 0;
#X connect 7 0 151 0;
#X connect 8 0 152 0;
#X connect 9 0 21 0;
#X connect 10 0 22 0;
#X connect 11 0 23 0;
#X connect 12 0 24 0;
#X connect 13 0 149 0;
#X connect 14 0 150 0;
#X connect 15 0 151 0;
#X connect 16 0 152 0;
#X connect 17 0 1 0;
#X connect 17 0 2 0;
#X connect 17 0 3 0;
#X connect 17 0 4 0;
#X connect 17 0 8 0;
#X connect 17 0 5 0;
#X connect 17 0 6 0;
#X connect 17 0 7 0;
#X connect 17 1 100 0;
#X connect 18 0 13 0;
#X connect 18 0 16 0;
#X connect 18 0 15 0;
#X connect 18 0 14 0;
#X connect 18 0 9 0;
#X connect 18 0 12 0;
#X connect 18 0 11 0;
#X connect 18 0 10 0;
#X connect 19 0 164 0;
#X connect 19 0 163 0;
#X connect 19 0 158 0;
#X connect 19 0 159 0;
#X connect 19 0 160 0;
#X connect 19 0 161 0;
#X connect 19 0 162 0;
#X connect 19 0 157 0;
#X connect 20 0 168 0;
#X connect 20 0 169 0;
#X connect 20 0 170 0;
#X connect 20 0 171 0;
#X connect 20 0 172 0;
#X connect 20 0 167 0;
#X connect 20 0 166 0;
#X connect 20 0 165 0;
#X connect 25 0 83 0;
#X connect 25 0 255 1;
#X connect 26 0 84 0;
#X connect 26 0 255 2;
#X connect 27 0 85 0;
#X connect 27 0 255 3;
#X connect 28 0 86 0;
#X connect 28 0 255 4;
#X connect 29 0 87 0;
#X connect 29 0 255 5;
#X connect 30 0 88 0;
#X connect 30 0 255 6;
#X connect 31 0 89 0;
#X connect 31 0 255 7;
#X connect 32 0 90 0;
#X connect 32 0 255 8;
#X connect 33 0 91 0;
#X connect 33 0 255 9;
#X connect 34 0 92 0;
#X connect 34 0 255 10;
#X connect 35 0 93 0;
#X connect 35 0 255 11;
#X connect 36 0 94 0;
#X connect 36 0 255 12;
#X connect 37 0 95 0;
#X connect 37 0 255 13;
#X connect 38 0 96 0;
#X connect 38 0 255 14;
#X connect 39 0 97 0;
#X connect 39 0 255 15;
#X connect 40 0 98 0;
#X connect 40 0 255 16;
#X connect 41 0 264 0;
#X connect 42 0 261 0;
#X connect 43 0 266 0;
#X connect 44 0 51 0;
#X connect 45 0 255 0;
#X connect 48 0 52 0;
#X connect 49 1 50 0;
#X connect 50 0 256 0;
#X connect 51 0 47 1;
#X connect 51 1 49 0;
#X connect 51 2 48 0;
#X connect 52 0 49 1;
#X connect 53 0 60 1;
#X connect 54 0 59 1;
#X connect 55 0 56 0;
#X connect 56 0 57 0;
#X connect 56 0 64 0;
#X connect 57 0 56 1;
#X connect 58 0 59 0;
#X connect 59 0 66 0;
#X connect 60 0 65 0;
#X connect 61 0 60 0;
#X connect 62 0 253 0;
#X connect 62 1 72 0;
#X connect 62 2 66 1;
#X connect 62 2 67 0;
#X connect 63 0 62 0;
#X connect 64 0 71 0;
#X connect 64 1 61 0;
#X connect 64 2 58 0;
#X connect 65 0 70 0;
#X connect 66 0 70 1;
#X connect 67 0 69 0;
#X connect 67 1 68 1;
#X connect 68 0 65 1;
#X connect 69 0 68 0;
#X connect 70 0 71 1;
#X connect 71 0 254 0;
#X connect 72 0 56 1;
#X connect 73 0 266 0;
#X connect 73 1 75 0;
#X connect 73 2 76 0;
#X connect 74 0 266 0;
#X connect 74 1 76 0;
#X connect 74 2 75 0;
#X connect 75 0 53 0;
#X connect 76 0 54 0;
#X connect 77 0 79 0;
#X connect 78 0 46 0;
#X connect 79 0 46 0;
#X connect 80 0 78 0;
#X connect 81 0 99 0;
#X connect 82 0 77 0;
#X connect 83 0 1 1;
#X connect 84 0 2 1;
#X connect 85 0 3 1;
#X connect 86 0 4 1;
#X connect 87 0 5 1;
#X connect 88 0 6 1;
#X connect 89 0 7 1;
#X connect 90 0 8 1;
#X connect 91 0 9 1;
#X connect 92 0 10 1;
#X connect 93 0 11 1;
#X connect 94 0 12 1;
#X connect 95 0 13 1;
#X connect 96 0 14 1;
#X connect 97 0 15 1;
#X connect 98 0 16 1;
#X connect 99 0 42 0;
#X connect 99 1 41 0;
#X connect 99 2 80 0;
#X connect 100 0 42 0;
#X connect 100 1 41 0;
#X connect 100 2 46 0;
#X connect 101 0 205 0;
#X connect 101 0 255 33;
#X connect 102 0 206 0;
#X connect 102 0 255 34;
#X connect 103 0 207 0;
#X connect 103 0 255 35;
#X connect 104 0 208 0;
#X connect 104 0 255 36;
#X connect 105 0 213 0;
#X connect 105 0 255 41;
#X connect 106 0 214 0;
#X connect 106 0 255 42;
#X connect 107 0 215 0;
#X connect 107 0 255 43;
#X connect 108 0 216 0;
#X connect 108 0 255 44;
#X connect 109 0 237 0;
#X connect 109 0 255 49;
#X connect 110 0 238 0;
#X connect 110 0 255 50;
#X connect 111 0 239 0;
#X connect 111 0 255 51;
#X connect 112 0 240 0;
#X connect 112 0 255 52;
#X connect 113 0 245 0;
#X connect 113 0 255 57;
#X connect 114 0 246 0;
#X connect 114 0 255 58;
#X connect 115 0 247 0;
#X connect 115 0 255 59;
#X connect 116 0 248 0;
#X connect 116 0 255 60;
#X connect 117 0 173 0;
#X connect 117 0 255 17;
#X connect 118 0 174 0;
#X connect 118 0 255 18;
#X connect 119 0 175 0;
#X connect 119 0 255 19;
#X connect 120 0 176 0;
#X connect 120 0 255 20;
#X connect 121 0 181 0;
#X connect 121 0 255 25;
#X connect 122 0 182 0;
#X connect 122 0 255 26;
#X connect 123 0 183 0;
#X connect 123 0 255 27;
#X connect 124 0 184 0;
#X connect 124 0 255 28;
#X connect 125 0 177 0;
#X connect 125 0 255 21;
#X connect 126 0 178 0;
#X connect 126 0 255 22;
#X connect 127 0 179 0;
#X connect 127 0 255 23;
#X connect 128 0 180 0;
#X connect 128 0 255 24;
#X connect 129 0 185 0;
#X connect 129 0 255 29;
#X connect 130 0 186 0;
#X connect 130 0 255 30;
#X connect 131 0 187 0;
#X connect 131 0 255 31;
#X connect 132 0 188 0;
#X connect 132 0 255 32;
#X connect 133 0 209 0;
#X connect 133 0 255 37;
#X connect 134 0 210 0;
#X connect 134 0 255 38;
#X connect 135 0 211 0;
#X connect 135 0 255 39;
#X connect 136 0 212 0;
#X connect 136 0 255 40;
#X connect 137 0 217 0;
#X connect 137 0 255 45;
#X connect 138 0 218 0;
#X connect 138 0 255 46;
#X connect 139 0 219 0;
#X connect 139 0 255 47;
#X connect 140 0 220 0;
#X connect 140 0 255 48;
#X connect 141 0 241 0;
#X connect 141 0 255 53;
#X connect 142 0 242 0;
#X connect 142 0 255 54;
#X connect 143 0 243 0;
#X connect 143 0 255 55;
#X connect 144 0 244 0;
#X connect 144 0 255 56;
#X connect 145 0 249 0;
#X connect 145 0 255 61;
#X connect 146 0 250 0;
#X connect 146 0 255 62;
#X connect 147 0 251 0;
#X connect 147 0 255 63;
#X connect 148 0 252 0;
#X connect 148 0 255 64;
#X connect 153 0 196 0;
#X connect 153 0 194 0;
#X connect 153 0 195 0;
#X connect 153 0 193 0;
#X connect 153 0 192 0;
#X connect 153 0 191 0;
#X connect 153 0 190 0;
#X connect 153 0 189 0;
#X connect 154 0 199 0;
#X connect 154 0 200 0;
#X connect 154 0 201 0;
#X connect 154 0 202 0;
#X connect 154 0 203 0;
#X connect 154 0 204 0;
#X connect 154 0 198 0;
#X connect 154 0 197 0;
#X connect 155 0 221 0;
#X connect 155 0 222 0;
#X connect 155 0 223 0;
#X connect 155 0 224 0;
#X connect 155 0 225 0;
#X connect 155 0 226 0;
#X connect 155 0 227 0;
#X connect 155 0 228 0;
#X connect 156 0 229 0;
#X connect 156 0 230 0;
#X connect 156 0 231 0;
#X connect 156 0 232 0;
#X connect 156 0 233 0;
#X connect 156 0 234 0;
#X connect 156 0 235 0;
#X connect 156 0 236 0;
#X connect 157 0 21 0;
#X connect 158 0 22 0;
#X connect 159 0 23 0;
#X connect 160 0 24 0;
#X connect 161 0 149 0;
#X connect 162 0 150 0;
#X connect 163 0 151 0;
#X connect 164 0 152 0;
#X connect 165 0 21 0;
#X connect 166 0 22 0;
#X connect 167 0 23 0;
#X connect 168 0 24 0;
#X connect 169 0 149 0;
#X connect 170 0 150 0;
#X connect 171 0 151 0;
#X connect 172 0 152 0;
#X connect 173 0 157 1;
#X connect 174 0 158 1;
#X connect 175 0 159 1;
#X connect 176 0 160 1;
#X connect 177 0 161 1;
#X connect 178 0 162 1;
#X connect 179 0 163 1;
#X connect 180 0 164 1;
#X connect 181 0 165 1;
#X connect 182 0 166 1;
#X connect 183 0 167 1;
#X connect 184 0 168 1;
#X connect 185 0 169 1;
#X connect 186 0 170 1;
#X connect 187 0 171 1;
#X connect 188 0 172 1;
#X connect 189 0 21 0;
#X connect 190 0 22 0;
#X connect 191 0 23 0;
#X connect 192 0 24 0;
#X connect 193 0 149 0;
#X connect 194 0 150 0;
#X connect 195 0 151 0;
#X connect 196 0 152 0;
#X connect 197 0 21 0;
#X connect 198 0 22 0;
#X connect 199 0 23 0;
#X connect 200 0 24 0;
#X connect 201 0 149 0;
#X connect 202 0 150 0;
#X connect 203 0 151 0;
#X connect 204 0 152 0;
#X connect 205 0 189 1;
#X connect 206 0 190 1;
#X connect 207 0 191 1;
#X connect 208 0 192 1;
#X connect 209 0 193 1;
#X connect 210 0 194 1;
#X connect 211 0 195 1;
#X connect 212 0 196 1;
#X connect 213 0 197 1;
#X connect 214 0 198 1;
#X connect 215 0 199 1;
#X connect 216 0 200 1;
#X connect 217 0 201 1;
#X connect 218 0 202 1;
#X connect 219 0 203 1;
#X connect 220 0 204 1;
#X connect 221 0 21 0;
#X connect 222 0 22 0;
#X connect 223 0 23 0;
#X connect 224 0 24 0;
#X connect 225 0 149 0;
#X connect 226 0 150 0;
#X connect 227 0 151 0;
#X connect 228 0 152 0;
#X connect 229 0 21 0;
#X connect 230 0 22 0;
#X connect 231 0 23 0;
#X connect 232 0 24 0;
#X connect 233 0 149 0;
#X connect 234 0 150 0;
#X connect 235 0 151 0;
#X connect 236 0 152 0;
#X connect 237 0 221 1;
#X connect 238 0 222 1;
#X connect 239 0 223 1;
#X connect 240 0 224 1;
#X connect 241 0 225 1;
#X connect 242 0 226 1;
#X connect 243 0 227 1;
#X connect 244 0 228 1;
#X connect 245 0 229 1;
#X connect 246 0 230 1;
#X connect 247 0 231 1;
#X connect 248 0 232 1;
#X connect 249 0 233 1;
#X connect 250 0 234 1;
#X connect 251 0 235 1;
#X connect 252 0 236 1;
#X connect 253 0 55 0;
#X connect 254 0 25 0;
#X connect 254 1 26 0;
#X connect 254 2 27 0;
#X connect 254 3 28 0;
#X connect 254 4 29 0;
#X connect 254 5 30 0;
#X connect 254 6 31 0;
#X connect 254 7 32 0;
#X connect 254 8 33 0;
#X connect 254 9 34 0;
#X connect 254 10 35 0;
#X connect 254 11 36 0;
#X connect 254 12 37 0;
#X connect 254 13 38 0;
#X connect 254 14 39 0;
#X connect 254 15 40 0;
#X connect 254 16 117 0;
#X connect 254 17 118 0;
#X connect 254 18 119 0;
#X connect 254 19 120 0;
#X connect 254 20 125 0;
#X connect 254 21 126 0;
#X connect 254 22 127 0;
#X connect 254 23 128 0;
#X connect 254 24 121 0;
#X connect 254 25 122 0;
#X connect 254 26 123 0;
#X connect 254 27 124 0;
#X connect 254 28 129 0;
#X connect 254 29 130 0;
#X connect 254 30 131 0;
#X connect 254 31 132 0;
#X connect 254 32 101 0;
#X connect 254 33 102 0;
#X connect 254 34 103 0;
#X connect 254 35 104 0;
#X connect 254 36 133 0;
#X connect 254 37 134 0;
#X connect 254 38 135 0;
#X connect 254 39 136 0;
#X connect 254 40 105 0;
#X connect 254 41 106 0;
#X connect 254 42 107 0;
#X connect 254 43 108 0;
#X connect 254 44 137 0;
#X connect 254 45 138 0;
#X connect 254 46 139 0;
#X connect 254 47 140 0;
#X connect 254 48 109 0;
#X connect 254 49 110 0;
#X connect 254 50 111 0;
#X connect 254 51 112 0;
#X connect 254 52 141 0;
#X connect 254 53 142 0;
#X connect 254 54 143 0;
#X connect 254 55 144 0;
#X connect 254 56 113 0;
#X connect 254 57 114 0;
#X connect 254 58 115 0;
#X connect 254 59 116 0;
#X connect 254 60 145 0;
#X connect 254 61 146 0;
#X connect 254 62 147 0;
#X connect 254 63 148 0;
#X connect 255 0 47 0;
#X connect 256 0 47 0;
#X connect 257 0 25 0;
#X connect 257 0 26 0;
#X connect 257 0 33 0;
#X connect 257 0 34 0;
#X connect 257 0 27 0;
#X connect 257 0 35 0;
#X connect 257 0 28 0;
#X connect 257 0 29 0;
#X connect 257 0 30 0;
#X connect 257 0 31 0;
#X connect 257 0 32 0;
#X connect 257 0 36 0;
#X connect 257 0 37 0;
#X connect 257 0 38 0;
#X connect 257 0 39 0;
#X connect 257 0 40 0;
#X connect 257 0 101 0;
#X connect 257 0 102 0;
#X connect 257 0 103 0;
#X connect 257 0 104 0;
#X connect 257 0 105 0;
#X connect 257 0 106 0;
#X connect 257 0 107 0;
#X connect 257 0 108 0;
#X connect 257 0 117 0;
#X connect 257 0 118 0;
#X connect 257 0 119 0;
#X connect 257 0 120 0;
#X connect 257 0 121 0;
#X connect 257 0 122 0;
#X connect 257 0 123 0;
#X connect 257 0 124 0;
#X connect 257 0 125 0;
#X connect 257 0 126 0;
#X connect 257 0 127 0;
#X connect 257 0 128 0;
#X connect 257 0 129 0;
#X connect 257 0 130 0;
#X connect 257 0 131 0;
#X connect 257 0 132 0;
#X connect 257 0 133 0;
#X connect 257 0 134 0;
#X connect 257 0 135 0;
#X connect 257 0 136 0;
#X connect 257 0 137 0;
#X connect 257 0 138 0;
#X connect 257 0 139 0;
#X connect 257 0 140 0;
#X connect 257 0 109 0;
#X connect 257 0 110 0;
#X connect 257 0 111 0;
#X connect 257 0 112 0;
#X connect 257 0 141 0;
#X connect 257 0 142 0;
#X connect 257 0 143 0;
#X connect 257 0 144 0;
#X connect 257 0 113 0;
#X connect 257 0 114 0;
#X connect 257 0 115 0;
#X connect 257 0 116 0;
#X connect 257 0 145 0;
#X connect 257 0 146 0;
#X connect 257 0 147 0;
#X connect 257 0 148 0;
#X connect 258 0 257 0;
#X connect 259 0 260 1;
#X connect 259 0 267 0;
#X connect 260 0 74 0;
#X connect 261 0 260 0;
#X connect 261 1 259 0;
#X connect 262 0 263 1;
#X connect 262 0 267 0;
#X connect 263 0 73 0;
#X connect 264 0 263 0;
#X connect 264 1 262 0;
#X connect 266 0 63 0;
#X connect 267 0 266 1;
#X coords 0 0 1 1 581 401 2 6 88;
