#N canvas 827 239 527 378 12;
#X obj -281 309 *~;
#X obj -211 309 *~;
#X obj -141 309 *~;
#X obj -81 309 *~;
#X obj -281 379 *~;
#X obj -211 379 *~;
#X obj -141 379 *~;
#X obj -81 379 *~;
#X obj -281 449 *~;
#X obj -211 449 *~;
#X obj -141 449 *~;
#X obj -81 449 *~;
#X obj -281 519 *~;
#X obj -211 519 *~;
#X obj -141 519 *~;
#X obj -81 519 *~;
#X obj -421 269 inlet~;
#X obj -411 339 inlet~;
#X obj -401 409 inlet~;
#X obj -391 479 inlet~;
#X obj -321 569 outlet~;
#X obj -251 569 outlet~;
#X obj -181 569 outlet~;
#X obj -111 569 outlet~;
#X obj 9 9 nbx 4 18 -1e+37 1e+37 0 0 empty empty empty 0 -8 0 10 #191919 #d4d4d4 #d4d4d4 0 256;
#X obj 79 9 nbx 4 18 -1e+37 1e+37 0 0 empty empty empty 0 -8 0 10 #191919 #d4d4d4 #d4d4d4 0 256;
#X obj 149 9 nbx 4 18 -1e+37 1e+37 0 0 empty empty empty 0 -8 0 10 #191919 #d4d4d4 #d4d4d4 0 256;
#X obj 219 9 nbx 4 18 -1e+37 1e+37 0 0 empty empty empty 0 -8 0 10 #191919 #d4d4d4 #d4d4d4 0 256;
#X obj 9 49 nbx 4 18 -1e+37 1e+37 0 0 empty empty empty 0 -8 0 10 #191919 #d4d4d4 #d4d4d4 0 256;
#X obj 79 49 nbx 4 18 -1e+37 1e+37 0 0 empty empty empty 0 -8 0 10 #191919 #d4d4d4 #d4d4d4 0 256;
#X obj 149 49 nbx 4 18 -1e+37 1e+37 0 0 empty empty empty 0 -8 0 10 #191919 #d4d4d4 #d4d4d4 0 256;
#X obj 219 49 nbx 4 18 -1e+37 1e+37 0 0 empty empty empty 0 -8 0 10 #191919 #d4d4d4 #d4d4d4 0 256;
#X obj 9 89 nbx 4 18 -1e+37 1e+37 0 0 empty empty empty 0 -8 0 10 #191919 #d4d4d4 #d4d4d4 0 256;
#X obj 79 89 nbx 4 18 -1e+37 1e+37 0 0 empty empty empty 0 -8 0 10 #191919 #d4d4d4 #d4d4d4 0 256;
#X obj 149 89 nbx 4 18 -1e+37 1e+37 0 0 empty empty empty 0 -8 0 10 #191919 #d4d4d4 #d4d4d4 0 256;
#X obj 219 89 nbx 4 18 -1e+37 1e+37 0 0 empty empty empty 0 -8 0 10 #191919 #d4d4d4 #d4d4d4 0 256;
#X obj 9 129 nbx 4 18 -1e+37 1e+37 0 0 empty empty empty 0 -8 0 10 #191919 #d4d4d4 #d4d4d4 0 256;
#X obj 79 129 nbx 4 18 -1e+37 1e+37 0 0 empty empty empty 0 -8 0 10 #191919 #d4d4d4 #d4d4d4 0 256;
#X obj 149 129 nbx 4 18 -1e+37 1e+37 0 0 empty empty empty 0 -8 0 10 #191919 #d4d4d4 #d4d4d4 0 256;
#X obj 219 129 nbx 4 18 -1e+37 1e+37 0 0 empty empty empty 0 -8 0 10 #191919 #d4d4d4 #d4d4d4 0 256;
#X text 359 48 savestate;
#X text -131 178 dbtoa?;
#X obj 299 159 pack f f f f f f f f f f f f f f f f f;
#X obj 219 179 nbx 4 18 -1e+37 1e+37 0 0 empty empty empty 0 -8 0 10 #191919 #d4d4d4 #d4d4d4 0 256;
#X obj 9 179 nbx 4 18 -1e+37 1e+37 0 0 empty empty empty 0 -8 0 10 #191919 #d4d4d4 #d4d4d4 0 256;
#X obj 82 179 hsl 111 17 0 1 0 0 empty empty empty -2 -8 0 10 #191919 #d4d4d4 #d4d4d4 0 1;
#X obj 79 219 nbx 4 18 -1e+37 1e+37 0 0 empty empty empty 0 -8 0 10 #191919 #d4d4d4 #d4d4d4 0 256;
#X obj 149 215 bng 25 250 50 0 empty empty empty 17 7 0 10 #191919 #d4d4d4 #d4d4d4;
#X obj 299 449 text define levels_\$0;
#X obj 299 409 text set levels_\$0;
#X obj 358 269 text size levels_\$0;
#X obj 343 339 moses;
#X obj 370 369 until;
#X obj 329 239 t f f b;
#X obj 358 301 + 1;
#X obj -141 -211 text get levels_\$0;
#X obj 339 -211 text get levels_\$0;
#X obj -1 -151 list store;
#X obj 219 -151 list store;
#X obj -451 -31 nbx 4 18 -1e+37 1e+37 0 1 empty empty empty 0 -8 0 10 #191919 #d4d4d4 #d4d4d4 -2 256;
#X obj -351 -31 nbx 4 18 -1e+37 1e+37 0 1 empty empty empty 0 -8 0 10 #191919 #d4d4d4 #d4d4d4 7 256;
#X obj -431 59 *;
#X obj -401 -151 nbx 4 18 -1e+37 1e+37 0 0 empty empty empty 0 -8 0 10 #191919 #d4d4d4 #d4d4d4 0 256;
#X obj -401 9 t b f;
#X obj -301 9 t b f;
#X obj -341 59 *;
#X obj -391 189 nbx 4 18 -1e+37 1e+37 0 0 empty empty empty 0 -8 0 10 #191919 #d4d4d4 #d4d4d4 0 256;
#X obj -391 149 +;
#X obj -351 99 t b f;
#X obj -261 -91 t b f;
#X obj -271 -21 -;
#X msg -271 -61 1;
#X obj 72 -74 route 0 1 2 3 4 5 6 7;
#X msg 54 -115 1 3;
#X obj 71 -28 nbx 4 18 -1e+37 1e+37 0 0 empty empty empty 0 -8 0 10 #191919 #d4d4d4 #d4d4d4 0 256;
#X obj 123 -26 nbx 4 18 -1e+37 1e+37 0 0 empty empty empty 0 -8 0 10 #191919 #d4d4d4 #d4d4d4 0 256;
#X obj 19 -31 nbx 4 18 -1e+37 1e+37 0 0 empty empty empty 0 -8 0 10 #191919 #d4d4d4 #d4d4d4 0 256;
#X msg 105 -119 0 8;
#X obj 129 -201 until;
#X connect 0 0 20 0;
#X connect 1 0 21 0;
#X connect 2 0 22 0;
#X connect 3 0 23 0;
#X connect 4 0 20 0;
#X connect 5 0 21 0;
#X connect 6 0 22 0;
#X connect 7 0 23 0;
#X connect 8 0 20 0;
#X connect 9 0 21 0;
#X connect 10 0 22 0;
#X connect 11 0 23 0;
#X connect 12 0 20 0;
#X connect 13 0 21 0;
#X connect 14 0 22 0;
#X connect 15 0 23 0;
#X connect 16 0 0 0;
#X connect 16 0 1 0;
#X connect 16 0 2 0;
#X connect 16 0 3 0;
#X connect 17 0 4 0;
#X connect 17 0 5 0;
#X connect 17 0 6 0;
#X connect 17 0 7 0;
#X connect 18 0 11 0;
#X connect 18 0 10 0;
#X connect 18 0 9 0;
#X connect 18 0 8 0;
#X connect 19 0 15 0;
#X connect 19 0 14 0;
#X connect 19 0 13 0;
#X connect 19 0 12 0;
#X connect 24 0 0 1;
#X connect 24 0 42 1;
#X connect 25 0 1 1;
#X connect 25 0 42 2;
#X connect 26 0 2 1;
#X connect 26 0 42 3;
#X connect 27 0 3 1;
#X connect 27 0 42 4;
#X connect 28 0 4 1;
#X connect 28 0 42 5;
#X connect 29 0 5 1;
#X connect 29 0 42 6;
#X connect 30 0 6 1;
#X connect 30 0 42 7;
#X connect 31 0 7 1;
#X connect 31 0 42 8;
#X connect 32 0 8 1;
#X connect 32 0 42 9;
#X connect 33 0 9 1;
#X connect 33 0 42 10;
#X connect 34 0 10 1;
#X connect 34 0 42 11;
#X connect 35 0 11 1;
#X connect 35 0 42 12;
#X connect 36 0 12 1;
#X connect 36 0 42 13;
#X connect 37 0 13 1;
#X connect 37 0 42 14;
#X connect 38 0 14 1;
#X connect 38 0 42 15;
#X connect 39 0 15 1;
#X connect 39 0 42 16;
#X connect 42 0 49 0;
#X connect 43 0 56 0;
#X connect 44 0 55 0;
#X connect 46 0 53 0;
#X connect 47 0 42 0;
#X connect 50 0 54 0;
#X connect 51 1 52 0;
#X connect 52 0 49 0;
#X connect 53 0 49 1;
#X connect 53 1 51 0;
#X connect 53 2 50 0;
#X connect 54 0 51 1;
#X connect 55 0 57 1;
#X connect 56 0 58 1;
#X connect 59 0 61 0;
#X connect 60 0 65 0;
#X connect 61 0 67 0;
#X connect 62 0 63 0;
#X connect 62 0 69 0;
#X connect 63 0 61 0;
#X connect 63 1 61 1;
#X connect 64 0 65 0;
#X connect 64 1 65 1;
#X connect 65 0 68 0;
#X connect 67 0 66 0;
#X connect 68 0 67 0;
#X connect 68 1 67 1;
#X connect 69 0 71 0;
#X connect 69 1 70 1;
#X connect 70 0 64 0;
#X connect 71 0 70 0;
#X connect 72 0 76 0;
#X connect 72 1 74 0;
#X connect 72 2 75 0;
#X connect 73 0 72 0;
#X connect 77 0 72 0;
#X coords 0 0 1 1 280 259 2 -1 -1;
