#N canvas 827 239 527 378 12;
#X text 799 628 tomara;
#X obj -381 609 *~;
#X obj -311 609 *~;
#X obj -241 609 *~;
#X obj -171 609 *~;
#X obj -101 609 *~;
#X obj -31 609 *~;
#X obj 39 609 *~;
#X obj 109 609 *~;
#X obj -381 689 *~;
#X obj -311 689 *~;
#X obj -241 689 *~;
#X obj -171 689 *~;
#X obj -101 689 *~;
#X obj -31 689 *~;
#X obj 39 689 *~;
#X obj 109 689 *~;
#X obj -531 569 inlet~;
#X obj -521 649 inlet~;
#X obj -511 719 inlet~;
#X obj -501 789 inlet~;
#X obj -411 1159 outlet~;
#X obj -341 1159 outlet~;
#X obj -271 1159 outlet~;
#X obj -201 1159 outlet~;
#X obj 19 99 nbx 6 18 -1e+37 1e+37 0 1 empty empty empty 0 -8 0 10 #191919 #d4d4d4 #d4d4d4 -128 256;
#X obj 89 99 nbx 6 18 -1e+37 1e+37 0 1 empty empty empty 0 -8 0 10 #191919 #d4d4d4 #d4d4d4 -128 256;
#X obj 159 99 nbx 6 18 -1e+37 1e+37 0 1 empty empty empty 0 -8 0 10 #191919 #d4d4d4 #d4d4d4 -128 256;
#X obj 229 99 nbx 6 18 -1e+37 1e+37 0 1 empty empty empty 0 -8 0 10 #191919 #d4d4d4 #d4d4d4 -128 256;
#X obj 299 99 nbx 6 18 -1e+37 1e+37 0 1 empty empty empty 0 -8 0 10 #191919 #d4d4d4 #d4d4d4 -128 256;
#X obj 369 99 nbx 6 18 -1e+37 1e+37 0 1 empty empty empty 0 -8 0 10 #191919 #d4d4d4 #d4d4d4 -128 256;
#X obj 439 99 nbx 6 18 -1e+37 1e+37 0 1 empty empty empty 0 -8 0 10 #191919 #d4d4d4 #d4d4d4 -128 256;
#X obj 509 99 nbx 6 18 -1e+37 1e+37 0 1 empty empty empty 0 -8 0 10 #191919 #d4d4d4 #d4d4d4 -128 256;
#X obj 19 139 nbx 6 18 -1e+37 1e+37 0 1 empty empty empty 0 -8 0 10 #191919 #d4d4d4 #d4d4d4 -128 256;
#X obj 89 139 nbx 6 18 -1e+37 1e+37 0 1 empty empty empty 0 -8 0 10 #191919 #d4d4d4 #d4d4d4 -128 256;
#X obj 159 139 nbx 6 18 -1e+37 1e+37 0 1 empty empty empty 0 -8 0 10 #191919 #d4d4d4 #d4d4d4 -128 256;
#X obj 229 139 nbx 6 18 -1e+37 1e+37 0 1 empty empty empty 0 -8 0 10 #191919 #d4d4d4 #d4d4d4 -128 256;
#X obj 299 139 nbx 6 18 -1e+37 1e+37 0 1 empty empty empty 0 -8 0 10 #191919 #d4d4d4 #d4d4d4 -128 256;
#X obj 369 139 nbx 6 18 -1e+37 1e+37 0 1 empty empty empty 0 -8 0 10 #191919 #d4d4d4 #d4d4d4 -128 256;
#X obj 439 139 nbx 6 18 -1e+37 1e+37 0 1 empty empty empty 0 -8 0 10 #191919 #d4d4d4 #d4d4d4 -128 256;
#X obj 509 139 nbx 6 18 -1e+37 1e+37 0 1 empty empty empty 0 -8 0 10 #191919 #d4d4d4 #d4d4d4 -128 256;
#X obj 379 414 nbx 4 18 0 1e+37 0 0 empty empty B -16 8 0 12 #191919 #d4d4d4 #d4d4d4 0 256;
#X obj 169 414 nbx 4 18 0 1e+37 0 0 empty empty A -13 8 0 12 #191919 #d4d4d4 #d4d4d4 0 256;
#X obj 240 414 hsl 111 17 0 1 0 0 empty empty empty -2 -8 0 10 #191919 #d4d4d4 #d4d4d4 0 1;
#X obj 254 444 nbx 4 18 0 1e+37 0 0 empty empty save\ slot -49 8 0 12 #191919 #d4d4d4 #d4d4d4 0 256;
#X obj 313 440 bng 25 250 50 0 empty empty save 27 12 0 12 #191919 #d4d4d4 #d4d4d4;
#X obj 409 869 text define levels_\$0;
#X obj 619 729 text set levels_\$0;
#X obj 678 489 text size levels_\$0;
#X obj 663 559 moses;
#X obj 690 589 until;
#X obj 649 459 t f f b;
#X obj 678 521 + 1;
#X obj 728 1059 text get levels_\$0;
#X obj 1008 1059 text get levels_\$0;
#X obj 849 1179 until;
#X obj 849 1219 f;
#X obj 899 1219 + 1;
#X msg 969 1299 get \$1;
#X obj 969 1329 list store;
#X obj 689 1329 list store;
#X msg 689 1299 get \$1;
#X obj 869 1109 t b b f;
#X obj 869 1079 f;
#X obj 849 1259 t f f f;
#X obj 689 1379 *;
#X obj 969 1379 *;
#X obj 1069 1269 t b f;
#X obj 1069 1329 -;
#X msg 1069 1299 1;
#X obj 789 1419 +;
#X msg 899 1179 1;
#X obj 979 969 t b b f;
#X obj 699 969 t b b f;
#X obj 728 1019 f;
#X obj 1008 1019 f;
#X obj 469 789 savepanel;
#X msg 379 819 read \$1;
#X msg 469 819 write \$1;
#X obj 379 789 openpanel;
#X obj 527 459 bng 25 250 50 0 empty empty O 1 13 0 26 #191919 #d4d4d4 #d4d4d4;
#X obj 557 459 bng 25 250 50 0 empty empty S 3 13 0 26 #191919 #d4d4d4 #d4d4d4;
#X obj -371 569 dbtoa;
#X obj -301 569 dbtoa;
#X obj -231 569 dbtoa;
#X obj -161 569 dbtoa;
#X obj -91 569 dbtoa;
#X obj -21 569 dbtoa;
#X obj 49 569 dbtoa;
#X obj 119 569 dbtoa;
#X obj -371 649 dbtoa;
#X obj -301 649 dbtoa;
#X obj -231 649 dbtoa;
#X obj -161 649 dbtoa;
#X obj -91 649 dbtoa;
#X obj -21 649 dbtoa;
#X obj 49 649 dbtoa;
#X obj 119 649 dbtoa;
#X obj 393 736 t b b b;
#X obj 309 819 t b b a;
#X obj 19 259 nbx 6 18 -1e+37 1e+37 0 1 empty empty empty 0 -8 0 10 #191919 #d4d4d4 #d4d4d4 -128 256;
#X obj 89 259 nbx 6 18 -1e+37 1e+37 0 1 empty empty empty 0 -8 0 10 #191919 #d4d4d4 #d4d4d4 -128 256;
#X obj 159 259 nbx 6 18 -1e+37 1e+37 0 1 empty empty empty 0 -8 0 10 #191919 #d4d4d4 #d4d4d4 -128 256;
#X obj 229 259 nbx 6 18 -1e+37 1e+37 0 1 empty empty empty 0 -8 0 10 #191919 #d4d4d4 #d4d4d4 -128 256;
#X obj 19 299 nbx 6 18 -1e+37 1e+37 0 1 empty empty empty 0 -8 0 10 #191919 #d4d4d4 #d4d4d4 -128 256;
#X obj 89 299 nbx 6 18 -1e+37 1e+37 0 1 empty empty empty 0 -8 0 10 #191919 #d4d4d4 #d4d4d4 -128 256;
#X obj 159 299 nbx 6 18 -1e+37 1e+37 0 1 empty empty empty 0 -8 0 10 #191919 #d4d4d4 #d4d4d4 -128 256;
#X obj 229 299 nbx 6 18 -1e+37 1e+37 0 1 empty empty empty 0 -8 0 10 #191919 #d4d4d4 #d4d4d4 -128 256;
#X obj 19 339 nbx 6 18 -1e+37 1e+37 0 1 empty empty empty 0 -8 0 10 #191919 #d4d4d4 #d4d4d4 -128 256;
#X obj 89 339 nbx 6 18 -1e+37 1e+37 0 1 empty empty empty 0 -8 0 10 #191919 #d4d4d4 #d4d4d4 -128 256;
#X obj 159 339 nbx 6 18 -1e+37 1e+37 0 1 empty empty empty 0 -8 0 10 #191919 #d4d4d4 #d4d4d4 -128 256;
#X obj 229 339 nbx 6 18 -1e+37 1e+37 0 1 empty empty empty 0 -8 0 10 #191919 #d4d4d4 #d4d4d4 -128 256;
#X obj 19 379 nbx 6 18 -1e+37 1e+37 0 1 empty empty empty 0 -8 0 10 #191919 #d4d4d4 #d4d4d4 -128 256;
#X obj 89 379 nbx 6 18 -1e+37 1e+37 0 1 empty empty empty 0 -8 0 10 #191919 #d4d4d4 #d4d4d4 -128 256;
#X obj 159 379 nbx 6 18 -1e+37 1e+37 0 1 empty empty empty 0 -8 0 10 #191919 #d4d4d4 #d4d4d4 -128 256;
#X obj 229 379 nbx 6 18 -1e+37 1e+37 0 1 empty empty empty 0 -8 0 10 #191919 #d4d4d4 #d4d4d4 -128 256;
#X obj 19 179 nbx 6 18 -1e+37 1e+37 0 1 empty empty empty 0 -8 0 10 #191919 #d4d4d4 #d4d4d4 -128 256;
#X obj 89 179 nbx 6 18 -1e+37 1e+37 0 1 empty empty empty 0 -8 0 10 #191919 #d4d4d4 #d4d4d4 -128 256;
#X obj 159 179 nbx 6 18 -1e+37 1e+37 0 1 empty empty empty 0 -8 0 10 #191919 #d4d4d4 #d4d4d4 -128 256;
#X obj 229 179 nbx 6 18 -1e+37 1e+37 0 1 empty empty empty 0 -8 0 10 #191919 #d4d4d4 #d4d4d4 -128 256;
#X obj 19 219 nbx 6 18 -1e+37 1e+37 0 1 empty empty empty 0 -8 0 10 #191919 #d4d4d4 #d4d4d4 -128 256;
#X obj 89 219 nbx 6 18 -1e+37 1e+37 0 1 empty empty empty 0 -8 0 10 #191919 #d4d4d4 #d4d4d4 -128 256;
#X obj 159 219 nbx 6 18 -1e+37 1e+37 0 1 empty empty empty 0 -8 0 10 #191919 #d4d4d4 #d4d4d4 -128 256;
#X obj 229 219 nbx 6 18 -1e+37 1e+37 0 1 empty empty empty 0 -8 0 10 #191919 #d4d4d4 #d4d4d4 -128 256;
#X obj 299 179 nbx 6 18 -1e+37 1e+37 0 1 empty empty empty 0 -8 0 10 #191919 #d4d4d4 #d4d4d4 -128 256;
#X obj 369 179 nbx 6 18 -1e+37 1e+37 0 1 empty empty empty 0 -8 0 10 #191919 #d4d4d4 #d4d4d4 -128 256;
#X obj 439 179 nbx 6 18 -1e+37 1e+37 0 1 empty empty empty 0 -8 0 10 #191919 #d4d4d4 #d4d4d4 -128 256;
#X obj 509 179 nbx 6 18 -1e+37 1e+37 0 1 empty empty empty 0 -8 0 10 #191919 #d4d4d4 #d4d4d4 -128 256;
#X obj 299 219 nbx 6 18 -1e+37 1e+37 0 1 empty empty empty 0 -8 0 10 #191919 #d4d4d4 #d4d4d4 -128 256;
#X obj 369 219 nbx 6 18 -1e+37 1e+37 0 1 empty empty empty 0 -8 0 10 #191919 #d4d4d4 #d4d4d4 -128 256;
#X obj 439 219 nbx 6 18 -1e+37 1e+37 0 1 empty empty empty 0 -8 0 10 #191919 #d4d4d4 #d4d4d4 -128 256;
#X obj 509 219 nbx 6 18 -1e+37 1e+37 0 1 empty empty empty 0 -8 0 10 #191919 #d4d4d4 #d4d4d4 -128 256;
#X obj 299 259 nbx 6 18 -1e+37 1e+37 0 1 empty empty empty 0 -8 0 10 #191919 #d4d4d4 #d4d4d4 -128 256;
#X obj 369 259 nbx 6 18 -1e+37 1e+37 0 1 empty empty empty 0 -8 0 10 #191919 #d4d4d4 #d4d4d4 -128 256;
#X obj 439 259 nbx 6 18 -1e+37 1e+37 0 1 empty empty empty 0 -8 0 10 #191919 #d4d4d4 #d4d4d4 -128 256;
#X obj 509 259 nbx 6 18 -1e+37 1e+37 0 1 empty empty empty 0 -8 0 10 #191919 #d4d4d4 #d4d4d4 -128 256;
#X obj 299 299 nbx 6 18 -1e+37 1e+37 0 1 empty empty empty 0 -8 0 10 #191919 #d4d4d4 #d4d4d4 -128 256;
#X obj 369 299 nbx 6 18 -1e+37 1e+37 0 1 empty empty empty 0 -8 0 10 #191919 #d4d4d4 #d4d4d4 -128 256;
#X obj 439 299 nbx 6 18 -1e+37 1e+37 0 1 empty empty empty 0 -8 0 10 #191919 #d4d4d4 #d4d4d4 -128 256;
#X obj 509 299 nbx 6 18 -1e+37 1e+37 0 1 empty empty empty 0 -8 0 10 #191919 #d4d4d4 #d4d4d4 -128 256;
#X obj 299 339 nbx 6 18 -1e+37 1e+37 0 1 empty empty empty 0 -8 0 10 #191919 #d4d4d4 #d4d4d4 -128 256;
#X obj 369 339 nbx 6 18 -1e+37 1e+37 0 1 empty empty empty 0 -8 0 10 #191919 #d4d4d4 #d4d4d4 -128 256;
#X obj 439 339 nbx 6 18 -1e+37 1e+37 0 1 empty empty empty 0 -8 0 10 #191919 #d4d4d4 #d4d4d4 -128 256;
#X obj 509 339 nbx 6 18 -1e+37 1e+37 0 1 empty empty empty 0 -8 0 10 #191919 #d4d4d4 #d4d4d4 -128 256;
#X obj 299 379 nbx 6 18 -1e+37 1e+37 0 1 empty empty empty 0 -8 0 10 #191919 #d4d4d4 #d4d4d4 -128 256;
#X obj 369 379 nbx 6 18 -1e+37 1e+37 0 1 empty empty empty 0 -8 0 10 #191919 #d4d4d4 #d4d4d4 -128 256;
#X obj 439 379 nbx 6 18 -1e+37 1e+37 0 1 empty empty empty 0 -8 0 10 #191919 #d4d4d4 #d4d4d4 -128 256;
#X obj 509 379 nbx 6 18 -1e+37 1e+37 0 1 empty empty empty 0 -8 0 10 #191919 #d4d4d4 #d4d4d4 -128 256;
#X obj -131 1159 outlet~;
#X obj -61 1159 outlet~;
#X obj 9 1159 outlet~;
#X obj 79 1159 outlet~;
#X obj -491 869 inlet~;
#X obj -481 939 inlet~;
#X obj -471 1009 inlet~;
#X obj -461 1079 inlet~;
#X obj -381 759 *~;
#X obj -311 759 *~;
#X obj -241 759 *~;
#X obj -171 759 *~;
#X obj -101 759 *~;
#X obj -31 759 *~;
#X obj 39 759 *~;
#X obj 109 759 *~;
#X obj -381 829 *~;
#X obj -311 829 *~;
#X obj -241 829 *~;
#X obj -171 829 *~;
#X obj -101 829 *~;
#X obj -31 829 *~;
#X obj 39 829 *~;
#X obj 109 829 *~;
#X obj -371 719 dbtoa;
#X obj -301 719 dbtoa;
#X obj -231 719 dbtoa;
#X obj -161 719 dbtoa;
#X obj -91 719 dbtoa;
#X obj -21 719 dbtoa;
#X obj 49 719 dbtoa;
#X obj 119 719 dbtoa;
#X obj -371 789 dbtoa;
#X obj -301 789 dbtoa;
#X obj -231 789 dbtoa;
#X obj -161 789 dbtoa;
#X obj -91 789 dbtoa;
#X obj -21 789 dbtoa;
#X obj 49 789 dbtoa;
#X obj 119 789 dbtoa;
#X obj -381 909 *~;
#X obj -311 909 *~;
#X obj -241 909 *~;
#X obj -171 909 *~;
#X obj -101 909 *~;
#X obj -31 909 *~;
#X obj 39 909 *~;
#X obj 109 909 *~;
#X obj -381 979 *~;
#X obj -311 979 *~;
#X obj -241 979 *~;
#X obj -171 979 *~;
#X obj -101 979 *~;
#X obj -31 979 *~;
#X obj 39 979 *~;
#X obj 109 979 *~;
#X obj -371 869 dbtoa;
#X obj -301 869 dbtoa;
#X obj -231 869 dbtoa;
#X obj -161 869 dbtoa;
#X obj -91 869 dbtoa;
#X obj -21 869 dbtoa;
#X obj 49 869 dbtoa;
#X obj 119 869 dbtoa;
#X obj -371 939 dbtoa;
#X obj -301 939 dbtoa;
#X obj -231 939 dbtoa;
#X obj -161 939 dbtoa;
#X obj -91 939 dbtoa;
#X obj -21 939 dbtoa;
#X obj 49 939 dbtoa;
#X obj 119 939 dbtoa;
#X obj -381 1049 *~;
#X obj -311 1049 *~;
#X obj -241 1049 *~;
#X obj -171 1049 *~;
#X obj -101 1049 *~;
#X obj -31 1049 *~;
#X obj 39 1049 *~;
#X obj 109 1049 *~;
#X obj -381 1119 *~;
#X obj -311 1119 *~;
#X obj -241 1119 *~;
#X obj -171 1119 *~;
#X obj -101 1119 *~;
#X obj -31 1119 *~;
#X obj 39 1119 *~;
#X obj 109 1119 *~;
#X obj -371 1009 dbtoa;
#X obj -301 1009 dbtoa;
#X obj -231 1009 dbtoa;
#X obj -161 1009 dbtoa;
#X obj -91 1009 dbtoa;
#X obj -21 1009 dbtoa;
#X obj 49 1009 dbtoa;
#X obj 119 1009 dbtoa;
#X obj -371 1079 dbtoa;
#X obj -301 1079 dbtoa;
#X obj -231 1079 dbtoa;
#X obj -161 1079 dbtoa;
#X obj -91 1079 dbtoa;
#X obj -21 1079 dbtoa;
#X obj 49 1079 dbtoa;
#X obj 119 1079 dbtoa;
#X msg 849 1149 64;
#X obj 619 419 pack f f f f f f f f f f f f f f f f f f f f f f f f f f f f f f f f f f f f f f f f f f f f f f f f f f f f f f f f f f f f f f f f f;
#X msg 689 619 list -128 -128 -128 -128 -128 -128 -128 -128 -128 -128 -128 -128 -128 -128 -128 -128 -128 -128 -128 -128 -128 -128 -128 -128 -128 -128 -128 -128 -128 -128 -128 -128 -128 -128 -128 -128 -128 -128 -128 -128 -128 -128 -128 -128 -128 -128 -128 -128 -128 -128 -128 -128 -128 -128 -128 -128 -128 -128 -128 -128 -128 -128 -128 -128 -128;
#X obj 726 902 text size levels_\$0;
#X obj 699 929 moses;
#X obj 699 869 t f b;
#X obj 1006 902 text size levels_\$0;
#X obj 979 929 moses;
#X obj 979 869 t f b;
#X text 859 1018 void;
#X obj 869 1049 spigot;
#X obj 869 949 > 1;
#X obj -301 29 knob 54 -128 24 0 -128 from_k_1_1007 empty #191919 #606060 #aaff00 1 0 0 0 1 270 0 0 0;
#X obj -301 85 nbx 5 14 -128 24 0 0 from_k_1_1007 empty empty 0 -8 0 10 #191919 #d4d4d4 #d4d4d4 0 256;
#X msg -245 77 set \$1;
#X msg -245 31 set \$1;
#X obj 789 1489 s;
#X obj 878 1419 pack f \$0;
#X msg 878 1449 symbol to_k_\$1_\$2;
#X obj 636 179 r from_k_1_\$0;
#X obj 654 209 r from_k_2_\$0;
#X obj 672 239 r from_k_3_\$0;
#X obj 690 269 r from_k_4_\$0;
#X obj 708 299 r from_k_5_\$0;
#X obj 726 329 r from_k_6_\$0;
#X obj 744 359 r from_k_7_\$0;
#X obj 762 389 r from_k_8_\$0;
#X obj 780 179 r from_k_9_\$0;
#X obj 797 209 r from_k_10_\$0;
#X obj 815 239 r from_k_11_\$0;
#X obj 833 269 r from_k_12_\$0;
#X obj 851 299 r from_k_13_\$0;
#X obj 869 329 r from_k_14_\$0;
#X obj 887 359 r from_k_15_\$0;
#X obj 905 389 r from_k_16_\$0;
#X obj 923 179 r from_k_17_\$0;
#X obj 941 209 r from_k_18_\$0;
#X obj 958 239 r from_k_19_\$0;
#X obj 976 269 r from_k_20_\$0;
#X obj 994 299 r from_k_21_\$0;
#X obj 1012 329 r from_k_22_\$0;
#X obj 1030 359 r from_k_23_\$0;
#X obj 1048 389 r from_k_24_\$0;
#X obj 1066 179 r from_k_25_\$0;
#X obj 1084 209 r from_k_26_\$0;
#X obj 1102 239 r from_k_27_\$0;
#X obj 1119 269 r from_k_28_\$0;
#X obj 1137 299 r from_k_29_\$0;
#X obj 1155 329 r from_k_30_\$0;
#X obj 1173 359 r from_k_31_\$0;
#X obj 1191 389 r from_k_32_\$0;
#X obj 1209 179 r from_k_33_\$0;
#X obj 1227 209 r from_k_34_\$0;
#X obj 1245 239 r from_k_35_\$0;
#X obj 1263 269 r from_k_36_\$0;
#X obj 1280 299 r from_k_37_\$0;
#X obj 1298 329 r from_k_38_\$0;
#X obj 1316 359 r from_k_39_\$0;
#X obj 1334 389 r from_k_40_\$0;
#X obj 1352 179 r from_k_41_\$0;
#X obj 1370 209 r from_k_42_\$0;
#X obj 1388 239 r from_k_43_\$0;
#X obj 1406 269 r from_k_44_\$0;
#X obj 1424 299 r from_k_45_\$0;
#X obj 1441 329 r from_k_46_\$0;
#X obj 1459 359 r from_k_47_\$0;
#X obj 1477 389 r from_k_48_\$0;
#X obj 1495 179 r from_k_49_\$0;
#X obj 1513 209 r from_k_50_\$0;
#X obj 1531 239 r from_k_51_\$0;
#X obj 1549 269 r from_k_52_\$0;
#X obj 1567 299 r from_k_53_\$0;
#X obj 1585 329 r from_k_54_\$0;
#X obj 1602 359 r from_k_55_\$0;
#X obj 1620 389 r from_k_56_\$0;
#X obj 1638 179 r from_k_57_\$0;
#X obj 1656 209 r from_k_58_\$0;
#X obj 1674 239 r from_k_59_\$0;
#X obj 1692 269 r from_k_60_\$0;
#X obj 1710 299 r from_k_61_\$0;
#X obj 1728 329 r from_k_62_\$0;
#X obj 1746 359 r from_k_63_\$0;
#X obj 1764 389 r from_k_64_\$0;
#N canvas 0 50 450 300 color 0;
#X obj 209 29 inlet;
#X obj 210 235 outlet;
#X obj 229 159 colors;
#X msg 229 129 hsl \$1 100 50;
#X obj 229 69 + 128;
#X obj 229 99 * 2;
#X msg 229 189 fgcolor \$1;
#X connect 0 0 4 0;
#X connect 2 0 6 0;
#X connect 3 0 2 0;
#X connect 4 0 5 0;
#X connect 5 0 3 0;
#X connect 6 0 1 0;
#X restore -245 54 pd color;
#X obj -401 -71 \$0;
#X obj -398 -136 bng 25 250 50 0 empty empty empty 17 7 0 10 #191919 #d4d4d4 #d4d4d4;
#X msg -401 -41 send from_k_1_\$1;
#X connect 1 0 21 0;
#X connect 2 0 22 0;
#X connect 3 0 23 0;
#X connect 4 0 24 0;
#X connect 5 0 148 0;
#X connect 6 0 149 0;
#X connect 7 0 150 0;
#X connect 8 0 151 0;
#X connect 9 0 21 0;
#X connect 10 0 22 0;
#X connect 11 0 23 0;
#X connect 12 0 24 0;
#X connect 13 0 148 0;
#X connect 14 0 149 0;
#X connect 15 0 150 0;
#X connect 16 0 151 0;
#X connect 17 0 1 0;
#X connect 17 0 2 0;
#X connect 17 0 3 0;
#X connect 17 0 4 0;
#X connect 17 0 8 0;
#X connect 17 0 5 0;
#X connect 17 0 6 0;
#X connect 17 0 7 0;
#X connect 17 1 99 0;
#X connect 18 0 13 0;
#X connect 18 0 16 0;
#X connect 18 0 15 0;
#X connect 18 0 14 0;
#X connect 18 0 9 0;
#X connect 18 0 12 0;
#X connect 18 0 11 0;
#X connect 18 0 10 0;
#X connect 19 0 163 0;
#X connect 19 0 162 0;
#X connect 19 0 157 0;
#X connect 19 0 158 0;
#X connect 19 0 159 0;
#X connect 19 0 160 0;
#X connect 19 0 161 0;
#X connect 19 0 156 0;
#X connect 20 0 167 0;
#X connect 20 0 168 0;
#X connect 20 0 169 0;
#X connect 20 0 170 0;
#X connect 20 0 171 0;
#X connect 20 0 166 0;
#X connect 20 0 165 0;
#X connect 20 0 164 0;
#X connect 41 0 260 0;
#X connect 42 0 257 0;
#X connect 43 0 262 0;
#X connect 44 0 51 0;
#X connect 45 0 253 0;
#X connect 48 0 52 0;
#X connect 49 1 50 0;
#X connect 50 0 254 0;
#X connect 51 0 47 1;
#X connect 51 1 49 0;
#X connect 51 2 48 0;
#X connect 52 0 49 1;
#X connect 53 0 60 1;
#X connect 54 0 59 1;
#X connect 55 0 56 0;
#X connect 56 0 57 0;
#X connect 56 0 64 0;
#X connect 57 0 56 1;
#X connect 58 0 59 0;
#X connect 59 0 66 0;
#X connect 60 0 65 0;
#X connect 61 0 60 0;
#X connect 62 0 252 0;
#X connect 62 1 71 0;
#X connect 62 2 67 0 0.;
#X connect 62 2 66 1 0.;
#X connect 63 0 62 0;
#X connect 64 0 61 0;
#X connect 64 1 58 0;
#X connect 64 2 269 0;
#X connect 65 0 70 0 0.;
#X connect 66 0 70 1 0.;
#X connect 67 0 69 0;
#X connect 67 1 68 1;
#X connect 68 0 65 1 0.;
#X connect 69 0 68 0;
#X connect 70 0 268 0;
#X connect 71 0 56 1;
#X connect 72 0 262 0 0.;
#X connect 72 1 74 0 0.;
#X connect 72 2 75 0;
#X connect 73 0 262 0;
#X connect 73 1 75 0 0.;
#X connect 73 2 74 0;
#X connect 74 0 53 0;
#X connect 75 0 54 0;
#X connect 76 0 78 0;
#X connect 77 0 46 0;
#X connect 78 0 46 0;
#X connect 79 0 77 0;
#X connect 80 0 98 0;
#X connect 81 0 76 0;
#X connect 82 0 1 1;
#X connect 83 0 2 1;
#X connect 84 0 3 1;
#X connect 85 0 4 1;
#X connect 86 0 5 1;
#X connect 87 0 6 1;
#X connect 88 0 7 1;
#X connect 89 0 8 1;
#X connect 90 0 9 1;
#X connect 91 0 10 1;
#X connect 92 0 11 1;
#X connect 93 0 12 1;
#X connect 94 0 13 1;
#X connect 95 0 14 1;
#X connect 96 0 15 1;
#X connect 97 0 16 1;
#X connect 98 0 42 0;
#X connect 98 1 41 0;
#X connect 98 2 79 0;
#X connect 99 0 42 0;
#X connect 99 1 41 0;
#X connect 99 2 46 0;
#X connect 152 0 195 0;
#X connect 152 0 193 0;
#X connect 152 0 194 0;
#X connect 152 0 192 0;
#X connect 152 0 191 0;
#X connect 152 0 190 0;
#X connect 152 0 189 0;
#X connect 152 0 188 0;
#X connect 153 0 198 0;
#X connect 153 0 199 0;
#X connect 153 0 200 0;
#X connect 153 0 201 0;
#X connect 153 0 202 0;
#X connect 153 0 203 0;
#X connect 153 0 197 0;
#X connect 153 0 196 0;
#X connect 154 0 220 0;
#X connect 154 0 221 0;
#X connect 154 0 222 0;
#X connect 154 0 223 0;
#X connect 154 0 224 0;
#X connect 154 0 225 0;
#X connect 154 0 226 0;
#X connect 154 0 227 0;
#X connect 155 0 228 0;
#X connect 155 0 229 0;
#X connect 155 0 230 0;
#X connect 155 0 231 0;
#X connect 155 0 232 0;
#X connect 155 0 233 0;
#X connect 155 0 234 0;
#X connect 155 0 235 0;
#X connect 156 0 21 0;
#X connect 157 0 22 0;
#X connect 158 0 23 0;
#X connect 159 0 24 0;
#X connect 160 0 148 0;
#X connect 161 0 149 0;
#X connect 162 0 150 0;
#X connect 163 0 151 0;
#X connect 164 0 21 0;
#X connect 165 0 22 0;
#X connect 166 0 23 0;
#X connect 167 0 24 0;
#X connect 168 0 148 0;
#X connect 169 0 149 0;
#X connect 170 0 150 0;
#X connect 171 0 151 0;
#X connect 172 0 156 1;
#X connect 173 0 157 1;
#X connect 174 0 158 1;
#X connect 175 0 159 1;
#X connect 176 0 160 1;
#X connect 177 0 161 1;
#X connect 178 0 162 1;
#X connect 179 0 163 1;
#X connect 180 0 164 1;
#X connect 181 0 165 1;
#X connect 182 0 166 1;
#X connect 183 0 167 1;
#X connect 184 0 168 1;
#X connect 185 0 169 1;
#X connect 186 0 170 1;
#X connect 187 0 171 1;
#X connect 188 0 21 0;
#X connect 189 0 22 0;
#X connect 190 0 23 0;
#X connect 191 0 24 0;
#X connect 192 0 148 0;
#X connect 193 0 149 0;
#X connect 194 0 150 0;
#X connect 195 0 151 0;
#X connect 196 0 21 0;
#X connect 197 0 22 0;
#X connect 198 0 23 0;
#X connect 199 0 24 0;
#X connect 200 0 148 0;
#X connect 201 0 149 0;
#X connect 202 0 150 0;
#X connect 203 0 151 0;
#X connect 204 0 188 1;
#X connect 205 0 189 1;
#X connect 206 0 190 1;
#X connect 207 0 191 1;
#X connect 208 0 192 1;
#X connect 209 0 193 1;
#X connect 210 0 194 1;
#X connect 211 0 195 1;
#X connect 212 0 196 1;
#X connect 213 0 197 1;
#X connect 214 0 198 1;
#X connect 215 0 199 1;
#X connect 216 0 200 1;
#X connect 217 0 201 1;
#X connect 218 0 202 1;
#X connect 219 0 203 1;
#X connect 220 0 21 0;
#X connect 221 0 22 0;
#X connect 222 0 23 0;
#X connect 223 0 24 0;
#X connect 224 0 148 0;
#X connect 225 0 149 0;
#X connect 226 0 150 0;
#X connect 227 0 151 0;
#X connect 228 0 21 0;
#X connect 229 0 22 0;
#X connect 230 0 23 0;
#X connect 231 0 24 0;
#X connect 232 0 148 0;
#X connect 233 0 149 0;
#X connect 234 0 150 0;
#X connect 235 0 151 0;
#X connect 236 0 220 1;
#X connect 237 0 221 1;
#X connect 238 0 222 1;
#X connect 239 0 223 1;
#X connect 240 0 224 1;
#X connect 241 0 225 1;
#X connect 242 0 226 1;
#X connect 243 0 227 1;
#X connect 244 0 228 1;
#X connect 245 0 229 1;
#X connect 246 0 230 1;
#X connect 247 0 231 1;
#X connect 248 0 232 1;
#X connect 249 0 233 1;
#X connect 250 0 234 1;
#X connect 251 0 235 1;
#X connect 252 0 55 0;
#X connect 253 0 47 0;
#X connect 254 0 47 0;
#X connect 255 0 256 1;
#X connect 255 0 263 0;
#X connect 256 0 73 0;
#X connect 257 0 256 0;
#X connect 257 1 255 0;
#X connect 258 0 259 1;
#X connect 258 0 263 0;
#X connect 259 0 72 0;
#X connect 260 0 259 0;
#X connect 260 1 258 0;
#X connect 262 0 63 0;
#X connect 263 0 262 1;
#X connect 264 0 267 0;
#X connect 264 0 335 0;
#X connect 265 0 266 0;
#X connect 265 0 335 0;
#X connect 266 0 264 0;
#X connect 267 0 265 0;
#X connect 269 0 270 0;
#X connect 270 0 268 1 0.;
#X connect 271 0 253 1;
#X connect 272 0 253 2;
#X connect 273 0 253 3;
#X connect 274 0 253 4;
#X connect 275 0 253 5;
#X connect 276 0 253 6;
#X connect 277 0 253 7;
#X connect 278 0 253 8;
#X connect 279 0 253 9;
#X connect 280 0 253 10;
#X connect 281 0 253 11;
#X connect 282 0 253 12;
#X connect 283 0 253 13;
#X connect 284 0 253 14;
#X connect 285 0 253 15;
#X connect 286 0 253 16;
#X connect 287 0 253 17;
#X connect 288 0 253 18;
#X connect 289 0 253 19;
#X connect 290 0 253 20;
#X connect 291 0 253 21;
#X connect 292 0 253 22;
#X connect 293 0 253 23;
#X connect 294 0 253 24;
#X connect 295 0 253 25;
#X connect 296 0 253 26;
#X connect 297 0 253 27;
#X connect 298 0 253 28;
#X connect 299 0 253 29;
#X connect 300 0 253 30;
#X connect 301 0 253 31;
#X connect 302 0 253 32;
#X connect 303 0 253 33;
#X connect 304 0 253 34;
#X connect 305 0 253 35;
#X connect 306 0 253 36;
#X connect 307 0 253 37;
#X connect 308 0 253 38;
#X connect 309 0 253 39;
#X connect 310 0 253 40;
#X connect 311 0 253 41;
#X connect 312 0 253 42;
#X connect 313 0 253 43;
#X connect 314 0 253 44;
#X connect 315 0 253 45;
#X connect 316 0 253 46;
#X connect 317 0 253 47;
#X connect 318 0 253 48;
#X connect 319 0 253 49;
#X connect 320 0 253 50;
#X connect 321 0 253 51;
#X connect 322 0 253 52;
#X connect 323 0 253 53;
#X connect 324 0 253 54;
#X connect 325 0 253 55;
#X connect 326 0 253 56;
#X connect 327 0 253 57;
#X connect 328 0 253 58;
#X connect 329 0 253 59;
#X connect 330 0 253 60;
#X connect 331 0 253 61;
#X connect 332 0 253 62;
#X connect 333 0 253 63;
#X connect 334 0 253 64;
#X connect 335 0 264 0;
#X connect 336 0 338 0;
#X connect 337 0 336 0;
#X connect 338 0 264 0;
#X connect 338 0 265 0;
#X coords 0 0 1 1 581 401 2 6 88;
