#N canvas 827 239 527 378 12;
#X obj -281 309 *~;
#X obj -211 309 *~;
#X obj -141 309 *~;
#X obj -81 309 *~;
#X obj -281 379 *~;
#X obj -211 379 *~;
#X obj -141 379 *~;
#X obj -81 379 *~;
#X obj -281 449 *~;
#X obj -211 449 *~;
#X obj -141 449 *~;
#X obj -81 449 *~;
#X obj -281 519 *~;
#X obj -211 519 *~;
#X obj -141 519 *~;
#X obj -81 519 *~;
#X obj -421 269 inlet~;
#X obj -411 339 inlet~;
#X obj -401 409 inlet~;
#X obj -391 479 inlet~;
#X obj -321 569 outlet~;
#X obj -251 569 outlet~;
#X obj -181 569 outlet~;
#X obj -111 569 outlet~;
#X obj 9 9 nbx 4 18 -1e+37 1e+37 0 0 empty empty empty 0 -8 0 10 #191919 #d4d4d4 #d4d4d4 0 256;
#X obj 79 9 nbx 4 18 -1e+37 1e+37 0 0 empty empty empty 0 -8 0 10 #191919 #d4d4d4 #d4d4d4 0 256;
#X obj 149 9 nbx 4 18 -1e+37 1e+37 0 0 empty empty empty 0 -8 0 10 #191919 #d4d4d4 #d4d4d4 0 256;
#X obj 219 9 nbx 4 18 -1e+37 1e+37 0 0 empty empty empty 0 -8 0 10 #191919 #d4d4d4 #d4d4d4 0 256;
#X obj 9 49 nbx 4 18 -1e+37 1e+37 0 0 empty empty empty 0 -8 0 10 #191919 #d4d4d4 #d4d4d4 0 256;
#X obj 79 49 nbx 4 18 -1e+37 1e+37 0 0 empty empty empty 0 -8 0 10 #191919 #d4d4d4 #d4d4d4 0 256;
#X obj 149 49 nbx 4 18 -1e+37 1e+37 0 0 empty empty empty 0 -8 0 10 #191919 #d4d4d4 #d4d4d4 0 256;
#X obj 219 49 nbx 4 18 -1e+37 1e+37 0 0 empty empty empty 0 -8 0 10 #191919 #d4d4d4 #d4d4d4 0 256;
#X obj 9 89 nbx 4 18 -1e+37 1e+37 0 0 empty empty empty 0 -8 0 10 #191919 #d4d4d4 #d4d4d4 0 256;
#X obj 79 89 nbx 4 18 -1e+37 1e+37 0 0 empty empty empty 0 -8 0 10 #191919 #d4d4d4 #d4d4d4 0 256;
#X obj 149 89 nbx 4 18 -1e+37 1e+37 0 0 empty empty empty 0 -8 0 10 #191919 #d4d4d4 #d4d4d4 0 256;
#X obj 219 89 nbx 4 18 -1e+37 1e+37 0 0 empty empty empty 0 -8 0 10 #191919 #d4d4d4 #d4d4d4 0 256;
#X obj 9 129 nbx 4 18 -1e+37 1e+37 0 0 empty empty empty 0 -8 0 10 #191919 #d4d4d4 #d4d4d4 0 256;
#X obj 79 129 nbx 4 18 -1e+37 1e+37 0 0 empty empty empty 0 -8 0 10 #191919 #d4d4d4 #d4d4d4 0 256;
#X obj 149 129 nbx 4 18 -1e+37 1e+37 0 0 empty empty empty 0 -8 0 10 #191919 #d4d4d4 #d4d4d4 0 256;
#X obj 219 129 nbx 4 18 -1e+37 1e+37 0 0 empty empty empty 0 -8 0 10 #191919 #d4d4d4 #d4d4d4 0 256;
#X text 289 -12 savestate;
#X text -131 178 dbtoa?;
#X obj 299 199 pack f f f f f f f f f f f f f f f f f;
#X obj 219 179 nbx 4 18 -1e+37 1e+37 0 0 empty empty empty 0 -8 0 10 #191919 #d4d4d4 #d4d4d4 0 256;
#X obj 9 179 nbx 4 18 -1e+37 1e+37 0 0 empty empty empty 0 -8 0 10 #191919 #d4d4d4 #d4d4d4 0 256;
#X obj 82 179 hsl 111 17 0 1 0 0 empty empty empty -2 -8 0 10 #191919 #d4d4d4 #d4d4d4 0 1;
#X obj 79 219 nbx 4 18 -1e+37 1e+37 0 0 empty empty empty 0 -8 0 10 #191919 #d4d4d4 #d4d4d4 0 256;
#X obj 149 215 bng 25 250 50 0 empty empty empty 17 7 0 10 #191919 #d4d4d4 #d4d4d4;
#X obj 119 499 text define levels_\$0;
#X obj 299 449 text set levels_\$0;
#X obj 358 269 text size levels_\$0;
#X obj 343 339 moses;
#X obj 370 369 until;
#X obj 329 239 t f f b;
#X obj 358 301 + 1;
#X obj 428 -371 text get levels_\$0;
#X obj 708 -371 text get levels_\$0;
#X obj 549 -251 until;
#X obj 549 -211 f;
#X obj 599 -211 + 1;
#X msg 669 -131 get \$1;
#X obj 669 -101 list store;
#X msg 549 -281 16;
#X obj 389 -101 list store;
#X msg 389 -131 get \$1;
#X obj 569 -321 t b b f;
#X obj 569 -361 f;
#X msg 369 399 list 0 0 0 0 0 0 0 0 0 0 0 0 0 0 0 0 0;
#X obj 549 -171 t f f f;
#X obj 389 -61 *;
#X obj 669 -61 *;
#X obj 769 -161 t b f;
#X obj 769 -101 -;
#X msg 769 -131 1;
#X obj 551 -10 +;
#X obj 519 29 pack f f;
#X msg 599 -251 1;
#X obj 519 59 route 1 2 3 4 5 6 7 8 9 10 11 12 13 14 15 16;
#X obj 679 -461 t b b f;
#X obj 399 -461 t b b f;
#X obj 428 -411 f;
#X obj 708 -411 f;
#X text 529 -462 as below \, so below;
#X text 559 -122 dark;
#X obj 179 419 savepanel;
#X msg 89 449 read \$1;
#X msg 179 449 write \$1;
#X obj 89 419 openpanel;
#X obj 218 226 bng 25 250 50 0 empty empty O 1 13 0 26 #191919 #d4d4d4 #d4d4d4;
#X obj 248 226 bng 25 250 50 0 empty empty S 3 13 0 26 #191919 #d4d4d4 #d4d4d4;
#X connect 0 0 20 0;
#X connect 1 0 21 0;
#X connect 2 0 22 0;
#X connect 3 0 23 0;
#X connect 4 0 20 0;
#X connect 5 0 21 0;
#X connect 6 0 22 0;
#X connect 7 0 23 0;
#X connect 8 0 20 0;
#X connect 9 0 21 0;
#X connect 10 0 22 0;
#X connect 11 0 23 0;
#X connect 12 0 20 0;
#X connect 13 0 21 0;
#X connect 14 0 22 0;
#X connect 15 0 23 0;
#X connect 16 0 0 0;
#X connect 16 0 1 0;
#X connect 16 0 2 0;
#X connect 16 0 3 0;
#X connect 17 0 4 0;
#X connect 17 0 5 0;
#X connect 17 0 6 0;
#X connect 17 0 7 0;
#X connect 18 0 11 0;
#X connect 18 0 10 0;
#X connect 18 0 9 0;
#X connect 18 0 8 0;
#X connect 19 0 15 0;
#X connect 19 0 14 0;
#X connect 19 0 13 0;
#X connect 19 0 12 0;
#X connect 24 0 0 1;
#X connect 24 0 42 1;
#X connect 25 0 1 1;
#X connect 25 0 42 2;
#X connect 26 0 2 1;
#X connect 26 0 42 3;
#X connect 27 0 3 1;
#X connect 27 0 42 4;
#X connect 28 0 4 1;
#X connect 28 0 42 5;
#X connect 29 0 5 1;
#X connect 29 0 42 6;
#X connect 30 0 6 1;
#X connect 30 0 42 7;
#X connect 31 0 7 1;
#X connect 31 0 42 8;
#X connect 32 0 8 1;
#X connect 32 0 42 9;
#X connect 33 0 9 1;
#X connect 33 0 42 10;
#X connect 34 0 10 1;
#X connect 34 0 42 11;
#X connect 35 0 11 1;
#X connect 35 0 42 12;
#X connect 36 0 12 1;
#X connect 36 0 42 13;
#X connect 37 0 13 1;
#X connect 37 0 42 14;
#X connect 38 0 14 1;
#X connect 38 0 42 15;
#X connect 39 0 15 1;
#X connect 39 0 42 16;
#X connect 42 0 49 0;
#X connect 43 0 78 0;
#X connect 44 0 79 0;
#X connect 45 0 66 0;
#X connect 46 0 53 0;
#X connect 47 0 42 0;
#X connect 50 0 54 0;
#X connect 51 1 52 0;
#X connect 52 0 67 0;
#X connect 53 0 49 1;
#X connect 53 1 51 0;
#X connect 53 2 50 0;
#X connect 54 0 51 1;
#X connect 55 0 63 1;
#X connect 56 0 61 1;
#X connect 57 0 58 0;
#X connect 58 0 59 0;
#X connect 58 0 68 0;
#X connect 59 0 58 1;
#X connect 60 0 61 0;
#X connect 61 0 70 0;
#X connect 62 0 57 0;
#X connect 63 0 69 0;
#X connect 64 0 63 0;
#X connect 65 0 62 0;
#X connect 65 1 76 0;
#X connect 65 2 70 1;
#X connect 65 2 71 0;
#X connect 66 0 65 0;
#X connect 67 0 49 0;
#X connect 68 0 75 0;
#X connect 68 1 64 0;
#X connect 68 2 60 0;
#X connect 69 0 74 0;
#X connect 70 0 74 1;
#X connect 71 0 73 0;
#X connect 71 1 72 1;
#X connect 72 0 69 1;
#X connect 73 0 72 0;
#X connect 74 0 75 1;
#X connect 75 0 77 0;
#X connect 76 0 58 1;
#X connect 77 0 24 0;
#X connect 77 1 25 0;
#X connect 77 2 26 0;
#X connect 77 3 27 0;
#X connect 77 4 28 0;
#X connect 77 5 29 0;
#X connect 77 6 30 0;
#X connect 77 7 31 0;
#X connect 77 8 32 0;
#X connect 77 9 33 0;
#X connect 77 10 34 0;
#X connect 77 11 35 0;
#X connect 77 12 36 0;
#X connect 77 13 37 0;
#X connect 77 14 38 0;
#X connect 77 15 39 0;
#X connect 78 0 66 0;
#X connect 78 1 80 0;
#X connect 78 2 81 0;
#X connect 79 0 66 0;
#X connect 79 1 81 0;
#X connect 79 2 80 0;
#X connect 80 0 55 0;
#X connect 81 0 56 0;
#X connect 84 0 86 0;
#X connect 85 0 48 0;
#X connect 86 0 48 0;
#X connect 87 0 85 0;
#X connect 88 0 87 0;
#X connect 89 0 84 0;
#X coords 0 0 1 1 280 259 2 -1 -1;
