#N canvas 827 239 527 378 12;
#X text 799 628 tomara;
#X obj -381 609 *~;
#X obj -311 609 *~;
#X obj -241 609 *~;
#X obj -171 609 *~;
#X obj -101 609 *~;
#X obj -31 609 *~;
#X obj 39 609 *~;
#X obj 109 609 *~;
#X obj -381 689 *~;
#X obj -311 689 *~;
#X obj -241 689 *~;
#X obj -171 689 *~;
#X obj -101 689 *~;
#X obj -31 689 *~;
#X obj 39 689 *~;
#X obj 109 689 *~;
#X obj -531 569 inlet~;
#X obj -521 649 inlet~;
#X obj -511 719 inlet~;
#X obj -501 789 inlet~;
#X obj -411 1159 outlet~;
#X obj -341 1159 outlet~;
#X obj -271 1159 outlet~;
#X obj -201 1159 outlet~;
#X obj 19 99 nbx 4 18 -1e+37 1e+37 0 0 empty empty empty 0 -8 0 10 #191919 #d4d4d4 #d4d4d4 0 256;
#X obj 89 99 nbx 4 18 -1e+37 1e+37 0 0 empty empty empty 0 -8 0 10 #191919 #d4d4d4 #d4d4d4 0 256;
#X obj 159 99 nbx 4 18 -1e+37 1e+37 0 0 empty empty empty 0 -8 0 10 #191919 #d4d4d4 #d4d4d4 0 256;
#X obj 229 99 nbx 4 18 -1e+37 1e+37 0 0 empty empty empty 0 -8 0 10 #191919 #d4d4d4 #d4d4d4 0 256;
#X obj 299 99 nbx 4 18 -1e+37 1e+37 0 0 empty empty empty 0 -8 0 10 #191919 #d4d4d4 #d4d4d4 0 256;
#X obj 369 99 nbx 4 18 -1e+37 1e+37 0 0 empty empty empty 0 -8 0 10 #191919 #d4d4d4 #d4d4d4 0 256;
#X obj 439 99 nbx 4 18 -1e+37 1e+37 0 0 empty empty empty 0 -8 0 10 #191919 #d4d4d4 #d4d4d4 0 256;
#X obj 509 99 nbx 4 18 -1e+37 1e+37 0 0 empty empty empty 0 -8 0 10 #191919 #d4d4d4 #d4d4d4 0 256;
#X obj 19 139 nbx 4 18 -1e+37 1e+37 0 0 empty empty empty 0 -8 0 10 #191919 #d4d4d4 #d4d4d4 0 256;
#X obj 89 139 nbx 4 18 -1e+37 1e+37 0 0 empty empty empty 0 -8 0 10 #191919 #d4d4d4 #d4d4d4 0 256;
#X obj 159 139 nbx 4 18 -1e+37 1e+37 0 0 empty empty empty 0 -8 0 10 #191919 #d4d4d4 #d4d4d4 0 256;
#X obj 229 139 nbx 4 18 -1e+37 1e+37 0 0 empty empty empty 0 -8 0 10 #191919 #d4d4d4 #d4d4d4 0 256;
#X obj 299 139 nbx 4 18 -1e+37 1e+37 0 0 empty empty empty 0 -8 0 10 #191919 #d4d4d4 #d4d4d4 0 256;
#X obj 369 139 nbx 4 18 -1e+37 1e+37 0 0 empty empty empty 0 -8 0 10 #191919 #d4d4d4 #d4d4d4 0 256;
#X obj 439 139 nbx 4 18 -1e+37 1e+37 0 0 empty empty empty 0 -8 0 10 #191919 #d4d4d4 #d4d4d4 0 256;
#X obj 509 139 nbx 4 18 -1e+37 1e+37 0 0 empty empty empty 0 -8 0 10 #191919 #d4d4d4 #d4d4d4 0 256;
#X obj 369 429 nbx 4 18 0 1e+37 0 0 empty empty empty 0 -8 0 10 #191919 #d4d4d4 #d4d4d4 0 256;
#X obj 159 429 nbx 4 18 0 1e+37 0 0 empty empty empty 0 -8 0 10 #191919 #d4d4d4 #d4d4d4 0 256;
#X obj 232 429 hsl 111 17 0 1 0 0 empty empty empty -2 -8 0 10 #191919 #d4d4d4 #d4d4d4 0 1;
#X obj 229 469 nbx 4 18 0 1e+37 0 0 empty empty empty 0 -8 0 10 #191919 #d4d4d4 #d4d4d4 0 256;
#X obj 299 465 bng 25 250 50 0 empty empty empty 17 7 0 10 #191919 #d4d4d4 #d4d4d4;
#X obj 409 869 text define levels_\$0;
#X obj 619 669 text set levels_\$0;
#X obj 678 489 text size levels_\$0;
#X obj 663 559 moses;
#X obj 690 589 until;
#X obj 649 459 t f f b;
#X obj 678 521 + 1;
#X obj 418 -421 text get levels_\$0;
#X obj 698 -421 text get levels_\$0;
#X obj 539 -301 until;
#X obj 539 -261 f;
#X obj 589 -261 + 1;
#X msg 659 -181 get \$1;
#X obj 659 -151 list store;
#X obj 379 -151 list store;
#X msg 379 -181 get \$1;
#X obj 559 -371 t b b f;
#X obj 559 -411 f;
#X obj 539 -221 t f f f;
#X obj 379 -111 *;
#X obj 659 -111 *;
#X obj 759 -211 t b f;
#X obj 759 -151 -;
#X msg 759 -181 1;
#X obj 541 -60 +;
#X obj 509 -21 pack f f;
#X msg 589 -301 1;
#X obj 669 -511 t b b f;
#X obj 389 -511 t b b f;
#X obj 418 -461 f;
#X obj 698 -461 f;
#X text 549 -172 dark;
#X obj 469 789 savepanel;
#X msg 379 819 read \$1;
#X msg 469 819 write \$1;
#X obj 379 789 openpanel;
#X obj 508 486 bng 25 250 50 0 empty empty O 1 13 0 26 #191919 #d4d4d4 #d4d4d4;
#X obj 538 486 bng 25 250 50 0 empty empty S 3 13 0 26 #191919 #d4d4d4 #d4d4d4;
#X obj -371 569 dbtoa;
#X obj -301 569 dbtoa;
#X obj -231 569 dbtoa;
#X obj -161 569 dbtoa;
#X obj -91 569 dbtoa;
#X obj -21 569 dbtoa;
#X obj 49 569 dbtoa;
#X obj 119 569 dbtoa;
#X obj -371 649 dbtoa;
#X obj -301 649 dbtoa;
#X obj -231 649 dbtoa;
#X obj -161 649 dbtoa;
#X obj -91 649 dbtoa;
#X obj -21 649 dbtoa;
#X obj 49 649 dbtoa;
#X obj 119 649 dbtoa;
#X obj 393 736 t b b b;
#X obj 309 819 t b b a;
#X obj 19 259 nbx 4 18 -1e+37 1e+37 0 0 empty empty empty 0 -8 0 10 #191919 #d4d4d4 #d4d4d4 0 256;
#X obj 89 259 nbx 4 18 -1e+37 1e+37 0 0 empty empty empty 0 -8 0 10 #191919 #d4d4d4 #d4d4d4 0 256;
#X obj 159 259 nbx 4 18 -1e+37 1e+37 0 0 empty empty empty 0 -8 0 10 #191919 #d4d4d4 #d4d4d4 0 256;
#X obj 229 259 nbx 4 18 -1e+37 1e+37 0 0 empty empty empty 0 -8 0 10 #191919 #d4d4d4 #d4d4d4 0 256;
#X obj 19 299 nbx 4 18 -1e+37 1e+37 0 0 empty empty empty 0 -8 0 10 #191919 #d4d4d4 #d4d4d4 0 256;
#X obj 89 299 nbx 4 18 -1e+37 1e+37 0 0 empty empty empty 0 -8 0 10 #191919 #d4d4d4 #d4d4d4 0 256;
#X obj 159 299 nbx 4 18 -1e+37 1e+37 0 0 empty empty empty 0 -8 0 10 #191919 #d4d4d4 #d4d4d4 0 256;
#X obj 229 299 nbx 4 18 -1e+37 1e+37 0 0 empty empty empty 0 -8 0 10 #191919 #d4d4d4 #d4d4d4 0 256;
#X obj 19 339 nbx 4 18 -1e+37 1e+37 0 0 empty empty empty 0 -8 0 10 #191919 #d4d4d4 #d4d4d4 0 256;
#X obj 89 339 nbx 4 18 -1e+37 1e+37 0 0 empty empty empty 0 -8 0 10 #191919 #d4d4d4 #d4d4d4 0 256;
#X obj 159 339 nbx 4 18 -1e+37 1e+37 0 0 empty empty empty 0 -8 0 10 #191919 #d4d4d4 #d4d4d4 0 256;
#X obj 229 339 nbx 4 18 -1e+37 1e+37 0 0 empty empty empty 0 -8 0 10 #191919 #d4d4d4 #d4d4d4 0 256;
#X obj 19 379 nbx 4 18 -1e+37 1e+37 0 0 empty empty empty 0 -8 0 10 #191919 #d4d4d4 #d4d4d4 0 256;
#X obj 89 379 nbx 4 18 -1e+37 1e+37 0 0 empty empty empty 0 -8 0 10 #191919 #d4d4d4 #d4d4d4 0 256;
#X obj 159 379 nbx 4 18 -1e+37 1e+37 0 0 empty empty empty 0 -8 0 10 #191919 #d4d4d4 #d4d4d4 0 256;
#X obj 229 379 nbx 4 18 -1e+37 1e+37 0 0 empty empty empty 0 -8 0 10 #191919 #d4d4d4 #d4d4d4 0 256;
#X obj 19 179 nbx 4 18 -1e+37 1e+37 0 0 empty empty empty 0 -8 0 10 #191919 #d4d4d4 #d4d4d4 0 256;
#X obj 89 179 nbx 4 18 -1e+37 1e+37 0 0 empty empty empty 0 -8 0 10 #191919 #d4d4d4 #d4d4d4 0 256;
#X obj 159 179 nbx 4 18 -1e+37 1e+37 0 0 empty empty empty 0 -8 0 10 #191919 #d4d4d4 #d4d4d4 0 256;
#X obj 229 179 nbx 4 18 -1e+37 1e+37 0 0 empty empty empty 0 -8 0 10 #191919 #d4d4d4 #d4d4d4 0 256;
#X obj 19 219 nbx 4 18 -1e+37 1e+37 0 0 empty empty empty 0 -8 0 10 #191919 #d4d4d4 #d4d4d4 0 256;
#X obj 89 219 nbx 4 18 -1e+37 1e+37 0 0 empty empty empty 0 -8 0 10 #191919 #d4d4d4 #d4d4d4 0 256;
#X obj 159 219 nbx 4 18 -1e+37 1e+37 0 0 empty empty empty 0 -8 0 10 #191919 #d4d4d4 #d4d4d4 0 256;
#X obj 229 219 nbx 4 18 -1e+37 1e+37 0 0 empty empty empty 0 -8 0 10 #191919 #d4d4d4 #d4d4d4 0 256;
#X obj 299 179 nbx 4 18 -1e+37 1e+37 0 0 empty empty empty 0 -8 0 10 #191919 #d4d4d4 #d4d4d4 0 256;
#X obj 369 179 nbx 4 18 -1e+37 1e+37 0 0 empty empty empty 0 -8 0 10 #191919 #d4d4d4 #d4d4d4 0 256;
#X obj 439 179 nbx 4 18 -1e+37 1e+37 0 0 empty empty empty 0 -8 0 10 #191919 #d4d4d4 #d4d4d4 0 256;
#X obj 509 179 nbx 4 18 -1e+37 1e+37 0 0 empty empty empty 0 -8 0 10 #191919 #d4d4d4 #d4d4d4 0 256;
#X obj 299 219 nbx 4 18 -1e+37 1e+37 0 0 empty empty empty 0 -8 0 10 #191919 #d4d4d4 #d4d4d4 0 256;
#X obj 369 219 nbx 4 18 -1e+37 1e+37 0 0 empty empty empty 0 -8 0 10 #191919 #d4d4d4 #d4d4d4 0 256;
#X obj 439 219 nbx 4 18 -1e+37 1e+37 0 0 empty empty empty 0 -8 0 10 #191919 #d4d4d4 #d4d4d4 0 256;
#X obj 509 219 nbx 4 18 -1e+37 1e+37 0 0 empty empty empty 0 -8 0 10 #191919 #d4d4d4 #d4d4d4 0 256;
#X obj 299 259 nbx 4 18 -1e+37 1e+37 0 0 empty empty empty 0 -8 0 10 #191919 #d4d4d4 #d4d4d4 0 256;
#X obj 369 259 nbx 4 18 -1e+37 1e+37 0 0 empty empty empty 0 -8 0 10 #191919 #d4d4d4 #d4d4d4 0 256;
#X obj 439 259 nbx 4 18 -1e+37 1e+37 0 0 empty empty empty 0 -8 0 10 #191919 #d4d4d4 #d4d4d4 0 256;
#X obj 509 259 nbx 4 18 -1e+37 1e+37 0 0 empty empty empty 0 -8 0 10 #191919 #d4d4d4 #d4d4d4 0 256;
#X obj 299 299 nbx 4 18 -1e+37 1e+37 0 0 empty empty empty 0 -8 0 10 #191919 #d4d4d4 #d4d4d4 0 256;
#X obj 369 299 nbx 4 18 -1e+37 1e+37 0 0 empty empty empty 0 -8 0 10 #191919 #d4d4d4 #d4d4d4 0 256;
#X obj 439 299 nbx 4 18 -1e+37 1e+37 0 0 empty empty empty 0 -8 0 10 #191919 #d4d4d4 #d4d4d4 0 256;
#X obj 509 299 nbx 4 18 -1e+37 1e+37 0 0 empty empty empty 0 -8 0 10 #191919 #d4d4d4 #d4d4d4 0 256;
#X obj 299 339 nbx 4 18 -1e+37 1e+37 0 0 empty empty empty 0 -8 0 10 #191919 #d4d4d4 #d4d4d4 0 256;
#X obj 369 339 nbx 4 18 -1e+37 1e+37 0 0 empty empty empty 0 -8 0 10 #191919 #d4d4d4 #d4d4d4 0 256;
#X obj 439 339 nbx 4 18 -1e+37 1e+37 0 0 empty empty empty 0 -8 0 10 #191919 #d4d4d4 #d4d4d4 0 256;
#X obj 509 339 nbx 4 18 -1e+37 1e+37 0 0 empty empty empty 0 -8 0 10 #191919 #d4d4d4 #d4d4d4 0 256;
#X obj 299 379 nbx 4 18 -1e+37 1e+37 0 0 empty empty empty 0 -8 0 10 #191919 #d4d4d4 #d4d4d4 0 256;
#X obj 369 379 nbx 4 18 -1e+37 1e+37 0 0 empty empty empty 0 -8 0 10 #191919 #d4d4d4 #d4d4d4 0 256;
#X obj 439 379 nbx 4 18 -1e+37 1e+37 0 0 empty empty empty 0 -8 0 10 #191919 #d4d4d4 #d4d4d4 0 256;
#X obj 509 379 nbx 4 18 -1e+37 1e+37 0 0 empty empty empty 0 -8 0 10 #191919 #d4d4d4 #d4d4d4 0 256;
#X obj -131 1159 outlet~;
#X obj -61 1159 outlet~;
#X obj 9 1159 outlet~;
#X obj 79 1159 outlet~;
#X obj -491 869 inlet~;
#X obj -481 939 inlet~;
#X obj -471 1009 inlet~;
#X obj -461 1079 inlet~;
#X obj -381 759 *~;
#X obj -311 759 *~;
#X obj -241 759 *~;
#X obj -171 759 *~;
#X obj -101 759 *~;
#X obj -31 759 *~;
#X obj 39 759 *~;
#X obj 109 759 *~;
#X obj -381 829 *~;
#X obj -311 829 *~;
#X obj -241 829 *~;
#X obj -171 829 *~;
#X obj -101 829 *~;
#X obj -31 829 *~;
#X obj 39 829 *~;
#X obj 109 829 *~;
#X obj -371 719 dbtoa;
#X obj -301 719 dbtoa;
#X obj -231 719 dbtoa;
#X obj -161 719 dbtoa;
#X obj -91 719 dbtoa;
#X obj -21 719 dbtoa;
#X obj 49 719 dbtoa;
#X obj 119 719 dbtoa;
#X obj -371 789 dbtoa;
#X obj -301 789 dbtoa;
#X obj -231 789 dbtoa;
#X obj -161 789 dbtoa;
#X obj -91 789 dbtoa;
#X obj -21 789 dbtoa;
#X obj 49 789 dbtoa;
#X obj 119 789 dbtoa;
#X obj -381 909 *~;
#X obj -311 909 *~;
#X obj -241 909 *~;
#X obj -171 909 *~;
#X obj -101 909 *~;
#X obj -31 909 *~;
#X obj 39 909 *~;
#X obj 109 909 *~;
#X obj -381 979 *~;
#X obj -311 979 *~;
#X obj -241 979 *~;
#X obj -171 979 *~;
#X obj -101 979 *~;
#X obj -31 979 *~;
#X obj 39 979 *~;
#X obj 109 979 *~;
#X obj -371 869 dbtoa;
#X obj -301 869 dbtoa;
#X obj -231 869 dbtoa;
#X obj -161 869 dbtoa;
#X obj -91 869 dbtoa;
#X obj -21 869 dbtoa;
#X obj 49 869 dbtoa;
#X obj 119 869 dbtoa;
#X obj -371 939 dbtoa;
#X obj -301 939 dbtoa;
#X obj -231 939 dbtoa;
#X obj -161 939 dbtoa;
#X obj -91 939 dbtoa;
#X obj -21 939 dbtoa;
#X obj 49 939 dbtoa;
#X obj 119 939 dbtoa;
#X obj -381 1049 *~;
#X obj -311 1049 *~;
#X obj -241 1049 *~;
#X obj -171 1049 *~;
#X obj -101 1049 *~;
#X obj -31 1049 *~;
#X obj 39 1049 *~;
#X obj 109 1049 *~;
#X obj -381 1119 *~;
#X obj -311 1119 *~;
#X obj -241 1119 *~;
#X obj -171 1119 *~;
#X obj -101 1119 *~;
#X obj -31 1119 *~;
#X obj 39 1119 *~;
#X obj 109 1119 *~;
#X obj -371 1009 dbtoa;
#X obj -301 1009 dbtoa;
#X obj -231 1009 dbtoa;
#X obj -161 1009 dbtoa;
#X obj -91 1009 dbtoa;
#X obj -21 1009 dbtoa;
#X obj 49 1009 dbtoa;
#X obj 119 1009 dbtoa;
#X obj -371 1079 dbtoa;
#X obj -301 1079 dbtoa;
#X obj -231 1079 dbtoa;
#X obj -161 1079 dbtoa;
#X obj -91 1079 dbtoa;
#X obj -21 1079 dbtoa;
#X obj 49 1079 dbtoa;
#X obj 119 1079 dbtoa;
#X msg 539 -331 64;
#X obj 509 9 route 1 2 3 4 5 6 7 8 9 10 11 12 13 14 15 16 17 18 19 20 21 22 23 24 25 26 27 28 29 30 31 32 33 34 35 36 37 38 39 40 41 42 43 44 45 46 47 48 49 50 51 52 53 54 55 56 57 58 59 60 61 62 63 64;
#X obj 619 419 pack f f f f f f f f f f f f f f f f f f f f f f f f f f f f f f f f f f f f f f f f f f f f f f f f f f f f f f f f f f f f f f f f f;
#X text 519 -512 as above \, so above;
#X msg 689 619 list 0 0 0 0 0 0 0 0 0 0 0 0 0 0 0 0 0 0 0 0 0 0 0 0 0 0 0 0 0 0 0 0 0 0 0 0 0 0 0 0 0 0 0 0 0 0 0 0 0 0 0 0 0 0 0 0 0 0 0 0 0 0 0 0 0;
#X connect 1 0 21 0;
#X connect 2 0 22 0;
#X connect 3 0 23 0;
#X connect 4 0 24 0;
#X connect 5 0 150 0;
#X connect 6 0 151 0;
#X connect 7 0 152 0;
#X connect 8 0 153 0;
#X connect 9 0 21 0;
#X connect 10 0 22 0;
#X connect 11 0 23 0;
#X connect 12 0 24 0;
#X connect 13 0 150 0;
#X connect 14 0 151 0;
#X connect 15 0 152 0;
#X connect 16 0 153 0;
#X connect 17 0 1 0;
#X connect 17 0 2 0;
#X connect 17 0 3 0;
#X connect 17 0 4 0;
#X connect 17 0 8 0;
#X connect 17 0 5 0;
#X connect 17 0 6 0;
#X connect 17 0 7 0;
#X connect 17 1 101 0;
#X connect 18 0 13 0;
#X connect 18 0 16 0;
#X connect 18 0 15 0;
#X connect 18 0 14 0;
#X connect 18 0 9 0;
#X connect 18 0 12 0;
#X connect 18 0 11 0;
#X connect 18 0 10 0;
#X connect 19 0 165 0;
#X connect 19 0 164 0;
#X connect 19 0 159 0;
#X connect 19 0 160 0;
#X connect 19 0 161 0;
#X connect 19 0 162 0;
#X connect 19 0 163 0;
#X connect 19 0 158 0;
#X connect 20 0 169 0;
#X connect 20 0 170 0;
#X connect 20 0 171 0;
#X connect 20 0 172 0;
#X connect 20 0 173 0;
#X connect 20 0 168 0;
#X connect 20 0 167 0;
#X connect 20 0 166 0;
#X connect 25 0 84 0;
#X connect 25 0 256 1;
#X connect 26 0 85 0;
#X connect 26 0 256 2;
#X connect 27 0 86 0;
#X connect 27 0 256 3;
#X connect 28 0 87 0;
#X connect 28 0 256 4;
#X connect 29 0 88 0;
#X connect 29 0 256 5;
#X connect 30 0 89 0;
#X connect 30 0 256 6;
#X connect 31 0 90 0;
#X connect 31 0 256 7;
#X connect 32 0 91 0;
#X connect 32 0 256 8;
#X connect 33 0 92 0;
#X connect 33 0 256 9;
#X connect 34 0 93 0;
#X connect 34 0 256 10;
#X connect 35 0 94 0;
#X connect 35 0 256 11;
#X connect 36 0 95 0;
#X connect 36 0 256 12;
#X connect 37 0 96 0;
#X connect 37 0 256 13;
#X connect 38 0 97 0;
#X connect 38 0 256 14;
#X connect 39 0 98 0;
#X connect 39 0 256 15;
#X connect 40 0 99 0;
#X connect 40 0 256 16;
#X connect 41 0 73 0;
#X connect 42 0 74 0;
#X connect 43 0 63 0;
#X connect 44 0 51 0;
#X connect 45 0 256 0;
#X connect 48 0 52 0;
#X connect 49 1 50 0;
#X connect 50 0 258 0;
#X connect 51 0 47 1;
#X connect 51 1 49 0;
#X connect 51 2 48 0;
#X connect 52 0 49 1;
#X connect 53 0 60 1;
#X connect 54 0 59 1;
#X connect 55 0 56 0;
#X connect 56 0 57 0;
#X connect 56 0 64 0;
#X connect 57 0 56 1;
#X connect 58 0 59 0;
#X connect 59 0 66 0;
#X connect 60 0 65 0;
#X connect 61 0 60 0;
#X connect 62 0 254 0;
#X connect 62 1 72 0;
#X connect 62 2 66 1;
#X connect 62 2 67 0;
#X connect 63 0 62 0;
#X connect 64 0 71 0;
#X connect 64 1 61 0;
#X connect 64 2 58 0;
#X connect 65 0 70 0;
#X connect 66 0 70 1;
#X connect 67 0 69 0;
#X connect 67 1 68 1;
#X connect 68 0 65 1;
#X connect 69 0 68 0;
#X connect 70 0 71 1;
#X connect 71 0 255 0;
#X connect 72 0 56 1;
#X connect 73 0 63 0;
#X connect 73 1 75 0;
#X connect 73 2 76 0;
#X connect 74 0 63 0;
#X connect 74 1 76 0;
#X connect 74 2 75 0;
#X connect 75 0 53 0;
#X connect 76 0 54 0;
#X connect 78 0 80 0;
#X connect 79 0 46 0;
#X connect 80 0 46 0;
#X connect 81 0 79 0;
#X connect 82 0 100 0;
#X connect 83 0 78 0;
#X connect 84 0 1 1;
#X connect 85 0 2 1;
#X connect 86 0 3 1;
#X connect 87 0 4 1;
#X connect 88 0 5 1;
#X connect 89 0 6 1;
#X connect 90 0 7 1;
#X connect 91 0 8 1;
#X connect 92 0 9 1;
#X connect 93 0 10 1;
#X connect 94 0 11 1;
#X connect 95 0 12 1;
#X connect 96 0 13 1;
#X connect 97 0 14 1;
#X connect 98 0 15 1;
#X connect 99 0 16 1;
#X connect 100 0 42 0;
#X connect 100 1 41 0;
#X connect 100 2 81 0;
#X connect 101 0 42 0;
#X connect 101 1 41 0;
#X connect 101 2 46 0;
#X connect 102 0 206 0;
#X connect 103 0 207 0;
#X connect 104 0 208 0;
#X connect 105 0 209 0;
#X connect 106 0 214 0;
#X connect 107 0 215 0;
#X connect 108 0 216 0;
#X connect 109 0 217 0;
#X connect 110 0 238 0;
#X connect 111 0 239 0;
#X connect 112 0 240 0;
#X connect 113 0 241 0;
#X connect 114 0 246 0;
#X connect 115 0 247 0;
#X connect 116 0 248 0;
#X connect 117 0 249 0;
#X connect 118 0 174 0;
#X connect 119 0 175 0;
#X connect 120 0 176 0;
#X connect 121 0 177 0;
#X connect 122 0 182 0;
#X connect 123 0 183 0;
#X connect 124 0 184 0;
#X connect 125 0 185 0;
#X connect 126 0 178 0;
#X connect 127 0 179 0;
#X connect 128 0 180 0;
#X connect 129 0 181 0;
#X connect 130 0 186 0;
#X connect 131 0 187 0;
#X connect 132 0 188 0;
#X connect 133 0 189 0;
#X connect 134 0 210 0;
#X connect 135 0 211 0;
#X connect 136 0 212 0;
#X connect 137 0 213 0;
#X connect 138 0 218 0;
#X connect 139 0 219 0;
#X connect 140 0 220 0;
#X connect 141 0 221 0;
#X connect 142 0 242 0;
#X connect 143 0 243 0;
#X connect 144 0 244 0;
#X connect 145 0 245 0;
#X connect 146 0 250 0;
#X connect 147 0 251 0;
#X connect 148 0 252 0;
#X connect 149 0 253 0;
#X connect 154 0 197 0;
#X connect 154 0 195 0;
#X connect 154 0 196 0;
#X connect 154 0 194 0;
#X connect 154 0 193 0;
#X connect 154 0 192 0;
#X connect 154 0 191 0;
#X connect 154 0 190 0;
#X connect 155 0 200 0;
#X connect 155 0 201 0;
#X connect 155 0 202 0;
#X connect 155 0 203 0;
#X connect 155 0 204 0;
#X connect 155 0 205 0;
#X connect 155 0 199 0;
#X connect 155 0 198 0;
#X connect 156 0 222 0;
#X connect 156 0 223 0;
#X connect 156 0 224 0;
#X connect 156 0 225 0;
#X connect 156 0 226 0;
#X connect 156 0 227 0;
#X connect 156 0 228 0;
#X connect 156 0 229 0;
#X connect 157 0 230 0;
#X connect 157 0 231 0;
#X connect 157 0 232 0;
#X connect 157 0 233 0;
#X connect 157 0 234 0;
#X connect 157 0 235 0;
#X connect 157 0 236 0;
#X connect 157 0 237 0;
#X connect 158 0 21 0;
#X connect 159 0 22 0;
#X connect 160 0 23 0;
#X connect 161 0 24 0;
#X connect 162 0 150 0;
#X connect 163 0 151 0;
#X connect 164 0 152 0;
#X connect 165 0 153 0;
#X connect 166 0 21 0;
#X connect 167 0 22 0;
#X connect 168 0 23 0;
#X connect 169 0 24 0;
#X connect 170 0 150 0;
#X connect 171 0 151 0;
#X connect 172 0 152 0;
#X connect 173 0 153 0;
#X connect 174 0 158 1;
#X connect 175 0 159 1;
#X connect 176 0 160 1;
#X connect 177 0 161 1;
#X connect 178 0 162 1;
#X connect 179 0 163 1;
#X connect 180 0 164 1;
#X connect 181 0 165 1;
#X connect 182 0 166 1;
#X connect 183 0 167 1;
#X connect 184 0 168 1;
#X connect 185 0 169 1;
#X connect 186 0 170 1;
#X connect 187 0 171 1;
#X connect 188 0 172 1;
#X connect 189 0 173 1;
#X connect 190 0 21 0;
#X connect 191 0 22 0;
#X connect 192 0 23 0;
#X connect 193 0 24 0;
#X connect 194 0 150 0;
#X connect 195 0 151 0;
#X connect 196 0 152 0;
#X connect 197 0 153 0;
#X connect 198 0 21 0;
#X connect 199 0 22 0;
#X connect 200 0 23 0;
#X connect 201 0 24 0;
#X connect 202 0 150 0;
#X connect 203 0 151 0;
#X connect 204 0 152 0;
#X connect 205 0 153 0;
#X connect 206 0 190 1;
#X connect 207 0 191 1;
#X connect 208 0 192 1;
#X connect 209 0 193 1;
#X connect 210 0 194 1;
#X connect 211 0 195 1;
#X connect 212 0 196 1;
#X connect 213 0 197 1;
#X connect 214 0 198 1;
#X connect 215 0 199 1;
#X connect 216 0 200 1;
#X connect 217 0 201 1;
#X connect 218 0 202 1;
#X connect 219 0 203 1;
#X connect 220 0 204 1;
#X connect 221 0 205 1;
#X connect 222 0 21 0;
#X connect 223 0 22 0;
#X connect 224 0 23 0;
#X connect 225 0 24 0;
#X connect 226 0 150 0;
#X connect 227 0 151 0;
#X connect 228 0 152 0;
#X connect 229 0 153 0;
#X connect 230 0 21 0;
#X connect 231 0 22 0;
#X connect 232 0 23 0;
#X connect 233 0 24 0;
#X connect 234 0 150 0;
#X connect 235 0 151 0;
#X connect 236 0 152 0;
#X connect 237 0 153 0;
#X connect 238 0 222 1;
#X connect 239 0 223 1;
#X connect 240 0 224 1;
#X connect 241 0 225 1;
#X connect 242 0 226 1;
#X connect 243 0 227 1;
#X connect 244 0 228 1;
#X connect 245 0 229 1;
#X connect 246 0 230 1;
#X connect 247 0 231 1;
#X connect 248 0 232 1;
#X connect 249 0 233 1;
#X connect 250 0 234 1;
#X connect 251 0 235 1;
#X connect 252 0 236 1;
#X connect 253 0 237 1;
#X connect 254 0 55 0;
#X connect 255 0 25 0;
#X connect 255 1 26 0;
#X connect 255 2 27 0;
#X connect 255 3 28 0;
#X connect 255 4 29 0;
#X connect 255 5 30 0;
#X connect 255 6 31 0;
#X connect 255 7 32 0;
#X connect 255 8 33 0;
#X connect 255 9 34 0;
#X connect 255 10 35 0;
#X connect 255 11 36 0;
#X connect 255 12 37 0;
#X connect 255 13 38 0;
#X connect 255 14 39 0;
#X connect 255 15 40 0;
#X connect 256 0 47 0;
#X connect 258 0 47 0;
#X coords 0 0 1 1 574 436 2 6 88;
