#N canvas 827 239 527 378 12;
#X text 479 408 tomara;
#X obj -281 309 *~;
#X obj -211 309 *~;
#X obj -141 309 *~;
#X obj -81 309 *~;
#X obj -281 379 *~;
#X obj -211 379 *~;
#X obj -141 379 *~;
#X obj -81 379 *~;
#X obj -281 449 *~;
#X obj -211 449 *~;
#X obj -141 449 *~;
#X obj -81 449 *~;
#X obj -281 519 *~;
#X obj -211 519 *~;
#X obj -141 519 *~;
#X obj -81 519 *~;
#X obj -421 269 inlet~;
#X obj -411 339 inlet~;
#X obj -401 409 inlet~;
#X obj -391 479 inlet~;
#X obj -321 569 outlet~;
#X obj -251 569 outlet~;
#X obj -181 569 outlet~;
#X obj -111 569 outlet~;
#X obj 9 9 nbx 6 18 -1e+37 1e+37 0 0 empty empty empty 0 -8 0 10 #191919 #d4d4d4 #d4d4d4 0 256;
#X obj 79 9 nbx 6 18 -1e+37 1e+37 0 0 empty empty empty 0 -8 0 10 #191919 #d4d4d4 #d4d4d4 0 256;
#X obj 149 9 nbx 6 18 -1e+37 1e+37 0 0 empty empty empty 0 -8 0 10 #191919 #d4d4d4 #d4d4d4 0 256;
#X obj 219 9 nbx 6 18 -1e+37 1e+37 0 0 empty empty empty 0 -8 0 10 #191919 #d4d4d4 #d4d4d4 0 256;
#X obj 9 49 nbx 6 18 -1e+37 1e+37 0 0 empty empty empty 0 -8 0 10 #191919 #d4d4d4 #d4d4d4 0 256;
#X obj 79 49 nbx 6 18 -1e+37 1e+37 0 0 empty empty empty 0 -8 0 10 #191919 #d4d4d4 #d4d4d4 0 256;
#X obj 149 49 nbx 6 18 -1e+37 1e+37 0 0 empty empty empty 0 -8 0 10 #191919 #d4d4d4 #d4d4d4 0 256;
#X obj 219 49 nbx 6 18 -1e+37 1e+37 0 0 empty empty empty 0 -8 0 10 #191919 #d4d4d4 #d4d4d4 0 256;
#X obj 9 89 nbx 6 18 -1e+37 1e+37 0 0 empty empty empty 0 -8 0 10 #191919 #d4d4d4 #d4d4d4 0 256;
#X obj 79 89 nbx 6 18 -1e+37 1e+37 0 0 empty empty empty 0 -8 0 10 #191919 #d4d4d4 #d4d4d4 0 256;
#X obj 149 89 nbx 6 18 -1e+37 1e+37 0 0 empty empty empty 0 -8 0 10 #191919 #d4d4d4 #d4d4d4 0 256;
#X obj 219 89 nbx 6 18 -1e+37 1e+37 0 0 empty empty empty 0 -8 0 10 #191919 #d4d4d4 #d4d4d4 0 256;
#X obj 9 129 nbx 6 18 -1e+37 1e+37 0 0 empty empty empty 0 -8 0 10 #191919 #d4d4d4 #d4d4d4 0 256;
#X obj 79 129 nbx 6 18 -1e+37 1e+37 0 0 empty empty empty 0 -8 0 10 #191919 #d4d4d4 #d4d4d4 0 256;
#X obj 149 129 nbx 6 18 -1e+37 1e+37 0 0 empty empty empty 0 -8 0 10 #191919 #d4d4d4 #d4d4d4 0 256;
#X obj 219 129 nbx 6 18 -1e+37 1e+37 0 0 empty empty empty 0 -8 0 10 #191919 #d4d4d4 #d4d4d4 0 256;
#X obj 299 199 pack f f f f f f f f f f f f f f f f f;
#X obj 229 169 nbx 3 18 0 1e+37 0 0 empty empty B -16 8 0 12 #191919 #d4d4d4 #d4d4d4 0 256;
#X obj 19 169 nbx 3 18 0 1e+37 0 0 empty empty A -14 8 0 12 #191919 #d4d4d4 #d4d4d4 0 256;
#X obj 92 169 hsl 111 17 0 1 0 0 empty empty empty -2 -8 0 10 #191919 #d4d4d4 #d4d4d4 0 1;
#X obj 108 199 nbx 4 18 0 1e+37 0 0 empty empty empty 0 -8 0 10 #191919 #d4d4d4 #d4d4d4 0 256;
#X obj 165 195 bng 25 250 50 0 empty empty empty 17 7 0 10 #191919 #d4d4d4 #d4d4d4;
#X obj 119 499 text define levels_\$0;
#X obj 299 449 text set levels_\$0;
#X obj 358 269 text size levels_\$0;
#X obj 343 339 moses;
#X obj 370 369 until;
#X obj 329 239 t f f b;
#X obj 358 301 + 1;
#X obj 428 -371 text get levels_\$0;
#X obj 708 -371 text get levels_\$0;
#X obj 549 -251 until;
#X obj 549 -211 f;
#X obj 599 -211 + 1;
#X msg 669 -131 get \$1;
#X obj 669 -101 list store;
#X msg 549 -281 16;
#X obj 389 -101 list store;
#X msg 389 -131 get \$1;
#X obj 569 -321 t b b f;
#X obj 569 -351 f;
#X msg 369 399 list -128 -128 -128 -128 -128 -128 -128 -128 -128 -128 -128 -128 -128 -128 -128 -128 -128;
#X obj 549 -171 t f f f;
#X obj 389 -61 *;
#X obj 669 -61 *;
#X obj 769 -161 t b f;
#X obj 769 -101 -;
#X msg 769 -131 1;
#X obj 551 -10 +;
#X obj 519 29 pack f f;
#X msg 599 -251 1;
#X obj 519 59 route 1 2 3 4 5 6 7 8 9 10 11 12 13 14 15 16;
#X obj 679 -461 t b b f;
#X obj 399 -461 t b b f;
#X obj 428 -411 f;
#X obj 708 -411 f;
#X obj 179 419 savepanel;
#X msg 89 449 read \$1;
#X msg 179 449 write \$1;
#X obj 89 419 openpanel;
#X obj 230 209 bng 25 250 50 0 empty empty O 1 13 0 26 #191919 #d4d4d4 #d4d4d4;
#X obj 260 209 bng 25 250 50 0 empty empty S 3 13 0 26 #191919 #d4d4d4 #d4d4d4;
#X obj -271 269 dbtoa;
#X obj -201 269 dbtoa;
#X obj -131 269 dbtoa;
#X obj -71 269 dbtoa;
#X obj -271 339 dbtoa;
#X obj -201 339 dbtoa;
#X obj -131 339 dbtoa;
#X obj -71 339 dbtoa;
#X obj -271 409 dbtoa;
#X obj -201 409 dbtoa;
#X obj -131 409 dbtoa;
#X obj -71 409 dbtoa;
#X obj -271 479 dbtoa;
#X obj -201 479 dbtoa;
#X obj -131 479 dbtoa;
#X obj -71 479 dbtoa;
#X obj 103 366 t b b b;
#X obj 19 449 t b b a;
#X msg -51 -49 -128;
#X obj -51 -81 loadbang;
#X obj 426 -521 text size levels_\$0;
#X obj 399 -494 moses;
#X text 549 -412 void of love;
#X obj 399 -554 t f b;
#X obj 706 -518 text size levels_\$0;
#X obj 679 -491 moses;
#X obj 679 -551 t f b;
#X obj 569 -381 spigot;
#X obj 569 -481 > 1;
#X connect 1 0 21 0;
#X connect 2 0 22 0;
#X connect 3 0 23 0;
#X connect 4 0 24 0;
#X connect 5 0 21 0;
#X connect 6 0 22 0;
#X connect 7 0 23 0;
#X connect 8 0 24 0;
#X connect 9 0 21 0;
#X connect 10 0 22 0;
#X connect 11 0 23 0;
#X connect 12 0 24 0;
#X connect 13 0 21 0;
#X connect 14 0 22 0;
#X connect 15 0 23 0;
#X connect 16 0 24 0;
#X connect 17 0 1 0;
#X connect 17 0 2 0;
#X connect 17 0 3 0;
#X connect 17 0 4 0;
#X connect 17 1 104 0;
#X connect 18 0 5 0;
#X connect 18 0 6 0;
#X connect 18 0 7 0;
#X connect 18 0 8 0;
#X connect 19 0 12 0;
#X connect 19 0 11 0;
#X connect 19 0 10 0;
#X connect 19 0 9 0;
#X connect 20 0 16 0;
#X connect 20 0 15 0;
#X connect 20 0 14 0;
#X connect 20 0 13 0;
#X connect 25 0 41 1;
#X connect 25 0 87 0;
#X connect 26 0 41 2;
#X connect 26 0 88 0;
#X connect 27 0 41 3;
#X connect 27 0 89 0;
#X connect 28 0 41 4;
#X connect 28 0 90 0;
#X connect 29 0 41 5;
#X connect 29 0 91 0;
#X connect 30 0 41 6;
#X connect 30 0 92 0;
#X connect 31 0 41 7;
#X connect 31 0 93 0;
#X connect 32 0 41 8;
#X connect 32 0 94 0;
#X connect 33 0 41 9;
#X connect 33 0 95 0;
#X connect 34 0 41 10;
#X connect 34 0 96 0;
#X connect 35 0 41 11;
#X connect 35 0 97 0;
#X connect 36 0 41 12;
#X connect 36 0 98 0;
#X connect 37 0 41 13;
#X connect 37 0 99 0;
#X connect 38 0 41 14;
#X connect 38 0 100 0;
#X connect 39 0 41 15;
#X connect 39 0 101 0;
#X connect 40 0 41 16;
#X connect 40 0 102 0;
#X connect 41 0 48 0;
#X connect 42 0 113 0;
#X connect 43 0 110 0;
#X connect 44 0 114 0;
#X connect 45 0 52 0;
#X connect 46 0 41 0;
#X connect 49 0 53 0;
#X connect 50 1 51 0;
#X connect 51 0 66 0;
#X connect 52 0 48 1;
#X connect 52 1 50 0;
#X connect 52 2 49 0;
#X connect 53 0 50 1;
#X connect 54 0 62 1;
#X connect 55 0 60 1;
#X connect 56 0 57 0;
#X connect 57 0 58 0;
#X connect 57 0 67 0;
#X connect 58 0 57 1;
#X connect 59 0 60 0;
#X connect 60 0 69 0;
#X connect 61 0 56 0;
#X connect 62 0 68 0;
#X connect 63 0 62 0;
#X connect 64 0 61 0;
#X connect 64 1 75 0;
#X connect 64 2 69 1;
#X connect 64 2 70 0;
#X connect 65 0 64 0;
#X connect 66 0 48 0;
#X connect 67 0 74 0;
#X connect 67 1 63 0;
#X connect 67 2 59 0;
#X connect 68 0 73 0;
#X connect 69 0 73 1;
#X connect 70 0 72 0;
#X connect 70 1 71 1;
#X connect 71 0 68 1;
#X connect 72 0 71 0;
#X connect 73 0 74 1;
#X connect 74 0 76 0;
#X connect 75 0 57 1;
#X connect 76 0 25 0;
#X connect 76 1 26 0;
#X connect 76 2 27 0;
#X connect 76 3 28 0;
#X connect 76 4 29 0;
#X connect 76 5 30 0;
#X connect 76 6 31 0;
#X connect 76 7 32 0;
#X connect 76 8 33 0;
#X connect 76 9 34 0;
#X connect 76 10 35 0;
#X connect 76 11 36 0;
#X connect 76 12 37 0;
#X connect 76 13 38 0;
#X connect 76 14 39 0;
#X connect 76 15 40 0;
#X connect 77 0 114 0;
#X connect 77 1 79 0;
#X connect 77 2 80 0;
#X connect 78 0 114 0;
#X connect 78 1 80 0;
#X connect 78 2 79 0;
#X connect 79 0 54 0;
#X connect 80 0 55 0;
#X connect 81 0 83 0;
#X connect 82 0 47 0;
#X connect 83 0 47 0;
#X connect 84 0 82 0;
#X connect 85 0 103 0;
#X connect 86 0 81 0;
#X connect 87 0 1 1;
#X connect 88 0 2 1;
#X connect 89 0 3 1;
#X connect 90 0 4 1;
#X connect 91 0 5 1;
#X connect 92 0 6 1;
#X connect 93 0 7 1;
#X connect 94 0 8 1;
#X connect 95 0 9 1;
#X connect 96 0 10 1;
#X connect 97 0 11 1;
#X connect 98 0 12 1;
#X connect 99 0 13 1;
#X connect 100 0 14 1;
#X connect 101 0 15 1;
#X connect 102 0 16 1;
#X connect 103 0 43 0;
#X connect 103 1 42 0;
#X connect 103 2 84 0;
#X connect 104 0 43 0;
#X connect 104 1 42 0;
#X connect 104 2 47 0;
#X connect 105 0 25 0;
#X connect 105 0 26 0;
#X connect 105 0 27 0;
#X connect 105 0 29 0;
#X connect 105 0 30 0;
#X connect 105 0 31 0;
#X connect 105 0 28 0;
#X connect 105 0 32 0;
#X connect 105 0 33 0;
#X connect 105 0 34 0;
#X connect 105 0 35 0;
#X connect 105 0 36 0;
#X connect 105 0 37 0;
#X connect 105 0 38 0;
#X connect 105 0 39 0;
#X connect 105 0 40 0;
#X connect 106 0 105 0;
#X connect 107 0 108 1;
#X connect 107 0 115 0;
#X connect 108 0 78 0;
#X connect 110 0 108 0;
#X connect 110 1 107 0;
#X connect 111 0 112 1;
#X connect 111 0 115 0;
#X connect 112 0 77 0;
#X connect 113 0 112 0;
#X connect 113 1 111 0;
#X connect 114 0 65 0;
#X connect 115 0 114 1;
#X coords 0 0 1 1 291 241 2 -1 -1;
