#N canvas 827 239 527 378 12;
#X obj -381 869 *~;
#X obj -311 869 *~;
#X obj -241 869 *~;
#X obj -171 869 *~;
#X obj -101 869 *~;
#X obj -31 869 *~;
#X obj 39 869 *~;
#X obj 109 869 *~;
#X obj -381 999 *~;
#X obj -311 999 *~;
#X obj -241 999 *~;
#X obj -171 999 *~;
#X obj -101 999 *~;
#X obj -31 999 *~;
#X obj 39 999 *~;
#X obj 109 999 *~;
#X obj -531 829 inlet~;
#X obj -521 959 inlet~;
#X obj -511 1089 inlet~;
#X obj -501 1219 inlet~;
#X obj -411 1819 outlet~;
#X obj -341 1819 outlet~;
#X obj -271 1819 outlet~;
#X obj -201 1819 outlet~;
#X obj -49 639 nbx 4 18 0 1e+37 0 0 empty empty B -16 8 0 12 #191919 #d4d4d4 #d4d4d4 0 256;
#X obj -259 639 nbx 4 18 0 1e+37 0 0 empty empty A -13 8 0 12 #191919 #d4d4d4 #d4d4d4 0 256;
#X obj -188 639 hsl 111 17 0 1 0 0 empty empty empty -2 -8 0 10 #191919 #d4d4d4 #d4d4d4 0 1;
#X obj -174 669 nbx 4 18 0 1e+37 0 0 empty empty save\ slot -49 8 0 12 #191919 #d4d4d4 #d4d4d4 0 256;
#X obj -115 665 bng 25 250 50 0 empty empty save 27 12 0 12 #191919 #d4d4d4 #d4d4d4;
#X obj 399 1079 text define levels_\$0;
#X obj 619 729 text set levels_\$0;
#X obj 678 489 text size levels_\$0;
#X obj 663 559 moses;
#X obj 690 589 until;
#X obj 649 459 t f f b;
#X obj 678 521 + 1;
#X obj 728 1059 text get levels_\$0;
#X obj 1008 1059 text get levels_\$0;
#X obj 849 1179 until;
#X obj 849 1219 f;
#X obj 899 1219 + 1;
#X msg 969 1299 get \$1;
#X obj 969 1329 list store;
#X obj 689 1329 list store;
#X msg 689 1299 get \$1;
#X obj 869 1109 t b b f;
#X obj 869 1079 f;
#X obj 849 1259 t f f f;
#X obj 689 1379 *;
#X obj 969 1379 *;
#X obj 1069 1269 t b f;
#X obj 1069 1329 -;
#X msg 1069 1299 1;
#X obj 789 1419 +;
#X msg 899 1179 1;
#X obj 979 969 t b b f;
#X obj 699 969 t b b f;
#X obj 728 1019 f;
#X obj 1008 1019 f;
#X obj 499 989 savepanel;
#X msg 409 1019 read \$1;
#X msg 499 1019 write \$1;
#X obj 409 989 openpanel;
#X obj 72 646 bng 25 250 50 0 empty empty O 1 13 0 26 #191919 #d4d4d4 #d4d4d4;
#X obj 72 676 bng 25 250 50 0 empty empty S 3 13 0 26 #191919 #d4d4d4 #d4d4d4;
#X obj -371 829 dbtoa;
#X obj -301 829 dbtoa;
#X obj -231 829 dbtoa;
#X obj -161 829 dbtoa;
#X obj -91 829 dbtoa;
#X obj -21 829 dbtoa;
#X obj 49 829 dbtoa;
#X obj 119 829 dbtoa;
#X obj -371 959 dbtoa;
#X obj -301 959 dbtoa;
#X obj -231 959 dbtoa;
#X obj -161 959 dbtoa;
#X obj -91 959 dbtoa;
#X obj -21 959 dbtoa;
#X obj 49 959 dbtoa;
#X obj 119 959 dbtoa;
#X obj 423 936 t b b b;
#X obj 299 939 t b b a;
#X obj -131 1819 outlet~;
#X obj -61 1819 outlet~;
#X obj 9 1819 outlet~;
#X obj 79 1819 outlet~;
#X obj -491 1349 inlet~;
#X obj -481 1479 inlet~;
#X obj -471 1609 inlet~;
#X obj -461 1739 inlet~;
#X obj -381 1129 *~;
#X obj -311 1129 *~;
#X obj -241 1129 *~;
#X obj -171 1129 *~;
#X obj -101 1129 *~;
#X obj -31 1129 *~;
#X obj 39 1129 *~;
#X obj 109 1129 *~;
#X obj -381 1259 *~;
#X obj -311 1259 *~;
#X obj -241 1259 *~;
#X obj -171 1259 *~;
#X obj -101 1259 *~;
#X obj -31 1259 *~;
#X obj 39 1259 *~;
#X obj 109 1259 *~;
#X obj -371 1089 dbtoa;
#X obj -301 1089 dbtoa;
#X obj -231 1089 dbtoa;
#X obj -161 1089 dbtoa;
#X obj -91 1089 dbtoa;
#X obj -21 1089 dbtoa;
#X obj 49 1089 dbtoa;
#X obj 119 1089 dbtoa;
#X obj -371 1219 dbtoa;
#X obj -301 1219 dbtoa;
#X obj -231 1219 dbtoa;
#X obj -161 1219 dbtoa;
#X obj -91 1219 dbtoa;
#X obj -21 1219 dbtoa;
#X obj 49 1219 dbtoa;
#X obj 119 1219 dbtoa;
#X obj -381 1389 *~;
#X obj -311 1389 *~;
#X obj -241 1389 *~;
#X obj -171 1389 *~;
#X obj -101 1389 *~;
#X obj -31 1389 *~;
#X obj 39 1389 *~;
#X obj 109 1389 *~;
#X obj -381 1519 *~;
#X obj -311 1519 *~;
#X obj -241 1519 *~;
#X obj -171 1519 *~;
#X obj -101 1519 *~;
#X obj -31 1519 *~;
#X obj 39 1519 *~;
#X obj 109 1519 *~;
#X obj -371 1349 dbtoa;
#X obj -301 1349 dbtoa;
#X obj -231 1349 dbtoa;
#X obj -161 1349 dbtoa;
#X obj -91 1349 dbtoa;
#X obj -21 1349 dbtoa;
#X obj 49 1349 dbtoa;
#X obj 119 1349 dbtoa;
#X obj -371 1479 dbtoa;
#X obj -301 1479 dbtoa;
#X obj -231 1479 dbtoa;
#X obj -161 1479 dbtoa;
#X obj -91 1479 dbtoa;
#X obj -21 1479 dbtoa;
#X obj 49 1479 dbtoa;
#X obj 119 1479 dbtoa;
#X obj -381 1649 *~;
#X obj -311 1649 *~;
#X obj -241 1649 *~;
#X obj -171 1649 *~;
#X obj -101 1649 *~;
#X obj -31 1649 *~;
#X obj 39 1649 *~;
#X obj 109 1649 *~;
#X obj -381 1779 *~;
#X obj -311 1779 *~;
#X obj -241 1779 *~;
#X obj -171 1779 *~;
#X obj -101 1779 *~;
#X obj -31 1779 *~;
#X obj 39 1779 *~;
#X obj 109 1779 *~;
#X obj -371 1609 dbtoa;
#X obj -301 1609 dbtoa;
#X obj -231 1609 dbtoa;
#X obj -161 1609 dbtoa;
#X obj -91 1609 dbtoa;
#X obj -21 1609 dbtoa;
#X obj 49 1609 dbtoa;
#X obj 119 1609 dbtoa;
#X obj -371 1739 dbtoa;
#X obj -301 1739 dbtoa;
#X obj -231 1739 dbtoa;
#X obj -161 1739 dbtoa;
#X obj -91 1739 dbtoa;
#X obj -21 1739 dbtoa;
#X obj 49 1739 dbtoa;
#X obj 119 1739 dbtoa;
#X msg 849 1149 64;
#X obj 619 419 pack f f f f f f f f f f f f f f f f f f f f f f f f f f f f f f f f f f f f f f f f f f f f f f f f f f f f f f f f f f f f f f f f f;
#X obj 726 902 text size levels_\$0;
#X obj 699 929 moses;
#X obj 699 869 t f b;
#X obj 1006 902 text size levels_\$0;
#X obj 979 929 moses;
#X obj 979 869 t f b;
#X text 859 1018 void;
#X obj 869 1049 spigot;
#X obj 869 949 > 1;
#X obj 789 1489 s;
#X obj 878 1419 pack f \$0;
#X msg 878 1449 symbol to_k_\$1_\$2;
#X obj 636 179 r from_k_1_\$0;
#X obj 654 209 r from_k_2_\$0;
#X obj 672 239 r from_k_3_\$0;
#X obj 690 269 r from_k_4_\$0;
#X obj 708 299 r from_k_5_\$0;
#X obj 726 329 r from_k_6_\$0;
#X obj 744 359 r from_k_7_\$0;
#X obj 762 389 r from_k_8_\$0;
#X obj 780 179 r from_k_9_\$0;
#X obj 797 209 r from_k_10_\$0;
#X obj 815 239 r from_k_11_\$0;
#X obj 833 269 r from_k_12_\$0;
#X obj 851 299 r from_k_13_\$0;
#X obj 869 329 r from_k_14_\$0;
#X obj 887 359 r from_k_15_\$0;
#X obj 905 389 r from_k_16_\$0;
#X obj 923 179 r from_k_17_\$0;
#X obj 941 209 r from_k_18_\$0;
#X obj 958 239 r from_k_19_\$0;
#X obj 976 269 r from_k_20_\$0;
#X obj 994 299 r from_k_21_\$0;
#X obj 1012 329 r from_k_22_\$0;
#X obj 1030 359 r from_k_23_\$0;
#X obj 1048 389 r from_k_24_\$0;
#X obj 1066 179 r from_k_25_\$0;
#X obj 1084 209 r from_k_26_\$0;
#X obj 1102 239 r from_k_27_\$0;
#X obj 1119 269 r from_k_28_\$0;
#X obj 1137 299 r from_k_29_\$0;
#X obj 1155 329 r from_k_30_\$0;
#X obj 1173 359 r from_k_31_\$0;
#X obj 1191 389 r from_k_32_\$0;
#X obj 1209 179 r from_k_33_\$0;
#X obj 1227 209 r from_k_34_\$0;
#X obj 1245 239 r from_k_35_\$0;
#X obj 1263 269 r from_k_36_\$0;
#X obj 1280 299 r from_k_37_\$0;
#X obj 1298 329 r from_k_38_\$0;
#X obj 1316 359 r from_k_39_\$0;
#X obj 1334 389 r from_k_40_\$0;
#X obj 1352 179 r from_k_41_\$0;
#X obj 1370 209 r from_k_42_\$0;
#X obj 1388 239 r from_k_43_\$0;
#X obj 1406 269 r from_k_44_\$0;
#X obj 1424 299 r from_k_45_\$0;
#X obj 1441 329 r from_k_46_\$0;
#X obj 1459 359 r from_k_47_\$0;
#X obj 1477 389 r from_k_48_\$0;
#X obj 1495 179 r from_k_49_\$0;
#X obj 1513 209 r from_k_50_\$0;
#X obj 1531 239 r from_k_51_\$0;
#X obj 1549 269 r from_k_52_\$0;
#X obj 1567 299 r from_k_53_\$0;
#X obj 1585 329 r from_k_54_\$0;
#X obj 1602 359 r from_k_55_\$0;
#X obj 1620 389 r from_k_56_\$0;
#X obj 1638 179 r from_k_57_\$0;
#X obj 1656 209 r from_k_58_\$0;
#X obj 1674 239 r from_k_59_\$0;
#X obj 1692 269 r from_k_60_\$0;
#X obj 1710 299 r from_k_61_\$0;
#X obj 1728 329 r from_k_62_\$0;
#X obj 1746 359 r from_k_63_\$0;
#X obj 1764 389 r from_k_64_\$0;
#X text 1349 648 for free legal advice \, visit:;
#X text 1349 668 https://github.com/tomara-x/moths;
#X obj -371 799 r from_k_1_\$0;
#X obj -301 769 r from_k_2_\$0;
#X obj -231 799 r from_k_3_\$0;
#X obj -161 769 r from_k_4_\$0;
#X obj -91 799 r from_k_5_\$0;
#X obj -21 769 r from_k_6_\$0;
#X obj 49 799 r from_k_7_\$0;
#X obj 119 769 r from_k_8_\$0;
#X obj -371 929 r from_k_9_\$0;
#X obj -301 899 r from_k_10_\$0;
#X obj -231 929 r from_k_11_\$0;
#X obj -161 899 r from_k_12_\$0;
#X obj -91 929 r from_k_13_\$0;
#X obj -21 899 r from_k_14_\$0;
#X obj 49 929 r from_k_15_\$0;
#X obj 119 899 r from_k_16_\$0;
#X obj -371 1059 r from_k_17_\$0;
#X obj -301 1029 r from_k_18_\$0;
#X obj -231 1059 r from_k_19_\$0;
#X obj -161 1029 r from_k_20_\$0;
#X obj -91 1059 r from_k_21_\$0;
#X obj -21 1029 r from_k_22_\$0;
#X obj 49 1059 r from_k_23_\$0;
#X obj 119 1029 r from_k_24_\$0;
#X obj -371 1189 r from_k_25_\$0;
#X obj -301 1159 r from_k_26_\$0;
#X obj -231 1189 r from_k_27_\$0;
#X obj -161 1159 r from_k_28_\$0;
#X obj -91 1189 r from_k_29_\$0;
#X obj -21 1159 r from_k_30_\$0;
#X obj 49 1189 r from_k_31_\$0;
#X obj 119 1159 r from_k_32_\$0;
#X obj -371 1319 r from_k_33_\$0;
#X obj -301 1289 r from_k_34_\$0;
#X obj -231 1319 r from_k_35_\$0;
#X obj -161 1289 r from_k_36_\$0;
#X obj -91 1319 r from_k_37_\$0;
#X obj -21 1289 r from_k_38_\$0;
#X obj 49 1319 r from_k_39_\$0;
#X obj 119 1289 r from_k_40_\$0;
#X obj -371 1449 r from_k_41_\$0;
#X obj -301 1419 r from_k_42_\$0;
#X obj -231 1449 r from_k_43_\$0;
#X obj -161 1419 r from_k_44_\$0;
#X obj -91 1449 r from_k_45_\$0;
#X obj -21 1419 r from_k_46_\$0;
#X obj 49 1449 r from_k_47_\$0;
#X obj 119 1419 r from_k_48_\$0;
#X obj -371 1579 r from_k_49_\$0;
#X obj -301 1549 r from_k_50_\$0;
#X obj -231 1579 r from_k_51_\$0;
#X obj -161 1549 r from_k_52_\$0;
#X obj -91 1579 r from_k_53_\$0;
#X obj -21 1549 r from_k_54_\$0;
#X obj 49 1579 r from_k_55_\$0;
#X obj 119 1549 r from_k_56_\$0;
#X obj -371 1709 r from_k_57_\$0;
#X obj -301 1679 r from_k_58_\$0;
#X obj -231 1709 r from_k_59_\$0;
#X obj -161 1679 r from_k_60_\$0;
#X obj -91 1709 r from_k_61_\$0;
#X obj -21 1679 r from_k_62_\$0;
#X obj 49 1709 r from_k_63_\$0;
#X obj 119 1679 r from_k_64_\$0;
#X text 349 938 clean this;
#X obj -351 49 knob 54 -128 24 0 -128 from_k_1_\$0 to_k_1_\$0 #191919 #606060 #ff0000 1 0 0 0 1 270 0 0 0;
#X obj -351 105 nbx 5 14 -128 24 0 1 from_k_1_\$0 to_k_1_\$0 empty 0 -8 0 10 #191919 #d4d4d4 #d4d4d4 -128 256;
#X msg -295 97 set \$1;
#X msg -295 51 set \$1;
#N canvas 0 50 450 300 color 0;
#X obj 209 29 inlet;
#X obj 210 235 outlet;
#X obj 229 159 colors;
#X msg 229 129 hsl \$1 100 50;
#X obj 229 69 + 128;
#X obj 229 99 * 2;
#X msg 229 189 fgcolor \$1;
#X connect 0 0 4 0;
#X connect 2 0 6 0;
#X connect 3 0 2 0;
#X connect 4 0 5 0;
#X connect 5 0 3 0;
#X connect 6 0 1 0;
#X restore -295 74 pd color;
#X obj -295 49 knob 54 -128 24 0 -128 from_k_2_\$0 to_k_2_\$0 #191919 #606060 #ff0000 1 0 0 0 1 270 0 0 0;
#X obj -295 105 nbx 5 14 -128 24 0 1 from_k_2_\$0 to_k_2_\$0 empty 0 -8 0 10 #191919 #d4d4d4 #d4d4d4 -128 256;
#X msg -239 97 set \$1;
#X msg -239 51 set \$1;
#N canvas 0 50 450 300 color 0;
#X obj 209 29 inlet;
#X obj 210 235 outlet;
#X obj 229 159 colors;
#X msg 229 129 hsl \$1 100 50;
#X obj 229 69 + 128;
#X obj 229 99 * 2;
#X msg 229 189 fgcolor \$1;
#X connect 0 0 4 0;
#X connect 2 0 6 0;
#X connect 3 0 2 0;
#X connect 4 0 5 0;
#X connect 5 0 3 0;
#X connect 6 0 1 0;
#X restore -239 74 pd color;
#X obj -239 49 knob 54 -128 24 0 -128 from_k_3_\$0 to_k_3_\$0 #191919 #606060 #ff0000 1 0 0 0 1 270 0 0 0;
#X obj -239 105 nbx 5 14 -128 24 0 1 from_k_3_\$0 to_k_3_\$0 empty 0 -8 0 10 #191919 #d4d4d4 #d4d4d4 -128 256;
#X msg -183 97 set \$1;
#X msg -183 51 set \$1;
#N canvas 0 50 450 300 color 0;
#X obj 209 29 inlet;
#X obj 210 235 outlet;
#X obj 229 159 colors;
#X msg 229 129 hsl \$1 100 50;
#X obj 229 69 + 128;
#X obj 229 99 * 2;
#X msg 229 189 fgcolor \$1;
#X connect 0 0 4 0;
#X connect 2 0 6 0;
#X connect 3 0 2 0;
#X connect 4 0 5 0;
#X connect 5 0 3 0;
#X connect 6 0 1 0;
#X restore -183 74 pd color;
#X obj -183 49 knob 54 -128 24 0 -128 from_k_4_\$0 to_k_4_\$0 #191919 #606060 #ff0000 1 0 0 0 1 270 0 0 0;
#X obj -183 105 nbx 5 14 -128 24 0 1 from_k_4_\$0 to_k_4_\$0 empty 0 -8 0 10 #191919 #d4d4d4 #d4d4d4 -128 256;
#X msg -127 97 set \$1;
#X msg -127 51 set \$1;
#N canvas 0 50 450 300 color 0;
#X obj 209 29 inlet;
#X obj 210 235 outlet;
#X obj 229 159 colors;
#X msg 229 129 hsl \$1 100 50;
#X obj 229 69 + 128;
#X obj 229 99 * 2;
#X msg 229 189 fgcolor \$1;
#X connect 0 0 4 0;
#X connect 2 0 6 0;
#X connect 3 0 2 0;
#X connect 4 0 5 0;
#X connect 5 0 3 0;
#X connect 6 0 1 0;
#X restore -127 74 pd color;
#X obj -127 49 knob 54 -128 24 0 -128 from_k_5_\$0 to_k_5_\$0 #191919 #606060 #ff0000 1 0 0 0 1 270 0 0 0;
#X obj -127 105 nbx 5 14 -128 24 0 1 from_k_5_\$0 to_k_5_\$0 empty 0 -8 0 10 #191919 #d4d4d4 #d4d4d4 -128 256;
#X msg -71 97 set \$1;
#X msg -71 51 set \$1;
#N canvas 0 50 450 300 color 0;
#X obj 209 29 inlet;
#X obj 210 235 outlet;
#X obj 229 159 colors;
#X msg 229 129 hsl \$1 100 50;
#X obj 229 69 + 128;
#X obj 229 99 * 2;
#X msg 229 189 fgcolor \$1;
#X connect 0 0 4 0;
#X connect 2 0 6 0;
#X connect 3 0 2 0;
#X connect 4 0 5 0;
#X connect 5 0 3 0;
#X connect 6 0 1 0;
#X restore -71 74 pd color;
#X obj -71 49 knob 54 -128 24 0 -128 from_k_6_\$0 to_k_6_\$0 #191919 #606060 #ff0000 1 0 0 0 1 270 0 0 0;
#X obj -71 105 nbx 5 14 -128 24 0 1 from_k_6_\$0 to_k_6_\$0 empty 0 -8 0 10 #191919 #d4d4d4 #d4d4d4 -128 256;
#X msg -15 97 set \$1;
#X msg -15 51 set \$1;
#N canvas 0 50 450 300 color 0;
#X obj 209 29 inlet;
#X obj 210 235 outlet;
#X obj 229 159 colors;
#X msg 229 129 hsl \$1 100 50;
#X obj 229 69 + 128;
#X obj 229 99 * 2;
#X msg 229 189 fgcolor \$1;
#X connect 0 0 4 0;
#X connect 2 0 6 0;
#X connect 3 0 2 0;
#X connect 4 0 5 0;
#X connect 5 0 3 0;
#X connect 6 0 1 0;
#X restore -15 74 pd color;
#X obj -15 49 knob 54 -128 24 0 -128 from_k_7_\$0 to_k_7_\$0 #191919 #606060 #ff0000 1 0 0 0 1 270 0 0 0;
#X obj -15 105 nbx 5 14 -128 24 0 1 from_k_7_\$0 to_k_7_\$0 empty 0 -8 0 10 #191919 #d4d4d4 #d4d4d4 -128 256;
#X msg 41 97 set \$1;
#X msg 41 51 set \$1;
#N canvas 0 50 450 300 color 0;
#X obj 209 29 inlet;
#X obj 210 235 outlet;
#X obj 229 159 colors;
#X msg 229 129 hsl \$1 100 50;
#X obj 229 69 + 128;
#X obj 229 99 * 2;
#X msg 229 189 fgcolor \$1;
#X connect 0 0 4 0;
#X connect 2 0 6 0;
#X connect 3 0 2 0;
#X connect 4 0 5 0;
#X connect 5 0 3 0;
#X connect 6 0 1 0;
#X restore 41 74 pd color;
#X obj 41 49 knob 54 -128 24 0 -128 from_k_8_\$0 to_k_8_\$0 #191919 #606060 #ff0000 1 0 0 0 1 270 0 0 0;
#X obj 41 105 nbx 5 14 -128 24 0 1 from_k_8_\$0 to_k_8_\$0 empty 0 -8 0 10 #191919 #d4d4d4 #d4d4d4 -128 256;
#X msg 97 97 set \$1;
#X msg 97 51 set \$1;
#N canvas 0 50 450 300 color 0;
#X obj 209 29 inlet;
#X obj 210 235 outlet;
#X obj 229 159 colors;
#X msg 229 129 hsl \$1 100 50;
#X obj 229 69 + 128;
#X obj 229 99 * 2;
#X msg 229 189 fgcolor \$1;
#X connect 0 0 4 0;
#X connect 2 0 6 0;
#X connect 3 0 2 0;
#X connect 4 0 5 0;
#X connect 5 0 3 0;
#X connect 6 0 1 0;
#X restore 97 74 pd color;
#X obj -351 121 knob 54 -128 24 0 -128 from_k_9_\$0 to_k_9_\$0 #191919 #606060 #ff0000 1 0 0 0 1 270 0 0 0;
#X obj -351 177 nbx 5 14 -128 24 0 1 from_k_9_\$0 to_k_9_\$0 empty 0 -8 0 10 #191919 #d4d4d4 #d4d4d4 -128 256;
#X msg -295 169 set \$1;
#X msg -295 123 set \$1;
#N canvas 0 50 450 300 color 0;
#X obj 209 29 inlet;
#X obj 210 235 outlet;
#X obj 229 159 colors;
#X msg 229 129 hsl \$1 100 50;
#X obj 229 69 + 128;
#X obj 229 99 * 2;
#X msg 229 189 fgcolor \$1;
#X connect 0 0 4 0;
#X connect 2 0 6 0;
#X connect 3 0 2 0;
#X connect 4 0 5 0;
#X connect 5 0 3 0;
#X connect 6 0 1 0;
#X restore -295 146 pd color;
#X obj -295 121 knob 54 -128 24 0 -128 from_k_10_\$0 to_k_10_\$0 #191919 #606060 #ff0000 1 0 0 0 1 270 0 0 0;
#X obj -295 177 nbx 5 14 -128 24 0 1 from_k_10_\$0 to_k_10_\$0 empty 0 -8 0 10 #191919 #d4d4d4 #d4d4d4 -128 256;
#X msg -239 169 set \$1;
#X msg -239 123 set \$1;
#N canvas 0 50 450 300 color 0;
#X obj 209 29 inlet;
#X obj 210 235 outlet;
#X obj 229 159 colors;
#X msg 229 129 hsl \$1 100 50;
#X obj 229 69 + 128;
#X obj 229 99 * 2;
#X msg 229 189 fgcolor \$1;
#X connect 0 0 4 0;
#X connect 2 0 6 0;
#X connect 3 0 2 0;
#X connect 4 0 5 0;
#X connect 5 0 3 0;
#X connect 6 0 1 0;
#X restore -239 146 pd color;
#X obj -239 121 knob 54 -128 24 0 -128 from_k_11_\$0 to_k_11_\$0 #191919 #606060 #ff0000 1 0 0 0 1 270 0 0 0;
#X obj -239 177 nbx 5 14 -128 24 0 1 from_k_11_\$0 to_k_11_\$0 empty 0 -8 0 10 #191919 #d4d4d4 #d4d4d4 -128 256;
#X msg -183 169 set \$1;
#X msg -183 123 set \$1;
#N canvas 0 50 450 300 color 0;
#X obj 209 29 inlet;
#X obj 210 235 outlet;
#X obj 229 159 colors;
#X msg 229 129 hsl \$1 100 50;
#X obj 229 69 + 128;
#X obj 229 99 * 2;
#X msg 229 189 fgcolor \$1;
#X connect 0 0 4 0;
#X connect 2 0 6 0;
#X connect 3 0 2 0;
#X connect 4 0 5 0;
#X connect 5 0 3 0;
#X connect 6 0 1 0;
#X restore -183 146 pd color;
#X obj -183 121 knob 54 -128 24 0 -128 from_k_12_\$0 to_k_12_\$0 #191919 #606060 #ff0000 1 0 0 0 1 270 0 0 0;
#X obj -183 177 nbx 5 14 -128 24 0 1 from_k_12_\$0 to_k_12_\$0 empty 0 -8 0 10 #191919 #d4d4d4 #d4d4d4 -128 256;
#X msg -127 169 set \$1;
#X msg -127 123 set \$1;
#N canvas 0 50 450 300 color 0;
#X obj 209 29 inlet;
#X obj 210 235 outlet;
#X obj 229 159 colors;
#X msg 229 129 hsl \$1 100 50;
#X obj 229 69 + 128;
#X obj 229 99 * 2;
#X msg 229 189 fgcolor \$1;
#X connect 0 0 4 0;
#X connect 2 0 6 0;
#X connect 3 0 2 0;
#X connect 4 0 5 0;
#X connect 5 0 3 0;
#X connect 6 0 1 0;
#X restore -127 146 pd color;
#X obj -127 121 knob 54 -128 24 0 -128 from_k_13_\$0 to_k_13_\$0 #191919 #606060 #ff0000 1 0 0 0 1 270 0 0 0;
#X obj -127 177 nbx 5 14 -128 24 0 1 from_k_13_\$0 to_k_13_\$0 empty 0 -8 0 10 #191919 #d4d4d4 #d4d4d4 -128 256;
#X msg -71 169 set \$1;
#X msg -71 123 set \$1;
#N canvas 0 50 450 300 color 0;
#X obj 209 29 inlet;
#X obj 210 235 outlet;
#X obj 229 159 colors;
#X msg 229 129 hsl \$1 100 50;
#X obj 229 69 + 128;
#X obj 229 99 * 2;
#X msg 229 189 fgcolor \$1;
#X connect 0 0 4 0;
#X connect 2 0 6 0;
#X connect 3 0 2 0;
#X connect 4 0 5 0;
#X connect 5 0 3 0;
#X connect 6 0 1 0;
#X restore -71 146 pd color;
#X obj -71 121 knob 54 -128 24 0 -128 from_k_14_\$0 to_k_14_\$0 #191919 #606060 #ff0000 1 0 0 0 1 270 0 0 0;
#X obj -71 177 nbx 5 14 -128 24 0 1 from_k_14_\$0 to_k_14_\$0 empty 0 -8 0 10 #191919 #d4d4d4 #d4d4d4 -128 256;
#X msg -15 169 set \$1;
#X msg -15 123 set \$1;
#N canvas 0 50 450 300 color 0;
#X obj 209 29 inlet;
#X obj 210 235 outlet;
#X obj 229 159 colors;
#X msg 229 129 hsl \$1 100 50;
#X obj 229 69 + 128;
#X obj 229 99 * 2;
#X msg 229 189 fgcolor \$1;
#X connect 0 0 4 0;
#X connect 2 0 6 0;
#X connect 3 0 2 0;
#X connect 4 0 5 0;
#X connect 5 0 3 0;
#X connect 6 0 1 0;
#X restore -15 146 pd color;
#X obj -15 121 knob 54 -128 24 0 -128 from_k_15_\$0 to_k_15_\$0 #191919 #606060 #ff0000 1 0 0 0 1 270 0 0 0;
#X obj -15 177 nbx 5 14 -128 24 0 1 from_k_15_\$0 to_k_15_\$0 empty 0 -8 0 10 #191919 #d4d4d4 #d4d4d4 -128 256;
#X msg 41 169 set \$1;
#X msg 41 123 set \$1;
#N canvas 0 50 450 300 color 0;
#X obj 209 29 inlet;
#X obj 210 235 outlet;
#X obj 229 159 colors;
#X msg 229 129 hsl \$1 100 50;
#X obj 229 69 + 128;
#X obj 229 99 * 2;
#X msg 229 189 fgcolor \$1;
#X connect 0 0 4 0;
#X connect 2 0 6 0;
#X connect 3 0 2 0;
#X connect 4 0 5 0;
#X connect 5 0 3 0;
#X connect 6 0 1 0;
#X restore 41 146 pd color;
#X obj 41 121 knob 54 -128 24 0 -128 from_k_16_\$0 to_k_16_\$0 #191919 #606060 #ff0000 1 0 0 0 1 270 0 0 0;
#X obj 41 177 nbx 5 14 -128 24 0 1 from_k_16_\$0 to_k_16_\$0 empty 0 -8 0 10 #191919 #d4d4d4 #d4d4d4 -128 256;
#X msg 97 169 set \$1;
#X msg 97 123 set \$1;
#N canvas 0 50 450 300 color 0;
#X obj 209 29 inlet;
#X obj 210 235 outlet;
#X obj 229 159 colors;
#X msg 229 129 hsl \$1 100 50;
#X obj 229 69 + 128;
#X obj 229 99 * 2;
#X msg 229 189 fgcolor \$1;
#X connect 0 0 4 0;
#X connect 2 0 6 0;
#X connect 3 0 2 0;
#X connect 4 0 5 0;
#X connect 5 0 3 0;
#X connect 6 0 1 0;
#X restore 97 146 pd color;
#X obj -351 193 knob 54 -128 24 0 -128 from_k_17_\$0 to_k_17_\$0 #191919 #606060 #ff0000 1 0 0 0 1 270 0 0 0;
#X obj -351 249 nbx 5 14 -128 24 0 1 from_k_17_\$0 to_k_17_\$0 empty 0 -8 0 10 #191919 #d4d4d4 #d4d4d4 -128 256;
#X msg -295 241 set \$1;
#X msg -295 195 set \$1;
#N canvas 0 50 450 300 color 0;
#X obj 209 29 inlet;
#X obj 210 235 outlet;
#X obj 229 159 colors;
#X msg 229 129 hsl \$1 100 50;
#X obj 229 69 + 128;
#X obj 229 99 * 2;
#X msg 229 189 fgcolor \$1;
#X connect 0 0 4 0;
#X connect 2 0 6 0;
#X connect 3 0 2 0;
#X connect 4 0 5 0;
#X connect 5 0 3 0;
#X connect 6 0 1 0;
#X restore -295 218 pd color;
#X obj -295 193 knob 54 -128 24 0 -128 from_k_18_\$0 to_k_18_\$0 #191919 #606060 #ff0000 1 0 0 0 1 270 0 0 0;
#X obj -295 249 nbx 5 14 -128 24 0 1 from_k_18_\$0 to_k_18_\$0 empty 0 -8 0 10 #191919 #d4d4d4 #d4d4d4 -128 256;
#X msg -239 241 set \$1;
#X msg -239 195 set \$1;
#N canvas 0 50 450 300 color 0;
#X obj 209 29 inlet;
#X obj 210 235 outlet;
#X obj 229 159 colors;
#X msg 229 129 hsl \$1 100 50;
#X obj 229 69 + 128;
#X obj 229 99 * 2;
#X msg 229 189 fgcolor \$1;
#X connect 0 0 4 0;
#X connect 2 0 6 0;
#X connect 3 0 2 0;
#X connect 4 0 5 0;
#X connect 5 0 3 0;
#X connect 6 0 1 0;
#X restore -239 218 pd color;
#X obj -239 193 knob 54 -128 24 0 -128 from_k_19_\$0 to_k_19_\$0 #191919 #606060 #ff0000 1 0 0 0 1 270 0 0 0;
#X obj -239 249 nbx 5 14 -128 24 0 1 from_k_19_\$0 to_k_19_\$0 empty 0 -8 0 10 #191919 #d4d4d4 #d4d4d4 -128 256;
#X msg -183 241 set \$1;
#X msg -183 195 set \$1;
#N canvas 0 50 450 300 color 0;
#X obj 209 29 inlet;
#X obj 210 235 outlet;
#X obj 229 159 colors;
#X msg 229 129 hsl \$1 100 50;
#X obj 229 69 + 128;
#X obj 229 99 * 2;
#X msg 229 189 fgcolor \$1;
#X connect 0 0 4 0;
#X connect 2 0 6 0;
#X connect 3 0 2 0;
#X connect 4 0 5 0;
#X connect 5 0 3 0;
#X connect 6 0 1 0;
#X restore -183 218 pd color;
#X obj -183 193 knob 54 -128 24 0 -128 from_k_20_\$0 to_k_20_\$0 #191919 #606060 #ff0000 1 0 0 0 1 270 0 0 0;
#X obj -183 249 nbx 5 14 -128 24 0 1 from_k_20_\$0 to_k_20_\$0 empty 0 -8 0 10 #191919 #d4d4d4 #d4d4d4 -128 256;
#X msg -127 241 set \$1;
#X msg -127 195 set \$1;
#N canvas 0 50 450 300 color 0;
#X obj 209 29 inlet;
#X obj 210 235 outlet;
#X obj 229 159 colors;
#X msg 229 129 hsl \$1 100 50;
#X obj 229 69 + 128;
#X obj 229 99 * 2;
#X msg 229 189 fgcolor \$1;
#X connect 0 0 4 0;
#X connect 2 0 6 0;
#X connect 3 0 2 0;
#X connect 4 0 5 0;
#X connect 5 0 3 0;
#X connect 6 0 1 0;
#X restore -127 218 pd color;
#X obj -127 193 knob 54 -128 24 0 -128 from_k_21_\$0 to_k_21_\$0 #191919 #606060 #ff0000 1 0 0 0 1 270 0 0 0;
#X obj -127 249 nbx 5 14 -128 24 0 1 from_k_21_\$0 to_k_21_\$0 empty 0 -8 0 10 #191919 #d4d4d4 #d4d4d4 -128 256;
#X msg -71 241 set \$1;
#X msg -71 195 set \$1;
#N canvas 0 50 450 300 color 0;
#X obj 209 29 inlet;
#X obj 210 235 outlet;
#X obj 229 159 colors;
#X msg 229 129 hsl \$1 100 50;
#X obj 229 69 + 128;
#X obj 229 99 * 2;
#X msg 229 189 fgcolor \$1;
#X connect 0 0 4 0;
#X connect 2 0 6 0;
#X connect 3 0 2 0;
#X connect 4 0 5 0;
#X connect 5 0 3 0;
#X connect 6 0 1 0;
#X restore -71 218 pd color;
#X obj -71 193 knob 54 -128 24 0 -128 from_k_22_\$0 to_k_22_\$0 #191919 #606060 #ff0000 1 0 0 0 1 270 0 0 0;
#X obj -71 249 nbx 5 14 -128 24 0 1 from_k_22_\$0 to_k_22_\$0 empty 0 -8 0 10 #191919 #d4d4d4 #d4d4d4 -128 256;
#X msg -15 241 set \$1;
#X msg -15 195 set \$1;
#N canvas 0 50 450 300 color 0;
#X obj 209 29 inlet;
#X obj 210 235 outlet;
#X obj 229 159 colors;
#X msg 229 129 hsl \$1 100 50;
#X obj 229 69 + 128;
#X obj 229 99 * 2;
#X msg 229 189 fgcolor \$1;
#X connect 0 0 4 0;
#X connect 2 0 6 0;
#X connect 3 0 2 0;
#X connect 4 0 5 0;
#X connect 5 0 3 0;
#X connect 6 0 1 0;
#X restore -15 218 pd color;
#X obj -15 193 knob 54 -128 24 0 -128 from_k_23_\$0 to_k_23_\$0 #191919 #606060 #ff0000 1 0 0 0 1 270 0 0 0;
#X obj -15 249 nbx 5 14 -128 24 0 1 from_k_23_\$0 to_k_23_\$0 empty 0 -8 0 10 #191919 #d4d4d4 #d4d4d4 -128 256;
#X msg 41 241 set \$1;
#X msg 41 195 set \$1;
#N canvas 0 50 450 300 color 0;
#X obj 209 29 inlet;
#X obj 210 235 outlet;
#X obj 229 159 colors;
#X msg 229 129 hsl \$1 100 50;
#X obj 229 69 + 128;
#X obj 229 99 * 2;
#X msg 229 189 fgcolor \$1;
#X connect 0 0 4 0;
#X connect 2 0 6 0;
#X connect 3 0 2 0;
#X connect 4 0 5 0;
#X connect 5 0 3 0;
#X connect 6 0 1 0;
#X restore 41 218 pd color;
#X obj 41 193 knob 54 -128 24 0 -128 from_k_24_\$0 to_k_24_\$0 #191919 #606060 #ff0000 1 0 0 0 1 270 0 0 0;
#X obj 41 249 nbx 5 14 -128 24 0 1 from_k_24_\$0 to_k_24_\$0 empty 0 -8 0 10 #191919 #d4d4d4 #d4d4d4 -128 256;
#X msg 97 241 set \$1;
#X msg 97 195 set \$1;
#N canvas 0 50 450 300 color 0;
#X obj 209 29 inlet;
#X obj 210 235 outlet;
#X obj 229 159 colors;
#X msg 229 129 hsl \$1 100 50;
#X obj 229 69 + 128;
#X obj 229 99 * 2;
#X msg 229 189 fgcolor \$1;
#X connect 0 0 4 0;
#X connect 2 0 6 0;
#X connect 3 0 2 0;
#X connect 4 0 5 0;
#X connect 5 0 3 0;
#X connect 6 0 1 0;
#X restore 97 218 pd color;
#X obj -351 265 knob 54 -128 24 0 -128 from_k_25_\$0 to_k_25_\$0 #191919 #606060 #ff0000 1 0 0 0 1 270 0 0 0;
#X obj -351 321 nbx 5 14 -128 24 0 1 from_k_25_\$0 to_k_25_\$0 empty 0 -8 0 10 #191919 #d4d4d4 #d4d4d4 -128 256;
#X msg -295 313 set \$1;
#X msg -295 267 set \$1;
#N canvas 0 50 450 300 color 0;
#X obj 209 29 inlet;
#X obj 210 235 outlet;
#X obj 229 159 colors;
#X msg 229 129 hsl \$1 100 50;
#X obj 229 69 + 128;
#X obj 229 99 * 2;
#X msg 229 189 fgcolor \$1;
#X connect 0 0 4 0;
#X connect 2 0 6 0;
#X connect 3 0 2 0;
#X connect 4 0 5 0;
#X connect 5 0 3 0;
#X connect 6 0 1 0;
#X restore -295 290 pd color;
#X obj -295 265 knob 54 -128 24 0 -128 from_k_26_\$0 to_k_26_\$0 #191919 #606060 #ff0000 1 0 0 0 1 270 0 0 0;
#X obj -295 321 nbx 5 14 -128 24 0 1 from_k_26_\$0 to_k_26_\$0 empty 0 -8 0 10 #191919 #d4d4d4 #d4d4d4 -128 256;
#X msg -239 313 set \$1;
#X msg -239 267 set \$1;
#N canvas 0 50 450 300 color 0;
#X obj 209 29 inlet;
#X obj 210 235 outlet;
#X obj 229 159 colors;
#X msg 229 129 hsl \$1 100 50;
#X obj 229 69 + 128;
#X obj 229 99 * 2;
#X msg 229 189 fgcolor \$1;
#X connect 0 0 4 0;
#X connect 2 0 6 0;
#X connect 3 0 2 0;
#X connect 4 0 5 0;
#X connect 5 0 3 0;
#X connect 6 0 1 0;
#X restore -239 290 pd color;
#X obj -239 265 knob 54 -128 24 0 -128 from_k_27_\$0 to_k_27_\$0 #191919 #606060 #ff0000 1 0 0 0 1 270 0 0 0;
#X obj -239 321 nbx 5 14 -128 24 0 1 from_k_27_\$0 to_k_27_\$0 empty 0 -8 0 10 #191919 #d4d4d4 #d4d4d4 -128 256;
#X msg -183 313 set \$1;
#X msg -183 267 set \$1;
#N canvas 0 50 450 300 color 0;
#X obj 209 29 inlet;
#X obj 210 235 outlet;
#X obj 229 159 colors;
#X msg 229 129 hsl \$1 100 50;
#X obj 229 69 + 128;
#X obj 229 99 * 2;
#X msg 229 189 fgcolor \$1;
#X connect 0 0 4 0;
#X connect 2 0 6 0;
#X connect 3 0 2 0;
#X connect 4 0 5 0;
#X connect 5 0 3 0;
#X connect 6 0 1 0;
#X restore -183 290 pd color;
#X obj -183 265 knob 54 -128 24 0 -128 from_k_28_\$0 to_k_28_\$0 #191919 #606060 #ff0000 1 0 0 0 1 270 0 0 0;
#X obj -183 321 nbx 5 14 -128 24 0 1 from_k_28_\$0 to_k_28_\$0 empty 0 -8 0 10 #191919 #d4d4d4 #d4d4d4 -128 256;
#X msg -127 313 set \$1;
#X msg -127 267 set \$1;
#N canvas 0 50 450 300 color 0;
#X obj 209 29 inlet;
#X obj 210 235 outlet;
#X obj 229 159 colors;
#X msg 229 129 hsl \$1 100 50;
#X obj 229 69 + 128;
#X obj 229 99 * 2;
#X msg 229 189 fgcolor \$1;
#X connect 0 0 4 0;
#X connect 2 0 6 0;
#X connect 3 0 2 0;
#X connect 4 0 5 0;
#X connect 5 0 3 0;
#X connect 6 0 1 0;
#X restore -127 290 pd color;
#X obj -127 265 knob 54 -128 24 0 -128 from_k_29_\$0 to_k_29_\$0 #191919 #606060 #ff0000 1 0 0 0 1 270 0 0 0;
#X obj -127 321 nbx 5 14 -128 24 0 1 from_k_29_\$0 to_k_29_\$0 empty 0 -8 0 10 #191919 #d4d4d4 #d4d4d4 -128 256;
#X msg -71 313 set \$1;
#X msg -71 267 set \$1;
#N canvas 0 50 450 300 color 0;
#X obj 209 29 inlet;
#X obj 210 235 outlet;
#X obj 229 159 colors;
#X msg 229 129 hsl \$1 100 50;
#X obj 229 69 + 128;
#X obj 229 99 * 2;
#X msg 229 189 fgcolor \$1;
#X connect 0 0 4 0;
#X connect 2 0 6 0;
#X connect 3 0 2 0;
#X connect 4 0 5 0;
#X connect 5 0 3 0;
#X connect 6 0 1 0;
#X restore -71 290 pd color;
#X obj -71 265 knob 54 -128 24 0 -128 from_k_30_\$0 to_k_30_\$0 #191919 #606060 #ff0000 1 0 0 0 1 270 0 0 0;
#X obj -71 321 nbx 5 14 -128 24 0 1 from_k_30_\$0 to_k_30_\$0 empty 0 -8 0 10 #191919 #d4d4d4 #d4d4d4 -128 256;
#X msg -15 313 set \$1;
#X msg -15 267 set \$1;
#N canvas 0 50 450 300 color 0;
#X obj 209 29 inlet;
#X obj 210 235 outlet;
#X obj 229 159 colors;
#X msg 229 129 hsl \$1 100 50;
#X obj 229 69 + 128;
#X obj 229 99 * 2;
#X msg 229 189 fgcolor \$1;
#X connect 0 0 4 0;
#X connect 2 0 6 0;
#X connect 3 0 2 0;
#X connect 4 0 5 0;
#X connect 5 0 3 0;
#X connect 6 0 1 0;
#X restore -15 290 pd color;
#X obj -15 265 knob 54 -128 24 0 -128 from_k_31_\$0 to_k_31_\$0 #191919 #606060 #ff0000 1 0 0 0 1 270 0 0 0;
#X obj -15 321 nbx 5 14 -128 24 0 1 from_k_31_\$0 to_k_31_\$0 empty 0 -8 0 10 #191919 #d4d4d4 #d4d4d4 -128 256;
#X msg 41 313 set \$1;
#X msg 41 267 set \$1;
#N canvas 0 50 450 300 color 0;
#X obj 209 29 inlet;
#X obj 210 235 outlet;
#X obj 229 159 colors;
#X msg 229 129 hsl \$1 100 50;
#X obj 229 69 + 128;
#X obj 229 99 * 2;
#X msg 229 189 fgcolor \$1;
#X connect 0 0 4 0;
#X connect 2 0 6 0;
#X connect 3 0 2 0;
#X connect 4 0 5 0;
#X connect 5 0 3 0;
#X connect 6 0 1 0;
#X restore 41 290 pd color;
#X obj 41 265 knob 54 -128 24 0 -128 from_k_32_\$0 to_k_32_\$0 #191919 #606060 #ff0000 1 0 0 0 1 270 0 0 0;
#X obj 41 321 nbx 5 14 -128 24 0 1 from_k_32_\$0 to_k_32_\$0 empty 0 -8 0 10 #191919 #d4d4d4 #d4d4d4 -128 256;
#X msg 97 313 set \$1;
#X msg 97 267 set \$1;
#N canvas 0 50 450 300 color 0;
#X obj 209 29 inlet;
#X obj 210 235 outlet;
#X obj 229 159 colors;
#X msg 229 129 hsl \$1 100 50;
#X obj 229 69 + 128;
#X obj 229 99 * 2;
#X msg 229 189 fgcolor \$1;
#X connect 0 0 4 0;
#X connect 2 0 6 0;
#X connect 3 0 2 0;
#X connect 4 0 5 0;
#X connect 5 0 3 0;
#X connect 6 0 1 0;
#X restore 97 290 pd color;
#X obj -351 337 knob 54 -128 24 0 -128 from_k_33_\$0 to_k_33_\$0 #191919 #606060 #ff0000 1 0 0 0 1 270 0 0 0;
#X obj -351 393 nbx 5 14 -128 24 0 1 from_k_33_\$0 to_k_33_\$0 empty 0 -8 0 10 #191919 #d4d4d4 #d4d4d4 -128 256;
#X msg -295 385 set \$1;
#X msg -295 339 set \$1;
#N canvas 0 50 450 300 color 0;
#X obj 209 29 inlet;
#X obj 210 235 outlet;
#X obj 229 159 colors;
#X msg 229 129 hsl \$1 100 50;
#X obj 229 69 + 128;
#X obj 229 99 * 2;
#X msg 229 189 fgcolor \$1;
#X connect 0 0 4 0;
#X connect 2 0 6 0;
#X connect 3 0 2 0;
#X connect 4 0 5 0;
#X connect 5 0 3 0;
#X connect 6 0 1 0;
#X restore -295 362 pd color;
#X obj -295 337 knob 54 -128 24 0 -128 from_k_34_\$0 to_k_34_\$0 #191919 #606060 #ff0000 1 0 0 0 1 270 0 0 0;
#X obj -295 393 nbx 5 14 -128 24 0 1 from_k_34_\$0 to_k_34_\$0 empty 0 -8 0 10 #191919 #d4d4d4 #d4d4d4 -128 256;
#X msg -239 385 set \$1;
#X msg -239 339 set \$1;
#N canvas 0 50 450 300 color 0;
#X obj 209 29 inlet;
#X obj 210 235 outlet;
#X obj 229 159 colors;
#X msg 229 129 hsl \$1 100 50;
#X obj 229 69 + 128;
#X obj 229 99 * 2;
#X msg 229 189 fgcolor \$1;
#X connect 0 0 4 0;
#X connect 2 0 6 0;
#X connect 3 0 2 0;
#X connect 4 0 5 0;
#X connect 5 0 3 0;
#X connect 6 0 1 0;
#X restore -239 362 pd color;
#X obj -239 337 knob 54 -128 24 0 -128 from_k_35_\$0 to_k_35_\$0 #191919 #606060 #ff0000 1 0 0 0 1 270 0 0 0;
#X obj -239 393 nbx 5 14 -128 24 0 1 from_k_35_\$0 to_k_35_\$0 empty 0 -8 0 10 #191919 #d4d4d4 #d4d4d4 -128 256;
#X msg -183 385 set \$1;
#X msg -183 339 set \$1;
#N canvas 0 50 450 300 color 0;
#X obj 209 29 inlet;
#X obj 210 235 outlet;
#X obj 229 159 colors;
#X msg 229 129 hsl \$1 100 50;
#X obj 229 69 + 128;
#X obj 229 99 * 2;
#X msg 229 189 fgcolor \$1;
#X connect 0 0 4 0;
#X connect 2 0 6 0;
#X connect 3 0 2 0;
#X connect 4 0 5 0;
#X connect 5 0 3 0;
#X connect 6 0 1 0;
#X restore -183 362 pd color;
#X obj -183 337 knob 54 -128 24 0 -128 from_k_36_\$0 to_k_36_\$0 #191919 #606060 #ff0000 1 0 0 0 1 270 0 0 0;
#X obj -183 393 nbx 5 14 -128 24 0 1 from_k_36_\$0 to_k_36_\$0 empty 0 -8 0 10 #191919 #d4d4d4 #d4d4d4 -128 256;
#X msg -127 385 set \$1;
#X msg -127 339 set \$1;
#N canvas 0 50 450 300 color 0;
#X obj 209 29 inlet;
#X obj 210 235 outlet;
#X obj 229 159 colors;
#X msg 229 129 hsl \$1 100 50;
#X obj 229 69 + 128;
#X obj 229 99 * 2;
#X msg 229 189 fgcolor \$1;
#X connect 0 0 4 0;
#X connect 2 0 6 0;
#X connect 3 0 2 0;
#X connect 4 0 5 0;
#X connect 5 0 3 0;
#X connect 6 0 1 0;
#X restore -127 362 pd color;
#X obj -127 337 knob 54 -128 24 0 -128 from_k_37_\$0 to_k_37_\$0 #191919 #606060 #ff0000 1 0 0 0 1 270 0 0 0;
#X obj -127 393 nbx 5 14 -128 24 0 1 from_k_37_\$0 to_k_37_\$0 empty 0 -8 0 10 #191919 #d4d4d4 #d4d4d4 -128 256;
#X msg -71 385 set \$1;
#X msg -71 339 set \$1;
#N canvas 0 50 450 300 color 0;
#X obj 209 29 inlet;
#X obj 210 235 outlet;
#X obj 229 159 colors;
#X msg 229 129 hsl \$1 100 50;
#X obj 229 69 + 128;
#X obj 229 99 * 2;
#X msg 229 189 fgcolor \$1;
#X connect 0 0 4 0;
#X connect 2 0 6 0;
#X connect 3 0 2 0;
#X connect 4 0 5 0;
#X connect 5 0 3 0;
#X connect 6 0 1 0;
#X restore -71 362 pd color;
#X obj -71 337 knob 54 -128 24 0 -128 from_k_38_\$0 to_k_38_\$0 #191919 #606060 #ff0000 1 0 0 0 1 270 0 0 0;
#X obj -71 393 nbx 5 14 -128 24 0 1 from_k_38_\$0 to_k_38_\$0 empty 0 -8 0 10 #191919 #d4d4d4 #d4d4d4 -128 256;
#X msg -15 385 set \$1;
#X msg -15 339 set \$1;
#N canvas 0 50 450 300 color 0;
#X obj 209 29 inlet;
#X obj 210 235 outlet;
#X obj 229 159 colors;
#X msg 229 129 hsl \$1 100 50;
#X obj 229 69 + 128;
#X obj 229 99 * 2;
#X msg 229 189 fgcolor \$1;
#X connect 0 0 4 0;
#X connect 2 0 6 0;
#X connect 3 0 2 0;
#X connect 4 0 5 0;
#X connect 5 0 3 0;
#X connect 6 0 1 0;
#X restore -15 362 pd color;
#X obj -15 337 knob 54 -128 24 0 -128 from_k_39_\$0 to_k_39_\$0 #191919 #606060 #ff0000 1 0 0 0 1 270 0 0 0;
#X obj -15 393 nbx 5 14 -128 24 0 1 from_k_39_\$0 to_k_39_\$0 empty 0 -8 0 10 #191919 #d4d4d4 #d4d4d4 -128 256;
#X msg 41 385 set \$1;
#X msg 41 339 set \$1;
#N canvas 0 50 450 300 color 0;
#X obj 209 29 inlet;
#X obj 210 235 outlet;
#X obj 229 159 colors;
#X msg 229 129 hsl \$1 100 50;
#X obj 229 69 + 128;
#X obj 229 99 * 2;
#X msg 229 189 fgcolor \$1;
#X connect 0 0 4 0;
#X connect 2 0 6 0;
#X connect 3 0 2 0;
#X connect 4 0 5 0;
#X connect 5 0 3 0;
#X connect 6 0 1 0;
#X restore 41 362 pd color;
#X obj 41 337 knob 54 -128 24 0 -128 from_k_40_\$0 to_k_40_\$0 #191919 #606060 #ff0000 1 0 0 0 1 270 0 0 0;
#X obj 41 393 nbx 5 14 -128 24 0 1 from_k_40_\$0 to_k_40_\$0 empty 0 -8 0 10 #191919 #d4d4d4 #d4d4d4 -128 256;
#X msg 97 385 set \$1;
#X msg 97 339 set \$1;
#N canvas 0 50 450 300 color 0;
#X obj 209 29 inlet;
#X obj 210 235 outlet;
#X obj 229 159 colors;
#X msg 229 129 hsl \$1 100 50;
#X obj 229 69 + 128;
#X obj 229 99 * 2;
#X msg 229 189 fgcolor \$1;
#X connect 0 0 4 0;
#X connect 2 0 6 0;
#X connect 3 0 2 0;
#X connect 4 0 5 0;
#X connect 5 0 3 0;
#X connect 6 0 1 0;
#X restore 97 362 pd color;
#X obj -351 409 knob 54 -128 24 0 -128 from_k_41_\$0 to_k_41_\$0 #191919 #606060 #ff0000 1 0 0 0 1 270 0 0 0;
#X obj -351 465 nbx 5 14 -128 24 0 1 from_k_41_\$0 to_k_41_\$0 empty 0 -8 0 10 #191919 #d4d4d4 #d4d4d4 -128 256;
#X msg -295 457 set \$1;
#X msg -295 411 set \$1;
#N canvas 0 50 450 300 color 0;
#X obj 209 29 inlet;
#X obj 210 235 outlet;
#X obj 229 159 colors;
#X msg 229 129 hsl \$1 100 50;
#X obj 229 69 + 128;
#X obj 229 99 * 2;
#X msg 229 189 fgcolor \$1;
#X connect 0 0 4 0;
#X connect 2 0 6 0;
#X connect 3 0 2 0;
#X connect 4 0 5 0;
#X connect 5 0 3 0;
#X connect 6 0 1 0;
#X restore -295 434 pd color;
#X obj -295 409 knob 54 -128 24 0 -128 from_k_42_\$0 to_k_42_\$0 #191919 #606060 #ff0000 1 0 0 0 1 270 0 0 0;
#X obj -295 465 nbx 5 14 -128 24 0 1 from_k_42_\$0 to_k_42_\$0 empty 0 -8 0 10 #191919 #d4d4d4 #d4d4d4 -128 256;
#X msg -239 457 set \$1;
#X msg -239 411 set \$1;
#N canvas 0 50 450 300 color 0;
#X obj 209 29 inlet;
#X obj 210 235 outlet;
#X obj 229 159 colors;
#X msg 229 129 hsl \$1 100 50;
#X obj 229 69 + 128;
#X obj 229 99 * 2;
#X msg 229 189 fgcolor \$1;
#X connect 0 0 4 0;
#X connect 2 0 6 0;
#X connect 3 0 2 0;
#X connect 4 0 5 0;
#X connect 5 0 3 0;
#X connect 6 0 1 0;
#X restore -239 434 pd color;
#X obj -239 409 knob 54 -128 24 0 -128 from_k_43_\$0 to_k_43_\$0 #191919 #606060 #ff0000 1 0 0 0 1 270 0 0 0;
#X obj -239 465 nbx 5 14 -128 24 0 1 from_k_43_\$0 to_k_43_\$0 empty 0 -8 0 10 #191919 #d4d4d4 #d4d4d4 -128 256;
#X msg -183 457 set \$1;
#X msg -183 411 set \$1;
#N canvas 0 50 450 300 color 0;
#X obj 209 29 inlet;
#X obj 210 235 outlet;
#X obj 229 159 colors;
#X msg 229 129 hsl \$1 100 50;
#X obj 229 69 + 128;
#X obj 229 99 * 2;
#X msg 229 189 fgcolor \$1;
#X connect 0 0 4 0;
#X connect 2 0 6 0;
#X connect 3 0 2 0;
#X connect 4 0 5 0;
#X connect 5 0 3 0;
#X connect 6 0 1 0;
#X restore -183 434 pd color;
#X obj -183 409 knob 54 -128 24 0 -128 from_k_44_\$0 to_k_44_\$0 #191919 #606060 #ff0000 1 0 0 0 1 270 0 0 0;
#X obj -183 465 nbx 5 14 -128 24 0 1 from_k_44_\$0 to_k_44_\$0 empty 0 -8 0 10 #191919 #d4d4d4 #d4d4d4 -128 256;
#X msg -127 457 set \$1;
#X msg -127 411 set \$1;
#N canvas 0 50 450 300 color 0;
#X obj 209 29 inlet;
#X obj 210 235 outlet;
#X obj 229 159 colors;
#X msg 229 129 hsl \$1 100 50;
#X obj 229 69 + 128;
#X obj 229 99 * 2;
#X msg 229 189 fgcolor \$1;
#X connect 0 0 4 0;
#X connect 2 0 6 0;
#X connect 3 0 2 0;
#X connect 4 0 5 0;
#X connect 5 0 3 0;
#X connect 6 0 1 0;
#X restore -127 434 pd color;
#X obj -127 409 knob 54 -128 24 0 -128 from_k_45_\$0 to_k_45_\$0 #191919 #606060 #ff0000 1 0 0 0 1 270 0 0 0;
#X obj -127 465 nbx 5 14 -128 24 0 1 from_k_45_\$0 to_k_45_\$0 empty 0 -8 0 10 #191919 #d4d4d4 #d4d4d4 -128 256;
#X msg -71 457 set \$1;
#X msg -71 411 set \$1;
#N canvas 0 50 450 300 color 0;
#X obj 209 29 inlet;
#X obj 210 235 outlet;
#X obj 229 159 colors;
#X msg 229 129 hsl \$1 100 50;
#X obj 229 69 + 128;
#X obj 229 99 * 2;
#X msg 229 189 fgcolor \$1;
#X connect 0 0 4 0;
#X connect 2 0 6 0;
#X connect 3 0 2 0;
#X connect 4 0 5 0;
#X connect 5 0 3 0;
#X connect 6 0 1 0;
#X restore -71 434 pd color;
#X obj -71 409 knob 54 -128 24 0 -128 from_k_46_\$0 to_k_46_\$0 #191919 #606060 #ff0000 1 0 0 0 1 270 0 0 0;
#X obj -71 465 nbx 5 14 -128 24 0 1 from_k_46_\$0 to_k_46_\$0 empty 0 -8 0 10 #191919 #d4d4d4 #d4d4d4 -128 256;
#X msg -15 457 set \$1;
#X msg -15 411 set \$1;
#N canvas 0 50 450 300 color 0;
#X obj 209 29 inlet;
#X obj 210 235 outlet;
#X obj 229 159 colors;
#X msg 229 129 hsl \$1 100 50;
#X obj 229 69 + 128;
#X obj 229 99 * 2;
#X msg 229 189 fgcolor \$1;
#X connect 0 0 4 0;
#X connect 2 0 6 0;
#X connect 3 0 2 0;
#X connect 4 0 5 0;
#X connect 5 0 3 0;
#X connect 6 0 1 0;
#X restore -15 434 pd color;
#X obj -15 409 knob 54 -128 24 0 -128 from_k_47_\$0 to_k_47_\$0 #191919 #606060 #ff0000 1 0 0 0 1 270 0 0 0;
#X obj -15 465 nbx 5 14 -128 24 0 1 from_k_47_\$0 to_k_47_\$0 empty 0 -8 0 10 #191919 #d4d4d4 #d4d4d4 -128 256;
#X msg 41 457 set \$1;
#X msg 41 411 set \$1;
#N canvas 0 50 450 300 color 0;
#X obj 209 29 inlet;
#X obj 210 235 outlet;
#X obj 229 159 colors;
#X msg 229 129 hsl \$1 100 50;
#X obj 229 69 + 128;
#X obj 229 99 * 2;
#X msg 229 189 fgcolor \$1;
#X connect 0 0 4 0;
#X connect 2 0 6 0;
#X connect 3 0 2 0;
#X connect 4 0 5 0;
#X connect 5 0 3 0;
#X connect 6 0 1 0;
#X restore 41 434 pd color;
#X obj 41 409 knob 54 -128 24 0 -128 from_k_48_\$0 to_k_48_\$0 #191919 #606060 #ff0000 1 0 0 0 1 270 0 0 0;
#X obj 41 465 nbx 5 14 -128 24 0 1 from_k_48_\$0 to_k_48_\$0 empty 0 -8 0 10 #191919 #d4d4d4 #d4d4d4 -128 256;
#X msg 97 457 set \$1;
#X msg 97 411 set \$1;
#N canvas 0 50 450 300 color 0;
#X obj 209 29 inlet;
#X obj 210 235 outlet;
#X obj 229 159 colors;
#X msg 229 129 hsl \$1 100 50;
#X obj 229 69 + 128;
#X obj 229 99 * 2;
#X msg 229 189 fgcolor \$1;
#X connect 0 0 4 0;
#X connect 2 0 6 0;
#X connect 3 0 2 0;
#X connect 4 0 5 0;
#X connect 5 0 3 0;
#X connect 6 0 1 0;
#X restore 97 434 pd color;
#X obj -351 481 knob 54 -128 24 0 -128 from_k_49_\$0 to_k_49_\$0 #191919 #606060 #ff0000 1 0 0 0 1 270 0 0 0;
#X obj -351 537 nbx 5 14 -128 24 0 1 from_k_49_\$0 to_k_49_\$0 empty 0 -8 0 10 #191919 #d4d4d4 #d4d4d4 -128 256;
#X msg -295 529 set \$1;
#X msg -295 483 set \$1;
#N canvas 0 50 450 300 color 0;
#X obj 209 29 inlet;
#X obj 210 235 outlet;
#X obj 229 159 colors;
#X msg 229 129 hsl \$1 100 50;
#X obj 229 69 + 128;
#X obj 229 99 * 2;
#X msg 229 189 fgcolor \$1;
#X connect 0 0 4 0;
#X connect 2 0 6 0;
#X connect 3 0 2 0;
#X connect 4 0 5 0;
#X connect 5 0 3 0;
#X connect 6 0 1 0;
#X restore -295 506 pd color;
#X obj -295 481 knob 54 -128 24 0 -128 from_k_50_\$0 to_k_50_\$0 #191919 #606060 #ff0000 1 0 0 0 1 270 0 0 0;
#X obj -295 537 nbx 5 14 -128 24 0 1 from_k_50_\$0 to_k_50_\$0 empty 0 -8 0 10 #191919 #d4d4d4 #d4d4d4 -128 256;
#X msg -239 529 set \$1;
#X msg -239 483 set \$1;
#N canvas 0 50 450 300 color 0;
#X obj 209 29 inlet;
#X obj 210 235 outlet;
#X obj 229 159 colors;
#X msg 229 129 hsl \$1 100 50;
#X obj 229 69 + 128;
#X obj 229 99 * 2;
#X msg 229 189 fgcolor \$1;
#X connect 0 0 4 0;
#X connect 2 0 6 0;
#X connect 3 0 2 0;
#X connect 4 0 5 0;
#X connect 5 0 3 0;
#X connect 6 0 1 0;
#X restore -239 506 pd color;
#X obj -239 481 knob 54 -128 24 0 -128 from_k_51_\$0 to_k_51_\$0 #191919 #606060 #ff0000 1 0 0 0 1 270 0 0 0;
#X obj -239 537 nbx 5 14 -128 24 0 1 from_k_51_\$0 to_k_51_\$0 empty 0 -8 0 10 #191919 #d4d4d4 #d4d4d4 -128 256;
#X msg -183 529 set \$1;
#X msg -183 483 set \$1;
#N canvas 0 50 450 300 color 0;
#X obj 209 29 inlet;
#X obj 210 235 outlet;
#X obj 229 159 colors;
#X msg 229 129 hsl \$1 100 50;
#X obj 229 69 + 128;
#X obj 229 99 * 2;
#X msg 229 189 fgcolor \$1;
#X connect 0 0 4 0;
#X connect 2 0 6 0;
#X connect 3 0 2 0;
#X connect 4 0 5 0;
#X connect 5 0 3 0;
#X connect 6 0 1 0;
#X restore -183 506 pd color;
#X obj -183 481 knob 54 -128 24 0 -128 from_k_52_\$0 to_k_52_\$0 #191919 #606060 #ff0000 1 0 0 0 1 270 0 0 0;
#X obj -183 537 nbx 5 14 -128 24 0 1 from_k_52_\$0 to_k_52_\$0 empty 0 -8 0 10 #191919 #d4d4d4 #d4d4d4 -128 256;
#X msg -127 529 set \$1;
#X msg -127 483 set \$1;
#N canvas 0 50 450 300 color 0;
#X obj 209 29 inlet;
#X obj 210 235 outlet;
#X obj 229 159 colors;
#X msg 229 129 hsl \$1 100 50;
#X obj 229 69 + 128;
#X obj 229 99 * 2;
#X msg 229 189 fgcolor \$1;
#X connect 0 0 4 0;
#X connect 2 0 6 0;
#X connect 3 0 2 0;
#X connect 4 0 5 0;
#X connect 5 0 3 0;
#X connect 6 0 1 0;
#X restore -127 506 pd color;
#X obj -127 481 knob 54 -128 24 0 -128 from_k_53_\$0 to_k_53_\$0 #191919 #606060 #ff0000 1 0 0 0 1 270 0 0 0;
#X obj -127 537 nbx 5 14 -128 24 0 1 from_k_53_\$0 to_k_53_\$0 empty 0 -8 0 10 #191919 #d4d4d4 #d4d4d4 -128 256;
#X msg -71 529 set \$1;
#X msg -71 483 set \$1;
#N canvas 0 50 450 300 color 0;
#X obj 209 29 inlet;
#X obj 210 235 outlet;
#X obj 229 159 colors;
#X msg 229 129 hsl \$1 100 50;
#X obj 229 69 + 128;
#X obj 229 99 * 2;
#X msg 229 189 fgcolor \$1;
#X connect 0 0 4 0;
#X connect 2 0 6 0;
#X connect 3 0 2 0;
#X connect 4 0 5 0;
#X connect 5 0 3 0;
#X connect 6 0 1 0;
#X restore -71 506 pd color;
#X obj -71 481 knob 54 -128 24 0 -128 from_k_54_\$0 to_k_54_\$0 #191919 #606060 #ff0000 1 0 0 0 1 270 0 0 0;
#X obj -71 537 nbx 5 14 -128 24 0 1 from_k_54_\$0 to_k_54_\$0 empty 0 -8 0 10 #191919 #d4d4d4 #d4d4d4 -128 256;
#X msg -15 529 set \$1;
#X msg -15 483 set \$1;
#N canvas 0 50 450 300 color 0;
#X obj 209 29 inlet;
#X obj 210 235 outlet;
#X obj 229 159 colors;
#X msg 229 129 hsl \$1 100 50;
#X obj 229 69 + 128;
#X obj 229 99 * 2;
#X msg 229 189 fgcolor \$1;
#X connect 0 0 4 0;
#X connect 2 0 6 0;
#X connect 3 0 2 0;
#X connect 4 0 5 0;
#X connect 5 0 3 0;
#X connect 6 0 1 0;
#X restore -15 506 pd color;
#X obj -15 481 knob 54 -128 24 0 -128 from_k_55_\$0 to_k_55_\$0 #191919 #606060 #ff0000 1 0 0 0 1 270 0 0 0;
#X obj -15 537 nbx 5 14 -128 24 0 1 from_k_55_\$0 to_k_55_\$0 empty 0 -8 0 10 #191919 #d4d4d4 #d4d4d4 -128 256;
#X msg 41 529 set \$1;
#X msg 41 483 set \$1;
#N canvas 0 50 450 300 color 0;
#X obj 209 29 inlet;
#X obj 210 235 outlet;
#X obj 229 159 colors;
#X msg 229 129 hsl \$1 100 50;
#X obj 229 69 + 128;
#X obj 229 99 * 2;
#X msg 229 189 fgcolor \$1;
#X connect 0 0 4 0;
#X connect 2 0 6 0;
#X connect 3 0 2 0;
#X connect 4 0 5 0;
#X connect 5 0 3 0;
#X connect 6 0 1 0;
#X restore 41 506 pd color;
#X obj 41 481 knob 54 -128 24 0 -128 from_k_56_\$0 to_k_56_\$0 #191919 #606060 #ff0000 1 0 0 0 1 270 0 0 0;
#X obj 41 537 nbx 5 14 -128 24 0 1 from_k_56_\$0 to_k_56_\$0 empty 0 -8 0 10 #191919 #d4d4d4 #d4d4d4 -128 256;
#X msg 97 529 set \$1;
#X msg 97 483 set \$1;
#N canvas 0 50 450 300 color 0;
#X obj 209 29 inlet;
#X obj 210 235 outlet;
#X obj 229 159 colors;
#X msg 229 129 hsl \$1 100 50;
#X obj 229 69 + 128;
#X obj 229 99 * 2;
#X msg 229 189 fgcolor \$1;
#X connect 0 0 4 0;
#X connect 2 0 6 0;
#X connect 3 0 2 0;
#X connect 4 0 5 0;
#X connect 5 0 3 0;
#X connect 6 0 1 0;
#X restore 97 506 pd color;
#X obj -351 553 knob 54 -128 24 0 -128 from_k_57_\$0 to_k_57_\$0 #191919 #606060 #ff0000 1 0 0 0 1 270 0 0 0;
#X obj -351 609 nbx 5 14 -128 24 0 1 from_k_57_\$0 to_k_57_\$0 empty 0 -8 0 10 #191919 #d4d4d4 #d4d4d4 -128 256;
#X msg -295 601 set \$1;
#X msg -295 555 set \$1;
#N canvas 0 50 450 300 color 0;
#X obj 209 29 inlet;
#X obj 210 235 outlet;
#X obj 229 159 colors;
#X msg 229 129 hsl \$1 100 50;
#X obj 229 69 + 128;
#X obj 229 99 * 2;
#X msg 229 189 fgcolor \$1;
#X connect 0 0 4 0;
#X connect 2 0 6 0;
#X connect 3 0 2 0;
#X connect 4 0 5 0;
#X connect 5 0 3 0;
#X connect 6 0 1 0;
#X restore -295 578 pd color;
#X obj -295 553 knob 54 -128 24 0 -128 from_k_58_\$0 to_k_58_\$0 #191919 #606060 #ff0000 1 0 0 0 1 270 0 0 0;
#X obj -295 609 nbx 5 14 -128 24 0 1 from_k_58_\$0 to_k_58_\$0 empty 0 -8 0 10 #191919 #d4d4d4 #d4d4d4 -128 256;
#X msg -239 601 set \$1;
#X msg -239 555 set \$1;
#N canvas 0 50 450 300 color 0;
#X obj 209 29 inlet;
#X obj 210 235 outlet;
#X obj 229 159 colors;
#X msg 229 129 hsl \$1 100 50;
#X obj 229 69 + 128;
#X obj 229 99 * 2;
#X msg 229 189 fgcolor \$1;
#X connect 0 0 4 0;
#X connect 2 0 6 0;
#X connect 3 0 2 0;
#X connect 4 0 5 0;
#X connect 5 0 3 0;
#X connect 6 0 1 0;
#X restore -239 578 pd color;
#X obj -239 553 knob 54 -128 24 0 -128 from_k_59_\$0 to_k_59_\$0 #191919 #606060 #ff0000 1 0 0 0 1 270 0 0 0;
#X obj -239 609 nbx 5 14 -128 24 0 1 from_k_59_\$0 to_k_59_\$0 empty 0 -8 0 10 #191919 #d4d4d4 #d4d4d4 -128 256;
#X msg -183 601 set \$1;
#X msg -183 555 set \$1;
#N canvas 0 50 450 300 color 0;
#X obj 209 29 inlet;
#X obj 210 235 outlet;
#X obj 229 159 colors;
#X msg 229 129 hsl \$1 100 50;
#X obj 229 69 + 128;
#X obj 229 99 * 2;
#X msg 229 189 fgcolor \$1;
#X connect 0 0 4 0;
#X connect 2 0 6 0;
#X connect 3 0 2 0;
#X connect 4 0 5 0;
#X connect 5 0 3 0;
#X connect 6 0 1 0;
#X restore -183 578 pd color;
#X obj -183 553 knob 54 -128 24 0 -128 from_k_60_\$0 to_k_60_\$0 #191919 #606060 #ff0000 1 0 0 0 1 270 0 0 0;
#X obj -183 609 nbx 5 14 -128 24 0 1 from_k_60_\$0 to_k_60_\$0 empty 0 -8 0 10 #191919 #d4d4d4 #d4d4d4 -128 256;
#X msg -127 601 set \$1;
#X msg -127 555 set \$1;
#N canvas 0 50 450 300 color 0;
#X obj 209 29 inlet;
#X obj 210 235 outlet;
#X obj 229 159 colors;
#X msg 229 129 hsl \$1 100 50;
#X obj 229 69 + 128;
#X obj 229 99 * 2;
#X msg 229 189 fgcolor \$1;
#X connect 0 0 4 0;
#X connect 2 0 6 0;
#X connect 3 0 2 0;
#X connect 4 0 5 0;
#X connect 5 0 3 0;
#X connect 6 0 1 0;
#X restore -127 578 pd color;
#X obj -127 553 knob 54 -128 24 0 -128 from_k_61_\$0 to_k_61_\$0 #191919 #606060 #ff0000 1 0 0 0 1 270 0 0 0;
#X obj -127 609 nbx 5 14 -128 24 0 1 from_k_61_\$0 to_k_61_\$0 empty 0 -8 0 10 #191919 #d4d4d4 #d4d4d4 -128 256;
#X msg -71 601 set \$1;
#X msg -71 555 set \$1;
#N canvas 0 50 450 300 color 0;
#X obj 209 29 inlet;
#X obj 210 235 outlet;
#X obj 229 159 colors;
#X msg 229 129 hsl \$1 100 50;
#X obj 229 69 + 128;
#X obj 229 99 * 2;
#X msg 229 189 fgcolor \$1;
#X connect 0 0 4 0;
#X connect 2 0 6 0;
#X connect 3 0 2 0;
#X connect 4 0 5 0;
#X connect 5 0 3 0;
#X connect 6 0 1 0;
#X restore -71 578 pd color;
#X obj -71 553 knob 54 -128 24 0 -128 from_k_62_\$0 to_k_62_\$0 #191919 #606060 #ff0000 1 0 0 0 1 270 0 0 0;
#X obj -71 609 nbx 5 14 -128 24 0 1 from_k_62_\$0 to_k_62_\$0 empty 0 -8 0 10 #191919 #d4d4d4 #d4d4d4 -128 256;
#X msg -15 601 set \$1;
#X msg -15 555 set \$1;
#N canvas 0 50 450 300 color 0;
#X obj 209 29 inlet;
#X obj 210 235 outlet;
#X obj 229 159 colors;
#X msg 229 129 hsl \$1 100 50;
#X obj 229 69 + 128;
#X obj 229 99 * 2;
#X msg 229 189 fgcolor \$1;
#X connect 0 0 4 0;
#X connect 2 0 6 0;
#X connect 3 0 2 0;
#X connect 4 0 5 0;
#X connect 5 0 3 0;
#X connect 6 0 1 0;
#X restore -15 578 pd color;
#X obj -15 553 knob 54 -128 24 0 -128 from_k_63_\$0 to_k_63_\$0 #191919 #606060 #ff0000 1 0 0 0 1 270 0 0 0;
#X obj -15 609 nbx 5 14 -128 24 0 1 from_k_63_\$0 to_k_63_\$0 empty 0 -8 0 10 #191919 #d4d4d4 #d4d4d4 -128 256;
#X msg 41 601 set \$1;
#X msg 41 555 set \$1;
#N canvas 0 50 450 300 color 0;
#X obj 209 29 inlet;
#X obj 210 235 outlet;
#X obj 229 159 colors;
#X msg 229 129 hsl \$1 100 50;
#X obj 229 69 + 128;
#X obj 229 99 * 2;
#X msg 229 189 fgcolor \$1;
#X connect 0 0 4 0;
#X connect 2 0 6 0;
#X connect 3 0 2 0;
#X connect 4 0 5 0;
#X connect 5 0 3 0;
#X connect 6 0 1 0;
#X restore 41 578 pd color;
#X obj 41 553 knob 54 -128 24 0 -128 from_k_64_\$0 to_k_64_\$0 #191919 #606060 #ff0000 1 0 0 0 1 270 0 0 0;
#X obj 41 609 nbx 5 14 -128 24 0 1 from_k_64_\$0 to_k_64_\$0 empty 0 -8 0 10 #191919 #d4d4d4 #d4d4d4 -128 256;
#X msg 97 601 set \$1;
#X msg 97 555 set \$1;
#N canvas 0 50 450 300 color 0;
#X obj 209 29 inlet;
#X obj 210 235 outlet;
#X obj 229 159 colors;
#X msg 229 129 hsl \$1 100 50;
#X obj 229 69 + 128;
#X obj 229 99 * 2;
#X msg 229 189 fgcolor \$1;
#X connect 0 0 4 0;
#X connect 2 0 6 0;
#X connect 3 0 2 0;
#X connect 4 0 5 0;
#X connect 5 0 3 0;
#X connect 6 0 1 0;
#X restore 97 578 pd color;
#X text 1349 628 amy universe - 2023;
#X msg 689 619 list -128 -128 -128 -128 -128 -128 -128 -128 -128 -128 -128 -128 -128 -128 -128 -128 -128 -128 -128 -128 -128 -128 -128 -128 -128 -128 -128 -128 -128 -128 -128 -128 -128 -128 -128 -128 -128 -128 -128 -128 -128 -128 -128 -128 -128 -128 -128 -128 -128 -128 -128 -128 -128 -128 -128 -128 -128 -128 -128 -128 -128 -128 -128 -128 -128;
#X connect 0 0 20 0;
#X connect 1 0 21 0;
#X connect 2 0 22 0;
#X connect 3 0 23 0;
#X connect 4 0 83 0;
#X connect 5 0 84 0;
#X connect 6 0 85 0;
#X connect 7 0 86 0;
#X connect 8 0 20 0;
#X connect 9 0 21 0;
#X connect 10 0 22 0;
#X connect 11 0 23 0;
#X connect 12 0 83 0;
#X connect 13 0 84 0;
#X connect 14 0 85 0;
#X connect 15 0 86 0;
#X connect 16 0 0 0;
#X connect 16 0 1 0;
#X connect 16 0 2 0;
#X connect 16 0 3 0;
#X connect 16 0 7 0;
#X connect 16 0 4 0;
#X connect 16 0 5 0;
#X connect 16 0 6 0;
#X connect 16 1 82 0;
#X connect 17 0 12 0;
#X connect 17 0 15 0;
#X connect 17 0 14 0;
#X connect 17 0 13 0;
#X connect 17 0 8 0;
#X connect 17 0 11 0;
#X connect 17 0 10 0;
#X connect 17 0 9 0;
#X connect 18 0 98 0;
#X connect 18 0 97 0;
#X connect 18 0 92 0;
#X connect 18 0 93 0;
#X connect 18 0 94 0;
#X connect 18 0 95 0;
#X connect 18 0 96 0;
#X connect 18 0 91 0;
#X connect 19 0 102 0;
#X connect 19 0 103 0;
#X connect 19 0 104 0;
#X connect 19 0 105 0;
#X connect 19 0 106 0;
#X connect 19 0 101 0;
#X connect 19 0 100 0;
#X connect 19 0 99 0;
#X connect 24 0 194 0;
#X connect 25 0 191 0;
#X connect 26 0 196 0;
#X connect 27 0 34 0;
#X connect 28 0 188 0;
#X connect 31 0 35 0;
#X connect 32 1 33 0;
#X connect 33 0 653 0;
#X connect 34 0 30 1;
#X connect 34 1 32 0;
#X connect 34 2 31 0;
#X connect 35 0 32 1;
#X connect 36 0 43 1;
#X connect 37 0 42 1;
#X connect 38 0 39 0;
#X connect 39 0 40 0;
#X connect 39 0 47 0;
#X connect 40 0 39 1;
#X connect 41 0 42 0;
#X connect 42 0 49 0;
#X connect 43 0 48 0;
#X connect 44 0 43 0;
#X connect 45 0 187 0;
#X connect 45 1 54 0;
#X connect 45 2 50 0 float;
#X connect 45 2 49 1 float;
#X connect 46 0 45 0;
#X connect 47 0 44 0;
#X connect 47 1 41 0;
#X connect 47 2 199 0;
#X connect 48 0 53 0 float;
#X connect 49 0 53 1 float;
#X connect 50 0 52 0;
#X connect 50 1 51 1;
#X connect 51 0 48 1 float;
#X connect 52 0 51 0;
#X connect 53 0 198 0;
#X connect 54 0 39 1;
#X connect 55 0 196 0 float;
#X connect 55 1 57 0 float;
#X connect 55 2 58 0;
#X connect 56 0 196 0;
#X connect 56 1 58 0 float;
#X connect 56 2 57 0;
#X connect 57 0 36 0;
#X connect 58 0 37 0;
#X connect 59 0 61 0;
#X connect 60 0 29 0;
#X connect 61 0 29 0;
#X connect 62 0 60 0;
#X connect 63 0 81 0;
#X connect 64 0 59 0;
#X connect 65 0 0 1;
#X connect 66 0 1 1;
#X connect 67 0 2 1;
#X connect 68 0 3 1;
#X connect 69 0 4 1;
#X connect 70 0 5 1;
#X connect 71 0 6 1;
#X connect 72 0 7 1;
#X connect 73 0 8 1;
#X connect 74 0 9 1;
#X connect 75 0 10 1;
#X connect 76 0 11 1;
#X connect 77 0 12 1;
#X connect 78 0 13 1;
#X connect 79 0 14 1;
#X connect 80 0 15 1;
#X connect 81 0 25 0;
#X connect 81 1 24 0;
#X connect 81 2 62 0;
#X connect 82 0 25 0;
#X connect 82 1 24 0;
#X connect 82 2 29 0;
#X connect 87 0 130 0;
#X connect 87 0 128 0;
#X connect 87 0 129 0;
#X connect 87 0 127 0;
#X connect 87 0 126 0;
#X connect 87 0 125 0;
#X connect 87 0 124 0;
#X connect 87 0 123 0;
#X connect 88 0 133 0;
#X connect 88 0 134 0;
#X connect 88 0 135 0;
#X connect 88 0 136 0;
#X connect 88 0 137 0;
#X connect 88 0 138 0;
#X connect 88 0 132 0;
#X connect 88 0 131 0;
#X connect 89 0 155 0;
#X connect 89 0 156 0;
#X connect 89 0 157 0;
#X connect 89 0 158 0;
#X connect 89 0 159 0;
#X connect 89 0 160 0;
#X connect 89 0 161 0;
#X connect 89 0 162 0;
#X connect 90 0 163 0;
#X connect 90 0 164 0;
#X connect 90 0 165 0;
#X connect 90 0 166 0;
#X connect 90 0 167 0;
#X connect 90 0 168 0;
#X connect 90 0 169 0;
#X connect 90 0 170 0;
#X connect 91 0 20 0;
#X connect 92 0 21 0;
#X connect 93 0 22 0;
#X connect 94 0 23 0;
#X connect 95 0 83 0;
#X connect 96 0 84 0;
#X connect 97 0 85 0;
#X connect 98 0 86 0;
#X connect 99 0 20 0;
#X connect 100 0 21 0;
#X connect 101 0 22 0;
#X connect 102 0 23 0;
#X connect 103 0 83 0;
#X connect 104 0 84 0;
#X connect 105 0 85 0;
#X connect 106 0 86 0;
#X connect 107 0 91 1;
#X connect 108 0 92 1;
#X connect 109 0 93 1;
#X connect 110 0 94 1;
#X connect 111 0 95 1;
#X connect 112 0 96 1;
#X connect 113 0 97 1;
#X connect 114 0 98 1;
#X connect 115 0 99 1;
#X connect 116 0 100 1;
#X connect 117 0 101 1;
#X connect 118 0 102 1;
#X connect 119 0 103 1;
#X connect 120 0 104 1;
#X connect 121 0 105 1;
#X connect 122 0 106 1;
#X connect 123 0 20 0;
#X connect 124 0 21 0;
#X connect 125 0 22 0;
#X connect 126 0 23 0;
#X connect 127 0 83 0;
#X connect 128 0 84 0;
#X connect 129 0 85 0;
#X connect 130 0 86 0;
#X connect 131 0 20 0;
#X connect 132 0 21 0;
#X connect 133 0 22 0;
#X connect 134 0 23 0;
#X connect 135 0 83 0;
#X connect 136 0 84 0;
#X connect 137 0 85 0;
#X connect 138 0 86 0;
#X connect 139 0 123 1;
#X connect 140 0 124 1;
#X connect 141 0 125 1;
#X connect 142 0 126 1;
#X connect 143 0 127 1;
#X connect 144 0 128 1;
#X connect 145 0 129 1;
#X connect 146 0 130 1;
#X connect 147 0 131 1;
#X connect 148 0 132 1;
#X connect 149 0 133 1;
#X connect 150 0 134 1;
#X connect 151 0 135 1;
#X connect 152 0 136 1;
#X connect 153 0 137 1;
#X connect 154 0 138 1;
#X connect 155 0 20 0;
#X connect 156 0 21 0;
#X connect 157 0 22 0;
#X connect 158 0 23 0;
#X connect 159 0 83 0;
#X connect 160 0 84 0;
#X connect 161 0 85 0;
#X connect 162 0 86 0;
#X connect 163 0 20 0;
#X connect 164 0 21 0;
#X connect 165 0 22 0;
#X connect 166 0 23 0;
#X connect 167 0 83 0;
#X connect 168 0 84 0;
#X connect 169 0 85 0;
#X connect 170 0 86 0;
#X connect 171 0 155 1;
#X connect 172 0 156 1;
#X connect 173 0 157 1;
#X connect 174 0 158 1;
#X connect 175 0 159 1;
#X connect 176 0 160 1;
#X connect 177 0 161 1;
#X connect 178 0 162 1;
#X connect 179 0 163 1;
#X connect 180 0 164 1;
#X connect 181 0 165 1;
#X connect 182 0 166 1;
#X connect 183 0 167 1;
#X connect 184 0 168 1;
#X connect 185 0 169 1;
#X connect 186 0 170 1;
#X connect 187 0 38 0;
#X connect 188 0 30 0;
#X connect 189 0 190 1;
#X connect 189 0 197 0;
#X connect 190 0 56 0;
#X connect 191 0 190 0;
#X connect 191 1 189 0;
#X connect 192 0 193 1;
#X connect 192 0 197 0;
#X connect 193 0 55 0;
#X connect 194 0 193 0;
#X connect 194 1 192 0;
#X connect 196 0 46 0;
#X connect 197 0 196 1;
#X connect 199 0 200 0;
#X connect 200 0 198 1 float;
#X connect 201 0 188 1;
#X connect 202 0 188 2;
#X connect 203 0 188 3;
#X connect 204 0 188 4;
#X connect 205 0 188 5;
#X connect 206 0 188 6;
#X connect 207 0 188 7;
#X connect 208 0 188 8;
#X connect 209 0 188 9;
#X connect 210 0 188 10;
#X connect 211 0 188 11;
#X connect 212 0 188 12;
#X connect 213 0 188 13;
#X connect 214 0 188 14;
#X connect 215 0 188 15;
#X connect 216 0 188 16;
#X connect 217 0 188 17;
#X connect 218 0 188 18;
#X connect 219 0 188 19;
#X connect 220 0 188 20;
#X connect 221 0 188 21;
#X connect 222 0 188 22;
#X connect 223 0 188 23;
#X connect 224 0 188 24;
#X connect 225 0 188 25;
#X connect 226 0 188 26;
#X connect 227 0 188 27;
#X connect 228 0 188 28;
#X connect 229 0 188 29;
#X connect 230 0 188 30;
#X connect 231 0 188 31;
#X connect 232 0 188 32;
#X connect 233 0 188 33;
#X connect 234 0 188 34;
#X connect 235 0 188 35;
#X connect 236 0 188 36;
#X connect 237 0 188 37;
#X connect 238 0 188 38;
#X connect 239 0 188 39;
#X connect 240 0 188 40;
#X connect 241 0 188 41;
#X connect 242 0 188 42;
#X connect 243 0 188 43;
#X connect 244 0 188 44;
#X connect 245 0 188 45;
#X connect 246 0 188 46;
#X connect 247 0 188 47;
#X connect 248 0 188 48;
#X connect 249 0 188 49;
#X connect 250 0 188 50;
#X connect 251 0 188 51;
#X connect 252 0 188 52;
#X connect 253 0 188 53;
#X connect 254 0 188 54;
#X connect 255 0 188 55;
#X connect 256 0 188 56;
#X connect 257 0 188 57;
#X connect 258 0 188 58;
#X connect 259 0 188 59;
#X connect 260 0 188 60;
#X connect 261 0 188 61;
#X connect 262 0 188 62;
#X connect 263 0 188 63;
#X connect 264 0 188 64;
#X connect 267 0 65 0;
#X connect 268 0 66 0;
#X connect 269 0 67 0;
#X connect 270 0 68 0;
#X connect 271 0 69 0;
#X connect 272 0 70 0;
#X connect 273 0 71 0;
#X connect 274 0 72 0;
#X connect 275 0 73 0;
#X connect 276 0 74 0;
#X connect 277 0 75 0;
#X connect 278 0 76 0;
#X connect 279 0 77 0;
#X connect 280 0 78 0;
#X connect 281 0 79 0;
#X connect 282 0 80 0;
#X connect 283 0 107 0;
#X connect 284 0 108 0;
#X connect 285 0 109 0;
#X connect 286 0 110 0;
#X connect 287 0 111 0;
#X connect 288 0 112 0;
#X connect 289 0 113 0;
#X connect 290 0 114 0;
#X connect 291 0 115 0;
#X connect 292 0 116 0;
#X connect 293 0 117 0;
#X connect 294 0 118 0;
#X connect 295 0 119 0;
#X connect 296 0 120 0;
#X connect 297 0 121 0;
#X connect 298 0 122 0;
#X connect 299 0 139 0;
#X connect 300 0 140 0;
#X connect 301 0 141 0;
#X connect 302 0 142 0;
#X connect 303 0 143 0;
#X connect 304 0 144 0;
#X connect 305 0 145 0;
#X connect 306 0 146 0;
#X connect 307 0 147 0;
#X connect 308 0 148 0;
#X connect 309 0 149 0;
#X connect 310 0 150 0;
#X connect 311 0 151 0;
#X connect 312 0 152 0;
#X connect 313 0 153 0;
#X connect 314 0 154 0;
#X connect 315 0 171 0;
#X connect 316 0 172 0;
#X connect 317 0 173 0;
#X connect 318 0 174 0;
#X connect 319 0 175 0;
#X connect 320 0 176 0;
#X connect 321 0 177 0;
#X connect 322 0 178 0;
#X connect 323 0 179 0;
#X connect 324 0 180 0;
#X connect 325 0 181 0;
#X connect 326 0 182 0;
#X connect 327 0 183 0;
#X connect 328 0 184 0;
#X connect 329 0 185 0;
#X connect 330 0 186 0;
#X connect 332 0 335 0;
#X connect 332 0 336 0;
#X connect 333 0 334 0;
#X connect 333 0 336 0;
#X connect 334 0 332 0;
#X connect 335 0 333 0;
#X connect 336 0 332 0;
#X connect 337 0 340 0;
#X connect 337 0 341 0;
#X connect 338 0 339 0;
#X connect 338 0 341 0;
#X connect 339 0 337 0;
#X connect 340 0 338 0;
#X connect 341 0 337 0;
#X connect 342 0 345 0;
#X connect 342 0 346 0;
#X connect 343 0 344 0;
#X connect 343 0 346 0;
#X connect 344 0 342 0;
#X connect 345 0 343 0;
#X connect 346 0 342 0;
#X connect 347 0 350 0;
#X connect 347 0 351 0;
#X connect 348 0 349 0;
#X connect 348 0 351 0;
#X connect 349 0 347 0;
#X connect 350 0 348 0;
#X connect 351 0 347 0;
#X connect 352 0 355 0;
#X connect 352 0 356 0;
#X connect 353 0 354 0;
#X connect 353 0 356 0;
#X connect 354 0 352 0;
#X connect 355 0 353 0;
#X connect 356 0 352 0;
#X connect 357 0 360 0;
#X connect 357 0 361 0;
#X connect 358 0 359 0;
#X connect 358 0 361 0;
#X connect 359 0 357 0;
#X connect 360 0 358 0;
#X connect 361 0 357 0;
#X connect 362 0 365 0;
#X connect 362 0 366 0;
#X connect 363 0 364 0;
#X connect 363 0 366 0;
#X connect 364 0 362 0;
#X connect 365 0 363 0;
#X connect 366 0 362 0;
#X connect 367 0 370 0;
#X connect 367 0 371 0;
#X connect 368 0 369 0;
#X connect 368 0 371 0;
#X connect 369 0 367 0;
#X connect 370 0 368 0;
#X connect 371 0 367 0;
#X connect 372 0 375 0;
#X connect 372 0 376 0;
#X connect 373 0 374 0;
#X connect 373 0 376 0;
#X connect 374 0 372 0;
#X connect 375 0 373 0;
#X connect 376 0 372 0;
#X connect 377 0 380 0;
#X connect 377 0 381 0;
#X connect 378 0 379 0;
#X connect 378 0 381 0;
#X connect 379 0 377 0;
#X connect 380 0 378 0;
#X connect 381 0 377 0;
#X connect 382 0 385 0;
#X connect 382 0 386 0;
#X connect 383 0 384 0;
#X connect 383 0 386 0;
#X connect 384 0 382 0;
#X connect 385 0 383 0;
#X connect 386 0 382 0;
#X connect 387 0 390 0;
#X connect 387 0 391 0;
#X connect 388 0 389 0;
#X connect 388 0 391 0;
#X connect 389 0 387 0;
#X connect 390 0 388 0;
#X connect 391 0 387 0;
#X connect 392 0 395 0;
#X connect 392 0 396 0;
#X connect 393 0 394 0;
#X connect 393 0 396 0;
#X connect 394 0 392 0;
#X connect 395 0 393 0;
#X connect 396 0 392 0;
#X connect 397 0 400 0;
#X connect 397 0 401 0;
#X connect 398 0 399 0;
#X connect 398 0 401 0;
#X connect 399 0 397 0;
#X connect 400 0 398 0;
#X connect 401 0 397 0;
#X connect 402 0 405 0;
#X connect 402 0 406 0;
#X connect 403 0 404 0;
#X connect 403 0 406 0;
#X connect 404 0 402 0;
#X connect 405 0 403 0;
#X connect 406 0 402 0;
#X connect 407 0 410 0;
#X connect 407 0 411 0;
#X connect 408 0 409 0;
#X connect 408 0 411 0;
#X connect 409 0 407 0;
#X connect 410 0 408 0;
#X connect 411 0 407 0;
#X connect 412 0 415 0;
#X connect 412 0 416 0;
#X connect 413 0 414 0;
#X connect 413 0 416 0;
#X connect 414 0 412 0;
#X connect 415 0 413 0;
#X connect 416 0 412 0;
#X connect 417 0 420 0;
#X connect 417 0 421 0;
#X connect 418 0 419 0;
#X connect 418 0 421 0;
#X connect 419 0 417 0;
#X connect 420 0 418 0;
#X connect 421 0 417 0;
#X connect 422 0 425 0;
#X connect 422 0 426 0;
#X connect 423 0 424 0;
#X connect 423 0 426 0;
#X connect 424 0 422 0;
#X connect 425 0 423 0;
#X connect 426 0 422 0;
#X connect 427 0 430 0;
#X connect 427 0 431 0;
#X connect 428 0 429 0;
#X connect 428 0 431 0;
#X connect 429 0 427 0;
#X connect 430 0 428 0;
#X connect 431 0 427 0;
#X connect 432 0 435 0;
#X connect 432 0 436 0;
#X connect 433 0 434 0;
#X connect 433 0 436 0;
#X connect 434 0 432 0;
#X connect 435 0 433 0;
#X connect 436 0 432 0;
#X connect 437 0 440 0;
#X connect 437 0 441 0;
#X connect 438 0 439 0;
#X connect 438 0 441 0;
#X connect 439 0 437 0;
#X connect 440 0 438 0;
#X connect 441 0 437 0;
#X connect 442 0 445 0;
#X connect 442 0 446 0;
#X connect 443 0 444 0;
#X connect 443 0 446 0;
#X connect 444 0 442 0;
#X connect 445 0 443 0;
#X connect 446 0 442 0;
#X connect 447 0 450 0;
#X connect 447 0 451 0;
#X connect 448 0 449 0;
#X connect 448 0 451 0;
#X connect 449 0 447 0;
#X connect 450 0 448 0;
#X connect 451 0 447 0;
#X connect 452 0 455 0;
#X connect 452 0 456 0;
#X connect 453 0 454 0;
#X connect 453 0 456 0;
#X connect 454 0 452 0;
#X connect 455 0 453 0;
#X connect 456 0 452 0;
#X connect 457 0 460 0;
#X connect 457 0 461 0;
#X connect 458 0 459 0;
#X connect 458 0 461 0;
#X connect 459 0 457 0;
#X connect 460 0 458 0;
#X connect 461 0 457 0;
#X connect 462 0 465 0;
#X connect 462 0 466 0;
#X connect 463 0 464 0;
#X connect 463 0 466 0;
#X connect 464 0 462 0;
#X connect 465 0 463 0;
#X connect 466 0 462 0;
#X connect 467 0 470 0;
#X connect 467 0 471 0;
#X connect 468 0 469 0;
#X connect 468 0 471 0;
#X connect 469 0 467 0;
#X connect 470 0 468 0;
#X connect 471 0 467 0;
#X connect 472 0 475 0;
#X connect 472 0 476 0;
#X connect 473 0 474 0;
#X connect 473 0 476 0;
#X connect 474 0 472 0;
#X connect 475 0 473 0;
#X connect 476 0 472 0;
#X connect 477 0 480 0;
#X connect 477 0 481 0;
#X connect 478 0 479 0;
#X connect 478 0 481 0;
#X connect 479 0 477 0;
#X connect 480 0 478 0;
#X connect 481 0 477 0;
#X connect 482 0 485 0;
#X connect 482 0 486 0;
#X connect 483 0 484 0;
#X connect 483 0 486 0;
#X connect 484 0 482 0;
#X connect 485 0 483 0;
#X connect 486 0 482 0;
#X connect 487 0 490 0;
#X connect 487 0 491 0;
#X connect 488 0 489 0;
#X connect 488 0 491 0;
#X connect 489 0 487 0;
#X connect 490 0 488 0;
#X connect 491 0 487 0;
#X connect 492 0 495 0;
#X connect 492 0 496 0;
#X connect 493 0 494 0;
#X connect 493 0 496 0;
#X connect 494 0 492 0;
#X connect 495 0 493 0;
#X connect 496 0 492 0;
#X connect 497 0 500 0;
#X connect 497 0 501 0;
#X connect 498 0 499 0;
#X connect 498 0 501 0;
#X connect 499 0 497 0;
#X connect 500 0 498 0;
#X connect 501 0 497 0;
#X connect 502 0 505 0;
#X connect 502 0 506 0;
#X connect 503 0 504 0;
#X connect 503 0 506 0;
#X connect 504 0 502 0;
#X connect 505 0 503 0;
#X connect 506 0 502 0;
#X connect 507 0 510 0;
#X connect 507 0 511 0;
#X connect 508 0 509 0;
#X connect 508 0 511 0;
#X connect 509 0 507 0;
#X connect 510 0 508 0;
#X connect 511 0 507 0;
#X connect 512 0 515 0;
#X connect 512 0 516 0;
#X connect 513 0 514 0;
#X connect 513 0 516 0;
#X connect 514 0 512 0;
#X connect 515 0 513 0;
#X connect 516 0 512 0;
#X connect 517 0 520 0;
#X connect 517 0 521 0;
#X connect 518 0 519 0;
#X connect 518 0 521 0;
#X connect 519 0 517 0;
#X connect 520 0 518 0;
#X connect 521 0 517 0;
#X connect 522 0 525 0;
#X connect 522 0 526 0;
#X connect 523 0 524 0;
#X connect 523 0 526 0;
#X connect 524 0 522 0;
#X connect 525 0 523 0;
#X connect 526 0 522 0;
#X connect 527 0 530 0;
#X connect 527 0 531 0;
#X connect 528 0 529 0;
#X connect 528 0 531 0;
#X connect 529 0 527 0;
#X connect 530 0 528 0;
#X connect 531 0 527 0;
#X connect 532 0 535 0;
#X connect 532 0 536 0;
#X connect 533 0 534 0;
#X connect 533 0 536 0;
#X connect 534 0 532 0;
#X connect 535 0 533 0;
#X connect 536 0 532 0;
#X connect 537 0 540 0;
#X connect 537 0 541 0;
#X connect 538 0 539 0;
#X connect 538 0 541 0;
#X connect 539 0 537 0;
#X connect 540 0 538 0;
#X connect 541 0 537 0;
#X connect 542 0 545 0;
#X connect 542 0 546 0;
#X connect 543 0 544 0;
#X connect 543 0 546 0;
#X connect 544 0 542 0;
#X connect 545 0 543 0;
#X connect 546 0 542 0;
#X connect 547 0 550 0;
#X connect 547 0 551 0;
#X connect 548 0 549 0;
#X connect 548 0 551 0;
#X connect 549 0 547 0;
#X connect 550 0 548 0;
#X connect 551 0 547 0;
#X connect 552 0 555 0;
#X connect 552 0 556 0;
#X connect 553 0 554 0;
#X connect 553 0 556 0;
#X connect 554 0 552 0;
#X connect 555 0 553 0;
#X connect 556 0 552 0;
#X connect 557 0 560 0;
#X connect 557 0 561 0;
#X connect 558 0 559 0;
#X connect 558 0 561 0;
#X connect 559 0 557 0;
#X connect 560 0 558 0;
#X connect 561 0 557 0;
#X connect 562 0 565 0;
#X connect 562 0 566 0;
#X connect 563 0 564 0;
#X connect 563 0 566 0;
#X connect 564 0 562 0;
#X connect 565 0 563 0;
#X connect 566 0 562 0;
#X connect 567 0 570 0;
#X connect 567 0 571 0;
#X connect 568 0 569 0;
#X connect 568 0 571 0;
#X connect 569 0 567 0;
#X connect 570 0 568 0;
#X connect 571 0 567 0;
#X connect 572 0 575 0;
#X connect 572 0 576 0;
#X connect 573 0 574 0;
#X connect 573 0 576 0;
#X connect 574 0 572 0;
#X connect 575 0 573 0;
#X connect 576 0 572 0;
#X connect 577 0 580 0;
#X connect 577 0 581 0;
#X connect 578 0 579 0;
#X connect 578 0 581 0;
#X connect 579 0 577 0;
#X connect 580 0 578 0;
#X connect 581 0 577 0;
#X connect 582 0 585 0;
#X connect 582 0 586 0;
#X connect 583 0 584 0;
#X connect 583 0 586 0;
#X connect 584 0 582 0;
#X connect 585 0 583 0;
#X connect 586 0 582 0;
#X connect 587 0 590 0;
#X connect 587 0 591 0;
#X connect 588 0 589 0;
#X connect 588 0 591 0;
#X connect 589 0 587 0;
#X connect 590 0 588 0;
#X connect 591 0 587 0;
#X connect 592 0 595 0;
#X connect 592 0 596 0;
#X connect 593 0 594 0;
#X connect 593 0 596 0;
#X connect 594 0 592 0;
#X connect 595 0 593 0;
#X connect 596 0 592 0;
#X connect 597 0 600 0;
#X connect 597 0 601 0;
#X connect 598 0 599 0;
#X connect 598 0 601 0;
#X connect 599 0 597 0;
#X connect 600 0 598 0;
#X connect 601 0 597 0;
#X connect 602 0 605 0;
#X connect 602 0 606 0;
#X connect 603 0 604 0;
#X connect 603 0 606 0;
#X connect 604 0 602 0;
#X connect 605 0 603 0;
#X connect 606 0 602 0;
#X connect 607 0 610 0;
#X connect 607 0 611 0;
#X connect 608 0 609 0;
#X connect 608 0 611 0;
#X connect 609 0 607 0;
#X connect 610 0 608 0;
#X connect 611 0 607 0;
#X connect 612 0 615 0;
#X connect 612 0 616 0;
#X connect 613 0 614 0;
#X connect 613 0 616 0;
#X connect 614 0 612 0;
#X connect 615 0 613 0;
#X connect 616 0 612 0;
#X connect 617 0 620 0;
#X connect 617 0 621 0;
#X connect 618 0 619 0;
#X connect 618 0 621 0;
#X connect 619 0 617 0;
#X connect 620 0 618 0;
#X connect 621 0 617 0;
#X connect 622 0 625 0;
#X connect 622 0 626 0;
#X connect 623 0 624 0;
#X connect 623 0 626 0;
#X connect 624 0 622 0;
#X connect 625 0 623 0;
#X connect 626 0 622 0;
#X connect 627 0 630 0;
#X connect 627 0 631 0;
#X connect 628 0 629 0;
#X connect 628 0 631 0;
#X connect 629 0 627 0;
#X connect 630 0 628 0;
#X connect 631 0 627 0;
#X connect 632 0 635 0;
#X connect 632 0 636 0;
#X connect 633 0 634 0;
#X connect 633 0 636 0;
#X connect 634 0 632 0;
#X connect 635 0 633 0;
#X connect 636 0 632 0;
#X connect 637 0 640 0;
#X connect 637 0 641 0;
#X connect 638 0 639 0;
#X connect 638 0 641 0;
#X connect 639 0 637 0;
#X connect 640 0 638 0;
#X connect 641 0 637 0;
#X connect 642 0 645 0;
#X connect 642 0 646 0;
#X connect 643 0 644 0;
#X connect 643 0 646 0;
#X connect 644 0 642 0;
#X connect 645 0 643 0;
#X connect 646 0 642 0;
#X connect 647 0 650 0;
#X connect 647 0 651 0;
#X connect 648 0 649 0;
#X connect 648 0 651 0;
#X connect 649 0 647 0;
#X connect 650 0 648 0;
#X connect 651 0 647 0;
#X connect 653 0 30 0;
#X coords 0 0 1 1 463 669 2 -358 39;
