#N canvas 827 239 527 378 12;
#X text 549 118 graph?;
#X text 549 148 savestate;
#X text 549 178 presets and morphing;
#X text 549 208 dbtoa?;
#X obj 149 69 spigot;
#X obj 9 29 inlet;
#X obj 19 99 inlet;
#X obj 29 169 inlet;
#X obj 39 239 inlet;
#X obj 319 329 outlet;
#X obj 219 69 spigot;
#X obj 349 69 spigot;
#X obj 289 69 spigot;
#X obj 149 139 spigot;
#X obj 219 139 spigot;
#X obj 349 139 spigot;
#X obj 289 139 spigot;
#X obj 149 209 spigot;
#X obj 219 209 spigot;
#X obj 349 209 spigot;
#X obj 289 209 spigot;
#X obj 149 279 spigot;
#X obj 219 279 spigot;
#X obj 349 279 spigot;
#X obj 289 279 spigot;
#X obj 169 29 tgl 25 0 empty empty empty 17 7 0 10 #191919 #d4d4d4 #d4d4d4 0 1;
#X obj 239 29 tgl 25 0 empty empty empty 17 7 0 10 #191919 #d4d4d4 #d4d4d4 0 1;
#X obj 309 29 tgl 25 0 empty empty empty 17 7 0 10 #191919 #d4d4d4 #d4d4d4 0 1;
#X obj 369 29 tgl 25 0 empty empty empty 17 7 0 10 #191919 #d4d4d4 #d4d4d4 0 1;
#X obj 169 99 tgl 25 0 empty empty empty 17 7 0 10 #191919 #d4d4d4 #d4d4d4 0 1;
#X obj 239 99 tgl 25 0 empty empty empty 17 7 0 10 #191919 #d4d4d4 #d4d4d4 0 1;
#X obj 309 99 tgl 25 0 empty empty empty 17 7 0 10 #191919 #d4d4d4 #d4d4d4 0 1;
#X obj 369 99 tgl 25 0 empty empty empty 17 7 0 10 #191919 #d4d4d4 #d4d4d4 0 1;
#X obj 169 169 tgl 25 0 empty empty empty 17 7 0 10 #191919 #d4d4d4 #d4d4d4 0 1;
#X obj 239 169 tgl 25 0 empty empty empty 17 7 0 10 #191919 #d4d4d4 #d4d4d4 0 1;
#X obj 309 169 tgl 25 0 empty empty empty 17 7 0 10 #191919 #d4d4d4 #d4d4d4 0 1;
#X obj 369 169 tgl 25 0 empty empty empty 17 7 0 10 #191919 #d4d4d4 #d4d4d4 0 1;
#X obj 169 239 tgl 25 0 empty empty empty 17 7 0 10 #191919 #d4d4d4 #d4d4d4 0 1;
#X obj 239 239 tgl 25 0 empty empty empty 17 7 0 10 #191919 #d4d4d4 #d4d4d4 0 1;
#X obj 309 239 tgl 25 0 empty empty empty 17 7 0 10 #191919 #d4d4d4 #d4d4d4 0 1;
#X obj 369 239 tgl 25 0 empty empty empty 17 7 0 10 #191919 #d4d4d4 #d4d4d4 0 1;
#X obj 109 329 outlet;
#X obj 179 329 outlet;
#X obj 249 329 outlet;
#X connect 4 0 41 0;
#X connect 5 0 11 0;
#X connect 5 0 12 0;
#X connect 5 0 10 0;
#X connect 5 0 4 0;
#X connect 6 0 14 0;
#X connect 6 0 15 0;
#X connect 6 0 16 0;
#X connect 6 0 13 0;
#X connect 7 0 19 0;
#X connect 7 0 20 0;
#X connect 7 0 18 0;
#X connect 7 0 17 0;
#X connect 8 0 23 0;
#X connect 8 0 24 0;
#X connect 8 0 22 0;
#X connect 8 0 21 0;
#X connect 10 0 42 0;
#X connect 11 0 9 0;
#X connect 12 0 43 0;
#X connect 13 0 41 0;
#X connect 14 0 42 0;
#X connect 15 0 9 0;
#X connect 16 0 43 0;
#X connect 17 0 41 0;
#X connect 18 0 42 0;
#X connect 19 0 9 0;
#X connect 20 0 43 0;
#X connect 21 0 41 0;
#X connect 22 0 42 0;
#X connect 23 0 9 0;
#X connect 24 0 43 0;
#X connect 25 0 4 1;
#X connect 26 0 10 1;
#X connect 27 0 12 1;
#X connect 28 0 11 1;
#X connect 29 0 13 1;
#X connect 30 0 14 1;
#X connect 31 0 16 1;
#X connect 32 0 15 1;
#X connect 33 0 17 1;
#X connect 34 0 18 1;
#X connect 35 0 20 1;
#X connect 36 0 19 1;
#X connect 37 0 21 1;
#X connect 38 0 22 1;
#X connect 39 0 24 1;
#X connect 40 0 23 1;
#X coords 0 0 1 1 237 249 2 164 23;
