#N canvas 827 239 527 378 12;
#X obj 149 69 *~;
#X obj 219 69 *~;
#X obj 289 69 *~;
#X obj 349 69 *~;
#X obj 149 139 *~;
#X obj 219 139 *~;
#X obj 289 139 *~;
#X obj 349 139 *~;
#X obj 149 209 *~;
#X obj 219 209 *~;
#X obj 289 209 *~;
#X obj 349 209 *~;
#X obj 149 279 *~;
#X obj 219 279 *~;
#X obj 289 279 *~;
#X obj 349 279 *~;
#X obj 9 29 inlet~;
#X obj 19 99 inlet~;
#X obj 29 169 inlet~;
#X obj 39 239 inlet~;
#X obj 109 329 outlet~;
#X obj 179 329 outlet~;
#X obj 249 329 outlet~;
#X obj 319 329 outlet~;
#X obj 160 39 nbx 4 18 -1e+37 1e+37 0 0 empty empty empty 0 -8 0 10 #191919 #d4d4d4 #d4d4d4 0 256;
#X obj 230 39 nbx 4 18 -1e+37 1e+37 0 0 empty empty empty 0 -8 0 10 #191919 #d4d4d4 #d4d4d4 0 256;
#X obj 300 39 nbx 4 18 -1e+37 1e+37 0 0 empty empty empty 0 -8 0 10 #191919 #d4d4d4 #d4d4d4 0 256;
#X obj 360 39 nbx 4 18 -1e+37 1e+37 0 0 empty empty empty 0 -8 0 10 #191919 #d4d4d4 #d4d4d4 0 256;
#X obj 160 109 nbx 4 18 -1e+37 1e+37 0 0 empty empty empty 0 -8 0 10 #191919 #d4d4d4 #d4d4d4 0 256;
#X obj 230 109 nbx 4 18 -1e+37 1e+37 0 0 empty empty empty 0 -8 0 10 #191919 #d4d4d4 #d4d4d4 0 256;
#X obj 300 109 nbx 4 18 -1e+37 1e+37 0 0 empty empty empty 0 -8 0 10 #191919 #d4d4d4 #d4d4d4 0 256;
#X obj 360 109 nbx 4 18 -1e+37 1e+37 0 0 empty empty empty 0 -8 0 10 #191919 #d4d4d4 #d4d4d4 0 256;
#X obj 160 179 nbx 4 18 -1e+37 1e+37 0 0 empty empty empty 0 -8 0 10 #191919 #d4d4d4 #d4d4d4 0 256;
#X obj 230 179 nbx 4 18 -1e+37 1e+37 0 0 empty empty empty 0 -8 0 10 #191919 #d4d4d4 #d4d4d4 0 256;
#X obj 300 179 nbx 4 18 -1e+37 1e+37 0 0 empty empty empty 0 -8 0 10 #191919 #d4d4d4 #d4d4d4 0 256;
#X obj 360 179 nbx 4 18 -1e+37 1e+37 0 0 empty empty empty 0 -8 0 10 #191919 #d4d4d4 #d4d4d4 0 256;
#X obj 160 249 nbx 4 18 -1e+37 1e+37 0 0 empty empty empty 0 -8 0 10 #191919 #d4d4d4 #d4d4d4 0 256;
#X obj 230 249 nbx 4 18 -1e+37 1e+37 0 0 empty empty empty 0 -8 0 10 #191919 #d4d4d4 #d4d4d4 0 256;
#X obj 300 249 nbx 4 18 -1e+37 1e+37 0 0 empty empty empty 0 -8 0 10 #191919 #d4d4d4 #d4d4d4 0 256;
#X obj 360 249 nbx 4 18 -1e+37 1e+37 0 0 empty empty empty 0 -8 0 10 #191919 #d4d4d4 #d4d4d4 0 256;
#X text 542 119 graph?;
#X text 544 145 savestate;
#X text 541 175 presets and morphing;
#X text 549 208 dbtoa?;
#X connect 0 0 20 0;
#X connect 1 0 21 0;
#X connect 2 0 22 0;
#X connect 3 0 23 0;
#X connect 4 0 20 0;
#X connect 5 0 21 0;
#X connect 6 0 22 0;
#X connect 7 0 23 0;
#X connect 8 0 20 0;
#X connect 9 0 21 0;
#X connect 10 0 22 0;
#X connect 11 0 23 0;
#X connect 12 0 20 0;
#X connect 13 0 21 0;
#X connect 14 0 22 0;
#X connect 15 0 23 0;
#X connect 16 0 0 0;
#X connect 16 0 1 0;
#X connect 16 0 2 0;
#X connect 16 0 3 0;
#X connect 17 0 4 0;
#X connect 17 0 5 0;
#X connect 17 0 6 0;
#X connect 17 0 7 0;
#X connect 18 0 11 0;
#X connect 18 0 10 0;
#X connect 18 0 9 0;
#X connect 18 0 8 0;
#X connect 19 0 15 0;
#X connect 19 0 14 0;
#X connect 19 0 13 0;
#X connect 19 0 12 0;
#X connect 24 0 0 1;
#X connect 25 0 1 1;
#X connect 26 0 2 1;
#X connect 27 0 3 1;
#X connect 28 0 4 1;
#X connect 29 0 5 1;
#X connect 30 0 6 1;
#X connect 31 0 7 1;
#X connect 32 0 8 1;
#X connect 33 0 9 1;
#X connect 34 0 10 1;
#X connect 35 0 11 1;
#X connect 36 0 12 1;
#X connect 37 0 13 1;
#X connect 38 0 14 1;
#X connect 39 0 15 1;
