#N canvas 827 239 527 327 12;
#X obj 99 129 morpho;
#X obj 189 409 dac~;
#X obj 139 59 osc~;
#X obj 187 59 osc~;
#X obj 235 59 osc~;
#X obj 279 59 osc~;
#X obj 99 19 nbx 4 18 -1e+37 1e+37 0 0 empty empty empty 0 -8 0 10 #191919 #d4d4d4 #d4d4d4 0 256;
#X obj 149 19 nbx 4 18 -1e+37 1e+37 0 0 empty empty empty 0 -8 0 10 #191919 #d4d4d4 #d4d4d4 0 256;
#X obj 203 19 nbx 4 18 -1e+37 1e+37 0 0 empty empty empty 0 -8 0 10 #191919 #d4d4d4 #d4d4d4 0 256;
#X obj 257 19 nbx 4 18 -1e+37 1e+37 0 0 empty empty empty 0 -8 0 10 #191919 #d4d4d4 #d4d4d4 0 256;
#X connect 0 0 1 0;
#X connect 0 1 1 1;
#X connect 2 0 0 0;
#X connect 3 0 0 1;
#X connect 4 0 0 2;
#X connect 5 0 0 3;
#X connect 6 0 2 0;
#X connect 7 0 3 0;
#X connect 8 0 4 0;
#X connect 9 0 5 0;
