#N canvas 827 239 666 376 12;
#X obj 19 69 osc~;
#X obj 69 69 osc~;
#X obj 119 69 osc~;
#X obj 169 69 osc~;
#X obj 19 29 nbx 4 18 -1e+37 1e+37 0 0 empty empty empty 0 -8 0 10 #191919 #d4d4d4 #d4d4d4 0 256;
#X obj 69 29 nbx 4 18 -1e+37 1e+37 0 0 empty empty empty 0 -8 0 10 #191919 #d4d4d4 #d4d4d4 0 256;
#X obj 119 29 nbx 4 18 -1e+37 1e+37 0 0 empty empty empty 0 -8 0 10 #191919 #d4d4d4 #d4d4d4 0 256;
#X obj 169 29 nbx 4 18 -1e+37 1e+37 0 0 empty empty empty 0 -8 0 10 #191919 #d4d4d4 #d4d4d4 0 256;
#X obj 319 89 monarch;
#X obj 279 99 *~ 1;
#X obj 279 139 *~ 1;
#X obj 279 179 *~ 1;
#X obj 279 219 *~ 1;
#X text 379 68 @@those inlets don't exist@@;
#X obj 279 9 loadbang;
#X msg 279 39 read test.txt;
#X obj 89 459 monarch8;
#X obj 39 469 *~ 1;
#X obj 39 509 *~ 1;
#X obj 39 549 *~ 1;
#X obj 39 589 *~ 1;
#X obj 39 629 *~ 1;
#X obj 39 669 *~ 1;
#X obj 39 709 *~ 1;
#X obj 39 749 *~ 1;
#X connect 0 0 9 0;
#X connect 1 0 10 0;
#X connect 2 0 11 0;
#X connect 3 0 12 0;
#X connect 4 0 0 0;
#X connect 5 0 1 0;
#X connect 6 0 2 0;
#X connect 7 0 3 0;
#X connect 9 0 8 0;
#X connect 10 0 8 1;
#X connect 11 0 8 2;
#X connect 12 0 8 3;
#X connect 14 0 15 0;
#X connect 15 0 8 0;
#X connect 17 0 16 0 48.......................B.........f....78+++uL....e++++KC...v3++++;
#X connect 18 0 16 1 48.......................B.........f....f6+++ef....39+++GH...vt++++;
#X connect 19 0 16 2 48.......................B.........f.....4+++ez....P9+++GM...vj++++;
#X connect 20 0 16 3 48.......................B.........f....f1+++OHA...n8+++CR...vZ++++;
#X connect 21 0 16 4 48......................7A.........e.....z+++ObA....8+++CW...vP++++;
#X connect 22 0 16 5 48.......................B.........f....fw++++uA...X7++++a...vF++++;
#X connect 23 0 16 6 48.......................B.........f.....u++++CB...v6++++f...v79+++;
#X connect 24 0 16 7 48.......................B.........f....fr++++WB...H6++++k...vx9+++;
