#N canvas 827 239 666 376 12;
#X obj 19 69 osc~;
#X obj 69 69 osc~;
#X obj 119 69 osc~;
#X obj 169 69 osc~;
#X obj 19 29 nbx 4 18 -1e+37 1e+37 0 1 empty empty empty 0 -8 0 10 #191919 #d4d4d4 #d4d4d4 246 256;
#X obj 69 29 nbx 4 18 -1e+37 1e+37 0 1 empty empty empty 0 -8 0 10 #191919 #d4d4d4 #d4d4d4 61 256;
#X obj 119 29 nbx 4 18 -1e+37 1e+37 0 1 empty empty empty 0 -8 0 10 #191919 #d4d4d4 #d4d4d4 1024 256;
#X obj 169 29 nbx 4 18 -1e+37 1e+37 0 1 empty empty empty 0 -8 0 10 #191919 #d4d4d4 #d4d4d4 319 256;
#X obj 299 19 monarch8;
#X obj 249 29 *~ 1;
#X obj 249 109 *~ 1;
#X obj 249 179 *~ 1;
#X obj 249 259 *~ 1;
#X obj 249 329 *~ 1;
#X obj 249 399 *~ 1;
#X obj 249 469 *~ 1;
#X obj 249 539 *~ 1;
#X msg 429 -21 morph \$1;
#X msg 299 -21 a \$1;
#X msg 359 -21 b \$1;
#X obj 299 -43 nbx 4 18 -1e+37 1e+37 0 0 empty empty empty 0 -8 0 10 #191919 #d4d4d4 #d4d4d4 0 256;
#X obj 359 -43 nbx 4 18 -1e+37 1e+37 0 0 empty empty empty 0 -8 0 10 #191919 #d4d4d4 #d4d4d4 0 256;
#X msg 219 -41 save 3;
#X obj 432 -43 hsl 128 17 0 1 0 0 empty empty empty -2 -8 0 10 #191919 #d4d4d4 #d4d4d4 0 1;
#X msg 233 -74 save 8;
#X msg 149 -71 save 7;
#X connect 0 0 9 0;
#X connect 1 0 10 0;
#X connect 2 0 12 0;
#X connect 3 0 13 0;
#X connect 4 0 0 0;
#X connect 5 0 1 0;
#X connect 6 0 2 0;
#X connect 7 0 3 0;
#X connect 9 0 8 0 48.......................B.........f....78+++uL....e++++KC...v3++++;
#X connect 10 0 8 1 48.................P.....B....D....f.....4+++Ob....P9+++CG...vj++++;
#X connect 11 0 8 2 48.................I.....B...PB....f....nz++++q....J8++++J...PS++++;
#X connect 12 0 8 3 48.................K.....B...vB....f....nu+++u6....56+++6N...P+9+++;
#X connect 13 0 8 4 48.................L....7A....C....e....Pq+++OKA...z5+++yR...vs9+++;
#X connect 14 0 8 5 48.................L.....B....C....f....3l++++ZA...t4+++uV...Pb9+++;
#X connect 15 0 8 6 48.................I.....B...PB....f....fh+++upA...n3+++qZ...vJ9+++;
#X connect 16 0 8 7 48.................I.....B...PB....f....Hd+++e5A...h2+++md...P48+++;
#X connect 17 0 8 0;
#X connect 18 0 8 0;
#X connect 19 0 8 0;
#X connect 20 0 18 0;
#X connect 21 0 19 0;
#X connect 22 0 8 0;
#X connect 23 0 17 0;
#X connect 24 0 8 0;
#X connect 25 0 8 0;
