#N canvas 827 239 666 376 12;
#X obj 19 69 osc~;
#X obj 69 69 osc~;
#X obj 119 69 osc~;
#X obj 169 69 osc~;
#X obj 19 29 nbx 4 18 -1e+37 1e+37 0 1 empty empty empty 0 -8 0 10 #191919 #d4d4d4 #d4d4d4 246 256;
#X obj 69 29 nbx 4 18 -1e+37 1e+37 0 1 empty empty empty 0 -8 0 10 #191919 #d4d4d4 #d4d4d4 61 256;
#X obj 119 29 nbx 4 18 -1e+37 1e+37 0 1 empty empty empty 0 -8 0 10 #191919 #d4d4d4 #d4d4d4 1024 256;
#X obj 169 29 nbx 4 18 -1e+37 1e+37 0 1 empty empty empty 0 -8 0 10 #191919 #d4d4d4 #d4d4d4 319 256;
#X obj 319 89 monarch;
#X obj 269 99 *~ 1;
#X obj 269 139 *~ 1;
#X obj 269 179 *~ 1;
#X obj 269 219 *~ 1;
#X text 397 61 @@those inlets don't exist@@;
#X obj 319 9 loadbang;
#X msg 319 39 read test.txt;
#X obj 69 459 monarch8;
#X obj 19 469 *~ 1;
#X obj 19 549 *~ 1;
#X obj 19 619 *~ 1;
#X obj 19 699 *~ 1;
#X obj 19 769 *~ 1;
#X obj 19 839 *~ 1;
#X obj 19 909 *~ 1;
#X obj 19 979 *~ 1;
#X msg 69 419 read test8.txt;
#X obj 69 389 loadbang;
#X text 183 412 first inlet is connected to the [text define] object inside;
#X text 184 390 <- you can save the presets in a file and use this to load them at load time;
#X text 175 160 inputs -->;
#X text 419 348 ^ outputs;
#X connect 0 0 9 0;
#X connect 1 0 10 0;
#X connect 2 0 11 0;
#X connect 3 0 12 0;
#X connect 4 0 0 0;
#X connect 5 0 1 0;
#X connect 6 0 2 0;
#X connect 7 0 3 0;
#X connect 9 0 8 0 48......................3A.........d....38+++uL....d++++KC...v3++++;
#X connect 10 0 8 1 48......................3A.........d....X6++++g....19+++eH...vt++++;
#X connect 11 0 8 2 48......................7A.........e....33+++O2....N9+++yM...vj++++;
#X connect 12 0 8 3 48......................7A.........e....X1+++uLA...l8+++KS...vZ++++;
#X connect 14 0 15 0;
#X connect 17 0 16 0 48.......................B.........f....78+++uL....e++++KC...v3++++;
#X connect 18 0 16 1 48.................P.....B....D....f.....4+++Ob....P9+++CG...vj++++;
#X connect 19 0 16 2 48.................I.....B...PB....f....nz++++q....J8++++J...PS++++;
#X connect 20 0 16 3 48.................K.....B...vB....f....nu+++u6....56+++6N...P+9+++;
#X connect 21 0 16 4 48.................L....7A....C....e....Pq+++OKA...z5+++yR...vs9+++;
#X connect 22 0 16 5 48.................L.....B....C....f....3l++++ZA...t4+++uV...Pb9+++;
#X connect 23 0 16 6 48.................I.....B...PB....f....fh+++upA...n3+++qZ...vJ9+++;
#X connect 24 0 16 7 48.................I.....B...PB....f....Hd+++e5A...h2+++md...P48+++;
#X connect 26 0 25 0;
