#N canvas 827 239 527 327 12;
#X obj 49 119 sig~;
#X obj 239 149 ofelia f \; s = require("hii") \; return ofTable(s.x \, s.y);
#X obj 239 109 bng 25 250 50 0 empty empty empty 17 7 0 10 #191919 #d4d4d4 #d4d4d4;
#X listbox 239 223 31 0 0 0 empty - - 36;
#X obj 48 68 nbx 4 18 -1e+37 1e+37 0 1 empty empty empty 0 -8 0 10 #191919 #d4d4d4 #d4d4d4 3 256;
#X obj 49 149 ofelia f -s10 hii \; M.x = 0 \; M.y = 0 \; for i = 1 \, #a1 do \; M.x = M.x + 1 \; end \; M.y = M.y + 1 \;;
#X connect 0 0 5 0;
#X connect 1 0 3 0;
#X connect 2 0 1 0;
#X connect 4 0 0 0;
