#N canvas 720 100 665 514 10;
#X declare -path ofelia/abs;
#X text 25 22 Rotating lined cubes with different color \, line width and size which oscillates over time.;
#X obj 29 159 ofWindow;
#X obj 359 39 ofSetup;
#X obj 39 239 ofDraw;
#X obj 499 19 declare -path ofelia/abs;
#X obj 359 99 ofelia f \; ofBackground(0) \; ofNoFill() \; centerX = ofGetWidth() / 2 \; centerY = ofGetHeight() / 2 \; size = 100 \; angle = 0 \;;
#X msg 359 69 bang;
#X msg 29 119 setPosition 30 100 \, setSize 500 500 \, create;
#X obj 29 79 bng 25 250 50 0 empty empty empty 17 7 0 10 #191919 #ffffff #ffffff;
#X obj 39 259 ofelia f \; ofTranslate(centerX \, centerY) \; for i = 1 \, 12 do \; ofPushMatrix() \; ofSetLineWidth(i / 8) \; ofSetColor((i * 50) % 255 \, (i * 10 * angle) % 255 \, (i * 15 * angle) % 255) \; ofRotateXDeg(angle * 9) \; ofRotateYDeg(angle * 2) \; ofRotateZDeg(angle * 8) \; ofDrawBox(size + math.sin(angle + 2) * i * math.cos(angle + 83 * i)* 4) \; ofPopMatrix() \; end \; angle = angle + 0.05 \;;
#X f 93;
#X connect 2 0 6 0 empty;
#X connect 3 0 9 0 empty;
#X connect 6 0 5 0 empty;
#X connect 7 0 1 0 empty;
#X connect 8 0 7 0 empty;
