#N canvas 720 100 665 514 10;
#X declare -path ofelia/abs;
#X obj 29 99 ofWindow;
#X obj 419 69 ofSetup;
#X obj 29 219 ofDraw;
#X obj 299 9 declare -path ofelia/abs;
#X msg 419 99 bang;
#X msg 29 69 setPosition 50 100 \, setSize 600 600 \, create;
#X obj 419 149 ofelia f \; ofBackground(25) \; circleStyle = ofStyle() \; circleStyle.bFill = false \; circleStyle.lineWidth = 2 \; circleStyle.circleResolution = 100 \; ofSetStyle(circleStyle) \; centerX = ofGetWidth() / 2 \; centerY = ofGetHeight() / 2 \;;
#X f 38;
#X obj 29 259 ofelia f \; ofDrawCircle(centerX \, centerY \, 250);
#X connect 1 0 4 0 empty;
#X connect 2 0 7 0 empty;
#X connect 4 0 6 0 empty;
#X connect 5 0 0 0 empty;
