#N canvas 720 100 665 514 10;
#X declare -path ofelia/abs;
#X obj 9 69 ofWindow;
#X obj 459 69 ofSetup;
#X obj 9 229 ofDraw;
#X obj 489 9 declare -path ofelia/abs;
#X msg 459 99 bang;
#X msg 9 39 setPosition 600 100 \, setSize 600 600 \, create;
#X obj 459 129 ofelia f \; ofBackground(25) \; ofNoFill() \; ofSetCircleResolution(100) \; centerX = ofGetWidth() / 2 \; centerY = ofGetHeight() / 2 \;;
#X f 30;
#X obj 9 269 ofelia f \; ofDrawCircle(centerX \, centerY \, 250);
#X connect 1 0 4 0 empty;
#X connect 2 0 7 0 empty;
#X connect 4 0 6 0 empty;
#X connect 5 0 0 0 empty;
