#N canvas 827 239 761 528 12;
#X declare -path ofelia/abs;
#X obj 599 9 declare -path ofelia/abs;
#X obj 19 19 loadbang;
#X obj 19 79 ofWindow;
#X obj 529 19 ofSetup;
#X obj 449 339 ofDraw;
#X msg 19 49 setPosition 30 100 \, setSize 640 360 \, title awawa \, create;
#X obj 529 49 ofelia f \; ofBackground(25 \, 25 \, 25) \; pX \, pY \, pZ \, w \, col = {} \, {} \, {} \, {} \, {} \;;
#X obj 559 169 nbx 4 18 -1e+37 1e+37 0 1 empty empty empty 0 -8 0 10 #191919 #d4d4d4 #d4d4d4 64 256;
#X obj 39 159 osc~ 0.4;
#X obj 119 159 osc~ 0.3;
#X obj 199 159 osc~ 0.3;
#X obj 199 137 nbx 4 18 -1e+37 1e+37 0 0 empty empty empty 0 -8 0 10 #191919 #d4d4d4 #d4d4d4 0 256;
#X obj 49 449 ofelia f \; local s = require("settings_\$0") \; for i = s.numPoints \, 2 \, -1 do \; pX[i] = pX[i-1] \; pY[i] = pY[i-1] \; pZ[i] = pZ[i-1] \; w[i] = w[i-1] \; col[i] = col[i-1] \; end \; pX[1] = ofGetMouseX() \; pY[1] = ofGetMouseY() \; col[1] = ofColor.fromHsb(ofRandom(255) \, 255 \, 255) \;;
#X obj 449 369 ofelia f \; local s = require("settings_\$0") \; ofDrawCircle(pX[1] \, pY[1] \, 3) \; for i = 2 \, math.min(s.numPoints \, #pX) do \; ofSetColor(ofColor.fromHsb(col[i] \, 255 \, 255)) \; ofDrawLine(pX[i-1] \, pY[i-1] \, pX[i] \, pY[i]) \; ofDrawCircle(pX[i] \, pY[i] \, 3) \; end \;;
#X obj 499 169 nbx 4 18 -1e+37 1e+37 0 1 empty empty empty 0 -8 0 10 #191919 #d4d4d4 #d4d4d4 4 256;
#X msg 499 199 res \$1;
#X obj 629 139 ofWindowResized;
#X obj 629 166 unpack f f;
#X msg 619 196 W \$1;
#X msg 669 196 H \$1;
#X obj 469 199 bng 25 250 50 0 empty empty empty 17 7 0 10 #191919 #d4d4d4 #d4d4d4;
#X obj 569 239 ofelia f settings_\$0 \; M.N = 64 \; M.res = 4 \; M.W = 640 \; M.H = 360 \; M.head = 1 \;;
#X msg 559 199 N \$1;
#X obj 49 239 ofelia f -s50 \; local s = require("settings_\$0") \; for i = 1 \, #a1 \, s.res do \; if s.head > s.N then s.head = s.head - s.N end \; pX[s.head] = a1[i] \; pY[s.head] = a2[i] \; pZ[s.head] = a3[i] \; w[s.head] = a4[i] \; col[s.head] = a5[i] \; s.head = s.head + 1 \; end \;;
#X connect 1 0 5 0;
#X connect 3 0 6 0;
#X connect 5 0 2 0;
#X connect 7 0 22 0;
#X connect 8 0 23 0;
#X connect 9 0 23 1;
#X connect 10 0 23 2;
#X connect 11 0 10 0;
#X connect 14 0 15 0;
#X connect 15 0 21 0;
#X connect 16 0 17 0;
#X connect 17 0 18 0;
#X connect 17 1 19 0;
#X connect 18 0 21 0;
#X connect 19 0 21 0;
#X connect 20 0 21 0;
#X connect 22 0 21 0;
