#N canvas 827 239 761 528 12;
#X declare -path ofelia/abs;
#X obj 599 9 declare -path ofelia/abs;
#X obj 9 9 loadbang;
#X obj 9 69 ofWindow;
#X obj 449 39 ofSetup;
#X obj 19 229 ofDraw;
#X msg 9 39 setPosition 30 100 \, setSize 640 360 \, title awawa \, create;
#X obj 579 39 nbx 4 18 -1e+37 1e+37 0 1 empty empty empty 0 -8 0 10 #191919 #d4d4d4 #d4d4d4 64 256;
#X obj 379 279 osc~ 0.4;
#X obj 449 279 osc~ 0.3;
#X obj 519 39 nbx 4 18 -1e+37 1e+37 0 1 empty empty empty 0 -8 0 10 #191919 #d4d4d4 #d4d4d4 4 256;
#X msg 519 69 res \$1;
#X obj 629 39 ofWindowResized;
#X obj 629 69 unpack f f;
#X msg 629 99 W \$1;
#X msg 679 99 H \$1;
#X msg 579 69 N \$1;
#X obj 529 279 sig~;
#X obj 529 249 nbx 4 18 -1e+37 1e+37 0 1 empty empty empty 0 -8 0 10 #191919 #d4d4d4 #d4d4d4 2 256;
#X obj 589 279 sig~;
#X obj 589 249 nbx 4 18 -1e+37 1e+37 0 1 empty empty empty 0 -8 0 10 #191919 #d4d4d4 #d4d4d4 2 256;
#X obj 649 279 sig~;
#X obj 649 249 nbx 4 18 -1e+37 1e+37 0 1 empty empty empty 0 -8 0 10 #191919 #d4d4d4 #d4d4d4 160 256;
#X obj 379 249 nbx 4 18 -1e+37 1e+37 0 0 empty empty empty 0 -8 0 10 #191919 #d4d4d4 #d4d4d4 0 256;
#X obj 449 249 nbx 4 18 -1e+37 1e+37 0 0 empty empty empty 0 -8 0 10 #191919 #d4d4d4 #d4d4d4 0 256;
#X obj 149 159 ofelia f \; ofBackground(25 \, 25 \, 25) \;;
#X obj 449 139 ofelia f settings_\$0 \; M.N \, M.res = 64 \, 4 \; M.W \, M.H = 640 \, 360 \; M.head = 1 \; pX \, pY \, pZ \, w \, col = {} \, {} \, {} \, {} \, {} \;;
#X obj 19 269 ofelia f \; local s = require("settings_\$0") \; ofSetColor(ofColor.fromHsb(col[s.head] \, 255 \, 255)) \; ofSetLineWidth(w[s.head]) \; ofDrawCircle(pX[s.head] \, pY[s.head] \, pZ[s.head]) \; for j = 2 \, s.N do \; i = s.head+1 \; if i > s.N then i = i - s.N end \; ofSetColor(ofColor.fromHsb(col[i] \, 255 \, 255)) \; ofSetLineWidth(w[i]) \; ofDrawCircle(pX[i] \, pY[i] \, pZ[i]) \; ofDrawLine(pX[i-1] \, pY[i-1] \, pX[i] \, pY[i]) \; i = i + 1 \; end \;;
#X obj 389 319 ofelia f -s50 \; local s = require("settings_\$0") \; for i = 1 \, #a1 \, s.res do \; pX[s.head] = ((a1[i]+1)/2)*ofGetWindowWidth() \; pY[s.head] = ((a2[i]+1)/2)*ofGetWindowHeight() \; pZ[s.head] = a3[i] \; w[s.head] = a4[i] \; col[s.head] = a5[i] \; s.head = s.head + 1 \; if s.head > s.N then s.head = s.head - s.N end \; end \;;
#X connect 1 0 5 0;
#X connect 3 0 25 0;
#X connect 4 0 26 0;
#X connect 5 0 2 0;
#X connect 6 0 15 0;
#X connect 7 0 27 0;
#X connect 8 0 27 1;
#X connect 9 0 10 0;
#X connect 10 0 25 0;
#X connect 11 0 12 0;
#X connect 12 0 13 0;
#X connect 12 1 14 0;
#X connect 13 0 25 0;
#X connect 14 0 25 0;
#X connect 15 0 25 0;
#X connect 16 0 27 2;
#X connect 17 0 16 0;
#X connect 18 0 27 3;
#X connect 19 0 18 0;
#X connect 20 0 27 4;
#X connect 21 0 20 0;
#X connect 22 0 7 0;
