#N canvas 827 239 761 528 12;
#X declare -path ofelia/abs;
#X obj 599 9 declare -path ofelia/abs;
#X obj 29 39 loadbang;
#X obj 29 99 ofWindow;
#X obj 489 39 ofSetup;
#X obj 489 249 ofDraw;
#X obj 29 259 ofUpdate;
#X msg 29 69 setPosition 30 100 \, setSize 640 360 \, title awawa \, create;
#X obj 489 69 ofelia f \; ofBackground(25 \, 25 \, 25) \; pX \, pY \, pZ \, w \, col = {} \, {} \, {} \, {} \, {} \;;
#X msg 89 179 numPoints \$1;
#X obj 89 209 ofelia f settings_\$0 \; M.numPoints = 0 \;;
#X obj 89 149 nbx 4 18 -1e+37 1e+37 0 1 empty empty empty 0 -8 0 10 #191919 #d4d4d4 #d4d4d4 450 256;
#X obj 249 199 *~ 640;
#X obj 319 199 *~ 360;
#X obj 249 139 +~ 1;
#X obj 249 169 /~ 2;
#X obj 319 139 +~ 1;
#X obj 319 169 /~ 2;
#X obj 249 109 osc~ 0.4;
#X obj 319 99 osc~ 0.3;
#X obj 259 239 ofelia f -s30 \; pX \, pY \, col = a1 \, a2 \, a3 \;;
#X obj 399 139 +~ 1;
#X obj 399 169 /~ 2;
#X obj 399 99 osc~ 0.3;
#X obj 399 199 *~ 255;
#X obj 399 69 nbx 4 18 -1e+37 1e+37 0 0 empty empty empty 0 -8 0 10 #191919 #d4d4d4 #d4d4d4 0 256;
#X obj 29 299 ofelia f \; local s = require("settings_\$0") \; for i = s.numPoints \, 2 \, -1 do \; pX[i] = pX[i-1] \; pY[i] = pY[i-1] \; pZ[i] = pZ[i-1] \; w[i] = w[i-1] \; col[i] = col[i-1] \; end \; pX[1] = ofGetMouseX() \; pY[1] = ofGetMouseY() \; col[1] = ofColor.fromHsb(ofRandom(255) \, 255 \, 255) \;;
#X obj 489 289 ofelia f \; local s = require("settings_\$0") \; ofDrawCircle(pX[1] \, pY[1] \, 3) \; for i = 2 \, math.min(s.numPoints \, #pX) do \; ofSetColor(ofColor.fromHsb(col[i] \, 255 \, 255)) \; ofDrawLine(pX[i-1] \, pY[i-1] \, pX[i] \, pY[i]) \; ofDrawCircle(pX[i] \, pY[i] \, 3) \; end \;;
#X connect 1 0 6 0;
#X connect 3 0 7 0;
#X connect 4 0 26 0;
#X connect 6 0 2 0;
#X connect 8 0 9 0;
#X connect 10 0 8 0;
#X connect 11 0 19 0;
#X connect 12 0 19 1;
#X connect 13 0 14 0;
#X connect 14 0 11 0;
#X connect 15 0 16 0;
#X connect 16 0 12 0;
#X connect 17 0 13 0;
#X connect 18 0 15 0;
#X connect 20 0 21 0;
#X connect 21 0 23 0;
#X connect 22 0 20 0;
#X connect 23 0 19 2;
#X connect 24 0 22 0;
