#N canvas 827 239 761 528 12;
#X declare -path ofelia/abs;
#X obj 599 9 declare -path ofelia/abs;
#X obj 19 19 loadbang;
#X obj 19 79 ofWindow;
#X obj 529 19 ofSetup;
#X obj 449 339 ofDraw;
#X obj -271 269 ofUpdate;
#X msg 19 49 setPosition 30 100 \, setSize 640 360 \, title awawa \, create;
#X obj 529 49 ofelia f \; ofBackground(25 \, 25 \, 25) \; pX \, pY \, pZ \, w \, col = {} \, {} \, {} \, {} \, {} \;;
#X obj 559 169 nbx 4 18 -1e+37 1e+37 0 1 empty empty empty 0 -8 0 10 #191919 #d4d4d4 #d4d4d4 64 256;
#X obj 69 179 *~ 640;
#X obj 139 179 *~ 360;
#X obj 69 133 +~ 1;
#X obj 69 156 /~ 2;
#X obj 139 133 +~ 1;
#X obj 139 156 /~ 2;
#X obj 69 110 osc~ 0.4;
#X obj 139 110 osc~ 0.3;
#X obj 219 133 +~ 1;
#X obj 219 156 /~ 2;
#X obj 219 110 osc~ 0.3;
#X obj 219 179 *~ 255;
#X obj 219 88 nbx 4 18 -1e+37 1e+37 0 0 empty empty empty 0 -8 0 10 #191919 #d4d4d4 #d4d4d4 0 256;
#X obj -271 309 ofelia f \; local s = require("settings_\$0") \; for i = s.numPoints \, 2 \, -1 do \; pX[i] = pX[i-1] \; pY[i] = pY[i-1] \; pZ[i] = pZ[i-1] \; w[i] = w[i-1] \; col[i] = col[i-1] \; end \; pX[1] = ofGetMouseX() \; pY[1] = ofGetMouseY() \; col[1] = ofColor.fromHsb(ofRandom(255) \, 255 \, 255) \;;
#X obj 449 369 ofelia f \; local s = require("settings_\$0") \; ofDrawCircle(pX[1] \, pY[1] \, 3) \; for i = 2 \, math.min(s.numPoints \, #pX) do \; ofSetColor(ofColor.fromHsb(col[i] \, 255 \, 255)) \; ofDrawLine(pX[i-1] \, pY[i-1] \, pX[i] \, pY[i]) \; ofDrawCircle(pX[i] \, pY[i] \, 3) \; end \;;
#X obj 499 169 nbx 4 18 -1e+37 1e+37 0 1 empty empty empty 0 -8 0 10 #191919 #d4d4d4 #d4d4d4 4 256;
#X msg 499 199 res \$1;
#X text 309 98 pX \, pY \, col = a1 \, a2 \, a3 \;;
#X obj 629 139 ofWindowResized;
#X obj 629 166 unpack f f;
#X msg 619 196 W \$1;
#X msg 669 196 H \$1;
#X obj 429 199 bng 25 250 50 0 empty empty empty 17 7 0 10 #191919 #d4d4d4 #d4d4d4;
#X obj 569 239 ofelia f settings_\$0 \; M.N = 64 \; M.res = 4 \; M.W = 640 \; M.H = 360 \; M.head = 1 \;;
#X msg 559 199 N \$1;
#X obj 69 219 ofelia f -s50 \; local s = require("settings_\$0") \; for i = 1 \, #a1 \, s.res do \; pX[s.head] = a1[s.head] \; pY[s.head] = a2[s.head] \; pZ[s.head] = a3[s.head] \; w[s.head] = a4[s.head] \; col[s.head] = a5[s.head] \; s.head = (s.head < s.N and s.head+1 or s.head-s.N) \; end \;;
#X connect 1 0 6 0;
#X connect 3 0 7 0;
#X connect 6 0 2 0;
#X connect 8 0 33 0;
#X connect 9 0 34 0;
#X connect 10 0 34 1;
#X connect 11 0 12 0;
#X connect 12 0 9 0;
#X connect 13 0 14 0;
#X connect 14 0 10 0;
#X connect 15 0 11 0;
#X connect 16 0 13 0;
#X connect 17 0 18 0;
#X connect 18 0 20 0;
#X connect 19 0 17 0;
#X connect 20 0 34 2;
#X connect 21 0 19 0;
#X connect 24 0 25 0;
#X connect 25 0 32 0;
#X connect 27 0 28 0;
#X connect 28 0 29 0;
#X connect 28 1 30 0;
#X connect 29 0 32 0;
#X connect 30 0 32 0;
#X connect 31 0 32 0;
#X connect 33 0 32 0;
