#N canvas 827 239 800 550 12;
#X declare -path ofelia/abs;
#X obj 89 9 declare -path ofelia/abs;
#X obj 9 9 loadbang;
#X obj 9 69 ofWindow;
#X obj 19 129 ofSetup;
#X obj 19 279 ofDraw;
#X msg 9 39 setPosition 30 100 \, setSize 640 360 \, title awawa \, create;
#X obj 149 99 nbx 7 21 -1e+37 1e+37 0 1 empty empty empty 0 -8 0 10 #191919 #d4d4d4 #d4d4d4 347 256;
#X obj 509 169 osc~ 0.4;
#X obj 89 99 nbx 4 18 -1e+37 1e+37 0 1 empty empty empty 0 -8 0 10 #191919 #d4d4d4 #d4d4d4 9 256;
#X msg 89 129 res \$1;
#X msg 149 129 N \$1;
#X obj 589 169 sig~;
#X obj 589 139 nbx 4 18 -1e+37 1e+37 0 1 empty empty empty 0 -8 0 10 #191919 #d4d4d4 #d4d4d4 4 256;
#X obj 669 169 sig~;
#X obj 669 139 nbx 4 18 -1e+37 1e+37 0 1 empty empty empty 0 -8 0 10 #191919 #d4d4d4 #d4d4d4 0.8 256;
#X obj 739 169 sig~;
#X obj 509 139 nbx 4 18 -1e+37 1e+37 0 1 empty empty empty 0 -8 0 10 #191919 #d4d4d4 #d4d4d4 197 256;
#X obj 429 109 phasor~ 0.3;
#X obj 429 139 *~ 2;
#X obj 429 169 -~ 1;
#X obj 429 79 nbx 4 18 -1e+37 1e+37 0 1 empty empty empty 0 -8 0 10 #191919 #d4d4d4 #d4d4d4 20.1 256;
#X text 479 528 amy universe 2023 github.com/tomara-x/moths;
#X obj 739 108 lfo;
#X obj 739 139 * 2;
#X obj 739 79 nbx 4 18 -1e+37 1e+37 0 1 empty empty empty 0 -8 0 10 #191919 #d4d4d4 #d4d4d4 0.1 256;
#X obj 19 319 ofelia f \; local s = require("settings_\$0") \; ofSetColor(ofColor.fromHsb(col[1] or 0 \, 255 \, 255)) \; ofSetLineWidth(w[1] or 0) \; ofDrawCircle(pX[1] or 0 \, pY[1] or 0 \, pZ[1] or 0) \; for i = 2 \, s.N do \; ofSetColor(ofColor.fromHsb(col[i] or 0 \, 255 \, 255)) \; ofSetLineWidth(w[i] or 0) \; ofDrawCircle(pX[i] or 0 \, pY[i] or 0 \, pZ[i] or 0) \; ofDrawLine(pX[i-1] or 0 \, pY[i-1] or 0 \, pX[i] or 0 \, pY[i] or 0) \; end;
#X obj 229 249 ofelia f \; ofBackground(a[1] \, a[2] \, a[3]) \;;
#X obj 229 219 colors -rgb;
#X msg 229 179 hex #191919;
#X msg 329 179 hex #ffacab;
#X obj 19 169 ofelia f settings_\$0 \; M.N \, M.res = 64 \, 4 \; M.head = 1 \; M.freeze = false \; pX \, pY \, pZ \, w \, col = {} \, {} \, {} \, {} \, {};
#X obj 429 219 ofelia f -s50 \; local s = require("settings_\$0") \; if pX and not s.freeze then \; for i = 1 \, #a1 \, s.res do \; if math.tointeger(i) then \; pX[s.head] = ((a1[i]+1)/2)*ofGetWindowWidth() \; pY[s.head] = ((a2[i]+1)/2)*ofGetWindowHeight() \; pZ[s.head] = a3[i] \; w[s.head] = a4[i] \; col[s.head] = a5[i] \; end \; s.head = s.head + 1 \; if s.head > s.N then s.head = s.head - s.N end \; end \; end;
#N canvas 0 50 450 300 freeze 0;
#X obj 169 259 outlet;
#X obj 169 59 select 32;
#X obj 169 29 ofKeyPressed;
#X obj 169 89 tgl 25 0 empty empty empty 17 7 0 10 #191919 #d4d4d4 #d4d4d4 0 1;
#X msg 169 139 freeze \$1;
#X connect 1 0 3 0;
#X connect 2 0 1 0;
#X connect 3 0 4 0;
#X connect 4 0 0 0;
#X restore 199 129 pd freeze;
#X connect 3 0 30 0;
#X connect 4 0 25 0;
#X connect 5 0 2 0;
#X connect 6 0 10 0;
#X connect 7 0 31 1;
#X connect 8 0 9 0;
#X connect 9 0 30 0;
#X connect 10 0 30 0;
#X connect 11 0 31 2;
#X connect 12 0 11 0;
#X connect 13 0 31 3;
#X connect 14 0 13 0;
#X connect 15 0 31 4;
#X connect 16 0 7 0;
#X connect 17 0 18 0;
#X connect 18 0 19 0;
#X connect 19 0 31 0;
#X connect 20 0 17 0;
#X connect 22 0 23 0;
#X connect 23 0 15 0;
#X connect 24 0 22 0;
#X connect 27 0 26 0;
#X connect 28 0 27 0;
#X connect 29 0 27 0;
#X connect 32 0 30 0;
