#N canvas 827 239 680 500 12;
#X declare -path ofelia/abs;
#X obj 519 19 declare -path ofelia/abs;
#X obj 29 39 loadbang;
#X obj 29 119 ofWindow;
#X msg 29 79 setPosition 30 100 \, setSize 640 360 \, create;
#X obj 429 129 ofSetup;
#X obj 359 249 ofDraw;
#X obj 699 199 ofelia f \; i = numPoints - 1 \; while i > 0 do \; pos[i] = pos[i-1] \; col[i] = col[i-1] \; i = i - 1 \; end \; pos[0].x = ofRandom(300) \; pos[0].y = ofRandom(400) \; col[0] = ofColor.fromHsb(ofRandom(255) \, 255 \, 255) \;;
#X obj 699 379 ofelia f \; for i = 0 \, numPoints-1 do \; ofSetColor(col[i]) \; ofDrawCircle(pos[i] \, 3) \; ofDrawLine(pos[i] \, pos[i+1]) \; end \; ofDrawCircle(pos[numPoints-1].x \, pos[numPoints-1].y \, 3) \;;
#X f 51;
#X obj 699 19 ofelia f \; i = numPoints - 1 \; while i > 0 do \; pos[i] = pos[i-1] \; col[i] = col[i-1] \; i = i - 1 \; end \; pos[0] = ofTable(mouseX \, mouseY) \; col[0] = ofColor.fromHsb(ofRandom(255) \, 255 \, 255) \; numPoints = math.ceil(ofGetElapsedTimef()) \;;
#X obj 29 249 ofUpdate;
#X obj 219 179 ofelia f \; return numPoints \;;
#X obj 219 139 bng 25 250 50 0 empty empty empty 17 7 0 10 #191919 #d4d4d4 #d4d4d4;
#X obj 219 239 nbx 4 18 -1e+37 1e+37 0 0 empty empty empty 0 -8 0 10 #191919 #d4d4d4 #d4d4d4 0 256;
#X obj 359 289 ofelia f \; for i = 0 \, numPoints-1 do \; ofSetColor(col[i]) \; ofDrawCircle(pos[i]:vec2() \, 3) \; ofDrawLine(pos[i]:vec2() \, pos[i+1]:vec2()) \; end \; ofDrawCircle(pos[numPoints-1]:vec2() \, 3) \;;
#X obj 29 289 ofelia f \; i = numPoints-1 \; while i > 0 do \; pos[i] = pos[i-1] \; col[i] = col[i-1] \; i = i - 1 \; end \; pos[0] = ofVec2f(ofGetMouseX() \, ofGetMouseY()) \; col[0] = ofColor.fromHsb(ofRandom(255) \, 255 \, 255) \; numPoints = math.ceil(ofGetElapsedTimef()) \;;
#X obj 499 99 ofelia d \; numPoints = 1 \;;
#X obj 429 159 ofelia f \; ofBackground(25 \, 25 \, 25) \; pos = {} \; col = {} \;;
#X f 23;
#X connect 1 0 3 0;
#X connect 3 0 2 0;
#X connect 4 0 16 0;
#X connect 5 0 13 0;
#X connect 9 0 14 0;
#X connect 10 0 12 0;
#X connect 11 0 10 0;
