#N canvas 827 239 761 528 12;
#X declare -path ofelia/abs;
#X obj 519 19 declare -path ofelia/abs;
#X obj 29 39 loadbang;
#X obj 29 119 ofWindow;
#X msg 29 79 setPosition 30 100 \, setSize 640 360 \, create;
#X obj 439 89 ofSetup;
#X obj 369 259 ofDraw;
#X obj 29 259 ofUpdate;
#X obj 509 59 ofelia d \; numPoints = 1 \;;
#X obj 439 119 ofelia f \; ofBackground(25 \, 25 \, 25) \; posX = {} \; posY = {} \; col = {} \;;
#X f 23;
#X obj 369 299 ofelia f \; for i = 0 \, numPoints-2 do \; ofSetColor(col[i]) \; ofDrawCircle(posX[i] \, posY[i] \, 3) \; ofDrawLine(posX[i] \, posY[i] \, posX[i+1] \, posY[i+1]) \; end \; ofDrawCircle(posX[numPoints-1] \, posY[numPoints-1] \, 3) \;;
#X obj 29 299 ofelia f \; i = numPoints \; while i > 0 do \; posX[i] = posX[i-1] \; posY[i] = posY[i-1] \; col[i] = col[i-1] \; i = i - 1 \; end \; posX[0] = ofGetMouseX() \; posY[0] = ofGetMouseY() \; col[0] = ofColor.fromHsb(ofRandom(255) \, 255 \, 255) \; numPoints = math.ceil(ofGetElapsedTimef()) \;;
#X connect 1 0 3 0;
#X connect 3 0 2 0;
#X connect 4 0 8 0;
#X connect 5 0 9 0;
#X connect 6 0 10 0;
