#N canvas 827 239 761 528 12;
#X declare -path ofelia/abs;
#X obj 599 9 declare -path ofelia/abs;
#X obj 29 39 loadbang;
#X obj 29 99 ofWindow;
#X obj 439 39 ofSetup;
#X obj 489 249 ofDraw;
#X obj 29 259 ofUpdate;
#X msg 29 69 setPosition 30 100 \, setSize 640 360 \, title awawa \, create;
#X obj 439 69 ofelia f \; ofBackground(25 \, 25 \, 25) \; pX \, pY \, pZ \, w \, col = {} \, {} \, {} \, {} \, {} \;;
#X msg 169 179 numPoints \$1;
#X obj 489 289 ofelia f \; local s = require("settings_\$0") \; ofDrawCircle(pX[1] \, pY[1] \, 3) \; for i = 2 \, #pX-1 do \; ofSetColor(col[i]) \; ofDrawLine(pX[i-1] \, pY[i-1] \, pX[i] \, pY[i]) \; ofDrawCircle(pX[i] \, pY[i] \, 3) \; end \;;
#X text 359 338 <- hacky af;
#X obj 29 299 ofelia f \; local s = require("settings_\$0") \; pX[s.numPoints+1] = nil \; for i = s.numPoints \, 2 \, -1 do \; pX[i] = pX[i-1] \; pY[i] = pY[i-1] \; pZ[i] = pZ[i-1] \; w[i] = w[i-1] \; col[i] = col[i-1] \; end \; pX[1] = ofGetMouseX() \; pY[1] = ofGetMouseY() \; col[1] = ofColor.fromHsb(ofRandom(255) \, 255 \, 255) \;;
#X obj 169 209 ofelia f settings_\$0 \; M.numPoints = 0 \;;
#X obj 169 149 nbx 4 18 -1e+37 1e+37 0 1 empty empty empty 0 -8 0 10 #191919 #d4d4d4 #d4d4d4 20 256;
#X connect 1 0 6 0;
#X connect 3 0 7 0;
#X connect 4 0 9 0;
#X connect 5 0 11 0;
#X connect 6 0 2 0;
#X connect 8 0 12 0;
#X connect 13 0 8 0;
