#N canvas 827 239 761 528 12;
#X declare -path ofelia/abs;
#X obj 599 9 declare -path ofelia/abs;
#X obj 29 39 loadbang;
#X obj 29 99 ofWindow;
#X obj 439 39 ofSetup;
#X obj 369 259 ofDraw;
#X obj 29 259 ofUpdate;
#X obj 439 69 ofelia f \; ofBackground(25 \, 25 \, 25) \; posX = {} \; posY = {} \; col = {} \;;
#X f 23;
#X msg 29 69 setPosition 30 100 \, setSize 640 360 \, title awawa \, create;
#X obj 369 299 ofelia f \; ofDrawCircle(posX[1] \, posY[1] \, 3) \; for i = 2 \, #posX-1 do \; ofSetColor(col[i]) \; ofDrawLine(posX[i-1] \, posY[i-1] \, posX[i] \, posY[i]) \; ofDrawCircle(posX[i] \, posY[i] \, 3) \; end \;;
#X obj 29 299 ofelia f \; for i = math.ceil(ofGetElapsedTimef()) \, 2 \, -1 do \; posX[i] = posX[i-1] \; posY[i] = posY[i-1] \; col[i] = col[i-1] \; end \; posX[1] = ofGetMouseX() \; posY[1] = ofGetMouseY() \; col[1] = ofColor.fromHsb(ofRandom(255) \, 255 \, 255) \;;
#X connect 1 0 7 0;
#X connect 3 0 6 0;
#X connect 4 0 8 0;
#X connect 5 0 9 0;
#X connect 7 0 2 0;
