#N canvas 827 239 527 327 12;
#N canvas 0 50 450 250 (subpatch) 0;
#X text 0 0 plugdatainfo <?xml version="1.0" encoding="UTF-8"?> <plugdatainfo/>;
#X coords 0 1 100 -1 1 1 1;
#X restore 0 0 graph;
#X obj 266 92 cnv 100 100 60 empty empty empty 20 12 0 14 #f83995 #5a5a5a 0;
#X obj 116 521 dac~;
#X obj 116 477 grain.sampler~ -t wow;
#X listbox 564 501 27 0 0 0 - - - 0;
#X obj 116 85 metro;
#X obj 116 152 nbx 4 18 -1e+37 1e+37 0 0 empty empty empty 0 -8 0 10 #e4e4e4 #5a5a5a #5a5a5a 0 256;
#X msg 207 47 tempo \$1 persec, f 17;
#X obj 207 14 nbx 4 18 -1e+37 1e+37 0 1 empty empty empty 0 -8 0 10 #e4e4e4 #5a5a5a #5a5a5a 62 256;
#X obj 116 186 euclid 10 8 0;
#X obj 116 293 euclid 5 2 0;
#X obj 116 259 nbx 4 18 -1e+37 1e+37 0 0 empty empty empty 0 -8 0 10 #e4e4e4 #5a5a5a #5a5a5a 0 256;
#X obj 217 203 nbx 4 18 -1e+37 1e+37 0 1 empty empty empty 0 -8 0 10 #e4e4e4 #5a5a5a #5a5a5a 24 256;
#X obj 199 263 nbx 4 18 -1e+37 1e+37 0 1 empty empty empty 0 -8 0 10 #e4e4e4 #5a5a5a #5a5a5a 8 256;
#X obj 199 95 nbx 4 18 -1e+37 1e+37 0 1 empty empty empty 0 -8 0 10 #e4e4e4 #5a5a5a #5a5a5a 42 256;
#X obj 199 146 nbx 4 18 -1e+37 1e+37 0 1 empty empty empty 0 -8 0 10 #e4e4e4 #5a5a5a #5a5a5a 13 256;
#X msg 349 355 dur \$1, f 8;
#X msg 421 355 rev \$1, f 8;
#X obj 349 312 nbx 4 17 -1e+37 1e+37 0 1 empty empty empty 0 -8 0 10 #e4e4e4 #5a5a5a #5a5a5a 798 256;
#X obj 421 312 nbx 4 17 -1e+37 1e+37 0 1 empty empty empty 0 -8 0 10 #e4e4e4 #5a5a5a #5a5a5a 96 256;
#X msg 41 371 sr 48000, f 10;
#X obj 284 312 nbx 4 17 -1e+37 1e+37 0 1 empty empty empty 0 -8 0 10 #e4e4e4 #5a5a5a #5a5a5a 168 256;
#X msg 284 355 n \$1, f 6;
#X msg 494 318 env tanh, f 10;
#X obj 116 119 count 42;
#X obj 116 230 count 22;
#X msg 494 355 autotune 0, f 12;
#X msg 284 263 size \$1 \$2, f 11;
#X obj 284 230 pack;
#X obj 394 230 pack;
#X obj 284 194 nbx 4 18 -1e+37 1e+37 0 1 empty empty empty 0 -8 0 10 #e4e4e4 #5a5a5a #5a5a5a 17 256;
#X obj 336 194 nbx 4 18 -1e+37 1e+37 0 1 empty empty empty 0 -8 0 10 #e4e4e4 #5a5a5a #5a5a5a 135 256;
#X obj 394 152 nbx 4 18 -1e+37 1e+37 0 1 empty empty empty 0 -8 0 10 #e4e4e4 #5a5a5a #5a5a5a -8 256;
#X obj 453 152 nbx 4 18 -1e+37 1e+37 0 1 empty empty empty 0 -8 0 10 #e4e4e4 #5a5a5a #5a5a5a 11.2 256;
#X msg 394 263 transp \$1 \$2, f 13;
#X obj 453 186 * 1000;
#X obj 394 186 * 1000;
#X obj 512 122 function 200 100 empty empty 0 1 228 228 228 0 0 0 0 0 0 0 0 237.113 0.744681 123.711 1 41.2371 0.0319149 164.948 0.808511 67.0104 0.457447 365.979 0;
#X obj 599 285 pack;
#X obj 599 249 nbx 4 18 -1e+37 1e+37 0 1 empty empty empty 0 -8 0 10 #e4e4e4 #5a5a5a #5a5a5a -1 256;
#X obj 651 249 nbx 4 18 -1e+37 1e+37 0 1 empty empty empty 0 -8 0 10 #e4e4e4 #5a5a5a #5a5a5a 1 256;
#X msg 599 318 pan \$1 \$2, f 11;
#X obj 116 29 loadbang;
#X obj 564 460 sample~ wow te.wav;
#X obj 502 263 insert;
#X msg 536 230 env, f 6;
#X text 578 225 <-- idiomatic way to do this?, f 24;
#X msg 41 328 sr 44100, f 10;
#X msg 515 85 0 1000 0, f 10;
#X text 292 98 gotta loadbang all this!, f 9;
#X msg 596 358 amp 0.05 0.9, f 14;
#X connect 3 0 2 0;
#X connect 3 1 2 1;
#X connect 5 0 24 0;
#X connect 6 0 9 0;
#X connect 7 0 5 0;
#X connect 8 0 7 0;
#X connect 9 0 25 0;
#X connect 10 0 3 0;
#X connect 11 0 10 0;
#X connect 12 0 10 1;
#X connect 12 0 25 1;
#X connect 13 0 10 2;
#X connect 14 0 9 1;
#X connect 14 0 24 1;
#X connect 15 0 9 2;
#X connect 16 0 3 0;
#X connect 17 0 3 0;
#X connect 18 0 16 0;
#X connect 19 0 17 0;
#X connect 20 0 3 0;
#X connect 21 0 22 0;
#X connect 22 0 3 0;
#X connect 23 0 3 0;
#X connect 24 0 6 0;
#X connect 25 0 11 0;
#X connect 26 0 3 0;
#X connect 27 0 3 0;
#X connect 28 0 27 0;
#X connect 29 0 34 0;
#X connect 30 0 28 0;
#X connect 31 0 28 1;
#X connect 32 0 36 0;
#X connect 33 0 35 0;
#X connect 34 0 3 0;
#X connect 35 0 29 1;
#X connect 36 0 29 0;
#X connect 37 0 44 0;
#X connect 38 0 41 0;
#X connect 39 0 38 0;
#X connect 40 0 38 1;
#X connect 41 0 3 0;
#X connect 42 0 5 0;
#X connect 43 0 4 0;
#X connect 44 0 3 0;
#X connect 45 0 44 1;
#X connect 47 0 3 0;
#X connect 48 0 37 0;
#X connect 50 0 3 0;
